  0
SECTION
  2
ENTITIES
  0
LINE
 10
25.000000
 11
25.000000
 20
35.000000
 21
45.000000
  0
LINE
 10
25.000000
 11
45.000000
 20
45.000000
 21
45.000000
  0
LINE
 10
45.000000
 11
45.000000
 20
45.000000
 21
35.000000
  0
LINE
 10
45.000000
 11
25.000000
 20
35.000000
 21
35.000000
  0
LINE
 10
26.862000
 11
26.871000
 20
40.750000
 21
40.952000
  0
LINE
 10
26.871000
 11
26.898000
 20
40.952000
 21
41.152000
  0
LINE
 10
26.898000
 11
26.944000
 20
41.152000
 21
41.349000
  0
LINE
 10
26.944000
 11
27.005000
 20
41.349000
 21
41.541000
  0
LINE
 10
27.005000
 11
27.086000
 20
41.541000
 21
41.726000
  0
LINE
 10
27.086000
 11
27.180000
 20
41.726000
 21
41.904000
  0
LINE
 10
27.180000
 11
27.293000
 20
41.904000
 21
42.073000
  0
LINE
 10
27.293000
 11
27.418000
 20
42.073000
 21
42.230000
  0
LINE
 10
27.418000
 11
27.557000
 20
42.230000
 21
42.376000
  0
LINE
 10
27.557000
 11
27.709000
 20
42.376000
 21
42.509000
  0
LINE
 10
27.709000
 11
27.872000
 20
42.509000
 21
42.628000
  0
LINE
 10
27.872000
 11
28.046000
 20
42.628000
 21
42.731000
  0
LINE
 10
28.046000
 11
28.229000
 20
42.731000
 21
42.819000
  0
LINE
 10
28.229000
 11
28.418000
 20
42.819000
 21
42.890000
  0
LINE
 10
28.418000
 11
28.612000
 20
42.890000
 21
42.944000
  0
LINE
 10
28.612000
 11
28.810000
 20
42.944000
 21
42.980000
  0
LINE
 10
28.810000
 11
29.011000
 20
42.980000
 21
42.998000
  0
LINE
 10
29.011000
 11
29.214000
 20
42.998000
 21
42.998000
  0
LINE
 10
29.214000
 11
29.415000
 20
42.998000
 21
42.980000
  0
LINE
 10
29.415000
 11
29.613000
 20
42.980000
 21
42.944000
  0
LINE
 10
29.613000
 11
29.807000
 20
42.944000
 21
42.890000
  0
LINE
 10
29.807000
 11
29.996000
 20
42.890000
 21
42.819000
  0
LINE
 10
29.996000
 11
30.179000
 20
42.819000
 21
42.731000
  0
LINE
 10
30.179000
 11
30.353000
 20
42.731000
 21
42.628000
  0
LINE
 10
30.353000
 11
30.516000
 20
42.628000
 21
42.509000
  0
LINE
 10
30.516000
 11
30.667000
 20
42.509000
 21
42.376000
  0
LINE
 10
30.667000
 11
30.807000
 20
42.376000
 21
42.230000
  0
LINE
 10
30.807000
 11
30.932000
 20
42.230000
 21
42.073000
  0
LINE
 10
30.932000
 11
31.045000
 20
42.073000
 21
41.904000
  0
LINE
 10
31.045000
 11
31.139000
 20
41.904000
 21
41.726000
  0
LINE
 10
31.139000
 11
31.220000
 20
41.726000
 21
41.541000
  0
LINE
 10
31.220000
 11
31.281000
 20
41.541000
 21
41.349000
  0
LINE
 10
31.281000
 11
31.327000
 20
41.349000
 21
41.152000
  0
LINE
 10
31.327000
 11
31.353000
 20
41.152000
 21
40.952000
  0
LINE
 10
31.353000
 11
31.362000
 20
40.952000
 21
40.750000
  0
LINE
 10
31.362000
 11
31.353000
 20
40.750000
 21
40.548000
  0
LINE
 10
31.353000
 11
31.327000
 20
40.548000
 21
40.348000
  0
LINE
 10
31.327000
 11
31.281000
 20
40.348000
 21
40.151000
  0
LINE
 10
31.281000
 11
31.220000
 20
40.151000
 21
39.959000
  0
LINE
 10
31.220000
 11
31.139000
 20
39.959000
 21
39.774000
  0
LINE
 10
31.139000
 11
31.045000
 20
39.774000
 21
39.596000
  0
LINE
 10
31.045000
 11
30.932000
 20
39.596000
 21
39.427000
  0
LINE
 10
30.932000
 11
30.807000
 20
39.427000
 21
39.270000
  0
LINE
 10
30.807000
 11
30.667000
 20
39.270000
 21
39.124000
  0
LINE
 10
30.667000
 11
30.516000
 20
39.124000
 21
38.991000
  0
LINE
 10
30.516000
 11
30.353000
 20
38.991000
 21
38.872000
  0
LINE
 10
30.353000
 11
30.179000
 20
38.872000
 21
38.769000
  0
LINE
 10
30.179000
 11
29.996000
 20
38.769000
 21
38.681000
  0
LINE
 10
29.996000
 11
29.807000
 20
38.681000
 21
38.610000
  0
LINE
 10
29.807000
 11
29.613000
 20
38.610000
 21
38.556000
  0
LINE
 10
29.613000
 11
29.415000
 20
38.556000
 21
38.520000
  0
LINE
 10
29.415000
 11
29.214000
 20
38.520000
 21
38.502000
  0
LINE
 10
29.214000
 11
29.011000
 20
38.502000
 21
38.502000
  0
LINE
 10
29.011000
 11
28.810000
 20
38.502000
 21
38.520000
  0
LINE
 10
28.810000
 11
28.612000
 20
38.520000
 21
38.556000
  0
LINE
 10
28.612000
 11
28.418000
 20
38.556000
 21
38.610000
  0
LINE
 10
28.418000
 11
28.229000
 20
38.610000
 21
38.681000
  0
LINE
 10
28.229000
 11
28.046000
 20
38.681000
 21
38.769000
  0
LINE
 10
28.046000
 11
27.872000
 20
38.769000
 21
38.872000
  0
LINE
 10
27.872000
 11
27.709000
 20
38.872000
 21
38.991000
  0
LINE
 10
27.709000
 11
27.557000
 20
38.991000
 21
39.124000
  0
LINE
 10
27.557000
 11
27.418000
 20
39.124000
 21
39.270000
  0
LINE
 10
27.418000
 11
27.293000
 20
39.270000
 21
39.427000
  0
LINE
 10
27.293000
 11
27.180000
 20
39.427000
 21
39.596000
  0
LINE
 10
27.180000
 11
27.086000
 20
39.596000
 21
39.774000
  0
LINE
 10
27.086000
 11
27.005000
 20
39.774000
 21
39.959000
  0
LINE
 10
27.005000
 11
26.944000
 20
39.959000
 21
40.151000
  0
LINE
 10
26.944000
 11
26.898000
 20
40.151000
 21
40.348000
  0
LINE
 10
26.898000
 11
26.871000
 20
40.348000
 21
40.548000
  0
LINE
 10
26.871000
 11
26.862000
 20
40.548000
 21
40.750000
  0
LINE
 10
39.500000
 11
39.509000
 20
40.750000
 21
40.952000
  0
LINE
 10
39.509000
 11
39.536000
 20
40.952000
 21
41.152000
  0
LINE
 10
39.536000
 11
39.581000
 20
41.152000
 21
41.349000
  0
LINE
 10
39.581000
 11
39.643000
 20
41.349000
 21
41.541000
  0
LINE
 10
39.643000
 11
39.723000
 20
41.541000
 21
41.726000
  0
LINE
 10
39.723000
 11
39.818000
 20
41.726000
 21
41.904000
  0
LINE
 10
39.818000
 11
39.930000
 20
41.904000
 21
42.073000
  0
LINE
 10
39.930000
 11
40.056000
 20
42.073000
 21
42.230000
  0
LINE
 10
40.056000
 11
40.195000
 20
42.230000
 21
42.376000
  0
LINE
 10
40.195000
 11
40.347000
 20
42.376000
 21
42.509000
  0
LINE
 10
40.347000
 11
40.510000
 20
42.509000
 21
42.628000
  0
LINE
 10
40.510000
 11
40.684000
 20
42.628000
 21
42.731000
  0
LINE
 10
40.684000
 11
40.866000
 20
42.731000
 21
42.819000
  0
LINE
 10
40.866000
 11
41.055000
 20
42.819000
 21
42.890000
  0
LINE
 10
41.055000
 11
41.249000
 20
42.890000
 21
42.944000
  0
LINE
 10
41.249000
 11
41.448000
 20
42.944000
 21
42.980000
  0
LINE
 10
41.448000
 11
41.649000
 20
42.980000
 21
42.998000
  0
LINE
 10
41.649000
 11
41.851000
 20
42.998000
 21
42.998000
  0
LINE
 10
41.851000
 11
42.052000
 20
42.998000
 21
42.980000
  0
LINE
 10
42.052000
 11
42.251000
 20
42.980000
 21
42.944000
  0
LINE
 10
42.251000
 11
42.445000
 20
42.944000
 21
42.890000
  0
LINE
 10
42.445000
 11
42.634000
 20
42.890000
 21
42.819000
  0
LINE
 10
42.634000
 11
42.816000
 20
42.819000
 21
42.731000
  0
LINE
 10
42.816000
 11
42.990000
 20
42.731000
 21
42.628000
  0
LINE
 10
42.990000
 11
43.153000
 20
42.628000
 21
42.509000
  0
LINE
 10
43.153000
 11
43.305000
 20
42.509000
 21
42.376000
  0
LINE
 10
43.305000
 11
43.444000
 20
42.376000
 21
42.230000
  0
LINE
 10
43.444000
 11
43.570000
 20
42.230000
 21
42.073000
  0
LINE
 10
43.570000
 11
43.682000
 20
42.073000
 21
41.904000
  0
LINE
 10
43.682000
 11
43.777000
 20
41.904000
 21
41.726000
  0
LINE
 10
43.777000
 11
43.857000
 20
41.726000
 21
41.541000
  0
LINE
 10
43.857000
 11
43.919000
 20
41.541000
 21
41.349000
  0
LINE
 10
43.919000
 11
43.964000
 20
41.349000
 21
41.152000
  0
LINE
 10
43.964000
 11
43.991000
 20
41.152000
 21
40.952000
  0
LINE
 10
43.991000
 11
44.000000
 20
40.952000
 21
40.750000
  0
LINE
 10
44.000000
 11
43.991000
 20
40.750000
 21
40.548000
  0
LINE
 10
43.991000
 11
43.964000
 20
40.548000
 21
40.348000
  0
LINE
 10
43.964000
 11
43.919000
 20
40.348000
 21
40.151000
  0
LINE
 10
43.919000
 11
43.857000
 20
40.151000
 21
39.959000
  0
LINE
 10
43.857000
 11
43.777000
 20
39.959000
 21
39.774000
  0
LINE
 10
43.777000
 11
43.682000
 20
39.774000
 21
39.596000
  0
LINE
 10
43.682000
 11
43.570000
 20
39.596000
 21
39.427000
  0
LINE
 10
43.570000
 11
43.444000
 20
39.427000
 21
39.270000
  0
LINE
 10
43.444000
 11
43.305000
 20
39.270000
 21
39.124000
  0
LINE
 10
43.305000
 11
43.153000
 20
39.124000
 21
38.991000
  0
LINE
 10
43.153000
 11
42.990000
 20
38.991000
 21
38.872000
  0
LINE
 10
42.990000
 11
42.816000
 20
38.872000
 21
38.769000
  0
LINE
 10
42.816000
 11
42.634000
 20
38.769000
 21
38.681000
  0
LINE
 10
42.634000
 11
42.445000
 20
38.681000
 21
38.610000
  0
LINE
 10
42.445000
 11
42.251000
 20
38.610000
 21
38.556000
  0
LINE
 10
42.251000
 11
42.052000
 20
38.556000
 21
38.520000
  0
LINE
 10
42.052000
 11
41.851000
 20
38.520000
 21
38.502000
  0
LINE
 10
41.851000
 11
41.649000
 20
38.502000
 21
38.502000
  0
LINE
 10
41.649000
 11
41.448000
 20
38.502000
 21
38.520000
  0
LINE
 10
41.448000
 11
41.249000
 20
38.520000
 21
38.556000
  0
LINE
 10
41.249000
 11
41.055000
 20
38.556000
 21
38.610000
  0
LINE
 10
41.055000
 11
40.866000
 20
38.610000
 21
38.681000
  0
LINE
 10
40.866000
 11
40.684000
 20
38.681000
 21
38.769000
  0
LINE
 10
40.684000
 11
40.510000
 20
38.769000
 21
38.872000
  0
LINE
 10
40.510000
 11
40.347000
 20
38.872000
 21
38.991000
  0
LINE
 10
40.347000
 11
40.195000
 20
38.991000
 21
39.124000
  0
LINE
 10
40.195000
 11
40.056000
 20
39.124000
 21
39.270000
  0
LINE
 10
40.056000
 11
39.930000
 20
39.270000
 21
39.427000
  0
LINE
 10
39.930000
 11
39.818000
 20
39.427000
 21
39.596000
  0
LINE
 10
39.818000
 11
39.723000
 20
39.596000
 21
39.774000
  0
LINE
 10
39.723000
 11
39.643000
 20
39.774000
 21
39.959000
  0
LINE
 10
39.643000
 11
39.581000
 20
39.959000
 21
40.151000
  0
LINE
 10
39.581000
 11
39.536000
 20
40.151000
 21
40.348000
  0
LINE
 10
39.536000
 11
39.509000
 20
40.348000
 21
40.548000
  0
LINE
 10
39.509000
 11
39.500000
 20
40.548000
 21
40.750000
  0
ENDSEC
  0
EOF
