  0
SECTION
  2
ENTITIES
  0
LINE
 10
-45.000000
 11
-45.000000
 20
-45.000000
 21
17.850000
  0
LINE
 10
-45.000000
 11
-13.500000
 20
17.850000
 21
17.850000
  0
LINE
 10
-13.500000
 11
-13.500000
 20
17.850000
 21
16.100000
  0
LINE
 10
-13.500000
 11
-8.500000
 20
16.100000
 21
16.100000
  0
LINE
 10
-8.500000
 11
-8.500000
 20
16.100000
 21
26.100000
  0
LINE
 10
-8.500000
 11
-13.500000
 20
26.100000
 21
26.100000
  0
LINE
 10
-13.500000
 11
-13.500000
 20
26.100000
 21
24.350000
  0
LINE
 10
-13.500000
 11
-45.000000
 20
24.350000
 21
24.350000
  0
LINE
 10
-45.000000
 11
-45.000000
 20
24.350000
 21
45.000000
  0
LINE
 10
-45.000000
 11
45.000000
 20
45.000000
 21
45.000000
  0
LINE
 10
45.000000
 11
45.000000
 20
45.000000
 21
24.350000
  0
LINE
 10
45.000000
 11
13.500000
 20
24.350000
 21
24.350000
  0
LINE
 10
13.500000
 11
13.500000
 20
24.350000
 21
26.100000
  0
LINE
 10
13.500000
 11
8.500000
 20
26.100000
 21
26.100000
  0
LINE
 10
8.500000
 11
8.500000
 20
26.100000
 21
16.100000
  0
LINE
 10
8.500000
 11
13.500000
 20
16.100000
 21
16.100000
  0
LINE
 10
13.500000
 11
13.500000
 20
16.100000
 21
17.850000
  0
LINE
 10
13.500000
 11
45.000000
 20
17.850000
 21
17.850000
  0
LINE
 10
45.000000
 11
45.000000
 20
17.850000
 21
-45.000000
  0
LINE
 10
45.000000
 11
-45.000000
 20
-45.000000
 21
-45.000000
  0
LINE
 10
-44.000000
 11
-43.991000
 20
-40.750000
 21
-40.548000
  0
LINE
 10
-43.991000
 11
-43.964000
 20
-40.548000
 21
-40.348000
  0
LINE
 10
-43.964000
 11
-43.919000
 20
-40.348000
 21
-40.151000
  0
LINE
 10
-43.919000
 11
-43.857000
 20
-40.151000
 21
-39.959000
  0
LINE
 10
-43.857000
 11
-43.777000
 20
-39.959000
 21
-39.774000
  0
LINE
 10
-43.777000
 11
-43.682000
 20
-39.774000
 21
-39.596000
  0
LINE
 10
-43.682000
 11
-43.570000
 20
-39.596000
 21
-39.427000
  0
LINE
 10
-43.570000
 11
-43.444000
 20
-39.427000
 21
-39.270000
  0
LINE
 10
-43.444000
 11
-43.305000
 20
-39.270000
 21
-39.124000
  0
LINE
 10
-43.305000
 11
-43.153000
 20
-39.124000
 21
-38.991000
  0
LINE
 10
-43.153000
 11
-42.990000
 20
-38.991000
 21
-38.872000
  0
LINE
 10
-42.990000
 11
-42.816000
 20
-38.872000
 21
-38.769000
  0
LINE
 10
-42.816000
 11
-42.634000
 20
-38.769000
 21
-38.681000
  0
LINE
 10
-42.634000
 11
-42.445000
 20
-38.681000
 21
-38.610000
  0
LINE
 10
-42.445000
 11
-42.251000
 20
-38.610000
 21
-38.556000
  0
LINE
 10
-42.251000
 11
-42.052000
 20
-38.556000
 21
-38.520000
  0
LINE
 10
-42.052000
 11
-41.851000
 20
-38.520000
 21
-38.502000
  0
LINE
 10
-41.851000
 11
-41.649000
 20
-38.502000
 21
-38.502000
  0
LINE
 10
-41.649000
 11
-41.448000
 20
-38.502000
 21
-38.520000
  0
LINE
 10
-41.448000
 11
-41.249000
 20
-38.520000
 21
-38.556000
  0
LINE
 10
-41.249000
 11
-41.055000
 20
-38.556000
 21
-38.610000
  0
LINE
 10
-41.055000
 11
-40.866000
 20
-38.610000
 21
-38.681000
  0
LINE
 10
-40.866000
 11
-40.684000
 20
-38.681000
 21
-38.769000
  0
LINE
 10
-40.684000
 11
-40.510000
 20
-38.769000
 21
-38.872000
  0
LINE
 10
-40.510000
 11
-40.347000
 20
-38.872000
 21
-38.991000
  0
LINE
 10
-40.347000
 11
-40.195000
 20
-38.991000
 21
-39.124000
  0
LINE
 10
-40.195000
 11
-40.056000
 20
-39.124000
 21
-39.270000
  0
LINE
 10
-40.056000
 11
-39.930000
 20
-39.270000
 21
-39.427000
  0
LINE
 10
-39.930000
 11
-39.818000
 20
-39.427000
 21
-39.596000
  0
LINE
 10
-39.818000
 11
-39.723000
 20
-39.596000
 21
-39.774000
  0
LINE
 10
-39.723000
 11
-39.643000
 20
-39.774000
 21
-39.959000
  0
LINE
 10
-39.643000
 11
-39.581000
 20
-39.959000
 21
-40.151000
  0
LINE
 10
-39.581000
 11
-39.536000
 20
-40.151000
 21
-40.348000
  0
LINE
 10
-39.536000
 11
-39.509000
 20
-40.348000
 21
-40.548000
  0
LINE
 10
-39.509000
 11
-39.500000
 20
-40.548000
 21
-40.750000
  0
LINE
 10
-39.500000
 11
-39.509000
 20
-40.750000
 21
-40.952000
  0
LINE
 10
-39.509000
 11
-39.536000
 20
-40.952000
 21
-41.152000
  0
LINE
 10
-39.536000
 11
-39.581000
 20
-41.152000
 21
-41.349000
  0
LINE
 10
-39.581000
 11
-39.643000
 20
-41.349000
 21
-41.541000
  0
LINE
 10
-39.643000
 11
-39.723000
 20
-41.541000
 21
-41.726000
  0
LINE
 10
-39.723000
 11
-39.818000
 20
-41.726000
 21
-41.904000
  0
LINE
 10
-39.818000
 11
-39.930000
 20
-41.904000
 21
-42.073000
  0
LINE
 10
-39.930000
 11
-40.056000
 20
-42.073000
 21
-42.230000
  0
LINE
 10
-40.056000
 11
-40.195000
 20
-42.230000
 21
-42.376000
  0
LINE
 10
-40.195000
 11
-40.347000
 20
-42.376000
 21
-42.509000
  0
LINE
 10
-40.347000
 11
-40.510000
 20
-42.509000
 21
-42.628000
  0
LINE
 10
-40.510000
 11
-40.684000
 20
-42.628000
 21
-42.731000
  0
LINE
 10
-40.684000
 11
-40.866000
 20
-42.731000
 21
-42.819000
  0
LINE
 10
-40.866000
 11
-41.055000
 20
-42.819000
 21
-42.890000
  0
LINE
 10
-41.055000
 11
-41.249000
 20
-42.890000
 21
-42.944000
  0
LINE
 10
-41.249000
 11
-41.448000
 20
-42.944000
 21
-42.980000
  0
LINE
 10
-41.448000
 11
-41.649000
 20
-42.980000
 21
-42.998000
  0
LINE
 10
-41.649000
 11
-41.851000
 20
-42.998000
 21
-42.998000
  0
LINE
 10
-41.851000
 11
-42.052000
 20
-42.998000
 21
-42.980000
  0
LINE
 10
-42.052000
 11
-42.251000
 20
-42.980000
 21
-42.944000
  0
LINE
 10
-42.251000
 11
-42.445000
 20
-42.944000
 21
-42.890000
  0
LINE
 10
-42.445000
 11
-42.634000
 20
-42.890000
 21
-42.819000
  0
LINE
 10
-42.634000
 11
-42.816000
 20
-42.819000
 21
-42.731000
  0
LINE
 10
-42.816000
 11
-42.990000
 20
-42.731000
 21
-42.628000
  0
LINE
 10
-42.990000
 11
-43.153000
 20
-42.628000
 21
-42.509000
  0
LINE
 10
-43.153000
 11
-43.305000
 20
-42.509000
 21
-42.376000
  0
LINE
 10
-43.305000
 11
-43.444000
 20
-42.376000
 21
-42.230000
  0
LINE
 10
-43.444000
 11
-43.570000
 20
-42.230000
 21
-42.073000
  0
LINE
 10
-43.570000
 11
-43.682000
 20
-42.073000
 21
-41.904000
  0
LINE
 10
-43.682000
 11
-43.777000
 20
-41.904000
 21
-41.726000
  0
LINE
 10
-43.777000
 11
-43.857000
 20
-41.726000
 21
-41.541000
  0
LINE
 10
-43.857000
 11
-43.919000
 20
-41.541000
 21
-41.349000
  0
LINE
 10
-43.919000
 11
-43.964000
 20
-41.349000
 21
-41.152000
  0
LINE
 10
-43.964000
 11
-43.991000
 20
-41.152000
 21
-40.952000
  0
LINE
 10
-43.991000
 11
-44.000000
 20
-40.952000
 21
-40.750000
  0
LINE
 10
-44.000000
 11
-43.991000
 20
40.750000
 21
40.952000
  0
LINE
 10
-43.991000
 11
-43.964000
 20
40.952000
 21
41.152000
  0
LINE
 10
-43.964000
 11
-43.919000
 20
41.152000
 21
41.349000
  0
LINE
 10
-43.919000
 11
-43.857000
 20
41.349000
 21
41.541000
  0
LINE
 10
-43.857000
 11
-43.777000
 20
41.541000
 21
41.726000
  0
LINE
 10
-43.777000
 11
-43.682000
 20
41.726000
 21
41.904000
  0
LINE
 10
-43.682000
 11
-43.570000
 20
41.904000
 21
42.073000
  0
LINE
 10
-43.570000
 11
-43.444000
 20
42.073000
 21
42.230000
  0
LINE
 10
-43.444000
 11
-43.305000
 20
42.230000
 21
42.376000
  0
LINE
 10
-43.305000
 11
-43.153000
 20
42.376000
 21
42.509000
  0
LINE
 10
-43.153000
 11
-42.990000
 20
42.509000
 21
42.628000
  0
LINE
 10
-42.990000
 11
-42.816000
 20
42.628000
 21
42.731000
  0
LINE
 10
-42.816000
 11
-42.634000
 20
42.731000
 21
42.819000
  0
LINE
 10
-42.634000
 11
-42.445000
 20
42.819000
 21
42.890000
  0
LINE
 10
-42.445000
 11
-42.251000
 20
42.890000
 21
42.944000
  0
LINE
 10
-42.251000
 11
-42.052000
 20
42.944000
 21
42.980000
  0
LINE
 10
-42.052000
 11
-41.851000
 20
42.980000
 21
42.998000
  0
LINE
 10
-41.851000
 11
-41.649000
 20
42.998000
 21
42.998000
  0
LINE
 10
-41.649000
 11
-41.448000
 20
42.998000
 21
42.980000
  0
LINE
 10
-41.448000
 11
-41.249000
 20
42.980000
 21
42.944000
  0
LINE
 10
-41.249000
 11
-41.055000
 20
42.944000
 21
42.890000
  0
LINE
 10
-41.055000
 11
-40.866000
 20
42.890000
 21
42.819000
  0
LINE
 10
-40.866000
 11
-40.684000
 20
42.819000
 21
42.731000
  0
LINE
 10
-40.684000
 11
-40.510000
 20
42.731000
 21
42.628000
  0
LINE
 10
-40.510000
 11
-40.347000
 20
42.628000
 21
42.509000
  0
LINE
 10
-40.347000
 11
-40.195000
 20
42.509000
 21
42.376000
  0
LINE
 10
-40.195000
 11
-40.056000
 20
42.376000
 21
42.230000
  0
LINE
 10
-40.056000
 11
-39.930000
 20
42.230000
 21
42.073000
  0
LINE
 10
-39.930000
 11
-39.818000
 20
42.073000
 21
41.904000
  0
LINE
 10
-39.818000
 11
-39.723000
 20
41.904000
 21
41.726000
  0
LINE
 10
-39.723000
 11
-39.643000
 20
41.726000
 21
41.541000
  0
LINE
 10
-39.643000
 11
-39.581000
 20
41.541000
 21
41.349000
  0
LINE
 10
-39.581000
 11
-39.536000
 20
41.349000
 21
41.152000
  0
LINE
 10
-39.536000
 11
-39.509000
 20
41.152000
 21
40.952000
  0
LINE
 10
-39.509000
 11
-39.500000
 20
40.952000
 21
40.750000
  0
LINE
 10
-39.500000
 11
-39.509000
 20
40.750000
 21
40.548000
  0
LINE
 10
-39.509000
 11
-39.536000
 20
40.548000
 21
40.348000
  0
LINE
 10
-39.536000
 11
-39.581000
 20
40.348000
 21
40.151000
  0
LINE
 10
-39.581000
 11
-39.643000
 20
40.151000
 21
39.959000
  0
LINE
 10
-39.643000
 11
-39.723000
 20
39.959000
 21
39.774000
  0
LINE
 10
-39.723000
 11
-39.818000
 20
39.774000
 21
39.596000
  0
LINE
 10
-39.818000
 11
-39.930000
 20
39.596000
 21
39.427000
  0
LINE
 10
-39.930000
 11
-40.056000
 20
39.427000
 21
39.270000
  0
LINE
 10
-40.056000
 11
-40.195000
 20
39.270000
 21
39.124000
  0
LINE
 10
-40.195000
 11
-40.347000
 20
39.124000
 21
38.991000
  0
LINE
 10
-40.347000
 11
-40.510000
 20
38.991000
 21
38.872000
  0
LINE
 10
-40.510000
 11
-40.684000
 20
38.872000
 21
38.769000
  0
LINE
 10
-40.684000
 11
-40.866000
 20
38.769000
 21
38.681000
  0
LINE
 10
-40.866000
 11
-41.055000
 20
38.681000
 21
38.610000
  0
LINE
 10
-41.055000
 11
-41.249000
 20
38.610000
 21
38.556000
  0
LINE
 10
-41.249000
 11
-41.448000
 20
38.556000
 21
38.520000
  0
LINE
 10
-41.448000
 11
-41.649000
 20
38.520000
 21
38.502000
  0
LINE
 10
-41.649000
 11
-41.851000
 20
38.502000
 21
38.502000
  0
LINE
 10
-41.851000
 11
-42.052000
 20
38.502000
 21
38.520000
  0
LINE
 10
-42.052000
 11
-42.251000
 20
38.520000
 21
38.556000
  0
LINE
 10
-42.251000
 11
-42.445000
 20
38.556000
 21
38.610000
  0
LINE
 10
-42.445000
 11
-42.634000
 20
38.610000
 21
38.681000
  0
LINE
 10
-42.634000
 11
-42.816000
 20
38.681000
 21
38.769000
  0
LINE
 10
-42.816000
 11
-42.990000
 20
38.769000
 21
38.872000
  0
LINE
 10
-42.990000
 11
-43.153000
 20
38.872000
 21
38.991000
  0
LINE
 10
-43.153000
 11
-43.305000
 20
38.991000
 21
39.124000
  0
LINE
 10
-43.305000
 11
-43.444000
 20
39.124000
 21
39.270000
  0
LINE
 10
-43.444000
 11
-43.570000
 20
39.270000
 21
39.427000
  0
LINE
 10
-43.570000
 11
-43.682000
 20
39.427000
 21
39.596000
  0
LINE
 10
-43.682000
 11
-43.777000
 20
39.596000
 21
39.774000
  0
LINE
 10
-43.777000
 11
-43.857000
 20
39.774000
 21
39.959000
  0
LINE
 10
-43.857000
 11
-43.919000
 20
39.959000
 21
40.151000
  0
LINE
 10
-43.919000
 11
-43.964000
 20
40.151000
 21
40.348000
  0
LINE
 10
-43.964000
 11
-43.991000
 20
40.348000
 21
40.548000
  0
LINE
 10
-43.991000
 11
-44.000000
 20
40.548000
 21
40.750000
  0
LINE
 10
-31.362000
 11
-31.353000
 20
-40.750000
 21
-40.548000
  0
LINE
 10
-31.353000
 11
-31.327000
 20
-40.548000
 21
-40.348000
  0
LINE
 10
-31.327000
 11
-31.281000
 20
-40.348000
 21
-40.151000
  0
LINE
 10
-31.281000
 11
-31.220000
 20
-40.151000
 21
-39.959000
  0
LINE
 10
-31.220000
 11
-31.139000
 20
-39.959000
 21
-39.774000
  0
LINE
 10
-31.139000
 11
-31.045000
 20
-39.774000
 21
-39.596000
  0
LINE
 10
-31.045000
 11
-30.932000
 20
-39.596000
 21
-39.427000
  0
LINE
 10
-30.932000
 11
-30.807000
 20
-39.427000
 21
-39.270000
  0
LINE
 10
-30.807000
 11
-30.667000
 20
-39.270000
 21
-39.124000
  0
LINE
 10
-30.667000
 11
-30.516000
 20
-39.124000
 21
-38.991000
  0
LINE
 10
-30.516000
 11
-30.353000
 20
-38.991000
 21
-38.872000
  0
LINE
 10
-30.353000
 11
-30.179000
 20
-38.872000
 21
-38.769000
  0
LINE
 10
-30.179000
 11
-29.996000
 20
-38.769000
 21
-38.681000
  0
LINE
 10
-29.996000
 11
-29.807000
 20
-38.681000
 21
-38.610000
  0
LINE
 10
-29.807000
 11
-29.613000
 20
-38.610000
 21
-38.556000
  0
LINE
 10
-29.613000
 11
-29.415000
 20
-38.556000
 21
-38.520000
  0
LINE
 10
-29.415000
 11
-29.214000
 20
-38.520000
 21
-38.502000
  0
LINE
 10
-29.214000
 11
-29.011000
 20
-38.502000
 21
-38.502000
  0
LINE
 10
-29.011000
 11
-28.810000
 20
-38.502000
 21
-38.520000
  0
LINE
 10
-28.810000
 11
-28.612000
 20
-38.520000
 21
-38.556000
  0
LINE
 10
-28.612000
 11
-28.418000
 20
-38.556000
 21
-38.610000
  0
LINE
 10
-28.418000
 11
-28.229000
 20
-38.610000
 21
-38.681000
  0
LINE
 10
-28.229000
 11
-28.046000
 20
-38.681000
 21
-38.769000
  0
LINE
 10
-28.046000
 11
-27.872000
 20
-38.769000
 21
-38.872000
  0
LINE
 10
-27.872000
 11
-27.709000
 20
-38.872000
 21
-38.991000
  0
LINE
 10
-27.709000
 11
-27.557000
 20
-38.991000
 21
-39.124000
  0
LINE
 10
-27.557000
 11
-27.418000
 20
-39.124000
 21
-39.270000
  0
LINE
 10
-27.418000
 11
-27.293000
 20
-39.270000
 21
-39.427000
  0
LINE
 10
-27.293000
 11
-27.180000
 20
-39.427000
 21
-39.596000
  0
LINE
 10
-27.180000
 11
-27.086000
 20
-39.596000
 21
-39.774000
  0
LINE
 10
-27.086000
 11
-27.005000
 20
-39.774000
 21
-39.959000
  0
LINE
 10
-27.005000
 11
-26.944000
 20
-39.959000
 21
-40.151000
  0
LINE
 10
-26.944000
 11
-26.898000
 20
-40.151000
 21
-40.348000
  0
LINE
 10
-26.898000
 11
-26.871000
 20
-40.348000
 21
-40.548000
  0
LINE
 10
-26.871000
 11
-26.862000
 20
-40.548000
 21
-40.750000
  0
LINE
 10
-26.862000
 11
-26.871000
 20
-40.750000
 21
-40.952000
  0
LINE
 10
-26.871000
 11
-26.898000
 20
-40.952000
 21
-41.152000
  0
LINE
 10
-26.898000
 11
-26.944000
 20
-41.152000
 21
-41.349000
  0
LINE
 10
-26.944000
 11
-27.005000
 20
-41.349000
 21
-41.541000
  0
LINE
 10
-27.005000
 11
-27.086000
 20
-41.541000
 21
-41.726000
  0
LINE
 10
-27.086000
 11
-27.180000
 20
-41.726000
 21
-41.904000
  0
LINE
 10
-27.180000
 11
-27.293000
 20
-41.904000
 21
-42.073000
  0
LINE
 10
-27.293000
 11
-27.418000
 20
-42.073000
 21
-42.230000
  0
LINE
 10
-27.418000
 11
-27.557000
 20
-42.230000
 21
-42.376000
  0
LINE
 10
-27.557000
 11
-27.709000
 20
-42.376000
 21
-42.509000
  0
LINE
 10
-27.709000
 11
-27.872000
 20
-42.509000
 21
-42.628000
  0
LINE
 10
-27.872000
 11
-28.046000
 20
-42.628000
 21
-42.731000
  0
LINE
 10
-28.046000
 11
-28.229000
 20
-42.731000
 21
-42.819000
  0
LINE
 10
-28.229000
 11
-28.418000
 20
-42.819000
 21
-42.890000
  0
LINE
 10
-28.418000
 11
-28.612000
 20
-42.890000
 21
-42.944000
  0
LINE
 10
-28.612000
 11
-28.810000
 20
-42.944000
 21
-42.980000
  0
LINE
 10
-28.810000
 11
-29.011000
 20
-42.980000
 21
-42.998000
  0
LINE
 10
-29.011000
 11
-29.214000
 20
-42.998000
 21
-42.998000
  0
LINE
 10
-29.214000
 11
-29.415000
 20
-42.998000
 21
-42.980000
  0
LINE
 10
-29.415000
 11
-29.613000
 20
-42.980000
 21
-42.944000
  0
LINE
 10
-29.613000
 11
-29.807000
 20
-42.944000
 21
-42.890000
  0
LINE
 10
-29.807000
 11
-29.996000
 20
-42.890000
 21
-42.819000
  0
LINE
 10
-29.996000
 11
-30.179000
 20
-42.819000
 21
-42.731000
  0
LINE
 10
-30.179000
 11
-30.353000
 20
-42.731000
 21
-42.628000
  0
LINE
 10
-30.353000
 11
-30.516000
 20
-42.628000
 21
-42.509000
  0
LINE
 10
-30.516000
 11
-30.667000
 20
-42.509000
 21
-42.376000
  0
LINE
 10
-30.667000
 11
-30.807000
 20
-42.376000
 21
-42.230000
  0
LINE
 10
-30.807000
 11
-30.932000
 20
-42.230000
 21
-42.073000
  0
LINE
 10
-30.932000
 11
-31.045000
 20
-42.073000
 21
-41.904000
  0
LINE
 10
-31.045000
 11
-31.139000
 20
-41.904000
 21
-41.726000
  0
LINE
 10
-31.139000
 11
-31.220000
 20
-41.726000
 21
-41.541000
  0
LINE
 10
-31.220000
 11
-31.281000
 20
-41.541000
 21
-41.349000
  0
LINE
 10
-31.281000
 11
-31.327000
 20
-41.349000
 21
-41.152000
  0
LINE
 10
-31.327000
 11
-31.353000
 20
-41.152000
 21
-40.952000
  0
LINE
 10
-31.353000
 11
-31.362000
 20
-40.952000
 21
-40.750000
  0
LINE
 10
-31.362000
 11
-31.353000
 20
40.750000
 21
40.952000
  0
LINE
 10
-31.353000
 11
-31.327000
 20
40.952000
 21
41.152000
  0
LINE
 10
-31.327000
 11
-31.281000
 20
41.152000
 21
41.349000
  0
LINE
 10
-31.281000
 11
-31.220000
 20
41.349000
 21
41.541000
  0
LINE
 10
-31.220000
 11
-31.139000
 20
41.541000
 21
41.726000
  0
LINE
 10
-31.139000
 11
-31.045000
 20
41.726000
 21
41.904000
  0
LINE
 10
-31.045000
 11
-30.932000
 20
41.904000
 21
42.073000
  0
LINE
 10
-30.932000
 11
-30.807000
 20
42.073000
 21
42.230000
  0
LINE
 10
-30.807000
 11
-30.667000
 20
42.230000
 21
42.376000
  0
LINE
 10
-30.667000
 11
-30.516000
 20
42.376000
 21
42.509000
  0
LINE
 10
-30.516000
 11
-30.353000
 20
42.509000
 21
42.628000
  0
LINE
 10
-30.353000
 11
-30.179000
 20
42.628000
 21
42.731000
  0
LINE
 10
-30.179000
 11
-29.996000
 20
42.731000
 21
42.819000
  0
LINE
 10
-29.996000
 11
-29.807000
 20
42.819000
 21
42.890000
  0
LINE
 10
-29.807000
 11
-29.613000
 20
42.890000
 21
42.944000
  0
LINE
 10
-29.613000
 11
-29.415000
 20
42.944000
 21
42.980000
  0
LINE
 10
-29.415000
 11
-29.214000
 20
42.980000
 21
42.998000
  0
LINE
 10
-29.214000
 11
-29.011000
 20
42.998000
 21
42.998000
  0
LINE
 10
-29.011000
 11
-28.810000
 20
42.998000
 21
42.980000
  0
LINE
 10
-28.810000
 11
-28.612000
 20
42.980000
 21
42.944000
  0
LINE
 10
-28.612000
 11
-28.418000
 20
42.944000
 21
42.890000
  0
LINE
 10
-28.418000
 11
-28.229000
 20
42.890000
 21
42.819000
  0
LINE
 10
-28.229000
 11
-28.046000
 20
42.819000
 21
42.731000
  0
LINE
 10
-28.046000
 11
-27.872000
 20
42.731000
 21
42.628000
  0
LINE
 10
-27.872000
 11
-27.709000
 20
42.628000
 21
42.509000
  0
LINE
 10
-27.709000
 11
-27.557000
 20
42.509000
 21
42.376000
  0
LINE
 10
-27.557000
 11
-27.418000
 20
42.376000
 21
42.230000
  0
LINE
 10
-27.418000
 11
-27.293000
 20
42.230000
 21
42.073000
  0
LINE
 10
-27.293000
 11
-27.180000
 20
42.073000
 21
41.904000
  0
LINE
 10
-27.180000
 11
-27.086000
 20
41.904000
 21
41.726000
  0
LINE
 10
-27.086000
 11
-27.005000
 20
41.726000
 21
41.541000
  0
LINE
 10
-27.005000
 11
-26.944000
 20
41.541000
 21
41.349000
  0
LINE
 10
-26.944000
 11
-26.898000
 20
41.349000
 21
41.152000
  0
LINE
 10
-26.898000
 11
-26.871000
 20
41.152000
 21
40.952000
  0
LINE
 10
-26.871000
 11
-26.862000
 20
40.952000
 21
40.750000
  0
LINE
 10
-26.862000
 11
-26.871000
 20
40.750000
 21
40.548000
  0
LINE
 10
-26.871000
 11
-26.898000
 20
40.548000
 21
40.348000
  0
LINE
 10
-26.898000
 11
-26.944000
 20
40.348000
 21
40.151000
  0
LINE
 10
-26.944000
 11
-27.005000
 20
40.151000
 21
39.959000
  0
LINE
 10
-27.005000
 11
-27.086000
 20
39.959000
 21
39.774000
  0
LINE
 10
-27.086000
 11
-27.180000
 20
39.774000
 21
39.596000
  0
LINE
 10
-27.180000
 11
-27.293000
 20
39.596000
 21
39.427000
  0
LINE
 10
-27.293000
 11
-27.418000
 20
39.427000
 21
39.270000
  0
LINE
 10
-27.418000
 11
-27.557000
 20
39.270000
 21
39.124000
  0
LINE
 10
-27.557000
 11
-27.709000
 20
39.124000
 21
38.991000
  0
LINE
 10
-27.709000
 11
-27.872000
 20
38.991000
 21
38.872000
  0
LINE
 10
-27.872000
 11
-28.046000
 20
38.872000
 21
38.769000
  0
LINE
 10
-28.046000
 11
-28.229000
 20
38.769000
 21
38.681000
  0
LINE
 10
-28.229000
 11
-28.418000
 20
38.681000
 21
38.610000
  0
LINE
 10
-28.418000
 11
-28.612000
 20
38.610000
 21
38.556000
  0
LINE
 10
-28.612000
 11
-28.810000
 20
38.556000
 21
38.520000
  0
LINE
 10
-28.810000
 11
-29.011000
 20
38.520000
 21
38.502000
  0
LINE
 10
-29.011000
 11
-29.214000
 20
38.502000
 21
38.502000
  0
LINE
 10
-29.214000
 11
-29.415000
 20
38.502000
 21
38.520000
  0
LINE
 10
-29.415000
 11
-29.613000
 20
38.520000
 21
38.556000
  0
LINE
 10
-29.613000
 11
-29.807000
 20
38.556000
 21
38.610000
  0
LINE
 10
-29.807000
 11
-29.996000
 20
38.610000
 21
38.681000
  0
LINE
 10
-29.996000
 11
-30.179000
 20
38.681000
 21
38.769000
  0
LINE
 10
-30.179000
 11
-30.353000
 20
38.769000
 21
38.872000
  0
LINE
 10
-30.353000
 11
-30.516000
 20
38.872000
 21
38.991000
  0
LINE
 10
-30.516000
 11
-30.667000
 20
38.991000
 21
39.124000
  0
LINE
 10
-30.667000
 11
-30.807000
 20
39.124000
 21
39.270000
  0
LINE
 10
-30.807000
 11
-30.932000
 20
39.270000
 21
39.427000
  0
LINE
 10
-30.932000
 11
-31.045000
 20
39.427000
 21
39.596000
  0
LINE
 10
-31.045000
 11
-31.139000
 20
39.596000
 21
39.774000
  0
LINE
 10
-31.139000
 11
-31.220000
 20
39.774000
 21
39.959000
  0
LINE
 10
-31.220000
 11
-31.281000
 20
39.959000
 21
40.151000
  0
LINE
 10
-31.281000
 11
-31.327000
 20
40.151000
 21
40.348000
  0
LINE
 10
-31.327000
 11
-31.353000
 20
40.348000
 21
40.548000
  0
LINE
 10
-31.353000
 11
-31.362000
 20
40.548000
 21
40.750000
  0
LINE
 10
-17.244000
 11
-17.244000
 20
-39.994000
 21
-34.994000
  0
LINE
 10
-17.244000
 11
-17.237000
 20
-34.994000
 21
-34.837000
  0
LINE
 10
-17.237000
 11
-17.216000
 20
-34.837000
 21
-34.682000
  0
LINE
 10
-17.216000
 11
-17.181000
 20
-34.682000
 21
-34.528000
  0
LINE
 10
-17.181000
 11
-17.132000
 20
-34.528000
 21
-34.379000
  0
LINE
 10
-17.132000
 11
-17.071000
 20
-34.379000
 21
-34.235000
  0
LINE
 10
-17.071000
 11
-16.996000
 20
-34.235000
 21
-34.096000
  0
LINE
 10
-16.996000
 11
-16.910000
 20
-34.096000
 21
-33.965000
  0
LINE
 10
-16.910000
 11
-16.812000
 20
-33.965000
 21
-33.843000
  0
LINE
 10
-16.812000
 11
-16.703000
 20
-33.843000
 21
-33.729000
  0
LINE
 10
-16.703000
 11
-16.585000
 20
-33.729000
 21
-33.626000
  0
LINE
 10
-16.585000
 11
-16.458000
 20
-33.626000
 21
-33.533000
  0
LINE
 10
-16.458000
 11
-16.323000
 20
-33.533000
 21
-33.453000
  0
LINE
 10
-16.323000
 11
-16.182000
 20
-33.453000
 21
-33.385000
  0
LINE
 10
-16.182000
 11
-16.035000
 20
-33.385000
 21
-33.330000
  0
LINE
 10
-16.035000
 11
-15.883000
 20
-33.330000
 21
-33.288000
  0
LINE
 10
-15.883000
 11
-15.729000
 20
-33.288000
 21
-33.260000
  0
LINE
 10
-15.729000
 11
-15.573000
 20
-33.260000
 21
-33.246000
  0
LINE
 10
-15.573000
 11
-15.415000
 20
-33.246000
 21
-33.246000
  0
LINE
 10
-15.415000
 11
-15.259000
 20
-33.246000
 21
-33.260000
  0
LINE
 10
-15.259000
 11
-15.105000
 20
-33.260000
 21
-33.288000
  0
LINE
 10
-15.105000
 11
-14.953000
 20
-33.288000
 21
-33.330000
  0
LINE
 10
-14.953000
 11
-14.806000
 20
-33.330000
 21
-33.385000
  0
LINE
 10
-14.806000
 11
-14.665000
 20
-33.385000
 21
-33.453000
  0
LINE
 10
-14.665000
 11
-14.530000
 20
-33.453000
 21
-33.533000
  0
LINE
 10
-14.530000
 11
-14.403000
 20
-33.533000
 21
-33.626000
  0
LINE
 10
-14.403000
 11
-14.285000
 20
-33.626000
 21
-33.729000
  0
LINE
 10
-14.285000
 11
-14.176000
 20
-33.729000
 21
-33.843000
  0
LINE
 10
-14.176000
 11
-14.078000
 20
-33.843000
 21
-33.965000
  0
LINE
 10
-14.078000
 11
-13.992000
 20
-33.965000
 21
-34.096000
  0
LINE
 10
-13.992000
 11
-13.917000
 20
-34.096000
 21
-34.235000
  0
LINE
 10
-13.917000
 11
-13.856000
 20
-34.235000
 21
-34.379000
  0
LINE
 10
-13.856000
 11
-13.807000
 20
-34.379000
 21
-34.528000
  0
LINE
 10
-13.807000
 11
-13.772000
 20
-34.528000
 21
-34.682000
  0
LINE
 10
-13.772000
 11
-13.751000
 20
-34.682000
 21
-34.837000
  0
LINE
 10
-13.751000
 11
-13.744000
 20
-34.837000
 21
-34.994000
  0
LINE
 10
-13.744000
 11
-13.744000
 20
-34.994000
 21
-39.994000
  0
LINE
 10
-13.744000
 11
-13.751000
 20
-39.994000
 21
-40.151000
  0
LINE
 10
-13.751000
 11
-13.772000
 20
-40.151000
 21
-40.306000
  0
LINE
 10
-13.772000
 11
-13.807000
 20
-40.306000
 21
-40.460000
  0
LINE
 10
-13.807000
 11
-13.856000
 20
-40.460000
 21
-40.609000
  0
LINE
 10
-13.856000
 11
-13.917000
 20
-40.609000
 21
-40.753000
  0
LINE
 10
-13.917000
 11
-13.992000
 20
-40.753000
 21
-40.892000
  0
LINE
 10
-13.992000
 11
-14.078000
 20
-40.892000
 21
-41.023000
  0
LINE
 10
-14.078000
 11
-14.176000
 20
-41.023000
 21
-41.145000
  0
LINE
 10
-14.176000
 11
-14.285000
 20
-41.145000
 21
-41.259000
  0
LINE
 10
-14.285000
 11
-14.403000
 20
-41.259000
 21
-41.362000
  0
LINE
 10
-14.403000
 11
-14.530000
 20
-41.362000
 21
-41.455000
  0
LINE
 10
-14.530000
 11
-14.665000
 20
-41.455000
 21
-41.535000
  0
LINE
 10
-14.665000
 11
-14.806000
 20
-41.535000
 21
-41.603000
  0
LINE
 10
-14.806000
 11
-14.953000
 20
-41.603000
 21
-41.658000
  0
LINE
 10
-14.953000
 11
-15.105000
 20
-41.658000
 21
-41.700000
  0
LINE
 10
-15.105000
 11
-15.259000
 20
-41.700000
 21
-41.728000
  0
LINE
 10
-15.259000
 11
-15.415000
 20
-41.728000
 21
-41.742000
  0
LINE
 10
-15.415000
 11
-15.573000
 20
-41.742000
 21
-41.742000
  0
LINE
 10
-15.573000
 11
-15.729000
 20
-41.742000
 21
-41.728000
  0
LINE
 10
-15.729000
 11
-15.883000
 20
-41.728000
 21
-41.700000
  0
LINE
 10
-15.883000
 11
-16.035000
 20
-41.700000
 21
-41.658000
  0
LINE
 10
-16.035000
 11
-16.182000
 20
-41.658000
 21
-41.603000
  0
LINE
 10
-16.182000
 11
-16.323000
 20
-41.603000
 21
-41.535000
  0
LINE
 10
-16.323000
 11
-16.458000
 20
-41.535000
 21
-41.455000
  0
LINE
 10
-16.458000
 11
-16.585000
 20
-41.455000
 21
-41.362000
  0
LINE
 10
-16.585000
 11
-16.703000
 20
-41.362000
 21
-41.259000
  0
LINE
 10
-16.703000
 11
-16.812000
 20
-41.259000
 21
-41.145000
  0
LINE
 10
-16.812000
 11
-16.910000
 20
-41.145000
 21
-41.023000
  0
LINE
 10
-16.910000
 11
-16.996000
 20
-41.023000
 21
-40.892000
  0
LINE
 10
-16.996000
 11
-17.071000
 20
-40.892000
 21
-40.753000
  0
LINE
 10
-17.071000
 11
-17.132000
 20
-40.753000
 21
-40.609000
  0
LINE
 10
-17.132000
 11
-17.181000
 20
-40.609000
 21
-40.460000
  0
LINE
 10
-17.181000
 11
-17.216000
 20
-40.460000
 21
-40.306000
  0
LINE
 10
-17.216000
 11
-17.237000
 20
-40.306000
 21
-40.151000
  0
LINE
 10
-17.237000
 11
-17.244000
 20
-40.151000
 21
-39.994000
  0
LINE
 10
-17.244000
 11
-17.244000
 20
-9.006000
 21
-4.006000
  0
LINE
 10
-17.244000
 11
-17.237000
 20
-4.006000
 21
-3.849000
  0
LINE
 10
-17.237000
 11
-17.216000
 20
-3.849000
 21
-3.694000
  0
LINE
 10
-17.216000
 11
-17.181000
 20
-3.694000
 21
-3.540000
  0
LINE
 10
-17.181000
 11
-17.132000
 20
-3.540000
 21
-3.391000
  0
LINE
 10
-17.132000
 11
-17.071000
 20
-3.391000
 21
-3.247000
  0
LINE
 10
-17.071000
 11
-16.996000
 20
-3.247000
 21
-3.108000
  0
LINE
 10
-16.996000
 11
-16.910000
 20
-3.108000
 21
-2.977000
  0
LINE
 10
-16.910000
 11
-16.812000
 20
-2.977000
 21
-2.855000
  0
LINE
 10
-16.812000
 11
-16.703000
 20
-2.855000
 21
-2.741000
  0
LINE
 10
-16.703000
 11
-16.585000
 20
-2.741000
 21
-2.638000
  0
LINE
 10
-16.585000
 11
-16.458000
 20
-2.638000
 21
-2.545000
  0
LINE
 10
-16.458000
 11
-16.323000
 20
-2.545000
 21
-2.465000
  0
LINE
 10
-16.323000
 11
-16.182000
 20
-2.465000
 21
-2.397000
  0
LINE
 10
-16.182000
 11
-16.035000
 20
-2.397000
 21
-2.342000
  0
LINE
 10
-16.035000
 11
-15.883000
 20
-2.342000
 21
-2.300000
  0
LINE
 10
-15.883000
 11
-15.729000
 20
-2.300000
 21
-2.272000
  0
LINE
 10
-15.729000
 11
-15.573000
 20
-2.272000
 21
-2.258000
  0
LINE
 10
-15.573000
 11
-15.415000
 20
-2.258000
 21
-2.258000
  0
LINE
 10
-15.415000
 11
-15.259000
 20
-2.258000
 21
-2.272000
  0
LINE
 10
-15.259000
 11
-15.105000
 20
-2.272000
 21
-2.300000
  0
LINE
 10
-15.105000
 11
-14.953000
 20
-2.300000
 21
-2.342000
  0
LINE
 10
-14.953000
 11
-14.806000
 20
-2.342000
 21
-2.397000
  0
LINE
 10
-14.806000
 11
-14.665000
 20
-2.397000
 21
-2.465000
  0
LINE
 10
-14.665000
 11
-14.530000
 20
-2.465000
 21
-2.545000
  0
LINE
 10
-14.530000
 11
-14.403000
 20
-2.545000
 21
-2.638000
  0
LINE
 10
-14.403000
 11
-14.285000
 20
-2.638000
 21
-2.741000
  0
LINE
 10
-14.285000
 11
-14.176000
 20
-2.741000
 21
-2.855000
  0
LINE
 10
-14.176000
 11
-14.078000
 20
-2.855000
 21
-2.977000
  0
LINE
 10
-14.078000
 11
-13.992000
 20
-2.977000
 21
-3.108000
  0
LINE
 10
-13.992000
 11
-13.917000
 20
-3.108000
 21
-3.247000
  0
LINE
 10
-13.917000
 11
-13.856000
 20
-3.247000
 21
-3.391000
  0
LINE
 10
-13.856000
 11
-13.807000
 20
-3.391000
 21
-3.540000
  0
LINE
 10
-13.807000
 11
-13.772000
 20
-3.540000
 21
-3.694000
  0
LINE
 10
-13.772000
 11
-13.751000
 20
-3.694000
 21
-3.849000
  0
LINE
 10
-13.751000
 11
-13.744000
 20
-3.849000
 21
-4.006000
  0
LINE
 10
-13.744000
 11
-13.744000
 20
-4.006000
 21
-9.006000
  0
LINE
 10
-13.744000
 11
-13.751000
 20
-9.006000
 21
-9.163000
  0
LINE
 10
-13.751000
 11
-13.772000
 20
-9.163000
 21
-9.318000
  0
LINE
 10
-13.772000
 11
-13.807000
 20
-9.318000
 21
-9.472000
  0
LINE
 10
-13.807000
 11
-13.856000
 20
-9.472000
 21
-9.621000
  0
LINE
 10
-13.856000
 11
-13.917000
 20
-9.621000
 21
-9.765000
  0
LINE
 10
-13.917000
 11
-13.992000
 20
-9.765000
 21
-9.904000
  0
LINE
 10
-13.992000
 11
-14.078000
 20
-9.904000
 21
-10.035000
  0
LINE
 10
-14.078000
 11
-14.176000
 20
-10.035000
 21
-10.157000
  0
LINE
 10
-14.176000
 11
-14.285000
 20
-10.157000
 21
-10.271000
  0
LINE
 10
-14.285000
 11
-14.403000
 20
-10.271000
 21
-10.374000
  0
LINE
 10
-14.403000
 11
-14.530000
 20
-10.374000
 21
-10.467000
  0
LINE
 10
-14.530000
 11
-14.665000
 20
-10.467000
 21
-10.547000
  0
LINE
 10
-14.665000
 11
-14.806000
 20
-10.547000
 21
-10.615000
  0
LINE
 10
-14.806000
 11
-14.953000
 20
-10.615000
 21
-10.670000
  0
LINE
 10
-14.953000
 11
-15.105000
 20
-10.670000
 21
-10.712000
  0
LINE
 10
-15.105000
 11
-15.259000
 20
-10.712000
 21
-10.740000
  0
LINE
 10
-15.259000
 11
-15.415000
 20
-10.740000
 21
-10.754000
  0
LINE
 10
-15.415000
 11
-15.573000
 20
-10.754000
 21
-10.754000
  0
LINE
 10
-15.573000
 11
-15.729000
 20
-10.754000
 21
-10.740000
  0
LINE
 10
-15.729000
 11
-15.883000
 20
-10.740000
 21
-10.712000
  0
LINE
 10
-15.883000
 11
-16.035000
 20
-10.712000
 21
-10.670000
  0
LINE
 10
-16.035000
 11
-16.182000
 20
-10.670000
 21
-10.615000
  0
LINE
 10
-16.182000
 11
-16.323000
 20
-10.615000
 21
-10.547000
  0
LINE
 10
-16.323000
 11
-16.458000
 20
-10.547000
 21
-10.467000
  0
LINE
 10
-16.458000
 11
-16.585000
 20
-10.467000
 21
-10.374000
  0
LINE
 10
-16.585000
 11
-16.703000
 20
-10.374000
 21
-10.271000
  0
LINE
 10
-16.703000
 11
-16.812000
 20
-10.271000
 21
-10.157000
  0
LINE
 10
-16.812000
 11
-16.910000
 20
-10.157000
 21
-10.035000
  0
LINE
 10
-16.910000
 11
-16.996000
 20
-10.035000
 21
-9.904000
  0
LINE
 10
-16.996000
 11
-17.071000
 20
-9.904000
 21
-9.765000
  0
LINE
 10
-17.071000
 11
-17.132000
 20
-9.765000
 21
-9.621000
  0
LINE
 10
-17.132000
 11
-17.181000
 20
-9.621000
 21
-9.472000
  0
LINE
 10
-17.181000
 11
-17.216000
 20
-9.472000
 21
-9.318000
  0
LINE
 10
-17.216000
 11
-17.237000
 20
-9.318000
 21
-9.163000
  0
LINE
 10
-17.237000
 11
-17.244000
 20
-9.163000
 21
-9.006000
  0
LINE
 10
-17.100000
 11
-17.092000
 20
8.000000
 21
8.188000
  0
LINE
 10
-17.092000
 11
-17.066000
 20
8.188000
 21
8.375000
  0
LINE
 10
-17.066000
 11
-17.024000
 20
8.375000
 21
8.559000
  0
LINE
 10
-17.024000
 11
-16.966000
 20
8.559000
 21
8.738000
  0
LINE
 10
-16.966000
 11
-16.892000
 20
8.738000
 21
8.911000
  0
LINE
 10
-16.892000
 11
-16.803000
 20
8.911000
 21
9.077000
  0
LINE
 10
-16.803000
 11
-16.699000
 20
9.077000
 21
9.234000
  0
LINE
 10
-16.699000
 11
-16.581000
 20
9.234000
 21
9.382000
  0
LINE
 10
-16.581000
 11
-16.451000
 20
9.382000
 21
9.518000
  0
LINE
 10
-16.451000
 11
-16.309000
 20
9.518000
 21
9.642000
  0
LINE
 10
-16.309000
 11
-16.157000
 20
9.642000
 21
9.753000
  0
LINE
 10
-16.157000
 11
-15.995000
 20
9.753000
 21
9.849000
  0
LINE
 10
-15.995000
 11
-15.825000
 20
9.849000
 21
9.931000
  0
LINE
 10
-15.825000
 11
-15.649000
 20
9.931000
 21
9.997000
  0
LINE
 10
-15.649000
 11
-15.467000
 20
9.997000
 21
10.047000
  0
LINE
 10
-15.467000
 11
-15.282000
 20
10.047000
 21
10.081000
  0
LINE
 10
-15.282000
 11
-15.094000
 20
10.081000
 21
10.098000
  0
LINE
 10
-15.094000
 11
-14.906000
 20
10.098000
 21
10.098000
  0
LINE
 10
-14.906000
 11
-14.718000
 20
10.098000
 21
10.081000
  0
LINE
 10
-14.718000
 11
-14.533000
 20
10.081000
 21
10.047000
  0
LINE
 10
-14.533000
 11
-14.351000
 20
10.047000
 21
9.997000
  0
LINE
 10
-14.351000
 11
-14.175000
 20
9.997000
 21
9.931000
  0
LINE
 10
-14.175000
 11
-14.005000
 20
9.931000
 21
9.849000
  0
LINE
 10
-14.005000
 11
-13.843000
 20
9.849000
 21
9.753000
  0
LINE
 10
-13.843000
 11
-13.691000
 20
9.753000
 21
9.642000
  0
LINE
 10
-13.691000
 11
-13.549000
 20
9.642000
 21
9.518000
  0
LINE
 10
-13.549000
 11
-13.419000
 20
9.518000
 21
9.382000
  0
LINE
 10
-13.419000
 11
-13.301000
 20
9.382000
 21
9.234000
  0
LINE
 10
-13.301000
 11
-13.197000
 20
9.234000
 21
9.077000
  0
LINE
 10
-13.197000
 11
-13.108000
 20
9.077000
 21
8.911000
  0
LINE
 10
-13.108000
 11
-13.034000
 20
8.911000
 21
8.738000
  0
LINE
 10
-13.034000
 11
-12.976000
 20
8.738000
 21
8.559000
  0
LINE
 10
-12.976000
 11
-12.934000
 20
8.559000
 21
8.375000
  0
LINE
 10
-12.934000
 11
-12.908000
 20
8.375000
 21
8.188000
  0
LINE
 10
-12.908000
 11
-12.900000
 20
8.188000
 21
8.000000
  0
LINE
 10
-12.900000
 11
-12.908000
 20
8.000000
 21
7.812000
  0
LINE
 10
-12.908000
 11
-12.934000
 20
7.812000
 21
7.625000
  0
LINE
 10
-12.934000
 11
-12.976000
 20
7.625000
 21
7.441000
  0
LINE
 10
-12.976000
 11
-13.034000
 20
7.441000
 21
7.262000
  0
LINE
 10
-13.034000
 11
-13.108000
 20
7.262000
 21
7.089000
  0
LINE
 10
-13.108000
 11
-13.197000
 20
7.089000
 21
6.923000
  0
LINE
 10
-13.197000
 11
-13.301000
 20
6.923000
 21
6.766000
  0
LINE
 10
-13.301000
 11
-13.419000
 20
6.766000
 21
6.618000
  0
LINE
 10
-13.419000
 11
-13.549000
 20
6.618000
 21
6.482000
  0
LINE
 10
-13.549000
 11
-13.691000
 20
6.482000
 21
6.358000
  0
LINE
 10
-13.691000
 11
-13.843000
 20
6.358000
 21
6.247000
  0
LINE
 10
-13.843000
 11
-14.005000
 20
6.247000
 21
6.151000
  0
LINE
 10
-14.005000
 11
-14.175000
 20
6.151000
 21
6.069000
  0
LINE
 10
-14.175000
 11
-14.351000
 20
6.069000
 21
6.003000
  0
LINE
 10
-14.351000
 11
-14.533000
 20
6.003000
 21
5.953000
  0
LINE
 10
-14.533000
 11
-14.718000
 20
5.953000
 21
5.919000
  0
LINE
 10
-14.718000
 11
-14.906000
 20
5.919000
 21
5.902000
  0
LINE
 10
-14.906000
 11
-15.094000
 20
5.902000
 21
5.902000
  0
LINE
 10
-15.094000
 11
-15.282000
 20
5.902000
 21
5.919000
  0
LINE
 10
-15.282000
 11
-15.467000
 20
5.919000
 21
5.953000
  0
LINE
 10
-15.467000
 11
-15.649000
 20
5.953000
 21
6.003000
  0
LINE
 10
-15.649000
 11
-15.825000
 20
6.003000
 21
6.069000
  0
LINE
 10
-15.825000
 11
-15.995000
 20
6.069000
 21
6.151000
  0
LINE
 10
-15.995000
 11
-16.157000
 20
6.151000
 21
6.247000
  0
LINE
 10
-16.157000
 11
-16.309000
 20
6.247000
 21
6.358000
  0
LINE
 10
-16.309000
 11
-16.451000
 20
6.358000
 21
6.482000
  0
LINE
 10
-16.451000
 11
-16.581000
 20
6.482000
 21
6.618000
  0
LINE
 10
-16.581000
 11
-16.699000
 20
6.618000
 21
6.766000
  0
LINE
 10
-16.699000
 11
-16.803000
 20
6.766000
 21
6.923000
  0
LINE
 10
-16.803000
 11
-16.892000
 20
6.923000
 21
7.089000
  0
LINE
 10
-16.892000
 11
-16.966000
 20
7.089000
 21
7.262000
  0
LINE
 10
-16.966000
 11
-17.024000
 20
7.262000
 21
7.441000
  0
LINE
 10
-17.024000
 11
-17.066000
 20
7.441000
 21
7.625000
  0
LINE
 10
-17.066000
 11
-17.092000
 20
7.625000
 21
7.812000
  0
LINE
 10
-17.092000
 11
-17.100000
 20
7.812000
 21
8.000000
  0
LINE
 10
-17.100000
 11
-17.092000
 20
40.000000
 21
40.188000
  0
LINE
 10
-17.092000
 11
-17.066000
 20
40.188000
 21
40.375000
  0
LINE
 10
-17.066000
 11
-17.024000
 20
40.375000
 21
40.559000
  0
LINE
 10
-17.024000
 11
-16.966000
 20
40.559000
 21
40.738000
  0
LINE
 10
-16.966000
 11
-16.892000
 20
40.738000
 21
40.911000
  0
LINE
 10
-16.892000
 11
-16.803000
 20
40.911000
 21
41.077000
  0
LINE
 10
-16.803000
 11
-16.699000
 20
41.077000
 21
41.234000
  0
LINE
 10
-16.699000
 11
-16.581000
 20
41.234000
 21
41.382000
  0
LINE
 10
-16.581000
 11
-16.451000
 20
41.382000
 21
41.518000
  0
LINE
 10
-16.451000
 11
-16.309000
 20
41.518000
 21
41.642000
  0
LINE
 10
-16.309000
 11
-16.157000
 20
41.642000
 21
41.753000
  0
LINE
 10
-16.157000
 11
-15.995000
 20
41.753000
 21
41.849000
  0
LINE
 10
-15.995000
 11
-15.825000
 20
41.849000
 21
41.931000
  0
LINE
 10
-15.825000
 11
-15.649000
 20
41.931000
 21
41.997000
  0
LINE
 10
-15.649000
 11
-15.467000
 20
41.997000
 21
42.047000
  0
LINE
 10
-15.467000
 11
-15.282000
 20
42.047000
 21
42.081000
  0
LINE
 10
-15.282000
 11
-15.094000
 20
42.081000
 21
42.098000
  0
LINE
 10
-15.094000
 11
-14.906000
 20
42.098000
 21
42.098000
  0
LINE
 10
-14.906000
 11
-14.718000
 20
42.098000
 21
42.081000
  0
LINE
 10
-14.718000
 11
-14.533000
 20
42.081000
 21
42.047000
  0
LINE
 10
-14.533000
 11
-14.351000
 20
42.047000
 21
41.997000
  0
LINE
 10
-14.351000
 11
-14.175000
 20
41.997000
 21
41.931000
  0
LINE
 10
-14.175000
 11
-14.005000
 20
41.931000
 21
41.849000
  0
LINE
 10
-14.005000
 11
-13.843000
 20
41.849000
 21
41.753000
  0
LINE
 10
-13.843000
 11
-13.691000
 20
41.753000
 21
41.642000
  0
LINE
 10
-13.691000
 11
-13.549000
 20
41.642000
 21
41.518000
  0
LINE
 10
-13.549000
 11
-13.419000
 20
41.518000
 21
41.382000
  0
LINE
 10
-13.419000
 11
-13.301000
 20
41.382000
 21
41.234000
  0
LINE
 10
-13.301000
 11
-13.197000
 20
41.234000
 21
41.077000
  0
LINE
 10
-13.197000
 11
-13.108000
 20
41.077000
 21
40.911000
  0
LINE
 10
-13.108000
 11
-13.034000
 20
40.911000
 21
40.738000
  0
LINE
 10
-13.034000
 11
-12.976000
 20
40.738000
 21
40.559000
  0
LINE
 10
-12.976000
 11
-12.934000
 20
40.559000
 21
40.375000
  0
LINE
 10
-12.934000
 11
-12.908000
 20
40.375000
 21
40.188000
  0
LINE
 10
-12.908000
 11
-12.900000
 20
40.188000
 21
40.000000
  0
LINE
 10
-12.900000
 11
-12.908000
 20
40.000000
 21
39.812000
  0
LINE
 10
-12.908000
 11
-12.934000
 20
39.812000
 21
39.625000
  0
LINE
 10
-12.934000
 11
-12.976000
 20
39.625000
 21
39.441000
  0
LINE
 10
-12.976000
 11
-13.034000
 20
39.441000
 21
39.262000
  0
LINE
 10
-13.034000
 11
-13.108000
 20
39.262000
 21
39.089000
  0
LINE
 10
-13.108000
 11
-13.197000
 20
39.089000
 21
38.923000
  0
LINE
 10
-13.197000
 11
-13.301000
 20
38.923000
 21
38.766000
  0
LINE
 10
-13.301000
 11
-13.419000
 20
38.766000
 21
38.618000
  0
LINE
 10
-13.419000
 11
-13.549000
 20
38.618000
 21
38.482000
  0
LINE
 10
-13.549000
 11
-13.691000
 20
38.482000
 21
38.358000
  0
LINE
 10
-13.691000
 11
-13.843000
 20
38.358000
 21
38.247000
  0
LINE
 10
-13.843000
 11
-14.005000
 20
38.247000
 21
38.151000
  0
LINE
 10
-14.005000
 11
-14.175000
 20
38.151000
 21
38.069000
  0
LINE
 10
-14.175000
 11
-14.351000
 20
38.069000
 21
38.003000
  0
LINE
 10
-14.351000
 11
-14.533000
 20
38.003000
 21
37.953000
  0
LINE
 10
-14.533000
 11
-14.718000
 20
37.953000
 21
37.919000
  0
LINE
 10
-14.718000
 11
-14.906000
 20
37.919000
 21
37.902000
  0
LINE
 10
-14.906000
 11
-15.094000
 20
37.902000
 21
37.902000
  0
LINE
 10
-15.094000
 11
-15.282000
 20
37.902000
 21
37.919000
  0
LINE
 10
-15.282000
 11
-15.467000
 20
37.919000
 21
37.953000
  0
LINE
 10
-15.467000
 11
-15.649000
 20
37.953000
 21
38.003000
  0
LINE
 10
-15.649000
 11
-15.825000
 20
38.003000
 21
38.069000
  0
LINE
 10
-15.825000
 11
-15.995000
 20
38.069000
 21
38.151000
  0
LINE
 10
-15.995000
 11
-16.157000
 20
38.151000
 21
38.247000
  0
LINE
 10
-16.157000
 11
-16.309000
 20
38.247000
 21
38.358000
  0
LINE
 10
-16.309000
 11
-16.451000
 20
38.358000
 21
38.482000
  0
LINE
 10
-16.451000
 11
-16.581000
 20
38.482000
 21
38.618000
  0
LINE
 10
-16.581000
 11
-16.699000
 20
38.618000
 21
38.766000
  0
LINE
 10
-16.699000
 11
-16.803000
 20
38.766000
 21
38.923000
  0
LINE
 10
-16.803000
 11
-16.892000
 20
38.923000
 21
39.089000
  0
LINE
 10
-16.892000
 11
-16.966000
 20
39.089000
 21
39.262000
  0
LINE
 10
-16.966000
 11
-17.024000
 20
39.262000
 21
39.441000
  0
LINE
 10
-17.024000
 11
-17.066000
 20
39.441000
 21
39.625000
  0
LINE
 10
-17.066000
 11
-17.092000
 20
39.625000
 21
39.812000
  0
LINE
 10
-17.092000
 11
-17.100000
 20
39.812000
 21
40.000000
  0
LINE
 10
-10.998000
 11
-10.998000
 20
-24.500000
 21
-19.500000
  0
LINE
 10
-10.998000
 11
-10.954000
 20
-19.500000
 21
-18.514000
  0
LINE
 10
-10.954000
 11
-10.821000
 20
-18.514000
 21
-17.536000
  0
LINE
 10
-10.821000
 11
-10.602000
 20
-17.536000
 21
-16.574000
  0
LINE
 10
-10.602000
 11
-10.297000
 20
-16.574000
 21
-15.636000
  0
LINE
 10
-10.297000
 11
-9.909000
 20
-15.636000
 21
-14.728000
  0
LINE
 10
-9.909000
 11
-9.441000
 20
-14.728000
 21
-13.859000
  0
LINE
 10
-9.441000
 11
-8.898000
 20
-13.859000
 21
-13.035000
  0
LINE
 10
-8.898000
 11
-8.282000
 20
-13.035000
 21
-12.264000
  0
LINE
 10
-8.282000
 11
-7.600000
 20
-12.264000
 21
-11.551000
  0
LINE
 10
-7.600000
 11
-6.857000
 20
-11.551000
 21
-10.901000
  0
LINE
 10
-6.857000
 11
-6.059000
 20
-10.901000
 21
-10.321000
  0
LINE
 10
-6.059000
 11
-5.212000
 20
-10.321000
 21
-9.815000
  0
LINE
 10
-5.212000
 11
-4.323000
 20
-9.815000
 21
-9.387000
  0
LINE
 10
-4.323000
 11
-3.399000
 20
-9.387000
 21
-9.040000
  0
LINE
 10
-3.399000
 11
-2.447000
 20
-9.040000
 21
-8.778000
  0
LINE
 10
-2.447000
 11
-1.476000
 20
-8.778000
 21
-8.601000
  0
LINE
 10
-1.476000
 11
-0.493000
 20
-8.601000
 21
-8.513000
  0
LINE
 10
-0.493000
 11
0.493000
 20
-8.513000
 21
-8.513000
  0
LINE
 10
0.493000
 11
1.476000
 20
-8.513000
 21
-8.601000
  0
LINE
 10
1.476000
 11
2.447000
 20
-8.601000
 21
-8.778000
  0
LINE
 10
2.447000
 11
3.399000
 20
-8.778000
 21
-9.040000
  0
LINE
 10
3.399000
 11
4.323000
 20
-9.040000
 21
-9.387000
  0
LINE
 10
4.323000
 11
5.212000
 20
-9.387000
 21
-9.815000
  0
LINE
 10
5.212000
 11
6.059000
 20
-9.815000
 21
-10.321000
  0
LINE
 10
6.059000
 11
6.857000
 20
-10.321000
 21
-10.901000
  0
LINE
 10
6.857000
 11
7.600000
 20
-10.901000
 21
-11.551000
  0
LINE
 10
7.600000
 11
8.282000
 20
-11.551000
 21
-12.264000
  0
LINE
 10
8.282000
 11
8.898000
 20
-12.264000
 21
-13.035000
  0
LINE
 10
8.898000
 11
9.441000
 20
-13.035000
 21
-13.859000
  0
LINE
 10
9.441000
 11
9.909000
 20
-13.859000
 21
-14.728000
  0
LINE
 10
9.909000
 11
10.297000
 20
-14.728000
 21
-15.636000
  0
LINE
 10
10.297000
 11
10.602000
 20
-15.636000
 21
-16.574000
  0
LINE
 10
10.602000
 11
10.821000
 20
-16.574000
 21
-17.536000
  0
LINE
 10
10.821000
 11
10.954000
 20
-17.536000
 21
-18.514000
  0
LINE
 10
10.954000
 11
10.998000
 20
-18.514000
 21
-19.500000
  0
LINE
 10
10.998000
 11
10.998000
 20
-19.500000
 21
-24.500000
  0
LINE
 10
10.998000
 11
10.954000
 20
-24.500000
 21
-25.486000
  0
LINE
 10
10.954000
 11
10.821000
 20
-25.486000
 21
-26.464000
  0
LINE
 10
10.821000
 11
10.602000
 20
-26.464000
 21
-27.426000
  0
LINE
 10
10.602000
 11
10.297000
 20
-27.426000
 21
-28.364000
  0
LINE
 10
10.297000
 11
9.909000
 20
-28.364000
 21
-29.272000
  0
LINE
 10
9.909000
 11
9.441000
 20
-29.272000
 21
-30.141000
  0
LINE
 10
9.441000
 11
8.898000
 20
-30.141000
 21
-30.965000
  0
LINE
 10
8.898000
 11
8.282000
 20
-30.965000
 21
-31.736000
  0
LINE
 10
8.282000
 11
7.600000
 20
-31.736000
 21
-32.449000
  0
LINE
 10
7.600000
 11
6.857000
 20
-32.449000
 21
-33.099000
  0
LINE
 10
6.857000
 11
6.059000
 20
-33.099000
 21
-33.679000
  0
LINE
 10
6.059000
 11
5.212000
 20
-33.679000
 21
-34.185000
  0
LINE
 10
5.212000
 11
4.323000
 20
-34.185000
 21
-34.613000
  0
LINE
 10
4.323000
 11
3.399000
 20
-34.613000
 21
-34.960000
  0
LINE
 10
3.399000
 11
2.447000
 20
-34.960000
 21
-35.222000
  0
LINE
 10
2.447000
 11
1.476000
 20
-35.222000
 21
-35.399000
  0
LINE
 10
1.476000
 11
0.493000
 20
-35.399000
 21
-35.487000
  0
LINE
 10
0.493000
 11
-0.493000
 20
-35.487000
 21
-35.487000
  0
LINE
 10
-0.493000
 11
-1.476000
 20
-35.487000
 21
-35.399000
  0
LINE
 10
-1.476000
 11
-2.447000
 20
-35.399000
 21
-35.222000
  0
LINE
 10
-2.447000
 11
-3.399000
 20
-35.222000
 21
-34.960000
  0
LINE
 10
-3.399000
 11
-4.323000
 20
-34.960000
 21
-34.613000
  0
LINE
 10
-4.323000
 11
-5.212000
 20
-34.613000
 21
-34.185000
  0
LINE
 10
-5.212000
 11
-6.059000
 20
-34.185000
 21
-33.679000
  0
LINE
 10
-6.059000
 11
-6.857000
 20
-33.679000
 21
-33.099000
  0
LINE
 10
-6.857000
 11
-7.600000
 20
-33.099000
 21
-32.449000
  0
LINE
 10
-7.600000
 11
-8.282000
 20
-32.449000
 21
-31.736000
  0
LINE
 10
-8.282000
 11
-8.898000
 20
-31.736000
 21
-30.965000
  0
LINE
 10
-8.898000
 11
-9.441000
 20
-30.965000
 21
-30.141000
  0
LINE
 10
-9.441000
 11
-9.909000
 20
-30.141000
 21
-29.272000
  0
LINE
 10
-9.909000
 11
-10.297000
 20
-29.272000
 21
-28.364000
  0
LINE
 10
-10.297000
 11
-10.602000
 20
-28.364000
 21
-27.426000
  0
LINE
 10
-10.602000
 11
-10.821000
 20
-27.426000
 21
-26.464000
  0
LINE
 10
-10.821000
 11
-10.954000
 20
-26.464000
 21
-25.486000
  0
LINE
 10
-10.954000
 11
-10.998000
 20
-25.486000
 21
-24.500000
  0
LINE
 10
-6.700000
 11
-6.673000
 20
15.500000
 21
16.101000
  0
LINE
 10
-6.673000
 11
-6.592000
 20
16.101000
 21
16.696000
  0
LINE
 10
-6.592000
 11
-6.459000
 20
16.696000
 21
17.282000
  0
LINE
 10
-6.459000
 11
-6.273000
 20
17.282000
 21
17.854000
  0
LINE
 10
-6.273000
 11
-6.036000
 20
17.854000
 21
18.407000
  0
LINE
 10
-6.036000
 11
-5.752000
 20
18.407000
 21
18.936000
  0
LINE
 10
-5.752000
 11
-5.420000
 20
18.936000
 21
19.438000
  0
LINE
 10
-5.420000
 11
-5.046000
 20
19.438000
 21
19.908000
  0
LINE
 10
-5.046000
 11
-4.630000
 20
19.908000
 21
20.343000
  0
LINE
 10
-4.630000
 11
-4.177000
 20
20.343000
 21
20.738000
  0
LINE
 10
-4.177000
 11
-3.691000
 20
20.738000
 21
21.092000
  0
LINE
 10
-3.691000
 11
-3.175000
 20
21.092000
 21
21.400000
  0
LINE
 10
-3.175000
 11
-2.633000
 20
21.400000
 21
21.661000
  0
LINE
 10
-2.633000
 11
-2.070000
 20
21.661000
 21
21.872000
  0
LINE
 10
-2.070000
 11
-1.491000
 20
21.872000
 21
22.032000
  0
LINE
 10
-1.491000
 11
-0.899000
 20
22.032000
 21
22.139000
  0
LINE
 10
-0.899000
 11
-0.301000
 20
22.139000
 21
22.193000
  0
LINE
 10
-0.301000
 11
0.301000
 20
22.193000
 21
22.193000
  0
LINE
 10
0.301000
 11
0.899000
 20
22.193000
 21
22.139000
  0
LINE
 10
0.899000
 11
1.491000
 20
22.139000
 21
22.032000
  0
LINE
 10
1.491000
 11
2.070000
 20
22.032000
 21
21.872000
  0
LINE
 10
2.070000
 11
2.633000
 20
21.872000
 21
21.661000
  0
LINE
 10
2.633000
 11
3.175000
 20
21.661000
 21
21.400000
  0
LINE
 10
3.175000
 11
3.691000
 20
21.400000
 21
21.092000
  0
LINE
 10
3.691000
 11
4.177000
 20
21.092000
 21
20.738000
  0
LINE
 10
4.177000
 11
4.630000
 20
20.738000
 21
20.343000
  0
LINE
 10
4.630000
 11
5.046000
 20
20.343000
 21
19.908000
  0
LINE
 10
5.046000
 11
5.420000
 20
19.908000
 21
19.438000
  0
LINE
 10
5.420000
 11
5.752000
 20
19.438000
 21
18.936000
  0
LINE
 10
5.752000
 11
6.036000
 20
18.936000
 21
18.407000
  0
LINE
 10
6.036000
 11
6.273000
 20
18.407000
 21
17.854000
  0
LINE
 10
6.273000
 11
6.459000
 20
17.854000
 21
17.282000
  0
LINE
 10
6.459000
 11
6.592000
 20
17.282000
 21
16.696000
  0
LINE
 10
6.592000
 11
6.673000
 20
16.696000
 21
16.101000
  0
LINE
 10
6.673000
 11
6.700000
 20
16.101000
 21
15.500000
  0
LINE
 10
6.700000
 11
6.673000
 20
15.500000
 21
14.899000
  0
LINE
 10
6.673000
 11
6.592000
 20
14.899000
 21
14.304000
  0
LINE
 10
6.592000
 11
6.459000
 20
14.304000
 21
13.718000
  0
LINE
 10
6.459000
 11
6.273000
 20
13.718000
 21
13.146000
  0
LINE
 10
6.273000
 11
6.036000
 20
13.146000
 21
12.593000
  0
LINE
 10
6.036000
 11
5.752000
 20
12.593000
 21
12.064000
  0
LINE
 10
5.752000
 11
5.420000
 20
12.064000
 21
11.562000
  0
LINE
 10
5.420000
 11
5.046000
 20
11.562000
 21
11.092000
  0
LINE
 10
5.046000
 11
4.630000
 20
11.092000
 21
10.657000
  0
LINE
 10
4.630000
 11
4.177000
 20
10.657000
 21
10.262000
  0
LINE
 10
4.177000
 11
3.691000
 20
10.262000
 21
9.908000
  0
LINE
 10
3.691000
 11
3.175000
 20
9.908000
 21
9.600000
  0
LINE
 10
3.175000
 11
2.633000
 20
9.600000
 21
9.339000
  0
LINE
 10
2.633000
 11
2.070000
 20
9.339000
 21
9.128000
  0
LINE
 10
2.070000
 11
1.491000
 20
9.128000
 21
8.968000
  0
LINE
 10
1.491000
 11
0.899000
 20
8.968000
 21
8.861000
  0
LINE
 10
0.899000
 11
0.301000
 20
8.861000
 21
8.807000
  0
LINE
 10
0.301000
 11
-0.301000
 20
8.807000
 21
8.807000
  0
LINE
 10
-0.301000
 11
-0.899000
 20
8.807000
 21
8.861000
  0
LINE
 10
-0.899000
 11
-1.491000
 20
8.861000
 21
8.968000
  0
LINE
 10
-1.491000
 11
-2.070000
 20
8.968000
 21
9.128000
  0
LINE
 10
-2.070000
 11
-2.633000
 20
9.128000
 21
9.339000
  0
LINE
 10
-2.633000
 11
-3.175000
 20
9.339000
 21
9.600000
  0
LINE
 10
-3.175000
 11
-3.691000
 20
9.600000
 21
9.908000
  0
LINE
 10
-3.691000
 11
-4.177000
 20
9.908000
 21
10.262000
  0
LINE
 10
-4.177000
 11
-4.630000
 20
10.262000
 21
10.657000
  0
LINE
 10
-4.630000
 11
-5.046000
 20
10.657000
 21
11.092000
  0
LINE
 10
-5.046000
 11
-5.420000
 20
11.092000
 21
11.562000
  0
LINE
 10
-5.420000
 11
-5.752000
 20
11.562000
 21
12.064000
  0
LINE
 10
-5.752000
 11
-6.036000
 20
12.064000
 21
12.593000
  0
LINE
 10
-6.036000
 11
-6.273000
 20
12.593000
 21
13.146000
  0
LINE
 10
-6.273000
 11
-6.459000
 20
13.146000
 21
13.718000
  0
LINE
 10
-6.459000
 11
-6.592000
 20
13.718000
 21
14.304000
  0
LINE
 10
-6.592000
 11
-6.673000
 20
14.304000
 21
14.899000
  0
LINE
 10
-6.673000
 11
-6.700000
 20
14.899000
 21
15.500000
  0
LINE
 10
-2.100000
 11
-2.092000
 20
26.900000
 21
27.088000
  0
LINE
 10
-2.092000
 11
-2.066000
 20
27.088000
 21
27.275000
  0
LINE
 10
-2.066000
 11
-2.024000
 20
27.275000
 21
27.459000
  0
LINE
 10
-2.024000
 11
-1.966000
 20
27.459000
 21
27.638000
  0
LINE
 10
-1.966000
 11
-1.892000
 20
27.638000
 21
27.811000
  0
LINE
 10
-1.892000
 11
-1.803000
 20
27.811000
 21
27.977000
  0
LINE
 10
-1.803000
 11
-1.699000
 20
27.977000
 21
28.134000
  0
LINE
 10
-1.699000
 11
-1.581000
 20
28.134000
 21
28.282000
  0
LINE
 10
-1.581000
 11
-1.451000
 20
28.282000
 21
28.418000
  0
LINE
 10
-1.451000
 11
-1.309000
 20
28.418000
 21
28.542000
  0
LINE
 10
-1.309000
 11
-1.157000
 20
28.542000
 21
28.653000
  0
LINE
 10
-1.157000
 11
-0.995000
 20
28.653000
 21
28.749000
  0
LINE
 10
-0.995000
 11
-0.825000
 20
28.749000
 21
28.831000
  0
LINE
 10
-0.825000
 11
-0.649000
 20
28.831000
 21
28.897000
  0
LINE
 10
-0.649000
 11
-0.467000
 20
28.897000
 21
28.947000
  0
LINE
 10
-0.467000
 11
-0.282000
 20
28.947000
 21
28.981000
  0
LINE
 10
-0.282000
 11
-0.094000
 20
28.981000
 21
28.998000
  0
LINE
 10
-0.094000
 11
0.094000
 20
28.998000
 21
28.998000
  0
LINE
 10
0.094000
 11
0.282000
 20
28.998000
 21
28.981000
  0
LINE
 10
0.282000
 11
0.467000
 20
28.981000
 21
28.947000
  0
LINE
 10
0.467000
 11
0.649000
 20
28.947000
 21
28.897000
  0
LINE
 10
0.649000
 11
0.825000
 20
28.897000
 21
28.831000
  0
LINE
 10
0.825000
 11
0.995000
 20
28.831000
 21
28.749000
  0
LINE
 10
0.995000
 11
1.157000
 20
28.749000
 21
28.653000
  0
LINE
 10
1.157000
 11
1.309000
 20
28.653000
 21
28.542000
  0
LINE
 10
1.309000
 11
1.451000
 20
28.542000
 21
28.418000
  0
LINE
 10
1.451000
 11
1.581000
 20
28.418000
 21
28.282000
  0
LINE
 10
1.581000
 11
1.699000
 20
28.282000
 21
28.134000
  0
LINE
 10
1.699000
 11
1.803000
 20
28.134000
 21
27.977000
  0
LINE
 10
1.803000
 11
1.892000
 20
27.977000
 21
27.811000
  0
LINE
 10
1.892000
 11
1.966000
 20
27.811000
 21
27.638000
  0
LINE
 10
1.966000
 11
2.024000
 20
27.638000
 21
27.459000
  0
LINE
 10
2.024000
 11
2.066000
 20
27.459000
 21
27.275000
  0
LINE
 10
2.066000
 11
2.092000
 20
27.275000
 21
27.088000
  0
LINE
 10
2.092000
 11
2.100000
 20
27.088000
 21
26.900000
  0
LINE
 10
2.100000
 11
2.092000
 20
26.900000
 21
26.712000
  0
LINE
 10
2.092000
 11
2.066000
 20
26.712000
 21
26.525000
  0
LINE
 10
2.066000
 11
2.024000
 20
26.525000
 21
26.341000
  0
LINE
 10
2.024000
 11
1.966000
 20
26.341000
 21
26.162000
  0
LINE
 10
1.966000
 11
1.892000
 20
26.162000
 21
25.989000
  0
LINE
 10
1.892000
 11
1.803000
 20
25.989000
 21
25.823000
  0
LINE
 10
1.803000
 11
1.699000
 20
25.823000
 21
25.666000
  0
LINE
 10
1.699000
 11
1.581000
 20
25.666000
 21
25.518000
  0
LINE
 10
1.581000
 11
1.451000
 20
25.518000
 21
25.382000
  0
LINE
 10
1.451000
 11
1.309000
 20
25.382000
 21
25.258000
  0
LINE
 10
1.309000
 11
1.157000
 20
25.258000
 21
25.147000
  0
LINE
 10
1.157000
 11
0.995000
 20
25.147000
 21
25.051000
  0
LINE
 10
0.995000
 11
0.825000
 20
25.051000
 21
24.969000
  0
LINE
 10
0.825000
 11
0.649000
 20
24.969000
 21
24.903000
  0
LINE
 10
0.649000
 11
0.467000
 20
24.903000
 21
24.853000
  0
LINE
 10
0.467000
 11
0.282000
 20
24.853000
 21
24.819000
  0
LINE
 10
0.282000
 11
0.094000
 20
24.819000
 21
24.802000
  0
LINE
 10
0.094000
 11
-0.094000
 20
24.802000
 21
24.802000
  0
LINE
 10
-0.094000
 11
-0.282000
 20
24.802000
 21
24.819000
  0
LINE
 10
-0.282000
 11
-0.467000
 20
24.819000
 21
24.853000
  0
LINE
 10
-0.467000
 11
-0.649000
 20
24.853000
 21
24.903000
  0
LINE
 10
-0.649000
 11
-0.825000
 20
24.903000
 21
24.969000
  0
LINE
 10
-0.825000
 11
-0.995000
 20
24.969000
 21
25.051000
  0
LINE
 10
-0.995000
 11
-1.157000
 20
25.051000
 21
25.147000
  0
LINE
 10
-1.157000
 11
-1.309000
 20
25.147000
 21
25.258000
  0
LINE
 10
-1.309000
 11
-1.451000
 20
25.258000
 21
25.382000
  0
LINE
 10
-1.451000
 11
-1.581000
 20
25.382000
 21
25.518000
  0
LINE
 10
-1.581000
 11
-1.699000
 20
25.518000
 21
25.666000
  0
LINE
 10
-1.699000
 11
-1.803000
 20
25.666000
 21
25.823000
  0
LINE
 10
-1.803000
 11
-1.892000
 20
25.823000
 21
25.989000
  0
LINE
 10
-1.892000
 11
-1.966000
 20
25.989000
 21
26.162000
  0
LINE
 10
-1.966000
 11
-2.024000
 20
26.162000
 21
26.341000
  0
LINE
 10
-2.024000
 11
-2.066000
 20
26.341000
 21
26.525000
  0
LINE
 10
-2.066000
 11
-2.092000
 20
26.525000
 21
26.712000
  0
LINE
 10
-2.092000
 11
-2.100000
 20
26.712000
 21
26.900000
  0
LINE
 10
12.900000
 11
12.908000
 20
8.000000
 21
8.188000
  0
LINE
 10
12.908000
 11
12.934000
 20
8.188000
 21
8.375000
  0
LINE
 10
12.934000
 11
12.976000
 20
8.375000
 21
8.559000
  0
LINE
 10
12.976000
 11
13.034000
 20
8.559000
 21
8.738000
  0
LINE
 10
13.034000
 11
13.108000
 20
8.738000
 21
8.911000
  0
LINE
 10
13.108000
 11
13.197000
 20
8.911000
 21
9.077000
  0
LINE
 10
13.197000
 11
13.301000
 20
9.077000
 21
9.234000
  0
LINE
 10
13.301000
 11
13.419000
 20
9.234000
 21
9.382000
  0
LINE
 10
13.419000
 11
13.549000
 20
9.382000
 21
9.518000
  0
LINE
 10
13.549000
 11
13.691000
 20
9.518000
 21
9.642000
  0
LINE
 10
13.691000
 11
13.843000
 20
9.642000
 21
9.753000
  0
LINE
 10
13.843000
 11
14.005000
 20
9.753000
 21
9.849000
  0
LINE
 10
14.005000
 11
14.175000
 20
9.849000
 21
9.931000
  0
LINE
 10
14.175000
 11
14.351000
 20
9.931000
 21
9.997000
  0
LINE
 10
14.351000
 11
14.533000
 20
9.997000
 21
10.047000
  0
LINE
 10
14.533000
 11
14.718000
 20
10.047000
 21
10.081000
  0
LINE
 10
14.718000
 11
14.906000
 20
10.081000
 21
10.098000
  0
LINE
 10
14.906000
 11
15.094000
 20
10.098000
 21
10.098000
  0
LINE
 10
15.094000
 11
15.282000
 20
10.098000
 21
10.081000
  0
LINE
 10
15.282000
 11
15.467000
 20
10.081000
 21
10.047000
  0
LINE
 10
15.467000
 11
15.649000
 20
10.047000
 21
9.997000
  0
LINE
 10
15.649000
 11
15.825000
 20
9.997000
 21
9.931000
  0
LINE
 10
15.825000
 11
15.995000
 20
9.931000
 21
9.849000
  0
LINE
 10
15.995000
 11
16.157000
 20
9.849000
 21
9.753000
  0
LINE
 10
16.157000
 11
16.309000
 20
9.753000
 21
9.642000
  0
LINE
 10
16.309000
 11
16.451000
 20
9.642000
 21
9.518000
  0
LINE
 10
16.451000
 11
16.581000
 20
9.518000
 21
9.382000
  0
LINE
 10
16.581000
 11
16.699000
 20
9.382000
 21
9.234000
  0
LINE
 10
16.699000
 11
16.803000
 20
9.234000
 21
9.077000
  0
LINE
 10
16.803000
 11
16.892000
 20
9.077000
 21
8.911000
  0
LINE
 10
16.892000
 11
16.966000
 20
8.911000
 21
8.738000
  0
LINE
 10
16.966000
 11
17.024000
 20
8.738000
 21
8.559000
  0
LINE
 10
17.024000
 11
17.066000
 20
8.559000
 21
8.375000
  0
LINE
 10
17.066000
 11
17.092000
 20
8.375000
 21
8.188000
  0
LINE
 10
17.092000
 11
17.100000
 20
8.188000
 21
8.000000
  0
LINE
 10
17.100000
 11
17.092000
 20
8.000000
 21
7.812000
  0
LINE
 10
17.092000
 11
17.066000
 20
7.812000
 21
7.625000
  0
LINE
 10
17.066000
 11
17.024000
 20
7.625000
 21
7.441000
  0
LINE
 10
17.024000
 11
16.966000
 20
7.441000
 21
7.262000
  0
LINE
 10
16.966000
 11
16.892000
 20
7.262000
 21
7.089000
  0
LINE
 10
16.892000
 11
16.803000
 20
7.089000
 21
6.923000
  0
LINE
 10
16.803000
 11
16.699000
 20
6.923000
 21
6.766000
  0
LINE
 10
16.699000
 11
16.581000
 20
6.766000
 21
6.618000
  0
LINE
 10
16.581000
 11
16.451000
 20
6.618000
 21
6.482000
  0
LINE
 10
16.451000
 11
16.309000
 20
6.482000
 21
6.358000
  0
LINE
 10
16.309000
 11
16.157000
 20
6.358000
 21
6.247000
  0
LINE
 10
16.157000
 11
15.995000
 20
6.247000
 21
6.151000
  0
LINE
 10
15.995000
 11
15.825000
 20
6.151000
 21
6.069000
  0
LINE
 10
15.825000
 11
15.649000
 20
6.069000
 21
6.003000
  0
LINE
 10
15.649000
 11
15.467000
 20
6.003000
 21
5.953000
  0
LINE
 10
15.467000
 11
15.282000
 20
5.953000
 21
5.919000
  0
LINE
 10
15.282000
 11
15.094000
 20
5.919000
 21
5.902000
  0
LINE
 10
15.094000
 11
14.906000
 20
5.902000
 21
5.902000
  0
LINE
 10
14.906000
 11
14.718000
 20
5.902000
 21
5.919000
  0
LINE
 10
14.718000
 11
14.533000
 20
5.919000
 21
5.953000
  0
LINE
 10
14.533000
 11
14.351000
 20
5.953000
 21
6.003000
  0
LINE
 10
14.351000
 11
14.175000
 20
6.003000
 21
6.069000
  0
LINE
 10
14.175000
 11
14.005000
 20
6.069000
 21
6.151000
  0
LINE
 10
14.005000
 11
13.843000
 20
6.151000
 21
6.247000
  0
LINE
 10
13.843000
 11
13.691000
 20
6.247000
 21
6.358000
  0
LINE
 10
13.691000
 11
13.549000
 20
6.358000
 21
6.482000
  0
LINE
 10
13.549000
 11
13.419000
 20
6.482000
 21
6.618000
  0
LINE
 10
13.419000
 11
13.301000
 20
6.618000
 21
6.766000
  0
LINE
 10
13.301000
 11
13.197000
 20
6.766000
 21
6.923000
  0
LINE
 10
13.197000
 11
13.108000
 20
6.923000
 21
7.089000
  0
LINE
 10
13.108000
 11
13.034000
 20
7.089000
 21
7.262000
  0
LINE
 10
13.034000
 11
12.976000
 20
7.262000
 21
7.441000
  0
LINE
 10
12.976000
 11
12.934000
 20
7.441000
 21
7.625000
  0
LINE
 10
12.934000
 11
12.908000
 20
7.625000
 21
7.812000
  0
LINE
 10
12.908000
 11
12.900000
 20
7.812000
 21
8.000000
  0
LINE
 10
12.900000
 11
12.908000
 20
40.000000
 21
40.188000
  0
LINE
 10
12.908000
 11
12.934000
 20
40.188000
 21
40.375000
  0
LINE
 10
12.934000
 11
12.976000
 20
40.375000
 21
40.559000
  0
LINE
 10
12.976000
 11
13.034000
 20
40.559000
 21
40.738000
  0
LINE
 10
13.034000
 11
13.108000
 20
40.738000
 21
40.911000
  0
LINE
 10
13.108000
 11
13.197000
 20
40.911000
 21
41.077000
  0
LINE
 10
13.197000
 11
13.301000
 20
41.077000
 21
41.234000
  0
LINE
 10
13.301000
 11
13.419000
 20
41.234000
 21
41.382000
  0
LINE
 10
13.419000
 11
13.549000
 20
41.382000
 21
41.518000
  0
LINE
 10
13.549000
 11
13.691000
 20
41.518000
 21
41.642000
  0
LINE
 10
13.691000
 11
13.843000
 20
41.642000
 21
41.753000
  0
LINE
 10
13.843000
 11
14.005000
 20
41.753000
 21
41.849000
  0
LINE
 10
14.005000
 11
14.175000
 20
41.849000
 21
41.931000
  0
LINE
 10
14.175000
 11
14.351000
 20
41.931000
 21
41.997000
  0
LINE
 10
14.351000
 11
14.533000
 20
41.997000
 21
42.047000
  0
LINE
 10
14.533000
 11
14.718000
 20
42.047000
 21
42.081000
  0
LINE
 10
14.718000
 11
14.906000
 20
42.081000
 21
42.098000
  0
LINE
 10
14.906000
 11
15.094000
 20
42.098000
 21
42.098000
  0
LINE
 10
15.094000
 11
15.282000
 20
42.098000
 21
42.081000
  0
LINE
 10
15.282000
 11
15.467000
 20
42.081000
 21
42.047000
  0
LINE
 10
15.467000
 11
15.649000
 20
42.047000
 21
41.997000
  0
LINE
 10
15.649000
 11
15.825000
 20
41.997000
 21
41.931000
  0
LINE
 10
15.825000
 11
15.995000
 20
41.931000
 21
41.849000
  0
LINE
 10
15.995000
 11
16.157000
 20
41.849000
 21
41.753000
  0
LINE
 10
16.157000
 11
16.309000
 20
41.753000
 21
41.642000
  0
LINE
 10
16.309000
 11
16.451000
 20
41.642000
 21
41.518000
  0
LINE
 10
16.451000
 11
16.581000
 20
41.518000
 21
41.382000
  0
LINE
 10
16.581000
 11
16.699000
 20
41.382000
 21
41.234000
  0
LINE
 10
16.699000
 11
16.803000
 20
41.234000
 21
41.077000
  0
LINE
 10
16.803000
 11
16.892000
 20
41.077000
 21
40.911000
  0
LINE
 10
16.892000
 11
16.966000
 20
40.911000
 21
40.738000
  0
LINE
 10
16.966000
 11
17.024000
 20
40.738000
 21
40.559000
  0
LINE
 10
17.024000
 11
17.066000
 20
40.559000
 21
40.375000
  0
LINE
 10
17.066000
 11
17.092000
 20
40.375000
 21
40.188000
  0
LINE
 10
17.092000
 11
17.100000
 20
40.188000
 21
40.000000
  0
LINE
 10
17.100000
 11
17.092000
 20
40.000000
 21
39.812000
  0
LINE
 10
17.092000
 11
17.066000
 20
39.812000
 21
39.625000
  0
LINE
 10
17.066000
 11
17.024000
 20
39.625000
 21
39.441000
  0
LINE
 10
17.024000
 11
16.966000
 20
39.441000
 21
39.262000
  0
LINE
 10
16.966000
 11
16.892000
 20
39.262000
 21
39.089000
  0
LINE
 10
16.892000
 11
16.803000
 20
39.089000
 21
38.923000
  0
LINE
 10
16.803000
 11
16.699000
 20
38.923000
 21
38.766000
  0
LINE
 10
16.699000
 11
16.581000
 20
38.766000
 21
38.618000
  0
LINE
 10
16.581000
 11
16.451000
 20
38.618000
 21
38.482000
  0
LINE
 10
16.451000
 11
16.309000
 20
38.482000
 21
38.358000
  0
LINE
 10
16.309000
 11
16.157000
 20
38.358000
 21
38.247000
  0
LINE
 10
16.157000
 11
15.995000
 20
38.247000
 21
38.151000
  0
LINE
 10
15.995000
 11
15.825000
 20
38.151000
 21
38.069000
  0
LINE
 10
15.825000
 11
15.649000
 20
38.069000
 21
38.003000
  0
LINE
 10
15.649000
 11
15.467000
 20
38.003000
 21
37.953000
  0
LINE
 10
15.467000
 11
15.282000
 20
37.953000
 21
37.919000
  0
LINE
 10
15.282000
 11
15.094000
 20
37.919000
 21
37.902000
  0
LINE
 10
15.094000
 11
14.906000
 20
37.902000
 21
37.902000
  0
LINE
 10
14.906000
 11
14.718000
 20
37.902000
 21
37.919000
  0
LINE
 10
14.718000
 11
14.533000
 20
37.919000
 21
37.953000
  0
LINE
 10
14.533000
 11
14.351000
 20
37.953000
 21
38.003000
  0
LINE
 10
14.351000
 11
14.175000
 20
38.003000
 21
38.069000
  0
LINE
 10
14.175000
 11
14.005000
 20
38.069000
 21
38.151000
  0
LINE
 10
14.005000
 11
13.843000
 20
38.151000
 21
38.247000
  0
LINE
 10
13.843000
 11
13.691000
 20
38.247000
 21
38.358000
  0
LINE
 10
13.691000
 11
13.549000
 20
38.358000
 21
38.482000
  0
LINE
 10
13.549000
 11
13.419000
 20
38.482000
 21
38.618000
  0
LINE
 10
13.419000
 11
13.301000
 20
38.618000
 21
38.766000
  0
LINE
 10
13.301000
 11
13.197000
 20
38.766000
 21
38.923000
  0
LINE
 10
13.197000
 11
13.108000
 20
38.923000
 21
39.089000
  0
LINE
 10
13.108000
 11
13.034000
 20
39.089000
 21
39.262000
  0
LINE
 10
13.034000
 11
12.976000
 20
39.262000
 21
39.441000
  0
LINE
 10
12.976000
 11
12.934000
 20
39.441000
 21
39.625000
  0
LINE
 10
12.934000
 11
12.908000
 20
39.625000
 21
39.812000
  0
LINE
 10
12.908000
 11
12.900000
 20
39.812000
 21
40.000000
  0
LINE
 10
13.744000
 11
13.744000
 20
-39.994000
 21
-34.994000
  0
LINE
 10
13.744000
 11
13.751000
 20
-34.994000
 21
-34.837000
  0
LINE
 10
13.751000
 11
13.772000
 20
-34.837000
 21
-34.682000
  0
LINE
 10
13.772000
 11
13.807000
 20
-34.682000
 21
-34.528000
  0
LINE
 10
13.807000
 11
13.856000
 20
-34.528000
 21
-34.379000
  0
LINE
 10
13.856000
 11
13.917000
 20
-34.379000
 21
-34.235000
  0
LINE
 10
13.917000
 11
13.992000
 20
-34.235000
 21
-34.096000
  0
LINE
 10
13.992000
 11
14.078000
 20
-34.096000
 21
-33.965000
  0
LINE
 10
14.078000
 11
14.176000
 20
-33.965000
 21
-33.843000
  0
LINE
 10
14.176000
 11
14.285000
 20
-33.843000
 21
-33.729000
  0
LINE
 10
14.285000
 11
14.403000
 20
-33.729000
 21
-33.626000
  0
LINE
 10
14.403000
 11
14.530000
 20
-33.626000
 21
-33.533000
  0
LINE
 10
14.530000
 11
14.665000
 20
-33.533000
 21
-33.453000
  0
LINE
 10
14.665000
 11
14.806000
 20
-33.453000
 21
-33.385000
  0
LINE
 10
14.806000
 11
14.953000
 20
-33.385000
 21
-33.330000
  0
LINE
 10
14.953000
 11
15.105000
 20
-33.330000
 21
-33.288000
  0
LINE
 10
15.105000
 11
15.259000
 20
-33.288000
 21
-33.260000
  0
LINE
 10
15.259000
 11
15.415000
 20
-33.260000
 21
-33.246000
  0
LINE
 10
15.415000
 11
15.573000
 20
-33.246000
 21
-33.246000
  0
LINE
 10
15.573000
 11
15.729000
 20
-33.246000
 21
-33.260000
  0
LINE
 10
15.729000
 11
15.883000
 20
-33.260000
 21
-33.288000
  0
LINE
 10
15.883000
 11
16.035000
 20
-33.288000
 21
-33.330000
  0
LINE
 10
16.035000
 11
16.182000
 20
-33.330000
 21
-33.385000
  0
LINE
 10
16.182000
 11
16.323000
 20
-33.385000
 21
-33.453000
  0
LINE
 10
16.323000
 11
16.458000
 20
-33.453000
 21
-33.533000
  0
LINE
 10
16.458000
 11
16.585000
 20
-33.533000
 21
-33.626000
  0
LINE
 10
16.585000
 11
16.703000
 20
-33.626000
 21
-33.729000
  0
LINE
 10
16.703000
 11
16.812000
 20
-33.729000
 21
-33.843000
  0
LINE
 10
16.812000
 11
16.910000
 20
-33.843000
 21
-33.965000
  0
LINE
 10
16.910000
 11
16.996000
 20
-33.965000
 21
-34.096000
  0
LINE
 10
16.996000
 11
17.071000
 20
-34.096000
 21
-34.235000
  0
LINE
 10
17.071000
 11
17.132000
 20
-34.235000
 21
-34.379000
  0
LINE
 10
17.132000
 11
17.181000
 20
-34.379000
 21
-34.528000
  0
LINE
 10
17.181000
 11
17.216000
 20
-34.528000
 21
-34.682000
  0
LINE
 10
17.216000
 11
17.237000
 20
-34.682000
 21
-34.837000
  0
LINE
 10
17.237000
 11
17.244000
 20
-34.837000
 21
-34.994000
  0
LINE
 10
17.244000
 11
17.244000
 20
-34.994000
 21
-39.994000
  0
LINE
 10
17.244000
 11
17.237000
 20
-39.994000
 21
-40.151000
  0
LINE
 10
17.237000
 11
17.216000
 20
-40.151000
 21
-40.306000
  0
LINE
 10
17.216000
 11
17.181000
 20
-40.306000
 21
-40.460000
  0
LINE
 10
17.181000
 11
17.132000
 20
-40.460000
 21
-40.609000
  0
LINE
 10
17.132000
 11
17.071000
 20
-40.609000
 21
-40.753000
  0
LINE
 10
17.071000
 11
16.996000
 20
-40.753000
 21
-40.892000
  0
LINE
 10
16.996000
 11
16.910000
 20
-40.892000
 21
-41.023000
  0
LINE
 10
16.910000
 11
16.812000
 20
-41.023000
 21
-41.145000
  0
LINE
 10
16.812000
 11
16.703000
 20
-41.145000
 21
-41.259000
  0
LINE
 10
16.703000
 11
16.585000
 20
-41.259000
 21
-41.362000
  0
LINE
 10
16.585000
 11
16.458000
 20
-41.362000
 21
-41.455000
  0
LINE
 10
16.458000
 11
16.323000
 20
-41.455000
 21
-41.535000
  0
LINE
 10
16.323000
 11
16.182000
 20
-41.535000
 21
-41.603000
  0
LINE
 10
16.182000
 11
16.035000
 20
-41.603000
 21
-41.658000
  0
LINE
 10
16.035000
 11
15.883000
 20
-41.658000
 21
-41.700000
  0
LINE
 10
15.883000
 11
15.729000
 20
-41.700000
 21
-41.728000
  0
LINE
 10
15.729000
 11
15.573000
 20
-41.728000
 21
-41.742000
  0
LINE
 10
15.573000
 11
15.415000
 20
-41.742000
 21
-41.742000
  0
LINE
 10
15.415000
 11
15.259000
 20
-41.742000
 21
-41.728000
  0
LINE
 10
15.259000
 11
15.105000
 20
-41.728000
 21
-41.700000
  0
LINE
 10
15.105000
 11
14.953000
 20
-41.700000
 21
-41.658000
  0
LINE
 10
14.953000
 11
14.806000
 20
-41.658000
 21
-41.603000
  0
LINE
 10
14.806000
 11
14.665000
 20
-41.603000
 21
-41.535000
  0
LINE
 10
14.665000
 11
14.530000
 20
-41.535000
 21
-41.455000
  0
LINE
 10
14.530000
 11
14.403000
 20
-41.455000
 21
-41.362000
  0
LINE
 10
14.403000
 11
14.285000
 20
-41.362000
 21
-41.259000
  0
LINE
 10
14.285000
 11
14.176000
 20
-41.259000
 21
-41.145000
  0
LINE
 10
14.176000
 11
14.078000
 20
-41.145000
 21
-41.023000
  0
LINE
 10
14.078000
 11
13.992000
 20
-41.023000
 21
-40.892000
  0
LINE
 10
13.992000
 11
13.917000
 20
-40.892000
 21
-40.753000
  0
LINE
 10
13.917000
 11
13.856000
 20
-40.753000
 21
-40.609000
  0
LINE
 10
13.856000
 11
13.807000
 20
-40.609000
 21
-40.460000
  0
LINE
 10
13.807000
 11
13.772000
 20
-40.460000
 21
-40.306000
  0
LINE
 10
13.772000
 11
13.751000
 20
-40.306000
 21
-40.151000
  0
LINE
 10
13.751000
 11
13.744000
 20
-40.151000
 21
-39.994000
  0
LINE
 10
13.744000
 11
13.744000
 20
-9.006000
 21
-4.006000
  0
LINE
 10
13.744000
 11
13.751000
 20
-4.006000
 21
-3.849000
  0
LINE
 10
13.751000
 11
13.772000
 20
-3.849000
 21
-3.694000
  0
LINE
 10
13.772000
 11
13.807000
 20
-3.694000
 21
-3.540000
  0
LINE
 10
13.807000
 11
13.856000
 20
-3.540000
 21
-3.391000
  0
LINE
 10
13.856000
 11
13.917000
 20
-3.391000
 21
-3.247000
  0
LINE
 10
13.917000
 11
13.992000
 20
-3.247000
 21
-3.108000
  0
LINE
 10
13.992000
 11
14.078000
 20
-3.108000
 21
-2.977000
  0
LINE
 10
14.078000
 11
14.176000
 20
-2.977000
 21
-2.855000
  0
LINE
 10
14.176000
 11
14.285000
 20
-2.855000
 21
-2.741000
  0
LINE
 10
14.285000
 11
14.403000
 20
-2.741000
 21
-2.638000
  0
LINE
 10
14.403000
 11
14.530000
 20
-2.638000
 21
-2.545000
  0
LINE
 10
14.530000
 11
14.665000
 20
-2.545000
 21
-2.465000
  0
LINE
 10
14.665000
 11
14.806000
 20
-2.465000
 21
-2.397000
  0
LINE
 10
14.806000
 11
14.953000
 20
-2.397000
 21
-2.342000
  0
LINE
 10
14.953000
 11
15.105000
 20
-2.342000
 21
-2.300000
  0
LINE
 10
15.105000
 11
15.259000
 20
-2.300000
 21
-2.272000
  0
LINE
 10
15.259000
 11
15.415000
 20
-2.272000
 21
-2.258000
  0
LINE
 10
15.415000
 11
15.573000
 20
-2.258000
 21
-2.258000
  0
LINE
 10
15.573000
 11
15.729000
 20
-2.258000
 21
-2.272000
  0
LINE
 10
15.729000
 11
15.883000
 20
-2.272000
 21
-2.300000
  0
LINE
 10
15.883000
 11
16.035000
 20
-2.300000
 21
-2.342000
  0
LINE
 10
16.035000
 11
16.182000
 20
-2.342000
 21
-2.397000
  0
LINE
 10
16.182000
 11
16.323000
 20
-2.397000
 21
-2.465000
  0
LINE
 10
16.323000
 11
16.458000
 20
-2.465000
 21
-2.545000
  0
LINE
 10
16.458000
 11
16.585000
 20
-2.545000
 21
-2.638000
  0
LINE
 10
16.585000
 11
16.703000
 20
-2.638000
 21
-2.741000
  0
LINE
 10
16.703000
 11
16.812000
 20
-2.741000
 21
-2.855000
  0
LINE
 10
16.812000
 11
16.910000
 20
-2.855000
 21
-2.977000
  0
LINE
 10
16.910000
 11
16.996000
 20
-2.977000
 21
-3.108000
  0
LINE
 10
16.996000
 11
17.071000
 20
-3.108000
 21
-3.247000
  0
LINE
 10
17.071000
 11
17.132000
 20
-3.247000
 21
-3.391000
  0
LINE
 10
17.132000
 11
17.181000
 20
-3.391000
 21
-3.540000
  0
LINE
 10
17.181000
 11
17.216000
 20
-3.540000
 21
-3.694000
  0
LINE
 10
17.216000
 11
17.237000
 20
-3.694000
 21
-3.849000
  0
LINE
 10
17.237000
 11
17.244000
 20
-3.849000
 21
-4.006000
  0
LINE
 10
17.244000
 11
17.244000
 20
-4.006000
 21
-9.006000
  0
LINE
 10
17.244000
 11
17.237000
 20
-9.006000
 21
-9.163000
  0
LINE
 10
17.237000
 11
17.216000
 20
-9.163000
 21
-9.318000
  0
LINE
 10
17.216000
 11
17.181000
 20
-9.318000
 21
-9.472000
  0
LINE
 10
17.181000
 11
17.132000
 20
-9.472000
 21
-9.621000
  0
LINE
 10
17.132000
 11
17.071000
 20
-9.621000
 21
-9.765000
  0
LINE
 10
17.071000
 11
16.996000
 20
-9.765000
 21
-9.904000
  0
LINE
 10
16.996000
 11
16.910000
 20
-9.904000
 21
-10.035000
  0
LINE
 10
16.910000
 11
16.812000
 20
-10.035000
 21
-10.157000
  0
LINE
 10
16.812000
 11
16.703000
 20
-10.157000
 21
-10.271000
  0
LINE
 10
16.703000
 11
16.585000
 20
-10.271000
 21
-10.374000
  0
LINE
 10
16.585000
 11
16.458000
 20
-10.374000
 21
-10.467000
  0
LINE
 10
16.458000
 11
16.323000
 20
-10.467000
 21
-10.547000
  0
LINE
 10
16.323000
 11
16.182000
 20
-10.547000
 21
-10.615000
  0
LINE
 10
16.182000
 11
16.035000
 20
-10.615000
 21
-10.670000
  0
LINE
 10
16.035000
 11
15.883000
 20
-10.670000
 21
-10.712000
  0
LINE
 10
15.883000
 11
15.729000
 20
-10.712000
 21
-10.740000
  0
LINE
 10
15.729000
 11
15.573000
 20
-10.740000
 21
-10.754000
  0
LINE
 10
15.573000
 11
15.415000
 20
-10.754000
 21
-10.754000
  0
LINE
 10
15.415000
 11
15.259000
 20
-10.754000
 21
-10.740000
  0
LINE
 10
15.259000
 11
15.105000
 20
-10.740000
 21
-10.712000
  0
LINE
 10
15.105000
 11
14.953000
 20
-10.712000
 21
-10.670000
  0
LINE
 10
14.953000
 11
14.806000
 20
-10.670000
 21
-10.615000
  0
LINE
 10
14.806000
 11
14.665000
 20
-10.615000
 21
-10.547000
  0
LINE
 10
14.665000
 11
14.530000
 20
-10.547000
 21
-10.467000
  0
LINE
 10
14.530000
 11
14.403000
 20
-10.467000
 21
-10.374000
  0
LINE
 10
14.403000
 11
14.285000
 20
-10.374000
 21
-10.271000
  0
LINE
 10
14.285000
 11
14.176000
 20
-10.271000
 21
-10.157000
  0
LINE
 10
14.176000
 11
14.078000
 20
-10.157000
 21
-10.035000
  0
LINE
 10
14.078000
 11
13.992000
 20
-10.035000
 21
-9.904000
  0
LINE
 10
13.992000
 11
13.917000
 20
-9.904000
 21
-9.765000
  0
LINE
 10
13.917000
 11
13.856000
 20
-9.765000
 21
-9.621000
  0
LINE
 10
13.856000
 11
13.807000
 20
-9.621000
 21
-9.472000
  0
LINE
 10
13.807000
 11
13.772000
 20
-9.472000
 21
-9.318000
  0
LINE
 10
13.772000
 11
13.751000
 20
-9.318000
 21
-9.163000
  0
LINE
 10
13.751000
 11
13.744000
 20
-9.163000
 21
-9.006000
  0
LINE
 10
26.862000
 11
26.871000
 20
-40.750000
 21
-40.548000
  0
LINE
 10
26.871000
 11
26.898000
 20
-40.548000
 21
-40.348000
  0
LINE
 10
26.898000
 11
26.944000
 20
-40.348000
 21
-40.151000
  0
LINE
 10
26.944000
 11
27.005000
 20
-40.151000
 21
-39.959000
  0
LINE
 10
27.005000
 11
27.086000
 20
-39.959000
 21
-39.774000
  0
LINE
 10
27.086000
 11
27.180000
 20
-39.774000
 21
-39.596000
  0
LINE
 10
27.180000
 11
27.293000
 20
-39.596000
 21
-39.427000
  0
LINE
 10
27.293000
 11
27.418000
 20
-39.427000
 21
-39.270000
  0
LINE
 10
27.418000
 11
27.557000
 20
-39.270000
 21
-39.124000
  0
LINE
 10
27.557000
 11
27.709000
 20
-39.124000
 21
-38.991000
  0
LINE
 10
27.709000
 11
27.872000
 20
-38.991000
 21
-38.872000
  0
LINE
 10
27.872000
 11
28.046000
 20
-38.872000
 21
-38.769000
  0
LINE
 10
28.046000
 11
28.229000
 20
-38.769000
 21
-38.681000
  0
LINE
 10
28.229000
 11
28.418000
 20
-38.681000
 21
-38.610000
  0
LINE
 10
28.418000
 11
28.612000
 20
-38.610000
 21
-38.556000
  0
LINE
 10
28.612000
 11
28.810000
 20
-38.556000
 21
-38.520000
  0
LINE
 10
28.810000
 11
29.011000
 20
-38.520000
 21
-38.502000
  0
LINE
 10
29.011000
 11
29.214000
 20
-38.502000
 21
-38.502000
  0
LINE
 10
29.214000
 11
29.415000
 20
-38.502000
 21
-38.520000
  0
LINE
 10
29.415000
 11
29.613000
 20
-38.520000
 21
-38.556000
  0
LINE
 10
29.613000
 11
29.807000
 20
-38.556000
 21
-38.610000
  0
LINE
 10
29.807000
 11
29.996000
 20
-38.610000
 21
-38.681000
  0
LINE
 10
29.996000
 11
30.179000
 20
-38.681000
 21
-38.769000
  0
LINE
 10
30.179000
 11
30.353000
 20
-38.769000
 21
-38.872000
  0
LINE
 10
30.353000
 11
30.516000
 20
-38.872000
 21
-38.991000
  0
LINE
 10
30.516000
 11
30.667000
 20
-38.991000
 21
-39.124000
  0
LINE
 10
30.667000
 11
30.807000
 20
-39.124000
 21
-39.270000
  0
LINE
 10
30.807000
 11
30.932000
 20
-39.270000
 21
-39.427000
  0
LINE
 10
30.932000
 11
31.045000
 20
-39.427000
 21
-39.596000
  0
LINE
 10
31.045000
 11
31.139000
 20
-39.596000
 21
-39.774000
  0
LINE
 10
31.139000
 11
31.220000
 20
-39.774000
 21
-39.959000
  0
LINE
 10
31.220000
 11
31.281000
 20
-39.959000
 21
-40.151000
  0
LINE
 10
31.281000
 11
31.327000
 20
-40.151000
 21
-40.348000
  0
LINE
 10
31.327000
 11
31.353000
 20
-40.348000
 21
-40.548000
  0
LINE
 10
31.353000
 11
31.362000
 20
-40.548000
 21
-40.750000
  0
LINE
 10
31.362000
 11
31.353000
 20
-40.750000
 21
-40.952000
  0
LINE
 10
31.353000
 11
31.327000
 20
-40.952000
 21
-41.152000
  0
LINE
 10
31.327000
 11
31.281000
 20
-41.152000
 21
-41.349000
  0
LINE
 10
31.281000
 11
31.220000
 20
-41.349000
 21
-41.541000
  0
LINE
 10
31.220000
 11
31.139000
 20
-41.541000
 21
-41.726000
  0
LINE
 10
31.139000
 11
31.045000
 20
-41.726000
 21
-41.904000
  0
LINE
 10
31.045000
 11
30.932000
 20
-41.904000
 21
-42.073000
  0
LINE
 10
30.932000
 11
30.807000
 20
-42.073000
 21
-42.230000
  0
LINE
 10
30.807000
 11
30.667000
 20
-42.230000
 21
-42.376000
  0
LINE
 10
30.667000
 11
30.516000
 20
-42.376000
 21
-42.509000
  0
LINE
 10
30.516000
 11
30.353000
 20
-42.509000
 21
-42.628000
  0
LINE
 10
30.353000
 11
30.179000
 20
-42.628000
 21
-42.731000
  0
LINE
 10
30.179000
 11
29.996000
 20
-42.731000
 21
-42.819000
  0
LINE
 10
29.996000
 11
29.807000
 20
-42.819000
 21
-42.890000
  0
LINE
 10
29.807000
 11
29.613000
 20
-42.890000
 21
-42.944000
  0
LINE
 10
29.613000
 11
29.415000
 20
-42.944000
 21
-42.980000
  0
LINE
 10
29.415000
 11
29.214000
 20
-42.980000
 21
-42.998000
  0
LINE
 10
29.214000
 11
29.011000
 20
-42.998000
 21
-42.998000
  0
LINE
 10
29.011000
 11
28.810000
 20
-42.998000
 21
-42.980000
  0
LINE
 10
28.810000
 11
28.612000
 20
-42.980000
 21
-42.944000
  0
LINE
 10
28.612000
 11
28.418000
 20
-42.944000
 21
-42.890000
  0
LINE
 10
28.418000
 11
28.229000
 20
-42.890000
 21
-42.819000
  0
LINE
 10
28.229000
 11
28.046000
 20
-42.819000
 21
-42.731000
  0
LINE
 10
28.046000
 11
27.872000
 20
-42.731000
 21
-42.628000
  0
LINE
 10
27.872000
 11
27.709000
 20
-42.628000
 21
-42.509000
  0
LINE
 10
27.709000
 11
27.557000
 20
-42.509000
 21
-42.376000
  0
LINE
 10
27.557000
 11
27.418000
 20
-42.376000
 21
-42.230000
  0
LINE
 10
27.418000
 11
27.293000
 20
-42.230000
 21
-42.073000
  0
LINE
 10
27.293000
 11
27.180000
 20
-42.073000
 21
-41.904000
  0
LINE
 10
27.180000
 11
27.086000
 20
-41.904000
 21
-41.726000
  0
LINE
 10
27.086000
 11
27.005000
 20
-41.726000
 21
-41.541000
  0
LINE
 10
27.005000
 11
26.944000
 20
-41.541000
 21
-41.349000
  0
LINE
 10
26.944000
 11
26.898000
 20
-41.349000
 21
-41.152000
  0
LINE
 10
26.898000
 11
26.871000
 20
-41.152000
 21
-40.952000
  0
LINE
 10
26.871000
 11
26.862000
 20
-40.952000
 21
-40.750000
  0
LINE
 10
26.862000
 11
26.871000
 20
40.750000
 21
40.952000
  0
LINE
 10
26.871000
 11
26.898000
 20
40.952000
 21
41.152000
  0
LINE
 10
26.898000
 11
26.944000
 20
41.152000
 21
41.349000
  0
LINE
 10
26.944000
 11
27.005000
 20
41.349000
 21
41.541000
  0
LINE
 10
27.005000
 11
27.086000
 20
41.541000
 21
41.726000
  0
LINE
 10
27.086000
 11
27.180000
 20
41.726000
 21
41.904000
  0
LINE
 10
27.180000
 11
27.293000
 20
41.904000
 21
42.073000
  0
LINE
 10
27.293000
 11
27.418000
 20
42.073000
 21
42.230000
  0
LINE
 10
27.418000
 11
27.557000
 20
42.230000
 21
42.376000
  0
LINE
 10
27.557000
 11
27.709000
 20
42.376000
 21
42.509000
  0
LINE
 10
27.709000
 11
27.872000
 20
42.509000
 21
42.628000
  0
LINE
 10
27.872000
 11
28.046000
 20
42.628000
 21
42.731000
  0
LINE
 10
28.046000
 11
28.229000
 20
42.731000
 21
42.819000
  0
LINE
 10
28.229000
 11
28.418000
 20
42.819000
 21
42.890000
  0
LINE
 10
28.418000
 11
28.612000
 20
42.890000
 21
42.944000
  0
LINE
 10
28.612000
 11
28.810000
 20
42.944000
 21
42.980000
  0
LINE
 10
28.810000
 11
29.011000
 20
42.980000
 21
42.998000
  0
LINE
 10
29.011000
 11
29.214000
 20
42.998000
 21
42.998000
  0
LINE
 10
29.214000
 11
29.415000
 20
42.998000
 21
42.980000
  0
LINE
 10
29.415000
 11
29.613000
 20
42.980000
 21
42.944000
  0
LINE
 10
29.613000
 11
29.807000
 20
42.944000
 21
42.890000
  0
LINE
 10
29.807000
 11
29.996000
 20
42.890000
 21
42.819000
  0
LINE
 10
29.996000
 11
30.179000
 20
42.819000
 21
42.731000
  0
LINE
 10
30.179000
 11
30.353000
 20
42.731000
 21
42.628000
  0
LINE
 10
30.353000
 11
30.516000
 20
42.628000
 21
42.509000
  0
LINE
 10
30.516000
 11
30.667000
 20
42.509000
 21
42.376000
  0
LINE
 10
30.667000
 11
30.807000
 20
42.376000
 21
42.230000
  0
LINE
 10
30.807000
 11
30.932000
 20
42.230000
 21
42.073000
  0
LINE
 10
30.932000
 11
31.045000
 20
42.073000
 21
41.904000
  0
LINE
 10
31.045000
 11
31.139000
 20
41.904000
 21
41.726000
  0
LINE
 10
31.139000
 11
31.220000
 20
41.726000
 21
41.541000
  0
LINE
 10
31.220000
 11
31.281000
 20
41.541000
 21
41.349000
  0
LINE
 10
31.281000
 11
31.327000
 20
41.349000
 21
41.152000
  0
LINE
 10
31.327000
 11
31.353000
 20
41.152000
 21
40.952000
  0
LINE
 10
31.353000
 11
31.362000
 20
40.952000
 21
40.750000
  0
LINE
 10
31.362000
 11
31.353000
 20
40.750000
 21
40.548000
  0
LINE
 10
31.353000
 11
31.327000
 20
40.548000
 21
40.348000
  0
LINE
 10
31.327000
 11
31.281000
 20
40.348000
 21
40.151000
  0
LINE
 10
31.281000
 11
31.220000
 20
40.151000
 21
39.959000
  0
LINE
 10
31.220000
 11
31.139000
 20
39.959000
 21
39.774000
  0
LINE
 10
31.139000
 11
31.045000
 20
39.774000
 21
39.596000
  0
LINE
 10
31.045000
 11
30.932000
 20
39.596000
 21
39.427000
  0
LINE
 10
30.932000
 11
30.807000
 20
39.427000
 21
39.270000
  0
LINE
 10
30.807000
 11
30.667000
 20
39.270000
 21
39.124000
  0
LINE
 10
30.667000
 11
30.516000
 20
39.124000
 21
38.991000
  0
LINE
 10
30.516000
 11
30.353000
 20
38.991000
 21
38.872000
  0
LINE
 10
30.353000
 11
30.179000
 20
38.872000
 21
38.769000
  0
LINE
 10
30.179000
 11
29.996000
 20
38.769000
 21
38.681000
  0
LINE
 10
29.996000
 11
29.807000
 20
38.681000
 21
38.610000
  0
LINE
 10
29.807000
 11
29.613000
 20
38.610000
 21
38.556000
  0
LINE
 10
29.613000
 11
29.415000
 20
38.556000
 21
38.520000
  0
LINE
 10
29.415000
 11
29.214000
 20
38.520000
 21
38.502000
  0
LINE
 10
29.214000
 11
29.011000
 20
38.502000
 21
38.502000
  0
LINE
 10
29.011000
 11
28.810000
 20
38.502000
 21
38.520000
  0
LINE
 10
28.810000
 11
28.612000
 20
38.520000
 21
38.556000
  0
LINE
 10
28.612000
 11
28.418000
 20
38.556000
 21
38.610000
  0
LINE
 10
28.418000
 11
28.229000
 20
38.610000
 21
38.681000
  0
LINE
 10
28.229000
 11
28.046000
 20
38.681000
 21
38.769000
  0
LINE
 10
28.046000
 11
27.872000
 20
38.769000
 21
38.872000
  0
LINE
 10
27.872000
 11
27.709000
 20
38.872000
 21
38.991000
  0
LINE
 10
27.709000
 11
27.557000
 20
38.991000
 21
39.124000
  0
LINE
 10
27.557000
 11
27.418000
 20
39.124000
 21
39.270000
  0
LINE
 10
27.418000
 11
27.293000
 20
39.270000
 21
39.427000
  0
LINE
 10
27.293000
 11
27.180000
 20
39.427000
 21
39.596000
  0
LINE
 10
27.180000
 11
27.086000
 20
39.596000
 21
39.774000
  0
LINE
 10
27.086000
 11
27.005000
 20
39.774000
 21
39.959000
  0
LINE
 10
27.005000
 11
26.944000
 20
39.959000
 21
40.151000
  0
LINE
 10
26.944000
 11
26.898000
 20
40.151000
 21
40.348000
  0
LINE
 10
26.898000
 11
26.871000
 20
40.348000
 21
40.548000
  0
LINE
 10
26.871000
 11
26.862000
 20
40.548000
 21
40.750000
  0
LINE
 10
39.500000
 11
39.509000
 20
-40.750000
 21
-40.548000
  0
LINE
 10
39.509000
 11
39.536000
 20
-40.548000
 21
-40.348000
  0
LINE
 10
39.536000
 11
39.581000
 20
-40.348000
 21
-40.151000
  0
LINE
 10
39.581000
 11
39.643000
 20
-40.151000
 21
-39.959000
  0
LINE
 10
39.643000
 11
39.723000
 20
-39.959000
 21
-39.774000
  0
LINE
 10
39.723000
 11
39.818000
 20
-39.774000
 21
-39.596000
  0
LINE
 10
39.818000
 11
39.930000
 20
-39.596000
 21
-39.427000
  0
LINE
 10
39.930000
 11
40.056000
 20
-39.427000
 21
-39.270000
  0
LINE
 10
40.056000
 11
40.195000
 20
-39.270000
 21
-39.124000
  0
LINE
 10
40.195000
 11
40.347000
 20
-39.124000
 21
-38.991000
  0
LINE
 10
40.347000
 11
40.510000
 20
-38.991000
 21
-38.872000
  0
LINE
 10
40.510000
 11
40.684000
 20
-38.872000
 21
-38.769000
  0
LINE
 10
40.684000
 11
40.866000
 20
-38.769000
 21
-38.681000
  0
LINE
 10
40.866000
 11
41.055000
 20
-38.681000
 21
-38.610000
  0
LINE
 10
41.055000
 11
41.249000
 20
-38.610000
 21
-38.556000
  0
LINE
 10
41.249000
 11
41.448000
 20
-38.556000
 21
-38.520000
  0
LINE
 10
41.448000
 11
41.649000
 20
-38.520000
 21
-38.502000
  0
LINE
 10
41.649000
 11
41.851000
 20
-38.502000
 21
-38.502000
  0
LINE
 10
41.851000
 11
42.052000
 20
-38.502000
 21
-38.520000
  0
LINE
 10
42.052000
 11
42.251000
 20
-38.520000
 21
-38.556000
  0
LINE
 10
42.251000
 11
42.445000
 20
-38.556000
 21
-38.610000
  0
LINE
 10
42.445000
 11
42.634000
 20
-38.610000
 21
-38.681000
  0
LINE
 10
42.634000
 11
42.816000
 20
-38.681000
 21
-38.769000
  0
LINE
 10
42.816000
 11
42.990000
 20
-38.769000
 21
-38.872000
  0
LINE
 10
42.990000
 11
43.153000
 20
-38.872000
 21
-38.991000
  0
LINE
 10
43.153000
 11
43.305000
 20
-38.991000
 21
-39.124000
  0
LINE
 10
43.305000
 11
43.444000
 20
-39.124000
 21
-39.270000
  0
LINE
 10
43.444000
 11
43.570000
 20
-39.270000
 21
-39.427000
  0
LINE
 10
43.570000
 11
43.682000
 20
-39.427000
 21
-39.596000
  0
LINE
 10
43.682000
 11
43.777000
 20
-39.596000
 21
-39.774000
  0
LINE
 10
43.777000
 11
43.857000
 20
-39.774000
 21
-39.959000
  0
LINE
 10
43.857000
 11
43.919000
 20
-39.959000
 21
-40.151000
  0
LINE
 10
43.919000
 11
43.964000
 20
-40.151000
 21
-40.348000
  0
LINE
 10
43.964000
 11
43.991000
 20
-40.348000
 21
-40.548000
  0
LINE
 10
43.991000
 11
44.000000
 20
-40.548000
 21
-40.750000
  0
LINE
 10
44.000000
 11
43.991000
 20
-40.750000
 21
-40.952000
  0
LINE
 10
43.991000
 11
43.964000
 20
-40.952000
 21
-41.152000
  0
LINE
 10
43.964000
 11
43.919000
 20
-41.152000
 21
-41.349000
  0
LINE
 10
43.919000
 11
43.857000
 20
-41.349000
 21
-41.541000
  0
LINE
 10
43.857000
 11
43.777000
 20
-41.541000
 21
-41.726000
  0
LINE
 10
43.777000
 11
43.682000
 20
-41.726000
 21
-41.904000
  0
LINE
 10
43.682000
 11
43.570000
 20
-41.904000
 21
-42.073000
  0
LINE
 10
43.570000
 11
43.444000
 20
-42.073000
 21
-42.230000
  0
LINE
 10
43.444000
 11
43.305000
 20
-42.230000
 21
-42.376000
  0
LINE
 10
43.305000
 11
43.153000
 20
-42.376000
 21
-42.509000
  0
LINE
 10
43.153000
 11
42.990000
 20
-42.509000
 21
-42.628000
  0
LINE
 10
42.990000
 11
42.816000
 20
-42.628000
 21
-42.731000
  0
LINE
 10
42.816000
 11
42.634000
 20
-42.731000
 21
-42.819000
  0
LINE
 10
42.634000
 11
42.445000
 20
-42.819000
 21
-42.890000
  0
LINE
 10
42.445000
 11
42.251000
 20
-42.890000
 21
-42.944000
  0
LINE
 10
42.251000
 11
42.052000
 20
-42.944000
 21
-42.980000
  0
LINE
 10
42.052000
 11
41.851000
 20
-42.980000
 21
-42.998000
  0
LINE
 10
41.851000
 11
41.649000
 20
-42.998000
 21
-42.998000
  0
LINE
 10
41.649000
 11
41.448000
 20
-42.998000
 21
-42.980000
  0
LINE
 10
41.448000
 11
41.249000
 20
-42.980000
 21
-42.944000
  0
LINE
 10
41.249000
 11
41.055000
 20
-42.944000
 21
-42.890000
  0
LINE
 10
41.055000
 11
40.866000
 20
-42.890000
 21
-42.819000
  0
LINE
 10
40.866000
 11
40.684000
 20
-42.819000
 21
-42.731000
  0
LINE
 10
40.684000
 11
40.510000
 20
-42.731000
 21
-42.628000
  0
LINE
 10
40.510000
 11
40.347000
 20
-42.628000
 21
-42.509000
  0
LINE
 10
40.347000
 11
40.195000
 20
-42.509000
 21
-42.376000
  0
LINE
 10
40.195000
 11
40.056000
 20
-42.376000
 21
-42.230000
  0
LINE
 10
40.056000
 11
39.930000
 20
-42.230000
 21
-42.073000
  0
LINE
 10
39.930000
 11
39.818000
 20
-42.073000
 21
-41.904000
  0
LINE
 10
39.818000
 11
39.723000
 20
-41.904000
 21
-41.726000
  0
LINE
 10
39.723000
 11
39.643000
 20
-41.726000
 21
-41.541000
  0
LINE
 10
39.643000
 11
39.581000
 20
-41.541000
 21
-41.349000
  0
LINE
 10
39.581000
 11
39.536000
 20
-41.349000
 21
-41.152000
  0
LINE
 10
39.536000
 11
39.509000
 20
-41.152000
 21
-40.952000
  0
LINE
 10
39.509000
 11
39.500000
 20
-40.952000
 21
-40.750000
  0
LINE
 10
39.500000
 11
39.509000
 20
40.750000
 21
40.952000
  0
LINE
 10
39.509000
 11
39.536000
 20
40.952000
 21
41.152000
  0
LINE
 10
39.536000
 11
39.581000
 20
41.152000
 21
41.349000
  0
LINE
 10
39.581000
 11
39.643000
 20
41.349000
 21
41.541000
  0
LINE
 10
39.643000
 11
39.723000
 20
41.541000
 21
41.726000
  0
LINE
 10
39.723000
 11
39.818000
 20
41.726000
 21
41.904000
  0
LINE
 10
39.818000
 11
39.930000
 20
41.904000
 21
42.073000
  0
LINE
 10
39.930000
 11
40.056000
 20
42.073000
 21
42.230000
  0
LINE
 10
40.056000
 11
40.195000
 20
42.230000
 21
42.376000
  0
LINE
 10
40.195000
 11
40.347000
 20
42.376000
 21
42.509000
  0
LINE
 10
40.347000
 11
40.510000
 20
42.509000
 21
42.628000
  0
LINE
 10
40.510000
 11
40.684000
 20
42.628000
 21
42.731000
  0
LINE
 10
40.684000
 11
40.866000
 20
42.731000
 21
42.819000
  0
LINE
 10
40.866000
 11
41.055000
 20
42.819000
 21
42.890000
  0
LINE
 10
41.055000
 11
41.249000
 20
42.890000
 21
42.944000
  0
LINE
 10
41.249000
 11
41.448000
 20
42.944000
 21
42.980000
  0
LINE
 10
41.448000
 11
41.649000
 20
42.980000
 21
42.998000
  0
LINE
 10
41.649000
 11
41.851000
 20
42.998000
 21
42.998000
  0
LINE
 10
41.851000
 11
42.052000
 20
42.998000
 21
42.980000
  0
LINE
 10
42.052000
 11
42.251000
 20
42.980000
 21
42.944000
  0
LINE
 10
42.251000
 11
42.445000
 20
42.944000
 21
42.890000
  0
LINE
 10
42.445000
 11
42.634000
 20
42.890000
 21
42.819000
  0
LINE
 10
42.634000
 11
42.816000
 20
42.819000
 21
42.731000
  0
LINE
 10
42.816000
 11
42.990000
 20
42.731000
 21
42.628000
  0
LINE
 10
42.990000
 11
43.153000
 20
42.628000
 21
42.509000
  0
LINE
 10
43.153000
 11
43.305000
 20
42.509000
 21
42.376000
  0
LINE
 10
43.305000
 11
43.444000
 20
42.376000
 21
42.230000
  0
LINE
 10
43.444000
 11
43.570000
 20
42.230000
 21
42.073000
  0
LINE
 10
43.570000
 11
43.682000
 20
42.073000
 21
41.904000
  0
LINE
 10
43.682000
 11
43.777000
 20
41.904000
 21
41.726000
  0
LINE
 10
43.777000
 11
43.857000
 20
41.726000
 21
41.541000
  0
LINE
 10
43.857000
 11
43.919000
 20
41.541000
 21
41.349000
  0
LINE
 10
43.919000
 11
43.964000
 20
41.349000
 21
41.152000
  0
LINE
 10
43.964000
 11
43.991000
 20
41.152000
 21
40.952000
  0
LINE
 10
43.991000
 11
44.000000
 20
40.952000
 21
40.750000
  0
LINE
 10
44.000000
 11
43.991000
 20
40.750000
 21
40.548000
  0
LINE
 10
43.991000
 11
43.964000
 20
40.548000
 21
40.348000
  0
LINE
 10
43.964000
 11
43.919000
 20
40.348000
 21
40.151000
  0
LINE
 10
43.919000
 11
43.857000
 20
40.151000
 21
39.959000
  0
LINE
 10
43.857000
 11
43.777000
 20
39.959000
 21
39.774000
  0
LINE
 10
43.777000
 11
43.682000
 20
39.774000
 21
39.596000
  0
LINE
 10
43.682000
 11
43.570000
 20
39.596000
 21
39.427000
  0
LINE
 10
43.570000
 11
43.444000
 20
39.427000
 21
39.270000
  0
LINE
 10
43.444000
 11
43.305000
 20
39.270000
 21
39.124000
  0
LINE
 10
43.305000
 11
43.153000
 20
39.124000
 21
38.991000
  0
LINE
 10
43.153000
 11
42.990000
 20
38.991000
 21
38.872000
  0
LINE
 10
42.990000
 11
42.816000
 20
38.872000
 21
38.769000
  0
LINE
 10
42.816000
 11
42.634000
 20
38.769000
 21
38.681000
  0
LINE
 10
42.634000
 11
42.445000
 20
38.681000
 21
38.610000
  0
LINE
 10
42.445000
 11
42.251000
 20
38.610000
 21
38.556000
  0
LINE
 10
42.251000
 11
42.052000
 20
38.556000
 21
38.520000
  0
LINE
 10
42.052000
 11
41.851000
 20
38.520000
 21
38.502000
  0
LINE
 10
41.851000
 11
41.649000
 20
38.502000
 21
38.502000
  0
LINE
 10
41.649000
 11
41.448000
 20
38.502000
 21
38.520000
  0
LINE
 10
41.448000
 11
41.249000
 20
38.520000
 21
38.556000
  0
LINE
 10
41.249000
 11
41.055000
 20
38.556000
 21
38.610000
  0
LINE
 10
41.055000
 11
40.866000
 20
38.610000
 21
38.681000
  0
LINE
 10
40.866000
 11
40.684000
 20
38.681000
 21
38.769000
  0
LINE
 10
40.684000
 11
40.510000
 20
38.769000
 21
38.872000
  0
LINE
 10
40.510000
 11
40.347000
 20
38.872000
 21
38.991000
  0
LINE
 10
40.347000
 11
40.195000
 20
38.991000
 21
39.124000
  0
LINE
 10
40.195000
 11
40.056000
 20
39.124000
 21
39.270000
  0
LINE
 10
40.056000
 11
39.930000
 20
39.270000
 21
39.427000
  0
LINE
 10
39.930000
 11
39.818000
 20
39.427000
 21
39.596000
  0
LINE
 10
39.818000
 11
39.723000
 20
39.596000
 21
39.774000
  0
LINE
 10
39.723000
 11
39.643000
 20
39.774000
 21
39.959000
  0
LINE
 10
39.643000
 11
39.581000
 20
39.959000
 21
40.151000
  0
LINE
 10
39.581000
 11
39.536000
 20
40.151000
 21
40.348000
  0
LINE
 10
39.536000
 11
39.509000
 20
40.348000
 21
40.548000
  0
LINE
 10
39.509000
 11
39.500000
 20
40.548000
 21
40.750000
  0
ENDSEC
  0
EOF
