  0
SECTION
  2
ENTITIES
  0
LINE
 10
-22.500000
 11
-22.500000
 20
3.000000
 21
15.750000
  0
LINE
 10
-22.500000
 11
-16.000000
 20
15.750000
 21
15.750000
  0
LINE
 10
-16.000000
 11
-16.000000
 20
15.750000
 21
14.500000
  0
LINE
 10
-16.000000
 11
-11.000000
 20
14.500000
 21
14.500000
  0
LINE
 10
-11.000000
 11
-11.000000
 20
14.500000
 21
23.000000
  0
LINE
 10
-11.000000
 11
-16.000000
 20
23.000000
 21
23.000000
  0
LINE
 10
-16.000000
 11
-16.000000
 20
23.000000
 21
21.750000
  0
LINE
 10
-16.000000
 11
-22.500000
 20
21.750000
 21
21.750000
  0
LINE
 10
-22.500000
 11
-22.500000
 20
21.750000
 21
45.000000
  0
LINE
 10
-22.500000
 11
22.500000
 20
45.000000
 21
45.000000
  0
LINE
 10
22.500000
 11
22.500000
 20
45.000000
 21
21.750000
  0
LINE
 10
22.500000
 11
16.000000
 20
21.750000
 21
21.750000
  0
LINE
 10
16.000000
 11
16.000000
 20
21.750000
 21
23.000000
  0
LINE
 10
16.000000
 11
11.000000
 20
23.000000
 21
23.000000
  0
LINE
 10
11.000000
 11
11.000000
 20
23.000000
 21
14.500000
  0
LINE
 10
11.000000
 11
16.000000
 20
14.500000
 21
14.500000
  0
LINE
 10
16.000000
 11
16.000000
 20
14.500000
 21
15.750000
  0
LINE
 10
16.000000
 11
22.500000
 20
15.750000
 21
15.750000
  0
LINE
 10
22.500000
 11
22.500000
 20
15.750000
 21
3.000000
  0
LINE
 10
22.500000
 11
-22.500000
 20
3.000000
 21
3.000000
  0
LINE
 10
-19.750000
 11
-19.091000
 20
8.000000
 21
9.591000
  0
LINE
 10
-19.091000
 11
-17.500000
 20
9.591000
 21
10.250000
  0
LINE
 10
-17.500000
 11
-15.909000
 20
10.250000
 21
9.591000
  0
LINE
 10
-15.909000
 11
-15.250000
 20
9.591000
 21
8.000000
  0
LINE
 10
-15.250000
 11
-15.909000
 20
8.000000
 21
6.409000
  0
LINE
 10
-15.909000
 11
-17.500000
 20
6.409000
 21
5.750000
  0
LINE
 10
-17.500000
 11
-19.091000
 20
5.750000
 21
6.409000
  0
LINE
 10
-19.091000
 11
-19.750000
 20
6.409000
 21
8.000000
  0
LINE
 10
-19.750000
 11
-19.091000
 20
40.000000
 21
41.591000
  0
LINE
 10
-19.091000
 11
-17.500000
 20
41.591000
 21
42.250000
  0
LINE
 10
-17.500000
 11
-15.909000
 20
42.250000
 21
41.591000
  0
LINE
 10
-15.909000
 11
-15.250000
 20
41.591000
 21
40.000000
  0
LINE
 10
-15.250000
 11
-15.909000
 20
40.000000
 21
38.409000
  0
LINE
 10
-15.909000
 11
-17.500000
 20
38.409000
 21
37.750000
  0
LINE
 10
-17.500000
 11
-19.091000
 20
37.750000
 21
38.409000
  0
LINE
 10
-19.091000
 11
-19.750000
 20
38.409000
 21
40.000000
  0
LINE
 10
-6.477000
 11
-6.477000
 20
14.524000
 21
16.476000
  0
LINE
 10
-6.477000
 11
-5.901000
 20
16.476000
 21
18.342000
  0
LINE
 10
-5.901000
 11
-4.801000
 20
18.342000
 21
19.955000
  0
LINE
 10
-4.801000
 11
-3.275000
 20
19.955000
 21
21.172000
  0
LINE
 10
-3.275000
 11
-1.458000
 20
21.172000
 21
21.886000
  0
LINE
 10
-1.458000
 11
0.489000
 20
21.886000
 21
22.032000
  0
LINE
 10
0.489000
 11
2.393000
 20
22.032000
 21
21.597000
  0
LINE
 10
2.393000
 11
4.084000
 20
21.597000
 21
20.621000
  0
LINE
 10
4.084000
 11
5.412000
 20
20.621000
 21
19.190000
  0
LINE
 10
5.412000
 11
6.259000
 20
19.190000
 21
17.431000
  0
LINE
 10
6.259000
 11
6.550000
 20
17.431000
 21
15.500000
  0
LINE
 10
6.550000
 11
6.259000
 20
15.500000
 21
13.569000
  0
LINE
 10
6.259000
 11
5.412000
 20
13.569000
 21
11.810000
  0
LINE
 10
5.412000
 11
4.084000
 20
11.810000
 21
10.379000
  0
LINE
 10
4.084000
 11
2.393000
 20
10.379000
 21
9.403000
  0
LINE
 10
2.393000
 11
0.489000
 20
9.403000
 21
8.968000
  0
LINE
 10
0.489000
 11
-1.458000
 20
8.968000
 21
9.114000
  0
LINE
 10
-1.458000
 11
-3.275000
 20
9.114000
 21
9.828000
  0
LINE
 10
-3.275000
 11
-4.801000
 20
9.828000
 21
11.045000
  0
LINE
 10
-4.801000
 11
-5.901000
 20
11.045000
 21
12.658000
  0
LINE
 10
-5.901000
 11
-6.477000
 20
12.658000
 21
14.524000
  0
LINE
 10
-2.250000
 11
-2.250000
 20
25.550000
 21
40.550000
  0
LINE
 10
-2.250000
 11
-1.591000
 20
40.550000
 21
42.141000
  0
LINE
 10
-1.591000
 11
0.000000
 20
42.141000
 21
42.800000
  0
LINE
 10
0.000000
 11
1.591000
 20
42.800000
 21
42.141000
  0
LINE
 10
1.591000
 11
2.250000
 20
42.141000
 21
40.550000
  0
LINE
 10
2.250000
 11
2.250000
 20
40.550000
 21
25.550000
  0
LINE
 10
2.250000
 11
1.591000
 20
25.550000
 21
23.959000
  0
LINE
 10
1.591000
 11
0.000000
 20
23.959000
 21
23.300000
  0
LINE
 10
0.000000
 11
-1.591000
 20
23.300000
 21
23.959000
  0
LINE
 10
-1.591000
 11
-2.250000
 20
23.959000
 21
25.550000
  0
LINE
 10
15.250000
 11
15.909000
 20
8.000000
 21
9.591000
  0
LINE
 10
15.909000
 11
17.500000
 20
9.591000
 21
10.250000
  0
LINE
 10
17.500000
 11
19.091000
 20
10.250000
 21
9.591000
  0
LINE
 10
19.091000
 11
19.750000
 20
9.591000
 21
8.000000
  0
LINE
 10
19.750000
 11
19.091000
 20
8.000000
 21
6.409000
  0
LINE
 10
19.091000
 11
17.500000
 20
6.409000
 21
5.750000
  0
LINE
 10
17.500000
 11
15.909000
 20
5.750000
 21
6.409000
  0
LINE
 10
15.909000
 11
15.250000
 20
6.409000
 21
8.000000
  0
LINE
 10
15.250000
 11
15.909000
 20
40.000000
 21
41.591000
  0
LINE
 10
15.909000
 11
17.500000
 20
41.591000
 21
42.250000
  0
LINE
 10
17.500000
 11
19.091000
 20
42.250000
 21
41.591000
  0
LINE
 10
19.091000
 11
19.750000
 20
41.591000
 21
40.000000
  0
LINE
 10
19.750000
 11
19.091000
 20
40.000000
 21
38.409000
  0
LINE
 10
19.091000
 11
17.500000
 20
38.409000
 21
37.750000
  0
LINE
 10
17.500000
 11
15.909000
 20
37.750000
 21
38.409000
  0
LINE
 10
15.909000
 11
15.250000
 20
38.409000
 21
40.000000
  0
ENDSEC
  0
EOF
