  0
SECTION
  2
ENTITIES
  0
LINE
 10
-20.000000
 11
-20.000000
 20
3.000000
 21
17.850000
  0
LINE
 10
-20.000000
 11
-13.500000
 20
17.850000
 21
17.850000
  0
LINE
 10
-13.500000
 11
-13.500000
 20
17.850000
 21
16.100000
  0
LINE
 10
-13.500000
 11
-8.500000
 20
16.100000
 21
16.100000
  0
LINE
 10
-8.500000
 11
-8.500000
 20
16.100000
 21
26.100000
  0
LINE
 10
-8.500000
 11
-13.500000
 20
26.100000
 21
26.100000
  0
LINE
 10
-13.500000
 11
-13.500000
 20
26.100000
 21
24.350000
  0
LINE
 10
-13.500000
 11
-20.000000
 20
24.350000
 21
24.350000
  0
LINE
 10
-20.000000
 11
-20.000000
 20
24.350000
 21
45.000000
  0
LINE
 10
-20.000000
 11
20.000000
 20
45.000000
 21
45.000000
  0
LINE
 10
20.000000
 11
20.000000
 20
45.000000
 21
24.350000
  0
LINE
 10
20.000000
 11
13.500000
 20
24.350000
 21
24.350000
  0
LINE
 10
13.500000
 11
13.500000
 20
24.350000
 21
26.100000
  0
LINE
 10
13.500000
 11
8.500000
 20
26.100000
 21
26.100000
  0
LINE
 10
8.500000
 11
8.500000
 20
26.100000
 21
16.100000
  0
LINE
 10
8.500000
 11
13.500000
 20
16.100000
 21
16.100000
  0
LINE
 10
13.500000
 11
13.500000
 20
16.100000
 21
17.850000
  0
LINE
 10
13.500000
 11
20.000000
 20
17.850000
 21
17.850000
  0
LINE
 10
20.000000
 11
20.000000
 20
17.850000
 21
3.000000
  0
LINE
 10
20.000000
 11
-20.000000
 20
3.000000
 21
3.000000
  0
LINE
 10
-18.500000
 11
-18.486000
 20
8.000000
 21
8.314000
  0
LINE
 10
-18.486000
 11
-18.444000
 20
8.314000
 21
8.625000
  0
LINE
 10
-18.444000
 11
-18.374000
 20
8.625000
 21
8.931000
  0
LINE
 10
-18.374000
 11
-18.277000
 20
8.931000
 21
9.230000
  0
LINE
 10
-18.277000
 11
-18.153000
 20
9.230000
 21
9.519000
  0
LINE
 10
-18.153000
 11
-18.005000
 20
9.519000
 21
9.795000
  0
LINE
 10
-18.005000
 11
-17.832000
 20
9.795000
 21
10.057000
  0
LINE
 10
-17.832000
 11
-17.636000
 20
10.057000
 21
10.303000
  0
LINE
 10
-17.636000
 11
-17.419000
 20
10.303000
 21
10.530000
  0
LINE
 10
-17.419000
 11
-17.182000
 20
10.530000
 21
10.736000
  0
LINE
 10
-17.182000
 11
-16.928000
 20
10.736000
 21
10.921000
  0
LINE
 10
-16.928000
 11
-16.659000
 20
10.921000
 21
11.082000
  0
LINE
 10
-16.659000
 11
-16.376000
 20
11.082000
 21
11.218000
  0
LINE
 10
-16.376000
 11
-16.082000
 20
11.218000
 21
11.329000
  0
LINE
 10
-16.082000
 11
-15.779000
 20
11.329000
 21
11.412000
  0
LINE
 10
-15.779000
 11
-15.470000
 20
11.412000
 21
11.468000
  0
LINE
 10
-15.470000
 11
-15.157000
 20
11.468000
 21
11.496000
  0
LINE
 10
-15.157000
 11
-14.843000
 20
11.496000
 21
11.496000
  0
LINE
 10
-14.843000
 11
-14.530000
 20
11.496000
 21
11.468000
  0
LINE
 10
-14.530000
 11
-14.221000
 20
11.468000
 21
11.412000
  0
LINE
 10
-14.221000
 11
-13.918000
 20
11.412000
 21
11.329000
  0
LINE
 10
-13.918000
 11
-13.624000
 20
11.329000
 21
11.218000
  0
LINE
 10
-13.624000
 11
-13.341000
 20
11.218000
 21
11.082000
  0
LINE
 10
-13.341000
 11
-13.072000
 20
11.082000
 21
10.921000
  0
LINE
 10
-13.072000
 11
-12.818000
 20
10.921000
 21
10.736000
  0
LINE
 10
-12.818000
 11
-12.581000
 20
10.736000
 21
10.530000
  0
LINE
 10
-12.581000
 11
-12.364000
 20
10.530000
 21
10.303000
  0
LINE
 10
-12.364000
 11
-12.168000
 20
10.303000
 21
10.057000
  0
LINE
 10
-12.168000
 11
-11.995000
 20
10.057000
 21
9.795000
  0
LINE
 10
-11.995000
 11
-11.847000
 20
9.795000
 21
9.519000
  0
LINE
 10
-11.847000
 11
-11.723000
 20
9.519000
 21
9.230000
  0
LINE
 10
-11.723000
 11
-11.626000
 20
9.230000
 21
8.931000
  0
LINE
 10
-11.626000
 11
-11.556000
 20
8.931000
 21
8.625000
  0
LINE
 10
-11.556000
 11
-11.514000
 20
8.625000
 21
8.314000
  0
LINE
 10
-11.514000
 11
-11.500000
 20
8.314000
 21
8.000000
  0
LINE
 10
-11.500000
 11
-11.514000
 20
8.000000
 21
7.686000
  0
LINE
 10
-11.514000
 11
-11.556000
 20
7.686000
 21
7.375000
  0
LINE
 10
-11.556000
 11
-11.626000
 20
7.375000
 21
7.069000
  0
LINE
 10
-11.626000
 11
-11.723000
 20
7.069000
 21
6.770000
  0
LINE
 10
-11.723000
 11
-11.847000
 20
6.770000
 21
6.481000
  0
LINE
 10
-11.847000
 11
-11.995000
 20
6.481000
 21
6.205000
  0
LINE
 10
-11.995000
 11
-12.168000
 20
6.205000
 21
5.943000
  0
LINE
 10
-12.168000
 11
-12.364000
 20
5.943000
 21
5.697000
  0
LINE
 10
-12.364000
 11
-12.581000
 20
5.697000
 21
5.470000
  0
LINE
 10
-12.581000
 11
-12.818000
 20
5.470000
 21
5.264000
  0
LINE
 10
-12.818000
 11
-13.072000
 20
5.264000
 21
5.079000
  0
LINE
 10
-13.072000
 11
-13.341000
 20
5.079000
 21
4.918000
  0
LINE
 10
-13.341000
 11
-13.624000
 20
4.918000
 21
4.782000
  0
LINE
 10
-13.624000
 11
-13.918000
 20
4.782000
 21
4.671000
  0
LINE
 10
-13.918000
 11
-14.221000
 20
4.671000
 21
4.588000
  0
LINE
 10
-14.221000
 11
-14.530000
 20
4.588000
 21
4.532000
  0
LINE
 10
-14.530000
 11
-14.843000
 20
4.532000
 21
4.504000
  0
LINE
 10
-14.843000
 11
-15.157000
 20
4.504000
 21
4.504000
  0
LINE
 10
-15.157000
 11
-15.470000
 20
4.504000
 21
4.532000
  0
LINE
 10
-15.470000
 11
-15.779000
 20
4.532000
 21
4.588000
  0
LINE
 10
-15.779000
 11
-16.082000
 20
4.588000
 21
4.671000
  0
LINE
 10
-16.082000
 11
-16.376000
 20
4.671000
 21
4.782000
  0
LINE
 10
-16.376000
 11
-16.659000
 20
4.782000
 21
4.918000
  0
LINE
 10
-16.659000
 11
-16.928000
 20
4.918000
 21
5.079000
  0
LINE
 10
-16.928000
 11
-17.182000
 20
5.079000
 21
5.264000
  0
LINE
 10
-17.182000
 11
-17.419000
 20
5.264000
 21
5.470000
  0
LINE
 10
-17.419000
 11
-17.636000
 20
5.470000
 21
5.697000
  0
LINE
 10
-17.636000
 11
-17.832000
 20
5.697000
 21
5.943000
  0
LINE
 10
-17.832000
 11
-18.005000
 20
5.943000
 21
6.205000
  0
LINE
 10
-18.005000
 11
-18.153000
 20
6.205000
 21
6.481000
  0
LINE
 10
-18.153000
 11
-18.277000
 20
6.481000
 21
6.770000
  0
LINE
 10
-18.277000
 11
-18.374000
 20
6.770000
 21
7.069000
  0
LINE
 10
-18.374000
 11
-18.444000
 20
7.069000
 21
7.375000
  0
LINE
 10
-18.444000
 11
-18.486000
 20
7.375000
 21
7.686000
  0
LINE
 10
-18.486000
 11
-18.500000
 20
7.686000
 21
8.000000
  0
LINE
 10
-18.500000
 11
-18.486000
 20
40.000000
 21
40.314000
  0
LINE
 10
-18.486000
 11
-18.444000
 20
40.314000
 21
40.625000
  0
LINE
 10
-18.444000
 11
-18.374000
 20
40.625000
 21
40.931000
  0
LINE
 10
-18.374000
 11
-18.277000
 20
40.931000
 21
41.230000
  0
LINE
 10
-18.277000
 11
-18.153000
 20
41.230000
 21
41.519000
  0
LINE
 10
-18.153000
 11
-18.005000
 20
41.519000
 21
41.795000
  0
LINE
 10
-18.005000
 11
-17.832000
 20
41.795000
 21
42.057000
  0
LINE
 10
-17.832000
 11
-17.636000
 20
42.057000
 21
42.303000
  0
LINE
 10
-17.636000
 11
-17.419000
 20
42.303000
 21
42.530000
  0
LINE
 10
-17.419000
 11
-17.182000
 20
42.530000
 21
42.736000
  0
LINE
 10
-17.182000
 11
-16.928000
 20
42.736000
 21
42.921000
  0
LINE
 10
-16.928000
 11
-16.659000
 20
42.921000
 21
43.082000
  0
LINE
 10
-16.659000
 11
-16.376000
 20
43.082000
 21
43.218000
  0
LINE
 10
-16.376000
 11
-16.082000
 20
43.218000
 21
43.329000
  0
LINE
 10
-16.082000
 11
-15.779000
 20
43.329000
 21
43.412000
  0
LINE
 10
-15.779000
 11
-15.470000
 20
43.412000
 21
43.468000
  0
LINE
 10
-15.470000
 11
-15.157000
 20
43.468000
 21
43.496000
  0
LINE
 10
-15.157000
 11
-14.843000
 20
43.496000
 21
43.496000
  0
LINE
 10
-14.843000
 11
-14.530000
 20
43.496000
 21
43.468000
  0
LINE
 10
-14.530000
 11
-14.221000
 20
43.468000
 21
43.412000
  0
LINE
 10
-14.221000
 11
-13.918000
 20
43.412000
 21
43.329000
  0
LINE
 10
-13.918000
 11
-13.624000
 20
43.329000
 21
43.218000
  0
LINE
 10
-13.624000
 11
-13.341000
 20
43.218000
 21
43.082000
  0
LINE
 10
-13.341000
 11
-13.072000
 20
43.082000
 21
42.921000
  0
LINE
 10
-13.072000
 11
-12.818000
 20
42.921000
 21
42.736000
  0
LINE
 10
-12.818000
 11
-12.581000
 20
42.736000
 21
42.530000
  0
LINE
 10
-12.581000
 11
-12.364000
 20
42.530000
 21
42.303000
  0
LINE
 10
-12.364000
 11
-12.168000
 20
42.303000
 21
42.057000
  0
LINE
 10
-12.168000
 11
-11.995000
 20
42.057000
 21
41.795000
  0
LINE
 10
-11.995000
 11
-11.847000
 20
41.795000
 21
41.519000
  0
LINE
 10
-11.847000
 11
-11.723000
 20
41.519000
 21
41.230000
  0
LINE
 10
-11.723000
 11
-11.626000
 20
41.230000
 21
40.931000
  0
LINE
 10
-11.626000
 11
-11.556000
 20
40.931000
 21
40.625000
  0
LINE
 10
-11.556000
 11
-11.514000
 20
40.625000
 21
40.314000
  0
LINE
 10
-11.514000
 11
-11.500000
 20
40.314000
 21
40.000000
  0
LINE
 10
-11.500000
 11
-11.514000
 20
40.000000
 21
39.686000
  0
LINE
 10
-11.514000
 11
-11.556000
 20
39.686000
 21
39.375000
  0
LINE
 10
-11.556000
 11
-11.626000
 20
39.375000
 21
39.069000
  0
LINE
 10
-11.626000
 11
-11.723000
 20
39.069000
 21
38.770000
  0
LINE
 10
-11.723000
 11
-11.847000
 20
38.770000
 21
38.481000
  0
LINE
 10
-11.847000
 11
-11.995000
 20
38.481000
 21
38.205000
  0
LINE
 10
-11.995000
 11
-12.168000
 20
38.205000
 21
37.943000
  0
LINE
 10
-12.168000
 11
-12.364000
 20
37.943000
 21
37.697000
  0
LINE
 10
-12.364000
 11
-12.581000
 20
37.697000
 21
37.470000
  0
LINE
 10
-12.581000
 11
-12.818000
 20
37.470000
 21
37.264000
  0
LINE
 10
-12.818000
 11
-13.072000
 20
37.264000
 21
37.079000
  0
LINE
 10
-13.072000
 11
-13.341000
 20
37.079000
 21
36.918000
  0
LINE
 10
-13.341000
 11
-13.624000
 20
36.918000
 21
36.782000
  0
LINE
 10
-13.624000
 11
-13.918000
 20
36.782000
 21
36.671000
  0
LINE
 10
-13.918000
 11
-14.221000
 20
36.671000
 21
36.588000
  0
LINE
 10
-14.221000
 11
-14.530000
 20
36.588000
 21
36.532000
  0
LINE
 10
-14.530000
 11
-14.843000
 20
36.532000
 21
36.504000
  0
LINE
 10
-14.843000
 11
-15.157000
 20
36.504000
 21
36.504000
  0
LINE
 10
-15.157000
 11
-15.470000
 20
36.504000
 21
36.532000
  0
LINE
 10
-15.470000
 11
-15.779000
 20
36.532000
 21
36.588000
  0
LINE
 10
-15.779000
 11
-16.082000
 20
36.588000
 21
36.671000
  0
LINE
 10
-16.082000
 11
-16.376000
 20
36.671000
 21
36.782000
  0
LINE
 10
-16.376000
 11
-16.659000
 20
36.782000
 21
36.918000
  0
LINE
 10
-16.659000
 11
-16.928000
 20
36.918000
 21
37.079000
  0
LINE
 10
-16.928000
 11
-17.182000
 20
37.079000
 21
37.264000
  0
LINE
 10
-17.182000
 11
-17.419000
 20
37.264000
 21
37.470000
  0
LINE
 10
-17.419000
 11
-17.636000
 20
37.470000
 21
37.697000
  0
LINE
 10
-17.636000
 11
-17.832000
 20
37.697000
 21
37.943000
  0
LINE
 10
-17.832000
 11
-18.005000
 20
37.943000
 21
38.205000
  0
LINE
 10
-18.005000
 11
-18.153000
 20
38.205000
 21
38.481000
  0
LINE
 10
-18.153000
 11
-18.277000
 20
38.481000
 21
38.770000
  0
LINE
 10
-18.277000
 11
-18.374000
 20
38.770000
 21
39.069000
  0
LINE
 10
-18.374000
 11
-18.444000
 20
39.069000
 21
39.375000
  0
LINE
 10
-18.444000
 11
-18.486000
 20
39.375000
 21
39.686000
  0
LINE
 10
-18.486000
 11
-18.500000
 20
39.686000
 21
40.000000
  0
LINE
 10
-5.000000
 11
-4.980000
 20
15.500000
 21
15.948000
  0
LINE
 10
-4.980000
 11
-4.920000
 20
15.948000
 21
16.393000
  0
LINE
 10
-4.920000
 11
-4.820000
 20
16.393000
 21
16.830000
  0
LINE
 10
-4.820000
 11
-4.681000
 20
16.830000
 21
17.257000
  0
LINE
 10
-4.681000
 11
-4.505000
 20
17.257000
 21
17.669000
  0
LINE
 10
-4.505000
 11
-4.292000
 20
17.669000
 21
18.064000
  0
LINE
 10
-4.292000
 11
-4.045000
 20
18.064000
 21
18.439000
  0
LINE
 10
-4.045000
 11
-3.765000
 20
18.439000
 21
18.790000
  0
LINE
 10
-3.765000
 11
-3.455000
 20
18.790000
 21
19.114000
  0
LINE
 10
-3.455000
 11
-3.117000
 20
19.114000
 21
19.409000
  0
LINE
 10
-3.117000
 11
-2.754000
 20
19.409000
 21
19.673000
  0
LINE
 10
-2.754000
 11
-2.369000
 20
19.673000
 21
19.903000
  0
LINE
 10
-2.369000
 11
-1.965000
 20
19.903000
 21
20.098000
  0
LINE
 10
-1.965000
 11
-1.545000
 20
20.098000
 21
20.255000
  0
LINE
 10
-1.545000
 11
-1.113000
 20
20.255000
 21
20.375000
  0
LINE
 10
-1.113000
 11
-0.671000
 20
20.375000
 21
20.455000
  0
LINE
 10
-0.671000
 11
-0.224000
 20
20.455000
 21
20.495000
  0
LINE
 10
-0.224000
 11
0.224000
 20
20.495000
 21
20.495000
  0
LINE
 10
0.224000
 11
0.671000
 20
20.495000
 21
20.455000
  0
LINE
 10
0.671000
 11
1.113000
 20
20.455000
 21
20.375000
  0
LINE
 10
1.113000
 11
1.545000
 20
20.375000
 21
20.255000
  0
LINE
 10
1.545000
 11
1.965000
 20
20.255000
 21
20.098000
  0
LINE
 10
1.965000
 11
2.369000
 20
20.098000
 21
19.903000
  0
LINE
 10
2.369000
 11
2.754000
 20
19.903000
 21
19.673000
  0
LINE
 10
2.754000
 11
3.117000
 20
19.673000
 21
19.409000
  0
LINE
 10
3.117000
 11
3.455000
 20
19.409000
 21
19.114000
  0
LINE
 10
3.455000
 11
3.765000
 20
19.114000
 21
18.790000
  0
LINE
 10
3.765000
 11
4.045000
 20
18.790000
 21
18.439000
  0
LINE
 10
4.045000
 11
4.292000
 20
18.439000
 21
18.064000
  0
LINE
 10
4.292000
 11
4.505000
 20
18.064000
 21
17.669000
  0
LINE
 10
4.505000
 11
4.681000
 20
17.669000
 21
17.257000
  0
LINE
 10
4.681000
 11
4.820000
 20
17.257000
 21
16.830000
  0
LINE
 10
4.820000
 11
4.920000
 20
16.830000
 21
16.393000
  0
LINE
 10
4.920000
 11
4.980000
 20
16.393000
 21
15.948000
  0
LINE
 10
4.980000
 11
5.000000
 20
15.948000
 21
15.500000
  0
LINE
 10
5.000000
 11
4.980000
 20
15.500000
 21
15.052000
  0
LINE
 10
4.980000
 11
4.920000
 20
15.052000
 21
14.607000
  0
LINE
 10
4.920000
 11
4.820000
 20
14.607000
 21
14.170000
  0
LINE
 10
4.820000
 11
4.681000
 20
14.170000
 21
13.743000
  0
LINE
 10
4.681000
 11
4.505000
 20
13.743000
 21
13.331000
  0
LINE
 10
4.505000
 11
4.292000
 20
13.331000
 21
12.936000
  0
LINE
 10
4.292000
 11
4.045000
 20
12.936000
 21
12.561000
  0
LINE
 10
4.045000
 11
3.765000
 20
12.561000
 21
12.210000
  0
LINE
 10
3.765000
 11
3.455000
 20
12.210000
 21
11.886000
  0
LINE
 10
3.455000
 11
3.117000
 20
11.886000
 21
11.591000
  0
LINE
 10
3.117000
 11
2.754000
 20
11.591000
 21
11.327000
  0
LINE
 10
2.754000
 11
2.369000
 20
11.327000
 21
11.097000
  0
LINE
 10
2.369000
 11
1.965000
 20
11.097000
 21
10.902000
  0
LINE
 10
1.965000
 11
1.545000
 20
10.902000
 21
10.745000
  0
LINE
 10
1.545000
 11
1.113000
 20
10.745000
 21
10.625000
  0
LINE
 10
1.113000
 11
0.671000
 20
10.625000
 21
10.545000
  0
LINE
 10
0.671000
 11
0.224000
 20
10.545000
 21
10.505000
  0
LINE
 10
0.224000
 11
-0.224000
 20
10.505000
 21
10.505000
  0
LINE
 10
-0.224000
 11
-0.671000
 20
10.505000
 21
10.545000
  0
LINE
 10
-0.671000
 11
-1.113000
 20
10.545000
 21
10.625000
  0
LINE
 10
-1.113000
 11
-1.545000
 20
10.625000
 21
10.745000
  0
LINE
 10
-1.545000
 11
-1.965000
 20
10.745000
 21
10.902000
  0
LINE
 10
-1.965000
 11
-2.369000
 20
10.902000
 21
11.097000
  0
LINE
 10
-2.369000
 11
-2.754000
 20
11.097000
 21
11.327000
  0
LINE
 10
-2.754000
 11
-3.117000
 20
11.327000
 21
11.591000
  0
LINE
 10
-3.117000
 11
-3.455000
 20
11.591000
 21
11.886000
  0
LINE
 10
-3.455000
 11
-3.765000
 20
11.886000
 21
12.210000
  0
LINE
 10
-3.765000
 11
-4.045000
 20
12.210000
 21
12.561000
  0
LINE
 10
-4.045000
 11
-4.292000
 20
12.561000
 21
12.936000
  0
LINE
 10
-4.292000
 11
-4.505000
 20
12.936000
 21
13.331000
  0
LINE
 10
-4.505000
 11
-4.681000
 20
13.331000
 21
13.743000
  0
LINE
 10
-4.681000
 11
-4.820000
 20
13.743000
 21
14.170000
  0
LINE
 10
-4.820000
 11
-4.920000
 20
14.170000
 21
14.607000
  0
LINE
 10
-4.920000
 11
-4.980000
 20
14.607000
 21
15.052000
  0
LINE
 10
-4.980000
 11
-5.000000
 20
15.052000
 21
15.500000
  0
LINE
 10
-3.500000
 11
-3.486000
 20
26.900000
 21
27.214000
  0
LINE
 10
-3.486000
 11
-3.444000
 20
27.214000
 21
27.525000
  0
LINE
 10
-3.444000
 11
-3.374000
 20
27.525000
 21
27.831000
  0
LINE
 10
-3.374000
 11
-3.277000
 20
27.831000
 21
28.130000
  0
LINE
 10
-3.277000
 11
-3.153000
 20
28.130000
 21
28.419000
  0
LINE
 10
-3.153000
 11
-3.005000
 20
28.419000
 21
28.695000
  0
LINE
 10
-3.005000
 11
-2.832000
 20
28.695000
 21
28.957000
  0
LINE
 10
-2.832000
 11
-2.636000
 20
28.957000
 21
29.203000
  0
LINE
 10
-2.636000
 11
-2.419000
 20
29.203000
 21
29.430000
  0
LINE
 10
-2.419000
 11
-2.182000
 20
29.430000
 21
29.636000
  0
LINE
 10
-2.182000
 11
-1.928000
 20
29.636000
 21
29.821000
  0
LINE
 10
-1.928000
 11
-1.659000
 20
29.821000
 21
29.982000
  0
LINE
 10
-1.659000
 11
-1.376000
 20
29.982000
 21
30.118000
  0
LINE
 10
-1.376000
 11
-1.082000
 20
30.118000
 21
30.229000
  0
LINE
 10
-1.082000
 11
-0.779000
 20
30.229000
 21
30.312000
  0
LINE
 10
-0.779000
 11
-0.470000
 20
30.312000
 21
30.368000
  0
LINE
 10
-0.470000
 11
-0.157000
 20
30.368000
 21
30.396000
  0
LINE
 10
-0.157000
 11
0.157000
 20
30.396000
 21
30.396000
  0
LINE
 10
0.157000
 11
0.470000
 20
30.396000
 21
30.368000
  0
LINE
 10
0.470000
 11
0.779000
 20
30.368000
 21
30.312000
  0
LINE
 10
0.779000
 11
1.082000
 20
30.312000
 21
30.229000
  0
LINE
 10
1.082000
 11
1.376000
 20
30.229000
 21
30.118000
  0
LINE
 10
1.376000
 11
1.659000
 20
30.118000
 21
29.982000
  0
LINE
 10
1.659000
 11
1.928000
 20
29.982000
 21
29.821000
  0
LINE
 10
1.928000
 11
2.182000
 20
29.821000
 21
29.636000
  0
LINE
 10
2.182000
 11
2.419000
 20
29.636000
 21
29.430000
  0
LINE
 10
2.419000
 11
2.636000
 20
29.430000
 21
29.203000
  0
LINE
 10
2.636000
 11
2.832000
 20
29.203000
 21
28.957000
  0
LINE
 10
2.832000
 11
3.005000
 20
28.957000
 21
28.695000
  0
LINE
 10
3.005000
 11
3.153000
 20
28.695000
 21
28.419000
  0
LINE
 10
3.153000
 11
3.277000
 20
28.419000
 21
28.130000
  0
LINE
 10
3.277000
 11
3.374000
 20
28.130000
 21
27.831000
  0
LINE
 10
3.374000
 11
3.444000
 20
27.831000
 21
27.525000
  0
LINE
 10
3.444000
 11
3.486000
 20
27.525000
 21
27.214000
  0
LINE
 10
3.486000
 11
3.500000
 20
27.214000
 21
26.900000
  0
LINE
 10
3.500000
 11
3.486000
 20
26.900000
 21
26.586000
  0
LINE
 10
3.486000
 11
3.444000
 20
26.586000
 21
26.275000
  0
LINE
 10
3.444000
 11
3.374000
 20
26.275000
 21
25.969000
  0
LINE
 10
3.374000
 11
3.277000
 20
25.969000
 21
25.670000
  0
LINE
 10
3.277000
 11
3.153000
 20
25.670000
 21
25.381000
  0
LINE
 10
3.153000
 11
3.005000
 20
25.381000
 21
25.105000
  0
LINE
 10
3.005000
 11
2.832000
 20
25.105000
 21
24.843000
  0
LINE
 10
2.832000
 11
2.636000
 20
24.843000
 21
24.597000
  0
LINE
 10
2.636000
 11
2.419000
 20
24.597000
 21
24.370000
  0
LINE
 10
2.419000
 11
2.182000
 20
24.370000
 21
24.164000
  0
LINE
 10
2.182000
 11
1.928000
 20
24.164000
 21
23.979000
  0
LINE
 10
1.928000
 11
1.659000
 20
23.979000
 21
23.818000
  0
LINE
 10
1.659000
 11
1.376000
 20
23.818000
 21
23.682000
  0
LINE
 10
1.376000
 11
1.082000
 20
23.682000
 21
23.571000
  0
LINE
 10
1.082000
 11
0.779000
 20
23.571000
 21
23.488000
  0
LINE
 10
0.779000
 11
0.470000
 20
23.488000
 21
23.432000
  0
LINE
 10
0.470000
 11
0.157000
 20
23.432000
 21
23.404000
  0
LINE
 10
0.157000
 11
-0.157000
 20
23.404000
 21
23.404000
  0
LINE
 10
-0.157000
 11
-0.470000
 20
23.404000
 21
23.432000
  0
LINE
 10
-0.470000
 11
-0.779000
 20
23.432000
 21
23.488000
  0
LINE
 10
-0.779000
 11
-1.082000
 20
23.488000
 21
23.571000
  0
LINE
 10
-1.082000
 11
-1.376000
 20
23.571000
 21
23.682000
  0
LINE
 10
-1.376000
 11
-1.659000
 20
23.682000
 21
23.818000
  0
LINE
 10
-1.659000
 11
-1.928000
 20
23.818000
 21
23.979000
  0
LINE
 10
-1.928000
 11
-2.182000
 20
23.979000
 21
24.164000
  0
LINE
 10
-2.182000
 11
-2.419000
 20
24.164000
 21
24.370000
  0
LINE
 10
-2.419000
 11
-2.636000
 20
24.370000
 21
24.597000
  0
LINE
 10
-2.636000
 11
-2.832000
 20
24.597000
 21
24.843000
  0
LINE
 10
-2.832000
 11
-3.005000
 20
24.843000
 21
25.105000
  0
LINE
 10
-3.005000
 11
-3.153000
 20
25.105000
 21
25.381000
  0
LINE
 10
-3.153000
 11
-3.277000
 20
25.381000
 21
25.670000
  0
LINE
 10
-3.277000
 11
-3.374000
 20
25.670000
 21
25.969000
  0
LINE
 10
-3.374000
 11
-3.444000
 20
25.969000
 21
26.275000
  0
LINE
 10
-3.444000
 11
-3.486000
 20
26.275000
 21
26.586000
  0
LINE
 10
-3.486000
 11
-3.500000
 20
26.586000
 21
26.900000
  0
LINE
 10
11.500000
 11
11.514000
 20
8.000000
 21
8.314000
  0
LINE
 10
11.514000
 11
11.556000
 20
8.314000
 21
8.625000
  0
LINE
 10
11.556000
 11
11.626000
 20
8.625000
 21
8.931000
  0
LINE
 10
11.626000
 11
11.723000
 20
8.931000
 21
9.230000
  0
LINE
 10
11.723000
 11
11.847000
 20
9.230000
 21
9.519000
  0
LINE
 10
11.847000
 11
11.995000
 20
9.519000
 21
9.795000
  0
LINE
 10
11.995000
 11
12.168000
 20
9.795000
 21
10.057000
  0
LINE
 10
12.168000
 11
12.364000
 20
10.057000
 21
10.303000
  0
LINE
 10
12.364000
 11
12.581000
 20
10.303000
 21
10.530000
  0
LINE
 10
12.581000
 11
12.818000
 20
10.530000
 21
10.736000
  0
LINE
 10
12.818000
 11
13.072000
 20
10.736000
 21
10.921000
  0
LINE
 10
13.072000
 11
13.341000
 20
10.921000
 21
11.082000
  0
LINE
 10
13.341000
 11
13.624000
 20
11.082000
 21
11.218000
  0
LINE
 10
13.624000
 11
13.918000
 20
11.218000
 21
11.329000
  0
LINE
 10
13.918000
 11
14.221000
 20
11.329000
 21
11.412000
  0
LINE
 10
14.221000
 11
14.530000
 20
11.412000
 21
11.468000
  0
LINE
 10
14.530000
 11
14.843000
 20
11.468000
 21
11.496000
  0
LINE
 10
14.843000
 11
15.157000
 20
11.496000
 21
11.496000
  0
LINE
 10
15.157000
 11
15.470000
 20
11.496000
 21
11.468000
  0
LINE
 10
15.470000
 11
15.779000
 20
11.468000
 21
11.412000
  0
LINE
 10
15.779000
 11
16.082000
 20
11.412000
 21
11.329000
  0
LINE
 10
16.082000
 11
16.376000
 20
11.329000
 21
11.218000
  0
LINE
 10
16.376000
 11
16.659000
 20
11.218000
 21
11.082000
  0
LINE
 10
16.659000
 11
16.928000
 20
11.082000
 21
10.921000
  0
LINE
 10
16.928000
 11
17.182000
 20
10.921000
 21
10.736000
  0
LINE
 10
17.182000
 11
17.419000
 20
10.736000
 21
10.530000
  0
LINE
 10
17.419000
 11
17.636000
 20
10.530000
 21
10.303000
  0
LINE
 10
17.636000
 11
17.832000
 20
10.303000
 21
10.057000
  0
LINE
 10
17.832000
 11
18.005000
 20
10.057000
 21
9.795000
  0
LINE
 10
18.005000
 11
18.153000
 20
9.795000
 21
9.519000
  0
LINE
 10
18.153000
 11
18.277000
 20
9.519000
 21
9.230000
  0
LINE
 10
18.277000
 11
18.374000
 20
9.230000
 21
8.931000
  0
LINE
 10
18.374000
 11
18.444000
 20
8.931000
 21
8.625000
  0
LINE
 10
18.444000
 11
18.486000
 20
8.625000
 21
8.314000
  0
LINE
 10
18.486000
 11
18.500000
 20
8.314000
 21
8.000000
  0
LINE
 10
18.500000
 11
18.486000
 20
8.000000
 21
7.686000
  0
LINE
 10
18.486000
 11
18.444000
 20
7.686000
 21
7.375000
  0
LINE
 10
18.444000
 11
18.374000
 20
7.375000
 21
7.069000
  0
LINE
 10
18.374000
 11
18.277000
 20
7.069000
 21
6.770000
  0
LINE
 10
18.277000
 11
18.153000
 20
6.770000
 21
6.481000
  0
LINE
 10
18.153000
 11
18.005000
 20
6.481000
 21
6.205000
  0
LINE
 10
18.005000
 11
17.832000
 20
6.205000
 21
5.943000
  0
LINE
 10
17.832000
 11
17.636000
 20
5.943000
 21
5.697000
  0
LINE
 10
17.636000
 11
17.419000
 20
5.697000
 21
5.470000
  0
LINE
 10
17.419000
 11
17.182000
 20
5.470000
 21
5.264000
  0
LINE
 10
17.182000
 11
16.928000
 20
5.264000
 21
5.079000
  0
LINE
 10
16.928000
 11
16.659000
 20
5.079000
 21
4.918000
  0
LINE
 10
16.659000
 11
16.376000
 20
4.918000
 21
4.782000
  0
LINE
 10
16.376000
 11
16.082000
 20
4.782000
 21
4.671000
  0
LINE
 10
16.082000
 11
15.779000
 20
4.671000
 21
4.588000
  0
LINE
 10
15.779000
 11
15.470000
 20
4.588000
 21
4.532000
  0
LINE
 10
15.470000
 11
15.157000
 20
4.532000
 21
4.504000
  0
LINE
 10
15.157000
 11
14.843000
 20
4.504000
 21
4.504000
  0
LINE
 10
14.843000
 11
14.530000
 20
4.504000
 21
4.532000
  0
LINE
 10
14.530000
 11
14.221000
 20
4.532000
 21
4.588000
  0
LINE
 10
14.221000
 11
13.918000
 20
4.588000
 21
4.671000
  0
LINE
 10
13.918000
 11
13.624000
 20
4.671000
 21
4.782000
  0
LINE
 10
13.624000
 11
13.341000
 20
4.782000
 21
4.918000
  0
LINE
 10
13.341000
 11
13.072000
 20
4.918000
 21
5.079000
  0
LINE
 10
13.072000
 11
12.818000
 20
5.079000
 21
5.264000
  0
LINE
 10
12.818000
 11
12.581000
 20
5.264000
 21
5.470000
  0
LINE
 10
12.581000
 11
12.364000
 20
5.470000
 21
5.697000
  0
LINE
 10
12.364000
 11
12.168000
 20
5.697000
 21
5.943000
  0
LINE
 10
12.168000
 11
11.995000
 20
5.943000
 21
6.205000
  0
LINE
 10
11.995000
 11
11.847000
 20
6.205000
 21
6.481000
  0
LINE
 10
11.847000
 11
11.723000
 20
6.481000
 21
6.770000
  0
LINE
 10
11.723000
 11
11.626000
 20
6.770000
 21
7.069000
  0
LINE
 10
11.626000
 11
11.556000
 20
7.069000
 21
7.375000
  0
LINE
 10
11.556000
 11
11.514000
 20
7.375000
 21
7.686000
  0
LINE
 10
11.514000
 11
11.500000
 20
7.686000
 21
8.000000
  0
LINE
 10
11.500000
 11
11.514000
 20
40.000000
 21
40.314000
  0
LINE
 10
11.514000
 11
11.556000
 20
40.314000
 21
40.625000
  0
LINE
 10
11.556000
 11
11.626000
 20
40.625000
 21
40.931000
  0
LINE
 10
11.626000
 11
11.723000
 20
40.931000
 21
41.230000
  0
LINE
 10
11.723000
 11
11.847000
 20
41.230000
 21
41.519000
  0
LINE
 10
11.847000
 11
11.995000
 20
41.519000
 21
41.795000
  0
LINE
 10
11.995000
 11
12.168000
 20
41.795000
 21
42.057000
  0
LINE
 10
12.168000
 11
12.364000
 20
42.057000
 21
42.303000
  0
LINE
 10
12.364000
 11
12.581000
 20
42.303000
 21
42.530000
  0
LINE
 10
12.581000
 11
12.818000
 20
42.530000
 21
42.736000
  0
LINE
 10
12.818000
 11
13.072000
 20
42.736000
 21
42.921000
  0
LINE
 10
13.072000
 11
13.341000
 20
42.921000
 21
43.082000
  0
LINE
 10
13.341000
 11
13.624000
 20
43.082000
 21
43.218000
  0
LINE
 10
13.624000
 11
13.918000
 20
43.218000
 21
43.329000
  0
LINE
 10
13.918000
 11
14.221000
 20
43.329000
 21
43.412000
  0
LINE
 10
14.221000
 11
14.530000
 20
43.412000
 21
43.468000
  0
LINE
 10
14.530000
 11
14.843000
 20
43.468000
 21
43.496000
  0
LINE
 10
14.843000
 11
15.157000
 20
43.496000
 21
43.496000
  0
LINE
 10
15.157000
 11
15.470000
 20
43.496000
 21
43.468000
  0
LINE
 10
15.470000
 11
15.779000
 20
43.468000
 21
43.412000
  0
LINE
 10
15.779000
 11
16.082000
 20
43.412000
 21
43.329000
  0
LINE
 10
16.082000
 11
16.376000
 20
43.329000
 21
43.218000
  0
LINE
 10
16.376000
 11
16.659000
 20
43.218000
 21
43.082000
  0
LINE
 10
16.659000
 11
16.928000
 20
43.082000
 21
42.921000
  0
LINE
 10
16.928000
 11
17.182000
 20
42.921000
 21
42.736000
  0
LINE
 10
17.182000
 11
17.419000
 20
42.736000
 21
42.530000
  0
LINE
 10
17.419000
 11
17.636000
 20
42.530000
 21
42.303000
  0
LINE
 10
17.636000
 11
17.832000
 20
42.303000
 21
42.057000
  0
LINE
 10
17.832000
 11
18.005000
 20
42.057000
 21
41.795000
  0
LINE
 10
18.005000
 11
18.153000
 20
41.795000
 21
41.519000
  0
LINE
 10
18.153000
 11
18.277000
 20
41.519000
 21
41.230000
  0
LINE
 10
18.277000
 11
18.374000
 20
41.230000
 21
40.931000
  0
LINE
 10
18.374000
 11
18.444000
 20
40.931000
 21
40.625000
  0
LINE
 10
18.444000
 11
18.486000
 20
40.625000
 21
40.314000
  0
LINE
 10
18.486000
 11
18.500000
 20
40.314000
 21
40.000000
  0
LINE
 10
18.500000
 11
18.486000
 20
40.000000
 21
39.686000
  0
LINE
 10
18.486000
 11
18.444000
 20
39.686000
 21
39.375000
  0
LINE
 10
18.444000
 11
18.374000
 20
39.375000
 21
39.069000
  0
LINE
 10
18.374000
 11
18.277000
 20
39.069000
 21
38.770000
  0
LINE
 10
18.277000
 11
18.153000
 20
38.770000
 21
38.481000
  0
LINE
 10
18.153000
 11
18.005000
 20
38.481000
 21
38.205000
  0
LINE
 10
18.005000
 11
17.832000
 20
38.205000
 21
37.943000
  0
LINE
 10
17.832000
 11
17.636000
 20
37.943000
 21
37.697000
  0
LINE
 10
17.636000
 11
17.419000
 20
37.697000
 21
37.470000
  0
LINE
 10
17.419000
 11
17.182000
 20
37.470000
 21
37.264000
  0
LINE
 10
17.182000
 11
16.928000
 20
37.264000
 21
37.079000
  0
LINE
 10
16.928000
 11
16.659000
 20
37.079000
 21
36.918000
  0
LINE
 10
16.659000
 11
16.376000
 20
36.918000
 21
36.782000
  0
LINE
 10
16.376000
 11
16.082000
 20
36.782000
 21
36.671000
  0
LINE
 10
16.082000
 11
15.779000
 20
36.671000
 21
36.588000
  0
LINE
 10
15.779000
 11
15.470000
 20
36.588000
 21
36.532000
  0
LINE
 10
15.470000
 11
15.157000
 20
36.532000
 21
36.504000
  0
LINE
 10
15.157000
 11
14.843000
 20
36.504000
 21
36.504000
  0
LINE
 10
14.843000
 11
14.530000
 20
36.504000
 21
36.532000
  0
LINE
 10
14.530000
 11
14.221000
 20
36.532000
 21
36.588000
  0
LINE
 10
14.221000
 11
13.918000
 20
36.588000
 21
36.671000
  0
LINE
 10
13.918000
 11
13.624000
 20
36.671000
 21
36.782000
  0
LINE
 10
13.624000
 11
13.341000
 20
36.782000
 21
36.918000
  0
LINE
 10
13.341000
 11
13.072000
 20
36.918000
 21
37.079000
  0
LINE
 10
13.072000
 11
12.818000
 20
37.079000
 21
37.264000
  0
LINE
 10
12.818000
 11
12.581000
 20
37.264000
 21
37.470000
  0
LINE
 10
12.581000
 11
12.364000
 20
37.470000
 21
37.697000
  0
LINE
 10
12.364000
 11
12.168000
 20
37.697000
 21
37.943000
  0
LINE
 10
12.168000
 11
11.995000
 20
37.943000
 21
38.205000
  0
LINE
 10
11.995000
 11
11.847000
 20
38.205000
 21
38.481000
  0
LINE
 10
11.847000
 11
11.723000
 20
38.481000
 21
38.770000
  0
LINE
 10
11.723000
 11
11.626000
 20
38.770000
 21
39.069000
  0
LINE
 10
11.626000
 11
11.556000
 20
39.069000
 21
39.375000
  0
LINE
 10
11.556000
 11
11.514000
 20
39.375000
 21
39.686000
  0
LINE
 10
11.514000
 11
11.500000
 20
39.686000
 21
40.000000
  0
ENDSEC
  0
EOF
