  0
SECTION
  2
ENTITIES
  0
LINE
 10
-20.000000
 11
-20.000000
 20
3.000000
 21
17.850000
  0
LINE
 10
-20.000000
 11
-13.500000
 20
17.850000
 21
17.850000
  0
LINE
 10
-13.500000
 11
-13.500000
 20
17.850000
 21
16.100000
  0
LINE
 10
-13.500000
 11
-8.500000
 20
16.100000
 21
16.100000
  0
LINE
 10
-8.500000
 11
-8.500000
 20
16.100000
 21
26.100000
  0
LINE
 10
-8.500000
 11
-13.500000
 20
26.100000
 21
26.100000
  0
LINE
 10
-13.500000
 11
-13.500000
 20
26.100000
 21
24.350000
  0
LINE
 10
-13.500000
 11
-20.000000
 20
24.350000
 21
24.350000
  0
LINE
 10
-20.000000
 11
-20.000000
 20
24.350000
 21
45.000000
  0
LINE
 10
-20.000000
 11
20.000000
 20
45.000000
 21
45.000000
  0
LINE
 10
20.000000
 11
20.000000
 20
45.000000
 21
24.350000
  0
LINE
 10
20.000000
 11
13.500000
 20
24.350000
 21
24.350000
  0
LINE
 10
13.500000
 11
13.500000
 20
24.350000
 21
26.100000
  0
LINE
 10
13.500000
 11
8.500000
 20
26.100000
 21
26.100000
  0
LINE
 10
8.500000
 11
8.500000
 20
26.100000
 21
16.100000
  0
LINE
 10
8.500000
 11
13.500000
 20
16.100000
 21
16.100000
  0
LINE
 10
13.500000
 11
13.500000
 20
16.100000
 21
17.850000
  0
LINE
 10
13.500000
 11
20.000000
 20
17.850000
 21
17.850000
  0
LINE
 10
20.000000
 11
20.000000
 20
17.850000
 21
3.000000
  0
LINE
 10
20.000000
 11
-20.000000
 20
3.000000
 21
3.000000
  0
LINE
 10
-17.100000
 11
-17.092000
 20
8.000000
 21
8.188000
  0
LINE
 10
-17.092000
 11
-17.066000
 20
8.188000
 21
8.375000
  0
LINE
 10
-17.066000
 11
-17.024000
 20
8.375000
 21
8.559000
  0
LINE
 10
-17.024000
 11
-16.966000
 20
8.559000
 21
8.738000
  0
LINE
 10
-16.966000
 11
-16.892000
 20
8.738000
 21
8.911000
  0
LINE
 10
-16.892000
 11
-16.803000
 20
8.911000
 21
9.077000
  0
LINE
 10
-16.803000
 11
-16.699000
 20
9.077000
 21
9.234000
  0
LINE
 10
-16.699000
 11
-16.581000
 20
9.234000
 21
9.382000
  0
LINE
 10
-16.581000
 11
-16.451000
 20
9.382000
 21
9.518000
  0
LINE
 10
-16.451000
 11
-16.309000
 20
9.518000
 21
9.642000
  0
LINE
 10
-16.309000
 11
-16.157000
 20
9.642000
 21
9.753000
  0
LINE
 10
-16.157000
 11
-15.995000
 20
9.753000
 21
9.849000
  0
LINE
 10
-15.995000
 11
-15.825000
 20
9.849000
 21
9.931000
  0
LINE
 10
-15.825000
 11
-15.649000
 20
9.931000
 21
9.997000
  0
LINE
 10
-15.649000
 11
-15.467000
 20
9.997000
 21
10.047000
  0
LINE
 10
-15.467000
 11
-15.282000
 20
10.047000
 21
10.081000
  0
LINE
 10
-15.282000
 11
-15.094000
 20
10.081000
 21
10.098000
  0
LINE
 10
-15.094000
 11
-14.906000
 20
10.098000
 21
10.098000
  0
LINE
 10
-14.906000
 11
-14.718000
 20
10.098000
 21
10.081000
  0
LINE
 10
-14.718000
 11
-14.533000
 20
10.081000
 21
10.047000
  0
LINE
 10
-14.533000
 11
-14.351000
 20
10.047000
 21
9.997000
  0
LINE
 10
-14.351000
 11
-14.175000
 20
9.997000
 21
9.931000
  0
LINE
 10
-14.175000
 11
-14.005000
 20
9.931000
 21
9.849000
  0
LINE
 10
-14.005000
 11
-13.843000
 20
9.849000
 21
9.753000
  0
LINE
 10
-13.843000
 11
-13.691000
 20
9.753000
 21
9.642000
  0
LINE
 10
-13.691000
 11
-13.549000
 20
9.642000
 21
9.518000
  0
LINE
 10
-13.549000
 11
-13.419000
 20
9.518000
 21
9.382000
  0
LINE
 10
-13.419000
 11
-13.301000
 20
9.382000
 21
9.234000
  0
LINE
 10
-13.301000
 11
-13.197000
 20
9.234000
 21
9.077000
  0
LINE
 10
-13.197000
 11
-13.108000
 20
9.077000
 21
8.911000
  0
LINE
 10
-13.108000
 11
-13.034000
 20
8.911000
 21
8.738000
  0
LINE
 10
-13.034000
 11
-12.976000
 20
8.738000
 21
8.559000
  0
LINE
 10
-12.976000
 11
-12.934000
 20
8.559000
 21
8.375000
  0
LINE
 10
-12.934000
 11
-12.908000
 20
8.375000
 21
8.188000
  0
LINE
 10
-12.908000
 11
-12.900000
 20
8.188000
 21
8.000000
  0
LINE
 10
-12.900000
 11
-12.908000
 20
8.000000
 21
7.812000
  0
LINE
 10
-12.908000
 11
-12.934000
 20
7.812000
 21
7.625000
  0
LINE
 10
-12.934000
 11
-12.976000
 20
7.625000
 21
7.441000
  0
LINE
 10
-12.976000
 11
-13.034000
 20
7.441000
 21
7.262000
  0
LINE
 10
-13.034000
 11
-13.108000
 20
7.262000
 21
7.089000
  0
LINE
 10
-13.108000
 11
-13.197000
 20
7.089000
 21
6.923000
  0
LINE
 10
-13.197000
 11
-13.301000
 20
6.923000
 21
6.766000
  0
LINE
 10
-13.301000
 11
-13.419000
 20
6.766000
 21
6.618000
  0
LINE
 10
-13.419000
 11
-13.549000
 20
6.618000
 21
6.482000
  0
LINE
 10
-13.549000
 11
-13.691000
 20
6.482000
 21
6.358000
  0
LINE
 10
-13.691000
 11
-13.843000
 20
6.358000
 21
6.247000
  0
LINE
 10
-13.843000
 11
-14.005000
 20
6.247000
 21
6.151000
  0
LINE
 10
-14.005000
 11
-14.175000
 20
6.151000
 21
6.069000
  0
LINE
 10
-14.175000
 11
-14.351000
 20
6.069000
 21
6.003000
  0
LINE
 10
-14.351000
 11
-14.533000
 20
6.003000
 21
5.953000
  0
LINE
 10
-14.533000
 11
-14.718000
 20
5.953000
 21
5.919000
  0
LINE
 10
-14.718000
 11
-14.906000
 20
5.919000
 21
5.902000
  0
LINE
 10
-14.906000
 11
-15.094000
 20
5.902000
 21
5.902000
  0
LINE
 10
-15.094000
 11
-15.282000
 20
5.902000
 21
5.919000
  0
LINE
 10
-15.282000
 11
-15.467000
 20
5.919000
 21
5.953000
  0
LINE
 10
-15.467000
 11
-15.649000
 20
5.953000
 21
6.003000
  0
LINE
 10
-15.649000
 11
-15.825000
 20
6.003000
 21
6.069000
  0
LINE
 10
-15.825000
 11
-15.995000
 20
6.069000
 21
6.151000
  0
LINE
 10
-15.995000
 11
-16.157000
 20
6.151000
 21
6.247000
  0
LINE
 10
-16.157000
 11
-16.309000
 20
6.247000
 21
6.358000
  0
LINE
 10
-16.309000
 11
-16.451000
 20
6.358000
 21
6.482000
  0
LINE
 10
-16.451000
 11
-16.581000
 20
6.482000
 21
6.618000
  0
LINE
 10
-16.581000
 11
-16.699000
 20
6.618000
 21
6.766000
  0
LINE
 10
-16.699000
 11
-16.803000
 20
6.766000
 21
6.923000
  0
LINE
 10
-16.803000
 11
-16.892000
 20
6.923000
 21
7.089000
  0
LINE
 10
-16.892000
 11
-16.966000
 20
7.089000
 21
7.262000
  0
LINE
 10
-16.966000
 11
-17.024000
 20
7.262000
 21
7.441000
  0
LINE
 10
-17.024000
 11
-17.066000
 20
7.441000
 21
7.625000
  0
LINE
 10
-17.066000
 11
-17.092000
 20
7.625000
 21
7.812000
  0
LINE
 10
-17.092000
 11
-17.100000
 20
7.812000
 21
8.000000
  0
LINE
 10
-17.100000
 11
-17.092000
 20
40.000000
 21
40.188000
  0
LINE
 10
-17.092000
 11
-17.066000
 20
40.188000
 21
40.375000
  0
LINE
 10
-17.066000
 11
-17.024000
 20
40.375000
 21
40.559000
  0
LINE
 10
-17.024000
 11
-16.966000
 20
40.559000
 21
40.738000
  0
LINE
 10
-16.966000
 11
-16.892000
 20
40.738000
 21
40.911000
  0
LINE
 10
-16.892000
 11
-16.803000
 20
40.911000
 21
41.077000
  0
LINE
 10
-16.803000
 11
-16.699000
 20
41.077000
 21
41.234000
  0
LINE
 10
-16.699000
 11
-16.581000
 20
41.234000
 21
41.382000
  0
LINE
 10
-16.581000
 11
-16.451000
 20
41.382000
 21
41.518000
  0
LINE
 10
-16.451000
 11
-16.309000
 20
41.518000
 21
41.642000
  0
LINE
 10
-16.309000
 11
-16.157000
 20
41.642000
 21
41.753000
  0
LINE
 10
-16.157000
 11
-15.995000
 20
41.753000
 21
41.849000
  0
LINE
 10
-15.995000
 11
-15.825000
 20
41.849000
 21
41.931000
  0
LINE
 10
-15.825000
 11
-15.649000
 20
41.931000
 21
41.997000
  0
LINE
 10
-15.649000
 11
-15.467000
 20
41.997000
 21
42.047000
  0
LINE
 10
-15.467000
 11
-15.282000
 20
42.047000
 21
42.081000
  0
LINE
 10
-15.282000
 11
-15.094000
 20
42.081000
 21
42.098000
  0
LINE
 10
-15.094000
 11
-14.906000
 20
42.098000
 21
42.098000
  0
LINE
 10
-14.906000
 11
-14.718000
 20
42.098000
 21
42.081000
  0
LINE
 10
-14.718000
 11
-14.533000
 20
42.081000
 21
42.047000
  0
LINE
 10
-14.533000
 11
-14.351000
 20
42.047000
 21
41.997000
  0
LINE
 10
-14.351000
 11
-14.175000
 20
41.997000
 21
41.931000
  0
LINE
 10
-14.175000
 11
-14.005000
 20
41.931000
 21
41.849000
  0
LINE
 10
-14.005000
 11
-13.843000
 20
41.849000
 21
41.753000
  0
LINE
 10
-13.843000
 11
-13.691000
 20
41.753000
 21
41.642000
  0
LINE
 10
-13.691000
 11
-13.549000
 20
41.642000
 21
41.518000
  0
LINE
 10
-13.549000
 11
-13.419000
 20
41.518000
 21
41.382000
  0
LINE
 10
-13.419000
 11
-13.301000
 20
41.382000
 21
41.234000
  0
LINE
 10
-13.301000
 11
-13.197000
 20
41.234000
 21
41.077000
  0
LINE
 10
-13.197000
 11
-13.108000
 20
41.077000
 21
40.911000
  0
LINE
 10
-13.108000
 11
-13.034000
 20
40.911000
 21
40.738000
  0
LINE
 10
-13.034000
 11
-12.976000
 20
40.738000
 21
40.559000
  0
LINE
 10
-12.976000
 11
-12.934000
 20
40.559000
 21
40.375000
  0
LINE
 10
-12.934000
 11
-12.908000
 20
40.375000
 21
40.188000
  0
LINE
 10
-12.908000
 11
-12.900000
 20
40.188000
 21
40.000000
  0
LINE
 10
-12.900000
 11
-12.908000
 20
40.000000
 21
39.812000
  0
LINE
 10
-12.908000
 11
-12.934000
 20
39.812000
 21
39.625000
  0
LINE
 10
-12.934000
 11
-12.976000
 20
39.625000
 21
39.441000
  0
LINE
 10
-12.976000
 11
-13.034000
 20
39.441000
 21
39.262000
  0
LINE
 10
-13.034000
 11
-13.108000
 20
39.262000
 21
39.089000
  0
LINE
 10
-13.108000
 11
-13.197000
 20
39.089000
 21
38.923000
  0
LINE
 10
-13.197000
 11
-13.301000
 20
38.923000
 21
38.766000
  0
LINE
 10
-13.301000
 11
-13.419000
 20
38.766000
 21
38.618000
  0
LINE
 10
-13.419000
 11
-13.549000
 20
38.618000
 21
38.482000
  0
LINE
 10
-13.549000
 11
-13.691000
 20
38.482000
 21
38.358000
  0
LINE
 10
-13.691000
 11
-13.843000
 20
38.358000
 21
38.247000
  0
LINE
 10
-13.843000
 11
-14.005000
 20
38.247000
 21
38.151000
  0
LINE
 10
-14.005000
 11
-14.175000
 20
38.151000
 21
38.069000
  0
LINE
 10
-14.175000
 11
-14.351000
 20
38.069000
 21
38.003000
  0
LINE
 10
-14.351000
 11
-14.533000
 20
38.003000
 21
37.953000
  0
LINE
 10
-14.533000
 11
-14.718000
 20
37.953000
 21
37.919000
  0
LINE
 10
-14.718000
 11
-14.906000
 20
37.919000
 21
37.902000
  0
LINE
 10
-14.906000
 11
-15.094000
 20
37.902000
 21
37.902000
  0
LINE
 10
-15.094000
 11
-15.282000
 20
37.902000
 21
37.919000
  0
LINE
 10
-15.282000
 11
-15.467000
 20
37.919000
 21
37.953000
  0
LINE
 10
-15.467000
 11
-15.649000
 20
37.953000
 21
38.003000
  0
LINE
 10
-15.649000
 11
-15.825000
 20
38.003000
 21
38.069000
  0
LINE
 10
-15.825000
 11
-15.995000
 20
38.069000
 21
38.151000
  0
LINE
 10
-15.995000
 11
-16.157000
 20
38.151000
 21
38.247000
  0
LINE
 10
-16.157000
 11
-16.309000
 20
38.247000
 21
38.358000
  0
LINE
 10
-16.309000
 11
-16.451000
 20
38.358000
 21
38.482000
  0
LINE
 10
-16.451000
 11
-16.581000
 20
38.482000
 21
38.618000
  0
LINE
 10
-16.581000
 11
-16.699000
 20
38.618000
 21
38.766000
  0
LINE
 10
-16.699000
 11
-16.803000
 20
38.766000
 21
38.923000
  0
LINE
 10
-16.803000
 11
-16.892000
 20
38.923000
 21
39.089000
  0
LINE
 10
-16.892000
 11
-16.966000
 20
39.089000
 21
39.262000
  0
LINE
 10
-16.966000
 11
-17.024000
 20
39.262000
 21
39.441000
  0
LINE
 10
-17.024000
 11
-17.066000
 20
39.441000
 21
39.625000
  0
LINE
 10
-17.066000
 11
-17.092000
 20
39.625000
 21
39.812000
  0
LINE
 10
-17.092000
 11
-17.100000
 20
39.812000
 21
40.000000
  0
LINE
 10
-5.000000
 11
-4.980000
 20
15.500000
 21
15.948000
  0
LINE
 10
-4.980000
 11
-4.920000
 20
15.948000
 21
16.393000
  0
LINE
 10
-4.920000
 11
-4.820000
 20
16.393000
 21
16.830000
  0
LINE
 10
-4.820000
 11
-4.681000
 20
16.830000
 21
17.257000
  0
LINE
 10
-4.681000
 11
-4.505000
 20
17.257000
 21
17.669000
  0
LINE
 10
-4.505000
 11
-4.292000
 20
17.669000
 21
18.064000
  0
LINE
 10
-4.292000
 11
-4.045000
 20
18.064000
 21
18.439000
  0
LINE
 10
-4.045000
 11
-3.765000
 20
18.439000
 21
18.790000
  0
LINE
 10
-3.765000
 11
-3.455000
 20
18.790000
 21
19.114000
  0
LINE
 10
-3.455000
 11
-3.117000
 20
19.114000
 21
19.409000
  0
LINE
 10
-3.117000
 11
-2.754000
 20
19.409000
 21
19.673000
  0
LINE
 10
-2.754000
 11
-2.369000
 20
19.673000
 21
19.903000
  0
LINE
 10
-2.369000
 11
-1.965000
 20
19.903000
 21
20.098000
  0
LINE
 10
-1.965000
 11
-1.545000
 20
20.098000
 21
20.255000
  0
LINE
 10
-1.545000
 11
-1.113000
 20
20.255000
 21
20.375000
  0
LINE
 10
-1.113000
 11
-0.671000
 20
20.375000
 21
20.455000
  0
LINE
 10
-0.671000
 11
-0.224000
 20
20.455000
 21
20.495000
  0
LINE
 10
-0.224000
 11
0.224000
 20
20.495000
 21
20.495000
  0
LINE
 10
0.224000
 11
0.671000
 20
20.495000
 21
20.455000
  0
LINE
 10
0.671000
 11
1.113000
 20
20.455000
 21
20.375000
  0
LINE
 10
1.113000
 11
1.545000
 20
20.375000
 21
20.255000
  0
LINE
 10
1.545000
 11
1.965000
 20
20.255000
 21
20.098000
  0
LINE
 10
1.965000
 11
2.369000
 20
20.098000
 21
19.903000
  0
LINE
 10
2.369000
 11
2.754000
 20
19.903000
 21
19.673000
  0
LINE
 10
2.754000
 11
3.117000
 20
19.673000
 21
19.409000
  0
LINE
 10
3.117000
 11
3.455000
 20
19.409000
 21
19.114000
  0
LINE
 10
3.455000
 11
3.765000
 20
19.114000
 21
18.790000
  0
LINE
 10
3.765000
 11
4.045000
 20
18.790000
 21
18.439000
  0
LINE
 10
4.045000
 11
4.292000
 20
18.439000
 21
18.064000
  0
LINE
 10
4.292000
 11
4.505000
 20
18.064000
 21
17.669000
  0
LINE
 10
4.505000
 11
4.681000
 20
17.669000
 21
17.257000
  0
LINE
 10
4.681000
 11
4.820000
 20
17.257000
 21
16.830000
  0
LINE
 10
4.820000
 11
4.920000
 20
16.830000
 21
16.393000
  0
LINE
 10
4.920000
 11
4.980000
 20
16.393000
 21
15.948000
  0
LINE
 10
4.980000
 11
5.000000
 20
15.948000
 21
15.500000
  0
LINE
 10
5.000000
 11
4.980000
 20
15.500000
 21
15.052000
  0
LINE
 10
4.980000
 11
4.920000
 20
15.052000
 21
14.607000
  0
LINE
 10
4.920000
 11
4.820000
 20
14.607000
 21
14.170000
  0
LINE
 10
4.820000
 11
4.681000
 20
14.170000
 21
13.743000
  0
LINE
 10
4.681000
 11
4.505000
 20
13.743000
 21
13.331000
  0
LINE
 10
4.505000
 11
4.292000
 20
13.331000
 21
12.936000
  0
LINE
 10
4.292000
 11
4.045000
 20
12.936000
 21
12.561000
  0
LINE
 10
4.045000
 11
3.765000
 20
12.561000
 21
12.210000
  0
LINE
 10
3.765000
 11
3.455000
 20
12.210000
 21
11.886000
  0
LINE
 10
3.455000
 11
3.117000
 20
11.886000
 21
11.591000
  0
LINE
 10
3.117000
 11
2.754000
 20
11.591000
 21
11.327000
  0
LINE
 10
2.754000
 11
2.369000
 20
11.327000
 21
11.097000
  0
LINE
 10
2.369000
 11
1.965000
 20
11.097000
 21
10.902000
  0
LINE
 10
1.965000
 11
1.545000
 20
10.902000
 21
10.745000
  0
LINE
 10
1.545000
 11
1.113000
 20
10.745000
 21
10.625000
  0
LINE
 10
1.113000
 11
0.671000
 20
10.625000
 21
10.545000
  0
LINE
 10
0.671000
 11
0.224000
 20
10.545000
 21
10.505000
  0
LINE
 10
0.224000
 11
-0.224000
 20
10.505000
 21
10.505000
  0
LINE
 10
-0.224000
 11
-0.671000
 20
10.505000
 21
10.545000
  0
LINE
 10
-0.671000
 11
-1.113000
 20
10.545000
 21
10.625000
  0
LINE
 10
-1.113000
 11
-1.545000
 20
10.625000
 21
10.745000
  0
LINE
 10
-1.545000
 11
-1.965000
 20
10.745000
 21
10.902000
  0
LINE
 10
-1.965000
 11
-2.369000
 20
10.902000
 21
11.097000
  0
LINE
 10
-2.369000
 11
-2.754000
 20
11.097000
 21
11.327000
  0
LINE
 10
-2.754000
 11
-3.117000
 20
11.327000
 21
11.591000
  0
LINE
 10
-3.117000
 11
-3.455000
 20
11.591000
 21
11.886000
  0
LINE
 10
-3.455000
 11
-3.765000
 20
11.886000
 21
12.210000
  0
LINE
 10
-3.765000
 11
-4.045000
 20
12.210000
 21
12.561000
  0
LINE
 10
-4.045000
 11
-4.292000
 20
12.561000
 21
12.936000
  0
LINE
 10
-4.292000
 11
-4.505000
 20
12.936000
 21
13.331000
  0
LINE
 10
-4.505000
 11
-4.681000
 20
13.331000
 21
13.743000
  0
LINE
 10
-4.681000
 11
-4.820000
 20
13.743000
 21
14.170000
  0
LINE
 10
-4.820000
 11
-4.920000
 20
14.170000
 21
14.607000
  0
LINE
 10
-4.920000
 11
-4.980000
 20
14.607000
 21
15.052000
  0
LINE
 10
-4.980000
 11
-5.000000
 20
15.052000
 21
15.500000
  0
LINE
 10
-3.500000
 11
-3.486000
 20
26.900000
 21
27.214000
  0
LINE
 10
-3.486000
 11
-3.444000
 20
27.214000
 21
27.525000
  0
LINE
 10
-3.444000
 11
-3.374000
 20
27.525000
 21
27.831000
  0
LINE
 10
-3.374000
 11
-3.277000
 20
27.831000
 21
28.130000
  0
LINE
 10
-3.277000
 11
-3.153000
 20
28.130000
 21
28.419000
  0
LINE
 10
-3.153000
 11
-3.005000
 20
28.419000
 21
28.695000
  0
LINE
 10
-3.005000
 11
-2.832000
 20
28.695000
 21
28.957000
  0
LINE
 10
-2.832000
 11
-2.636000
 20
28.957000
 21
29.203000
  0
LINE
 10
-2.636000
 11
-2.419000
 20
29.203000
 21
29.430000
  0
LINE
 10
-2.419000
 11
-2.182000
 20
29.430000
 21
29.636000
  0
LINE
 10
-2.182000
 11
-1.928000
 20
29.636000
 21
29.821000
  0
LINE
 10
-1.928000
 11
-1.659000
 20
29.821000
 21
29.982000
  0
LINE
 10
-1.659000
 11
-1.376000
 20
29.982000
 21
30.118000
  0
LINE
 10
-1.376000
 11
-1.082000
 20
30.118000
 21
30.229000
  0
LINE
 10
-1.082000
 11
-0.779000
 20
30.229000
 21
30.312000
  0
LINE
 10
-0.779000
 11
-0.470000
 20
30.312000
 21
30.368000
  0
LINE
 10
-0.470000
 11
-0.157000
 20
30.368000
 21
30.396000
  0
LINE
 10
-0.157000
 11
0.157000
 20
30.396000
 21
30.396000
  0
LINE
 10
0.157000
 11
0.470000
 20
30.396000
 21
30.368000
  0
LINE
 10
0.470000
 11
0.779000
 20
30.368000
 21
30.312000
  0
LINE
 10
0.779000
 11
1.082000
 20
30.312000
 21
30.229000
  0
LINE
 10
1.082000
 11
1.376000
 20
30.229000
 21
30.118000
  0
LINE
 10
1.376000
 11
1.659000
 20
30.118000
 21
29.982000
  0
LINE
 10
1.659000
 11
1.928000
 20
29.982000
 21
29.821000
  0
LINE
 10
1.928000
 11
2.182000
 20
29.821000
 21
29.636000
  0
LINE
 10
2.182000
 11
2.419000
 20
29.636000
 21
29.430000
  0
LINE
 10
2.419000
 11
2.636000
 20
29.430000
 21
29.203000
  0
LINE
 10
2.636000
 11
2.832000
 20
29.203000
 21
28.957000
  0
LINE
 10
2.832000
 11
3.005000
 20
28.957000
 21
28.695000
  0
LINE
 10
3.005000
 11
3.153000
 20
28.695000
 21
28.419000
  0
LINE
 10
3.153000
 11
3.277000
 20
28.419000
 21
28.130000
  0
LINE
 10
3.277000
 11
3.374000
 20
28.130000
 21
27.831000
  0
LINE
 10
3.374000
 11
3.444000
 20
27.831000
 21
27.525000
  0
LINE
 10
3.444000
 11
3.486000
 20
27.525000
 21
27.214000
  0
LINE
 10
3.486000
 11
3.500000
 20
27.214000
 21
26.900000
  0
LINE
 10
3.500000
 11
3.486000
 20
26.900000
 21
26.586000
  0
LINE
 10
3.486000
 11
3.444000
 20
26.586000
 21
26.275000
  0
LINE
 10
3.444000
 11
3.374000
 20
26.275000
 21
25.969000
  0
LINE
 10
3.374000
 11
3.277000
 20
25.969000
 21
25.670000
  0
LINE
 10
3.277000
 11
3.153000
 20
25.670000
 21
25.381000
  0
LINE
 10
3.153000
 11
3.005000
 20
25.381000
 21
25.105000
  0
LINE
 10
3.005000
 11
2.832000
 20
25.105000
 21
24.843000
  0
LINE
 10
2.832000
 11
2.636000
 20
24.843000
 21
24.597000
  0
LINE
 10
2.636000
 11
2.419000
 20
24.597000
 21
24.370000
  0
LINE
 10
2.419000
 11
2.182000
 20
24.370000
 21
24.164000
  0
LINE
 10
2.182000
 11
1.928000
 20
24.164000
 21
23.979000
  0
LINE
 10
1.928000
 11
1.659000
 20
23.979000
 21
23.818000
  0
LINE
 10
1.659000
 11
1.376000
 20
23.818000
 21
23.682000
  0
LINE
 10
1.376000
 11
1.082000
 20
23.682000
 21
23.571000
  0
LINE
 10
1.082000
 11
0.779000
 20
23.571000
 21
23.488000
  0
LINE
 10
0.779000
 11
0.470000
 20
23.488000
 21
23.432000
  0
LINE
 10
0.470000
 11
0.157000
 20
23.432000
 21
23.404000
  0
LINE
 10
0.157000
 11
-0.157000
 20
23.404000
 21
23.404000
  0
LINE
 10
-0.157000
 11
-0.470000
 20
23.404000
 21
23.432000
  0
LINE
 10
-0.470000
 11
-0.779000
 20
23.432000
 21
23.488000
  0
LINE
 10
-0.779000
 11
-1.082000
 20
23.488000
 21
23.571000
  0
LINE
 10
-1.082000
 11
-1.376000
 20
23.571000
 21
23.682000
  0
LINE
 10
-1.376000
 11
-1.659000
 20
23.682000
 21
23.818000
  0
LINE
 10
-1.659000
 11
-1.928000
 20
23.818000
 21
23.979000
  0
LINE
 10
-1.928000
 11
-2.182000
 20
23.979000
 21
24.164000
  0
LINE
 10
-2.182000
 11
-2.419000
 20
24.164000
 21
24.370000
  0
LINE
 10
-2.419000
 11
-2.636000
 20
24.370000
 21
24.597000
  0
LINE
 10
-2.636000
 11
-2.832000
 20
24.597000
 21
24.843000
  0
LINE
 10
-2.832000
 11
-3.005000
 20
24.843000
 21
25.105000
  0
LINE
 10
-3.005000
 11
-3.153000
 20
25.105000
 21
25.381000
  0
LINE
 10
-3.153000
 11
-3.277000
 20
25.381000
 21
25.670000
  0
LINE
 10
-3.277000
 11
-3.374000
 20
25.670000
 21
25.969000
  0
LINE
 10
-3.374000
 11
-3.444000
 20
25.969000
 21
26.275000
  0
LINE
 10
-3.444000
 11
-3.486000
 20
26.275000
 21
26.586000
  0
LINE
 10
-3.486000
 11
-3.500000
 20
26.586000
 21
26.900000
  0
LINE
 10
12.900000
 11
12.908000
 20
8.000000
 21
8.188000
  0
LINE
 10
12.908000
 11
12.934000
 20
8.188000
 21
8.375000
  0
LINE
 10
12.934000
 11
12.976000
 20
8.375000
 21
8.559000
  0
LINE
 10
12.976000
 11
13.034000
 20
8.559000
 21
8.738000
  0
LINE
 10
13.034000
 11
13.108000
 20
8.738000
 21
8.911000
  0
LINE
 10
13.108000
 11
13.197000
 20
8.911000
 21
9.077000
  0
LINE
 10
13.197000
 11
13.301000
 20
9.077000
 21
9.234000
  0
LINE
 10
13.301000
 11
13.419000
 20
9.234000
 21
9.382000
  0
LINE
 10
13.419000
 11
13.549000
 20
9.382000
 21
9.518000
  0
LINE
 10
13.549000
 11
13.691000
 20
9.518000
 21
9.642000
  0
LINE
 10
13.691000
 11
13.843000
 20
9.642000
 21
9.753000
  0
LINE
 10
13.843000
 11
14.005000
 20
9.753000
 21
9.849000
  0
LINE
 10
14.005000
 11
14.175000
 20
9.849000
 21
9.931000
  0
LINE
 10
14.175000
 11
14.351000
 20
9.931000
 21
9.997000
  0
LINE
 10
14.351000
 11
14.533000
 20
9.997000
 21
10.047000
  0
LINE
 10
14.533000
 11
14.718000
 20
10.047000
 21
10.081000
  0
LINE
 10
14.718000
 11
14.906000
 20
10.081000
 21
10.098000
  0
LINE
 10
14.906000
 11
15.094000
 20
10.098000
 21
10.098000
  0
LINE
 10
15.094000
 11
15.282000
 20
10.098000
 21
10.081000
  0
LINE
 10
15.282000
 11
15.467000
 20
10.081000
 21
10.047000
  0
LINE
 10
15.467000
 11
15.649000
 20
10.047000
 21
9.997000
  0
LINE
 10
15.649000
 11
15.825000
 20
9.997000
 21
9.931000
  0
LINE
 10
15.825000
 11
15.995000
 20
9.931000
 21
9.849000
  0
LINE
 10
15.995000
 11
16.157000
 20
9.849000
 21
9.753000
  0
LINE
 10
16.157000
 11
16.309000
 20
9.753000
 21
9.642000
  0
LINE
 10
16.309000
 11
16.451000
 20
9.642000
 21
9.518000
  0
LINE
 10
16.451000
 11
16.581000
 20
9.518000
 21
9.382000
  0
LINE
 10
16.581000
 11
16.699000
 20
9.382000
 21
9.234000
  0
LINE
 10
16.699000
 11
16.803000
 20
9.234000
 21
9.077000
  0
LINE
 10
16.803000
 11
16.892000
 20
9.077000
 21
8.911000
  0
LINE
 10
16.892000
 11
16.966000
 20
8.911000
 21
8.738000
  0
LINE
 10
16.966000
 11
17.024000
 20
8.738000
 21
8.559000
  0
LINE
 10
17.024000
 11
17.066000
 20
8.559000
 21
8.375000
  0
LINE
 10
17.066000
 11
17.092000
 20
8.375000
 21
8.188000
  0
LINE
 10
17.092000
 11
17.100000
 20
8.188000
 21
8.000000
  0
LINE
 10
17.100000
 11
17.092000
 20
8.000000
 21
7.812000
  0
LINE
 10
17.092000
 11
17.066000
 20
7.812000
 21
7.625000
  0
LINE
 10
17.066000
 11
17.024000
 20
7.625000
 21
7.441000
  0
LINE
 10
17.024000
 11
16.966000
 20
7.441000
 21
7.262000
  0
LINE
 10
16.966000
 11
16.892000
 20
7.262000
 21
7.089000
  0
LINE
 10
16.892000
 11
16.803000
 20
7.089000
 21
6.923000
  0
LINE
 10
16.803000
 11
16.699000
 20
6.923000
 21
6.766000
  0
LINE
 10
16.699000
 11
16.581000
 20
6.766000
 21
6.618000
  0
LINE
 10
16.581000
 11
16.451000
 20
6.618000
 21
6.482000
  0
LINE
 10
16.451000
 11
16.309000
 20
6.482000
 21
6.358000
  0
LINE
 10
16.309000
 11
16.157000
 20
6.358000
 21
6.247000
  0
LINE
 10
16.157000
 11
15.995000
 20
6.247000
 21
6.151000
  0
LINE
 10
15.995000
 11
15.825000
 20
6.151000
 21
6.069000
  0
LINE
 10
15.825000
 11
15.649000
 20
6.069000
 21
6.003000
  0
LINE
 10
15.649000
 11
15.467000
 20
6.003000
 21
5.953000
  0
LINE
 10
15.467000
 11
15.282000
 20
5.953000
 21
5.919000
  0
LINE
 10
15.282000
 11
15.094000
 20
5.919000
 21
5.902000
  0
LINE
 10
15.094000
 11
14.906000
 20
5.902000
 21
5.902000
  0
LINE
 10
14.906000
 11
14.718000
 20
5.902000
 21
5.919000
  0
LINE
 10
14.718000
 11
14.533000
 20
5.919000
 21
5.953000
  0
LINE
 10
14.533000
 11
14.351000
 20
5.953000
 21
6.003000
  0
LINE
 10
14.351000
 11
14.175000
 20
6.003000
 21
6.069000
  0
LINE
 10
14.175000
 11
14.005000
 20
6.069000
 21
6.151000
  0
LINE
 10
14.005000
 11
13.843000
 20
6.151000
 21
6.247000
  0
LINE
 10
13.843000
 11
13.691000
 20
6.247000
 21
6.358000
  0
LINE
 10
13.691000
 11
13.549000
 20
6.358000
 21
6.482000
  0
LINE
 10
13.549000
 11
13.419000
 20
6.482000
 21
6.618000
  0
LINE
 10
13.419000
 11
13.301000
 20
6.618000
 21
6.766000
  0
LINE
 10
13.301000
 11
13.197000
 20
6.766000
 21
6.923000
  0
LINE
 10
13.197000
 11
13.108000
 20
6.923000
 21
7.089000
  0
LINE
 10
13.108000
 11
13.034000
 20
7.089000
 21
7.262000
  0
LINE
 10
13.034000
 11
12.976000
 20
7.262000
 21
7.441000
  0
LINE
 10
12.976000
 11
12.934000
 20
7.441000
 21
7.625000
  0
LINE
 10
12.934000
 11
12.908000
 20
7.625000
 21
7.812000
  0
LINE
 10
12.908000
 11
12.900000
 20
7.812000
 21
8.000000
  0
LINE
 10
12.900000
 11
12.908000
 20
40.000000
 21
40.188000
  0
LINE
 10
12.908000
 11
12.934000
 20
40.188000
 21
40.375000
  0
LINE
 10
12.934000
 11
12.976000
 20
40.375000
 21
40.559000
  0
LINE
 10
12.976000
 11
13.034000
 20
40.559000
 21
40.738000
  0
LINE
 10
13.034000
 11
13.108000
 20
40.738000
 21
40.911000
  0
LINE
 10
13.108000
 11
13.197000
 20
40.911000
 21
41.077000
  0
LINE
 10
13.197000
 11
13.301000
 20
41.077000
 21
41.234000
  0
LINE
 10
13.301000
 11
13.419000
 20
41.234000
 21
41.382000
  0
LINE
 10
13.419000
 11
13.549000
 20
41.382000
 21
41.518000
  0
LINE
 10
13.549000
 11
13.691000
 20
41.518000
 21
41.642000
  0
LINE
 10
13.691000
 11
13.843000
 20
41.642000
 21
41.753000
  0
LINE
 10
13.843000
 11
14.005000
 20
41.753000
 21
41.849000
  0
LINE
 10
14.005000
 11
14.175000
 20
41.849000
 21
41.931000
  0
LINE
 10
14.175000
 11
14.351000
 20
41.931000
 21
41.997000
  0
LINE
 10
14.351000
 11
14.533000
 20
41.997000
 21
42.047000
  0
LINE
 10
14.533000
 11
14.718000
 20
42.047000
 21
42.081000
  0
LINE
 10
14.718000
 11
14.906000
 20
42.081000
 21
42.098000
  0
LINE
 10
14.906000
 11
15.094000
 20
42.098000
 21
42.098000
  0
LINE
 10
15.094000
 11
15.282000
 20
42.098000
 21
42.081000
  0
LINE
 10
15.282000
 11
15.467000
 20
42.081000
 21
42.047000
  0
LINE
 10
15.467000
 11
15.649000
 20
42.047000
 21
41.997000
  0
LINE
 10
15.649000
 11
15.825000
 20
41.997000
 21
41.931000
  0
LINE
 10
15.825000
 11
15.995000
 20
41.931000
 21
41.849000
  0
LINE
 10
15.995000
 11
16.157000
 20
41.849000
 21
41.753000
  0
LINE
 10
16.157000
 11
16.309000
 20
41.753000
 21
41.642000
  0
LINE
 10
16.309000
 11
16.451000
 20
41.642000
 21
41.518000
  0
LINE
 10
16.451000
 11
16.581000
 20
41.518000
 21
41.382000
  0
LINE
 10
16.581000
 11
16.699000
 20
41.382000
 21
41.234000
  0
LINE
 10
16.699000
 11
16.803000
 20
41.234000
 21
41.077000
  0
LINE
 10
16.803000
 11
16.892000
 20
41.077000
 21
40.911000
  0
LINE
 10
16.892000
 11
16.966000
 20
40.911000
 21
40.738000
  0
LINE
 10
16.966000
 11
17.024000
 20
40.738000
 21
40.559000
  0
LINE
 10
17.024000
 11
17.066000
 20
40.559000
 21
40.375000
  0
LINE
 10
17.066000
 11
17.092000
 20
40.375000
 21
40.188000
  0
LINE
 10
17.092000
 11
17.100000
 20
40.188000
 21
40.000000
  0
LINE
 10
17.100000
 11
17.092000
 20
40.000000
 21
39.812000
  0
LINE
 10
17.092000
 11
17.066000
 20
39.812000
 21
39.625000
  0
LINE
 10
17.066000
 11
17.024000
 20
39.625000
 21
39.441000
  0
LINE
 10
17.024000
 11
16.966000
 20
39.441000
 21
39.262000
  0
LINE
 10
16.966000
 11
16.892000
 20
39.262000
 21
39.089000
  0
LINE
 10
16.892000
 11
16.803000
 20
39.089000
 21
38.923000
  0
LINE
 10
16.803000
 11
16.699000
 20
38.923000
 21
38.766000
  0
LINE
 10
16.699000
 11
16.581000
 20
38.766000
 21
38.618000
  0
LINE
 10
16.581000
 11
16.451000
 20
38.618000
 21
38.482000
  0
LINE
 10
16.451000
 11
16.309000
 20
38.482000
 21
38.358000
  0
LINE
 10
16.309000
 11
16.157000
 20
38.358000
 21
38.247000
  0
LINE
 10
16.157000
 11
15.995000
 20
38.247000
 21
38.151000
  0
LINE
 10
15.995000
 11
15.825000
 20
38.151000
 21
38.069000
  0
LINE
 10
15.825000
 11
15.649000
 20
38.069000
 21
38.003000
  0
LINE
 10
15.649000
 11
15.467000
 20
38.003000
 21
37.953000
  0
LINE
 10
15.467000
 11
15.282000
 20
37.953000
 21
37.919000
  0
LINE
 10
15.282000
 11
15.094000
 20
37.919000
 21
37.902000
  0
LINE
 10
15.094000
 11
14.906000
 20
37.902000
 21
37.902000
  0
LINE
 10
14.906000
 11
14.718000
 20
37.902000
 21
37.919000
  0
LINE
 10
14.718000
 11
14.533000
 20
37.919000
 21
37.953000
  0
LINE
 10
14.533000
 11
14.351000
 20
37.953000
 21
38.003000
  0
LINE
 10
14.351000
 11
14.175000
 20
38.003000
 21
38.069000
  0
LINE
 10
14.175000
 11
14.005000
 20
38.069000
 21
38.151000
  0
LINE
 10
14.005000
 11
13.843000
 20
38.151000
 21
38.247000
  0
LINE
 10
13.843000
 11
13.691000
 20
38.247000
 21
38.358000
  0
LINE
 10
13.691000
 11
13.549000
 20
38.358000
 21
38.482000
  0
LINE
 10
13.549000
 11
13.419000
 20
38.482000
 21
38.618000
  0
LINE
 10
13.419000
 11
13.301000
 20
38.618000
 21
38.766000
  0
LINE
 10
13.301000
 11
13.197000
 20
38.766000
 21
38.923000
  0
LINE
 10
13.197000
 11
13.108000
 20
38.923000
 21
39.089000
  0
LINE
 10
13.108000
 11
13.034000
 20
39.089000
 21
39.262000
  0
LINE
 10
13.034000
 11
12.976000
 20
39.262000
 21
39.441000
  0
LINE
 10
12.976000
 11
12.934000
 20
39.441000
 21
39.625000
  0
LINE
 10
12.934000
 11
12.908000
 20
39.625000
 21
39.812000
  0
LINE
 10
12.908000
 11
12.900000
 20
39.812000
 21
40.000000
  0
ENDSEC
  0
EOF
