  0
SECTION
  2
ENTITIES
  0
LINE
 10
-20.000000
 11
-20.000000
 20
3.000000
 21
17.850000
  0
LINE
 10
-20.000000
 11
-13.500000
 20
17.850000
 21
17.850000
  0
LINE
 10
-13.500000
 11
-13.500000
 20
17.850000
 21
16.100000
  0
LINE
 10
-13.500000
 11
-11.000000
 20
16.100000
 21
16.100000
  0
LINE
 10
-11.000000
 11
-11.000000
 20
16.100000
 21
15.000000
  0
LINE
 10
-11.000000
 11
-4.973000
 20
15.000000
 21
15.000000
  0
LINE
 10
-4.973000
 11
-4.920000
 20
15.000000
 21
14.607000
  0
LINE
 10
-4.920000
 11
-4.820000
 20
14.607000
 21
14.170000
  0
LINE
 10
-4.820000
 11
-4.681000
 20
14.170000
 21
13.743000
  0
LINE
 10
-4.681000
 11
-4.505000
 20
13.743000
 21
13.331000
  0
LINE
 10
-4.505000
 11
-4.292000
 20
13.331000
 21
12.936000
  0
LINE
 10
-4.292000
 11
-4.045000
 20
12.936000
 21
12.561000
  0
LINE
 10
-4.045000
 11
-3.765000
 20
12.561000
 21
12.210000
  0
LINE
 10
-3.765000
 11
-3.455000
 20
12.210000
 21
11.886000
  0
LINE
 10
-3.455000
 11
-3.117000
 20
11.886000
 21
11.591000
  0
LINE
 10
-3.117000
 11
-2.754000
 20
11.591000
 21
11.327000
  0
LINE
 10
-2.754000
 11
-2.369000
 20
11.327000
 21
11.097000
  0
LINE
 10
-2.369000
 11
-1.965000
 20
11.097000
 21
10.902000
  0
LINE
 10
-1.965000
 11
-1.545000
 20
10.902000
 21
10.745000
  0
LINE
 10
-1.545000
 11
-1.113000
 20
10.745000
 21
10.625000
  0
LINE
 10
-1.113000
 11
-0.671000
 20
10.625000
 21
10.545000
  0
LINE
 10
-0.671000
 11
-0.224000
 20
10.545000
 21
10.505000
  0
LINE
 10
-0.224000
 11
0.224000
 20
10.505000
 21
10.505000
  0
LINE
 10
0.224000
 11
0.671000
 20
10.505000
 21
10.545000
  0
LINE
 10
0.671000
 11
1.113000
 20
10.545000
 21
10.625000
  0
LINE
 10
1.113000
 11
1.545000
 20
10.625000
 21
10.745000
  0
LINE
 10
1.545000
 11
1.965000
 20
10.745000
 21
10.902000
  0
LINE
 10
1.965000
 11
2.369000
 20
10.902000
 21
11.097000
  0
LINE
 10
2.369000
 11
2.754000
 20
11.097000
 21
11.327000
  0
LINE
 10
2.754000
 11
3.117000
 20
11.327000
 21
11.591000
  0
LINE
 10
3.117000
 11
3.455000
 20
11.591000
 21
11.886000
  0
LINE
 10
3.455000
 11
3.765000
 20
11.886000
 21
12.210000
  0
LINE
 10
3.765000
 11
4.045000
 20
12.210000
 21
12.561000
  0
LINE
 10
4.045000
 11
4.292000
 20
12.561000
 21
12.936000
  0
LINE
 10
4.292000
 11
4.505000
 20
12.936000
 21
13.331000
  0
LINE
 10
4.505000
 11
4.681000
 20
13.331000
 21
13.743000
  0
LINE
 10
4.681000
 11
4.820000
 20
13.743000
 21
14.170000
  0
LINE
 10
4.820000
 11
4.920000
 20
14.170000
 21
14.607000
  0
LINE
 10
4.920000
 11
4.973000
 20
14.607000
 21
15.000000
  0
LINE
 10
4.973000
 11
11.000000
 20
15.000000
 21
15.000000
  0
LINE
 10
11.000000
 11
11.000000
 20
15.000000
 21
16.100000
  0
LINE
 10
11.000000
 11
13.500000
 20
16.100000
 21
16.100000
  0
LINE
 10
13.500000
 11
13.500000
 20
16.100000
 21
17.850000
  0
LINE
 10
13.500000
 11
20.000000
 20
17.850000
 21
17.850000
  0
LINE
 10
20.000000
 11
20.000000
 20
17.850000
 21
3.000000
  0
LINE
 10
20.000000
 11
-20.000000
 20
3.000000
 21
3.000000
  0
LINE
 10
-20.000000
 11
-20.000000
 20
24.350000
 21
45.000000
  0
LINE
 10
-20.000000
 11
20.000000
 20
45.000000
 21
45.000000
  0
LINE
 10
20.000000
 11
20.000000
 20
45.000000
 21
24.350000
  0
LINE
 10
20.000000
 11
13.500000
 20
24.350000
 21
24.350000
  0
LINE
 10
13.500000
 11
13.500000
 20
24.350000
 21
26.100000
  0
LINE
 10
13.500000
 11
11.000000
 20
26.100000
 21
26.100000
  0
LINE
 10
11.000000
 11
11.000000
 20
26.100000
 21
35.000000
  0
LINE
 10
11.000000
 11
-11.000000
 20
35.000000
 21
35.000000
  0
LINE
 10
-11.000000
 11
-11.000000
 20
35.000000
 21
26.100000
  0
LINE
 10
-11.000000
 11
-13.500000
 20
26.100000
 21
26.100000
  0
LINE
 10
-13.500000
 11
-13.500000
 20
26.100000
 21
24.350000
  0
LINE
 10
-13.500000
 11
-20.000000
 20
24.350000
 21
24.350000
  0
LINE
 10
-17.100000
 11
-17.092000
 20
8.000000
 21
8.188000
  0
LINE
 10
-17.092000
 11
-17.066000
 20
8.188000
 21
8.375000
  0
LINE
 10
-17.066000
 11
-17.024000
 20
8.375000
 21
8.559000
  0
LINE
 10
-17.024000
 11
-16.966000
 20
8.559000
 21
8.738000
  0
LINE
 10
-16.966000
 11
-16.892000
 20
8.738000
 21
8.911000
  0
LINE
 10
-16.892000
 11
-16.803000
 20
8.911000
 21
9.077000
  0
LINE
 10
-16.803000
 11
-16.699000
 20
9.077000
 21
9.234000
  0
LINE
 10
-16.699000
 11
-16.581000
 20
9.234000
 21
9.382000
  0
LINE
 10
-16.581000
 11
-16.451000
 20
9.382000
 21
9.518000
  0
LINE
 10
-16.451000
 11
-16.309000
 20
9.518000
 21
9.642000
  0
LINE
 10
-16.309000
 11
-16.157000
 20
9.642000
 21
9.753000
  0
LINE
 10
-16.157000
 11
-15.995000
 20
9.753000
 21
9.849000
  0
LINE
 10
-15.995000
 11
-15.825000
 20
9.849000
 21
9.931000
  0
LINE
 10
-15.825000
 11
-15.649000
 20
9.931000
 21
9.997000
  0
LINE
 10
-15.649000
 11
-15.467000
 20
9.997000
 21
10.047000
  0
LINE
 10
-15.467000
 11
-15.282000
 20
10.047000
 21
10.081000
  0
LINE
 10
-15.282000
 11
-15.094000
 20
10.081000
 21
10.098000
  0
LINE
 10
-15.094000
 11
-14.906000
 20
10.098000
 21
10.098000
  0
LINE
 10
-14.906000
 11
-14.718000
 20
10.098000
 21
10.081000
  0
LINE
 10
-14.718000
 11
-14.533000
 20
10.081000
 21
10.047000
  0
LINE
 10
-14.533000
 11
-14.351000
 20
10.047000
 21
9.997000
  0
LINE
 10
-14.351000
 11
-14.175000
 20
9.997000
 21
9.931000
  0
LINE
 10
-14.175000
 11
-14.005000
 20
9.931000
 21
9.849000
  0
LINE
 10
-14.005000
 11
-13.843000
 20
9.849000
 21
9.753000
  0
LINE
 10
-13.843000
 11
-13.691000
 20
9.753000
 21
9.642000
  0
LINE
 10
-13.691000
 11
-13.549000
 20
9.642000
 21
9.518000
  0
LINE
 10
-13.549000
 11
-13.419000
 20
9.518000
 21
9.382000
  0
LINE
 10
-13.419000
 11
-13.301000
 20
9.382000
 21
9.234000
  0
LINE
 10
-13.301000
 11
-13.197000
 20
9.234000
 21
9.077000
  0
LINE
 10
-13.197000
 11
-13.108000
 20
9.077000
 21
8.911000
  0
LINE
 10
-13.108000
 11
-13.034000
 20
8.911000
 21
8.738000
  0
LINE
 10
-13.034000
 11
-12.976000
 20
8.738000
 21
8.559000
  0
LINE
 10
-12.976000
 11
-12.934000
 20
8.559000
 21
8.375000
  0
LINE
 10
-12.934000
 11
-12.908000
 20
8.375000
 21
8.188000
  0
LINE
 10
-12.908000
 11
-12.900000
 20
8.188000
 21
8.000000
  0
LINE
 10
-12.900000
 11
-12.908000
 20
8.000000
 21
7.812000
  0
LINE
 10
-12.908000
 11
-12.934000
 20
7.812000
 21
7.625000
  0
LINE
 10
-12.934000
 11
-12.976000
 20
7.625000
 21
7.441000
  0
LINE
 10
-12.976000
 11
-13.034000
 20
7.441000
 21
7.262000
  0
LINE
 10
-13.034000
 11
-13.108000
 20
7.262000
 21
7.089000
  0
LINE
 10
-13.108000
 11
-13.197000
 20
7.089000
 21
6.923000
  0
LINE
 10
-13.197000
 11
-13.301000
 20
6.923000
 21
6.766000
  0
LINE
 10
-13.301000
 11
-13.419000
 20
6.766000
 21
6.618000
  0
LINE
 10
-13.419000
 11
-13.549000
 20
6.618000
 21
6.482000
  0
LINE
 10
-13.549000
 11
-13.691000
 20
6.482000
 21
6.358000
  0
LINE
 10
-13.691000
 11
-13.843000
 20
6.358000
 21
6.247000
  0
LINE
 10
-13.843000
 11
-14.005000
 20
6.247000
 21
6.151000
  0
LINE
 10
-14.005000
 11
-14.175000
 20
6.151000
 21
6.069000
  0
LINE
 10
-14.175000
 11
-14.351000
 20
6.069000
 21
6.003000
  0
LINE
 10
-14.351000
 11
-14.533000
 20
6.003000
 21
5.953000
  0
LINE
 10
-14.533000
 11
-14.718000
 20
5.953000
 21
5.919000
  0
LINE
 10
-14.718000
 11
-14.906000
 20
5.919000
 21
5.902000
  0
LINE
 10
-14.906000
 11
-15.094000
 20
5.902000
 21
5.902000
  0
LINE
 10
-15.094000
 11
-15.282000
 20
5.902000
 21
5.919000
  0
LINE
 10
-15.282000
 11
-15.467000
 20
5.919000
 21
5.953000
  0
LINE
 10
-15.467000
 11
-15.649000
 20
5.953000
 21
6.003000
  0
LINE
 10
-15.649000
 11
-15.825000
 20
6.003000
 21
6.069000
  0
LINE
 10
-15.825000
 11
-15.995000
 20
6.069000
 21
6.151000
  0
LINE
 10
-15.995000
 11
-16.157000
 20
6.151000
 21
6.247000
  0
LINE
 10
-16.157000
 11
-16.309000
 20
6.247000
 21
6.358000
  0
LINE
 10
-16.309000
 11
-16.451000
 20
6.358000
 21
6.482000
  0
LINE
 10
-16.451000
 11
-16.581000
 20
6.482000
 21
6.618000
  0
LINE
 10
-16.581000
 11
-16.699000
 20
6.618000
 21
6.766000
  0
LINE
 10
-16.699000
 11
-16.803000
 20
6.766000
 21
6.923000
  0
LINE
 10
-16.803000
 11
-16.892000
 20
6.923000
 21
7.089000
  0
LINE
 10
-16.892000
 11
-16.966000
 20
7.089000
 21
7.262000
  0
LINE
 10
-16.966000
 11
-17.024000
 20
7.262000
 21
7.441000
  0
LINE
 10
-17.024000
 11
-17.066000
 20
7.441000
 21
7.625000
  0
LINE
 10
-17.066000
 11
-17.092000
 20
7.625000
 21
7.812000
  0
LINE
 10
-17.092000
 11
-17.100000
 20
7.812000
 21
8.000000
  0
LINE
 10
-17.100000
 11
-17.092000
 20
40.000000
 21
40.188000
  0
LINE
 10
-17.092000
 11
-17.066000
 20
40.188000
 21
40.375000
  0
LINE
 10
-17.066000
 11
-17.024000
 20
40.375000
 21
40.559000
  0
LINE
 10
-17.024000
 11
-16.966000
 20
40.559000
 21
40.738000
  0
LINE
 10
-16.966000
 11
-16.892000
 20
40.738000
 21
40.911000
  0
LINE
 10
-16.892000
 11
-16.803000
 20
40.911000
 21
41.077000
  0
LINE
 10
-16.803000
 11
-16.699000
 20
41.077000
 21
41.234000
  0
LINE
 10
-16.699000
 11
-16.581000
 20
41.234000
 21
41.382000
  0
LINE
 10
-16.581000
 11
-16.451000
 20
41.382000
 21
41.518000
  0
LINE
 10
-16.451000
 11
-16.309000
 20
41.518000
 21
41.642000
  0
LINE
 10
-16.309000
 11
-16.157000
 20
41.642000
 21
41.753000
  0
LINE
 10
-16.157000
 11
-15.995000
 20
41.753000
 21
41.849000
  0
LINE
 10
-15.995000
 11
-15.825000
 20
41.849000
 21
41.931000
  0
LINE
 10
-15.825000
 11
-15.649000
 20
41.931000
 21
41.997000
  0
LINE
 10
-15.649000
 11
-15.467000
 20
41.997000
 21
42.047000
  0
LINE
 10
-15.467000
 11
-15.282000
 20
42.047000
 21
42.081000
  0
LINE
 10
-15.282000
 11
-15.094000
 20
42.081000
 21
42.098000
  0
LINE
 10
-15.094000
 11
-14.906000
 20
42.098000
 21
42.098000
  0
LINE
 10
-14.906000
 11
-14.718000
 20
42.098000
 21
42.081000
  0
LINE
 10
-14.718000
 11
-14.533000
 20
42.081000
 21
42.047000
  0
LINE
 10
-14.533000
 11
-14.351000
 20
42.047000
 21
41.997000
  0
LINE
 10
-14.351000
 11
-14.175000
 20
41.997000
 21
41.931000
  0
LINE
 10
-14.175000
 11
-14.005000
 20
41.931000
 21
41.849000
  0
LINE
 10
-14.005000
 11
-13.843000
 20
41.849000
 21
41.753000
  0
LINE
 10
-13.843000
 11
-13.691000
 20
41.753000
 21
41.642000
  0
LINE
 10
-13.691000
 11
-13.549000
 20
41.642000
 21
41.518000
  0
LINE
 10
-13.549000
 11
-13.419000
 20
41.518000
 21
41.382000
  0
LINE
 10
-13.419000
 11
-13.301000
 20
41.382000
 21
41.234000
  0
LINE
 10
-13.301000
 11
-13.197000
 20
41.234000
 21
41.077000
  0
LINE
 10
-13.197000
 11
-13.108000
 20
41.077000
 21
40.911000
  0
LINE
 10
-13.108000
 11
-13.034000
 20
40.911000
 21
40.738000
  0
LINE
 10
-13.034000
 11
-12.976000
 20
40.738000
 21
40.559000
  0
LINE
 10
-12.976000
 11
-12.934000
 20
40.559000
 21
40.375000
  0
LINE
 10
-12.934000
 11
-12.908000
 20
40.375000
 21
40.188000
  0
LINE
 10
-12.908000
 11
-12.900000
 20
40.188000
 21
40.000000
  0
LINE
 10
-12.900000
 11
-12.908000
 20
40.000000
 21
39.812000
  0
LINE
 10
-12.908000
 11
-12.934000
 20
39.812000
 21
39.625000
  0
LINE
 10
-12.934000
 11
-12.976000
 20
39.625000
 21
39.441000
  0
LINE
 10
-12.976000
 11
-13.034000
 20
39.441000
 21
39.262000
  0
LINE
 10
-13.034000
 11
-13.108000
 20
39.262000
 21
39.089000
  0
LINE
 10
-13.108000
 11
-13.197000
 20
39.089000
 21
38.923000
  0
LINE
 10
-13.197000
 11
-13.301000
 20
38.923000
 21
38.766000
  0
LINE
 10
-13.301000
 11
-13.419000
 20
38.766000
 21
38.618000
  0
LINE
 10
-13.419000
 11
-13.549000
 20
38.618000
 21
38.482000
  0
LINE
 10
-13.549000
 11
-13.691000
 20
38.482000
 21
38.358000
  0
LINE
 10
-13.691000
 11
-13.843000
 20
38.358000
 21
38.247000
  0
LINE
 10
-13.843000
 11
-14.005000
 20
38.247000
 21
38.151000
  0
LINE
 10
-14.005000
 11
-14.175000
 20
38.151000
 21
38.069000
  0
LINE
 10
-14.175000
 11
-14.351000
 20
38.069000
 21
38.003000
  0
LINE
 10
-14.351000
 11
-14.533000
 20
38.003000
 21
37.953000
  0
LINE
 10
-14.533000
 11
-14.718000
 20
37.953000
 21
37.919000
  0
LINE
 10
-14.718000
 11
-14.906000
 20
37.919000
 21
37.902000
  0
LINE
 10
-14.906000
 11
-15.094000
 20
37.902000
 21
37.902000
  0
LINE
 10
-15.094000
 11
-15.282000
 20
37.902000
 21
37.919000
  0
LINE
 10
-15.282000
 11
-15.467000
 20
37.919000
 21
37.953000
  0
LINE
 10
-15.467000
 11
-15.649000
 20
37.953000
 21
38.003000
  0
LINE
 10
-15.649000
 11
-15.825000
 20
38.003000
 21
38.069000
  0
LINE
 10
-15.825000
 11
-15.995000
 20
38.069000
 21
38.151000
  0
LINE
 10
-15.995000
 11
-16.157000
 20
38.151000
 21
38.247000
  0
LINE
 10
-16.157000
 11
-16.309000
 20
38.247000
 21
38.358000
  0
LINE
 10
-16.309000
 11
-16.451000
 20
38.358000
 21
38.482000
  0
LINE
 10
-16.451000
 11
-16.581000
 20
38.482000
 21
38.618000
  0
LINE
 10
-16.581000
 11
-16.699000
 20
38.618000
 21
38.766000
  0
LINE
 10
-16.699000
 11
-16.803000
 20
38.766000
 21
38.923000
  0
LINE
 10
-16.803000
 11
-16.892000
 20
38.923000
 21
39.089000
  0
LINE
 10
-16.892000
 11
-16.966000
 20
39.089000
 21
39.262000
  0
LINE
 10
-16.966000
 11
-17.024000
 20
39.262000
 21
39.441000
  0
LINE
 10
-17.024000
 11
-17.066000
 20
39.441000
 21
39.625000
  0
LINE
 10
-17.066000
 11
-17.092000
 20
39.625000
 21
39.812000
  0
LINE
 10
-17.092000
 11
-17.100000
 20
39.812000
 21
40.000000
  0
LINE
 10
12.900000
 11
12.908000
 20
8.000000
 21
8.188000
  0
LINE
 10
12.908000
 11
12.934000
 20
8.188000
 21
8.375000
  0
LINE
 10
12.934000
 11
12.976000
 20
8.375000
 21
8.559000
  0
LINE
 10
12.976000
 11
13.034000
 20
8.559000
 21
8.738000
  0
LINE
 10
13.034000
 11
13.108000
 20
8.738000
 21
8.911000
  0
LINE
 10
13.108000
 11
13.197000
 20
8.911000
 21
9.077000
  0
LINE
 10
13.197000
 11
13.301000
 20
9.077000
 21
9.234000
  0
LINE
 10
13.301000
 11
13.419000
 20
9.234000
 21
9.382000
  0
LINE
 10
13.419000
 11
13.549000
 20
9.382000
 21
9.518000
  0
LINE
 10
13.549000
 11
13.691000
 20
9.518000
 21
9.642000
  0
LINE
 10
13.691000
 11
13.843000
 20
9.642000
 21
9.753000
  0
LINE
 10
13.843000
 11
14.005000
 20
9.753000
 21
9.849000
  0
LINE
 10
14.005000
 11
14.175000
 20
9.849000
 21
9.931000
  0
LINE
 10
14.175000
 11
14.351000
 20
9.931000
 21
9.997000
  0
LINE
 10
14.351000
 11
14.533000
 20
9.997000
 21
10.047000
  0
LINE
 10
14.533000
 11
14.718000
 20
10.047000
 21
10.081000
  0
LINE
 10
14.718000
 11
14.906000
 20
10.081000
 21
10.098000
  0
LINE
 10
14.906000
 11
15.094000
 20
10.098000
 21
10.098000
  0
LINE
 10
15.094000
 11
15.282000
 20
10.098000
 21
10.081000
  0
LINE
 10
15.282000
 11
15.467000
 20
10.081000
 21
10.047000
  0
LINE
 10
15.467000
 11
15.649000
 20
10.047000
 21
9.997000
  0
LINE
 10
15.649000
 11
15.825000
 20
9.997000
 21
9.931000
  0
LINE
 10
15.825000
 11
15.995000
 20
9.931000
 21
9.849000
  0
LINE
 10
15.995000
 11
16.157000
 20
9.849000
 21
9.753000
  0
LINE
 10
16.157000
 11
16.309000
 20
9.753000
 21
9.642000
  0
LINE
 10
16.309000
 11
16.451000
 20
9.642000
 21
9.518000
  0
LINE
 10
16.451000
 11
16.581000
 20
9.518000
 21
9.382000
  0
LINE
 10
16.581000
 11
16.699000
 20
9.382000
 21
9.234000
  0
LINE
 10
16.699000
 11
16.803000
 20
9.234000
 21
9.077000
  0
LINE
 10
16.803000
 11
16.892000
 20
9.077000
 21
8.911000
  0
LINE
 10
16.892000
 11
16.966000
 20
8.911000
 21
8.738000
  0
LINE
 10
16.966000
 11
17.024000
 20
8.738000
 21
8.559000
  0
LINE
 10
17.024000
 11
17.066000
 20
8.559000
 21
8.375000
  0
LINE
 10
17.066000
 11
17.092000
 20
8.375000
 21
8.188000
  0
LINE
 10
17.092000
 11
17.100000
 20
8.188000
 21
8.000000
  0
LINE
 10
17.100000
 11
17.092000
 20
8.000000
 21
7.812000
  0
LINE
 10
17.092000
 11
17.066000
 20
7.812000
 21
7.625000
  0
LINE
 10
17.066000
 11
17.024000
 20
7.625000
 21
7.441000
  0
LINE
 10
17.024000
 11
16.966000
 20
7.441000
 21
7.262000
  0
LINE
 10
16.966000
 11
16.892000
 20
7.262000
 21
7.089000
  0
LINE
 10
16.892000
 11
16.803000
 20
7.089000
 21
6.923000
  0
LINE
 10
16.803000
 11
16.699000
 20
6.923000
 21
6.766000
  0
LINE
 10
16.699000
 11
16.581000
 20
6.766000
 21
6.618000
  0
LINE
 10
16.581000
 11
16.451000
 20
6.618000
 21
6.482000
  0
LINE
 10
16.451000
 11
16.309000
 20
6.482000
 21
6.358000
  0
LINE
 10
16.309000
 11
16.157000
 20
6.358000
 21
6.247000
  0
LINE
 10
16.157000
 11
15.995000
 20
6.247000
 21
6.151000
  0
LINE
 10
15.995000
 11
15.825000
 20
6.151000
 21
6.069000
  0
LINE
 10
15.825000
 11
15.649000
 20
6.069000
 21
6.003000
  0
LINE
 10
15.649000
 11
15.467000
 20
6.003000
 21
5.953000
  0
LINE
 10
15.467000
 11
15.282000
 20
5.953000
 21
5.919000
  0
LINE
 10
15.282000
 11
15.094000
 20
5.919000
 21
5.902000
  0
LINE
 10
15.094000
 11
14.906000
 20
5.902000
 21
5.902000
  0
LINE
 10
14.906000
 11
14.718000
 20
5.902000
 21
5.919000
  0
LINE
 10
14.718000
 11
14.533000
 20
5.919000
 21
5.953000
  0
LINE
 10
14.533000
 11
14.351000
 20
5.953000
 21
6.003000
  0
LINE
 10
14.351000
 11
14.175000
 20
6.003000
 21
6.069000
  0
LINE
 10
14.175000
 11
14.005000
 20
6.069000
 21
6.151000
  0
LINE
 10
14.005000
 11
13.843000
 20
6.151000
 21
6.247000
  0
LINE
 10
13.843000
 11
13.691000
 20
6.247000
 21
6.358000
  0
LINE
 10
13.691000
 11
13.549000
 20
6.358000
 21
6.482000
  0
LINE
 10
13.549000
 11
13.419000
 20
6.482000
 21
6.618000
  0
LINE
 10
13.419000
 11
13.301000
 20
6.618000
 21
6.766000
  0
LINE
 10
13.301000
 11
13.197000
 20
6.766000
 21
6.923000
  0
LINE
 10
13.197000
 11
13.108000
 20
6.923000
 21
7.089000
  0
LINE
 10
13.108000
 11
13.034000
 20
7.089000
 21
7.262000
  0
LINE
 10
13.034000
 11
12.976000
 20
7.262000
 21
7.441000
  0
LINE
 10
12.976000
 11
12.934000
 20
7.441000
 21
7.625000
  0
LINE
 10
12.934000
 11
12.908000
 20
7.625000
 21
7.812000
  0
LINE
 10
12.908000
 11
12.900000
 20
7.812000
 21
8.000000
  0
LINE
 10
12.900000
 11
12.908000
 20
40.000000
 21
40.188000
  0
LINE
 10
12.908000
 11
12.934000
 20
40.188000
 21
40.375000
  0
LINE
 10
12.934000
 11
12.976000
 20
40.375000
 21
40.559000
  0
LINE
 10
12.976000
 11
13.034000
 20
40.559000
 21
40.738000
  0
LINE
 10
13.034000
 11
13.108000
 20
40.738000
 21
40.911000
  0
LINE
 10
13.108000
 11
13.197000
 20
40.911000
 21
41.077000
  0
LINE
 10
13.197000
 11
13.301000
 20
41.077000
 21
41.234000
  0
LINE
 10
13.301000
 11
13.419000
 20
41.234000
 21
41.382000
  0
LINE
 10
13.419000
 11
13.549000
 20
41.382000
 21
41.518000
  0
LINE
 10
13.549000
 11
13.691000
 20
41.518000
 21
41.642000
  0
LINE
 10
13.691000
 11
13.843000
 20
41.642000
 21
41.753000
  0
LINE
 10
13.843000
 11
14.005000
 20
41.753000
 21
41.849000
  0
LINE
 10
14.005000
 11
14.175000
 20
41.849000
 21
41.931000
  0
LINE
 10
14.175000
 11
14.351000
 20
41.931000
 21
41.997000
  0
LINE
 10
14.351000
 11
14.533000
 20
41.997000
 21
42.047000
  0
LINE
 10
14.533000
 11
14.718000
 20
42.047000
 21
42.081000
  0
LINE
 10
14.718000
 11
14.906000
 20
42.081000
 21
42.098000
  0
LINE
 10
14.906000
 11
15.094000
 20
42.098000
 21
42.098000
  0
LINE
 10
15.094000
 11
15.282000
 20
42.098000
 21
42.081000
  0
LINE
 10
15.282000
 11
15.467000
 20
42.081000
 21
42.047000
  0
LINE
 10
15.467000
 11
15.649000
 20
42.047000
 21
41.997000
  0
LINE
 10
15.649000
 11
15.825000
 20
41.997000
 21
41.931000
  0
LINE
 10
15.825000
 11
15.995000
 20
41.931000
 21
41.849000
  0
LINE
 10
15.995000
 11
16.157000
 20
41.849000
 21
41.753000
  0
LINE
 10
16.157000
 11
16.309000
 20
41.753000
 21
41.642000
  0
LINE
 10
16.309000
 11
16.451000
 20
41.642000
 21
41.518000
  0
LINE
 10
16.451000
 11
16.581000
 20
41.518000
 21
41.382000
  0
LINE
 10
16.581000
 11
16.699000
 20
41.382000
 21
41.234000
  0
LINE
 10
16.699000
 11
16.803000
 20
41.234000
 21
41.077000
  0
LINE
 10
16.803000
 11
16.892000
 20
41.077000
 21
40.911000
  0
LINE
 10
16.892000
 11
16.966000
 20
40.911000
 21
40.738000
  0
LINE
 10
16.966000
 11
17.024000
 20
40.738000
 21
40.559000
  0
LINE
 10
17.024000
 11
17.066000
 20
40.559000
 21
40.375000
  0
LINE
 10
17.066000
 11
17.092000
 20
40.375000
 21
40.188000
  0
LINE
 10
17.092000
 11
17.100000
 20
40.188000
 21
40.000000
  0
LINE
 10
17.100000
 11
17.092000
 20
40.000000
 21
39.812000
  0
LINE
 10
17.092000
 11
17.066000
 20
39.812000
 21
39.625000
  0
LINE
 10
17.066000
 11
17.024000
 20
39.625000
 21
39.441000
  0
LINE
 10
17.024000
 11
16.966000
 20
39.441000
 21
39.262000
  0
LINE
 10
16.966000
 11
16.892000
 20
39.262000
 21
39.089000
  0
LINE
 10
16.892000
 11
16.803000
 20
39.089000
 21
38.923000
  0
LINE
 10
16.803000
 11
16.699000
 20
38.923000
 21
38.766000
  0
LINE
 10
16.699000
 11
16.581000
 20
38.766000
 21
38.618000
  0
LINE
 10
16.581000
 11
16.451000
 20
38.618000
 21
38.482000
  0
LINE
 10
16.451000
 11
16.309000
 20
38.482000
 21
38.358000
  0
LINE
 10
16.309000
 11
16.157000
 20
38.358000
 21
38.247000
  0
LINE
 10
16.157000
 11
15.995000
 20
38.247000
 21
38.151000
  0
LINE
 10
15.995000
 11
15.825000
 20
38.151000
 21
38.069000
  0
LINE
 10
15.825000
 11
15.649000
 20
38.069000
 21
38.003000
  0
LINE
 10
15.649000
 11
15.467000
 20
38.003000
 21
37.953000
  0
LINE
 10
15.467000
 11
15.282000
 20
37.953000
 21
37.919000
  0
LINE
 10
15.282000
 11
15.094000
 20
37.919000
 21
37.902000
  0
LINE
 10
15.094000
 11
14.906000
 20
37.902000
 21
37.902000
  0
LINE
 10
14.906000
 11
14.718000
 20
37.902000
 21
37.919000
  0
LINE
 10
14.718000
 11
14.533000
 20
37.919000
 21
37.953000
  0
LINE
 10
14.533000
 11
14.351000
 20
37.953000
 21
38.003000
  0
LINE
 10
14.351000
 11
14.175000
 20
38.003000
 21
38.069000
  0
LINE
 10
14.175000
 11
14.005000
 20
38.069000
 21
38.151000
  0
LINE
 10
14.005000
 11
13.843000
 20
38.151000
 21
38.247000
  0
LINE
 10
13.843000
 11
13.691000
 20
38.247000
 21
38.358000
  0
LINE
 10
13.691000
 11
13.549000
 20
38.358000
 21
38.482000
  0
LINE
 10
13.549000
 11
13.419000
 20
38.482000
 21
38.618000
  0
LINE
 10
13.419000
 11
13.301000
 20
38.618000
 21
38.766000
  0
LINE
 10
13.301000
 11
13.197000
 20
38.766000
 21
38.923000
  0
LINE
 10
13.197000
 11
13.108000
 20
38.923000
 21
39.089000
  0
LINE
 10
13.108000
 11
13.034000
 20
39.089000
 21
39.262000
  0
LINE
 10
13.034000
 11
12.976000
 20
39.262000
 21
39.441000
  0
LINE
 10
12.976000
 11
12.934000
 20
39.441000
 21
39.625000
  0
LINE
 10
12.934000
 11
12.908000
 20
39.625000
 21
39.812000
  0
LINE
 10
12.908000
 11
12.900000
 20
39.812000
 21
40.000000
  0
ENDSEC
  0
EOF
