999
dxflib 2.0.4.8
  0
SECTION
  2
HEADER
  9
$ACADVER
  1
AC1015
  9
$HANDSEED
  5
FFFF
  9
$DIMASZ
 40
2.5
  9
$DIMGAP
 40
0.625
  9
$DIMEXO
 40
0.625
  9
$INSUNITS
 70
4
  9
$DIMTXT
 40
2.5
  9
$DIMSTYLE
  2
Standard
  9
$PLIMMAX
 10
210.0
 20
297.0
  9
$PLIMMIN
 10
0.0
 20
0.0
  9
$DIMEXE
 40
1.25
  0
ENDSEC
  0
SECTION
  2
TABLES
  0
TABLE
  2
VPORT
  5
8
100
AcDbSymbolTable
 70
1
  0
VPORT
  5
30
100
AcDbSymbolTableRecord
100
AcDbViewportTableRecord
  2
*Active
 70
0
 10
0.0
 20
0.0
 11
1.0
 21
1.0
 12
286.3055555555554861
 22
148.5
 13
0.0
 23
0.0
 14
10.0
 24
10.0
 15
10.0
 25
10.0
 16
0.0
 26
0.0
 36
1.0
 17
0.0
 27
0.0
 37
0.0
 40
297.0
 41
1.92798353909465
 42
50.0
 43
0.0
 44
0.0
 50
0.0
 51
0.0
 71
0
 72
100
 73
1
 74
3
 75
1
 76
1
 77
0
 78
0
281
0
 65
1
110
0.0
120
0.0
130
0.0
111
1.0
121
0.0
131
0.0
112
0.0
122
1.0
132
0.0
 79
0
146
0.0
  0
ENDTAB
  0
TABLE
  2
LTYPE
  5
5
100
AcDbSymbolTable
 70
21
  0
LTYPE
  5
14
100
AcDbSymbolTableRecord
100
AcDbLinetypeTableRecord
  2
ByBlock
 70
0
  3

 72
65
 73
0
 40
0.0
  0
LTYPE
  5
15
100
AcDbSymbolTableRecord
100
AcDbLinetypeTableRecord
  2
ByLayer
 70
0
  3

 72
65
 73
0
 40
0.0
  0
LTYPE
  5
16
100
AcDbSymbolTableRecord
100
AcDbLinetypeTableRecord
  2
CONTINUOUS
 70
0
  3
Solid line
 72
65
 73
0
 40
0.0
  0
LTYPE
  5
31
100
AcDbSymbolTableRecord
100
AcDbLinetypeTableRecord
  2
DOT
 70
0
  3
Dot . . . . . . . . . . . . . . . . . . . . . .
 72
65
 73
2
 40
6.3499999999999996
 49
0.0
 74
0
 49
-6.3499999999999996
 74
0
  0
LTYPE
  5
32
100
AcDbSymbolTableRecord
100
AcDbLinetypeTableRecord
  2
DOT2
 70
0
  3
Dot (.5x) .....................................
 72
65
 73
2
 40
3.1749999999999998
 49
0.0
 74
0
 49
-3.1749999999999998
 74
0
  0
LTYPE
  5
33
100
AcDbSymbolTableRecord
100
AcDbLinetypeTableRecord
  2
DOTX2
 70
0
  3
Dot (2x) .  .  .  .  .  .  .  .  .  .  .  .  .
 72
65
 73
2
 40
12.6999999999999993
 49
0.0
 74
0
 49
-12.6999999999999993
 74
0
  0
LTYPE
  5
34
100
AcDbSymbolTableRecord
100
AcDbLinetypeTableRecord
  2
DASHED
 70
0
  3
Dashed __ __ __ __ __ __ __ __ __ __ __ __ __ _
 72
65
 73
2
 40
19.0500000000000007
 49
12.6999999999999993
 74
0
 49
-6.3499999999999996
 74
0
  0
LTYPE
  5
35
100
AcDbSymbolTableRecord
100
AcDbLinetypeTableRecord
  2
DASHED2
 70
0
  3
Dashed (.5x) _ _ _ _ _ _ _ _ _ _ _ _ _ _ _ _ _
 72
65
 73
2
 40
9.5250000000000004
 49
6.3499999999999996
 74
0
 49
-3.1749999999999998
 74
0
  0
LTYPE
  5
36
100
AcDbSymbolTableRecord
100
AcDbLinetypeTableRecord
  2
DASHEDX2
 70
0
  3
Dashed (2x) ____  ____  ____  ____  ____  ___
 72
65
 73
2
 40
38.1000000000000014
 49
25.3999999999999986
 74
0
 49
-12.6999999999999993
 74
0
  0
LTYPE
  5
37
100
AcDbSymbolTableRecord
100
AcDbLinetypeTableRecord
  2
DASHDOT
 70
0
  3
Dash dot __ . __ . __ . __ . __ . __ . __ . __
 72
65
 73
4
 40
25.3999999999999986
 49
12.6999999999999993
 74
0
 49
-6.3499999999999996
 74
0
 49
0.0
 74
0
 49
-6.3499999999999996
 74
0
  0
LTYPE
  5
38
100
AcDbSymbolTableRecord
100
AcDbLinetypeTableRecord
  2
DASHDOT2
 70
0
  3
Dash dot (.5x) _._._._._._._._._._._._._._._.
 72
65
 73
4
 40
12.6999999999999993
 49
6.3499999999999996
 74
0
 49
-3.1749999999999998
 74
0
 49
0.0
 74
0
 49
-3.1749999999999998
 74
0
  0
LTYPE
  5
39
100
AcDbSymbolTableRecord
100
AcDbLinetypeTableRecord
  2
DASHDOTX2
 70
0
  3
Dash dot (2x) ____  .  ____  .  ____  .  ___
 72
65
 73
4
 40
50.7999999999999972
 49
25.3999999999999986
 74
0
 49
-12.6999999999999993
 74
0
 49
0.0
 74
0
 49
-12.6999999999999993
 74
0
  0
LTYPE
  5
3A
100
AcDbSymbolTableRecord
100
AcDbLinetypeTableRecord
  2
DIVIDE
 70
0
  3
Divide ____ . . ____ . . ____ . . ____ . . ____
 72
65
 73
6
 40
31.75
 49
12.6999999999999993
 74
0
 49
-6.3499999999999996
 74
0
 49
0.0
 74
0
 49
-6.3499999999999996
 74
0
 49
0.0
 74
0
 49
-6.3499999999999996
 74
0
  0
LTYPE
  5
3B
100
AcDbSymbolTableRecord
100
AcDbLinetypeTableRecord
  2
DIVIDE2
 70
0
  3
Divide (.5x) __..__..__..__..__..__..__..__.._
 72
65
 73
6
 40
15.875
 49
6.3499999999999996
 74
0
 49
-3.1749999999999998
 74
0
 49
0.0
 74
0
 49
-3.1749999999999998
 74
0
 49
0.0
 74
0
 49
-3.1749999999999998
 74
0
  0
LTYPE
  5
3C
100
AcDbSymbolTableRecord
100
AcDbLinetypeTableRecord
  2
DIVIDEX2
 70
0
  3
Divide (2x) ________  .  .  ________  .  .  _
 72
65
 73
6
 40
63.5
 49
25.3999999999999986
 74
0
 49
-12.6999999999999993
 74
0
 49
0.0
 74
0
 49
-12.6999999999999993
 74
0
 49
0.0
 74
0
 49
-12.6999999999999993
 74
0
  0
LTYPE
  5
3D
100
AcDbSymbolTableRecord
100
AcDbLinetypeTableRecord
  2
CENTER
 70
0
  3
Center ____ _ ____ _ ____ _ ____ _ ____ _ ____
 72
65
 73
4
 40
50.7999999999999972
 49
31.75
 74
0
 49
-6.3499999999999996
 74
0
 49
6.3499999999999996
 74
0
 49
-6.3499999999999996
 74
0
  0
LTYPE
  5
3E
100
AcDbSymbolTableRecord
100
AcDbLinetypeTableRecord
  2
CENTER2
 70
0
  3
Center (.5x) ___ _ ___ _ ___ _ ___ _ ___ _ ___
 72
65
 73
4
 40
28.5749999999999993
 49
19.0500000000000007
 74
0
 49
-3.1749999999999998
 74
0
 49
3.1749999999999998
 74
0
 49
-3.1749999999999998
 74
0
  0
LTYPE
  5
3F
100
AcDbSymbolTableRecord
100
AcDbLinetypeTableRecord
  2
CENTERX2
 70
0
  3
Center (2x) ________  __  ________  __  _____
 72
65
 73
4
 40
101.5999999999999943
 49
63.5
 74
0
 49
-12.6999999999999993
 74
0
 49
12.6999999999999993
 74
0
 49
-12.6999999999999993
 74
0
  0
LTYPE
  5
40
100
AcDbSymbolTableRecord
100
AcDbLinetypeTableRecord
  2
BORDER
 70
0
  3
Border __ __ . __ __ . __ __ . __ __ . __ __ .
 72
65
 73
6
 40
44.4500000000000028
 49
12.6999999999999993
 74
0
 49
-6.3499999999999996
 74
0
 49
12.6999999999999993
 74
0
 49
-6.3499999999999996
 74
0
 49
0.0
 74
0
 49
-6.3499999999999996
 74
0
  0
LTYPE
  5
41
100
AcDbSymbolTableRecord
100
AcDbLinetypeTableRecord
  2
BORDER2
 70
0
  3
Border (.5x) __.__.__.__.__.__.__.__.__.__.__.
 72
65
 73
6
 40
22.2250000000000014
 49
6.3499999999999996
 74
0
 49
-3.1749999999999998
 74
0
 49
6.3499999999999996
 74
0
 49
-3.1749999999999998
 74
0
 49
0.0
 74
0
 49
-3.1749999999999998
 74
0
  0
LTYPE
  5
42
100
AcDbSymbolTableRecord
100
AcDbLinetypeTableRecord
  2
BORDERX2
 70
0
  3
Border (2x) ____  ____  .  ____  ____  .  ___
 72
65
 73
6
 40
88.9000000000000057
 49
25.3999999999999986
 74
0
 49
-12.6999999999999993
 74
0
 49
25.3999999999999986
 74
0
 49
-12.6999999999999993
 74
0
 49
0.0
 74
0
 49
-12.6999999999999993
 74
0
  0
ENDTAB
  0
TABLE
  2
LAYER
  5
2
100
AcDbSymbolTable
 70
1
  0
LAYER
  5
10
100
AcDbSymbolTableRecord
100
AcDbLayerTableRecord
  2
0
 70
0
 62
7
  6
CONTINUOUS
370
0
390
F
  0
ENDTAB
  0
TABLE
  2
STYLE
  5
3
100
AcDbSymbolTable
 70
1
  0
STYLE
  5
11
100
AcDbSymbolTableRecord
100
AcDbTextStyleTableRecord
  2
Standard
 70
0
 40
0.0
 41
0.75
 50
0.0
 71
0
 42
2.5
  3
txt
  4

  0
ENDTAB
  0
TABLE
  2
VIEW
  5
6
100
AcDbSymbolTable
 70
0
  0
ENDTAB
  0
TABLE
  2
UCS
  5
7
100
AcDbSymbolTable
 70
0
  0
ENDTAB
  0
TABLE
  2
APPID
  5
9
100
AcDbSymbolTable
 70
1
  0
APPID
  5
12
100
AcDbSymbolTableRecord
100
AcDbRegAppTableRecord
  2
ACAD
 70
0
  0
ENDTAB
  0
TABLE
  2
DIMSTYLE
  5
A
100
AcDbSymbolTable
 70
1
100
AcDbDimStyleTable
 71
0
  0
DIMSTYLE
105
27
100
AcDbSymbolTableRecord
100
AcDbDimStyleTableRecord
  2
Standard
 41
2.5
 42
0.625
 43
3.75
 44
1.25
 70
0
 73
0
 74
0
 77
1
 78
8
140
2.5
141
2.5
143
0.03937007874016
147
0.625
171
3
172
1
271
2
272
2
274
3
278
44
283
0
284
8
340
11
  0
ENDTAB
  0
TABLE
  2
BLOCK_RECORD
  5
1
100
AcDbSymbolTable
 70
1
  0
BLOCK_RECORD
  5
1F
100
AcDbSymbolTableRecord
100
AcDbBlockTableRecord
  2
*Model_Space
340
22
  0
BLOCK_RECORD
  5
1B
100
AcDbSymbolTableRecord
100
AcDbBlockTableRecord
  2
*Paper_Space
340
1E
  0
BLOCK_RECORD
  5
23
100
AcDbSymbolTableRecord
100
AcDbBlockTableRecord
  2
*Paper_Space0
340
26
  0
ENDTAB
  0
ENDSEC
  0
SECTION
  2
BLOCKS
  0
BLOCK
  5
20
100
AcDbEntity
  8
0
100
AcDbBlockBegin
  2
*Model_Space
 70
0
 10
0.0
 20
0.0
 30
0.0
  3
*Model_Space
  1

  0
ENDBLK
  5
21
100
AcDbEntity
  8
0
100
AcDbBlockEnd
  0
BLOCK
  5
1C
100
AcDbEntity
 67
1
  8
0
100
AcDbBlockBegin
  2
*Paper_Space
 70
0
 10
0.0
 20
0.0
 30
0.0
  3
*Paper_Space
  1

  0
ENDBLK
  5
1D
100
AcDbEntity
 67
1
  8
0
100
AcDbBlockEnd
  0
BLOCK
  5
24
100
AcDbEntity
  8
0
100
AcDbBlockBegin
  2
*Paper_Space0
 70
0
 10
0.0
 20
0.0
 30
0.0
  3
*Paper_Space0
  1

  0
ENDBLK
  5
25
100
AcDbEntity
  8
0
100
AcDbBlockEnd
  0
ENDSEC
  0
SECTION
  2
ENTITIES
  0
LINE
  5
43
100
AcDbEntity
100
AcDbLine
  8
0
 62
256
370
-1
  6
ByLayer
 10
7.4372248450100003
 20
-0.96834219407
 30
0.0
 11
6.7430838594700004
 21
-0.87796358929
 31
0.0
  0
LINE
  5
44
100
AcDbEntity
100
AcDbLine
  8
0
 62
256
370
-1
  6
ByLayer
 10
6.7430838594700004
 20
-0.87796358929
 30
0.0
 11
6.7430838594700004
 21
0.87796358929
 31
0.0
  0
LINE
  5
45
100
AcDbEntity
100
AcDbLine
  8
0
 62
256
370
-1
  6
ByLayer
 10
7.4372248450100003
 20
0.96834219407
 30
0.0
 11
6.7430838594700004
 21
0.87796358929
 31
0.0
  0
LINE
  5
46
100
AcDbEntity
100
AcDbLine
  8
0
 62
256
370
-1
  6
ByLayer
 10
7.4372248450100003
 20
0.96834219407
 30
0.0
 11
7.4534745796799999
 21
0.9711934359760001
 31
0.0
  0
LINE
  5
47
100
AcDbEntity
100
AcDbLine
  8
0
 62
256
370
-1
  6
ByLayer
 10
7.4534745796799999
 20
0.9711934359760001
 30
0.0
 11
7.50163239939
 21
0.982604368278
 31
0.0
  0
LINE
  5
48
100
AcDbEntity
100
AcDbLine
  8
0
 62
256
370
-1
  6
ByLayer
 10
7.50163239939
 20
0.982604368278
 30
0.0
 11
7.5804937055300003
 21
1.00678457516
 31
0.0
  0
LINE
  5
49
100
AcDbEntity
100
AcDbLine
  8
0
 62
256
370
-1
  6
ByLayer
 10
7.5804937055300003
 20
1.00678457516
 30
0.0
 11
7.6884386827200002
 21
1.04781230313
 31
0.0
  0
LINE
  5
4A
100
AcDbEntity
100
AcDbLine
  8
0
 62
256
370
-1
  6
ByLayer
 10
7.6884386827200002
 20
1.04781230313
 30
0.0
 11
7.8234450223599996
 21
1.1095981177900001
 31
0.0
  0
LINE
  5
4B
100
AcDbEntity
100
AcDbLine
  8
0
 62
256
370
-1
  6
ByLayer
 10
7.8234450223599996
 20
1.1095981177900001
 30
0.0
 11
7.98310362409
 21
1.19584970976
 31
0.0
  0
LINE
  5
4C
100
AcDbEntity
100
AcDbLine
  8
0
 62
256
370
-1
  6
ByLayer
 10
7.98310362409
 20
1.19584970976
 30
0.0
 11
8.1646371763300003
 21
1.3100380837000001
 31
0.0
  0
LINE
  5
4D
100
AcDbEntity
100
AcDbLine
  8
0
 62
256
370
-1
  6
ByLayer
 10
8.1646371763300003
 20
1.3100380837000001
 30
0.0
 11
8.3649214988999994
 21
1.4553653560399999
 31
0.0
  0
LINE
  5
4E
100
AcDbEntity
100
AcDbLine
  8
0
 62
256
370
-1
  6
ByLayer
 10
8.3649214988999994
 20
1.4553653560399999
 30
0.0
 11
8.58050951387
 21
1.6347343776100001
 31
0.0
  0
LINE
  5
4F
100
AcDbEntity
100
AcDbLine
  8
0
 62
256
370
-1
  6
ByLayer
 10
8.58050951387
 20
1.6347343776100001
 30
0.0
 11
8.8076576940100004
 21
1.8507203864499999
 31
0.0
  0
LINE
  5
50
100
AcDbEntity
100
AcDbLine
  8
0
 62
256
370
-1
  6
ByLayer
 10
6.7801169906999998
 20
3.2062460280499998
 30
0.0
 11
6.7953286351599997
 21
3.2126326805700001
 31
0.0
  0
LINE
  5
51
100
AcDbEntity
100
AcDbLine
  8
0
 62
256
370
-1
  6
ByLayer
 10
6.7953286351599997
 20
3.2126326805700001
 30
0.0
 11
6.8420107868900004
 21
3.2290692764700002
 31
0.0
  0
LINE
  5
52
100
AcDbEntity
100
AcDbLine
  8
0
 62
256
370
-1
  6
ByLayer
 10
6.8420107868900004
 20
3.2290692764700002
 30
0.0
 11
6.9214259461000003
 21
3.2513632330200002
 31
0.0
  0
LINE
  5
53
100
AcDbEntity
100
AcDbLine
  8
0
 62
256
370
-1
  6
ByLayer
 10
6.9214259461000003
 20
3.2513632330200002
 30
0.0
 11
7.0344163038999996
 21
3.2752079726300001
 31
0.0
  0
LINE
  5
54
100
AcDbEntity
100
AcDbLine
  8
0
 62
256
370
-1
  6
ByLayer
 10
7.0344163038999996
 20
3.2752079726300001
 30
0.0
 11
7.1813947974200003
 21
3.2962203755999999
 31
0.0
  0
LINE
  5
55
100
AcDbEntity
100
AcDbLine
  8
0
 62
256
370
-1
  6
ByLayer
 10
7.1813947974200003
 20
3.2962203755999999
 30
0.0
 11
7.3623392913599996
 21
3.3099788761000002
 31
0.0
  0
LINE
  5
56
100
AcDbEntity
100
AcDbLine
  8
0
 62
256
370
-1
  6
ByLayer
 10
7.3623392913599996
 20
3.3099788761000002
 30
0.0
 11
7.5767899293400003
 21
3.31206195118
 31
0.0
  0
LINE
  5
57
100
AcDbEntity
100
AcDbLine
  8
0
 62
256
370
-1
  6
ByLayer
 10
7.5767899293400003
 20
3.31206195118
 30
0.0
 11
7.8238496785900002
 21
3.2980867497899999
 31
0.0
  0
LINE
  5
58
100
AcDbEntity
100
AcDbLine
  8
0
 62
256
370
-1
  6
ByLayer
 10
7.8238496785900002
 20
3.2980867497899999
 30
0.0
 11
8.1021880722699997
 21
3.26374760736
 31
0.0
  0
LINE
  5
59
100
AcDbEntity
100
AcDbLine
  8
0
 62
256
370
-1
  6
ByLayer
 10
8.1021880722699997
 20
3.26374760736
 30
0.0
 11
8.4100481336699993
 21
3.20485419217
 31
0.0
  0
LINE
  5
5A
100
AcDbEntity
100
AcDbLine
  8
0
 62
256
370
-1
  6
ByLayer
 10
8.8076576940100004
 20
1.8507203864499999
 30
0.0
 11
8.8076576938100004
 21
1.8507203864099999
 31
0.0
  0
LINE
  5
5B
100
AcDbEntity
100
AcDbLine
  8
0
 62
256
370
-1
  6
ByLayer
 10
8.4100481336699993
 20
3.20485419217
 30
0.0
 11
8.4100481334800001
 21
3.2048541921
 31
0.0
  0
LINE
  5
5C
100
AcDbEntity
100
AcDbLine
  8
0
 62
256
370
-1
  6
ByLayer
 10
8.8076576938100004
 20
1.8507203864099999
 30
0.0
 11
8.4100481334800001
 21
3.2048541921
 31
0.0
  0
LINE
  5
5D
100
AcDbEntity
100
AcDbLine
  8
0
 62
256
370
-1
  6
ByLayer
 10
6.7801169906999998
 20
3.2062460280499998
 30
0.0
 11
6.1473060715700001
 21
2.90699639877
 31
0.0
  0
LINE
  5
5E
100
AcDbEntity
100
AcDbLine
  8
0
 62
256
370
-1
  6
ByLayer
 10
6.1473060715700001
 20
2.90699639877
 30
0.0
 11
5.1979801663499998
 21
4.3841763411399999
 31
0.0
  0
LINE
  5
5F
100
AcDbEntity
100
AcDbLine
  8
0
 62
256
370
-1
  6
ByLayer
 10
5.7330663599399996
 20
4.8354886115599998
 30
0.0
 11
5.1979801663499998
 21
4.3841763411399999
 31
0.0
  0
LINE
  5
60
100
AcDbEntity
100
AcDbLine
  8
0
 62
256
370
-1
  6
ByLayer
 10
5.7330663599399996
 20
4.8354886115599998
 30
0.0
 11
5.7451950088899997
 21
4.8466724987200003
 31
0.0
  0
LINE
  5
61
100
AcDbEntity
100
AcDbLine
  8
0
 62
256
370
-1
  6
ByLayer
 10
5.7451950088899997
 20
4.8466724987200003
 30
0.0
 11
5.7795387290900004
 21
4.8823080688499996
 31
0.0
  0
LINE
  5
62
100
AcDbEntity
100
AcDbLine
  8
0
 62
256
370
-1
  6
ByLayer
 10
5.7795387290900004
 20
4.8823080688499996
 30
0.0
 11
5.8328082746599996
 21
4.9452853943299999
 31
0.0
  0
LINE
  5
63
100
AcDbEntity
100
AcDbLine
  8
0
 62
256
370
-1
  6
ByLayer
 10
5.8328082746599996
 20
4.9452853943299999
 30
0.0
 11
5.90143610369
 21
5.03815957614
 31
0.0
  0
LINE
  5
64
100
AcDbEntity
100
AcDbLine
  8
0
 62
256
370
-1
  6
ByLayer
 10
5.90143610369
 20
5.03815957614
 30
0.0
 11
5.9816067305300002
 21
5.1631270488199998
 31
0.0
  0
LINE
  5
65
100
AcDbEntity
100
AcDbLine
  8
0
 62
256
370
-1
  6
ByLayer
 10
5.9816067305300002
 20
5.1631270488199998
 30
0.0
 11
6.0692889620899999
 21
5.3220044622299998
 31
0.0
  0
LINE
  5
66
100
AcDbEntity
100
AcDbLine
  8
0
 62
256
370
-1
  6
ByLayer
 10
6.0692889620899999
 20
5.3220044622299998
 30
0.0
 11
6.1602698083999998
 21
5.5162102832900004
 31
0.0
  0
LINE
  5
67
100
AcDbEntity
100
AcDbLine
  8
0
 62
256
370
-1
  6
ByLayer
 10
6.1602698083999998
 20
5.5162102832900004
 30
0.0
 11
6.2501898470199997
 21
5.7467492444500001
 31
0.0
  0
LINE
  5
68
100
AcDbEntity
100
AcDbLine
  8
0
 62
256
370
-1
  6
ByLayer
 10
6.2501898470199997
 20
5.7467492444500001
 30
0.0
 11
6.3345798118100003
 21
6.0141997481700002
 31
0.0
  0
LINE
  5
69
100
AcDbEntity
100
AcDbLine
  8
0
 62
256
370
-1
  6
ByLayer
 10
6.3345798118100003
 20
6.0141997481700002
 30
0.0
 11
6.4088981684400004
 21
6.3187043189500001
 31
0.0
  0
LINE
  5
6A
100
AcDbEntity
100
AcDbLine
  8
0
 62
256
370
-1
  6
ByLayer
 10
3.9703698978599999
 20
6.3628737905200001
 30
0.0
 11
3.9797138624700001
 21
6.3764706204100001
 31
0.0
  0
LINE
  5
6B
100
AcDbEntity
100
AcDbLine
  8
0
 62
256
370
-1
  6
ByLayer
 10
3.9797138624700001
 20
6.3764706204100001
 30
0.0
 11
4.01009909289
 21
6.4155362414499999
 31
0.0
  0
LINE
  5
6C
100
AcDbEntity
100
AcDbLine
  8
0
 62
256
370
-1
  6
ByLayer
 10
4.01009909289
 20
6.4155362414499999
 30
0.0
 11
4.0648543532400003
 21
6.4772261877500004
 31
0.0
  0
LINE
  5
6D
100
AcDbEntity
100
AcDbLine
  8
0
 62
256
370
-1
  6
ByLayer
 10
4.0648543532400003
 20
6.4772261877500004
 30
0.0
 11
4.1470164513999999
 21
6.5583728586000003
 31
0.0
  0
LINE
  5
6E
100
AcDbEntity
100
AcDbLine
  8
0
 62
256
370
-1
  6
ByLayer
 10
4.1470164513999999
 20
6.5583728586000003
 30
0.0
 11
4.2593024656100003
 21
6.6555121897099996
 31
0.0
  0
LINE
  5
6F
100
AcDbEntity
100
AcDbLine
  8
0
 62
256
370
-1
  6
ByLayer
 10
4.2593024656100003
 20
6.6555121897099996
 30
0.0
 11
4.4040842534299998
 21
6.7649125559799996
 31
0.0
  0
LINE
  5
70
100
AcDbEntity
100
AcDbLine
  8
0
 62
256
370
-1
  6
ByLayer
 10
4.4040842534299998
 20
6.7649125559799996
 30
0.0
 11
4.5833654148300003
 21
6.8826057184799998
 31
0.0
  0
LINE
  5
71
100
AcDbEntity
100
AcDbLine
  8
0
 62
256
370
-1
  6
ByLayer
 10
4.5833654148300003
 20
6.8826057184799998
 30
0.0
 11
4.7987608660100003
 21
7.0044196157299998
 31
0.0
  0
LINE
  5
72
100
AcDbEntity
100
AcDbLine
  8
0
 62
256
370
-1
  6
ByLayer
 10
4.7987608660100003
 20
7.0044196157299998
 30
0.0
 11
5.0514791650499999
 21
7.1260127875399997
 31
0.0
  0
LINE
  5
73
100
AcDbEntity
100
AcDbLine
  8
0
 62
256
370
-1
  6
ByLayer
 10
5.0514791650499999
 20
7.1260127875399997
 30
0.0
 11
5.3423077134500003
 21
7.2429102091999997
 31
0.0
  0
LINE
  5
74
100
AcDbEntity
100
AcDbLine
  8
0
 62
256
370
-1
  6
ByLayer
 10
6.4088981684400004
 20
6.3187043189500001
 30
0.0
 11
6.4088981682900004
 21
6.3187043188000001
 31
0.0
  0
LINE
  5
75
100
AcDbEntity
100
AcDbLine
  8
0
 62
256
370
-1
  6
ByLayer
 10
5.3423077134500003
 20
7.2429102091999997
 30
0.0
 11
5.3423077133200003
 21
7.2429102090399997
 31
0.0
  0
LINE
  5
76
100
AcDbEntity
100
AcDbLine
  8
0
 62
256
370
-1
  6
ByLayer
 10
6.4088981682900004
 20
6.3187043188000001
 30
0.0
 11
5.3423077133200003
 21
7.2429102090399997
 31
0.0
  0
LINE
  5
77
100
AcDbEntity
100
AcDbLine
  8
0
 62
256
370
-1
  6
ByLayer
 10
3.9703698978599999
 20
6.3628737905200001
 30
0.0
 11
3.5998020407300002
 21
5.76900557007
 31
0.0
  0
LINE
  5
78
100
AcDbEntity
100
AcDbLine
  8
0
 62
256
370
-1
  6
ByLayer
 10
3.5998020407300002
 20
5.76900557007
 30
0.0
 11
2.0025544975799998
 21
6.4984440817999998
 31
0.0
  0
LINE
  5
79
100
AcDbEntity
100
AcDbLine
  8
0
 62
256
370
-1
  6
ByLayer
 10
2.20869981351
 20
7.1674015608000001
 30
0.0
 11
2.0025544975799998
 21
6.4984440817999998
 31
0.0
  0
LINE
  5
7A
100
AcDbEntity
100
AcDbLine
  8
0
 62
256
370
-1
  6
ByLayer
 10
2.20869981351
 20
7.1674015608000001
 30
0.0
 11
2.2128566163899999
 21
7.1833672880700004
 31
0.0
  0
LINE
  5
7B
100
AcDbEntity
100
AcDbLine
  8
0
 62
256
370
-1
  6
ByLayer
 10
2.2128566163899999
 20
7.1833672880700004
 30
0.0
 11
2.2224823485699998
 21
7.2319134542999999
 31
0.0
  0
LINE
  5
7C
100
AcDbEntity
100
AcDbLine
  8
0
 62
256
370
-1
  6
ByLayer
 10
2.2224823485699998
 20
7.2319134542999999
 30
0.0
 11
2.23324742924
 21
7.3136930425099997
 31
0.0
  0
LINE
  5
7D
100
AcDbEntity
100
AcDbLine
  8
0
 62
256
370
-1
  6
ByLayer
 10
2.23324742924
 20
7.3136930425099997
 30
0.0
 11
2.2407692592899999
 21
7.4289267816600004
 31
0.0
  0
LINE
  5
7E
100
AcDbEntity
100
AcDbLine
  8
0
 62
256
370
-1
  6
ByLayer
 10
2.2407692592899999
 20
7.4289267816600004
 30
0.0
 11
2.2406505657600002
 21
7.5773996227699998
 31
0.0
  0
LINE
  5
7F
100
AcDbEntity
100
AcDbLine
  8
0
 62
256
370
-1
  6
ByLayer
 10
2.2406505657600002
 20
7.5773996227699998
 30
0.0
 11
2.22851793817
 21
7.7584604014299998
 31
0.0
  0
LINE
  5
80
100
AcDbEntity
100
AcDbLine
  8
0
 62
256
370
-1
  6
ByLayer
 10
2.22851793817
 20
7.7584604014299998
 30
0.0
 11
2.2000603026899999
 21
7.9710246936200004
 31
0.0
  0
LINE
  5
81
100
AcDbEntity
100
AcDbLine
  8
0
 62
256
370
-1
  6
ByLayer
 10
2.2000603026899999
 20
7.9710246936200004
 30
0.0
 11
2.1510670804399998
 21
8.2135808523300007
 31
0.0
  0
LINE
  5
82
100
AcDbEntity
100
AcDbLine
  8
0
 62
256
370
-1
  6
ByLayer
 10
2.1510670804399998
 20
8.2135808523300007
 30
0.0
 11
2.0774657774900001
 21
8.4841991929899994
 31
0.0
  0
LINE
  5
83
100
AcDbEntity
100
AcDbLine
  8
0
 62
256
370
-1
  6
ByLayer
 10
2.0774657774900001
 20
8.4841991929899994
 30
0.0
 11
1.9753587575
 21
8.7805442760000005
 31
0.0
  0
LINE
  5
84
100
AcDbEntity
100
AcDbLine
  8
0
 62
256
370
-1
  6
ByLayer
 10
-0.0999415842505
 20
7.4993340824199999
 30
0.0
 11
-0.0994319422382
 21
7.5158241922600002
 31
0.0
  0
LINE
  5
85
100
AcDbEntity
100
AcDbLine
  8
0
 62
256
370
-1
  6
ByLayer
 10
-0.0994319422382
 20
7.5158241922600002
 30
0.0
 11
-0.0949907290979
 21
7.5651157797800002
 31
0.0
  0
LINE
  5
86
100
AcDbEntity
100
AcDbLine
  8
0
 62
256
370
-1
  6
ByLayer
 10
-0.0949907290979
 20
7.5651157797800002
 30
0.0
 11
-0.0822797758806
 21
7.64661559377
 31
0.0
  0
LINE
  5
87
100
AcDbEntity
100
AcDbLine
  8
0
 62
256
370
-1
  6
ByLayer
 10
-0.0822797758806
 20
7.64661559377
 30
0.0
 11
-0.0570318229977
 21
7.7593007012099999
 31
0.0
  0
LINE
  5
88
100
AcDbEntity
100
AcDbLine
  8
0
 62
256
370
-1
  6
ByLayer
 10
-0.0570318229977
 20
7.7593007012099999
 30
0.0
 11
-0.0150883042424
 21
7.9017259091899996
 31
0.0
  0
LINE
  5
89
100
AcDbEntity
100
AcDbLine
  8
0
 62
256
370
-1
  6
ByLayer
 10
-0.0150883042424
 20
7.9017259091899996
 30
0.0
 11
0.0475635828022
 21
8.0720342979299993
 31
0.0
  0
LINE
  5
8A
100
AcDbEntity
100
AcDbLine
  8
0
 62
256
370
-1
  6
ByLayer
 10
0.0475635828022
 20
8.0720342979299993
 30
0.0
 11
0.134754765617
 21
8.2679708003200005
 31
0.0
  0
LINE
  5
8B
100
AcDbEntity
100
AcDbLine
  8
0
 62
256
370
-1
  6
ByLayer
 10
0.134754765617
 20
8.2679708003200005
 30
0.0
 11
0.250099384892
 21
8.4868987445399995
 31
0.0
  0
LINE
  5
8C
100
AcDbEntity
100
AcDbLine
  8
0
 62
256
370
-1
  6
ByLayer
 10
0.250099384892
 20
8.4868987445399995
 30
0.0
 11
0.396961314965
 21
8.7258192576599996
 31
0.0
  0
LINE
  5
8D
100
AcDbEntity
100
AcDbLine
  8
0
 62
256
370
-1
  6
ByLayer
 10
0.396961314965
 20
8.7258192576599996
 30
0.0
 11
0.578422341147
 21
8.98139341077
 31
0.0
  0
LINE
  5
8E
100
AcDbEntity
100
AcDbLine
  8
0
 62
256
370
-1
  6
ByLayer
 10
1.9753587575
 20
8.7805442760000005
 30
0.0
 11
1.97535875746
 21
8.7805442758000005
 31
0.0
  0
LINE
  5
8F
100
AcDbEntity
100
AcDbLine
  8
0
 62
256
370
-1
  6
ByLayer
 10
0.578422341147
 20
8.98139341077
 30
0.0
 11
0.578422341134
 21
8.9813934105600008
 31
0.0
  0
LINE
  5
90
100
AcDbEntity
100
AcDbLine
  8
0
 62
256
370
-1
  6
ByLayer
 10
1.97535875746
 20
8.7805442758000005
 30
0.0
 11
0.578422341134
 21
8.9813934105600008
 31
0.0
  0
LINE
  5
91
100
AcDbEntity
100
AcDbLine
  8
0
 62
256
370
-1
  6
ByLayer
 10
-0.0999415842505
 20
7.4993340824199999
 30
0.0
 11
-0.0906137030538
 21
6.7993962347299997
 31
0.0
  0
LINE
  5
92
100
AcDbEntity
100
AcDbLine
  8
0
 62
256
370
-1
  6
ByLayer
 10
-0.0906137030538
 20
6.7993962347299997
 30
0.0
 11
-1.8286680747899999
 21
6.5495017422900004
 31
0.0
  0
LINE
  5
93
100
AcDbEntity
100
AcDbLine
  8
0
 62
256
370
-1
  6
ByLayer
 10
-2.0169133177899998
 20
7.22371515693
 30
0.0
 11
-1.8286680747899999
 21
6.5495017422900004
 31
0.0
  0
LINE
  5
94
100
AcDbEntity
100
AcDbLine
  8
0
 62
256
370
-1
  6
ByLayer
 10
-2.0169133177899998
 20
7.22371515693
 30
0.0
 11
-2.0220481165200002
 21
7.2393937187099997
 31
0.0
  0
LINE
  5
95
100
AcDbEntity
100
AcDbLine
  8
0
 62
256
370
-1
  6
ByLayer
 10
-2.0220481165200002
 20
7.2393937187099997
 30
0.0
 11
-2.0401964743100001
 21
7.2854374162699997
 31
0.0
  0
LINE
  5
96
100
AcDbEntity
100
AcDbLine
  8
0
 62
256
370
-1
  6
ByLayer
 10
-2.0401964743100001
 20
7.2854374162699997
 30
0.0
 11
-2.07535369559
 21
7.3600548257799998
 31
0.0
  0
LINE
  5
97
100
AcDbEntity
100
AcDbLine
  8
0
 62
256
370
-1
  6
ByLayer
 10
-2.07535369559
 20
7.3600548257799998
 30
0.0
 11
-2.1313259924099999
 21
7.46106222429
 31
0.0
  0
LINE
  5
98
100
AcDbEntity
100
AcDbLine
  8
0
 62
256
370
-1
  6
ByLayer
 10
-2.1313259924099999
 20
7.46106222429
 30
0.0
 11
-2.2116963219499999
 21
7.5859013558299999
 31
0.0
  0
LINE
  5
99
100
AcDbEntity
100
AcDbLine
  8
0
 62
256
370
-1
  6
ByLayer
 10
-2.2116963219499999
 20
7.5859013558299999
 30
0.0
 11
-2.3197917851700001
 21
7.73165998184
 31
0.0
  0
LINE
  5
9A
100
AcDbEntity
100
AcDbLine
  8
0
 62
256
370
-1
  6
ByLayer
 10
-2.3197917851700001
 20
7.73165998184
 30
0.0
 11
-2.4586528042400002
 21
7.8950950842900003
 31
0.0
  0
LINE
  5
9B
100
AcDbEntity
100
AcDbLine
  8
0
 62
256
370
-1
  6
ByLayer
 10
-2.4586528042400002
 20
7.8950950842900003
 30
0.0
 11
-2.63100428546
 21
8.0726585739899992
 31
0.0
  0
LINE
  5
9C
100
AcDbEntity
100
AcDbLine
  8
0
 62
256
370
-1
  6
ByLayer
 10
-2.63100428546
 20
8.0726585739899992
 30
0.0
 11
-2.8392289625
 21
8.2605253405300001
 31
0.0
  0
LINE
  5
9D
100
AcDbEntity
100
AcDbLine
  8
0
 62
256
370
-1
  6
ByLayer
 10
-2.8392289625
 20
8.2605253405300001
 30
0.0
 11
-3.0853431017299999
 21
8.4546234657900001
 31
0.0
  0
LINE
  5
9E
100
AcDbEntity
100
AcDbLine
  8
0
 62
256
370
-1
  6
ByLayer
 10
-4.1385223195199998
 20
6.2548087909100003
 30
0.0
 11
-4.1470088078399998
 21
6.2689566873400002
 31
0.0
  0
LINE
  5
9F
100
AcDbEntity
100
AcDbLine
  8
0
 62
256
370
-1
  6
ByLayer
 10
-4.1470088078399998
 20
6.2689566873400002
 30
0.0
 11
-4.1699216657699996
 21
6.3128245105899996
 31
0.0
  0
LINE
  5
A0
100
AcDbEntity
100
AcDbLine
  8
0
 62
256
370
-1
  6
ByLayer
 10
-4.1699216657699996
 20
6.3128245105899996
 30
0.0
 11
-4.2032906575200002
 21
6.3882585771600002
 31
0.0
  0
LINE
  5
A1
100
AcDbEntity
100
AcDbLine
  8
0
 62
256
370
-1
  6
ByLayer
 10
-4.2032906575200002
 20
6.3882585771600002
 30
0.0
 11
-4.2429728965700004
 21
6.4967053957800003
 31
0.0
  0
LINE
  5
A2
100
AcDbEntity
100
AcDbLine
  8
0
 62
256
370
-1
  6
ByLayer
 10
-4.2429728965700004
 20
6.4967053957800003
 30
0.0
 11
-4.2846886441000001
 21
6.6391974834300003
 31
0.0
  0
LINE
  5
A3
100
AcDbEntity
100
AcDbLine
  8
0
 62
256
370
-1
  6
ByLayer
 10
-4.2846886441000001
 20
6.6391974834300003
 30
0.0
 11
-4.3240581892999996
 21
6.8163421845499998
 31
0.0
  0
LINE
  5
A4
100
AcDbEntity
100
AcDbLine
  8
0
 62
256
370
-1
  6
ByLayer
 10
-4.3240581892999996
 20
6.8163421845499998
 30
0.0
 11
-4.3566395695400004
 21
7.02831357175
 31
0.0
  0
LINE
  5
A5
100
AcDbEntity
100
AcDbLine
  8
0
 62
256
370
-1
  6
ByLayer
 10
-4.3566395695400004
 20
7.02831357175
 30
0.0
 11
-4.3779668838100001
 21
7.2748474875199998
 31
0.0
  0
LINE
  5
A6
100
AcDbEntity
100
AcDbLine
  8
0
 62
256
370
-1
  6
ByLayer
 10
-4.3779668838100001
 20
7.2748474875199998
 30
0.0
 11
-4.3835889478199999
 21
7.5552397671799998
 31
0.0
  0
LINE
  5
A7
100
AcDbEntity
100
AcDbLine
  8
0
 62
256
370
-1
  6
ByLayer
 10
-4.3835889478199999
 20
7.5552397671799998
 30
0.0
 11
-4.3691080375300002
 21
7.8683476639099998
 31
0.0
  0
LINE
  5
A8
100
AcDbEntity
100
AcDbLine
  8
0
 62
256
370
-1
  6
ByLayer
 10
-3.0853431017299999
 20
8.4546234657900001
 30
0.0
 11
-3.0853431016599999
 21
8.4546234655999992
 31
0.0
  0
LINE
  5
A9
100
AcDbEntity
100
AcDbLine
  8
0
 62
256
370
-1
  6
ByLayer
 10
-4.3691080375300002
 20
7.8683476639099998
 30
0.0
 11
-4.3691080374300002
 21
7.8683476637299998
 31
0.0
  0
LINE
  5
AA
100
AcDbEntity
100
AcDbLine
  8
0
 62
256
370
-1
  6
ByLayer
 10
-3.0853431016599999
 20
8.4546234655999992
 30
0.0
 11
-4.3691080374300002
 21
7.8683476637299998
 31
0.0
  0
LINE
  5
AB
100
AcDbEntity
100
AcDbLine
  8
0
 62
256
370
-1
  6
ByLayer
 10
-4.1385223195199998
 20
6.2548087909100003
 30
0.0
 11
-3.7522602363600002
 21
5.6710266370899998
 31
0.0
  0
LINE
  5
AC
100
AcDbEntity
100
AcDbLine
  8
0
 62
256
370
-1
  6
ByLayer
 10
-3.7522602363600002
 20
5.6710266370899998
 30
0.0
 11
-5.0793014541700003
 21
4.5211388761700002
 31
0.0
  0
LINE
  5
AD
100
AcDbEntity
100
AcDbLine
  8
0
 62
256
370
-1
  6
ByLayer
 10
-5.6021707215100003
 20
4.9865502310699998
 30
0.0
 11
-5.0793014541700003
 21
4.5211388761700002
 31
0.0
  0
LINE
  5
AE
100
AcDbEntity
100
AcDbLine
  8
0
 62
256
370
-1
  6
ByLayer
 10
-5.6021707215100003
 20
4.9865502310699998
 30
0.0
 11
-5.61496685955
 21
4.9969637947700001
 31
0.0
  0
LINE
  5
AF
100
AcDbEntity
100
AcDbLine
  8
0
 62
256
370
-1
  6
ByLayer
 10
-5.61496685955
 20
4.9969637947700001
 30
0.0
 11
-5.6551273319400002
 21
5.0258864750100001
 31
0.0
  0
LINE
  5
B0
100
AcDbEntity
100
AcDbLine
  8
0
 62
256
370
-1
  6
ByLayer
 10
-5.6551273319400002
 20
5.0258864750100001
 30
0.0
 11
-5.7250446858200004
 21
5.0696512055299996
 31
0.0
  0
LINE
  5
B1
100
AcDbEntity
100
AcDbLine
  8
0
 62
256
370
-1
  6
ByLayer
 10
-5.7250446858200004
 20
5.0696512055299996
 30
0.0
 11
-5.82674030076
 21
5.1243631280499997
 31
0.0
  0
LINE
  5
B2
100
AcDbEntity
100
AcDbLine
  8
0
 62
256
370
-1
  6
ByLayer
 10
-5.82674030076
 20
5.1243631280499997
 30
0.0
 11
-5.96184525455
 21
5.1859330078400001
 31
0.0
  0
LINE
  5
B3
100
AcDbEntity
100
AcDbLine
  8
0
 62
256
370
-1
  6
ByLayer
 10
-5.96184525455
 20
5.1859330078400001
 30
0.0
 11
-6.1315840075799999
 21
5.2501121473200003
 31
0.0
  0
LINE
  5
B4
100
AcDbEntity
100
AcDbLine
  8
0
 62
256
370
-1
  6
ByLayer
 10
-6.1315840075799999
 20
5.2501121473200003
 30
0.0
 11
-6.3367610178299998
 21
5.3125285697800004
 31
0.0
  0
LINE
  5
B5
100
AcDbEntity
100
AcDbLine
  8
0
 62
256
370
-1
  6
ByLayer
 10
-6.3367610178299998
 20
5.3125285697800004
 30
0.0
 11
-6.5777503805200004
 21
5.3687242370900004
 31
0.0
  0
LINE
  5
B6
100
AcDbEntity
100
AcDbLine
  8
0
 62
256
370
-1
  6
ByLayer
 10
-6.5777503805200004
 20
5.3687242370900004
 30
0.0
 11
-6.8544885679399998
 21
5.4141930585300004
 31
0.0
  0
LINE
  5
B7
100
AcDbEntity
100
AcDbLine
  8
0
 62
256
370
-1
  6
ByLayer
 10
-6.8544885679399998
 20
5.4141930585300004
 30
0.0
 11
-7.1664703261499998
 21
5.4444194427100001
 31
0.0
  0
LINE
  5
B8
100
AcDbEntity
100
AcDbLine
  8
0
 62
256
370
-1
  6
ByLayer
 10
-6.8631514597400001
 20
3.02442590265
 30
0.0
 11
-6.8779396783099997
 21
3.0317397285299998
 31
0.0
  0
LINE
  5
B9
100
AcDbEntity
100
AcDbLine
  8
0
 62
256
370
-1
  6
ByLayer
 10
-6.8779396783099997
 20
3.0317397285299998
 30
0.0
 11
-6.9209319368199997
 21
3.0562560635699998
 31
0.0
  0
LINE
  5
BA
100
AcDbEntity
100
AcDbLine
  8
0
 62
256
370
-1
  6
ByLayer
 10
-6.9209319368199997
 20
3.0562560635699998
 30
0.0
 11
-6.9897864544299999
 21
3.1016745995899999
 31
0.0
  0
LINE
  5
BB
100
AcDbEntity
100
AcDbLine
  8
0
 62
256
370
-1
  6
ByLayer
 10
-6.9897864544299999
 20
3.1016745995899999
 30
0.0
 11
-7.0818000548900004
 21
3.1714520307299998
 31
0.0
  0
LINE
  5
BC
100
AcDbEntity
100
AcDbLine
  8
0
 62
256
370
-1
  6
ByLayer
 10
-7.0818000548900004
 20
3.1714520307299998
 30
0.0
 11
-7.1939306136300001
 21
3.2687707670099999
 31
0.0
  0
LINE
  5
BD
100
AcDbEntity
100
AcDbLine
  8
0
 62
256
370
-1
  6
ByLayer
 10
-7.1939306136300001
 20
3.2687707670099999
 30
0.0
 11
-7.32282203863
 21
3.3965095895599999
 31
0.0
  0
LINE
  5
BE
100
AcDbEntity
100
AcDbLine
  8
0
 62
256
370
-1
  6
ByLayer
 10
-7.32282203863
 20
3.3965095895599999
 30
0.0
 11
-7.4648316239200003
 21
3.5572164438499998
 31
0.0
  0
LINE
  5
BF
100
AcDbEntity
100
AcDbLine
  8
0
 62
256
370
-1
  6
ByLayer
 10
-7.4648316239200003
 20
3.5572164438499998
 30
0.0
 11
-7.6160596001399998
 21
3.7530835548199999
 31
0.0
  0
LINE
  5
C0
100
AcDbEntity
100
AcDbLine
  8
0
 62
256
370
-1
  6
ByLayer
 10
-7.6160596001399998
 20
3.7530835548199999
 30
0.0
 11
-7.7723806926399996
 21
3.98592503339
 31
0.0
  0
LINE
  5
C1
100
AcDbEntity
100
AcDbLine
  8
0
 62
256
370
-1
  6
ByLayer
 10
-7.7723806926399996
 20
3.98592503339
 30
0.0
 11
-7.9294774849299996
 21
4.2571571288400003
 31
0.0
  0
LINE
  5
C2
100
AcDbEntity
100
AcDbLine
  8
0
 62
256
370
-1
  6
ByLayer
 10
-7.1664703261499998
 20
5.4444194427100001
 30
0.0
 11
-7.1664703259899998
 21
5.4444194425800001
 31
0.0
  0
LINE
  5
C3
100
AcDbEntity
100
AcDbLine
  8
0
 62
256
370
-1
  6
ByLayer
 10
-7.9294774849299996
 20
4.2571571288400003
 30
0.0
 11
-7.9294774847499996
 21
4.2571571287500003
 31
0.0
  0
LINE
  5
C4
100
AcDbEntity
100
AcDbLine
  8
0
 62
256
370
-1
  6
ByLayer
 10
-7.1664703259899998
 20
5.4444194425800001
 30
0.0
 11
-7.9294774847499996
 21
4.2571571287500003
 31
0.0
  0
LINE
  5
C5
100
AcDbEntity
100
AcDbLine
  8
0
 62
256
370
-1
  6
ByLayer
 10
-6.8631514597400001
 20
3.02442590265
 30
0.0
 11
-6.2225906568299996
 21
2.7421461517400001
 31
0.0
  0
LINE
  5
C6
100
AcDbEntity
100
AcDbLine
  8
0
 62
256
370
-1
  6
ByLayer
 10
-6.2225906568299996
 20
2.7421461517400001
 30
0.0
 11
-6.7172925104800001
 21
1.0573463617100001
 31
0.0
  0
LINE
  5
C7
100
AcDbEntity
100
AcDbLine
  8
0
 62
256
370
-1
  6
ByLayer
 10
-7.4087785042099998
 20
1.1661908401200001
 30
0.0
 11
-6.7172925104800001
 21
1.0573463617100001
 31
0.0
  0
LINE
  5
C8
100
AcDbEntity
100
AcDbLine
  8
0
 62
256
370
-1
  6
ByLayer
 10
-7.4087785042099998
 20
1.1661908401200001
 30
0.0
 11
-7.4251732981199998
 21
1.16803317285
 31
0.0
  0
LINE
  5
C9
100
AcDbEntity
100
AcDbLine
  8
0
 62
256
370
-1
  6
ByLayer
 10
-7.4251732981199998
 20
1.16803317285
 30
0.0
 11
-7.4745952188900002
 21
1.1706520891600001
 31
0.0
  0
LINE
  5
CA
100
AcDbEntity
100
AcDbLine
  8
0
 62
256
370
-1
  6
ByLayer
 10
-7.4745952188900002
 20
1.1706520891600001
 30
0.0
 11
-7.55707443953
 21
1.1696691479600001
 31
0.0
  0
LINE
  5
CB
100
AcDbEntity
100
AcDbLine
  8
0
 62
256
370
-1
  6
ByLayer
 10
-7.55707443953
 20
1.1696691479600001
 30
0.0
 11
-7.6722057333900002
 21
1.1607149456800001
 31
0.0
  0
LINE
  5
CC
100
AcDbEntity
100
AcDbLine
  8
0
 62
256
370
-1
  6
ByLayer
 10
-7.6722057333900002
 20
1.1607149456800001
 30
0.0
 11
-7.8191504432099999
 21
1.13946757191
 31
0.0
  0
LINE
  5
CD
100
AcDbEntity
100
AcDbLine
  8
0
 62
256
370
-1
  6
ByLayer
 10
-7.8191504432099999
 20
1.13946757191
 30
0.0
 11
-7.9966416312800002
 21
1.10169080154
 31
0.0
  0
LINE
  5
CE
100
AcDbEntity
100
AcDbLine
  8
0
 62
256
370
-1
  6
ByLayer
 10
-7.9966416312800002
 20
1.10169080154
 30
0.0
 11
-8.2029923816799997
 21
1.0432717708899999
 31
0.0
  0
LINE
  5
CF
100
AcDbEntity
100
AcDbLine
  8
0
 62
256
370
-1
  6
ByLayer
 10
-8.2029923816799997
 20
1.0432717708899999
 30
0.0
 11
-8.43610720593
 21
0.960257888504
 31
0.0
  0
LINE
  5
D0
100
AcDbEntity
100
AcDbLine
  8
0
 62
256
370
-1
  6
ByLayer
 10
-8.43610720593
 20
0.960257888504
 30
0.0
 11
-8.6934964845499998
 21
0.848892735307
 31
0.0
  0
LINE
  5
D1
100
AcDbEntity
100
AcDbLine
  8
0
 62
256
370
-1
  6
ByLayer
 10
-8.6934964845499998
 20
0.848892735307
 30
0.0
 11
-8.9722938578800004
 21
0.705650714992
 31
0.0
  0
LINE
  5
D2
100
AcDbEntity
100
AcDbLine
  8
0
 62
256
370
-1
  6
ByLayer
 10
-7.4087785042099998
 20
-1.1661908401200001
 30
0.0
 11
-7.4251732981199998
 21
-1.16803317285
 31
0.0
  0
LINE
  5
D3
100
AcDbEntity
100
AcDbLine
  8
0
 62
256
370
-1
  6
ByLayer
 10
-7.4251732981199998
 20
-1.16803317285
 30
0.0
 11
-7.4745952188900002
 21
-1.1706520891600001
 31
0.0
  0
LINE
  5
D4
100
AcDbEntity
100
AcDbLine
  8
0
 62
256
370
-1
  6
ByLayer
 10
-7.4745952188900002
 20
-1.1706520891600001
 30
0.0
 11
-7.55707443953
 21
-1.1696691479600001
 31
0.0
  0
LINE
  5
D5
100
AcDbEntity
100
AcDbLine
  8
0
 62
256
370
-1
  6
ByLayer
 10
-7.55707443953
 20
-1.1696691479600001
 30
0.0
 11
-7.6722057333900002
 21
-1.1607149456800001
 31
0.0
  0
LINE
  5
D6
100
AcDbEntity
100
AcDbLine
  8
0
 62
256
370
-1
  6
ByLayer
 10
-7.6722057333900002
 20
-1.1607149456800001
 30
0.0
 11
-7.8191504432099999
 21
-1.13946757191
 31
0.0
  0
LINE
  5
D7
100
AcDbEntity
100
AcDbLine
  8
0
 62
256
370
-1
  6
ByLayer
 10
-7.8191504432099999
 20
-1.13946757191
 30
0.0
 11
-7.9966416312800002
 21
-1.10169080154
 31
0.0
  0
LINE
  5
D8
100
AcDbEntity
100
AcDbLine
  8
0
 62
256
370
-1
  6
ByLayer
 10
-7.9966416312800002
 20
-1.10169080154
 30
0.0
 11
-8.2029923816799997
 21
-1.0432717708899999
 31
0.0
  0
LINE
  5
D9
100
AcDbEntity
100
AcDbLine
  8
0
 62
256
370
-1
  6
ByLayer
 10
-8.2029923816799997
 20
-1.0432717708899999
 30
0.0
 11
-8.43610720593
 21
-0.960257888504
 31
0.0
  0
LINE
  5
DA
100
AcDbEntity
100
AcDbLine
  8
0
 62
256
370
-1
  6
ByLayer
 10
-8.43610720593
 20
-0.960257888504
 30
0.0
 11
-8.6934964845499998
 21
-0.848892735307
 31
0.0
  0
LINE
  5
DB
100
AcDbEntity
100
AcDbLine
  8
0
 62
256
370
-1
  6
ByLayer
 10
-8.6934964845499998
 20
-0.848892735307
 30
0.0
 11
-8.9722938578800004
 21
-0.705650714992
 31
0.0
  0
LINE
  5
DC
100
AcDbEntity
100
AcDbLine
  8
0
 62
256
370
-1
  6
ByLayer
 10
-8.9722938578800004
 20
0.705650714992
 30
0.0
 11
-8.9722938576699995
 21
0.705650714976
 31
0.0
  0
LINE
  5
DD
100
AcDbEntity
100
AcDbLine
  8
0
 62
256
370
-1
  6
ByLayer
 10
-8.9722938578800004
 20
-0.705650714992
 30
0.0
 11
-8.9722938576699995
 21
-0.705650714976
 31
0.0
  0
LINE
  5
DE
100
AcDbEntity
100
AcDbLine
  8
0
 62
256
370
-1
  6
ByLayer
 10
-8.9722938576699995
 20
0.705650714976
 30
0.0
 11
-8.9722938576699995
 21
-0.705650714976
 31
0.0
  0
LINE
  5
DF
100
AcDbEntity
100
AcDbLine
  8
0
 62
256
370
-1
  6
ByLayer
 10
-7.4087785042099998
 20
-1.1661908401200001
 30
0.0
 11
-6.7172925104800001
 21
-1.0573463617100001
 31
0.0
  0
LINE
  5
E0
100
AcDbEntity
100
AcDbLine
  8
0
 62
256
370
-1
  6
ByLayer
 10
-6.7172925104800001
 20
-1.0573463617100001
 30
0.0
 11
-6.2225906568299996
 21
-2.7421461517400001
 31
0.0
  0
LINE
  5
E1
100
AcDbEntity
100
AcDbLine
  8
0
 62
256
370
-1
  6
ByLayer
 10
-6.8631514597400001
 20
-3.02442590265
 30
0.0
 11
-6.2225906568299996
 21
-2.7421461517400001
 31
0.0
  0
LINE
  5
E2
100
AcDbEntity
100
AcDbLine
  8
0
 62
256
370
-1
  6
ByLayer
 10
-6.8631514597400001
 20
-3.02442590265
 30
0.0
 11
-6.8779396783099997
 21
-3.0317397285299998
 31
0.0
  0
LINE
  5
E3
100
AcDbEntity
100
AcDbLine
  8
0
 62
256
370
-1
  6
ByLayer
 10
-6.8779396783099997
 20
-3.0317397285299998
 30
0.0
 11
-6.9209319368199997
 21
-3.0562560635699998
 31
0.0
  0
LINE
  5
E4
100
AcDbEntity
100
AcDbLine
  8
0
 62
256
370
-1
  6
ByLayer
 10
-6.9209319368199997
 20
-3.0562560635699998
 30
0.0
 11
-6.9897864544299999
 21
-3.1016745995899999
 31
0.0
  0
LINE
  5
E5
100
AcDbEntity
100
AcDbLine
  8
0
 62
256
370
-1
  6
ByLayer
 10
-6.9897864544299999
 20
-3.1016745995899999
 30
0.0
 11
-7.0818000548900004
 21
-3.1714520307299998
 31
0.0
  0
LINE
  5
E6
100
AcDbEntity
100
AcDbLine
  8
0
 62
256
370
-1
  6
ByLayer
 10
-7.0818000548900004
 20
-3.1714520307299998
 30
0.0
 11
-7.1939306136300001
 21
-3.2687707670099999
 31
0.0
  0
LINE
  5
E7
100
AcDbEntity
100
AcDbLine
  8
0
 62
256
370
-1
  6
ByLayer
 10
-7.1939306136300001
 20
-3.2687707670099999
 30
0.0
 11
-7.32282203863
 21
-3.3965095895599999
 31
0.0
  0
LINE
  5
E8
100
AcDbEntity
100
AcDbLine
  8
0
 62
256
370
-1
  6
ByLayer
 10
-7.32282203863
 20
-3.3965095895599999
 30
0.0
 11
-7.4648316239200003
 21
-3.5572164438499998
 31
0.0
  0
LINE
  5
E9
100
AcDbEntity
100
AcDbLine
  8
0
 62
256
370
-1
  6
ByLayer
 10
-7.4648316239200003
 20
-3.5572164438499998
 30
0.0
 11
-7.6160596001399998
 21
-3.7530835548199999
 31
0.0
  0
LINE
  5
EA
100
AcDbEntity
100
AcDbLine
  8
0
 62
256
370
-1
  6
ByLayer
 10
-7.6160596001399998
 20
-3.7530835548199999
 30
0.0
 11
-7.7723806926399996
 21
-3.98592503339
 31
0.0
  0
LINE
  5
EB
100
AcDbEntity
100
AcDbLine
  8
0
 62
256
370
-1
  6
ByLayer
 10
-7.7723806926399996
 20
-3.98592503339
 30
0.0
 11
-7.9294774849299996
 21
-4.2571571288400003
 31
0.0
  0
LINE
  5
EC
100
AcDbEntity
100
AcDbLine
  8
0
 62
256
370
-1
  6
ByLayer
 10
-5.6021707215100003
 20
-4.9865502310699998
 30
0.0
 11
-5.61496685955
 21
-4.9969637947700001
 31
0.0
  0
LINE
  5
ED
100
AcDbEntity
100
AcDbLine
  8
0
 62
256
370
-1
  6
ByLayer
 10
-5.61496685955
 20
-4.9969637947700001
 30
0.0
 11
-5.6551273319400002
 21
-5.0258864750100001
 31
0.0
  0
LINE
  5
EE
100
AcDbEntity
100
AcDbLine
  8
0
 62
256
370
-1
  6
ByLayer
 10
-5.6551273319400002
 20
-5.0258864750100001
 30
0.0
 11
-5.7250446858200004
 21
-5.0696512055299996
 31
0.0
  0
LINE
  5
EF
100
AcDbEntity
100
AcDbLine
  8
0
 62
256
370
-1
  6
ByLayer
 10
-5.7250446858200004
 20
-5.0696512055299996
 30
0.0
 11
-5.82674030076
 21
-5.1243631280499997
 31
0.0
  0
LINE
  5
F0
100
AcDbEntity
100
AcDbLine
  8
0
 62
256
370
-1
  6
ByLayer
 10
-5.82674030076
 20
-5.1243631280499997
 30
0.0
 11
-5.96184525455
 21
-5.1859330078400001
 31
0.0
  0
LINE
  5
F1
100
AcDbEntity
100
AcDbLine
  8
0
 62
256
370
-1
  6
ByLayer
 10
-5.96184525455
 20
-5.1859330078400001
 30
0.0
 11
-6.1315840075799999
 21
-5.2501121473200003
 31
0.0
  0
LINE
  5
F2
100
AcDbEntity
100
AcDbLine
  8
0
 62
256
370
-1
  6
ByLayer
 10
-6.1315840075799999
 20
-5.2501121473200003
 30
0.0
 11
-6.3367610178299998
 21
-5.3125285697800004
 31
0.0
  0
LINE
  5
F3
100
AcDbEntity
100
AcDbLine
  8
0
 62
256
370
-1
  6
ByLayer
 10
-6.3367610178299998
 20
-5.3125285697800004
 30
0.0
 11
-6.5777503805200004
 21
-5.3687242370900004
 31
0.0
  0
LINE
  5
F4
100
AcDbEntity
100
AcDbLine
  8
0
 62
256
370
-1
  6
ByLayer
 10
-6.5777503805200004
 20
-5.3687242370900004
 30
0.0
 11
-6.8544885679399998
 21
-5.4141930585300004
 31
0.0
  0
LINE
  5
F5
100
AcDbEntity
100
AcDbLine
  8
0
 62
256
370
-1
  6
ByLayer
 10
-6.8544885679399998
 20
-5.4141930585300004
 30
0.0
 11
-7.1664703261499998
 21
-5.4444194427100001
 31
0.0
  0
LINE
  5
F6
100
AcDbEntity
100
AcDbLine
  8
0
 62
256
370
-1
  6
ByLayer
 10
-7.9294774849299996
 20
-4.2571571288400003
 30
0.0
 11
-7.9294774847499996
 21
-4.2571571287500003
 31
0.0
  0
LINE
  5
F7
100
AcDbEntity
100
AcDbLine
  8
0
 62
256
370
-1
  6
ByLayer
 10
-7.1664703261499998
 20
-5.4444194427100001
 30
0.0
 11
-7.1664703259899998
 21
-5.4444194425800001
 31
0.0
  0
LINE
  5
F8
100
AcDbEntity
100
AcDbLine
  8
0
 62
256
370
-1
  6
ByLayer
 10
-7.9294774847499996
 20
-4.2571571287500003
 30
0.0
 11
-7.1664703259899998
 21
-5.4444194425800001
 31
0.0
  0
LINE
  5
F9
100
AcDbEntity
100
AcDbLine
  8
0
 62
256
370
-1
  6
ByLayer
 10
-5.6021707215100003
 20
-4.9865502310699998
 30
0.0
 11
-5.0793014541700003
 21
-4.5211388761700002
 31
0.0
  0
LINE
  5
FA
100
AcDbEntity
100
AcDbLine
  8
0
 62
256
370
-1
  6
ByLayer
 10
-5.0793014541700003
 20
-4.5211388761700002
 30
0.0
 11
-3.7522602363600002
 21
-5.6710266370899998
 31
0.0
  0
LINE
  5
FB
100
AcDbEntity
100
AcDbLine
  8
0
 62
256
370
-1
  6
ByLayer
 10
-4.1385223195199998
 20
-6.2548087909100003
 30
0.0
 11
-3.7522602363600002
 21
-5.6710266370899998
 31
0.0
  0
LINE
  5
FC
100
AcDbEntity
100
AcDbLine
  8
0
 62
256
370
-1
  6
ByLayer
 10
-4.1385223195199998
 20
-6.2548087909100003
 30
0.0
 11
-4.1470088078399998
 21
-6.2689566873400002
 31
0.0
  0
LINE
  5
FD
100
AcDbEntity
100
AcDbLine
  8
0
 62
256
370
-1
  6
ByLayer
 10
-4.1470088078399998
 20
-6.2689566873400002
 30
0.0
 11
-4.1699216657699996
 21
-6.3128245105899996
 31
0.0
  0
LINE
  5
FE
100
AcDbEntity
100
AcDbLine
  8
0
 62
256
370
-1
  6
ByLayer
 10
-4.1699216657699996
 20
-6.3128245105899996
 30
0.0
 11
-4.2032906575200002
 21
-6.3882585771600002
 31
0.0
  0
LINE
  5
FF
100
AcDbEntity
100
AcDbLine
  8
0
 62
256
370
-1
  6
ByLayer
 10
-4.2032906575200002
 20
-6.3882585771600002
 30
0.0
 11
-4.2429728965700004
 21
-6.4967053957800003
 31
0.0
  0
LINE
  5
100
100
AcDbEntity
100
AcDbLine
  8
0
 62
256
370
-1
  6
ByLayer
 10
-4.2429728965700004
 20
-6.4967053957800003
 30
0.0
 11
-4.2846886441000001
 21
-6.6391974834300003
 31
0.0
  0
LINE
  5
101
100
AcDbEntity
100
AcDbLine
  8
0
 62
256
370
-1
  6
ByLayer
 10
-4.2846886441000001
 20
-6.6391974834300003
 30
0.0
 11
-4.3240581892999996
 21
-6.8163421845499998
 31
0.0
  0
LINE
  5
102
100
AcDbEntity
100
AcDbLine
  8
0
 62
256
370
-1
  6
ByLayer
 10
-4.3240581892999996
 20
-6.8163421845499998
 30
0.0
 11
-4.3566395695400004
 21
-7.02831357175
 31
0.0
  0
LINE
  5
103
100
AcDbEntity
100
AcDbLine
  8
0
 62
256
370
-1
  6
ByLayer
 10
-4.3566395695400004
 20
-7.02831357175
 30
0.0
 11
-4.3779668838100001
 21
-7.2748474875199998
 31
0.0
  0
LINE
  5
104
100
AcDbEntity
100
AcDbLine
  8
0
 62
256
370
-1
  6
ByLayer
 10
-4.3779668838100001
 20
-7.2748474875199998
 30
0.0
 11
-4.3835889478199999
 21
-7.5552397671799998
 31
0.0
  0
LINE
  5
105
100
AcDbEntity
100
AcDbLine
  8
0
 62
256
370
-1
  6
ByLayer
 10
-4.3835889478199999
 20
-7.5552397671799998
 30
0.0
 11
-4.3691080375300002
 21
-7.8683476639099998
 31
0.0
  0
LINE
  5
106
100
AcDbEntity
100
AcDbLine
  8
0
 62
256
370
-1
  6
ByLayer
 10
-2.0169133177899998
 20
-7.22371515693
 30
0.0
 11
-2.0220481165200002
 21
-7.2393937187099997
 31
0.0
  0
LINE
  5
107
100
AcDbEntity
100
AcDbLine
  8
0
 62
256
370
-1
  6
ByLayer
 10
-2.0220481165200002
 20
-7.2393937187099997
 30
0.0
 11
-2.0401964743100001
 21
-7.2854374162699997
 31
0.0
  0
LINE
  5
108
100
AcDbEntity
100
AcDbLine
  8
0
 62
256
370
-1
  6
ByLayer
 10
-2.0401964743100001
 20
-7.2854374162699997
 30
0.0
 11
-2.07535369559
 21
-7.3600548257799998
 31
0.0
  0
LINE
  5
109
100
AcDbEntity
100
AcDbLine
  8
0
 62
256
370
-1
  6
ByLayer
 10
-2.07535369559
 20
-7.3600548257799998
 30
0.0
 11
-2.1313259924099999
 21
-7.46106222429
 31
0.0
  0
LINE
  5
10A
100
AcDbEntity
100
AcDbLine
  8
0
 62
256
370
-1
  6
ByLayer
 10
-2.1313259924099999
 20
-7.46106222429
 30
0.0
 11
-2.2116963219499999
 21
-7.5859013558299999
 31
0.0
  0
LINE
  5
10B
100
AcDbEntity
100
AcDbLine
  8
0
 62
256
370
-1
  6
ByLayer
 10
-2.2116963219499999
 20
-7.5859013558299999
 30
0.0
 11
-2.3197917851700001
 21
-7.73165998184
 31
0.0
  0
LINE
  5
10C
100
AcDbEntity
100
AcDbLine
  8
0
 62
256
370
-1
  6
ByLayer
 10
-2.3197917851700001
 20
-7.73165998184
 30
0.0
 11
-2.4586528042400002
 21
-7.8950950842900003
 31
0.0
  0
LINE
  5
10D
100
AcDbEntity
100
AcDbLine
  8
0
 62
256
370
-1
  6
ByLayer
 10
-2.4586528042400002
 20
-7.8950950842900003
 30
0.0
 11
-2.63100428546
 21
-8.0726585739899992
 31
0.0
  0
LINE
  5
10E
100
AcDbEntity
100
AcDbLine
  8
0
 62
256
370
-1
  6
ByLayer
 10
-2.63100428546
 20
-8.0726585739899992
 30
0.0
 11
-2.8392289625
 21
-8.2605253405300001
 31
0.0
  0
LINE
  5
10F
100
AcDbEntity
100
AcDbLine
  8
0
 62
256
370
-1
  6
ByLayer
 10
-2.8392289625
 20
-8.2605253405300001
 30
0.0
 11
-3.0853431017299999
 21
-8.4546234657900001
 31
0.0
  0
LINE
  5
110
100
AcDbEntity
100
AcDbLine
  8
0
 62
256
370
-1
  6
ByLayer
 10
-4.3691080375300002
 20
-7.8683476639099998
 30
0.0
 11
-4.3691080374300002
 21
-7.8683476637299998
 31
0.0
  0
LINE
  5
111
100
AcDbEntity
100
AcDbLine
  8
0
 62
256
370
-1
  6
ByLayer
 10
-3.0853431017299999
 20
-8.4546234657900001
 30
0.0
 11
-3.0853431016599999
 21
-8.4546234655999992
 31
0.0
  0
LINE
  5
112
100
AcDbEntity
100
AcDbLine
  8
0
 62
256
370
-1
  6
ByLayer
 10
-4.3691080374300002
 20
-7.8683476637299998
 30
0.0
 11
-3.0853431016599999
 21
-8.4546234655999992
 31
0.0
  0
LINE
  5
113
100
AcDbEntity
100
AcDbLine
  8
0
 62
256
370
-1
  6
ByLayer
 10
-2.0169133177899998
 20
-7.22371515693
 30
0.0
 11
-1.8286680747899999
 21
-6.5495017422900004
 31
0.0
  0
LINE
  5
114
100
AcDbEntity
100
AcDbLine
  8
0
 62
256
370
-1
  6
ByLayer
 10
-1.8286680747899999
 20
-6.5495017422900004
 30
0.0
 11
-0.0906137030538
 21
-6.7993962347299997
 31
0.0
  0
LINE
  5
115
100
AcDbEntity
100
AcDbLine
  8
0
 62
256
370
-1
  6
ByLayer
 10
-0.0999415842505
 20
-7.4993340824199999
 30
0.0
 11
-0.0906137030538
 21
-6.7993962347299997
 31
0.0
  0
LINE
  5
116
100
AcDbEntity
100
AcDbLine
  8
0
 62
256
370
-1
  6
ByLayer
 10
-0.0999415842505
 20
-7.4993340824199999
 30
0.0
 11
-0.0994319422382
 21
-7.5158241922600002
 31
0.0
  0
LINE
  5
117
100
AcDbEntity
100
AcDbLine
  8
0
 62
256
370
-1
  6
ByLayer
 10
-0.0994319422382
 20
-7.5158241922600002
 30
0.0
 11
-0.0949907290979
 21
-7.5651157797800002
 31
0.0
  0
LINE
  5
118
100
AcDbEntity
100
AcDbLine
  8
0
 62
256
370
-1
  6
ByLayer
 10
-0.0949907290979
 20
-7.5651157797800002
 30
0.0
 11
-0.0822797758806
 21
-7.64661559377
 31
0.0
  0
LINE
  5
119
100
AcDbEntity
100
AcDbLine
  8
0
 62
256
370
-1
  6
ByLayer
 10
-0.0822797758806
 20
-7.64661559377
 30
0.0
 11
-0.0570318229977
 21
-7.7593007012099999
 31
0.0
  0
LINE
  5
11A
100
AcDbEntity
100
AcDbLine
  8
0
 62
256
370
-1
  6
ByLayer
 10
-0.0570318229977
 20
-7.7593007012099999
 30
0.0
 11
-0.0150883042424
 21
-7.9017259091899996
 31
0.0
  0
LINE
  5
11B
100
AcDbEntity
100
AcDbLine
  8
0
 62
256
370
-1
  6
ByLayer
 10
-0.0150883042424
 20
-7.9017259091899996
 30
0.0
 11
0.0475635828022
 21
-8.0720342979299993
 31
0.0
  0
LINE
  5
11C
100
AcDbEntity
100
AcDbLine
  8
0
 62
256
370
-1
  6
ByLayer
 10
0.0475635828022
 20
-8.0720342979299993
 30
0.0
 11
0.134754765617
 21
-8.2679708003200005
 31
0.0
  0
LINE
  5
11D
100
AcDbEntity
100
AcDbLine
  8
0
 62
256
370
-1
  6
ByLayer
 10
0.134754765617
 20
-8.2679708003200005
 30
0.0
 11
0.250099384892
 21
-8.4868987445399995
 31
0.0
  0
LINE
  5
11E
100
AcDbEntity
100
AcDbLine
  8
0
 62
256
370
-1
  6
ByLayer
 10
0.250099384892
 20
-8.4868987445399995
 30
0.0
 11
0.396961314965
 21
-8.7258192576599996
 31
0.0
  0
LINE
  5
11F
100
AcDbEntity
100
AcDbLine
  8
0
 62
256
370
-1
  6
ByLayer
 10
0.396961314965
 20
-8.7258192576599996
 30
0.0
 11
0.578422341147
 21
-8.98139341077
 31
0.0
  0
LINE
  5
120
100
AcDbEntity
100
AcDbLine
  8
0
 62
256
370
-1
  6
ByLayer
 10
2.20869981351
 20
-7.1674015608000001
 30
0.0
 11
2.2128566163899999
 21
-7.1833672880700004
 31
0.0
  0
LINE
  5
121
100
AcDbEntity
100
AcDbLine
  8
0
 62
256
370
-1
  6
ByLayer
 10
2.2128566163899999
 20
-7.1833672880700004
 30
0.0
 11
2.2224823485699998
 21
-7.2319134542999999
 31
0.0
  0
LINE
  5
122
100
AcDbEntity
100
AcDbLine
  8
0
 62
256
370
-1
  6
ByLayer
 10
2.2224823485699998
 20
-7.2319134542999999
 30
0.0
 11
2.23324742924
 21
-7.3136930425099997
 31
0.0
  0
LINE
  5
123
100
AcDbEntity
100
AcDbLine
  8
0
 62
256
370
-1
  6
ByLayer
 10
2.23324742924
 20
-7.3136930425099997
 30
0.0
 11
2.2407692592899999
 21
-7.4289267816600004
 31
0.0
  0
LINE
  5
124
100
AcDbEntity
100
AcDbLine
  8
0
 62
256
370
-1
  6
ByLayer
 10
2.2407692592899999
 20
-7.4289267816600004
 30
0.0
 11
2.2406505657600002
 21
-7.5773996227699998
 31
0.0
  0
LINE
  5
125
100
AcDbEntity
100
AcDbLine
  8
0
 62
256
370
-1
  6
ByLayer
 10
2.2406505657600002
 20
-7.5773996227699998
 30
0.0
 11
2.22851793817
 21
-7.7584604014299998
 31
0.0
  0
LINE
  5
126
100
AcDbEntity
100
AcDbLine
  8
0
 62
256
370
-1
  6
ByLayer
 10
2.22851793817
 20
-7.7584604014299998
 30
0.0
 11
2.2000603026899999
 21
-7.9710246936200004
 31
0.0
  0
LINE
  5
127
100
AcDbEntity
100
AcDbLine
  8
0
 62
256
370
-1
  6
ByLayer
 10
2.2000603026899999
 20
-7.9710246936200004
 30
0.0
 11
2.1510670804399998
 21
-8.2135808523300007
 31
0.0
  0
LINE
  5
128
100
AcDbEntity
100
AcDbLine
  8
0
 62
256
370
-1
  6
ByLayer
 10
2.1510670804399998
 20
-8.2135808523300007
 30
0.0
 11
2.0774657774900001
 21
-8.4841991929899994
 31
0.0
  0
LINE
  5
129
100
AcDbEntity
100
AcDbLine
  8
0
 62
256
370
-1
  6
ByLayer
 10
2.0774657774900001
 20
-8.4841991929899994
 30
0.0
 11
1.9753587575
 21
-8.7805442760000005
 31
0.0
  0
LINE
  5
12A
100
AcDbEntity
100
AcDbLine
  8
0
 62
256
370
-1
  6
ByLayer
 10
0.578422341147
 20
-8.98139341077
 30
0.0
 11
0.578422341134
 21
-8.9813934105600008
 31
0.0
  0
LINE
  5
12B
100
AcDbEntity
100
AcDbLine
  8
0
 62
256
370
-1
  6
ByLayer
 10
1.9753587575
 20
-8.7805442760000005
 30
0.0
 11
1.97535875746
 21
-8.7805442758000005
 31
0.0
  0
LINE
  5
12C
100
AcDbEntity
100
AcDbLine
  8
0
 62
256
370
-1
  6
ByLayer
 10
0.578422341134
 20
-8.9813934105600008
 30
0.0
 11
1.97535875746
 21
-8.7805442758000005
 31
0.0
  0
LINE
  5
12D
100
AcDbEntity
100
AcDbLine
  8
0
 62
256
370
-1
  6
ByLayer
 10
2.20869981351
 20
-7.1674015608000001
 30
0.0
 11
2.0025544975799998
 21
-6.4984440817999998
 31
0.0
  0
LINE
  5
12E
100
AcDbEntity
100
AcDbLine
  8
0
 62
256
370
-1
  6
ByLayer
 10
2.0025544975799998
 20
-6.4984440817999998
 30
0.0
 11
3.5998020407300002
 21
-5.76900557007
 31
0.0
  0
LINE
  5
12F
100
AcDbEntity
100
AcDbLine
  8
0
 62
256
370
-1
  6
ByLayer
 10
3.9703698978599999
 20
-6.3628737905200001
 30
0.0
 11
3.5998020407300002
 21
-5.76900557007
 31
0.0
  0
LINE
  5
130
100
AcDbEntity
100
AcDbLine
  8
0
 62
256
370
-1
  6
ByLayer
 10
3.9703698978599999
 20
-6.3628737905200001
 30
0.0
 11
3.9797138624700001
 21
-6.3764706204100001
 31
0.0
  0
LINE
  5
131
100
AcDbEntity
100
AcDbLine
  8
0
 62
256
370
-1
  6
ByLayer
 10
3.9797138624700001
 20
-6.3764706204100001
 30
0.0
 11
4.01009909289
 21
-6.4155362414499999
 31
0.0
  0
LINE
  5
132
100
AcDbEntity
100
AcDbLine
  8
0
 62
256
370
-1
  6
ByLayer
 10
4.01009909289
 20
-6.4155362414499999
 30
0.0
 11
4.0648543532400003
 21
-6.4772261877500004
 31
0.0
  0
LINE
  5
133
100
AcDbEntity
100
AcDbLine
  8
0
 62
256
370
-1
  6
ByLayer
 10
4.0648543532400003
 20
-6.4772261877500004
 30
0.0
 11
4.1470164513999999
 21
-6.5583728586000003
 31
0.0
  0
LINE
  5
134
100
AcDbEntity
100
AcDbLine
  8
0
 62
256
370
-1
  6
ByLayer
 10
4.1470164513999999
 20
-6.5583728586000003
 30
0.0
 11
4.2593024656100003
 21
-6.6555121897099996
 31
0.0
  0
LINE
  5
135
100
AcDbEntity
100
AcDbLine
  8
0
 62
256
370
-1
  6
ByLayer
 10
4.2593024656100003
 20
-6.6555121897099996
 30
0.0
 11
4.4040842534299998
 21
-6.7649125559799996
 31
0.0
  0
LINE
  5
136
100
AcDbEntity
100
AcDbLine
  8
0
 62
256
370
-1
  6
ByLayer
 10
4.4040842534299998
 20
-6.7649125559799996
 30
0.0
 11
4.5833654148300003
 21
-6.8826057184799998
 31
0.0
  0
LINE
  5
137
100
AcDbEntity
100
AcDbLine
  8
0
 62
256
370
-1
  6
ByLayer
 10
4.5833654148300003
 20
-6.8826057184799998
 30
0.0
 11
4.7987608660100003
 21
-7.0044196157299998
 31
0.0
  0
LINE
  5
138
100
AcDbEntity
100
AcDbLine
  8
0
 62
256
370
-1
  6
ByLayer
 10
4.7987608660100003
 20
-7.0044196157299998
 30
0.0
 11
5.0514791650499999
 21
-7.1260127875399997
 31
0.0
  0
LINE
  5
139
100
AcDbEntity
100
AcDbLine
  8
0
 62
256
370
-1
  6
ByLayer
 10
5.0514791650499999
 20
-7.1260127875399997
 30
0.0
 11
5.3423077134500003
 21
-7.2429102091999997
 31
0.0
  0
LINE
  5
13A
100
AcDbEntity
100
AcDbLine
  8
0
 62
256
370
-1
  6
ByLayer
 10
5.7330663599399996
 20
-4.8354886115599998
 30
0.0
 11
5.7451950088899997
 21
-4.8466724987200003
 31
0.0
  0
LINE
  5
13B
100
AcDbEntity
100
AcDbLine
  8
0
 62
256
370
-1
  6
ByLayer
 10
5.7451950088899997
 20
-4.8466724987200003
 30
0.0
 11
5.7795387290900004
 21
-4.8823080688499996
 31
0.0
  0
LINE
  5
13C
100
AcDbEntity
100
AcDbLine
  8
0
 62
256
370
-1
  6
ByLayer
 10
5.7795387290900004
 20
-4.8823080688499996
 30
0.0
 11
5.8328082746599996
 21
-4.9452853943299999
 31
0.0
  0
LINE
  5
13D
100
AcDbEntity
100
AcDbLine
  8
0
 62
256
370
-1
  6
ByLayer
 10
5.8328082746599996
 20
-4.9452853943299999
 30
0.0
 11
5.90143610369
 21
-5.03815957614
 31
0.0
  0
LINE
  5
13E
100
AcDbEntity
100
AcDbLine
  8
0
 62
256
370
-1
  6
ByLayer
 10
5.90143610369
 20
-5.03815957614
 30
0.0
 11
5.9816067305300002
 21
-5.1631270488199998
 31
0.0
  0
LINE
  5
13F
100
AcDbEntity
100
AcDbLine
  8
0
 62
256
370
-1
  6
ByLayer
 10
5.9816067305300002
 20
-5.1631270488199998
 30
0.0
 11
6.0692889620899999
 21
-5.3220044622299998
 31
0.0
  0
LINE
  5
140
100
AcDbEntity
100
AcDbLine
  8
0
 62
256
370
-1
  6
ByLayer
 10
6.0692889620899999
 20
-5.3220044622299998
 30
0.0
 11
6.1602698083999998
 21
-5.5162102832900004
 31
0.0
  0
LINE
  5
141
100
AcDbEntity
100
AcDbLine
  8
0
 62
256
370
-1
  6
ByLayer
 10
6.1602698083999998
 20
-5.5162102832900004
 30
0.0
 11
6.2501898470199997
 21
-5.7467492444500001
 31
0.0
  0
LINE
  5
142
100
AcDbEntity
100
AcDbLine
  8
0
 62
256
370
-1
  6
ByLayer
 10
6.2501898470199997
 20
-5.7467492444500001
 30
0.0
 11
6.3345798118100003
 21
-6.0141997481700002
 31
0.0
  0
LINE
  5
143
100
AcDbEntity
100
AcDbLine
  8
0
 62
256
370
-1
  6
ByLayer
 10
6.3345798118100003
 20
-6.0141997481700002
 30
0.0
 11
6.4088981684400004
 21
-6.3187043189500001
 31
0.0
  0
LINE
  5
144
100
AcDbEntity
100
AcDbLine
  8
0
 62
256
370
-1
  6
ByLayer
 10
5.3423077134500003
 20
-7.2429102091999997
 30
0.0
 11
5.3423077133200003
 21
-7.2429102090399997
 31
0.0
  0
LINE
  5
145
100
AcDbEntity
100
AcDbLine
  8
0
 62
256
370
-1
  6
ByLayer
 10
6.4088981684400004
 20
-6.3187043189500001
 30
0.0
 11
6.4088981682900004
 21
-6.3187043188000001
 31
0.0
  0
LINE
  5
146
100
AcDbEntity
100
AcDbLine
  8
0
 62
256
370
-1
  6
ByLayer
 10
5.3423077133200003
 20
-7.2429102090399997
 30
0.0
 11
6.4088981682900004
 21
-6.3187043188000001
 31
0.0
  0
LINE
  5
147
100
AcDbEntity
100
AcDbLine
  8
0
 62
256
370
-1
  6
ByLayer
 10
5.7330663599399996
 20
-4.8354886115599998
 30
0.0
 11
5.1979801663499998
 21
-4.3841763411399999
 31
0.0
  0
LINE
  5
148
100
AcDbEntity
100
AcDbLine
  8
0
 62
256
370
-1
  6
ByLayer
 10
5.1979801663499998
 20
-4.3841763411399999
 30
0.0
 11
6.1473060715700001
 21
-2.90699639877
 31
0.0
  0
LINE
  5
149
100
AcDbEntity
100
AcDbLine
  8
0
 62
256
370
-1
  6
ByLayer
 10
6.7801169906999998
 20
-3.2062460280499998
 30
0.0
 11
6.1473060715700001
 21
-2.90699639877
 31
0.0
  0
LINE
  5
14A
100
AcDbEntity
100
AcDbLine
  8
0
 62
256
370
-1
  6
ByLayer
 10
6.7801169906999998
 20
-3.2062460280499998
 30
0.0
 11
6.7953286351599997
 21
-3.2126326805700001
 31
0.0
  0
LINE
  5
14B
100
AcDbEntity
100
AcDbLine
  8
0
 62
256
370
-1
  6
ByLayer
 10
6.7953286351599997
 20
-3.2126326805700001
 30
0.0
 11
6.8420107868900004
 21
-3.2290692764700002
 31
0.0
  0
LINE
  5
14C
100
AcDbEntity
100
AcDbLine
  8
0
 62
256
370
-1
  6
ByLayer
 10
6.8420107868900004
 20
-3.2290692764700002
 30
0.0
 11
6.9214259461000003
 21
-3.2513632330200002
 31
0.0
  0
LINE
  5
14D
100
AcDbEntity
100
AcDbLine
  8
0
 62
256
370
-1
  6
ByLayer
 10
6.9214259461000003
 20
-3.2513632330200002
 30
0.0
 11
7.0344163038999996
 21
-3.2752079726300001
 31
0.0
  0
LINE
  5
14E
100
AcDbEntity
100
AcDbLine
  8
0
 62
256
370
-1
  6
ByLayer
 10
7.0344163038999996
 20
-3.2752079726300001
 30
0.0
 11
7.1813947974200003
 21
-3.2962203755999999
 31
0.0
  0
LINE
  5
14F
100
AcDbEntity
100
AcDbLine
  8
0
 62
256
370
-1
  6
ByLayer
 10
7.1813947974200003
 20
-3.2962203755999999
 30
0.0
 11
7.3623392913599996
 21
-3.3099788761000002
 31
0.0
  0
LINE
  5
150
100
AcDbEntity
100
AcDbLine
  8
0
 62
256
370
-1
  6
ByLayer
 10
7.3623392913599996
 20
-3.3099788761000002
 30
0.0
 11
7.5767899293400003
 21
-3.31206195118
 31
0.0
  0
LINE
  5
151
100
AcDbEntity
100
AcDbLine
  8
0
 62
256
370
-1
  6
ByLayer
 10
7.5767899293400003
 20
-3.31206195118
 30
0.0
 11
7.8238496785900002
 21
-3.2980867497899999
 31
0.0
  0
LINE
  5
152
100
AcDbEntity
100
AcDbLine
  8
0
 62
256
370
-1
  6
ByLayer
 10
7.8238496785900002
 20
-3.2980867497899999
 30
0.0
 11
8.1021880722699997
 21
-3.26374760736
 31
0.0
  0
LINE
  5
153
100
AcDbEntity
100
AcDbLine
  8
0
 62
256
370
-1
  6
ByLayer
 10
8.1021880722699997
 20
-3.26374760736
 30
0.0
 11
8.4100481336699993
 21
-3.20485419217
 31
0.0
  0
LINE
  5
154
100
AcDbEntity
100
AcDbLine
  8
0
 62
256
370
-1
  6
ByLayer
 10
7.4372248450100003
 20
-0.96834219407
 30
0.0
 11
7.4534745796799999
 21
-0.9711934359760001
 31
0.0
  0
LINE
  5
155
100
AcDbEntity
100
AcDbLine
  8
0
 62
256
370
-1
  6
ByLayer
 10
7.4534745796799999
 20
-0.9711934359760001
 30
0.0
 11
7.50163239939
 21
-0.982604368278
 31
0.0
  0
LINE
  5
156
100
AcDbEntity
100
AcDbLine
  8
0
 62
256
370
-1
  6
ByLayer
 10
7.50163239939
 20
-0.982604368278
 30
0.0
 11
7.5804937055300003
 21
-1.00678457516
 31
0.0
  0
LINE
  5
157
100
AcDbEntity
100
AcDbLine
  8
0
 62
256
370
-1
  6
ByLayer
 10
7.5804937055300003
 20
-1.00678457516
 30
0.0
 11
7.6884386827200002
 21
-1.04781230313
 31
0.0
  0
LINE
  5
158
100
AcDbEntity
100
AcDbLine
  8
0
 62
256
370
-1
  6
ByLayer
 10
7.6884386827200002
 20
-1.04781230313
 30
0.0
 11
7.8234450223599996
 21
-1.1095981177900001
 31
0.0
  0
LINE
  5
159
100
AcDbEntity
100
AcDbLine
  8
0
 62
256
370
-1
  6
ByLayer
 10
7.8234450223599996
 20
-1.1095981177900001
 30
0.0
 11
7.98310362409
 21
-1.19584970976
 31
0.0
  0
LINE
  5
15A
100
AcDbEntity
100
AcDbLine
  8
0
 62
256
370
-1
  6
ByLayer
 10
7.98310362409
 20
-1.19584970976
 30
0.0
 11
8.1646371763300003
 21
-1.3100380837000001
 31
0.0
  0
LINE
  5
15B
100
AcDbEntity
100
AcDbLine
  8
0
 62
256
370
-1
  6
ByLayer
 10
8.1646371763300003
 20
-1.3100380837000001
 30
0.0
 11
8.3649214988999994
 21
-1.4553653560399999
 31
0.0
  0
LINE
  5
15C
100
AcDbEntity
100
AcDbLine
  8
0
 62
256
370
-1
  6
ByLayer
 10
8.3649214988999994
 20
-1.4553653560399999
 30
0.0
 11
8.58050951387
 21
-1.6347343776100001
 31
0.0
  0
LINE
  5
15D
100
AcDbEntity
100
AcDbLine
  8
0
 62
256
370
-1
  6
ByLayer
 10
8.58050951387
 20
-1.6347343776100001
 30
0.0
 11
8.8076576940100004
 21
-1.8507203864499999
 31
0.0
  0
LINE
  5
15E
100
AcDbEntity
100
AcDbLine
  8
0
 62
256
370
-1
  6
ByLayer
 10
8.4100481336699993
 20
-3.20485419217
 30
0.0
 11
8.4100481334800001
 21
-3.2048541921
 31
0.0
  0
LINE
  5
15F
100
AcDbEntity
100
AcDbLine
  8
0
 62
256
370
-1
  6
ByLayer
 10
8.8076576940100004
 20
-1.8507203864499999
 30
0.0
 11
8.8076576938100004
 21
-1.8507203864099999
 31
0.0
  0
LINE
  5
160
100
AcDbEntity
100
AcDbLine
  8
0
 62
256
370
-1
  6
ByLayer
 10
8.4100481334800001
 20
-3.2048541921
 30
0.0
 11
8.8076576938100004
 21
-1.8507203864099999
 31
0.0
  0
ARC
  5
161
100
AcDbEntity
  8
0
 62
256
370
-1
  6
ByLayer
100
AcDbCircle
 10
0.0
 20
0.0
 30
0.0
 40
2.4550000000000001
100
AcDbArc
 50
0.0
 51
323.1959852319999982
  0
LINE
  5
162
100
AcDbEntity
100
AcDbLine
  8
0
 62
256
370
-1
  6
ByLayer
 10
2.4550000000000001
 20
0.0
 30
0.0
 11
1.9656924643522504
 21
-1.4707406758462813
 31
0.0
  0
ENDSEC
  0
SECTION
  2
OBJECTS
  0
DICTIONARY
  5
C
100
AcDbDictionary
280
0
281
1
  3
ACAD_GROUP
350
D
  3
ACAD_LAYOUT
350
1A
  3
ACAD_MLINESTYLE
350
17
  3
ACAD_PLOTSETTINGS
350
19
  3
ACAD_PLOTSTYLENAME
350
E
  3
AcDbVariableDictionary
350
163
  0
DICTIONARY
  5
D
100
AcDbDictionary
280
0
281
1
  0
ACDBDICTIONARYWDFLT
  5
E
100
AcDbDictionary
281
1
  3
Normal
350
F
100
AcDbDictionaryWithDefault
340
F
  0
ACDBPLACEHOLDER
  5
F
  0
DICTIONARY
  5
17
100
AcDbDictionary
280
0
281
1
  3
Standard
350
18
  0
MLINESTYLE
  5
18
100
AcDbMlineStyle
  2
STANDARD
 70
0
  3

 62
256
 51
90.0
 52
90.0
 71
2
 49
0.5
 62
256
  6
BYLAYER
 49
-0.5
 62
256
  6
BYLAYER
  0
DICTIONARY
  5
19
100
AcDbDictionary
280
0
281
1
  0
DICTIONARY
  5
1A
100
AcDbDictionary
281
1
  3
Layout1
350
1E
  3
Layout2
350
26
  3
Model
350
22
  0
LAYOUT
  5
1E
100
AcDbPlotSettings
  1

  2
C:\Program Files\AutoCAD 2002\plotters\DWF ePlot (optimized for plotting).pc3
  4

  6

 40
0.0
 41
0.0
 42
0.0
 43
0.0
 44
0.0
 45
0.0
 46
0.0
 47
0.0
 48
0.0
 49
0.0
140
0.0
141
0.0
142
1.0
143
1.0
 70
688
 72
0
 73
0
 74
5
  7

 75
16
147
1.0
148
0.0
149
0.0
100
AcDbLayout
  1
Layout1
 70
1
 71
1
 10
0.0
 20
0.0
 11
420.0
 21
297.0
 12
0.0
 22
0.0
 32
0.0
 14
100000000000000000000.0
 24
100000000000000000000.0
 34
100000000000000000000.0
 15
-100000000000000000000.0
 25
-100000000000000000000.0
 35
-100000000000000000000.0
146
0.0
 13
0.0
 23
0.0
 33
0.0
 16
1.0
 26
0.0
 36
0.0
 17
0.0
 27
1.0
 37
0.0
 76
0
330
1B
  0
LAYOUT
  5
22
100
AcDbPlotSettings
  1

  2
C:\Program Files\AutoCAD 2002\plotters\DWF ePlot (optimized for plotting).pc3
  4

  6

 40
0.0
 41
0.0
 42
0.0
 43
0.0
 44
0.0
 45
0.0
 46
0.0
 47
0.0
 48
0.0
 49
0.0
140
0.0
141
0.0
142
1.0
143
1.0
 70
1712
 72
0
 73
0
 74
0
  7

 75
0
147
1.0
148
0.0
149
0.0
100
AcDbLayout
  1
Model
 70
1
 71
0
 10
0.0
 20
0.0
 11
12.0
 21
9.0
 12
0.0
 22
0.0
 32
0.0
 14
0.0
 24
0.0
 34
0.0
 15
0.0
 25
0.0
 35
0.0
146
0.0
 13
0.0
 23
0.0
 33
0.0
 16
1.0
 26
0.0
 36
0.0
 17
0.0
 27
1.0
 37
0.0
 76
0
330
1F
  0
LAYOUT
  5
26
100
AcDbPlotSettings
  1

  2
C:\Program Files\AutoCAD 2002\plotters\DWF ePlot (optimized for plotting).pc3
  4

  6

 40
0.0
 41
0.0
 42
0.0
 43
0.0
 44
0.0
 45
0.0
 46
0.0
 47
0.0
 48
0.0
 49
0.0
140
0.0
141
0.0
142
1.0
143
1.0
 70
688
 72
0
 73
0
 74
5
  7

 75
16
147
1.0
148
0.0
149
0.0
100
AcDbLayout
  1
Layout2
 70
1
 71
2
 10
0.0
 20
0.0
 11
12.0
 21
9.0
 12
0.0
 22
0.0
 32
0.0
 14
0.0
 24
0.0
 34
0.0
 15
0.0
 25
0.0
 35
0.0
146
0.0
 13
0.0
 23
0.0
 33
0.0
 16
1.0
 26
0.0
 36
0.0
 17
0.0
 27
1.0
 37
0.0
 76
0
330
23
  0
DICTIONARY
  5
163
100
AcDbDictionary
281
1
  3
DIMASSOC
350
165
  3
HIDETEXT
350
164
  0
DICTIONARYVAR
  5
164
100
DictionaryVariables
280
0
  1
2
  0
DICTIONARYVAR
  5
165
100
DictionaryVariables
280
0
  1
1
  0
ENDSEC
  0
EOF
