999
DXF created by Inkscape
0
SECTION
2
ENTITIES
0
LINE
8
2
62
4
10
12.496518
20
298.419012
30
0
11
13.420231
21
298.523999
31
0
0
LINE
8
2
62
4
10
13.420231
20
298.523999
30
0
11
14.304151
21
298.408852
31
0
0
LINE
8
2
62
4
10
14.304151
20
298.408852
30
0
11
16.159198
21
297.598028
31
0
0
LINE
8
2
62
4
10
16.159198
20
297.598028
30
0
11
16.159198
21
296.401970
31
0
0
LINE
8
2
62
4
10
16.159198
20
296.401970
30
0
11
14.304151
21
295.591145
31
0
0
LINE
8
2
62
4
10
14.304151
20
295.591145
30
0
11
13.420231
21
295.475999
31
0
0
LINE
8
2
62
4
10
13.420231
20
295.475999
30
0
11
12.496518
21
295.580985
31
0
0
LINE
8
2
62
4
10
12.496518
20
295.580985
30
0
11
12.088424
21
293.528948
31
0
0
LINE
8
2
62
4
10
12.088424
20
293.528948
30
0
11
12.981940
21
293.272408
31
0
0
LINE
8
2
62
4
10
12.981940
20
293.272408
30
0
11
13.754664
21
292.827625
31
0
0
LINE
8
2
62
4
10
13.754664
20
292.827625
30
0
11
15.157873
21
291.368536
31
0
0
LINE
8
2
62
4
10
15.157873
20
291.368536
30
0
11
14.700109
21
290.263919
31
0
0
LINE
8
2
62
4
10
14.700109
20
290.263919
30
0
11
12.676293
21
290.224408
31
0
0
LINE
8
2
62
4
10
12.676293
20
290.224408
30
0
11
11.815516
21
290.456112
31
0
0
LINE
8
2
62
4
10
11.815516
20
290.456112
30
0
11
11.002151
21
290.906821
31
0
0
LINE
8
2
62
4
10
11.002151
20
290.906821
30
0
11
9.839678
21
289.167203
31
0
0
LINE
8
2
62
4
10
9.839678
20
289.167203
30
0
11
10.567247
21
288.588083
31
0
0
LINE
8
2
62
4
10
10.567247
20
288.588083
30
0
11
11.110807
21
287.881681
31
0
0
LINE
8
2
62
4
10
11.110807
20
287.881681
30
0
11
11.849100
21
285.996436
31
0
0
LINE
8
2
62
4
10
11.849100
20
285.996436
30
0
11
11.003562
21
285.150899
31
0
0
LINE
8
2
62
4
10
11.003562
20
285.150899
30
0
11
9.118318
21
285.889192
31
0
0
LINE
8
2
62
4
10
9.118318
20
285.889192
30
0
11
8.411916
21
286.432752
31
0
0
LINE
8
2
62
4
10
8.411916
20
286.432752
30
0
11
7.832796
21
287.160321
31
0
0
LINE
8
2
62
4
10
7.832796
20
287.160321
30
0
11
6.093178
21
285.997848
31
0
0
LINE
8
2
62
4
10
6.093178
20
285.997848
30
0
11
6.543887
21
285.184483
31
0
0
LINE
8
2
62
4
10
6.543887
20
285.184483
30
0
11
6.775591
21
284.323705
31
0
0
LINE
8
2
62
4
10
6.775591
20
284.323705
30
0
11
6.736080
21
282.299890
31
0
0
LINE
8
2
62
4
10
6.736080
20
282.299890
30
0
11
5.631462
21
281.842125
31
0
0
LINE
8
2
62
4
10
5.631462
20
281.842125
30
0
11
4.172373
21
283.245334
31
0
0
LINE
8
2
62
4
10
4.172373
20
283.245334
30
0
11
3.727591
21
284.018059
31
0
0
LINE
8
2
62
4
10
3.727591
20
284.018059
30
0
11
3.471051
21
284.911574
31
0
0
LINE
8
2
62
4
10
3.471051
20
284.911574
30
0
11
1.419013
21
284.503481
31
0
0
LINE
8
2
62
4
10
1.419013
20
284.503481
30
0
11
1.524000
21
283.579768
31
0
0
LINE
8
2
62
4
10
1.524000
20
283.579768
30
0
11
1.408853
21
282.695848
31
0
0
LINE
8
2
62
4
10
1.408853
20
282.695848
30
0
11
0.598029
21
280.840801
31
0
0
LINE
8
2
62
4
10
0.598029
20
280.840801
30
0
11
-0.598029
21
280.840801
31
0
0
LINE
8
2
62
4
10
-0.598029
20
280.840801
30
0
11
-1.408853
21
282.695848
31
0
0
LINE
8
2
62
4
10
-1.408853
20
282.695848
30
0
11
-1.524000
21
283.579768
31
0
0
LINE
8
2
62
4
10
-1.524000
20
283.579768
30
0
11
-1.419013
21
284.503481
31
0
0
LINE
8
2
62
4
10
-1.419013
20
284.503481
30
0
11
-3.471051
21
284.911574
31
0
0
LINE
8
2
62
4
10
-3.471051
20
284.911574
30
0
11
-3.727591
21
284.018059
31
0
0
LINE
8
2
62
4
10
-3.727591
20
284.018059
30
0
11
-4.172373
21
283.245334
31
0
0
LINE
8
2
62
4
10
-4.172373
20
283.245334
30
0
11
-5.631462
21
281.842125
31
0
0
LINE
8
2
62
4
10
-5.631462
20
281.842125
30
0
11
-6.736080
21
282.299890
31
0
0
LINE
8
2
62
4
10
-6.736080
20
282.299890
30
0
11
-6.775591
21
284.323705
31
0
0
LINE
8
2
62
4
10
-6.775591
20
284.323705
30
0
11
-6.543887
21
285.184483
31
0
0
LINE
8
2
62
4
10
-6.543887
20
285.184483
30
0
11
-6.093178
21
285.997848
31
0
0
LINE
8
2
62
4
10
-6.093178
20
285.997848
30
0
11
-7.832796
21
287.160321
31
0
0
LINE
8
2
62
4
10
-7.832796
20
287.160321
30
0
11
-8.411916
21
286.432752
31
0
0
LINE
8
2
62
4
10
-8.411916
20
286.432752
30
0
11
-9.118318
21
285.889192
31
0
0
LINE
8
2
62
4
10
-9.118318
20
285.889192
30
0
11
-11.003562
21
285.150899
31
0
0
LINE
8
2
62
4
10
-11.003562
20
285.150899
30
0
11
-11.849100
21
285.996436
31
0
0
LINE
8
2
62
4
10
-11.849100
20
285.996436
30
0
11
-11.110807
21
287.881681
31
0
0
LINE
8
2
62
4
10
-11.110807
20
287.881681
30
0
11
-10.567247
21
288.588083
31
0
0
LINE
8
2
62
4
10
-10.567247
20
288.588083
30
0
11
-9.839678
21
289.167203
31
0
0
LINE
8
2
62
4
10
-9.839678
20
289.167203
30
0
11
-11.002151
21
290.906821
31
0
0
LINE
8
2
62
4
10
-11.002151
20
290.906821
30
0
11
-11.815516
21
290.456112
31
0
0
LINE
8
2
62
4
10
-11.815516
20
290.456112
30
0
11
-12.676293
21
290.224408
31
0
0
LINE
8
2
62
4
10
-12.676293
20
290.224408
30
0
11
-14.700109
21
290.263919
31
0
0
LINE
8
2
62
4
10
-14.700109
20
290.263919
30
0
11
-15.157873
21
291.368536
31
0
0
LINE
8
2
62
4
10
-15.157873
20
291.368536
30
0
11
-13.754664
21
292.827625
31
0
0
LINE
8
2
62
4
10
-13.754664
20
292.827625
30
0
11
-12.981940
21
293.272408
31
0
0
LINE
8
2
62
4
10
-12.981940
20
293.272408
30
0
11
-12.088424
21
293.528948
31
0
0
LINE
8
2
62
4
10
-12.088424
20
293.528948
30
0
11
-12.496518
21
295.580985
31
0
0
LINE
8
2
62
4
10
-12.496518
20
295.580985
30
0
11
-13.420231
21
295.475999
31
0
0
LINE
8
2
62
4
10
-13.420231
20
295.475999
30
0
11
-14.304151
21
295.591145
31
0
0
LINE
8
2
62
4
10
-14.304151
20
295.591145
30
0
11
-16.159198
21
296.401970
31
0
0
LINE
8
2
62
4
10
-16.159198
20
296.401970
30
0
11
-16.159198
21
297.598028
31
0
0
LINE
8
2
62
4
10
-16.159198
20
297.598028
30
0
11
-14.304151
21
298.408852
31
0
0
LINE
8
2
62
4
10
-14.304151
20
298.408852
30
0
11
-13.420231
21
298.523999
31
0
0
LINE
8
2
62
4
10
-13.420231
20
298.523999
30
0
11
-12.496518
21
298.419012
31
0
0
LINE
8
2
62
4
10
-12.496518
20
298.419012
30
0
11
-12.088424
21
300.471050
31
0
0
LINE
8
2
62
4
10
-12.088424
20
300.471050
30
0
11
-12.981940
21
300.727590
31
0
0
LINE
8
2
62
4
10
-12.981940
20
300.727590
30
0
11
-13.754664
21
301.172372
31
0
0
LINE
8
2
62
4
10
-13.754664
20
301.172372
30
0
11
-15.157873
21
302.631461
31
0
0
LINE
8
2
62
4
10
-15.157873
20
302.631461
30
0
11
-14.700109
21
303.736079
31
0
0
LINE
8
2
62
4
10
-14.700109
20
303.736079
30
0
11
-12.676293
21
303.775590
31
0
0
LINE
8
2
62
4
10
-12.676293
20
303.775590
30
0
11
-11.815516
21
303.543885
31
0
0
LINE
8
2
62
4
10
-11.815516
20
303.543885
30
0
11
-11.002151
21
303.093176
31
0
0
LINE
8
2
62
4
10
-11.002151
20
303.093176
30
0
11
-9.839678
21
304.832794
31
0
0
LINE
8
2
62
4
10
-9.839678
20
304.832794
30
0
11
-10.567247
21
305.411914
31
0
0
LINE
8
2
62
4
10
-10.567247
20
305.411914
30
0
11
-11.110807
21
306.118316
31
0
0
LINE
8
2
62
4
10
-11.110807
20
306.118316
30
0
11
-11.849100
21
308.003561
31
0
0
LINE
8
2
62
4
10
-11.849100
20
308.003561
30
0
11
-11.003562
21
308.849099
31
0
0
LINE
8
2
62
4
10
-11.003562
20
308.849099
30
0
11
-9.118318
21
308.110805
31
0
0
LINE
8
2
62
4
10
-9.118318
20
308.110805
30
0
11
-8.411916
21
307.567245
31
0
0
LINE
8
2
62
4
10
-8.411916
20
307.567245
30
0
11
-7.832796
21
306.839676
31
0
0
LINE
8
2
62
4
10
-7.832796
20
306.839676
30
0
11
-6.093178
21
308.002150
31
0
0
LINE
8
2
62
4
10
-6.093178
20
308.002150
30
0
11
-6.543887
21
308.815514
31
0
0
LINE
8
2
62
4
10
-6.543887
20
308.815514
30
0
11
-6.775591
21
309.676292
31
0
0
LINE
8
2
62
4
10
-6.775591
20
309.676292
30
0
11
-6.736080
21
311.700108
31
0
0
LINE
8
2
62
4
10
-6.736080
20
311.700108
30
0
11
-5.631462
21
312.157872
31
0
0
LINE
8
2
62
4
10
-5.631462
20
312.157872
30
0
11
-4.172373
21
310.754663
31
0
0
LINE
8
2
62
4
10
-4.172373
20
310.754663
30
0
11
-3.727591
21
309.981939
31
0
0
LINE
8
2
62
4
10
-3.727591
20
309.981939
30
0
11
-3.471051
21
309.088423
31
0
0
LINE
8
2
62
4
10
-3.471051
20
309.088423
30
0
11
-1.419013
21
309.496516
31
0
0
LINE
8
2
62
4
10
-1.419013
20
309.496516
30
0
11
-1.524000
21
310.420230
31
0
0
LINE
8
2
62
4
10
-1.524000
20
310.420230
30
0
11
-1.408853
21
311.304150
31
0
0
LINE
8
2
62
4
10
-1.408853
20
311.304150
30
0
11
-0.598029
21
313.159196
31
0
0
LINE
8
2
62
4
10
-0.598029
20
313.159196
30
0
11
0.598029
21
313.159196
31
0
0
LINE
8
2
62
4
10
0.598029
20
313.159196
30
0
11
1.408853
21
311.304150
31
0
0
LINE
8
2
62
4
10
1.408853
20
311.304150
30
0
11
1.524000
21
310.420230
31
0
0
LINE
8
2
62
4
10
1.524000
20
310.420230
30
0
11
1.419013
21
309.496516
31
0
0
LINE
8
2
62
4
10
1.419013
20
309.496516
30
0
11
3.471051
21
309.088423
31
0
0
LINE
8
2
62
4
10
3.471051
20
309.088423
30
0
11
3.727591
21
309.981939
31
0
0
LINE
8
2
62
4
10
3.727591
20
309.981939
30
0
11
4.172373
21
310.754663
31
0
0
LINE
8
2
62
4
10
4.172373
20
310.754663
30
0
11
5.631462
21
312.157872
31
0
0
LINE
8
2
62
4
10
5.631462
20
312.157872
30
0
11
6.736080
21
311.700108
31
0
0
LINE
8
2
62
4
10
6.736080
20
311.700108
30
0
11
6.775591
21
309.676292
31
0
0
LINE
8
2
62
4
10
6.775591
20
309.676292
30
0
11
6.543887
21
308.815514
31
0
0
LINE
8
2
62
4
10
6.543887
20
308.815514
30
0
11
6.093178
21
308.002150
31
0
0
LINE
8
2
62
4
10
6.093178
20
308.002150
30
0
11
7.832796
21
306.839676
31
0
0
LINE
8
2
62
4
10
7.832796
20
306.839676
30
0
11
8.411916
21
307.567245
31
0
0
LINE
8
2
62
4
10
8.411916
20
307.567245
30
0
11
9.118318
21
308.110805
31
0
0
LINE
8
2
62
4
10
9.118318
20
308.110805
30
0
11
11.003562
21
308.849099
31
0
0
LINE
8
2
62
4
10
11.003562
20
308.849099
30
0
11
11.849100
21
308.003561
31
0
0
LINE
8
2
62
4
10
11.849100
20
308.003561
30
0
11
11.110807
21
306.118316
31
0
0
LINE
8
2
62
4
10
11.110807
20
306.118316
30
0
11
10.567247
21
305.411914
31
0
0
LINE
8
2
62
4
10
10.567247
20
305.411914
30
0
11
9.839678
21
304.832794
31
0
0
LINE
8
2
62
4
10
9.839678
20
304.832794
30
0
11
11.002151
21
303.093176
31
0
0
LINE
8
2
62
4
10
11.002151
20
303.093176
30
0
11
11.815516
21
303.543885
31
0
0
LINE
8
2
62
4
10
11.815516
20
303.543885
30
0
11
12.676293
21
303.775590
31
0
0
LINE
8
2
62
4
10
12.676293
20
303.775590
30
0
11
14.700109
21
303.736079
31
0
0
LINE
8
2
62
4
10
14.700109
20
303.736079
30
0
11
15.157873
21
302.631461
31
0
0
LINE
8
2
62
4
10
15.157873
20
302.631461
30
0
11
13.754664
21
301.172372
31
0
0
LINE
8
2
62
4
10
13.754664
20
301.172372
30
0
11
12.981940
21
300.727590
31
0
0
LINE
8
2
62
4
10
12.981940
20
300.727590
30
0
11
12.088424
21
300.471050
31
0
0
LINE
8
2
62
4
10
12.088424
20
300.471050
30
0
11
12.496518
21
298.419012
31
0
0
LINE
8
2
62
4
10
12.496518
20
298.419012
30
0
11
12.496518
21
298.419012
31
0
0
ENDSEC
0
EOF

