999
DXF created by Inkscape
0
SECTION
2
ENTITIES
0
LINE
8
2
62
4
10
12.496518
20
298.419012
30
0
11
13.420231
21
298.523999
31
0
0
LINE
8
2
62
4
10
13.420231
20
298.523999
30
0
11
14.304151
21
298.408852
31
0
0
LINE
8
2
62
4
10
14.304151
20
298.408852
30
0
11
16.159198
21
297.598028
31
0
0
LINE
8
2
62
4
10
16.159198
20
297.598028
30
0
11
16.159198
21
296.401970
31
0
0
LINE
8
2
62
4
10
16.159198
20
296.401970
30
0
11
14.304151
21
295.591145
31
0
0
LINE
8
2
62
4
10
14.304151
20
295.591145
30
0
11
13.420231
21
295.475999
31
0
0
LINE
8
2
62
4
10
13.420231
20
295.475999
30
0
11
12.496518
21
295.580985
31
0
0
LINE
8
2
62
4
10
12.496518
20
295.580985
30
0
11
12.088424
21
293.528948
31
0
0
LINE
8
2
62
4
10
12.088424
20
293.528948
30
0
11
12.981940
21
293.272408
31
0
0
LINE
8
2
62
4
10
12.981940
20
293.272408
30
0
11
13.754664
21
292.827625
31
0
0
LINE
8
2
62
4
10
13.754664
20
292.827625
30
0
11
15.157873
21
291.368536
31
0
0
LINE
8
2
62
4
10
15.157873
20
291.368536
30
0
11
14.700109
21
290.263919
31
0
0
LINE
8
2
62
4
10
14.700109
20
290.263919
30
0
11
12.676293
21
290.224408
31
0
0
LINE
8
2
62
4
10
12.676293
20
290.224408
30
0
11
11.815516
21
290.456112
31
0
0
LINE
8
2
62
4
10
11.815516
20
290.456112
30
0
11
11.002151
21
290.906821
31
0
0
LINE
8
2
62
4
10
11.002151
20
290.906821
30
0
11
9.839678
21
289.167203
31
0
0
LINE
8
2
62
4
10
9.839678
20
289.167203
30
0
11
10.567247
21
288.588083
31
0
0
LINE
8
2
62
4
10
10.567247
20
288.588083
30
0
11
11.110807
21
287.881681
31
0
0
LINE
8
2
62
4
10
11.110807
20
287.881681
30
0
11
11.849100
21
285.996436
31
0
0
LINE
8
2
62
4
10
11.849100
20
285.996436
30
0
11
11.003562
21
285.150899
31
0
0
LINE
8
2
62
4
10
11.003562
20
285.150899
30
0
11
9.118318
21
285.889192
31
0
0
LINE
8
2
62
4
10
9.118318
20
285.889192
30
0
11
8.411916
21
286.432752
31
0
0
LINE
8
2
62
4
10
8.411916
20
286.432752
30
0
11
7.832796
21
287.160321
31
0
0
LINE
8
2
62
4
10
7.832796
20
287.160321
30
0
11
6.093178
21
285.997848
31
0
0
LINE
8
2
62
4
10
6.093178
20
285.997848
30
0
11
6.543887
21
285.184483
31
0
0
LINE
8
2
62
4
10
6.543887
20
285.184483
30
0
11
6.775591
21
284.323705
31
0
0
LINE
8
2
62
4
10
6.775591
20
284.323705
30
0
11
6.736080
21
282.299890
31
0
0
LINE
8
2
62
4
10
6.736080
20
282.299890
30
0
11
5.631462
21
281.842125
31
0
0
LINE
8
2
62
4
10
5.631462
20
281.842125
30
0
11
4.172373
21
283.245334
31
0
0
LINE
8
2
62
4
10
4.172373
20
283.245334
30
0
11
3.727591
21
284.018059
31
0
0
LINE
8
2
62
4
10
3.727591
20
284.018059
30
0
11
3.471051
21
284.911574
31
0
0
LINE
8
2
62
4
10
3.471051
20
284.911574
30
0
11
1.419013
21
284.503481
31
0
0
LINE
8
2
62
4
10
1.419013
20
284.503481
30
0
11
1.524000
21
283.579768
31
0
0
LINE
8
2
62
4
10
1.524000
20
283.579768
30
0
11
1.408853
21
282.695848
31
0
0
LINE
8
2
62
4
10
1.408853
20
282.695848
30
0
11
0.598029
21
280.840801
31
0
0
LINE
8
2
62
4
10
0.598029
20
280.840801
30
0
11
-0.598029
21
280.840801
31
0
0
LINE
8
2
62
4
10
-0.598029
20
280.840801
30
0
11
-1.408853
21
282.695848
31
0
0
LINE
8
2
62
4
10
-1.408853
20
282.695848
30
0
11
-1.524000
21
283.579768
31
0
0
LINE
8
2
62
4
10
-1.524000
20
283.579768
30
0
11
-1.419013
21
284.503481
31
0
0
LINE
8
2
62
4
10
-1.419013
20
284.503481
30
0
11
-3.471051
21
284.911574
31
0
0
LINE
8
2
62
4
10
-3.471051
20
284.911574
30
0
11
-3.727591
21
284.018059
31
0
0
LINE
8
2
62
4
10
-3.727591
20
284.018059
30
0
11
-4.172373
21
283.245334
31
0
0
LINE
8
2
62
4
10
-4.172373
20
283.245334
30
0
11
-5.631462
21
281.842125
31
0
0
LINE
8
2
62
4
10
-5.631462
20
281.842125
30
0
11
-6.736080
21
282.299890
31
0
0
LINE
8
2
62
4
10
-6.736080
20
282.299890
30
0
11
-6.775591
21
284.323705
31
0
0
LINE
8
2
62
4
10
-6.775591
20
284.323705
30
0
11
-6.543887
21
285.184483
31
0
0
LINE
8
2
62
4
10
-6.543887
20
285.184483
30
0
11
-6.093178
21
285.997848
31
0
0
LINE
8
2
62
4
10
-6.093178
20
285.997848
30
0
11
-7.832796
21
287.160321
31
0
0
LINE
8
2
62
4
10
-7.832796
20
287.160321
30
0
11
-8.411916
21
286.432752
31
0
0
LINE
8
2
62
4
10
-8.411916
20
286.432752
30
0
11
-9.118318
21
285.889192
31
0
0
LINE
8
2
62
4
10
-9.118318
20
285.889192
30
0
11
-11.003562
21
285.150899
31
0
0
LINE
8
2
62
4
10
-11.003562
20
285.150899
30
0
11
-11.849100
21
285.996436
31
0
0
LINE
8
2
62
4
10
-11.849100
20
285.996436
30
0
11
-11.110807
21
287.881681
31
0
0
LINE
8
2
62
4
10
-11.110807
20
287.881681
30
0
11
-10.567247
21
288.588083
31
0
0
LINE
8
2
62
4
10
-10.567247
20
288.588083
30
0
11
-9.839678
21
289.167203
31
0
0
LINE
8
2
62
4
10
-9.839678
20
289.167203
30
0
11
-11.002151
21
290.906821
31
0
0
LINE
8
2
62
4
10
-11.002151
20
290.906821
30
0
11
-11.815516
21
290.456112
31
0
0
LINE
8
2
62
4
10
-11.815516
20
290.456112
30
0
11
-12.676293
21
290.224408
31
0
0
LINE
8
2
62
4
10
-12.676293
20
290.224408
30
0
11
-14.700109
21
290.263919
31
0
0
LINE
8
2
62
4
10
-14.700109
20
290.263919
30
0
11
-15.157873
21
291.368536
31
0
0
LINE
8
2
62
4
10
-15.157873
20
291.368536
30
0
11
-13.754664
21
292.827625
31
0
0
LINE
8
2
62
4
10
-13.754664
20
292.827625
30
0
11
-12.981940
21
293.272408
31
0
0
LINE
8
2
62
4
10
-12.981940
20
293.272408
30
0
11
-12.088424
21
293.528948
31
0
0
LINE
8
2
62
4
10
-12.088424
20
293.528948
30
0
11
-12.496518
21
295.580985
31
0
0
LINE
8
2
62
4
10
-12.496518
20
295.580985
30
0
11
-13.420231
21
295.475999
31
0
0
LINE
8
2
62
4
10
-13.420231
20
295.475999
30
0
11
-14.304151
21
295.591145
31
0
0
LINE
8
2
62
4
10
-14.304151
20
295.591145
30
0
11
-16.159198
21
296.401970
31
0
0
LINE
8
2
62
4
10
-16.159198
20
296.401970
30
0
11
-16.159198
21
297.598028
31
0
0
LINE
8
2
62
4
10
-16.159198
20
297.598028
30
0
11
-14.304151
21
298.408852
31
0
0
LINE
8
2
62
4
10
-14.304151
20
298.408852
30
0
11
-13.420231
21
298.523999
31
0
0
LINE
8
2
62
4
10
-13.420231
20
298.523999
30
0
11
-12.496518
21
298.419012
31
0
0
LINE
8
2
62
4
10
-12.496518
20
298.419012
30
0
11
-12.088424
21
300.471050
31
0
0
LINE
8
2
62
4
10
-12.088424
20
300.471050
30
0
11
-12.981940
21
300.727590
31
0
0
LINE
8
2
62
4
10
-12.981940
20
300.727590
30
0
11
-13.754664
21
301.172372
31
0
0
LINE
8
2
62
4
10
-13.754664
20
301.172372
30
0
11
-15.157873
21
302.631461
31
0
0
LINE
8
2
62
4
10
-15.157873
20
302.631461
30
0
11
-14.700109
21
303.736079
31
0
0
LINE
8
2
62
4
10
-14.700109
20
303.736079
30
0
11
-12.676293
21
303.775590
31
0
0
LINE
8
2
62
4
10
-12.676293
20
303.775590
30
0
11
-11.815516
21
303.543885
31
0
0
LINE
8
2
62
4
10
-11.815516
20
303.543885
30
0
11
-11.002151
21
303.093176
31
0
0
LINE
8
2
62
4
10
-11.002151
20
303.093176
30
0
11
-9.839678
21
304.832794
31
0
0
LINE
8
2
62
4
10
-9.839678
20
304.832794
30
0
11
-10.567247
21
305.411914
31
0
0
LINE
8
2
62
4
10
-10.567247
20
305.411914
30
0
11
-11.110807
21
306.118316
31
0
0
LINE
8
2
62
4
10
-11.110807
20
306.118316
30
0
11
-11.849100
21
308.003561
31
0
0
LINE
8
2
62
4
10
-11.849100
20
308.003561
30
0
11
-11.003562
21
308.849099
31
0
0
LINE
8
2
62
4
10
-11.003562
20
308.849099
30
0
11
-9.118318
21
308.110805
31
0
0
LINE
8
2
62
4
10
-9.118318
20
308.110805
30
0
11
-8.411916
21
307.567245
31
0
0
LINE
8
2
62
4
10
-8.411916
20
307.567245
30
0
11
-7.832796
21
306.839676
31
0
0
LINE
8
2
62
4
10
-7.832796
20
306.839676
30
0
11
-6.093178
21
308.002150
31
0
0
LINE
8
2
62
4
10
-6.093178
20
308.002150
30
0
11
-6.543887
21
308.815514
31
0
0
LINE
8
2
62
4
10
-6.543887
20
308.815514
30
0
11
-6.775591
21
309.676292
31
0
0
LINE
8
2
62
4
10
-6.775591
20
309.676292
30
0
11
-6.736080
21
311.700108
31
0
0
LINE
8
2
62
4
10
-6.736080
20
311.700108
30
0
11
-5.631462
21
312.157872
31
0
0
LINE
8
2
62
4
10
-5.631462
20
312.157872
30
0
11
-4.172373
21
310.754663
31
0
0
LINE
8
2
62
4
10
-4.172373
20
310.754663
30
0
11
-3.727591
21
309.981939
31
0
0
LINE
8
2
62
4
10
-3.727591
20
309.981939
30
0
11
-3.471051
21
309.088423
31
0
0
LINE
8
2
62
4
10
-3.471051
20
309.088423
30
0
11
-1.419013
21
309.496516
31
0
0
LINE
8
2
62
4
10
-1.419013
20
309.496516
30
0
11
-1.524000
21
310.420230
31
0
0
LINE
8
2
62
4
10
-1.524000
20
310.420230
30
0
11
-1.408853
21
311.304150
31
0
0
LINE
8
2
62
4
10
-1.408853
20
311.304150
30
0
11
-0.598029
21
313.159196
31
0
0
LINE
8
2
62
4
10
-0.598029
20
313.159196
30
0
11
0.598029
21
313.159196
31
0
0
LINE
8
2
62
4
10
0.598029
20
313.159196
30
0
11
1.408853
21
311.304150
31
0
0
LINE
8
2
62
4
10
1.408853
20
311.304150
30
0
11
1.524000
21
310.420230
31
0
0
LINE
8
2
62
4
10
1.524000
20
310.420230
30
0
11
1.419013
21
309.496516
31
0
0
LINE
8
2
62
4
10
1.419013
20
309.496516
30
0
11
3.471051
21
309.088423
31
0
0
LINE
8
2
62
4
10
3.471051
20
309.088423
30
0
11
3.727591
21
309.981939
31
0
0
LINE
8
2
62
4
10
3.727591
20
309.981939
30
0
11
4.172373
21
310.754663
31
0
0
LINE
8
2
62
4
10
4.172373
20
310.754663
30
0
11
5.631462
21
312.157872
31
0
0
LINE
8
2
62
4
10
5.631462
20
312.157872
30
0
11
6.736080
21
311.700108
31
0
0
LINE
8
2
62
4
10
6.736080
20
311.700108
30
0
11
6.775591
21
309.676292
31
0
0
LINE
8
2
62
4
10
6.775591
20
309.676292
30
0
11
6.543887
21
308.815514
31
0
0
LINE
8
2
62
4
10
6.543887
20
308.815514
30
0
11
6.093178
21
308.002150
31
0
0
LINE
8
2
62
4
10
6.093178
20
308.002150
30
0
11
7.832796
21
306.839676
31
0
0
LINE
8
2
62
4
10
7.832796
20
306.839676
30
0
11
8.411916
21
307.567245
31
0
0
LINE
8
2
62
4
10
8.411916
20
307.567245
30
0
11
9.118318
21
308.110805
31
0
0
LINE
8
2
62
4
10
9.118318
20
308.110805
30
0
11
11.003562
21
308.849099
31
0
0
LINE
8
2
62
4
10
11.003562
20
308.849099
30
0
11
11.849100
21
308.003561
31
0
0
LINE
8
2
62
4
10
11.849100
20
308.003561
30
0
11
11.110807
21
306.118316
31
0
0
LINE
8
2
62
4
10
11.110807
20
306.118316
30
0
11
10.567247
21
305.411914
31
0
0
LINE
8
2
62
4
10
10.567247
20
305.411914
30
0
11
9.839678
21
304.832794
31
0
0
LINE
8
2
62
4
10
9.839678
20
304.832794
30
0
11
11.002151
21
303.093176
31
0
0
LINE
8
2
62
4
10
11.002151
20
303.093176
30
0
11
11.815516
21
303.543885
31
0
0
LINE
8
2
62
4
10
11.815516
20
303.543885
30
0
11
12.676293
21
303.775590
31
0
0
LINE
8
2
62
4
10
12.676293
20
303.775590
30
0
11
14.700109
21
303.736079
31
0
0
LINE
8
2
62
4
10
14.700109
20
303.736079
30
0
11
15.157873
21
302.631461
31
0
0
LINE
8
2
62
4
10
15.157873
20
302.631461
30
0
11
13.754664
21
301.172372
31
0
0
LINE
8
2
62
4
10
13.754664
20
301.172372
30
0
11
12.981940
21
300.727590
31
0
0
LINE
8
2
62
4
10
12.981940
20
300.727590
30
0
11
12.088424
21
300.471050
31
0
0
LINE
8
2
62
4
10
12.088424
20
300.471050
30
0
11
12.496518
21
298.419012
31
0
0
LINE
8
2
62
4
10
12.496518
20
298.419012
30
0
11
12.496518
21
298.419012
31
0
0
LINE
8
2
62
4
10
14.371038
20
298.632090
30
0
11
15.433322
21
298.752599
31
0
0
LINE
8
2
62
4
10
15.433322
20
298.752599
30
0
11
16.449887
21
298.620236
31
0
0
LINE
8
2
62
4
10
16.449887
20
298.620236
30
0
11
18.582922
21
297.687492
31
0
0
LINE
8
2
62
4
10
18.582922
20
297.687492
30
0
11
18.582922
21
296.312505
31
0
0
LINE
8
2
62
4
10
18.582922
20
296.312505
30
0
11
16.449887
21
295.379761
31
0
0
LINE
8
2
62
4
10
16.449887
20
295.379761
30
0
11
15.433322
21
295.247399
31
0
0
LINE
8
2
62
4
10
15.433322
20
295.247399
30
0
11
14.371038
21
295.367908
31
0
0
LINE
8
2
62
4
10
14.371038
20
295.367908
30
0
11
13.901420
21
293.008248
31
0
0
LINE
8
2
62
4
10
13.901420
20
293.008248
30
0
11
14.929273
21
292.713043
31
0
0
LINE
8
2
62
4
10
14.929273
20
292.713043
30
0
11
15.817709
21
292.201656
31
0
0
LINE
8
2
62
4
10
15.817709
20
292.201656
30
0
11
17.431456
21
290.523845
31
0
0
LINE
8
2
62
4
10
17.431456
20
290.523845
30
0
11
16.905393
21
289.253281
31
0
0
LINE
8
2
62
4
10
16.905393
20
289.253281
30
0
11
14.577624
21
289.208125
31
0
0
LINE
8
2
62
4
10
14.577624
20
289.208125
30
0
11
13.587871
21
289.474543
31
0
0
LINE
8
2
62
4
10
13.587871
20
289.474543
30
0
11
12.652587
21
289.992703
31
0
0
LINE
8
2
62
4
10
12.652587
20
289.992703
30
0
11
11.315700
21
287.992312
31
0
0
LINE
8
2
62
4
10
11.315700
20
287.992312
30
0
11
12.152489
21
287.326268
31
0
0
LINE
8
2
62
4
10
12.152489
20
287.326268
30
0
11
12.777329
21
286.513750
31
0
0
LINE
8
2
62
4
10
12.777329
20
286.513750
30
0
11
13.626253
21
284.346001
31
0
0
LINE
8
2
62
4
10
13.626253
20
284.346001
30
0
11
12.653998
21
283.373745
31
0
0
LINE
8
2
62
4
10
12.653998
20
283.373745
30
0
11
10.486249
21
284.222670
31
0
0
LINE
8
2
62
4
10
10.486249
20
284.222670
30
0
11
9.673731
21
284.847510
31
0
0
LINE
8
2
62
4
10
9.673731
20
284.847510
30
0
11
9.007687
21
285.684299
31
0
0
LINE
8
2
62
4
10
9.007687
20
285.684299
30
0
11
7.007296
21
284.347412
31
0
0
LINE
8
2
62
4
10
7.007296
20
284.347412
30
0
11
7.525456
21
283.412128
31
0
0
LINE
8
2
62
4
10
7.525456
20
283.412128
30
0
11
7.791873
21
282.422374
31
0
0
LINE
8
2
62
4
10
7.791873
20
282.422374
30
0
11
7.746718
21
280.094605
31
0
0
LINE
8
2
62
4
10
7.746718
20
280.094605
30
0
11
6.476153
21
279.568543
31
0
0
LINE
8
2
62
4
10
6.476153
20
279.568543
30
0
11
4.798342
21
281.182290
31
0
0
LINE
8
2
62
4
10
4.798342
20
281.182290
30
0
11
4.286956
21
282.070725
31
0
0
LINE
8
2
62
4
10
4.286956
20
282.070725
30
0
11
3.991751
21
283.098579
31
0
0
LINE
8
2
62
4
10
3.991751
20
283.098579
30
0
11
1.632091
21
282.628961
31
0
0
LINE
8
2
62
4
10
1.632091
20
282.628961
30
0
11
1.752600
21
281.566676
31
0
0
LINE
8
2
62
4
10
1.752600
20
281.566676
30
0
11
1.620238
21
280.550112
31
0
0
LINE
8
2
62
4
10
1.620238
20
280.550112
30
0
11
0.687493
21
278.417076
31
0
0
LINE
8
2
62
4
10
0.687493
20
278.417076
30
0
11
-0.687493
21
278.417076
31
0
0
LINE
8
2
62
4
10
-0.687493
20
278.417076
30
0
11
-1.620238
21
280.550112
31
0
0
LINE
8
2
62
4
10
-1.620238
20
280.550112
30
0
11
-1.752600
21
281.566676
31
0
0
LINE
8
2
62
4
10
-1.752600
20
281.566676
30
0
11
-1.632091
21
282.628961
31
0
0
LINE
8
2
62
4
10
-1.632091
20
282.628961
30
0
11
-3.991751
21
283.098579
31
0
0
LINE
8
2
62
4
10
-3.991751
20
283.098579
30
0
11
-4.286956
21
282.070725
31
0
0
LINE
8
2
62
4
10
-4.286956
20
282.070725
30
0
11
-4.798342
21
281.182290
31
0
0
LINE
8
2
62
4
10
-4.798342
20
281.182290
30
0
11
-6.476153
21
279.568543
31
0
0
LINE
8
2
62
4
10
-6.476153
20
279.568543
30
0
11
-7.746718
21
280.094605
31
0
0
LINE
8
2
62
4
10
-7.746718
20
280.094605
30
0
11
-7.791873
21
282.422374
31
0
0
LINE
8
2
62
4
10
-7.791873
20
282.422374
30
0
11
-7.525456
21
283.412128
31
0
0
LINE
8
2
62
4
10
-7.525456
20
283.412128
30
0
11
-7.007296
21
284.347412
31
0
0
LINE
8
2
62
4
10
-7.007296
20
284.347412
30
0
11
-9.007687
21
285.684299
31
0
0
LINE
8
2
62
4
10
-9.007687
20
285.684299
30
0
11
-9.673731
21
284.847510
31
0
0
LINE
8
2
62
4
10
-9.673731
20
284.847510
30
0
11
-10.486249
21
284.222670
31
0
0
LINE
8
2
62
4
10
-10.486249
20
284.222670
30
0
11
-12.653998
21
283.373745
31
0
0
LINE
8
2
62
4
10
-12.653998
20
283.373745
30
0
11
-13.626253
21
284.346001
31
0
0
LINE
8
2
62
4
10
-13.626253
20
284.346001
30
0
11
-12.777329
21
286.513750
31
0
0
LINE
8
2
62
4
10
-12.777329
20
286.513750
30
0
11
-12.152489
21
287.326268
31
0
0
LINE
8
2
62
4
10
-12.152489
20
287.326268
30
0
11
-11.315700
21
287.992312
31
0
0
LINE
8
2
62
4
10
-11.315700
20
287.992312
30
0
11
-12.652587
21
289.992703
31
0
0
LINE
8
2
62
4
10
-12.652587
20
289.992703
30
0
11
-13.587871
21
289.474543
31
0
0
LINE
8
2
62
4
10
-13.587871
20
289.474543
30
0
11
-14.577624
21
289.208125
31
0
0
LINE
8
2
62
4
10
-14.577624
20
289.208125
30
0
11
-16.905393
21
289.253281
31
0
0
LINE
8
2
62
4
10
-16.905393
20
289.253281
30
0
11
-17.431456
21
290.523845
31
0
0
LINE
8
2
62
4
10
-17.431456
20
290.523845
30
0
11
-15.817709
21
292.201656
31
0
0
LINE
8
2
62
4
10
-15.817709
20
292.201656
30
0
11
-14.929273
21
292.713043
31
0
0
LINE
8
2
62
4
10
-14.929273
20
292.713043
30
0
11
-13.901420
21
293.008248
31
0
0
LINE
8
2
62
4
10
-13.901420
20
293.008248
30
0
11
-14.371038
21
295.367908
31
0
0
LINE
8
2
62
4
10
-14.371038
20
295.367908
30
0
11
-15.433322
21
295.247399
31
0
0
LINE
8
2
62
4
10
-15.433322
20
295.247399
30
0
11
-16.449887
21
295.379761
31
0
0
LINE
8
2
62
4
10
-16.449887
20
295.379761
30
0
11
-18.582922
21
296.312505
31
0
0
LINE
8
2
62
4
10
-18.582922
20
296.312505
30
0
11
-18.582922
21
297.687492
31
0
0
LINE
8
2
62
4
10
-18.582922
20
297.687492
30
0
11
-16.449887
21
298.620236
31
0
0
LINE
8
2
62
4
10
-16.449887
20
298.620236
30
0
11
-15.433322
21
298.752599
31
0
0
LINE
8
2
62
4
10
-15.433322
20
298.752599
30
0
11
-14.371038
21
298.632090
31
0
0
LINE
8
2
62
4
10
-14.371038
20
298.632090
30
0
11
-13.901420
21
300.991750
31
0
0
LINE
8
2
62
4
10
-13.901420
20
300.991750
30
0
11
-14.929273
21
301.286954
31
0
0
LINE
8
2
62
4
10
-14.929273
20
301.286954
30
0
11
-15.817709
21
301.798341
31
0
0
LINE
8
2
62
4
10
-15.817709
20
301.798341
30
0
11
-17.431456
21
303.476152
31
0
0
LINE
8
2
62
4
10
-17.431456
20
303.476152
30
0
11
-16.905393
21
304.746716
31
0
0
LINE
8
2
62
4
10
-16.905393
20
304.746716
30
0
11
-14.577624
21
304.791872
31
0
0
LINE
8
2
62
4
10
-14.577624
20
304.791872
30
0
11
-13.587871
21
304.525454
31
0
0
LINE
8
2
62
4
10
-13.587871
20
304.525454
30
0
11
-12.652587
21
304.007294
31
0
0
LINE
8
2
62
4
10
-12.652587
20
304.007294
30
0
11
-11.315700
21
306.007685
31
0
0
LINE
8
2
62
4
10
-11.315700
20
306.007685
30
0
11
-12.152489
21
306.673730
31
0
0
LINE
8
2
62
4
10
-12.152489
20
306.673730
30
0
11
-12.777329
21
307.486248
31
0
0
LINE
8
2
62
4
10
-12.777329
20
307.486248
30
0
11
-13.626253
21
309.653996
31
0
0
LINE
8
2
62
4
10
-13.626253
20
309.653996
30
0
11
-12.653998
21
310.626252
31
0
0
LINE
8
2
62
4
10
-12.653998
20
310.626252
30
0
11
-10.486249
21
309.777328
31
0
0
LINE
8
2
62
4
10
-10.486249
20
309.777328
30
0
11
-9.673731
21
309.152488
31
0
0
LINE
8
2
62
4
10
-9.673731
20
309.152488
30
0
11
-9.007687
21
308.315699
31
0
0
LINE
8
2
62
4
10
-9.007687
20
308.315699
30
0
11
-7.007296
21
309.652585
31
0
0
LINE
8
2
62
4
10
-7.007296
20
309.652585
30
0
11
-7.525456
21
310.587870
31
0
0
LINE
8
2
62
4
10
-7.525456
20
310.587870
30
0
11
-7.791873
21
311.577623
31
0
0
LINE
8
2
62
4
10
-7.791873
20
311.577623
30
0
11
-7.746718
21
313.905392
31
0
0
LINE
8
2
62
4
10
-7.746718
20
313.905392
30
0
11
-6.476153
21
314.431454
31
0
0
LINE
8
2
62
4
10
-6.476153
20
314.431454
30
0
11
-4.798342
21
312.817708
31
0
0
LINE
8
2
62
4
10
-4.798342
20
312.817708
30
0
11
-4.286956
21
311.929272
31
0
0
LINE
8
2
62
4
10
-4.286956
20
311.929272
30
0
11
-3.991751
21
310.901419
31
0
0
LINE
8
2
62
4
10
-3.991751
20
310.901419
30
0
11
-1.632091
21
311.371036
31
0
0
LINE
8
2
62
4
10
-1.632091
20
311.371036
30
0
11
-1.752600
21
312.433321
31
0
0
LINE
8
2
62
4
10
-1.752600
20
312.433321
30
0
11
-1.620238
21
313.449885
31
0
0
LINE
8
2
62
4
10
-1.620238
20
313.449885
30
0
11
-0.687493
21
315.582921
31
0
0
LINE
8
2
62
4
10
-0.687493
20
315.582921
30
0
11
0.687493
21
315.582921
31
0
0
LINE
8
2
62
4
10
0.687493
20
315.582921
30
0
11
1.620238
21
313.449885
31
0
0
LINE
8
2
62
4
10
1.620238
20
313.449885
30
0
11
1.752600
21
312.433321
31
0
0
LINE
8
2
62
4
10
1.752600
20
312.433321
30
0
11
1.632091
21
311.371036
31
0
0
LINE
8
2
62
4
10
1.632091
20
311.371036
30
0
11
3.991751
21
310.901419
31
0
0
LINE
8
2
62
4
10
3.991751
20
310.901419
30
0
11
4.286956
21
311.929272
31
0
0
LINE
8
2
62
4
10
4.286956
20
311.929272
30
0
11
4.798342
21
312.817708
31
0
0
LINE
8
2
62
4
10
4.798342
20
312.817708
30
0
11
6.476153
21
314.431454
31
0
0
LINE
8
2
62
4
10
6.476153
20
314.431454
30
0
11
7.746718
21
313.905392
31
0
0
LINE
8
2
62
4
10
7.746718
20
313.905392
30
0
11
7.791873
21
311.577623
31
0
0
LINE
8
2
62
4
10
7.791873
20
311.577623
30
0
11
7.525456
21
310.587870
31
0
0
LINE
8
2
62
4
10
7.525456
20
310.587870
30
0
11
7.007296
21
309.652585
31
0
0
LINE
8
2
62
4
10
7.007296
20
309.652585
30
0
11
9.007687
21
308.315699
31
0
0
LINE
8
2
62
4
10
9.007687
20
308.315699
30
0
11
9.673731
21
309.152488
31
0
0
LINE
8
2
62
4
10
9.673731
20
309.152488
30
0
11
10.486249
21
309.777328
31
0
0
LINE
8
2
62
4
10
10.486249
20
309.777328
30
0
11
12.653998
21
310.626252
31
0
0
LINE
8
2
62
4
10
12.653998
20
310.626252
30
0
11
13.626253
21
309.653996
31
0
0
LINE
8
2
62
4
10
13.626253
20
309.653996
30
0
11
12.777329
21
307.486248
31
0
0
LINE
8
2
62
4
10
12.777329
20
307.486248
30
0
11
12.152489
21
306.673730
31
0
0
LINE
8
2
62
4
10
12.152489
20
306.673730
30
0
11
11.315700
21
306.007685
31
0
0
LINE
8
2
62
4
10
11.315700
20
306.007685
30
0
11
12.652587
21
304.007294
31
0
0
LINE
8
2
62
4
10
12.652587
20
304.007294
30
0
11
13.587871
21
304.525454
31
0
0
LINE
8
2
62
4
10
13.587871
20
304.525454
30
0
11
14.577624
21
304.791872
31
0
0
LINE
8
2
62
4
10
14.577624
20
304.791872
30
0
11
16.905393
21
304.746716
31
0
0
LINE
8
2
62
4
10
16.905393
20
304.746716
30
0
11
17.431456
21
303.476152
31
0
0
LINE
8
2
62
4
10
17.431456
20
303.476152
30
0
11
15.817709
21
301.798341
31
0
0
LINE
8
2
62
4
10
15.817709
20
301.798341
30
0
11
14.929273
21
301.286954
31
0
0
LINE
8
2
62
4
10
14.929273
20
301.286954
30
0
11
13.901420
21
300.991750
31
0
0
LINE
8
2
62
4
10
13.901420
20
300.991750
30
0
11
14.371038
21
298.632090
31
0
0
LINE
8
2
62
4
10
14.371038
20
298.632090
30
0
11
14.371038
21
298.632090
31
0
0
LINE
8
2
62
4
10
6.248118
20
297.709505
30
0
11
6.710116
21
297.761999
31
0
0
LINE
8
2
62
4
10
6.710116
20
297.761999
30
0
11
7.152076
21
297.704425
31
0
0
LINE
8
2
62
4
10
7.152076
20
297.704425
30
0
11
8.079458
21
297.298872
31
0
0
LINE
8
2
62
4
10
8.079458
20
297.298872
30
0
11
8.079458
21
296.701125
31
0
0
LINE
8
2
62
4
10
8.079458
20
296.701125
30
0
11
7.152076
21
296.295572
31
0
0
LINE
8
2
62
4
10
7.152076
20
296.295572
30
0
11
6.710116
21
296.237999
31
0
0
LINE
8
2
62
4
10
6.710116
20
296.237999
30
0
11
6.248118
21
296.290492
31
0
0
LINE
8
2
62
4
10
6.248118
20
296.290492
30
0
11
6.044071
21
295.264332
31
0
0
LINE
8
2
62
4
10
6.044071
20
295.264332
30
0
11
6.491111
21
295.136203
31
0
0
LINE
8
2
62
4
10
6.491111
20
295.136203
30
0
11
6.877191
21
294.913812
31
0
0
LINE
8
2
62
4
10
6.877191
20
294.913812
30
0
11
7.578796
21
294.184268
31
0
0
LINE
8
2
62
4
10
7.578796
20
294.184268
30
0
11
7.350196
21
293.631959
31
0
0
LINE
8
2
62
4
10
7.350196
20
293.631959
30
0
11
6.338147
21
293.612203
31
0
0
LINE
8
2
62
4
10
6.338147
20
293.612203
30
0
11
5.907758
21
293.728196
31
0
0
LINE
8
2
62
4
10
5.907758
20
293.728196
30
0
11
5.501076
21
293.953410
31
0
0
LINE
8
2
62
4
10
5.501076
20
293.953410
30
0
11
4.919980
21
293.083601
31
0
0
LINE
8
2
62
4
10
4.919980
20
293.083601
30
0
11
5.283764
21
292.794041
31
0
0
LINE
8
2
62
4
10
5.283764
20
292.794041
30
0
11
5.555544
21
292.440699
31
0
0
LINE
8
2
62
4
10
5.555544
20
292.440699
30
0
11
5.924409
21
291.498359
31
0
0
LINE
8
2
62
4
10
5.924409
20
291.498359
30
0
11
5.501640
21
291.075590
31
0
0
LINE
8
2
62
4
10
5.501640
20
291.075590
30
0
11
4.559300
21
291.444454
31
0
0
LINE
8
2
62
4
10
4.559300
20
291.444454
30
0
11
4.205958
21
291.716234
31
0
0
LINE
8
2
62
4
10
4.205958
20
291.716234
30
0
11
3.916398
21
292.080019
31
0
0
LINE
8
2
62
4
10
3.916398
20
292.080019
30
0
11
3.046589
21
291.498923
31
0
0
LINE
8
2
62
4
10
3.046589
20
291.498923
30
0
11
3.271802
21
291.092241
31
0
0
LINE
8
2
62
4
10
3.271802
20
291.092241
30
0
11
3.387796
21
290.661852
31
0
0
LINE
8
2
62
4
10
3.387796
20
290.661852
30
0
11
3.368040
21
289.649803
31
0
0
LINE
8
2
62
4
10
3.368040
20
289.649803
30
0
11
2.815731
21
289.421203
31
0
0
LINE
8
2
62
4
10
2.815731
20
289.421203
30
0
11
2.086187
21
290.122808
31
0
0
LINE
8
2
62
4
10
2.086187
20
290.122808
30
0
11
1.863796
21
290.508888
31
0
0
LINE
8
2
62
4
10
1.863796
20
290.508888
30
0
11
1.735667
21
290.955928
31
0
0
LINE
8
2
62
4
10
1.735667
20
290.955928
30
0
11
0.709507
21
290.751881
31
0
0
LINE
8
2
62
4
10
0.709507
20
290.751881
30
0
11
0.762000
21
290.289883
31
0
0
LINE
8
2
62
4
10
0.762000
20
290.289883
30
0
11
0.704427
21
289.847923
31
0
0
LINE
8
2
62
4
10
0.704427
20
289.847923
30
0
11
0.298873
21
288.920541
31
0
0
LINE
8
2
62
4
10
0.298873
20
288.920541
30
0
11
-0.298873
21
288.920541
31
0
0
LINE
8
2
62
4
10
-0.298873
20
288.920541
30
0
11
-0.704427
21
289.847923
31
0
0
LINE
8
2
62
4
10
-0.704427
20
289.847923
30
0
11
-0.762000
21
290.289883
31
0
0
LINE
8
2
62
4
10
-0.762000
20
290.289883
30
0
11
-0.709507
21
290.751881
31
0
0
LINE
8
2
62
4
10
-0.709507
20
290.751881
30
0
11
-1.735667
21
290.955928
31
0
0
LINE
8
2
62
4
10
-1.735667
20
290.955928
30
0
11
-1.863796
21
290.508888
31
0
0
LINE
8
2
62
4
10
-1.863796
20
290.508888
30
0
11
-2.086187
21
290.122808
31
0
0
LINE
8
2
62
4
10
-2.086187
20
290.122808
30
0
11
-2.815731
21
289.421203
31
0
0
LINE
8
2
62
4
10
-2.815731
20
289.421203
30
0
11
-3.368040
21
289.649803
31
0
0
LINE
8
2
62
4
10
-3.368040
20
289.649803
30
0
11
-3.387796
21
290.661852
31
0
0
LINE
8
2
62
4
10
-3.387796
20
290.661852
30
0
11
-3.271802
21
291.092241
31
0
0
LINE
8
2
62
4
10
-3.271802
20
291.092241
30
0
11
-3.046589
21
291.498923
31
0
0
LINE
8
2
62
4
10
-3.046589
20
291.498923
30
0
11
-3.916398
21
292.080019
31
0
0
LINE
8
2
62
4
10
-3.916398
20
292.080019
30
0
11
-4.205958
21
291.716234
31
0
0
LINE
8
2
62
4
10
-4.205958
20
291.716234
30
0
11
-4.559300
21
291.444454
31
0
0
LINE
8
2
62
4
10
-4.559300
20
291.444454
30
0
11
-5.501640
21
291.075590
31
0
0
LINE
8
2
62
4
10
-5.501640
20
291.075590
30
0
11
-5.924409
21
291.498359
31
0
0
LINE
8
2
62
4
10
-5.924409
20
291.498359
30
0
11
-5.555544
21
292.440699
31
0
0
LINE
8
2
62
4
10
-5.555544
20
292.440699
30
0
11
-5.283764
21
292.794041
31
0
0
LINE
8
2
62
4
10
-5.283764
20
292.794041
30
0
11
-4.919980
21
293.083601
31
0
0
LINE
8
2
62
4
10
-4.919980
20
293.083601
30
0
11
-5.501076
21
293.953410
31
0
0
LINE
8
2
62
4
10
-5.501076
20
293.953410
30
0
11
-5.907758
21
293.728196
31
0
0
LINE
8
2
62
4
10
-5.907758
20
293.728196
30
0
11
-6.338147
21
293.612203
31
0
0
LINE
8
2
62
4
10
-6.338147
20
293.612203
30
0
11
-7.350196
21
293.631959
31
0
0
LINE
8
2
62
4
10
-7.350196
20
293.631959
30
0
11
-7.578796
21
294.184268
31
0
0
LINE
8
2
62
4
10
-7.578796
20
294.184268
30
0
11
-6.877191
21
294.913812
31
0
0
LINE
8
2
62
4
10
-6.877191
20
294.913812
30
0
11
-6.491111
21
295.136203
31
0
0
LINE
8
2
62
4
10
-6.491111
20
295.136203
30
0
11
-6.044071
21
295.264332
31
0
0
LINE
8
2
62
4
10
-6.044071
20
295.264332
30
0
11
-6.248118
21
296.290492
31
0
0
LINE
8
2
62
4
10
-6.248118
20
296.290492
30
0
11
-6.710116
21
296.237999
31
0
0
LINE
8
2
62
4
10
-6.710116
20
296.237999
30
0
11
-7.152076
21
296.295572
31
0
0
LINE
8
2
62
4
10
-7.152076
20
296.295572
30
0
11
-8.079458
21
296.701125
31
0
0
LINE
8
2
62
4
10
-8.079458
20
296.701125
30
0
11
-8.079458
21
297.298872
31
0
0
LINE
8
2
62
4
10
-8.079458
20
297.298872
30
0
11
-7.152076
21
297.704425
31
0
0
LINE
8
2
62
4
10
-7.152076
20
297.704425
30
0
11
-6.710116
21
297.761999
31
0
0
LINE
8
2
62
4
10
-6.710116
20
297.761999
30
0
11
-6.248118
21
297.709505
31
0
0
LINE
8
2
62
4
10
-6.248118
20
297.709505
30
0
11
-6.044071
21
298.735665
31
0
0
LINE
8
2
62
4
10
-6.044071
20
298.735665
30
0
11
-6.491111
21
298.863794
31
0
0
LINE
8
2
62
4
10
-6.491111
20
298.863794
30
0
11
-6.877191
21
299.086185
31
0
0
LINE
8
2
62
4
10
-6.877191
20
299.086185
30
0
11
-7.578796
21
299.815730
31
0
0
LINE
8
2
62
4
10
-7.578796
20
299.815730
30
0
11
-7.350196
21
300.368039
31
0
0
LINE
8
2
62
4
10
-7.350196
20
300.368039
30
0
11
-6.338147
21
300.387794
31
0
0
LINE
8
2
62
4
10
-6.338147
20
300.387794
30
0
11
-5.907758
21
300.271801
31
0
0
LINE
8
2
62
4
10
-5.907758
20
300.271801
30
0
11
-5.501076
21
300.046588
31
0
0
LINE
8
2
62
4
10
-5.501076
20
300.046588
30
0
11
-4.919980
21
300.916396
31
0
0
LINE
8
2
62
4
10
-4.919980
20
300.916396
30
0
11
-5.283764
21
301.205956
31
0
0
LINE
8
2
62
4
10
-5.283764
20
301.205956
30
0
11
-5.555544
21
301.559299
31
0
0
LINE
8
2
62
4
10
-5.555544
20
301.559299
30
0
11
-5.924409
21
302.501639
31
0
0
LINE
8
2
62
4
10
-5.924409
20
302.501639
30
0
11
-5.501640
21
302.924408
31
0
0
LINE
8
2
62
4
10
-5.501640
20
302.924408
30
0
11
-4.559300
21
302.555543
31
0
0
LINE
8
2
62
4
10
-4.559300
20
302.555543
30
0
11
-4.205958
21
302.283763
31
0
0
LINE
8
2
62
4
10
-4.205958
20
302.283763
30
0
11
-3.916398
21
301.919979
31
0
0
LINE
8
2
62
4
10
-3.916398
20
301.919979
30
0
11
-3.046589
21
302.501074
31
0
0
LINE
8
2
62
4
10
-3.046589
20
302.501074
30
0
11
-3.271802
21
302.907756
31
0
0
LINE
8
2
62
4
10
-3.271802
20
302.907756
30
0
11
-3.387796
21
303.338145
31
0
0
LINE
8
2
62
4
10
-3.387796
20
303.338145
30
0
11
-3.368040
21
304.350194
31
0
0
LINE
8
2
62
4
10
-3.368040
20
304.350194
30
0
11
-2.815731
21
304.578794
31
0
0
LINE
8
2
62
4
10
-2.815731
20
304.578794
30
0
11
-2.086187
21
303.877190
31
0
0
LINE
8
2
62
4
10
-2.086187
20
303.877190
30
0
11
-1.863796
21
303.491110
31
0
0
LINE
8
2
62
4
10
-1.863796
20
303.491110
30
0
11
-1.735667
21
303.044070
31
0
0
LINE
8
2
62
4
10
-1.735667
20
303.044070
30
0
11
-0.709507
21
303.248116
31
0
0
LINE
8
2
62
4
10
-0.709507
20
303.248116
30
0
11
-0.762000
21
303.710114
31
0
0
LINE
8
2
62
4
10
-0.762000
20
303.710114
30
0
11
-0.704427
21
304.152074
31
0
0
LINE
8
2
62
4
10
-0.704427
20
304.152074
30
0
11
-0.298873
21
305.079456
31
0
0
LINE
8
2
62
4
10
-0.298873
20
305.079456
30
0
11
0.298873
21
305.079456
31
0
0
LINE
8
2
62
4
10
0.298873
20
305.079456
30
0
11
0.704427
21
304.152074
31
0
0
LINE
8
2
62
4
10
0.704427
20
304.152074
30
0
11
0.762000
21
303.710114
31
0
0
LINE
8
2
62
4
10
0.762000
20
303.710114
30
0
11
0.709507
21
303.248116
31
0
0
LINE
8
2
62
4
10
0.709507
20
303.248116
30
0
11
1.735667
21
303.044070
31
0
0
LINE
8
2
62
4
10
1.735667
20
303.044070
30
0
11
1.863796
21
303.491110
31
0
0
LINE
8
2
62
4
10
1.863796
20
303.491110
30
0
11
2.086187
21
303.877190
31
0
0
LINE
8
2
62
4
10
2.086187
20
303.877190
30
0
11
2.815731
21
304.578794
31
0
0
LINE
8
2
62
4
10
2.815731
20
304.578794
30
0
11
3.368040
21
304.350194
31
0
0
LINE
8
2
62
4
10
3.368040
20
304.350194
30
0
11
3.387796
21
303.338145
31
0
0
LINE
8
2
62
4
10
3.387796
20
303.338145
30
0
11
3.271802
21
302.907756
31
0
0
LINE
8
2
62
4
10
3.271802
20
302.907756
30
0
11
3.046589
21
302.501074
31
0
0
LINE
8
2
62
4
10
3.046589
20
302.501074
30
0
11
3.916398
21
301.919979
31
0
0
LINE
8
2
62
4
10
3.916398
20
301.919979
30
0
11
4.205958
21
302.283763
31
0
0
LINE
8
2
62
4
10
4.205958
20
302.283763
30
0
11
4.559300
21
302.555543
31
0
0
LINE
8
2
62
4
10
4.559300
20
302.555543
30
0
11
5.501640
21
302.924408
31
0
0
LINE
8
2
62
4
10
5.501640
20
302.924408
30
0
11
5.924409
21
302.501639
31
0
0
LINE
8
2
62
4
10
5.924409
20
302.501639
30
0
11
5.555544
21
301.559299
31
0
0
LINE
8
2
62
4
10
5.555544
20
301.559299
30
0
11
5.283764
21
301.205956
31
0
0
LINE
8
2
62
4
10
5.283764
20
301.205956
30
0
11
4.919980
21
300.916396
31
0
0
LINE
8
2
62
4
10
4.919980
20
300.916396
30
0
11
5.501076
21
300.046588
31
0
0
LINE
8
2
62
4
10
5.501076
20
300.046588
30
0
11
5.907758
21
300.271801
31
0
0
LINE
8
2
62
4
10
5.907758
20
300.271801
30
0
11
6.338147
21
300.387794
31
0
0
LINE
8
2
62
4
10
6.338147
20
300.387794
30
0
11
7.350196
21
300.368039
31
0
0
LINE
8
2
62
4
10
7.350196
20
300.368039
30
0
11
7.578796
21
299.815730
31
0
0
LINE
8
2
62
4
10
7.578796
20
299.815730
30
0
11
6.877191
21
299.086185
31
0
0
LINE
8
2
62
4
10
6.877191
20
299.086185
30
0
11
6.491111
21
298.863794
31
0
0
LINE
8
2
62
4
10
6.491111
20
298.863794
30
0
11
6.044071
21
298.735665
31
0
0
LINE
8
2
62
4
10
6.044071
20
298.735665
30
0
11
6.248118
21
297.709505
31
0
0
LINE
8
2
62
4
10
6.248118
20
297.709505
30
0
11
6.248118
21
297.709505
31
0
0
LINE
8
2
62
4
10
27.832191
20
297.957579
30
0
11
28.738124
21
297.705554
31
0
0
LINE
8
2
62
4
10
28.738124
20
297.705554
30
0
11
29.643211
21
297.354470
31
0
0
LINE
8
2
62
4
10
29.643211
20
297.354470
30
0
11
29.643211
21
296.645528
31
0
0
LINE
8
2
62
4
10
29.643211
20
296.645528
30
0
11
28.738124
21
296.294443
31
0
0
LINE
8
2
62
4
10
28.738124
20
296.294443
30
0
11
27.832191
21
296.042419
31
0
0
LINE
8
2
62
4
10
27.832191
20
296.042419
30
0
11
27.791833
21
295.224821
31
0
0
LINE
8
2
62
4
10
27.791833
20
295.224821
30
0
11
28.668980
21
294.885308
31
0
0
LINE
8
2
62
4
10
28.668980
20
294.885308
30
0
11
29.535120
21
294.447016
31
0
0
LINE
8
2
62
4
10
29.535120
20
294.447016
30
0
11
29.465693
21
293.741743
31
0
0
LINE
8
2
62
4
10
29.465693
20
293.741743
30
0
11
28.530691
21
293.480970
31
0
0
LINE
8
2
62
4
10
28.530691
20
293.480970
30
0
11
27.604156
21
293.318974
31
0
0
LINE
8
2
62
4
10
27.604156
20
293.318974
30
0
11
27.484211
21
292.509279
31
0
0
LINE
8
2
62
4
10
27.484211
20
292.509279
30
0
11
28.323822
21
292.085381
31
0
0
LINE
8
2
62
4
10
28.323822
20
292.085381
30
0
11
29.142549
21
291.564399
31
0
0
LINE
8
2
62
4
10
29.142549
20
291.564399
30
0
11
29.004542
21
290.869285
31
0
0
LINE
8
2
62
4
10
29.004542
20
290.869285
30
0
11
28.048373
21
290.701645
31
0
0
LINE
8
2
62
4
10
28.048373
20
290.701645
30
0
11
27.110549
21
290.631090
31
0
0
LINE
8
2
62
4
10
27.110549
20
290.631090
30
0
11
26.911582
21
289.837199
31
0
0
LINE
8
2
62
4
10
26.911582
20
289.837199
30
0
11
27.705473
21
289.332868
31
0
0
LINE
8
2
62
4
10
27.705473
20
289.332868
30
0
11
28.469449
21
288.734274
31
0
0
LINE
8
2
62
4
10
28.469449
20
288.734274
30
0
11
28.263991
21
288.055812
31
0
0
LINE
8
2
62
4
10
28.263991
20
288.055812
30
0
11
27.295969
21
287.982716
31
0
0
LINE
8
2
62
4
10
27.295969
20
287.982716
30
0
11
26.355604
21
288.004448
31
0
0
LINE
8
2
62
4
10
26.355604
20
288.004448
30
0
11
26.079873
21
287.233699
31
0
0
LINE
8
2
62
4
10
26.079873
20
287.233699
30
0
11
26.820707
21
286.654014
31
0
0
LINE
8
2
62
4
10
26.820707
20
286.654014
30
0
11
27.522311
21
285.983454
31
0
0
LINE
8
2
62
4
10
27.522311
20
285.983454
30
0
11
27.251096
21
285.328699
31
0
0
LINE
8
2
62
4
10
27.251096
20
285.328699
30
0
11
26.280816
21
285.350430
31
0
0
LINE
8
2
62
4
10
26.280816
20
285.350430
30
0
11
25.346942
21
285.464448
31
0
0
LINE
8
2
62
4
10
25.346942
20
285.464448
30
0
11
24.996987
21
284.724461
31
0
0
LINE
8
2
62
4
10
24.996987
20
284.724461
30
0
11
25.677424
21
284.075068
31
0
0
LINE
8
2
62
4
10
25.677424
20
284.075068
30
0
11
26.309884
21
283.338750
31
0
0
LINE
8
2
62
4
10
26.309884
20
283.338750
30
0
11
25.976016
21
282.713910
31
0
0
LINE
8
2
62
4
10
25.976016
20
282.713910
30
0
11
25.012227
21
282.830750
31
0
0
LINE
8
2
62
4
10
25.012227
20
282.830750
30
0
11
24.094440
21
283.035643
31
0
0
LINE
8
2
62
4
10
24.094440
20
283.035643
30
0
11
23.673647
21
282.333474
31
0
0
LINE
8
2
62
4
10
23.673647
20
282.333474
30
0
11
24.286916
21
281.620581
31
0
0
LINE
8
2
62
4
10
24.286916
20
281.620581
30
0
11
24.844304
21
280.825843
31
0
0
LINE
8
2
62
4
10
24.844304
20
280.825843
30
0
11
24.450604
21
280.236563
31
0
0
LINE
8
2
62
4
10
24.450604
20
280.236563
30
0
11
23.503184
21
280.447383
31
0
0
LINE
8
2
62
4
10
23.503184
20
280.447383
30
0
11
22.609669
21
280.741176
31
0
0
LINE
8
2
62
4
10
22.609669
20
280.741176
30
0
11
22.121989
21
280.083599
31
0
0
LINE
8
2
62
4
10
22.121989
20
280.083599
30
0
11
22.662444
21
279.313979
31
0
0
LINE
8
2
62
4
10
22.662444
20
279.313979
30
0
11
23.139400
21
278.468441
31
0
0
LINE
8
2
62
4
10
23.139400
20
278.468441
30
0
11
22.689538
21
277.920648
31
0
0
LINE
8
2
62
4
10
22.689538
20
277.920648
30
0
11
21.767518
21
278.223190
31
0
0
LINE
8
2
62
4
10
21.767518
20
278.223190
30
0
11
20.907022
21
278.603343
31
0
0
LINE
8
2
62
4
10
20.907022
20
278.603343
30
0
11
20.357253
21
277.996848
31
0
0
LINE
8
2
62
4
10
20.357253
20
277.996848
30
0
11
20.819816
21
277.177839
31
0
0
LINE
8
2
62
4
10
20.819816
20
277.177839
30
0
11
21.211540
21
276.289685
31
0
0
LINE
8
2
62
4
10
21.211540
20
276.289685
30
0
11
20.710313
21
275.788459
31
0
0
LINE
8
2
62
4
10
20.710313
20
275.788459
30
0
11
19.822160
21
276.180183
31
0
0
LINE
8
2
62
4
10
19.822160
20
276.180183
30
0
11
19.003151
21
276.642745
31
0
0
LINE
8
2
62
4
10
19.003151
20
276.642745
30
0
11
18.396656
21
276.092976
31
0
0
LINE
8
2
62
4
10
18.396656
20
276.092976
30
0
11
18.776809
21
275.232481
31
0
0
LINE
8
2
62
4
10
18.776809
20
275.232481
30
0
11
19.079351
21
274.310461
31
0
0
LINE
8
2
62
4
10
19.079351
20
274.310461
30
0
11
18.531558
21
273.860599
31
0
0
LINE
8
2
62
4
10
18.531558
20
273.860599
30
0
11
17.686020
21
274.337554
31
0
0
LINE
8
2
62
4
10
17.686020
20
274.337554
30
0
11
16.916400
21
274.878010
31
0
0
LINE
8
2
62
4
10
16.916400
20
274.878010
30
0
11
16.258822
21
274.390330
31
0
0
LINE
8
2
62
4
10
16.258822
20
274.390330
30
0
11
16.552616
21
273.496814
31
0
0
LINE
8
2
62
4
10
16.552616
20
273.496814
30
0
11
16.763436
21
272.549394
31
0
0
LINE
8
2
62
4
10
16.763436
20
272.549394
30
0
11
16.174156
21
272.155694
31
0
0
LINE
8
2
62
4
10
16.174156
20
272.155694
30
0
11
15.379418
21
272.713083
31
0
0
LINE
8
2
62
4
10
15.379418
20
272.713083
30
0
11
14.666524
21
273.326352
31
0
0
LINE
8
2
62
4
10
14.666524
20
273.326352
30
0
11
13.964356
21
272.905559
31
0
0
LINE
8
2
62
4
10
13.964356
20
272.905559
30
0
11
14.169249
21
271.987772
31
0
0
LINE
8
2
62
4
10
14.169249
20
271.987772
30
0
11
14.286089
21
271.023983
31
0
0
LINE
8
2
62
4
10
14.286089
20
271.023983
30
0
11
13.661249
21
270.690114
31
0
0
LINE
8
2
62
4
10
13.661249
20
270.690114
30
0
11
12.924931
21
271.322574
31
0
0
LINE
8
2
62
4
10
12.924931
20
271.322574
30
0
11
12.275538
21
272.003012
31
0
0
LINE
8
2
62
4
10
12.275538
20
272.003012
30
0
11
11.535551
21
271.653056
31
0
0
LINE
8
2
62
4
10
11.535551
20
271.653056
30
0
11
11.649569
21
270.719183
31
0
0
LINE
8
2
62
4
10
11.649569
20
270.719183
30
0
11
11.671300
21
269.748903
31
0
0
LINE
8
2
62
4
10
11.671300
20
269.748903
30
0
11
11.016544
21
269.477688
31
0
0
LINE
8
2
62
4
10
11.016544
20
269.477688
30
0
11
10.345984
21
270.179292
31
0
0
LINE
8
2
62
4
10
10.345984
20
270.179292
30
0
11
9.766300
21
270.920125
31
0
0
LINE
8
2
62
4
10
9.766300
20
270.920125
30
0
11
8.995551
21
270.644394
31
0
0
LINE
8
2
62
4
10
8.995551
20
270.644394
30
0
11
9.017282
21
269.704030
31
0
0
LINE
8
2
62
4
10
9.017282
20
269.704030
30
0
11
8.944187
21
268.736008
31
0
0
LINE
8
2
62
4
10
8.944187
20
268.736008
30
0
11
8.265724
21
268.530550
31
0
0
LINE
8
2
62
4
10
8.265724
20
268.530550
30
0
11
7.667131
21
269.294525
31
0
0
LINE
8
2
62
4
10
7.667131
20
269.294525
30
0
11
7.162800
21
270.088416
31
0
0
LINE
8
2
62
4
10
7.162800
20
270.088416
30
0
11
6.368909
21
269.889450
31
0
0
LINE
8
2
62
4
10
6.368909
20
269.889450
30
0
11
6.298353
21
268.951625
31
0
0
LINE
8
2
62
4
10
6.298353
20
268.951625
30
0
11
6.130713
21
267.995456
31
0
0
LINE
8
2
62
4
10
6.130713
20
267.995456
30
0
11
5.435600
21
267.857450
31
0
0
LINE
8
2
62
4
10
5.435600
20
267.857450
30
0
11
4.914618
21
268.676176
31
0
0
LINE
8
2
62
4
10
4.914618
20
268.676176
30
0
11
4.490720
21
269.515788
31
0
0
LINE
8
2
62
4
10
4.490720
20
269.515788
30
0
11
3.681024
21
269.395843
31
0
0
LINE
8
2
62
4
10
3.681024
20
269.395843
30
0
11
3.519029
21
268.469308
31
0
0
LINE
8
2
62
4
10
3.519029
20
268.469308
30
0
11
3.258256
21
267.534305
31
0
0
LINE
8
2
62
4
10
3.258256
20
267.534305
30
0
11
2.552982
21
267.464879
31
0
0
LINE
8
2
62
4
10
2.552982
20
267.464879
30
0
11
2.114691
21
268.331019
31
0
0
LINE
8
2
62
4
10
2.114691
20
268.331019
30
0
11
1.775178
21
269.208165
31
0
0
LINE
8
2
62
4
10
1.775178
20
269.208165
30
0
11
0.957580
21
269.167808
31
0
0
LINE
8
2
62
4
10
0.957580
20
269.167808
30
0
11
0.705556
21
268.261874
31
0
0
LINE
8
2
62
4
10
0.705556
20
268.261874
30
0
11
0.354471
21
267.356788
31
0
0
LINE
8
2
62
4
10
0.354471
20
267.356788
30
0
11
-0.354471
21
267.356788
31
0
0
LINE
8
2
62
4
10
-0.354471
20
267.356788
30
0
11
-0.705556
21
268.261874
31
0
0
LINE
8
2
62
4
10
-0.705556
20
268.261874
30
0
11
-0.957580
21
269.167808
31
0
0
LINE
8
2
62
4
10
-0.957580
20
269.167808
30
0
11
-1.775178
21
269.208165
31
0
0
LINE
8
2
62
4
10
-1.775178
20
269.208165
30
0
11
-2.114691
21
268.331019
31
0
0
LINE
8
2
62
4
10
-2.114691
20
268.331019
30
0
11
-2.552982
21
267.464879
31
0
0
LINE
8
2
62
4
10
-2.552982
20
267.464879
30
0
11
-3.258256
21
267.534305
31
0
0
LINE
8
2
62
4
10
-3.258256
20
267.534305
30
0
11
-3.519029
21
268.469308
31
0
0
LINE
8
2
62
4
10
-3.519029
20
268.469308
30
0
11
-3.681024
21
269.395843
31
0
0
LINE
8
2
62
4
10
-3.681024
20
269.395843
30
0
11
-4.490720
21
269.515788
31
0
0
LINE
8
2
62
4
10
-4.490720
20
269.515788
30
0
11
-4.914618
21
268.676176
31
0
0
LINE
8
2
62
4
10
-4.914618
20
268.676176
30
0
11
-5.435600
21
267.857450
31
0
0
LINE
8
2
62
4
10
-5.435600
20
267.857450
30
0
11
-6.130713
21
267.995456
31
0
0
LINE
8
2
62
4
10
-6.130713
20
267.995456
30
0
11
-6.298353
21
268.951625
31
0
0
LINE
8
2
62
4
10
-6.298353
20
268.951625
30
0
11
-6.368909
21
269.889450
31
0
0
LINE
8
2
62
4
10
-6.368909
20
269.889450
30
0
11
-7.162800
21
270.088416
31
0
0
LINE
8
2
62
4
10
-7.162800
20
270.088416
30
0
11
-7.667131
21
269.294525
31
0
0
LINE
8
2
62
4
10
-7.667131
20
269.294525
30
0
11
-8.265724
21
268.530550
31
0
0
LINE
8
2
62
4
10
-8.265724
20
268.530550
30
0
11
-8.944187
21
268.736008
31
0
0
LINE
8
2
62
4
10
-8.944187
20
268.736008
30
0
11
-9.017282
21
269.704030
31
0
0
LINE
8
2
62
4
10
-9.017282
20
269.704030
30
0
11
-8.995551
21
270.644394
31
0
0
LINE
8
2
62
4
10
-8.995551
20
270.644394
30
0
11
-9.766300
21
270.920125
31
0
0
LINE
8
2
62
4
10
-9.766300
20
270.920125
30
0
11
-10.345984
21
270.179292
31
0
0
LINE
8
2
62
4
10
-10.345984
20
270.179292
30
0
11
-11.016544
21
269.477688
31
0
0
LINE
8
2
62
4
10
-11.016544
20
269.477688
30
0
11
-11.671300
21
269.748903
31
0
0
LINE
8
2
62
4
10
-11.671300
20
269.748903
30
0
11
-11.649569
21
270.719183
31
0
0
LINE
8
2
62
4
10
-11.649569
20
270.719183
30
0
11
-11.535551
21
271.653056
31
0
0
LINE
8
2
62
4
10
-11.535551
20
271.653056
30
0
11
-12.275538
21
272.003012
31
0
0
LINE
8
2
62
4
10
-12.275538
20
272.003012
30
0
11
-12.924931
21
271.322574
31
0
0
LINE
8
2
62
4
10
-12.924931
20
271.322574
30
0
11
-13.661249
21
270.690114
31
0
0
LINE
8
2
62
4
10
-13.661249
20
270.690114
30
0
11
-14.286089
21
271.023983
31
0
0
LINE
8
2
62
4
10
-14.286089
20
271.023983
30
0
11
-14.169249
21
271.987772
31
0
0
LINE
8
2
62
4
10
-14.169249
20
271.987772
30
0
11
-13.964356
21
272.905559
31
0
0
LINE
8
2
62
4
10
-13.964356
20
272.905559
30
0
11
-14.666524
21
273.326352
31
0
0
LINE
8
2
62
4
10
-14.666524
20
273.326352
30
0
11
-15.379418
21
272.713083
31
0
0
LINE
8
2
62
4
10
-15.379418
20
272.713083
30
0
11
-16.174156
21
272.155694
31
0
0
LINE
8
2
62
4
10
-16.174156
20
272.155694
30
0
11
-16.763436
21
272.549394
31
0
0
LINE
8
2
62
4
10
-16.763436
20
272.549394
30
0
11
-16.552616
21
273.496814
31
0
0
LINE
8
2
62
4
10
-16.552616
20
273.496814
30
0
11
-16.258822
21
274.390330
31
0
0
LINE
8
2
62
4
10
-16.258822
20
274.390330
30
0
11
-16.916400
21
274.878010
31
0
0
LINE
8
2
62
4
10
-16.916400
20
274.878010
30
0
11
-17.686020
21
274.337554
31
0
0
LINE
8
2
62
4
10
-17.686020
20
274.337554
30
0
11
-18.531558
21
273.860599
31
0
0
LINE
8
2
62
4
10
-18.531558
20
273.860599
30
0
11
-19.079351
21
274.310461
31
0
0
LINE
8
2
62
4
10
-19.079351
20
274.310461
30
0
11
-18.776809
21
275.232481
31
0
0
LINE
8
2
62
4
10
-18.776809
20
275.232481
30
0
11
-18.396656
21
276.092976
31
0
0
LINE
8
2
62
4
10
-18.396656
20
276.092976
30
0
11
-19.003151
21
276.642745
31
0
0
LINE
8
2
62
4
10
-19.003151
20
276.642745
30
0
11
-19.822160
21
276.180183
31
0
0
LINE
8
2
62
4
10
-19.822160
20
276.180183
30
0
11
-20.710313
21
275.788459
31
0
0
LINE
8
2
62
4
10
-20.710313
20
275.788459
30
0
11
-21.211540
21
276.289685
31
0
0
LINE
8
2
62
4
10
-21.211540
20
276.289685
30
0
11
-20.819816
21
277.177839
31
0
0
LINE
8
2
62
4
10
-20.819816
20
277.177839
30
0
11
-20.357253
21
277.996848
31
0
0
LINE
8
2
62
4
10
-20.357253
20
277.996848
30
0
11
-20.907022
21
278.603343
31
0
0
LINE
8
2
62
4
10
-20.907022
20
278.603343
30
0
11
-21.767518
21
278.223190
31
0
0
LINE
8
2
62
4
10
-21.767518
20
278.223190
30
0
11
-22.689538
21
277.920648
31
0
0
LINE
8
2
62
4
10
-22.689538
20
277.920648
30
0
11
-23.139400
21
278.468441
31
0
0
LINE
8
2
62
4
10
-23.139400
20
278.468441
30
0
11
-22.662444
21
279.313979
31
0
0
LINE
8
2
62
4
10
-22.662444
20
279.313979
30
0
11
-22.121989
21
280.083599
31
0
0
LINE
8
2
62
4
10
-22.121989
20
280.083599
30
0
11
-22.609669
21
280.741176
31
0
0
LINE
8
2
62
4
10
-22.609669
20
280.741176
30
0
11
-23.503184
21
280.447383
31
0
0
LINE
8
2
62
4
10
-23.503184
20
280.447383
30
0
11
-24.450604
21
280.236563
31
0
0
LINE
8
2
62
4
10
-24.450604
20
280.236563
30
0
11
-24.844304
21
280.825843
31
0
0
LINE
8
2
62
4
10
-24.844304
20
280.825843
30
0
11
-24.286916
21
281.620581
31
0
0
LINE
8
2
62
4
10
-24.286916
20
281.620581
30
0
11
-23.673647
21
282.333474
31
0
0
LINE
8
2
62
4
10
-23.673647
20
282.333474
30
0
11
-24.094440
21
283.035643
31
0
0
LINE
8
2
62
4
10
-24.094440
20
283.035643
30
0
11
-25.012227
21
282.830750
31
0
0
LINE
8
2
62
4
10
-25.012227
20
282.830750
30
0
11
-25.976016
21
282.713910
31
0
0
LINE
8
2
62
4
10
-25.976016
20
282.713910
30
0
11
-26.309884
21
283.338750
31
0
0
LINE
8
2
62
4
10
-26.309884
20
283.338750
30
0
11
-25.677424
21
284.075068
31
0
0
LINE
8
2
62
4
10
-25.677424
20
284.075068
30
0
11
-24.996987
21
284.724461
31
0
0
LINE
8
2
62
4
10
-24.996987
20
284.724461
30
0
11
-25.346942
21
285.464448
31
0
0
LINE
8
2
62
4
10
-25.346942
20
285.464448
30
0
11
-26.280816
21
285.350430
31
0
0
LINE
8
2
62
4
10
-26.280816
20
285.350430
30
0
11
-27.251096
21
285.328699
31
0
0
LINE
8
2
62
4
10
-27.251096
20
285.328699
30
0
11
-27.522311
21
285.983454
31
0
0
LINE
8
2
62
4
10
-27.522311
20
285.983454
30
0
11
-26.820707
21
286.654014
31
0
0
LINE
8
2
62
4
10
-26.820707
20
286.654014
30
0
11
-26.079873
21
287.233699
31
0
0
LINE
8
2
62
4
10
-26.079873
20
287.233699
30
0
11
-26.355604
21
288.004448
31
0
0
LINE
8
2
62
4
10
-26.355604
20
288.004448
30
0
11
-27.295969
21
287.982716
31
0
0
LINE
8
2
62
4
10
-27.295969
20
287.982716
30
0
11
-28.263991
21
288.055812
31
0
0
LINE
8
2
62
4
10
-28.263991
20
288.055812
30
0
11
-28.469449
21
288.734274
31
0
0
LINE
8
2
62
4
10
-28.469449
20
288.734274
30
0
11
-27.705473
21
289.332868
31
0
0
LINE
8
2
62
4
10
-27.705473
20
289.332868
30
0
11
-26.911582
21
289.837199
31
0
0
LINE
8
2
62
4
10
-26.911582
20
289.837199
30
0
11
-27.110549
21
290.631090
31
0
0
LINE
8
2
62
4
10
-27.110549
20
290.631090
30
0
11
-28.048373
21
290.701645
31
0
0
LINE
8
2
62
4
10
-28.048373
20
290.701645
30
0
11
-29.004542
21
290.869285
31
0
0
LINE
8
2
62
4
10
-29.004542
20
290.869285
30
0
11
-29.142549
21
291.564399
31
0
0
LINE
8
2
62
4
10
-29.142549
20
291.564399
30
0
11
-28.323822
21
292.085381
31
0
0
LINE
8
2
62
4
10
-28.323822
20
292.085381
30
0
11
-27.484211
21
292.509279
31
0
0
LINE
8
2
62
4
10
-27.484211
20
292.509279
30
0
11
-27.604156
21
293.318974
31
0
0
LINE
8
2
62
4
10
-27.604156
20
293.318974
30
0
11
-28.530691
21
293.480970
31
0
0
LINE
8
2
62
4
10
-28.530691
20
293.480970
30
0
11
-29.465693
21
293.741743
31
0
0
LINE
8
2
62
4
10
-29.465693
20
293.741743
30
0
11
-29.535120
21
294.447016
31
0
0
LINE
8
2
62
4
10
-29.535120
20
294.447016
30
0
11
-28.668980
21
294.885308
31
0
0
LINE
8
2
62
4
10
-28.668980
20
294.885308
30
0
11
-27.791833
21
295.224821
31
0
0
LINE
8
2
62
4
10
-27.791833
20
295.224821
30
0
11
-27.832191
21
296.042419
31
0
0
LINE
8
2
62
4
10
-27.832191
20
296.042419
30
0
11
-28.738124
21
296.294443
31
0
0
LINE
8
2
62
4
10
-28.738124
20
296.294443
30
0
11
-29.643211
21
296.645528
31
0
0
LINE
8
2
62
4
10
-29.643211
20
296.645528
30
0
11
-29.643211
21
297.354470
31
0
0
LINE
8
2
62
4
10
-29.643211
20
297.354470
30
0
11
-28.738124
21
297.705554
31
0
0
LINE
8
2
62
4
10
-28.738124
20
297.705554
30
0
11
-27.832191
21
297.957579
31
0
0
LINE
8
2
62
4
10
-27.832191
20
297.957579
30
0
11
-27.791833
21
298.775176
31
0
0
LINE
8
2
62
4
10
-27.791833
20
298.775176
30
0
11
-28.668980
21
299.114690
31
0
0
LINE
8
2
62
4
10
-28.668980
20
299.114690
30
0
11
-29.535120
21
299.552981
31
0
0
LINE
8
2
62
4
10
-29.535120
20
299.552981
30
0
11
-29.465693
21
300.258254
31
0
0
LINE
8
2
62
4
10
-29.465693
20
300.258254
30
0
11
-28.530691
21
300.519028
31
0
0
LINE
8
2
62
4
10
-28.530691
20
300.519028
30
0
11
-27.604156
21
300.681023
31
0
0
LINE
8
2
62
4
10
-27.604156
20
300.681023
30
0
11
-27.484211
21
301.490719
31
0
0
LINE
8
2
62
4
10
-27.484211
20
301.490719
30
0
11
-28.323822
21
301.914616
31
0
0
LINE
8
2
62
4
10
-28.323822
20
301.914616
30
0
11
-29.142549
21
302.435599
31
0
0
LINE
8
2
62
4
10
-29.142549
20
302.435599
30
0
11
-29.004542
21
303.130712
31
0
0
LINE
8
2
62
4
10
-29.004542
20
303.130712
30
0
11
-28.048373
21
303.298352
31
0
0
LINE
8
2
62
4
10
-28.048373
20
303.298352
30
0
11
-27.110549
21
303.368908
31
0
0
LINE
8
2
62
4
10
-27.110549
20
303.368908
30
0
11
-26.911582
21
304.162799
31
0
0
LINE
8
2
62
4
10
-26.911582
20
304.162799
30
0
11
-27.705473
21
304.667130
31
0
0
LINE
8
2
62
4
10
-27.705473
20
304.667130
30
0
11
-28.469449
21
305.265723
31
0
0
LINE
8
2
62
4
10
-28.469449
20
305.265723
30
0
11
-28.263991
21
305.944185
31
0
0
LINE
8
2
62
4
10
-28.263991
20
305.944185
30
0
11
-27.295969
21
306.017281
31
0
0
LINE
8
2
62
4
10
-27.295969
20
306.017281
30
0
11
-26.355604
21
305.995550
31
0
0
LINE
8
2
62
4
10
-26.355604
20
305.995550
30
0
11
-26.079873
21
306.766299
31
0
0
LINE
8
2
62
4
10
-26.079873
20
306.766299
30
0
11
-26.820707
21
307.345983
31
0
0
LINE
8
2
62
4
10
-26.820707
20
307.345983
30
0
11
-27.522311
21
308.016543
31
0
0
LINE
8
2
62
4
10
-27.522311
20
308.016543
30
0
11
-27.251096
21
308.671299
31
0
0
LINE
8
2
62
4
10
-27.251096
20
308.671299
30
0
11
-26.280816
21
308.649568
31
0
0
LINE
8
2
62
4
10
-26.280816
20
308.649568
30
0
11
-25.346942
21
308.535550
31
0
0
LINE
8
2
62
4
10
-25.346942
20
308.535550
30
0
11
-24.996987
21
309.275536
31
0
0
LINE
8
2
62
4
10
-24.996987
20
309.275536
30
0
11
-25.677424
21
309.924930
31
0
0
LINE
8
2
62
4
10
-25.677424
20
309.924930
30
0
11
-26.309884
21
310.661248
31
0
0
LINE
8
2
62
4
10
-26.309884
20
310.661248
30
0
11
-25.976016
21
311.286088
31
0
0
LINE
8
2
62
4
10
-25.976016
20
311.286088
30
0
11
-25.012227
21
311.169248
31
0
0
LINE
8
2
62
4
10
-25.012227
20
311.169248
30
0
11
-24.094440
21
310.964354
31
0
0
LINE
8
2
62
4
10
-24.094440
20
310.964354
30
0
11
-23.673647
21
311.666523
31
0
0
LINE
8
2
62
4
10
-23.673647
20
311.666523
30
0
11
-24.286916
21
312.379416
31
0
0
LINE
8
2
62
4
10
-24.286916
20
312.379416
30
0
11
-24.844304
21
313.174154
31
0
0
LINE
8
2
62
4
10
-24.844304
20
313.174154
30
0
11
-24.450604
21
313.763434
31
0
0
LINE
8
2
62
4
10
-24.450604
20
313.763434
30
0
11
-23.503184
21
313.552614
31
0
0
LINE
8
2
62
4
10
-23.503184
20
313.552614
30
0
11
-22.609669
21
313.258821
31
0
0
LINE
8
2
62
4
10
-22.609669
20
313.258821
30
0
11
-22.121989
21
313.916399
31
0
0
LINE
8
2
62
4
10
-22.121989
20
313.916399
30
0
11
-22.662444
21
314.686019
31
0
0
LINE
8
2
62
4
10
-22.662444
20
314.686019
30
0
11
-23.139400
21
315.531556
31
0
0
LINE
8
2
62
4
10
-23.139400
20
315.531556
30
0
11
-22.689538
21
316.079350
31
0
0
LINE
8
2
62
4
10
-22.689538
20
316.079350
30
0
11
-21.767518
21
315.776808
31
0
0
LINE
8
2
62
4
10
-21.767518
20
315.776808
30
0
11
-20.907022
21
315.396654
31
0
0
LINE
8
2
62
4
10
-20.907022
20
315.396654
30
0
11
-20.357253
21
316.003150
31
0
0
LINE
8
2
62
4
10
-20.357253
20
316.003150
30
0
11
-20.819816
21
316.822159
31
0
0
LINE
8
2
62
4
10
-20.819816
20
316.822159
30
0
11
-21.211540
21
317.710312
31
0
0
LINE
8
2
62
4
10
-21.211540
20
317.710312
30
0
11
-20.710313
21
318.211539
31
0
0
LINE
8
2
62
4
10
-20.710313
20
318.211539
30
0
11
-19.822160
21
317.819814
31
0
0
LINE
8
2
62
4
10
-19.822160
20
317.819814
30
0
11
-19.003151
21
317.357252
31
0
0
LINE
8
2
62
4
10
-19.003151
20
317.357252
30
0
11
-18.396656
21
317.907021
31
0
0
LINE
8
2
62
4
10
-18.396656
20
317.907021
30
0
11
-18.776809
21
318.767516
31
0
0
LINE
8
2
62
4
10
-18.776809
20
318.767516
30
0
11
-19.079351
21
319.689536
31
0
0
LINE
8
2
62
4
10
-19.079351
20
319.689536
30
0
11
-18.531558
21
320.139399
31
0
0
LINE
8
2
62
4
10
-18.531558
20
320.139399
30
0
11
-17.686020
21
319.662443
31
0
0
LINE
8
2
62
4
10
-17.686020
20
319.662443
30
0
11
-16.916400
21
319.121988
31
0
0
LINE
8
2
62
4
10
-16.916400
20
319.121988
30
0
11
-16.258822
21
319.609668
31
0
0
LINE
8
2
62
4
10
-16.258822
20
319.609668
30
0
11
-16.552616
21
320.503183
31
0
0
LINE
8
2
62
4
10
-16.552616
20
320.503183
30
0
11
-16.763436
21
321.450603
31
0
0
LINE
8
2
62
4
10
-16.763436
20
321.450603
30
0
11
-16.174156
21
321.844303
31
0
0
LINE
8
2
62
4
10
-16.174156
20
321.844303
30
0
11
-15.379418
21
321.286914
31
0
0
LINE
8
2
62
4
10
-15.379418
20
321.286914
30
0
11
-14.666524
21
320.673645
31
0
0
LINE
8
2
62
4
10
-14.666524
20
320.673645
30
0
11
-13.964356
21
321.094439
31
0
0
LINE
8
2
62
4
10
-13.964356
20
321.094439
30
0
11
-14.169249
21
322.012225
31
0
0
LINE
8
2
62
4
10
-14.169249
20
322.012225
30
0
11
-14.286089
21
322.976014
31
0
0
LINE
8
2
62
4
10
-14.286089
20
322.976014
30
0
11
-13.661249
21
323.309883
31
0
0
LINE
8
2
62
4
10
-13.661249
20
323.309883
30
0
11
-12.924931
21
322.677423
31
0
0
LINE
8
2
62
4
10
-12.924931
20
322.677423
30
0
11
-12.275538
21
321.996985
31
0
0
LINE
8
2
62
4
10
-12.275538
20
321.996985
30
0
11
-11.535551
21
322.346941
31
0
0
LINE
8
2
62
4
10
-11.535551
20
322.346941
30
0
11
-11.649569
21
323.280814
31
0
0
LINE
8
2
62
4
10
-11.649569
20
323.280814
30
0
11
-11.671300
21
324.251094
31
0
0
LINE
8
2
62
4
10
-11.671300
20
324.251094
30
0
11
-11.016544
21
324.522310
31
0
0
LINE
8
2
62
4
10
-11.016544
20
324.522310
30
0
11
-10.345984
21
323.820705
31
0
0
LINE
8
2
62
4
10
-10.345984
20
323.820705
30
0
11
-9.766300
21
323.079872
31
0
0
LINE
8
2
62
4
10
-9.766300
20
323.079872
30
0
11
-8.995551
21
323.355603
31
0
0
LINE
8
2
62
4
10
-8.995551
20
323.355603
30
0
11
-9.017282
21
324.295968
31
0
0
LINE
8
2
62
4
10
-9.017282
20
324.295968
30
0
11
-8.944187
21
325.263990
31
0
0
LINE
8
2
62
4
10
-8.944187
20
325.263990
30
0
11
-8.265724
21
325.469448
31
0
0
LINE
8
2
62
4
10
-8.265724
20
325.469448
30
0
11
-7.667131
21
324.705472
31
0
0
LINE
8
2
62
4
10
-7.667131
20
324.705472
30
0
11
-7.162800
21
323.911581
31
0
0
LINE
8
2
62
4
10
-7.162800
20
323.911581
30
0
11
-6.368909
21
324.110548
31
0
0
LINE
8
2
62
4
10
-6.368909
20
324.110548
30
0
11
-6.298353
21
325.048372
31
0
0
LINE
8
2
62
4
10
-6.298353
20
325.048372
30
0
11
-6.130713
21
326.004541
31
0
0
LINE
8
2
62
4
10
-6.130713
20
326.004541
30
0
11
-5.435600
21
326.142548
31
0
0
LINE
8
2
62
4
10
-5.435600
20
326.142548
30
0
11
-4.914618
21
325.323821
31
0
0
LINE
8
2
62
4
10
-4.914618
20
325.323821
30
0
11
-4.490720
21
324.484210
31
0
0
LINE
8
2
62
4
10
-4.490720
20
324.484210
30
0
11
-3.681024
21
324.604154
31
0
0
LINE
8
2
62
4
10
-3.681024
20
324.604154
30
0
11
-3.519029
21
325.530690
31
0
0
LINE
8
2
62
4
10
-3.519029
20
325.530690
30
0
11
-3.258256
21
326.465692
31
0
0
LINE
8
2
62
4
10
-3.258256
20
326.465692
30
0
11
-2.552982
21
326.535119
31
0
0
LINE
8
2
62
4
10
-2.552982
20
326.535119
30
0
11
-2.114691
21
325.668979
31
0
0
LINE
8
2
62
4
10
-2.114691
20
325.668979
30
0
11
-1.775178
21
324.791832
31
0
0
LINE
8
2
62
4
10
-1.775178
20
324.791832
30
0
11
-0.957580
21
324.832190
31
0
0
LINE
8
2
62
4
10
-0.957580
20
324.832190
30
0
11
-0.705556
21
325.738123
31
0
0
LINE
8
2
62
4
10
-0.705556
20
325.738123
30
0
11
-0.354471
21
326.643210
31
0
0
LINE
8
2
62
4
10
-0.354471
20
326.643210
30
0
11
0.354471
21
326.643210
31
0
0
LINE
8
2
62
4
10
0.354471
20
326.643210
30
0
11
0.705556
21
325.738123
31
0
0
LINE
8
2
62
4
10
0.705556
20
325.738123
30
0
11
0.957580
21
324.832190
31
0
0
LINE
8
2
62
4
10
0.957580
20
324.832190
30
0
11
1.775178
21
324.791832
31
0
0
LINE
8
2
62
4
10
1.775178
20
324.791832
30
0
11
2.114691
21
325.668979
31
0
0
LINE
8
2
62
4
10
2.114691
20
325.668979
30
0
11
2.552982
21
326.535119
31
0
0
LINE
8
2
62
4
10
2.552982
20
326.535119
30
0
11
3.258256
21
326.465692
31
0
0
LINE
8
2
62
4
10
3.258256
20
326.465692
30
0
11
3.519029
21
325.530690
31
0
0
LINE
8
2
62
4
10
3.519029
20
325.530690
30
0
11
3.681024
21
324.604154
31
0
0
LINE
8
2
62
4
10
3.681024
20
324.604154
30
0
11
4.490720
21
324.484210
31
0
0
LINE
8
2
62
4
10
4.490720
20
324.484210
30
0
11
4.914618
21
325.323821
31
0
0
LINE
8
2
62
4
10
4.914618
20
325.323821
30
0
11
5.435600
21
326.142548
31
0
0
LINE
8
2
62
4
10
5.435600
20
326.142548
30
0
11
6.130713
21
326.004541
31
0
0
LINE
8
2
62
4
10
6.130713
20
326.004541
30
0
11
6.298353
21
325.048372
31
0
0
LINE
8
2
62
4
10
6.298353
20
325.048372
30
0
11
6.368909
21
324.110548
31
0
0
LINE
8
2
62
4
10
6.368909
20
324.110548
30
0
11
7.162800
21
323.911581
31
0
0
LINE
8
2
62
4
10
7.162800
20
323.911581
30
0
11
7.667131
21
324.705472
31
0
0
LINE
8
2
62
4
10
7.667131
20
324.705472
30
0
11
8.265724
21
325.469448
31
0
0
LINE
8
2
62
4
10
8.265724
20
325.469448
30
0
11
8.944187
21
325.263990
31
0
0
LINE
8
2
62
4
10
8.944187
20
325.263990
30
0
11
9.017282
21
324.295968
31
0
0
LINE
8
2
62
4
10
9.017282
20
324.295968
30
0
11
8.995551
21
323.355603
31
0
0
LINE
8
2
62
4
10
8.995551
20
323.355603
30
0
11
9.766300
21
323.079872
31
0
0
LINE
8
2
62
4
10
9.766300
20
323.079872
30
0
11
10.345984
21
323.820705
31
0
0
LINE
8
2
62
4
10
10.345984
20
323.820705
30
0
11
11.016544
21
324.522310
31
0
0
LINE
8
2
62
4
10
11.016544
20
324.522310
30
0
11
11.671300
21
324.251094
31
0
0
LINE
8
2
62
4
10
11.671300
20
324.251094
30
0
11
11.649569
21
323.280814
31
0
0
LINE
8
2
62
4
10
11.649569
20
323.280814
30
0
11
11.535551
21
322.346941
31
0
0
LINE
8
2
62
4
10
11.535551
20
322.346941
30
0
11
12.275538
21
321.996985
31
0
0
LINE
8
2
62
4
10
12.275538
20
321.996985
30
0
11
12.924931
21
322.677423
31
0
0
LINE
8
2
62
4
10
12.924931
20
322.677423
30
0
11
13.661249
21
323.309883
31
0
0
LINE
8
2
62
4
10
13.661249
20
323.309883
30
0
11
14.286089
21
322.976014
31
0
0
LINE
8
2
62
4
10
14.286089
20
322.976014
30
0
11
14.169249
21
322.012225
31
0
0
LINE
8
2
62
4
10
14.169249
20
322.012225
30
0
11
13.964356
21
321.094439
31
0
0
LINE
8
2
62
4
10
13.964356
20
321.094439
30
0
11
14.666524
21
320.673645
31
0
0
LINE
8
2
62
4
10
14.666524
20
320.673645
30
0
11
15.379418
21
321.286914
31
0
0
LINE
8
2
62
4
10
15.379418
20
321.286914
30
0
11
16.174156
21
321.844303
31
0
0
LINE
8
2
62
4
10
16.174156
20
321.844303
30
0
11
16.763436
21
321.450603
31
0
0
LINE
8
2
62
4
10
16.763436
20
321.450603
30
0
11
16.552616
21
320.503183
31
0
0
LINE
8
2
62
4
10
16.552616
20
320.503183
30
0
11
16.258822
21
319.609668
31
0
0
LINE
8
2
62
4
10
16.258822
20
319.609668
30
0
11
16.916400
21
319.121988
31
0
0
LINE
8
2
62
4
10
16.916400
20
319.121988
30
0
11
17.686020
21
319.662443
31
0
0
LINE
8
2
62
4
10
17.686020
20
319.662443
30
0
11
18.531558
21
320.139399
31
0
0
LINE
8
2
62
4
10
18.531558
20
320.139399
30
0
11
19.079351
21
319.689536
31
0
0
LINE
8
2
62
4
10
19.079351
20
319.689536
30
0
11
18.776809
21
318.767516
31
0
0
LINE
8
2
62
4
10
18.776809
20
318.767516
30
0
11
18.396656
21
317.907021
31
0
0
LINE
8
2
62
4
10
18.396656
20
317.907021
30
0
11
19.003151
21
317.357252
31
0
0
LINE
8
2
62
4
10
19.003151
20
317.357252
30
0
11
19.822160
21
317.819814
31
0
0
LINE
8
2
62
4
10
19.822160
20
317.819814
30
0
11
20.710313
21
318.211539
31
0
0
LINE
8
2
62
4
10
20.710313
20
318.211539
30
0
11
21.211540
21
317.710312
31
0
0
LINE
8
2
62
4
10
21.211540
20
317.710312
30
0
11
20.819816
21
316.822159
31
0
0
LINE
8
2
62
4
10
20.819816
20
316.822159
30
0
11
20.357253
21
316.003150
31
0
0
LINE
8
2
62
4
10
20.357253
20
316.003150
30
0
11
20.907022
21
315.396654
31
0
0
LINE
8
2
62
4
10
20.907022
20
315.396654
30
0
11
21.767518
21
315.776808
31
0
0
LINE
8
2
62
4
10
21.767518
20
315.776808
30
0
11
22.689538
21
316.079350
31
0
0
LINE
8
2
62
4
10
22.689538
20
316.079350
30
0
11
23.139400
21
315.531556
31
0
0
LINE
8
2
62
4
10
23.139400
20
315.531556
30
0
11
22.662444
21
314.686019
31
0
0
LINE
8
2
62
4
10
22.662444
20
314.686019
30
0
11
22.121989
21
313.916399
31
0
0
LINE
8
2
62
4
10
22.121989
20
313.916399
30
0
11
22.609669
21
313.258821
31
0
0
LINE
8
2
62
4
10
22.609669
20
313.258821
30
0
11
23.503184
21
313.552614
31
0
0
LINE
8
2
62
4
10
23.503184
20
313.552614
30
0
11
24.450604
21
313.763434
31
0
0
LINE
8
2
62
4
10
24.450604
20
313.763434
30
0
11
24.844304
21
313.174154
31
0
0
LINE
8
2
62
4
10
24.844304
20
313.174154
30
0
11
24.286916
21
312.379416
31
0
0
LINE
8
2
62
4
10
24.286916
20
312.379416
30
0
11
23.673647
21
311.666523
31
0
0
LINE
8
2
62
4
10
23.673647
20
311.666523
30
0
11
24.094440
21
310.964354
31
0
0
LINE
8
2
62
4
10
24.094440
20
310.964354
30
0
11
25.012227
21
311.169248
31
0
0
LINE
8
2
62
4
10
25.012227
20
311.169248
30
0
11
25.976016
21
311.286088
31
0
0
LINE
8
2
62
4
10
25.976016
20
311.286088
30
0
11
26.309884
21
310.661248
31
0
0
LINE
8
2
62
4
10
26.309884
20
310.661248
30
0
11
25.677424
21
309.924930
31
0
0
LINE
8
2
62
4
10
25.677424
20
309.924930
30
0
11
24.996987
21
309.275536
31
0
0
LINE
8
2
62
4
10
24.996987
20
309.275536
30
0
11
25.346942
21
308.535550
31
0
0
LINE
8
2
62
4
10
25.346942
20
308.535550
30
0
11
26.280816
21
308.649568
31
0
0
LINE
8
2
62
4
10
26.280816
20
308.649568
30
0
11
27.251096
21
308.671299
31
0
0
LINE
8
2
62
4
10
27.251096
20
308.671299
30
0
11
27.522311
21
308.016543
31
0
0
LINE
8
2
62
4
10
27.522311
20
308.016543
30
0
11
26.820707
21
307.345983
31
0
0
LINE
8
2
62
4
10
26.820707
20
307.345983
30
0
11
26.079873
21
306.766299
31
0
0
LINE
8
2
62
4
10
26.079873
20
306.766299
30
0
11
26.355604
21
305.995550
31
0
0
LINE
8
2
62
4
10
26.355604
20
305.995550
30
0
11
27.295969
21
306.017281
31
0
0
LINE
8
2
62
4
10
27.295969
20
306.017281
30
0
11
28.263991
21
305.944185
31
0
0
LINE
8
2
62
4
10
28.263991
20
305.944185
30
0
11
28.469449
21
305.265723
31
0
0
LINE
8
2
62
4
10
28.469449
20
305.265723
30
0
11
27.705473
21
304.667130
31
0
0
LINE
8
2
62
4
10
27.705473
20
304.667130
30
0
11
26.911582
21
304.162799
31
0
0
LINE
8
2
62
4
10
26.911582
20
304.162799
30
0
11
27.110549
21
303.368908
31
0
0
LINE
8
2
62
4
10
27.110549
20
303.368908
30
0
11
28.048373
21
303.298352
31
0
0
LINE
8
2
62
4
10
28.048373
20
303.298352
30
0
11
29.004542
21
303.130712
31
0
0
LINE
8
2
62
4
10
29.004542
20
303.130712
30
0
11
29.142549
21
302.435599
31
0
0
LINE
8
2
62
4
10
29.142549
20
302.435599
30
0
11
28.323822
21
301.914616
31
0
0
LINE
8
2
62
4
10
28.323822
20
301.914616
30
0
11
27.484211
21
301.490719
31
0
0
LINE
8
2
62
4
10
27.484211
20
301.490719
30
0
11
27.604156
21
300.681023
31
0
0
LINE
8
2
62
4
10
27.604156
20
300.681023
30
0
11
28.530691
21
300.519028
31
0
0
LINE
8
2
62
4
10
28.530691
20
300.519028
30
0
11
29.465693
21
300.258254
31
0
0
LINE
8
2
62
4
10
29.465693
20
300.258254
30
0
11
29.535120
21
299.552981
31
0
0
LINE
8
2
62
4
10
29.535120
20
299.552981
30
0
11
28.668980
21
299.114690
31
0
0
LINE
8
2
62
4
10
28.668980
20
299.114690
30
0
11
27.791833
21
298.775176
31
0
0
LINE
8
2
62
4
10
27.791833
20
298.775176
30
0
11
27.832191
21
297.957579
31
0
0
LINE
8
2
62
4
10
27.832191
20
297.957579
30
0
11
27.832191
21
297.957579
31
0
0
ENDSEC
0
EOF

