<?xml version="1.0" encoding="UTF-8" standalone="no"?>
<!-- Created with Inkscape (http://www.inkscape.org/) -->
<svg
   xmlns:dc="http://purl.org/dc/elements/1.1/"
   xmlns:cc="http://creativecommons.org/ns#"
   xmlns:rdf="http://www.w3.org/1999/02/22-rdf-syntax-ns#"
   xmlns:svg="http://www.w3.org/2000/svg"
   xmlns="http://www.w3.org/2000/svg"
   xmlns:sodipodi="http://sodipodi.sourceforge.net/DTD/sodipodi-0.dtd"
   xmlns:inkscape="http://www.inkscape.org/namespaces/inkscape"
   width="744.09448"
   height="1052.3622"
   id="svg2"
   sodipodi:version="0.32"
   inkscape:version="0.46"
   sodipodi:docname="garagegearA.svg"
   inkscape:output_extension="org.inkscape.output.svg.inkscape"
   version="1.0">
  <sodipodi:namedview
     id="base"
     pagecolor="#ffffff"
     bordercolor="#666666"
     borderopacity="1.0"
     gridtolerance="10000"
     guidetolerance="10"
     objecttolerance="10"
     inkscape:pageopacity="0.0"
     inkscape:pageshadow="2"
     inkscape:zoom="1"
     inkscape:cx="375"
     inkscape:cy="713.99539"
     inkscape:document-units="mm"
     inkscape:current-layer="layer1"
     showgrid="false"
     inkscape:window-width="1728"
     inkscape:window-height="1049"
     inkscape:window-x="73"
     inkscape:window-y="129"
     units="mm" />
  <defs
     id="defs4">
    <inkscape:perspective
       sodipodi:type="inkscape:persp3d"
       inkscape:vp_x="0 : 526.18109 : 1"
       inkscape:vp_y="0 : 1000 : 0"
       inkscape:vp_z="744.09448 : 526.18109 : 1"
       inkscape:persp3d-origin="372.04724 : 350.78739 : 1"
       id="perspective10" />
  </defs>
  <metadata
     id="metadata7">
    <rdf:RDF>
      <cc:Work
         rdf:about="">
        <dc:format>image/svg+xml</dc:format>
        <dc:type
           rdf:resource="http://purl.org/dc/dcmitype/StillImage" />
      </cc:Work>
    </rdf:RDF>
  </metadata>
  <g
     inkscape:label="Layer 1"
     inkscape:groupmode="layer"
     id="layer1">
    <g
       id="g2613"
       transform="matrix(1.1989848,0,0,1.1989848,94.59411,110.08724)"
       inkscape:label="Gear16">
      <path
         id="path2615"
         d="M 44.279,-5.028 L 47.552,-5.4 L 50.684,-4.992 L 57.257,-2.119 L 57.257,2.119 L 50.684,4.992 L 47.552,5.4 L 44.279,5.028 L 42.833,12.299 L 45.999,13.208 L 48.737,14.784 L 53.709,19.954 L 52.087,23.868 L 44.916,24.008 L 41.866,23.187 L 38.984,21.59 L 34.865,27.754 L 37.443,29.806 L 39.369,32.309 L 41.985,38.989 L 38.989,41.985 L 32.309,39.369 L 29.806,37.443 L 27.754,34.865 L 21.59,38.984 L 23.187,41.866 L 24.008,44.916 L 23.868,52.087 L 19.954,53.709 L 14.784,48.737 L 13.208,45.999 L 12.299,42.833 L 5.028,44.279 L 5.4,47.552 L 4.992,50.684 L 2.119,57.257 L -2.119,57.257 L -4.992,50.684 L -5.4,47.552 L -5.028,44.279 L -12.299,42.833 L -13.208,45.999 L -14.784,48.737 L -19.954,53.709 L -23.868,52.087 L -24.008,44.916 L -23.187,41.866 L -21.59,38.984 L -27.754,34.865 L -29.806,37.443 L -32.309,39.369 L -38.989,41.985 L -41.985,38.989 L -39.369,32.309 L -37.443,29.806 L -34.865,27.754 L -38.984,21.59 L -41.866,23.187 L -44.916,24.008 L -52.087,23.868 L -53.709,19.954 L -48.737,14.784 L -45.999,13.208 L -42.833,12.299 L -44.279,5.028 L -47.552,5.4 L -50.684,4.992 L -57.257,2.119 L -57.257,-2.119 L -50.684,-4.992 L -47.552,-5.4 L -44.279,-5.028 L -42.833,-12.299 L -45.999,-13.208 L -48.737,-14.784 L -53.709,-19.954 L -52.087,-23.868 L -44.916,-24.008 L -41.866,-23.187 L -38.984,-21.59 L -34.865,-27.754 L -37.443,-29.806 L -39.369,-32.309 L -41.985,-38.989 L -38.989,-41.985 L -32.309,-39.369 L -29.806,-37.443 L -27.754,-34.865 L -21.59,-38.984 L -23.187,-41.866 L -24.008,-44.916 L -23.868,-52.087 L -19.954,-53.709 L -14.784,-48.737 L -13.208,-45.999 L -12.299,-42.833 L -5.028,-44.279 L -5.4,-47.552 L -4.992,-50.684 L -2.119,-57.257 L 2.119,-57.257 L 4.992,-50.684 L 5.4,-47.552 L 5.028,-44.279 L 12.299,-42.833 L 13.208,-45.999 L 14.784,-48.737 L 19.954,-53.709 L 23.868,-52.087 L 24.008,-44.916 L 23.187,-41.866 L 21.59,-38.984 L 27.754,-34.865 L 29.806,-37.443 L 32.309,-39.369 L 38.989,-41.985 L 41.985,-38.989 L 39.369,-32.309 L 37.443,-29.806 L 34.865,-27.754 L 38.984,-21.59 L 41.866,-23.187 L 44.916,-24.008 L 52.087,-23.868 L 53.709,-19.954 L 48.737,-14.784 L 45.999,-13.208 L 42.833,-12.299 L 44.279,-5.028 z"
         style="fill:none;stroke:#000000" />
    </g>
  </g>
</svg>
