<?xml version="1.0" encoding="UTF-8" standalone="no"?>
<!-- Created with Inkscape (http://www.inkscape.org/) -->
<svg
   xmlns:dc="http://purl.org/dc/elements/1.1/"
   xmlns:cc="http://creativecommons.org/ns#"
   xmlns:rdf="http://www.w3.org/1999/02/22-rdf-syntax-ns#"
   xmlns:svg="http://www.w3.org/2000/svg"
   xmlns="http://www.w3.org/2000/svg"
   xmlns:sodipodi="http://sodipodi.sourceforge.net/DTD/sodipodi-0.dtd"
   xmlns:inkscape="http://www.inkscape.org/namespaces/inkscape"
   width="744.09448"
   height="1052.3622"
   id="svg2"
   sodipodi:version="0.32"
   inkscape:version="0.46"
   sodipodi:docname="garagegear.svg"
   inkscape:output_extension="org.inkscape.output.svg.inkscape"
   version="1.0">
  <sodipodi:namedview
     id="base"
     pagecolor="#ffffff"
     bordercolor="#666666"
     borderopacity="1.0"
     gridtolerance="10000"
     guidetolerance="10"
     objecttolerance="10"
     inkscape:pageopacity="0.0"
     inkscape:pageshadow="2"
     inkscape:zoom="1"
     inkscape:cx="375"
     inkscape:cy="682.46488"
     inkscape:document-units="in"
     inkscape:current-layer="layer1"
     showgrid="false"
     inkscape:window-width="1728"
     inkscape:window-height="1049"
     inkscape:window-x="73"
     inkscape:window-y="141"
     units="in" />
  <defs
     id="defs4">
    <inkscape:perspective
       sodipodi:type="inkscape:persp3d"
       inkscape:vp_x="0 : 526.18109 : 1"
       inkscape:vp_y="0 : 1000 : 0"
       inkscape:vp_z="744.09448 : 526.18109 : 1"
       inkscape:persp3d-origin="372.04724 : 350.78739 : 1"
       id="perspective10" />
  </defs>
  <metadata
     id="metadata7">
    <rdf:RDF>
      <cc:Work
         rdf:about="">
        <dc:format>image/svg+xml</dc:format>
        <dc:type
           rdf:resource="http://purl.org/dc/dcmitype/StillImage" />
      </cc:Work>
    </rdf:RDF>
  </metadata>
  <g
     inkscape:label="Layer 1"
     inkscape:groupmode="layer"
     id="layer1">
    <g
       id="g2613"
       transform="matrix(1.1989848,0,0,1.1989848,94.59411,110.08724)"
       inkscape:label="Gear16">
      <path
         id="path2615"
         d="M 44.279,-5.028 L 47.552,-5.4 L 50.684,-4.992 L 57.257,-2.119 L 57.257,2.119 L 50.684,4.992 L 47.552,5.4 L 44.279,5.028 L 42.833,12.299 L 45.999,13.208 L 48.737,14.784 L 53.709,19.954 L 52.087,23.868 L 44.916,24.008 L 41.866,23.187 L 38.984,21.59 L 34.865,27.754 L 37.443,29.806 L 39.369,32.309 L 41.985,38.989 L 38.989,41.985 L 32.309,39.369 L 29.806,37.443 L 27.754,34.865 L 21.59,38.984 L 23.187,41.866 L 24.008,44.916 L 23.868,52.087 L 19.954,53.709 L 14.784,48.737 L 13.208,45.999 L 12.299,42.833 L 5.028,44.279 L 5.4,47.552 L 4.992,50.684 L 2.119,57.257 L -2.119,57.257 L -4.992,50.684 L -5.4,47.552 L -5.028,44.279 L -12.299,42.833 L -13.208,45.999 L -14.784,48.737 L -19.954,53.709 L -23.868,52.087 L -24.008,44.916 L -23.187,41.866 L -21.59,38.984 L -27.754,34.865 L -29.806,37.443 L -32.309,39.369 L -38.989,41.985 L -41.985,38.989 L -39.369,32.309 L -37.443,29.806 L -34.865,27.754 L -38.984,21.59 L -41.866,23.187 L -44.916,24.008 L -52.087,23.868 L -53.709,19.954 L -48.737,14.784 L -45.999,13.208 L -42.833,12.299 L -44.279,5.028 L -47.552,5.4 L -50.684,4.992 L -57.257,2.119 L -57.257,-2.119 L -50.684,-4.992 L -47.552,-5.4 L -44.279,-5.028 L -42.833,-12.299 L -45.999,-13.208 L -48.737,-14.784 L -53.709,-19.954 L -52.087,-23.868 L -44.916,-24.008 L -41.866,-23.187 L -38.984,-21.59 L -34.865,-27.754 L -37.443,-29.806 L -39.369,-32.309 L -41.985,-38.989 L -38.989,-41.985 L -32.309,-39.369 L -29.806,-37.443 L -27.754,-34.865 L -21.59,-38.984 L -23.187,-41.866 L -24.008,-44.916 L -23.868,-52.087 L -19.954,-53.709 L -14.784,-48.737 L -13.208,-45.999 L -12.299,-42.833 L -5.028,-44.279 L -5.4,-47.552 L -4.992,-50.684 L -2.119,-57.257 L 2.119,-57.257 L 4.992,-50.684 L 5.4,-47.552 L 5.028,-44.279 L 12.299,-42.833 L 13.208,-45.999 L 14.784,-48.737 L 19.954,-53.709 L 23.868,-52.087 L 24.008,-44.916 L 23.187,-41.866 L 21.59,-38.984 L 27.754,-34.865 L 29.806,-37.443 L 32.309,-39.369 L 38.989,-41.985 L 41.985,-38.989 L 39.369,-32.309 L 37.443,-29.806 L 34.865,-27.754 L 38.984,-21.59 L 41.866,-23.187 L 44.916,-24.008 L 52.087,-23.868 L 53.709,-19.954 L 48.737,-14.784 L 45.999,-13.208 L 42.833,-12.299 L 44.279,-5.028 z"
         style="fill:none;stroke:#000000" />
    </g>
    <g
       id="g2703"
       transform="translate(257,103.89732)"
       inkscape:label="Gear16">
      <path
         id="path2705"
         d="M 50.921,-5.783 L 54.685,-6.21 L 58.287,-5.741 L 65.845,-2.436 L 65.845,2.436 L 58.287,5.741 L 54.685,6.21 L 50.921,5.783 L 49.257,14.144 L 52.899,15.19 L 56.047,17.002 L 61.765,22.947 L 59.901,27.449 L 51.653,27.609 L 48.146,26.665 L 44.832,24.829 L 40.095,31.917 L 43.06,34.277 L 45.274,37.156 L 48.282,44.837 L 44.837,48.282 L 37.156,45.274 L 34.277,43.06 L 31.917,40.095 L 24.829,44.832 L 26.665,48.146 L 27.609,51.653 L 27.449,59.901 L 22.947,61.765 L 17.002,56.047 L 15.19,52.899 L 14.144,49.257 L 5.783,50.921 L 6.21,54.685 L 5.741,58.287 L 2.436,65.845 L -2.436,65.845 L -5.741,58.287 L -6.21,54.685 L -5.783,50.921 L -14.144,49.257 L -15.19,52.899 L -17.002,56.047 L -22.947,61.765 L -27.449,59.901 L -27.609,51.653 L -26.665,48.146 L -24.829,44.832 L -31.917,40.095 L -34.277,43.06 L -37.156,45.274 L -44.837,48.282 L -48.282,44.837 L -45.274,37.156 L -43.06,34.277 L -40.095,31.917 L -44.832,24.829 L -48.146,26.665 L -51.653,27.609 L -59.901,27.449 L -61.765,22.947 L -56.047,17.002 L -52.899,15.19 L -49.257,14.144 L -50.921,5.783 L -54.685,6.21 L -58.287,5.741 L -65.845,2.436 L -65.845,-2.436 L -58.287,-5.741 L -54.685,-6.21 L -50.921,-5.783 L -49.257,-14.144 L -52.899,-15.19 L -56.047,-17.002 L -61.765,-22.947 L -59.901,-27.449 L -51.653,-27.609 L -48.146,-26.665 L -44.832,-24.829 L -40.095,-31.917 L -43.06,-34.277 L -45.274,-37.156 L -48.282,-44.837 L -44.837,-48.282 L -37.156,-45.274 L -34.277,-43.06 L -31.917,-40.095 L -24.829,-44.832 L -26.665,-48.146 L -27.609,-51.653 L -27.449,-59.901 L -22.947,-61.765 L -17.002,-56.047 L -15.19,-52.899 L -14.144,-49.257 L -5.783,-50.921 L -6.21,-54.685 L -5.741,-58.287 L -2.436,-65.845 L 2.436,-65.845 L 5.741,-58.287 L 6.21,-54.685 L 5.783,-50.921 L 14.144,-49.257 L 15.19,-52.899 L 17.002,-56.047 L 22.947,-61.765 L 27.449,-59.901 L 27.609,-51.653 L 26.665,-48.146 L 24.829,-44.832 L 31.917,-40.095 L 34.277,-43.06 L 37.156,-45.274 L 44.837,-48.282 L 48.282,-44.837 L 45.274,-37.156 L 43.06,-34.277 L 40.095,-31.917 L 44.832,-24.829 L 48.146,-26.665 L 51.653,-27.609 L 59.901,-27.449 L 61.765,-22.947 L 56.047,-17.002 L 52.899,-15.19 L 49.257,-14.144 L 50.921,-5.783 z"
         style="fill:none;stroke:#000000" />
    </g>
    <g
       inkscape:label="Gear16"
       transform="translate(75,257.89732)"
       id="g2731">
      <path
         style="fill:none;stroke:#000000"
         d="M 22.139,-2.514 L 23.776,-2.7 L 25.342,-2.496 L 28.628,-1.059 L 28.628,1.059 L 25.342,2.496 L 23.776,2.7 L 22.139,2.514 L 21.416,6.15 L 23,6.604 L 24.368,7.392 L 26.854,9.977 L 26.044,11.934 L 22.458,12.004 L 20.933,11.593 L 19.492,10.795 L 17.433,13.877 L 18.722,14.903 L 19.685,16.155 L 20.992,19.494 L 19.494,20.992 L 16.155,19.685 L 14.903,18.722 L 13.877,17.433 L 10.795,19.492 L 11.593,20.933 L 12.004,22.458 L 11.934,26.044 L 9.977,26.854 L 7.392,24.368 L 6.604,23 L 6.15,21.416 L 2.514,22.139 L 2.7,23.776 L 2.496,25.342 L 1.059,28.628 L -1.059,28.628 L -2.496,25.342 L -2.7,23.776 L -2.514,22.139 L -6.15,21.416 L -6.604,23 L -7.392,24.368 L -9.977,26.854 L -11.934,26.044 L -12.004,22.458 L -11.593,20.933 L -10.795,19.492 L -13.877,17.433 L -14.903,18.722 L -16.155,19.685 L -19.494,20.992 L -20.992,19.494 L -19.685,16.155 L -18.722,14.903 L -17.433,13.877 L -19.492,10.795 L -20.933,11.593 L -22.458,12.004 L -26.044,11.934 L -26.854,9.977 L -24.368,7.392 L -23,6.604 L -21.416,6.15 L -22.139,2.514 L -23.776,2.7 L -25.342,2.496 L -28.628,1.059 L -28.628,-1.059 L -25.342,-2.496 L -23.776,-2.7 L -22.139,-2.514 L -21.416,-6.15 L -23,-6.604 L -24.368,-7.392 L -26.854,-9.977 L -26.044,-11.934 L -22.458,-12.004 L -20.933,-11.593 L -19.492,-10.795 L -17.433,-13.877 L -18.722,-14.903 L -19.685,-16.155 L -20.992,-19.494 L -19.494,-20.992 L -16.155,-19.685 L -14.903,-18.722 L -13.877,-17.433 L -10.795,-19.492 L -11.593,-20.933 L -12.004,-22.458 L -11.934,-26.044 L -9.977,-26.854 L -7.392,-24.368 L -6.604,-23 L -6.15,-21.416 L -2.514,-22.139 L -2.7,-23.776 L -2.496,-25.342 L -1.059,-28.628 L 1.059,-28.628 L 2.496,-25.342 L 2.7,-23.776 L 2.514,-22.139 L 6.15,-21.416 L 6.604,-23 L 7.392,-24.368 L 9.977,-26.854 L 11.934,-26.044 L 12.004,-22.458 L 11.593,-20.933 L 10.795,-19.492 L 13.877,-17.433 L 14.903,-18.722 L 16.155,-19.685 L 19.494,-20.992 L 20.992,-19.494 L 19.685,-16.155 L 18.722,-14.903 L 17.433,-13.877 L 19.492,-10.795 L 20.933,-11.593 L 22.458,-12.004 L 26.044,-11.934 L 26.854,-9.977 L 24.368,-7.392 L 23,-6.604 L 21.416,-6.15 L 22.139,-2.514 z"
         id="path2733" />
    </g>
    <g
       id="g2757"
       transform="translate(248,287.89732)"
       inkscape:label="Gear64">
      <path
         id="path2759"
         d="M 98.618,-3.393 L 101.828,-2.5 L 105.035,-1.256 L 105.035,1.256 L 101.828,2.5 L 98.618,3.393 L 98.475,6.29 L 101.583,7.493 L 104.652,9.046 L 104.406,11.545 L 101.093,12.469 L 97.81,13.043 L 97.385,15.912 L 100.36,17.414 L 103.261,19.26 L 102.772,21.723 L 99.384,22.317 L 96.061,22.567 L 95.356,25.38 L 98.169,27.167 L 100.876,29.288 L 100.148,31.692 L 96.718,31.951 L 93.386,31.874 L 92.409,34.605 L 95.034,36.659 L 97.52,39.035 L 96.559,41.355 L 93.121,41.278 L 89.812,40.874 L 88.572,43.496 L 90.983,45.797 L 93.224,48.406 L 92.041,50.62 L 88.626,50.206 L 85.374,49.48 L 83.883,51.968 L 86.056,54.494 L 88.031,57.31 L 86.636,59.398 L 83.279,58.651 L 80.113,57.61 L 78.385,59.94 L 80.3,62.667 L 81.99,65.663 L 80.396,67.604 L 77.129,66.532 L 74.08,65.185 L 72.132,67.334 L 73.771,70.236 L 75.159,73.383 L 73.383,75.159 L 70.236,73.771 L 67.334,72.132 L 65.185,74.08 L 66.532,77.129 L 67.604,80.396 L 65.663,81.99 L 62.667,80.3 L 59.94,78.385 L 57.61,80.113 L 58.651,83.279 L 59.398,86.636 L 57.31,88.031 L 54.494,86.056 L 51.968,83.883 L 49.48,85.374 L 50.206,88.626 L 50.62,92.041 L 48.406,93.224 L 45.797,90.983 L 43.496,88.572 L 40.874,89.812 L 41.278,93.121 L 41.355,96.559 L 39.035,97.52 L 36.659,95.034 L 34.605,92.409 L 31.874,93.386 L 31.951,96.718 L 31.692,100.148 L 29.288,100.876 L 27.167,98.169 L 25.38,95.356 L 22.567,96.061 L 22.317,99.384 L 21.723,102.772 L 19.26,103.261 L 17.414,100.36 L 15.912,97.385 L 13.043,97.81 L 12.469,101.093 L 11.545,104.406 L 9.046,104.652 L 7.493,101.583 L 6.29,98.475 L 3.393,98.618 L 2.5,101.828 L 1.256,105.035 L -1.256,105.035 L -2.5,101.828 L -3.393,98.618 L -6.29,98.475 L -7.493,101.583 L -9.046,104.652 L -11.545,104.406 L -12.469,101.093 L -13.043,97.81 L -15.912,97.385 L -17.414,100.36 L -19.26,103.261 L -21.723,102.772 L -22.317,99.384 L -22.567,96.061 L -25.38,95.356 L -27.167,98.169 L -29.288,100.876 L -31.692,100.148 L -31.951,96.718 L -31.874,93.386 L -34.605,92.409 L -36.659,95.034 L -39.035,97.52 L -41.355,96.559 L -41.278,93.121 L -40.874,89.812 L -43.496,88.572 L -45.797,90.983 L -48.406,93.224 L -50.62,92.041 L -50.206,88.626 L -49.48,85.374 L -51.968,83.883 L -54.494,86.056 L -57.31,88.031 L -59.398,86.636 L -58.651,83.279 L -57.61,80.113 L -59.94,78.385 L -62.667,80.3 L -65.663,81.99 L -67.604,80.396 L -66.532,77.129 L -65.185,74.08 L -67.334,72.132 L -70.236,73.771 L -73.383,75.159 L -75.159,73.383 L -73.771,70.236 L -72.132,67.334 L -74.08,65.185 L -77.129,66.532 L -80.396,67.604 L -81.99,65.663 L -80.3,62.667 L -78.385,59.94 L -80.113,57.61 L -83.279,58.651 L -86.636,59.398 L -88.031,57.31 L -86.056,54.494 L -83.883,51.968 L -85.374,49.48 L -88.626,50.206 L -92.041,50.62 L -93.224,48.406 L -90.983,45.797 L -88.572,43.496 L -89.812,40.874 L -93.121,41.278 L -96.559,41.355 L -97.52,39.035 L -95.034,36.659 L -92.409,34.605 L -93.386,31.874 L -96.718,31.951 L -100.148,31.692 L -100.876,29.288 L -98.169,27.167 L -95.356,25.38 L -96.061,22.567 L -99.384,22.317 L -102.772,21.723 L -103.261,19.26 L -100.36,17.414 L -97.385,15.912 L -97.81,13.043 L -101.093,12.469 L -104.406,11.545 L -104.652,9.046 L -101.583,7.493 L -98.475,6.29 L -98.618,3.393 L -101.828,2.5 L -105.035,1.256 L -105.035,-1.256 L -101.828,-2.5 L -98.618,-3.393 L -98.475,-6.29 L -101.583,-7.493 L -104.652,-9.046 L -104.406,-11.545 L -101.093,-12.469 L -97.81,-13.043 L -97.385,-15.912 L -100.36,-17.414 L -103.261,-19.26 L -102.772,-21.723 L -99.384,-22.317 L -96.061,-22.567 L -95.356,-25.38 L -98.169,-27.167 L -100.876,-29.288 L -100.148,-31.692 L -96.718,-31.951 L -93.386,-31.874 L -92.409,-34.605 L -95.034,-36.659 L -97.52,-39.035 L -96.559,-41.355 L -93.121,-41.278 L -89.812,-40.874 L -88.572,-43.496 L -90.983,-45.797 L -93.224,-48.406 L -92.041,-50.62 L -88.626,-50.206 L -85.374,-49.48 L -83.883,-51.968 L -86.056,-54.494 L -88.031,-57.31 L -86.636,-59.398 L -83.279,-58.651 L -80.113,-57.61 L -78.385,-59.94 L -80.3,-62.667 L -81.99,-65.663 L -80.396,-67.604 L -77.129,-66.532 L -74.08,-65.185 L -72.132,-67.334 L -73.771,-70.236 L -75.159,-73.383 L -73.383,-75.159 L -70.236,-73.771 L -67.334,-72.132 L -65.185,-74.08 L -66.532,-77.129 L -67.604,-80.396 L -65.663,-81.99 L -62.667,-80.3 L -59.94,-78.385 L -57.61,-80.113 L -58.651,-83.279 L -59.398,-86.636 L -57.31,-88.031 L -54.494,-86.056 L -51.968,-83.883 L -49.48,-85.374 L -50.206,-88.626 L -50.62,-92.041 L -48.406,-93.224 L -45.797,-90.983 L -43.496,-88.572 L -40.874,-89.812 L -41.278,-93.121 L -41.355,-96.559 L -39.035,-97.52 L -36.659,-95.034 L -34.605,-92.409 L -31.874,-93.386 L -31.951,-96.718 L -31.692,-100.148 L -29.288,-100.876 L -27.167,-98.169 L -25.38,-95.356 L -22.567,-96.061 L -22.317,-99.384 L -21.723,-102.772 L -19.26,-103.261 L -17.414,-100.36 L -15.912,-97.385 L -13.043,-97.81 L -12.469,-101.093 L -11.545,-104.406 L -9.046,-104.652 L -7.493,-101.583 L -6.29,-98.475 L -3.393,-98.618 L -2.5,-101.828 L -1.256,-105.035 L 1.256,-105.035 L 2.5,-101.828 L 3.393,-98.618 L 6.29,-98.475 L 7.493,-101.583 L 9.046,-104.652 L 11.545,-104.406 L 12.469,-101.093 L 13.043,-97.81 L 15.912,-97.385 L 17.414,-100.36 L 19.26,-103.261 L 21.723,-102.772 L 22.317,-99.384 L 22.567,-96.061 L 25.38,-95.356 L 27.167,-98.169 L 29.288,-100.876 L 31.692,-100.148 L 31.951,-96.718 L 31.874,-93.386 L 34.605,-92.409 L 36.659,-95.034 L 39.035,-97.52 L 41.355,-96.559 L 41.278,-93.121 L 40.874,-89.812 L 43.496,-88.572 L 45.797,-90.983 L 48.406,-93.224 L 50.62,-92.041 L 50.206,-88.626 L 49.48,-85.374 L 51.968,-83.883 L 54.494,-86.056 L 57.31,-88.031 L 59.398,-86.636 L 58.651,-83.279 L 57.61,-80.113 L 59.94,-78.385 L 62.667,-80.3 L 65.663,-81.99 L 67.604,-80.396 L 66.532,-77.129 L 65.185,-74.08 L 67.334,-72.132 L 70.236,-73.771 L 73.383,-75.159 L 75.159,-73.383 L 73.771,-70.236 L 72.132,-67.334 L 74.08,-65.185 L 77.129,-66.532 L 80.396,-67.604 L 81.99,-65.663 L 80.3,-62.667 L 78.385,-59.94 L 80.113,-57.61 L 83.279,-58.651 L 86.636,-59.398 L 88.031,-57.31 L 86.056,-54.494 L 83.883,-51.968 L 85.374,-49.48 L 88.626,-50.206 L 92.041,-50.62 L 93.224,-48.406 L 90.983,-45.797 L 88.572,-43.496 L 89.812,-40.874 L 93.121,-41.278 L 96.559,-41.355 L 97.52,-39.035 L 95.034,-36.659 L 92.409,-34.605 L 93.386,-31.874 L 96.718,-31.951 L 100.148,-31.692 L 100.876,-29.288 L 98.169,-27.167 L 95.356,-25.38 L 96.061,-22.567 L 99.384,-22.317 L 102.772,-21.723 L 103.261,-19.26 L 100.36,-17.414 L 97.385,-15.912 L 97.81,-13.043 L 101.093,-12.469 L 104.406,-11.545 L 104.652,-9.046 L 101.583,-7.493 L 98.475,-6.29 L 98.618,-3.393 z"
         style="fill:none;stroke:#000000" />
    </g>
  </g>
</svg>
