<?xml version="1.0" encoding="UTF-8"?>
<svg xmlns="http://www.w3.org/2000/svg" xmlns:xlink="http://www.w3.org/1999/xlink" width="595.275586pt" height="841.889746pt" viewBox="0 0 595.275586 841.889746" version="1.2">
<g id="surface0">
<path style="fill:none;stroke-width:1;stroke-linecap:butt;stroke-linejoin:miter;stroke:rgb(0%,0%,0%);stroke-opacity:1;stroke-miterlimit:4;" d="M 50.919364 -5.784359 L 54.684013 -6.209164 L 58.287528 -5.740414 L 65.846122 -2.434749 L 65.846122 2.438297 L 58.287528 5.739079 L 54.684013 6.207829 L 50.919364 5.783024 L 49.259208 14.142399 L 52.896903 15.192204 L 56.046317 17.003727 L 61.764091 22.94611 L 59.898856 27.448063 L 51.651786 27.609196 L 48.145927 26.666813 L 44.830497 24.830876 L 40.094169 31.915836 L 43.058036 34.279118 L 45.274833 37.155094 L 48.282645 44.835758 L 44.83538 48.283024 L 37.154716 45.275211 L 34.278739 43.058415 L 31.915458 40.094547 L 24.830497 44.830876 L 26.666434 48.146305 L 27.608817 51.652165 L 27.447684 59.899235 L 22.945731 61.764469 L 17.003349 56.046696 L 15.191825 52.897282 L 14.14202 49.254704 L 5.782645 50.919743 L 6.212333 54.684391 L 5.7387 58.287907 L 2.437919 65.846501 L -2.435128 65.846501 L -5.740792 58.287907 L -6.209542 54.684391 L -5.784737 50.919743 L -14.144112 49.254704 L -15.189034 52.897282 L -17.000558 56.046696 L -22.947823 61.764469 L -27.449776 59.899235 L -27.610909 51.652165 L -26.663644 48.146305 L -24.827706 44.830876 L -31.91755 40.094547 L -34.275948 43.058415 L -37.156808 45.275211 L -44.837472 48.283024 L -48.279855 44.835758 L -45.272042 37.155094 L -43.060128 34.279118 L -40.096261 31.915836 L -44.832589 24.830876 L -48.148019 26.666813 L -51.653878 27.609196 L -59.900948 27.448063 L -61.766183 22.94611 L -56.048409 17.003727 L -52.898995 15.192204 L -49.256417 14.142399 L -50.921456 5.783024 L -54.686105 6.207829 L -58.284737 5.739079 L -65.843331 2.438297 L -65.843331 -2.434749 L -58.284737 -5.740414 L -54.686105 -6.209164 L -50.921456 -5.784359 L -49.256417 -14.143734 L -52.898995 -15.188656 L -56.048409 -17.000179 L -61.766183 -22.947445 L -59.900948 -27.449398 L -51.653878 -27.610531 L -48.148019 -26.663265 L -44.832589 -24.827328 L -40.096261 -31.917171 L -43.060128 -34.27557 L -45.272042 -37.156429 L -48.279855 -44.837093 L -44.837472 -48.284359 L -37.156808 -45.271664 L -34.275948 -43.059749 L -31.91755 -40.095882 L -24.827706 -44.83221 L -26.663644 -48.14764 L -27.610909 -51.653499 L -27.449776 -59.90057 L -22.947823 -61.765804 L -17.000558 -56.048031 L -15.189034 -52.898617 L -14.144112 -49.256039 L -5.784737 -50.921078 L -6.209542 -54.685726 L -5.740792 -58.289242 L -2.435128 -65.842953 L 2.437919 -65.842953 L 5.7387 -58.289242 L 6.212333 -54.685726 L 5.782645 -50.921078 L 14.14202 -49.256039 L 15.191825 -52.898617 L 17.003349 -56.048031 L 22.945731 -61.765804 L 27.447684 -59.90057 L 27.608817 -51.653499 L 26.666434 -48.14764 L 24.830497 -44.83221 L 31.915458 -40.095882 L 34.278739 -43.059749 L 37.154716 -45.271664 L 44.83538 -48.284359 L 48.282645 -44.837093 L 45.274833 -37.156429 L 43.058036 -34.27557 L 40.094169 -31.917171 L 44.830497 -24.827328 L 48.145927 -26.663265 L 51.651786 -27.610531 L 59.898856 -27.449398 L 61.764091 -22.947445 L 56.046317 -17.000179 L 52.896903 -15.188656 L 49.259208 -14.143734 Z M 50.919364 -5.784359 " transform="matrix(0.8,0,0,0.8,55.428571,55.60405)"/>
</g>
</svg>
