<?xml version="1.0" encoding="UTF-8" standalone="no"?>
<!-- Created with Inkscape (http://www.inkscape.org/) -->

<svg xmlns:dc="http://purl.org/dc/elements/1.1/" xmlns:cc="http://creativecommons.org/ns#" xmlns:rdf="http://www.w3.org/1999/02/22-rdf-syntax-ns#" xmlns:svg="http://www.w3.org/2000/svg" xmlns="http://www.w3.org/2000/svg" xmlns:sodipodi="http://sodipodi.sourceforge.net/DTD/sodipodi-0.dtd" xmlns:inkscape="http://www.inkscape.org/namespaces/inkscape" inkscape:version="0.47 r22583" version="1.1" id="svg3844" height="1052.3622047" width="744.09448819" sodipodi:docname="garagegearf.svg">
  <sodipodi:namedview id="base" pagecolor="#ffffff" bordercolor="#666666" borderopacity="1.0" inkscape:pageopacity="0.0" inkscape:pageshadow="2" inkscape:zoom="3.4441179" inkscape:cx="69.285714" inkscape:cy="982.85712" inkscape:document-units="px" inkscape:current-layer="layer1" showgrid="false" inkscape:window-width="1280" inkscape:window-height="725" inkscape:window-x="0" inkscape:window-y="24" inkscape:window-maximized="1" inkscape:snap-grids="true" inkscape:snap-to-guides="true" />
  <defs id="defs3846">
    <inkscape:perspective id="perspective3852" inkscape:persp3d-origin="372.04724 : 350.78739 : 1" inkscape:vp_z="744.09448 : 526.18109 : 1" inkscape:vp_y="0 : 1000 : 0" inkscape:vp_x="0 : 526.18109 : 1" sodipodi:type="inkscape:persp3d" />
  </defs>
  <metadata id="metadata3849">
    <rdf:RDF>
      <cc:Work rdf:about="">
        <dc:format>image/svg+xml</dc:format>
        <dc:type rdf:resource="http://purl.org/dc/dcmitype/StillImage" />
        <dc:title></dc:title>
      </cc:Work>
    </rdf:RDF>
  </metadata>
  <g id="layer1" inkscape:groupmode="layer" inkscape:label="Layer 1" style="display:inline">
    <path style="fill:#000000" d="M 66.942952,3.8750491 C 65.852501,6.5934312 64.373786,9.2228066 63.49649,11.986702 c 0.01109,2.268364 0.02273,4.536725 0.03485,6.805084 c -2.791775,0.466915 -5.736877,1.259622 -8.447374,1.515265 C 54.138291,17.259455 52.932972,14.193389 50.496183,12.017306 C 49.051015,10.691143 47.674055,9.1176032 46.064964,8.0579054 C 44.858609,8.8066446 42.896498,8.8429442 42.09987,10.090356 c -0.421019,3.459306 -0.480256,7.174036 0.573183,10.515997 c 0.510654,1.455183 1.260027,2.789651 2.012748,4.128537 c -2.4294,1.616983 -4.858054,3.235087 -7.285973,4.854291 C 35.439535,27.045358 33.108175,24.727509 30.010515,23.631015 C 28.145151,22.926706 26.275739,21.91678 24.361293,21.550112 c -0.97018,1.142995 -2.333278,2.04666 -3.094043,3.302733 c 1.707198,4.245073 3.046259,9.126958 7.050064,11.831767 c 2.209015,1.027459 -0.540912,2.697738 -1.041226,4.075179 c -0.920754,1.381405 -1.840276,2.763631 -2.760546,4.145358 c -2.976933,-1.925773 -6.404113,-2.968577 -9.962638,-2.830914 c -1.666777,0.129253 -3.586283,-0.303729 -5.0992741,0.489966 C 8.84729,43.830511 8.0864688,45.184849 7.8929981,46.547442 c 3.1246569,3.493498 6.3747649,7.393095 11.2089469,8.366795 c 0.991996,0.109968 1.36885,0.67201 0.857265,1.616408 c -0.452584,2.408536 -0.917731,4.814661 -1.386772,7.220041 c -2.556299,0.167538 -5.259591,-0.387963 -7.725838,0.226888 c -2.4081691,1.190775 -5.1050848,2.03698 -7.3451474,3.420635 c 0.4317771,1.487795 -0.6159988,3.895415 0.8561969,4.747799 c 2.4917234,0.929919 4.8259949,2.550871 7.4097015,3.067206 c 2.271389,0.01062 4.542776,0.02191 6.81416,0.03352 c 0.436272,2.773233 1.296337,5.734302 1.469898,8.402007 c -3.037842,1.131927 -6.249869,2.182805 -8.374786,4.79985 c -1.266454,1.383782 -2.8121846,2.659909 -3.8289922,4.19193 c 0.901603,1.270037 0.7119336,4.00936 2.4135352,4.237297 c 4.628761,0.0083 9.656878,0.431021 13.625222,-2.455079 c 1.489295,-0.631567 2.075623,2.516528 3.183592,3.46016 c 0.639299,1.21981 1.966481,2.49446 2.118384,3.73125 c -2.704614,1.95381 -4.876119,4.54286 -5.996053,7.73044 c -0.588903,1.66329 -1.576079,3.29814 -1.888767,4.99053 c 1.335962,0.81948 2.24864,3.35034 3.907258,2.95564 c 4.036794,-1.63116 8.768405,-2.9562 11.236315,-6.82093 c 1.008133,-2.30936 2.7061,0.45487 4.099836,0.98155 c 1.258647,0.96061 3.004128,1.77005 4.002746,2.8293 c -1.254373,2.59321 -2.712639,5.24505 -2.616164,8.22936 c 0.0192,2.22356 -0.147623,4.5657 0.211703,6.7146 c 1.621805,0.73252 3.785703,2.38432 5.335183,0.61699 c 3.161491,-2.69285 6.319278,-5.85941 7.186165,-10.05337 c 0.201053,-0.62033 0.423937,-1.45677 1.279355,-0.97993 c 2.53077,0.37316 5.03015,0.92603 7.54003,1.41545 c 0.189897,2.53506 -0.347131,5.21707 0.27121,7.66279 c 1.183513,2.41004 2.028647,5.1061 3.412607,7.34468 c 1.497344,-0.43076 3.913237,0.61591 4.775019,-0.85619 c 0.933206,-2.48927 2.543232,-4.82592 3.059547,-7.4097 c 0.01595,-2.25627 0.03286,-4.51254 0.05025,-6.7688 c 2.781934,-0.35575 5.584385,-1.45933 8.356639,-1.38823 c 0.995636,1.31713 0.90111,3.30964 1.941716,4.70004 c 1.765282,2.93711 4.416487,5.36742 7.177092,7.34041 c 1.401186,-0.47203 2.943677,-0.96856 4.128416,-1.79654 c -0.02538,-4.78366 0.539769,-10.01137 -2.435794,-14.13145 c -0.680885,-1.43781 2.395862,-1.97978 3.279624,-3.04457 c 1.279082,-0.68298 2.668519,-2.10349 3.928799,-2.3228 c 1.87634,2.81887 4.69977,5.01991 7.96648,6.17901 c 1.56413,0.53389 3.10692,1.45999 4.70004,1.72395 c 0.88831,-1.25715 2.94107,-2.18285 3.08625,-3.67221 c -1.68055,-4.33883 -3.31046,-9.25219 -7.45057,-11.798 c -1.22137,-0.81966 0.93259,-2.208616 1.2476,-3.250575 c 1.03357,-1.548315 2.05956,-3.101674 3.0895,-4.652396 c 3.03259,2.133066 6.70689,2.983388 10.37095,2.79462 c 1.51562,-0.37943 3.98772,0.811485 4.84551,-0.688685 c 0.24432,-1.233082 1.58322,-2.525494 1.18832,-3.784522 c -2.95363,-3.754587 -6.55192,-7.502197 -11.42346,-8.429226 c -1.17341,-0.571906 -0.15207,-2.24941 -0.15425,-3.230145 c 0.36783,-1.822197 0.72123,-3.647245 1.07974,-5.471285 c 2.63785,-0.209868 5.4332,0.326365 7.97885,-0.31996 c 2.26316,-1.120029 4.76901,-1.945198 6.88345,-3.245903 c -0.32594,-1.503415 0.96478,-3.922868 -0.51312,-4.789322 c -2.6442,-0.975364 -5.1363,-2.643681 -7.87074,-3.204379 c -2.15041,0.002 -4.30082,-0.0021 -6.45122,-0.0091 c -0.48657,-2.767455 -1.27215,-5.596783 -1.46082,-8.35664 c 2.47423,-1.0263 5.22657,-1.644868 7.19524,-3.647523 c 1.62103,-1.742678 3.89477,-3.260481 4.70004,-5.534799 c -0.0355,-1.420654 -0.92771,-2.812926 -1.65137,-3.946947 c -4.62839,-0.110977 -9.6615,-0.637928 -13.70016,2.120453 c -0.6735,0.455719 -1.41937,0.702125 -1.66614,-0.310645 c -1.44622,-2.118389 -2.85233,-4.271465 -4.28677,-6.400969 c 1.88903,-1.576801 3.95357,-2.990652 5.00854,-5.317036 c 1.22062,-2.455774 2.41004,-5.083732 3.0759,-7.685204 c -1.3338,-0.810603 -2.25101,-3.367914 -3.90355,-2.937289 c -4.25423,1.708148 -8.98846,3.268316 -11.56667,7.337907 c -0.84405,1.160222 -2.110174,-0.780173 -3.091586,-1.085128 c -1.612863,-1.052142 -3.208119,-2.130885 -4.81138,-3.197536 c 2.090419,-2.992224 2.991326,-6.584138 2.806814,-10.19853 c -0.27873,-1.577051 0.588328,-3.807436 -0.427772,-4.9872865 C 94.688367,9.3708494 92.793156,7.238216 91.527139,8.7219924 C 88.472145,11.589103 85.015797,14.464001 84.055461,18.755492 c -0.28787,1.052074 -0.646775,2.217357 -1.97801,1.39731 C 79.726469,19.707173 77.376854,19.254394 75.027387,18.800859 C 74.82418,16.147888 75.368947,13.337136 74.724474,10.77714 C 73.597245,8.5158653 72.771045,6.0091148 71.470599,3.893196 c -1.482502,0.067601 -3.125808,-0.353637 -4.527647,-0.018147 z" id="path4771" />
  </g>
  <g id="g3896" transform="translate(69.285714,69.505062)" inkscape:label="Gear16">
    <path id="path3898" d="m 50.921,-5.783 3.764,-0.427 3.602,0.469 7.558,3.305 0,4.872 -7.558,3.305 -3.602,0.469 -3.764,-0.427 -1.664,8.361 3.642,1.046 3.148,1.812 5.718,5.945 -1.864,4.502 -8.248,0.16 -3.507,-0.944 -3.314,-1.836 -4.737,7.088 2.965,2.36 2.214,2.879 3.008,7.681 -3.445,3.445 -7.681,-3.008 -2.879,-2.214 -2.36,-2.965 -7.088,4.737 1.836,3.314 0.944,3.507 -0.16,8.248 -4.502,1.864 -5.945,-5.718 -1.812,-3.148 -1.046,-3.642 -8.361,1.664 0.427,3.764 -0.469,3.602 -3.305,7.558 -4.872,0 -3.305,-7.558 -0.469,-3.602 0.427,-3.764 -8.361,-1.664 -1.046,3.642 -1.812,3.148 -5.945,5.718 -4.502,-1.864 -0.16,-8.248 0.944,-3.507 1.836,-3.314 -7.088,-4.737 -2.36,2.965 -2.879,2.214 -7.681,3.008 -3.445,-3.445 3.008,-7.681 2.214,-2.879 2.965,-2.36 -4.737,-7.088 -3.314,1.836 -3.507,0.944 -8.248,-0.16 -1.864,-4.502 5.718,-5.945 3.148,-1.812 3.642,-1.046 -1.664,-8.361 -3.764,0.427 -3.602,-0.469 -7.558,-3.305 0,-4.872 7.558,-3.305 3.602,-0.469 3.764,0.427 1.664,-8.361 -3.642,-1.046 -3.148,-1.812 -5.718,-5.945 1.864,-4.502 8.248,-0.16 3.507,0.944 3.314,1.836 4.737,-7.088 -2.965,-2.36 -2.214,-2.879 -3.008,-7.681 3.445,-3.445 7.681,3.008 2.879,2.214 2.36,2.965 7.088,-4.737 -1.836,-3.314 -0.944,-3.507 0.16,-8.248 4.502,-1.864 5.945,5.718 1.812,3.148 1.046,3.642 8.361,-1.664 -0.427,-3.764 0.469,-3.602 3.305,-7.558 4.872,0 3.305,7.558 0.469,3.602 -0.427,3.764 8.361,1.664 1.046,-3.642 1.812,-3.148 5.945,-5.718 4.502,1.864 0.16,8.248 -0.944,3.507 -1.836,3.314 7.088,4.737 2.36,-2.965 2.879,-2.214 7.681,-3.008 3.445,3.445 -3.008,7.681 -2.214,2.879 -2.965,2.36 4.737,7.088 3.314,-1.836 3.507,-0.944 8.248,0.16 1.864,4.502 -5.718,5.945 -3.148,1.812 -3.642,1.046 z" style="fill:none;stroke:#000000" />
  </g>
</svg>
