999
DXF created by Inkscape
0
SECTION
2
ENTITIES
0
LINE
8
2
62
4
10
14.371038
20
298.632090
30
0
11
15.433322
21
298.752599
31
0
0
LINE
8
2
62
4
10
15.433322
20
298.752599
30
0
11
16.449887
21
298.620236
31
0
0
LINE
8
2
62
4
10
16.449887
20
298.620236
30
0
11
18.582922
21
297.687492
31
0
0
LINE
8
2
62
4
10
18.582922
20
297.687492
30
0
11
18.582922
21
296.312505
31
0
0
LINE
8
2
62
4
10
18.582922
20
296.312505
30
0
11
16.449887
21
295.379761
31
0
0
LINE
8
2
62
4
10
16.449887
20
295.379761
30
0
11
15.433322
21
295.247399
31
0
0
LINE
8
2
62
4
10
15.433322
20
295.247399
30
0
11
14.371038
21
295.367908
31
0
0
LINE
8
2
62
4
10
14.371038
20
295.367908
30
0
11
13.901420
21
293.008248
31
0
0
LINE
8
2
62
4
10
13.901420
20
293.008248
30
0
11
14.929273
21
292.713043
31
0
0
LINE
8
2
62
4
10
14.929273
20
292.713043
30
0
11
15.817709
21
292.201656
31
0
0
LINE
8
2
62
4
10
15.817709
20
292.201656
30
0
11
17.431456
21
290.523845
31
0
0
LINE
8
2
62
4
10
17.431456
20
290.523845
30
0
11
16.905393
21
289.253281
31
0
0
LINE
8
2
62
4
10
16.905393
20
289.253281
30
0
11
14.577624
21
289.208125
31
0
0
LINE
8
2
62
4
10
14.577624
20
289.208125
30
0
11
13.587871
21
289.474543
31
0
0
LINE
8
2
62
4
10
13.587871
20
289.474543
30
0
11
12.652587
21
289.992703
31
0
0
LINE
8
2
62
4
10
12.652587
20
289.992703
30
0
11
11.315700
21
287.992312
31
0
0
LINE
8
2
62
4
10
11.315700
20
287.992312
30
0
11
12.152489
21
287.326268
31
0
0
LINE
8
2
62
4
10
12.152489
20
287.326268
30
0
11
12.777329
21
286.513750
31
0
0
LINE
8
2
62
4
10
12.777329
20
286.513750
30
0
11
13.626253
21
284.346001
31
0
0
LINE
8
2
62
4
10
13.626253
20
284.346001
30
0
11
12.653998
21
283.373745
31
0
0
LINE
8
2
62
4
10
12.653998
20
283.373745
30
0
11
10.486249
21
284.222670
31
0
0
LINE
8
2
62
4
10
10.486249
20
284.222670
30
0
11
9.673731
21
284.847510
31
0
0
LINE
8
2
62
4
10
9.673731
20
284.847510
30
0
11
9.007687
21
285.684299
31
0
0
LINE
8
2
62
4
10
9.007687
20
285.684299
30
0
11
7.007296
21
284.347412
31
0
0
LINE
8
2
62
4
10
7.007296
20
284.347412
30
0
11
7.525456
21
283.412128
31
0
0
LINE
8
2
62
4
10
7.525456
20
283.412128
30
0
11
7.791873
21
282.422374
31
0
0
LINE
8
2
62
4
10
7.791873
20
282.422374
30
0
11
7.746718
21
280.094605
31
0
0
LINE
8
2
62
4
10
7.746718
20
280.094605
30
0
11
6.476153
21
279.568543
31
0
0
LINE
8
2
62
4
10
6.476153
20
279.568543
30
0
11
4.798342
21
281.182290
31
0
0
LINE
8
2
62
4
10
4.798342
20
281.182290
30
0
11
4.286956
21
282.070725
31
0
0
LINE
8
2
62
4
10
4.286956
20
282.070725
30
0
11
3.991751
21
283.098579
31
0
0
LINE
8
2
62
4
10
3.991751
20
283.098579
30
0
11
1.632091
21
282.628961
31
0
0
LINE
8
2
62
4
10
1.632091
20
282.628961
30
0
11
1.752600
21
281.566676
31
0
0
LINE
8
2
62
4
10
1.752600
20
281.566676
30
0
11
1.620238
21
280.550112
31
0
0
LINE
8
2
62
4
10
1.620238
20
280.550112
30
0
11
0.687493
21
278.417076
31
0
0
LINE
8
2
62
4
10
0.687493
20
278.417076
30
0
11
-0.687493
21
278.417076
31
0
0
LINE
8
2
62
4
10
-0.687493
20
278.417076
30
0
11
-1.620238
21
280.550112
31
0
0
LINE
8
2
62
4
10
-1.620238
20
280.550112
30
0
11
-1.752600
21
281.566676
31
0
0
LINE
8
2
62
4
10
-1.752600
20
281.566676
30
0
11
-1.632091
21
282.628961
31
0
0
LINE
8
2
62
4
10
-1.632091
20
282.628961
30
0
11
-3.991751
21
283.098579
31
0
0
LINE
8
2
62
4
10
-3.991751
20
283.098579
30
0
11
-4.286956
21
282.070725
31
0
0
LINE
8
2
62
4
10
-4.286956
20
282.070725
30
0
11
-4.798342
21
281.182290
31
0
0
LINE
8
2
62
4
10
-4.798342
20
281.182290
30
0
11
-6.476153
21
279.568543
31
0
0
LINE
8
2
62
4
10
-6.476153
20
279.568543
30
0
11
-7.746718
21
280.094605
31
0
0
LINE
8
2
62
4
10
-7.746718
20
280.094605
30
0
11
-7.791873
21
282.422374
31
0
0
LINE
8
2
62
4
10
-7.791873
20
282.422374
30
0
11
-7.525456
21
283.412128
31
0
0
LINE
8
2
62
4
10
-7.525456
20
283.412128
30
0
11
-7.007296
21
284.347412
31
0
0
LINE
8
2
62
4
10
-7.007296
20
284.347412
30
0
11
-9.007687
21
285.684299
31
0
0
LINE
8
2
62
4
10
-9.007687
20
285.684299
30
0
11
-9.673731
21
284.847510
31
0
0
LINE
8
2
62
4
10
-9.673731
20
284.847510
30
0
11
-10.486249
21
284.222670
31
0
0
LINE
8
2
62
4
10
-10.486249
20
284.222670
30
0
11
-12.653998
21
283.373745
31
0
0
LINE
8
2
62
4
10
-12.653998
20
283.373745
30
0
11
-13.626253
21
284.346001
31
0
0
LINE
8
2
62
4
10
-13.626253
20
284.346001
30
0
11
-12.777329
21
286.513750
31
0
0
LINE
8
2
62
4
10
-12.777329
20
286.513750
30
0
11
-12.152489
21
287.326268
31
0
0
LINE
8
2
62
4
10
-12.152489
20
287.326268
30
0
11
-11.315700
21
287.992312
31
0
0
LINE
8
2
62
4
10
-11.315700
20
287.992312
30
0
11
-12.652587
21
289.992703
31
0
0
LINE
8
2
62
4
10
-12.652587
20
289.992703
30
0
11
-13.587871
21
289.474543
31
0
0
LINE
8
2
62
4
10
-13.587871
20
289.474543
30
0
11
-14.577624
21
289.208125
31
0
0
LINE
8
2
62
4
10
-14.577624
20
289.208125
30
0
11
-16.905393
21
289.253281
31
0
0
LINE
8
2
62
4
10
-16.905393
20
289.253281
30
0
11
-17.431456
21
290.523845
31
0
0
LINE
8
2
62
4
10
-17.431456
20
290.523845
30
0
11
-15.817709
21
292.201656
31
0
0
LINE
8
2
62
4
10
-15.817709
20
292.201656
30
0
11
-14.929273
21
292.713043
31
0
0
LINE
8
2
62
4
10
-14.929273
20
292.713043
30
0
11
-13.901420
21
293.008248
31
0
0
LINE
8
2
62
4
10
-13.901420
20
293.008248
30
0
11
-14.371038
21
295.367908
31
0
0
LINE
8
2
62
4
10
-14.371038
20
295.367908
30
0
11
-15.433322
21
295.247399
31
0
0
LINE
8
2
62
4
10
-15.433322
20
295.247399
30
0
11
-16.449887
21
295.379761
31
0
0
LINE
8
2
62
4
10
-16.449887
20
295.379761
30
0
11
-18.582922
21
296.312505
31
0
0
LINE
8
2
62
4
10
-18.582922
20
296.312505
30
0
11
-18.582922
21
297.687492
31
0
0
LINE
8
2
62
4
10
-18.582922
20
297.687492
30
0
11
-16.449887
21
298.620236
31
0
0
LINE
8
2
62
4
10
-16.449887
20
298.620236
30
0
11
-15.433322
21
298.752599
31
0
0
LINE
8
2
62
4
10
-15.433322
20
298.752599
30
0
11
-14.371038
21
298.632090
31
0
0
LINE
8
2
62
4
10
-14.371038
20
298.632090
30
0
11
-13.901420
21
300.991750
31
0
0
LINE
8
2
62
4
10
-13.901420
20
300.991750
30
0
11
-14.929273
21
301.286954
31
0
0
LINE
8
2
62
4
10
-14.929273
20
301.286954
30
0
11
-15.817709
21
301.798341
31
0
0
LINE
8
2
62
4
10
-15.817709
20
301.798341
30
0
11
-17.431456
21
303.476152
31
0
0
LINE
8
2
62
4
10
-17.431456
20
303.476152
30
0
11
-16.905393
21
304.746716
31
0
0
LINE
8
2
62
4
10
-16.905393
20
304.746716
30
0
11
-14.577624
21
304.791872
31
0
0
LINE
8
2
62
4
10
-14.577624
20
304.791872
30
0
11
-13.587871
21
304.525454
31
0
0
LINE
8
2
62
4
10
-13.587871
20
304.525454
30
0
11
-12.652587
21
304.007294
31
0
0
LINE
8
2
62
4
10
-12.652587
20
304.007294
30
0
11
-11.315700
21
306.007685
31
0
0
LINE
8
2
62
4
10
-11.315700
20
306.007685
30
0
11
-12.152489
21
306.673730
31
0
0
LINE
8
2
62
4
10
-12.152489
20
306.673730
30
0
11
-12.777329
21
307.486248
31
0
0
LINE
8
2
62
4
10
-12.777329
20
307.486248
30
0
11
-13.626253
21
309.653996
31
0
0
LINE
8
2
62
4
10
-13.626253
20
309.653996
30
0
11
-12.653998
21
310.626252
31
0
0
LINE
8
2
62
4
10
-12.653998
20
310.626252
30
0
11
-10.486249
21
309.777328
31
0
0
LINE
8
2
62
4
10
-10.486249
20
309.777328
30
0
11
-9.673731
21
309.152488
31
0
0
LINE
8
2
62
4
10
-9.673731
20
309.152488
30
0
11
-9.007687
21
308.315699
31
0
0
LINE
8
2
62
4
10
-9.007687
20
308.315699
30
0
11
-7.007296
21
309.652585
31
0
0
LINE
8
2
62
4
10
-7.007296
20
309.652585
30
0
11
-7.525456
21
310.587870
31
0
0
LINE
8
2
62
4
10
-7.525456
20
310.587870
30
0
11
-7.791873
21
311.577623
31
0
0
LINE
8
2
62
4
10
-7.791873
20
311.577623
30
0
11
-7.746718
21
313.905392
31
0
0
LINE
8
2
62
4
10
-7.746718
20
313.905392
30
0
11
-6.476153
21
314.431454
31
0
0
LINE
8
2
62
4
10
-6.476153
20
314.431454
30
0
11
-4.798342
21
312.817708
31
0
0
LINE
8
2
62
4
10
-4.798342
20
312.817708
30
0
11
-4.286956
21
311.929272
31
0
0
LINE
8
2
62
4
10
-4.286956
20
311.929272
30
0
11
-3.991751
21
310.901419
31
0
0
LINE
8
2
62
4
10
-3.991751
20
310.901419
30
0
11
-1.632091
21
311.371036
31
0
0
LINE
8
2
62
4
10
-1.632091
20
311.371036
30
0
11
-1.752600
21
312.433321
31
0
0
LINE
8
2
62
4
10
-1.752600
20
312.433321
30
0
11
-1.620238
21
313.449885
31
0
0
LINE
8
2
62
4
10
-1.620238
20
313.449885
30
0
11
-0.687493
21
315.582921
31
0
0
LINE
8
2
62
4
10
-0.687493
20
315.582921
30
0
11
0.687493
21
315.582921
31
0
0
LINE
8
2
62
4
10
0.687493
20
315.582921
30
0
11
1.620238
21
313.449885
31
0
0
LINE
8
2
62
4
10
1.620238
20
313.449885
30
0
11
1.752600
21
312.433321
31
0
0
LINE
8
2
62
4
10
1.752600
20
312.433321
30
0
11
1.632091
21
311.371036
31
0
0
LINE
8
2
62
4
10
1.632091
20
311.371036
30
0
11
3.991751
21
310.901419
31
0
0
LINE
8
2
62
4
10
3.991751
20
310.901419
30
0
11
4.286956
21
311.929272
31
0
0
LINE
8
2
62
4
10
4.286956
20
311.929272
30
0
11
4.798342
21
312.817708
31
0
0
LINE
8
2
62
4
10
4.798342
20
312.817708
30
0
11
6.476153
21
314.431454
31
0
0
LINE
8
2
62
4
10
6.476153
20
314.431454
30
0
11
7.746718
21
313.905392
31
0
0
LINE
8
2
62
4
10
7.746718
20
313.905392
30
0
11
7.791873
21
311.577623
31
0
0
LINE
8
2
62
4
10
7.791873
20
311.577623
30
0
11
7.525456
21
310.587870
31
0
0
LINE
8
2
62
4
10
7.525456
20
310.587870
30
0
11
7.007296
21
309.652585
31
0
0
LINE
8
2
62
4
10
7.007296
20
309.652585
30
0
11
9.007687
21
308.315699
31
0
0
LINE
8
2
62
4
10
9.007687
20
308.315699
30
0
11
9.673731
21
309.152488
31
0
0
LINE
8
2
62
4
10
9.673731
20
309.152488
30
0
11
10.486249
21
309.777328
31
0
0
LINE
8
2
62
4
10
10.486249
20
309.777328
30
0
11
12.653998
21
310.626252
31
0
0
LINE
8
2
62
4
10
12.653998
20
310.626252
30
0
11
13.626253
21
309.653996
31
0
0
LINE
8
2
62
4
10
13.626253
20
309.653996
30
0
11
12.777329
21
307.486248
31
0
0
LINE
8
2
62
4
10
12.777329
20
307.486248
30
0
11
12.152489
21
306.673730
31
0
0
LINE
8
2
62
4
10
12.152489
20
306.673730
30
0
11
11.315700
21
306.007685
31
0
0
LINE
8
2
62
4
10
11.315700
20
306.007685
30
0
11
12.652587
21
304.007294
31
0
0
LINE
8
2
62
4
10
12.652587
20
304.007294
30
0
11
13.587871
21
304.525454
31
0
0
LINE
8
2
62
4
10
13.587871
20
304.525454
30
0
11
14.577624
21
304.791872
31
0
0
LINE
8
2
62
4
10
14.577624
20
304.791872
30
0
11
16.905393
21
304.746716
31
0
0
LINE
8
2
62
4
10
16.905393
20
304.746716
30
0
11
17.431456
21
303.476152
31
0
0
LINE
8
2
62
4
10
17.431456
20
303.476152
30
0
11
15.817709
21
301.798341
31
0
0
LINE
8
2
62
4
10
15.817709
20
301.798341
30
0
11
14.929273
21
301.286954
31
0
0
LINE
8
2
62
4
10
14.929273
20
301.286954
30
0
11
13.901420
21
300.991750
31
0
0
LINE
8
2
62
4
10
13.901420
20
300.991750
30
0
11
14.371038
21
298.632090
31
0
0
LINE
8
2
62
4
10
14.371038
20
298.632090
30
0
11
14.371038
21
298.632090
31
0
0
ENDSEC
0
EOF

