<?xml version="1.0" encoding="UTF-8" standalone="no"?>
<!-- Created with Inkscape (http://www.inkscape.org/) -->

<svg xmlns:svg="http://www.w3.org/2000/svg" xmlns="http://www.w3.org/2000/svg" version="1.1" width="744.09448" height="1052.3622" id="svg3844">
  <defs id="defs3846" />
  <g id="layer1" style="display:inline" />
  <g transform="translate(69.285714,69.505062)" id="g3896">
    <path d="m 50.921,-5.783 l 3.764,-0.427 l 3.602,0.469 l 7.558,3.305 l 0,4.872 L 58.287,5.741 L 54.685,6.21 L 50.921,5.783 l -1.664,8.361 l 3.642,1.046 l 3.148,1.812 l 5.718,5.945 l -1.864,4.502 l -8.248,0.16 l -3.507,-0.944 l -3.314,-1.836 l -4.737,7.088 l 2.965,2.36 l 2.214,2.879 l 3.008,7.681 l -3.445,3.445 L 37.156,45.274 L 34.277,43.06 l -2.36,-2.965 l -7.088,4.737 l 1.836,3.314 l 0.944,3.507 l -0.16,8.248 l -4.502,1.864 L 17.002,56.047 L 15.19,52.899 l -1.046,-3.642 l -8.361,1.664 l 0.427,3.764 l -0.469,3.602 l -3.305,7.558 l -4.872,0 L -5.741,58.287 L -6.21,54.685 l 0.427,-3.764 l -8.361,-1.664 l -1.046,3.642 l -1.812,3.148 l -5.945,5.718 l -4.502,-1.864 l -0.16,-8.248 l 0.944,-3.507 l 1.836,-3.314 l -7.088,-4.737 l -2.36,2.965 l -2.879,2.214 l -7.681,3.008 l -3.445,-3.445 l 3.008,-7.681 l 2.214,-2.879 l 2.965,-2.36 l -4.737,-7.088 l -3.314,1.836 l -3.507,0.944 l -8.248,-0.16 l -1.864,-4.502 l 5.718,-5.945 l 3.148,-1.812 l 3.642,-1.046 l -1.664,-8.361 l -3.764,0.427 l -3.602,-0.469 l -7.558,-3.305 l 0,-4.872 l 7.558,-3.305 l 3.602,-0.469 l 3.764,0.427 l 1.664,-8.361 l -3.642,-1.046 l -3.148,-1.812 l -5.718,-5.945 l 1.864,-4.502 l 8.248,-0.16 l 3.507,0.944 l 3.314,1.836 l 4.737,-7.088 l -2.965,-2.36 l -2.214,-2.879 l -3.008,-7.681 l 3.445,-3.445 l 7.681,3.008 l 2.879,2.214 l 2.36,2.965 l 7.088,-4.737 l -1.836,-3.314 l -0.944,-3.507 l 0.16,-8.248 l 4.502,-1.864 l 5.945,5.718 l 1.812,3.148 l 1.046,3.642 l 8.361,-1.664 l -0.427,-3.764 l 0.469,-3.602 l 3.305,-7.558 l 4.872,0 l 3.305,7.558 l 0.469,3.602 l -0.427,3.764 l 8.361,1.664 l 1.046,-3.642 l 1.812,-3.148 l 5.945,-5.718 l 4.502,1.864 l 0.16,8.248 l -0.944,3.507 l -1.836,3.314 l 7.088,4.737 l 2.36,-2.965 l 2.879,-2.214 l 7.681,-3.008 l 3.445,3.445 l -3.008,7.681 l -2.214,2.879 l -2.965,2.36 l 4.737,7.088 l 3.314,-1.836 l 3.507,-0.944 l 8.248,0.16 l 1.864,4.502 l -5.718,5.945 l -3.148,1.812 l -3.642,1.046 z" id="path3898" style="fill:none;stroke:#000000" />
  </g>
</svg>
