<?xml version="1.0" encoding="UTF-8" standalone="no"?>
<!-- Created with Inkscape (http://www.inkscape.org/) -->

<svg
   xmlns:svg="http://www.w3.org/2000/svg"
   xmlns="http://www.w3.org/2000/svg"
   version="1.1"
   width="744.09448"
   height="1052.3622"
   id="svg3844">
  <defs
     id="defs3846" />
  <g
     id="layer1" />
  <g
     transform="translate(69.285714,69.505062)"
     id="g3896">
    <path
       d="m 50.921,-5.783 3.764,-0.427 3.602,0.469 7.558,3.305 0,4.872 -7.558,3.305 -3.602,0.469 -3.764,-0.427 -1.664,8.361 3.642,1.046 3.148,1.812 5.718,5.945 -1.864,4.502 -8.248,0.16 -3.507,-0.944 -3.314,-1.836 -4.737,7.088 2.965,2.36 2.214,2.879 3.008,7.681 -3.445,3.445 -7.681,-3.008 -2.879,-2.214 -2.36,-2.965 -7.088,4.737 1.836,3.314 0.944,3.507 -0.16,8.248 -4.502,1.864 -5.945,-5.718 -1.812,-3.148 -1.046,-3.642 -8.361,1.664 0.427,3.764 -0.469,3.602 -3.305,7.558 -4.872,0 -3.305,-7.558 -0.469,-3.602 0.427,-3.764 -8.361,-1.664 -1.046,3.642 -1.812,3.148 -5.945,5.718 -4.502,-1.864 -0.16,-8.248 0.944,-3.507 1.836,-3.314 -7.088,-4.737 -2.36,2.965 -2.879,2.214 -7.681,3.008 -3.445,-3.445 3.008,-7.681 2.214,-2.879 2.965,-2.36 -4.737,-7.088 -3.314,1.836 -3.507,0.944 -8.248,-0.16 -1.864,-4.502 5.718,-5.945 3.148,-1.812 3.642,-1.046 -1.664,-8.361 -3.764,0.427 -3.602,-0.469 -7.558,-3.305 0,-4.872 7.558,-3.305 3.602,-0.469 3.764,0.427 1.664,-8.361 -3.642,-1.046 -3.148,-1.812 -5.718,-5.945 1.864,-4.502 8.248,-0.16 3.507,0.944 3.314,1.836 4.737,-7.088 -2.965,-2.36 -2.214,-2.879 -3.008,-7.681 3.445,-3.445 7.681,3.008 2.879,2.214 2.36,2.965 7.088,-4.737 -1.836,-3.314 -0.944,-3.507 0.16,-8.248 4.502,-1.864 5.945,5.718 1.812,3.148 1.046,3.642 8.361,-1.664 -0.427,-3.764 0.469,-3.602 3.305,-7.558 4.872,0 3.305,7.558 0.469,3.602 -0.427,3.764 8.361,1.664 1.046,-3.642 1.812,-3.148 5.945,-5.718 4.502,1.864 0.16,8.248 -0.944,3.507 -1.836,3.314 7.088,4.737 2.36,-2.965 2.879,-2.214 7.681,-3.008 3.445,3.445 -3.008,7.681 -2.214,2.879 -2.965,2.36 4.737,7.088 3.314,-1.836 3.507,-0.944 8.248,0.16 1.864,4.502 -5.718,5.945 -3.148,1.812 -3.642,1.046 z"
       id="path3898"
       style="fill:none;stroke:#000000" />
  </g>
</svg>
