solid
  facet normal -1.000000 -0.000000 -0.000000
    outer loop
      vertex 0.000000 0.000000 -45.000000
      vertex 0.000000 0.000000 -30.000000
      vertex 0.000000 30.550000 -45.000000
    endloop
  endfacet
  facet normal -1.000000 0.000000 0.000000
    outer loop
      vertex 0.000000 30.550000 -45.000000
      vertex 0.000000 0.000000 -30.000000
      vertex 0.000000 30.550000 -30.000000
    endloop
  endfacet
  facet normal 0.000000 -1.000000 0.000000
    outer loop
      vertex 0.000000 0.000000 -30.000000
      vertex 0.000000 0.000000 -45.000000
      vertex 60.000000 0.000000 -45.000000
    endloop
  endfacet
  facet normal 0.000000 -1.000000 0.000000
    outer loop
      vertex 60.000000 0.000000 -30.000000
      vertex 0.000000 0.000000 -30.000000
      vertex 60.000000 0.000000 -45.000000
    endloop
  endfacet
  facet normal 0.000000 -0.000000 -1.000000
    outer loop
      vertex 28.408662 19.568664 -45.000000
      vertex 0.000000 30.550000 -45.000000
      vertex 60.000000 30.550000 -45.000000
    endloop
  endfacet
  facet normal 0.000000 -0.000000 -1.000000
    outer loop
      vertex 1.922556 14.832530 -45.000000
      vertex 0.000000 30.550000 -45.000000
      vertex 1.934584 14.916190 -45.000000
    endloop
  endfacet
  facet normal 0.000000 -0.000000 -1.000000
    outer loop
      vertex 0.000000 0.000000 -45.000000
      vertex 0.000000 30.550000 -45.000000
      vertex 1.922556 14.832530 -45.000000
    endloop
  endfacet
  facet normal 0.000000 0.000000 -1.000000
    outer loop
      vertex 5.875932 12.291849 -45.000000
      vertex 60.000000 0.000000 -45.000000
      vertex 4.124068 12.291849 -45.000000
    endloop
  endfacet
  facet normal 0.000000 0.000000 -1.000000
    outer loop
      vertex 0.000000 0.000000 -45.000000
      vertex 2.615195 13.315861 -45.000000
      vertex 2.650306 13.238979 -45.000000
    endloop
  endfacet
  facet normal 0.000000 0.000000 -1.000000
    outer loop
      vertex 0.000000 0.000000 -45.000000
      vertex 2.650306 13.238979 -45.000000
      vertex 4.052965 12.337544 -45.000000
    endloop
  endfacet
  facet normal 0.000000 0.000000 -1.000000
    outer loop
      vertex 0.000000 0.000000 -45.000000
      vertex 4.052965 12.337544 -45.000000
      vertex 4.124068 12.291849 -45.000000
    endloop
  endfacet
  facet normal -0.000000 0.000000 -1.000000
    outer loop
      vertex 0.000000 0.000000 -45.000000
      vertex 4.124068 12.291849 -45.000000
      vertex 60.000000 0.000000 -45.000000
    endloop
  endfacet
  facet normal 0.000000 0.000000 -1.000000
    outer loop
      vertex 7.278592 13.193284 -45.000000
      vertex 60.000000 0.000000 -45.000000
      vertex 5.875932 12.291849 -45.000000
    endloop
  endfacet
  facet normal 0.000000 0.000000 -1.000000
    outer loop
      vertex 8.042334 14.755648 -45.000000
      vertex 60.000000 0.000000 -45.000000
      vertex 7.349694 13.238979 -45.000000
    endloop
  endfacet
  facet normal -0.000000 0.000000 -1.000000
    outer loop
      vertex 7.278592 13.193284 -45.000000
      vertex 7.349694 13.238979 -45.000000
      vertex 60.000000 0.000000 -45.000000
    endloop
  endfacet
  facet normal 0.000000 0.000000 -1.000000
    outer loop
      vertex 23.734409 11.472620 -45.000000
      vertex 7.828128 16.566564 -45.000000
      vertex 22.426681 12.925000 -45.000000
    endloop
  endfacet
  facet normal -0.000000 -0.000000 -1.000000
    outer loop
      vertex 6.736251 17.826658 -45.000000
      vertex 0.000000 30.550000 -45.000000
      vertex 7.828128 16.566564 -45.000000
    endloop
  endfacet
  facet normal 0.000000 0.000000 -1.000000
    outer loop
      vertex 29.259591 11.472620 -45.000000
      vertex 60.000000 0.000000 -45.000000
      vertex 27.474185 10.677706 -45.000000
    endloop
  endfacet
  facet normal -0.000000 0.000000 -1.000000
    outer loop
      vertex 8.042334 14.755648 -45.000000
      vertex 8.077444 14.832530 -45.000000
      vertex 60.000000 0.000000 -45.000000
    endloop
  endfacet
  facet normal -0.000000 -0.000000 -1.000000
    outer loop
      vertex 5.081096 18.360279 -45.000000
      vertex 0.000000 30.550000 -45.000000
      vertex 6.680902 17.890534 -45.000000
    endloop
  endfacet
  facet normal 0.000000 0.000000 -1.000000
    outer loop
      vertex 27.474185 10.677706 -45.000000
      vertex 60.000000 0.000000 -45.000000
      vertex 25.519815 10.677706 -45.000000
    endloop
  endfacet
  facet normal 0.000000 0.000000 -1.000000
    outer loop
      vertex 25.519815 10.677706 -45.000000
      vertex 7.840157 16.482904 -45.000000
      vertex 23.734409 11.472620 -45.000000
    endloop
  endfacet
  facet normal -0.000000 -0.000000 -1.000000
    outer loop
      vertex 6.680902 17.890534 -45.000000
      vertex 0.000000 30.550000 -45.000000
      vertex 6.736251 17.826658 -45.000000
    endloop
  endfacet
  facet normal -0.000000 -0.000000 -1.000000
    outer loop
      vertex 5.000000 18.384091 -45.000000
      vertex 0.000000 30.550000 -45.000000
      vertex 5.081096 18.360279 -45.000000
    endloop
  endfacet
  facet normal 0.000000 -0.000000 -1.000000
    outer loop
      vertex 3.400194 17.914346 -45.000000
      vertex 0.000000 30.550000 -45.000000
      vertex 5.000000 18.384091 -45.000000
    endloop
  endfacet
  facet normal 0.000000 -0.000000 -1.000000
    outer loop
      vertex 3.319098 17.890534 -45.000000
      vertex 0.000000 30.550000 -45.000000
      vertex 3.400194 17.914346 -45.000000
    endloop
  endfacet
  facet normal 0.000000 -0.000000 -1.000000
    outer loop
      vertex 2.227220 16.630439 -45.000000
      vertex 0.000000 30.550000 -45.000000
      vertex 3.319098 17.890534 -45.000000
    endloop
  endfacet
  facet normal 0.000000 -0.000000 -1.000000
    outer loop
      vertex 2.171872 16.566564 -45.000000
      vertex 0.000000 30.550000 -45.000000
      vertex 2.227220 16.630439 -45.000000
    endloop
  endfacet
  facet normal 0.000000 -0.000000 -1.000000
    outer loop
      vertex 1.934584 14.916190 -45.000000
      vertex 0.000000 30.550000 -45.000000
      vertex 2.171872 16.566564 -45.000000
    endloop
  endfacet
  facet normal 0.000000 -0.000000 -1.000000
    outer loop
      vertex 7.828128 16.566564 -45.000000
      vertex 0.000000 30.550000 -45.000000
      vertex 22.027034 16.727380 -45.000000
    endloop
  endfacet
  facet normal -0.000000 0.000000 -1.000000
    outer loop
      vertex 7.828128 16.566564 -45.000000
      vertex 22.027034 16.727380 -45.000000
      vertex 21.822747 14.783716 -45.000000
    endloop
  endfacet
  facet normal 0.000000 0.000000 -1.000000
    outer loop
      vertex 7.828128 16.566564 -45.000000
      vertex 21.822747 14.783716 -45.000000
      vertex 22.426681 12.925000 -45.000000
    endloop
  endfacet
  facet normal -0.000000 -0.000000 -1.000000
    outer loop
      vertex 7.840157 16.482904 -45.000000
      vertex 7.828128 16.566564 -45.000000
      vertex 23.734409 11.472620 -45.000000
    endloop
  endfacet
  facet normal -0.000000 -0.000000 -1.000000
    outer loop
      vertex 8.077444 14.832530 -45.000000
      vertex 7.840157 16.482904 -45.000000
      vertex 25.519815 10.677706 -45.000000
    endloop
  endfacet
  facet normal 0.000000 0.000000 -1.000000
    outer loop
      vertex 8.077444 14.832530 -45.000000
      vertex 25.519815 10.677706 -45.000000
      vertex 60.000000 0.000000 -45.000000
    endloop
  endfacet
  facet normal 0.000000 0.000000 -1.000000
    outer loop
      vertex 54.052965 11.679769 -45.000000
      vertex 60.000000 0.000000 -45.000000
      vertex 52.650306 12.581204 -45.000000
    endloop
  endfacet
  facet normal 0.000000 0.000000 -1.000000
    outer loop
      vertex 30.567319 12.925000 -45.000000
      vertex 60.000000 0.000000 -45.000000
      vertex 29.259591 11.472620 -45.000000
    endloop
  endfacet
  facet normal 0.000000 0.000000 -1.000000
    outer loop
      vertex 31.171253 14.783716 -45.000000
      vertex 60.000000 0.000000 -45.000000
      vertex 30.567319 12.925000 -45.000000
    endloop
  endfacet
  facet normal 0.000000 -0.000000 -1.000000
    outer loop
      vertex 24.585338 19.568664 -45.000000
      vertex 0.000000 30.550000 -45.000000
      vertex 26.497000 19.975000 -45.000000
    endloop
  endfacet
  facet normal 0.000000 -0.000000 -1.000000
    outer loop
      vertex 53.400194 17.256571 -45.000000
      vertex 31.171253 14.783716 -45.000000
      vertex 60.000000 30.550000 -45.000000
    endloop
  endfacet
  facet normal 0.000000 -0.000000 -1.000000
    outer loop
      vertex 23.004219 18.419914 -45.000000
      vertex 0.000000 30.550000 -45.000000
      vertex 24.585338 19.568664 -45.000000
    endloop
  endfacet
  facet normal 0.000000 -0.000000 -1.000000
    outer loop
      vertex 31.171253 14.783716 -45.000000
      vertex 30.966966 16.727380 -45.000000
      vertex 60.000000 30.550000 -45.000000
    endloop
  endfacet
  facet normal 0.000000 -0.000000 -1.000000
    outer loop
      vertex 30.966966 16.727380 -45.000000
      vertex 29.989781 18.419914 -45.000000
      vertex 60.000000 30.550000 -45.000000
    endloop
  endfacet
  facet normal -0.000000 -0.000000 -1.000000
    outer loop
      vertex 26.497000 19.975000 -45.000000
      vertex 0.000000 30.550000 -45.000000
      vertex 28.408662 19.568664 -45.000000
    endloop
  endfacet
  facet normal 0.000000 -0.000000 -1.000000
    outer loop
      vertex 29.989781 18.419914 -45.000000
      vertex 28.408662 19.568664 -45.000000
      vertex 60.000000 30.550000 -45.000000
    endloop
  endfacet
  facet normal 0.000000 -0.000000 -1.000000
    outer loop
      vertex 22.027034 16.727380 -45.000000
      vertex 0.000000 30.550000 -45.000000
      vertex 23.004219 18.419914 -45.000000
    endloop
  endfacet
  facet normal 0.000000 -0.000000 -1.000000
    outer loop
      vertex 51.922556 14.174755 -45.000000
      vertex 31.171253 14.783716 -45.000000
      vertex 51.934584 14.258415 -45.000000
    endloop
  endfacet
  facet normal 0.000000 0.000000 -1.000000
    outer loop
      vertex 52.615195 12.658085 -45.000000
      vertex 31.171253 14.783716 -45.000000
      vertex 51.922556 14.174755 -45.000000
    endloop
  endfacet
  facet normal 0.000000 0.000000 -1.000000
    outer loop
      vertex 52.650306 12.581204 -45.000000
      vertex 31.171253 14.783716 -45.000000
      vertex 52.615195 12.658085 -45.000000
    endloop
  endfacet
  facet normal 0.000000 0.000000 -1.000000
    outer loop
      vertex 60.000000 0.000000 -45.000000
      vertex 31.171253 14.783716 -45.000000
      vertex 52.650306 12.581204 -45.000000
    endloop
  endfacet
  facet normal -0.000000 0.000000 -1.000000
    outer loop
      vertex 57.840157 15.825129 -45.000000
      vertex 60.000000 30.550000 -45.000000
      vertex 58.077444 14.174755 -45.000000
    endloop
  endfacet
  facet normal 0.000000 0.000000 -1.000000
    outer loop
      vertex 60.000000 0.000000 -45.000000
      vertex 54.052965 11.679769 -45.000000
      vertex 54.124068 11.634074 -45.000000
    endloop
  endfacet
  facet normal 0.000000 0.000000 -1.000000
    outer loop
      vertex 60.000000 0.000000 -45.000000
      vertex 54.124068 11.634074 -45.000000
      vertex 55.875932 11.634074 -45.000000
    endloop
  endfacet
  facet normal 0.000000 0.000000 -1.000000
    outer loop
      vertex 60.000000 0.000000 -45.000000
      vertex 55.875932 11.634074 -45.000000
      vertex 57.278592 12.535509 -45.000000
    endloop
  endfacet
  facet normal 0.000000 0.000000 -1.000000
    outer loop
      vertex 60.000000 0.000000 -45.000000
      vertex 57.278592 12.535509 -45.000000
      vertex 57.349694 12.581204 -45.000000
    endloop
  endfacet
  facet normal 0.000000 0.000000 -1.000000
    outer loop
      vertex 60.000000 0.000000 -45.000000
      vertex 57.349694 12.581204 -45.000000
      vertex 58.042334 14.097873 -45.000000
    endloop
  endfacet
  facet normal 0.000000 0.000000 -1.000000
    outer loop
      vertex 60.000000 0.000000 -45.000000
      vertex 58.042334 14.097873 -45.000000
      vertex 58.077444 14.174755 -45.000000
    endloop
  endfacet
  facet normal 0.000000 0.000000 -1.000000
    outer loop
      vertex 60.000000 0.000000 -45.000000
      vertex 58.077444 14.174755 -45.000000
      vertex 60.000000 30.550000 -45.000000
    endloop
  endfacet
  facet normal -0.000000 0.000000 -1.000000
    outer loop
      vertex 57.828128 15.908788 -45.000000
      vertex 60.000000 30.550000 -45.000000
      vertex 57.840157 15.825129 -45.000000
    endloop
  endfacet
  facet normal -0.000000 0.000000 -1.000000
    outer loop
      vertex 56.736251 17.168883 -45.000000
      vertex 60.000000 30.550000 -45.000000
      vertex 57.828128 15.908788 -45.000000
    endloop
  endfacet
  facet normal -0.000000 0.000000 -1.000000
    outer loop
      vertex 55.081096 17.702504 -45.000000
      vertex 60.000000 30.550000 -45.000000
      vertex 56.680902 17.232759 -45.000000
    endloop
  endfacet
  facet normal 0.000000 -0.000000 -1.000000
    outer loop
      vertex 56.736251 17.168883 -45.000000
      vertex 56.680902 17.232759 -45.000000
      vertex 60.000000 30.550000 -45.000000
    endloop
  endfacet
  facet normal 0.000000 0.000000 -1.000000
    outer loop
      vertex 53.400194 17.256571 -45.000000
      vertex 60.000000 30.550000 -45.000000
      vertex 55.000000 17.726316 -45.000000
    endloop
  endfacet
  facet normal 0.000000 -0.000000 -1.000000
    outer loop
      vertex 55.081096 17.702504 -45.000000
      vertex 55.000000 17.726316 -45.000000
      vertex 60.000000 30.550000 -45.000000
    endloop
  endfacet
  facet normal 0.000000 -0.000000 -1.000000
    outer loop
      vertex 53.319098 17.232759 -45.000000
      vertex 31.171253 14.783716 -45.000000
      vertex 53.400194 17.256571 -45.000000
    endloop
  endfacet
  facet normal 0.000000 -0.000000 -1.000000
    outer loop
      vertex 52.227220 15.972664 -45.000000
      vertex 31.171253 14.783716 -45.000000
      vertex 53.319098 17.232759 -45.000000
    endloop
  endfacet
  facet normal 0.000000 -0.000000 -1.000000
    outer loop
      vertex 52.171872 15.908788 -45.000000
      vertex 31.171253 14.783716 -45.000000
      vertex 52.227220 15.972664 -45.000000
    endloop
  endfacet
  facet normal 0.000000 -0.000000 -1.000000
    outer loop
      vertex 51.934584 14.258415 -45.000000
      vertex 31.171253 14.783716 -45.000000
      vertex 52.171872 15.908788 -45.000000
    endloop
  endfacet
  facet normal 0.000000 0.000000 -1.000000
    outer loop
      vertex 2.615195 13.315861 -45.000000
      vertex 0.000000 0.000000 -45.000000
      vertex 1.922556 14.832530 -45.000000
    endloop
  endfacet
  facet normal 0.000000 1.000000 0.000000
    outer loop
      vertex 0.000000 30.550000 -45.000000
      vertex 0.000000 30.550000 -30.000000
      vertex 60.000000 30.550000 -45.000000
    endloop
  endfacet
  facet normal 0.000000 1.000000 0.000000
    outer loop
      vertex 60.000000 30.550000 -45.000000
      vertex 0.000000 30.550000 -30.000000
      vertex 60.000000 30.550000 -30.000000
    endloop
  endfacet
  facet normal 0.000000 -0.000000 1.000000
    outer loop
      vertex 22.609500 8.541652 -30.000000
      vertex 0.000000 0.000000 -30.000000
      vertex 60.000000 0.000000 -30.000000
    endloop
  endfacet
  facet normal 0.000000 0.000000 1.000000
    outer loop
      vertex 7.487104 13.119913 -30.000000
      vertex 5.993949 12.160321 -30.000000
      vertex 0.000000 0.000000 -30.000000
    endloop
  endfacet
  facet normal 0.000000 -0.000000 1.000000
    outer loop
      vertex 1.742587 14.806655 -30.000000
      vertex 0.000000 0.000000 -30.000000
      vertex 1.775570 14.734432 -30.000000
    endloop
  endfacet
  facet normal 0.000000 -0.000000 1.000000
    outer loop
      vertex 0.000000 30.550000 -30.000000
      vertex 0.000000 0.000000 -30.000000
      vertex 1.742587 14.806655 -30.000000
    endloop
  endfacet
  facet normal 0.000000 0.000000 1.000000
    outer loop
      vertex 22.609500 8.541652 -30.000000
      vertex 8.246113 14.885244 -30.000000
      vertex 8.257413 14.806655 -30.000000
    endloop
  endfacet
  facet normal 0.000000 0.000000 1.000000
    outer loop
      vertex 0.000000 30.550000 -30.000000
      vertex 1.995184 16.563504 -30.000000
      vertex 2.006483 16.642094 -30.000000
    endloop
  endfacet
  facet normal 0.000000 0.000000 1.000000
    outer loop
      vertex 22.609500 8.541652 -30.000000
      vertex 7.993517 16.642094 -30.000000
      vertex 8.246113 14.885244 -30.000000
    endloop
  endfacet
  facet normal 0.000000 0.000000 1.000000
    outer loop
      vertex 0.000000 30.550000 -30.000000
      vertex 2.006483 16.642094 -30.000000
      vertex 3.168806 17.983485 -30.000000
    endloop
  endfacet
  facet normal 0.000000 -0.000000 1.000000
    outer loop
      vertex 58.257413 14.148880 -30.000000
      vertex 57.520086 12.534361 -30.000000
      vertex 60.000000 0.000000 -30.000000
    endloop
  endfacet
  facet normal 0.000000 0.000000 1.000000
    outer loop
      vertex 0.000000 30.550000 -30.000000
      vertex 3.168806 17.983485 -30.000000
      vertex 3.220800 18.043489 -30.000000
    endloop
  endfacet
  facet normal 0.000000 0.000000 1.000000
    outer loop
      vertex 0.000000 30.550000 -30.000000
      vertex 3.220800 18.043489 -30.000000
      vertex 4.923819 18.543540 -30.000000
    endloop
  endfacet
  facet normal 0.000000 0.000000 1.000000
    outer loop
      vertex 0.000000 30.550000 -30.000000
      vertex 4.923819 18.543540 -30.000000
      vertex 5.000000 18.565909 -30.000000
    endloop
  endfacet
  facet normal 0.000000 0.000000 1.000000
    outer loop
      vertex 0.000000 30.550000 -30.000000
      vertex 5.000000 18.565909 -30.000000
      vertex 6.703019 18.065858 -30.000000
    endloop
  endfacet
  facet normal 0.000000 0.000000 1.000000
    outer loop
      vertex 52.006483 15.984318 -30.000000
      vertex 53.168806 17.325710 -30.000000
      vertex 60.000000 30.550000 -30.000000
    endloop
  endfacet
  facet normal 0.000000 0.000000 1.000000
    outer loop
      vertex 0.000000 30.550000 -30.000000
      vertex 6.703019 18.065858 -30.000000
      vertex 6.779200 18.043489 -30.000000
    endloop
  endfacet
  facet normal 0.000000 -0.000000 1.000000
    outer loop
      vertex 34.272000 15.275000 -30.000000
      vertex 30.384500 8.541652 -30.000000
      vertex 60.000000 0.000000 -30.000000
    endloop
  endfacet
  facet normal 0.000000 0.000000 1.000000
    outer loop
      vertex 22.609500 8.541652 -30.000000
      vertex 6.779200 18.043489 -30.000000
      vertex 7.941522 16.702098 -30.000000
    endloop
  endfacet
  facet normal 0.000000 0.000000 1.000000
    outer loop
      vertex 22.609500 8.541652 -30.000000
      vertex 7.520086 13.192136 -30.000000
      vertex 7.487104 13.119913 -30.000000
    endloop
  endfacet
  facet normal 0.000000 0.000000 1.000000
    outer loop
      vertex 22.609500 8.541652 -30.000000
      vertex 8.257413 14.806655 -30.000000
      vertex 7.520086 13.192136 -30.000000
    endloop
  endfacet
  facet normal 0.000000 -0.000000 1.000000
    outer loop
      vertex 5.927156 12.117396 -30.000000
      vertex 0.000000 0.000000 -30.000000
      vertex 5.993949 12.160321 -30.000000
    endloop
  endfacet
  facet normal 0.000000 -0.000000 1.000000
    outer loop
      vertex 4.072844 12.117396 -30.000000
      vertex 0.000000 0.000000 -30.000000
      vertex 5.927156 12.117396 -30.000000
    endloop
  endfacet
  facet normal 0.000000 -0.000000 1.000000
    outer loop
      vertex 2.579690 13.076988 -30.000000
      vertex 0.000000 0.000000 -30.000000
      vertex 4.072844 12.117396 -30.000000
    endloop
  endfacet
  facet normal 0.000000 -0.000000 1.000000
    outer loop
      vertex 2.512896 13.119913 -30.000000
      vertex 0.000000 0.000000 -30.000000
      vertex 2.579690 13.076988 -30.000000
    endloop
  endfacet
  facet normal 0.000000 -0.000000 1.000000
    outer loop
      vertex 1.775570 14.734432 -30.000000
      vertex 0.000000 0.000000 -30.000000
      vertex 2.512896 13.119913 -30.000000
    endloop
  endfacet
  facet normal 0.000000 -0.000000 1.000000
    outer loop
      vertex 7.487104 13.119913 -30.000000
      vertex 0.000000 0.000000 -30.000000
      vertex 22.609500 8.541652 -30.000000
    endloop
  endfacet
  facet normal 0.000000 0.000000 1.000000
    outer loop
      vertex 0.000000 30.550000 -30.000000
      vertex 6.779200 18.043489 -30.000000
      vertex 18.722000 15.275000 -30.000000
    endloop
  endfacet
  facet normal 0.000000 0.000000 1.000000
    outer loop
      vertex 53.220800 17.385714 -30.000000
      vertex 54.923819 17.885765 -30.000000
      vertex 60.000000 30.550000 -30.000000
    endloop
  endfacet
  facet normal 0.000000 0.000000 1.000000
    outer loop
      vertex 60.000000 30.550000 -30.000000
      vertex 0.000000 30.550000 -30.000000
      vertex 22.609500 22.008348 -30.000000
    endloop
  endfacet
  facet normal -0.000000 -0.000000 1.000000
    outer loop
      vertex 52.579690 12.419213 -30.000000
      vertex 30.384500 22.008348 -30.000000
      vertex 60.000000 0.000000 -30.000000
    endloop
  endfacet
  facet normal 0.000000 0.000000 1.000000
    outer loop
      vertex 60.000000 30.550000 -30.000000
      vertex 22.609500 22.008348 -30.000000
      vertex 30.384500 22.008348 -30.000000
    endloop
  endfacet
  facet normal 0.000000 0.000000 1.000000
    outer loop
      vertex 30.384500 22.008348 -30.000000
      vertex 34.272000 15.275000 -30.000000
      vertex 60.000000 0.000000 -30.000000
    endloop
  endfacet
  facet normal 0.000000 0.000000 1.000000
    outer loop
      vertex 22.609500 8.541652 -30.000000
      vertex 7.941522 16.702098 -30.000000
      vertex 7.993517 16.642094 -30.000000
    endloop
  endfacet
  facet normal -0.000000 -0.000000 1.000000
    outer loop
      vertex 51.742587 14.148880 -30.000000
      vertex 30.384500 22.008348 -30.000000
      vertex 51.775570 14.076657 -30.000000
    endloop
  endfacet
  facet normal -0.000000 0.000000 1.000000
    outer loop
      vertex 51.995184 15.905729 -30.000000
      vertex 30.384500 22.008348 -30.000000
      vertex 51.742587 14.148880 -30.000000
    endloop
  endfacet
  facet normal -0.000000 0.000000 1.000000
    outer loop
      vertex 52.006483 15.984318 -30.000000
      vertex 30.384500 22.008348 -30.000000
      vertex 51.995184 15.905729 -30.000000
    endloop
  endfacet
  facet normal 0.000000 0.000000 1.000000
    outer loop
      vertex 60.000000 30.550000 -30.000000
      vertex 30.384500 22.008348 -30.000000
      vertex 52.006483 15.984318 -30.000000
    endloop
  endfacet
  facet normal 0.000000 0.000000 1.000000
    outer loop
      vertex 60.000000 30.550000 -30.000000
      vertex 53.168806 17.325710 -30.000000
      vertex 53.220800 17.385714 -30.000000
    endloop
  endfacet
  facet normal -0.000000 -0.000000 1.000000
    outer loop
      vertex 54.072844 11.459621 -30.000000
      vertex 52.579690 12.419213 -30.000000
      vertex 60.000000 0.000000 -30.000000
    endloop
  endfacet
  facet normal 0.000000 0.000000 1.000000
    outer loop
      vertex 60.000000 30.550000 -30.000000
      vertex 54.923819 17.885765 -30.000000
      vertex 55.000000 17.908134 -30.000000
    endloop
  endfacet
  facet normal 0.000000 0.000000 1.000000
    outer loop
      vertex 60.000000 30.550000 -30.000000
      vertex 55.000000 17.908134 -30.000000
      vertex 56.703019 17.408083 -30.000000
    endloop
  endfacet
  facet normal 0.000000 -0.000000 1.000000
    outer loop
      vertex 57.487104 12.462138 -30.000000
      vertex 55.993949 11.502546 -30.000000
      vertex 60.000000 0.000000 -30.000000
    endloop
  endfacet
  facet normal 0.000000 0.000000 1.000000
    outer loop
      vertex 60.000000 30.550000 -30.000000
      vertex 56.703019 17.408083 -30.000000
      vertex 56.779200 17.385714 -30.000000
    endloop
  endfacet
  facet normal 0.000000 0.000000 1.000000
    outer loop
      vertex 60.000000 30.550000 -30.000000
      vertex 56.779200 17.385714 -30.000000
      vertex 57.941522 16.044323 -30.000000
    endloop
  endfacet
  facet normal 0.000000 0.000000 1.000000
    outer loop
      vertex 60.000000 30.550000 -30.000000
      vertex 57.941522 16.044323 -30.000000
      vertex 57.993517 15.984318 -30.000000
    endloop
  endfacet
  facet normal 0.000000 0.000000 1.000000
    outer loop
      vertex 60.000000 30.550000 -30.000000
      vertex 57.993517 15.984318 -30.000000
      vertex 58.246113 14.227469 -30.000000
    endloop
  endfacet
  facet normal 0.000000 0.000000 1.000000
    outer loop
      vertex 60.000000 30.550000 -30.000000
      vertex 58.257413 14.148880 -30.000000
      vertex 60.000000 0.000000 -30.000000
    endloop
  endfacet
  facet normal 0.000000 0.000000 1.000000
    outer loop
      vertex 60.000000 30.550000 -30.000000
      vertex 58.246113 14.227469 -30.000000
      vertex 58.257413 14.148880 -30.000000
    endloop
  endfacet
  facet normal 0.000000 -0.000000 1.000000
    outer loop
      vertex 57.520086 12.534361 -30.000000
      vertex 57.487104 12.462138 -30.000000
      vertex 60.000000 0.000000 -30.000000
    endloop
  endfacet
  facet normal 0.000000 -0.000000 1.000000
    outer loop
      vertex 55.993949 11.502546 -30.000000
      vertex 55.927156 11.459621 -30.000000
      vertex 60.000000 0.000000 -30.000000
    endloop
  endfacet
  facet normal 0.000000 -0.000000 1.000000
    outer loop
      vertex 55.927156 11.459621 -30.000000
      vertex 54.072844 11.459621 -30.000000
      vertex 60.000000 0.000000 -30.000000
    endloop
  endfacet
  facet normal -0.000000 -0.000000 1.000000
    outer loop
      vertex 52.512896 12.462138 -30.000000
      vertex 30.384500 22.008348 -30.000000
      vertex 52.579690 12.419213 -30.000000
    endloop
  endfacet
  facet normal -0.000000 -0.000000 1.000000
    outer loop
      vertex 51.775570 14.076657 -30.000000
      vertex 30.384500 22.008348 -30.000000
      vertex 52.512896 12.462138 -30.000000
    endloop
  endfacet
  facet normal 0.000000 0.000000 1.000000
    outer loop
      vertex 1.742587 14.806655 -30.000000
      vertex 1.995184 16.563504 -30.000000
      vertex 0.000000 30.550000 -30.000000
    endloop
  endfacet
  facet normal 0.000000 0.000000 1.000000
    outer loop
      vertex 18.722000 15.275000 -30.000000
      vertex 22.609500 22.008348 -30.000000
      vertex 0.000000 30.550000 -30.000000
    endloop
  endfacet
  facet normal -0.000000 -0.000000 1.000000
    outer loop
      vertex 30.384500 8.541652 -30.000000
      vertex 22.609500 8.541652 -30.000000
      vertex 60.000000 0.000000 -30.000000
    endloop
  endfacet
  facet normal 0.000000 0.000000 1.000000
    outer loop
      vertex 22.609500 8.541652 -30.000000
      vertex 18.722000 15.275000 -30.000000
      vertex 6.779200 18.043489 -30.000000
    endloop
  endfacet
  facet normal 1.000000 0.000000 -0.000000
    outer loop
      vertex 60.000000 0.000000 -30.000000
      vertex 60.000000 0.000000 -45.000000
      vertex 60.000000 30.550000 -45.000000
    endloop
  endfacet
  facet normal 1.000000 0.000000 0.000000
    outer loop
      vertex 60.000000 30.550000 -30.000000
      vertex 60.000000 0.000000 -30.000000
      vertex 60.000000 30.550000 -45.000000
    endloop
  endfacet
  facet normal 0.989755 -0.142305 0.011629
    outer loop
      vertex 1.922556 14.832530 -45.000000
      vertex 1.934584 14.916190 -45.000000
      vertex 1.995184 16.563504 -30.000000
    endloop
  endfacet
  facet normal 0.989755 -0.142305 0.011629
    outer loop
      vertex 1.742587 14.806655 -30.000000
      vertex 1.922556 14.832530 -45.000000
      vertex 1.995184 16.563504 -30.000000
    endloop
  endfacet
  facet normal 0.989755 -0.142305 0.011629
    outer loop
      vertex 2.171872 16.566564 -45.000000
      vertex 2.006483 16.642094 -30.000000
      vertex 1.995184 16.563504 -30.000000
    endloop
  endfacet
  facet normal 0.989755 -0.142305 0.011629
    outer loop
      vertex 1.934584 14.916190 -45.000000
      vertex 2.171872 16.566564 -45.000000
      vertex 1.995184 16.563504 -30.000000
    endloop
  endfacet
  facet normal 0.755698 -0.654817 0.011629
    outer loop
      vertex 2.171872 16.566564 -45.000000
      vertex 2.227220 16.630439 -45.000000
      vertex 3.168806 17.983485 -30.000000
    endloop
  endfacet
  facet normal 0.755698 -0.654817 0.011629
    outer loop
      vertex 2.006483 16.642094 -30.000000
      vertex 2.171872 16.566564 -45.000000
      vertex 3.168806 17.983485 -30.000000
    endloop
  endfacet
  facet normal 0.755699 -0.654816 0.011629
    outer loop
      vertex 3.319098 17.890534 -45.000000
      vertex 3.220800 18.043489 -30.000000
      vertex 3.168806 17.983485 -30.000000
    endloop
  endfacet
  facet normal 0.755699 -0.654816 0.011629
    outer loop
      vertex 2.227220 16.630439 -45.000000
      vertex 3.319098 17.890534 -45.000000
      vertex 3.168806 17.983485 -30.000000
    endloop
  endfacet
  facet normal 0.281713 -0.959428 0.011629
    outer loop
      vertex 3.319098 17.890534 -45.000000
      vertex 3.400194 17.914346 -45.000000
      vertex 4.923819 18.543540 -30.000000
    endloop
  endfacet
  facet normal 0.281713 -0.959428 0.011629
    outer loop
      vertex 3.220800 18.043489 -30.000000
      vertex 3.319098 17.890534 -45.000000
      vertex 4.923819 18.543540 -30.000000
    endloop
  endfacet
  facet normal 0.281713 -0.959428 0.011629
    outer loop
      vertex 5.000000 18.384091 -45.000000
      vertex 5.000000 18.565909 -30.000000
      vertex 4.923819 18.543540 -30.000000
    endloop
  endfacet
  facet normal 0.281713 -0.959428 0.011629
    outer loop
      vertex 3.400194 17.914346 -45.000000
      vertex 5.000000 18.384091 -45.000000
      vertex 4.923819 18.543540 -30.000000
    endloop
  endfacet
  facet normal -0.281713 -0.959428 0.011629
    outer loop
      vertex 5.081096 18.360279 -45.000000
      vertex 6.703019 18.065858 -30.000000
      vertex 5.000000 18.565909 -30.000000
    endloop
  endfacet
  facet normal -0.281713 -0.959428 0.011629
    outer loop
      vertex 5.000000 18.384091 -45.000000
      vertex 5.081096 18.360279 -45.000000
      vertex 5.000000 18.565909 -30.000000
    endloop
  endfacet
  facet normal -0.281713 -0.959428 0.011629
    outer loop
      vertex 6.680902 17.890534 -45.000000
      vertex 6.779200 18.043489 -30.000000
      vertex 6.703019 18.065858 -30.000000
    endloop
  endfacet
  facet normal -0.281713 -0.959428 0.011629
    outer loop
      vertex 5.081096 18.360279 -45.000000
      vertex 6.680902 17.890534 -45.000000
      vertex 6.703019 18.065858 -30.000000
    endloop
  endfacet
  facet normal -0.755698 -0.654817 0.011629
    outer loop
      vertex 7.941522 16.702098 -30.000000
      vertex 6.779200 18.043489 -30.000000
      vertex 6.736251 17.826658 -45.000000
    endloop
  endfacet
  facet normal -0.755698 -0.654817 0.011629
    outer loop
      vertex 6.736251 17.826658 -45.000000
      vertex 6.779200 18.043489 -30.000000
      vertex 6.680902 17.890534 -45.000000
    endloop
  endfacet
  facet normal -0.755699 -0.654816 0.011629
    outer loop
      vertex 7.993517 16.642094 -30.000000
      vertex 7.941522 16.702098 -30.000000
      vertex 7.828128 16.566564 -45.000000
    endloop
  endfacet
  facet normal -0.755699 -0.654816 0.011629
    outer loop
      vertex 7.828128 16.566564 -45.000000
      vertex 7.941522 16.702098 -30.000000
      vertex 6.736251 17.826658 -45.000000
    endloop
  endfacet
  facet normal -0.989755 -0.142305 0.011629
    outer loop
      vertex 8.246113 14.885244 -30.000000
      vertex 7.993517 16.642094 -30.000000
      vertex 7.840157 16.482904 -45.000000
    endloop
  endfacet
  facet normal -0.989755 -0.142305 0.011629
    outer loop
      vertex 7.840157 16.482904 -45.000000
      vertex 7.993517 16.642094 -30.000000
      vertex 7.828128 16.566564 -45.000000
    endloop
  endfacet
  facet normal -0.989755 -0.142305 0.011629
    outer loop
      vertex 8.257413 14.806655 -30.000000
      vertex 8.246113 14.885244 -30.000000
      vertex 8.077444 14.832530 -45.000000
    endloop
  endfacet
  facet normal -0.989755 -0.142305 0.011629
    outer loop
      vertex 8.077444 14.832530 -45.000000
      vertex 8.246113 14.885244 -30.000000
      vertex 7.840157 16.482904 -45.000000
    endloop
  endfacet
  facet normal -0.909570 0.415387 0.011629
    outer loop
      vertex 8.077444 14.832530 -45.000000
      vertex 8.042334 14.755648 -45.000000
      vertex 8.257413 14.806655 -30.000000
    endloop
  endfacet
  facet normal -0.909570 0.415387 0.011629
    outer loop
      vertex 8.257413 14.806655 -30.000000
      vertex 8.042334 14.755648 -45.000000
      vertex 7.520086 13.192136 -30.000000
    endloop
  endfacet
  facet normal -0.909571 0.415387 0.011629
    outer loop
      vertex 7.520086 13.192136 -30.000000
      vertex 8.042334 14.755648 -45.000000
      vertex 7.487104 13.119913 -30.000000
    endloop
  endfacet
  facet normal -0.909571 0.415387 0.011629
    outer loop
      vertex 7.487104 13.119913 -30.000000
      vertex 8.042334 14.755648 -45.000000
      vertex 7.349694 13.238979 -45.000000
    endloop
  endfacet
  facet normal -0.540604 0.841197 0.011629
    outer loop
      vertex 7.349694 13.238979 -45.000000
      vertex 7.278592 13.193284 -45.000000
      vertex 7.487104 13.119913 -30.000000
    endloop
  endfacet
  facet normal -0.540604 0.841197 0.011629
    outer loop
      vertex 7.487104 13.119913 -30.000000
      vertex 7.278592 13.193284 -45.000000
      vertex 5.993949 12.160321 -30.000000
    endloop
  endfacet
  facet normal -0.540604 0.841197 0.011629
    outer loop
      vertex 5.993949 12.160321 -30.000000
      vertex 7.278592 13.193284 -45.000000
      vertex 5.927156 12.117396 -30.000000
    endloop
  endfacet
  facet normal -0.540604 0.841197 0.011629
    outer loop
      vertex 5.927156 12.117396 -30.000000
      vertex 7.278592 13.193284 -45.000000
      vertex 5.875932 12.291849 -45.000000
    endloop
  endfacet
  facet normal -0.000000 0.999932 0.011629
    outer loop
      vertex 5.875932 12.291849 -45.000000
      vertex 4.124068 12.291849 -45.000000
      vertex 5.927156 12.117396 -30.000000
    endloop
  endfacet
  facet normal -0.000000 0.999932 0.011629
    outer loop
      vertex 5.927156 12.117396 -30.000000
      vertex 4.124068 12.291849 -45.000000
      vertex 4.072844 12.117396 -30.000000
    endloop
  endfacet
  facet normal 0.540604 0.841197 0.011629
    outer loop
      vertex 4.124068 12.291849 -45.000000
      vertex 4.052965 12.337544 -45.000000
      vertex 4.072844 12.117396 -30.000000
    endloop
  endfacet
  facet normal 0.540604 0.841197 0.011629
    outer loop
      vertex 4.072844 12.117396 -30.000000
      vertex 4.052965 12.337544 -45.000000
      vertex 2.579690 13.076988 -30.000000
    endloop
  endfacet
  facet normal 0.540604 0.841197 0.011629
    outer loop
      vertex 4.052965 12.337544 -45.000000
      vertex 2.650306 13.238979 -45.000000
      vertex 2.579690 13.076988 -30.000000
    endloop
  endfacet
  facet normal 0.540604 0.841197 0.011629
    outer loop
      vertex 2.579690 13.076988 -30.000000
      vertex 2.650306 13.238979 -45.000000
      vertex 2.512896 13.119913 -30.000000
    endloop
  endfacet
  facet normal 0.909570 0.415387 0.011629
    outer loop
      vertex 2.512896 13.119913 -30.000000
      vertex 2.650306 13.238979 -45.000000
      vertex 2.615195 13.315861 -45.000000
    endloop
  endfacet
  facet normal 0.909570 0.415387 0.011629
    outer loop
      vertex 1.775570 14.734432 -30.000000
      vertex 2.512896 13.119913 -30.000000
      vertex 2.615195 13.315861 -45.000000
    endloop
  endfacet
  facet normal 0.909571 0.415387 0.011629
    outer loop
      vertex 1.775570 14.734432 -30.000000
      vertex 2.615195 13.315861 -45.000000
      vertex 1.922556 14.832530 -45.000000
    endloop
  endfacet
  facet normal 0.909571 0.415387 0.011629
    outer loop
      vertex 1.742587 14.806655 -30.000000
      vertex 1.775570 14.734432 -30.000000
      vertex 1.922556 14.832530 -45.000000
    endloop
  endfacet
  facet normal 0.866025 -0.500000 0.000000
    outer loop
      vertex 23.004219 18.419914 -45.000000
      vertex 23.004219 18.419914 -37.000000
      vertex 22.027034 16.727380 -37.000000
    endloop
  endfacet
  facet normal 0.866025 -0.500000 0.000000
    outer loop
      vertex 22.027034 16.727380 -45.000000
      vertex 23.004219 18.419914 -45.000000
      vertex 22.027034 16.727380 -37.000000
    endloop
  endfacet
  facet normal 0.994522 -0.104528 0.000000
    outer loop
      vertex 22.027034 16.727380 -45.000000
      vertex 22.027034 16.727380 -37.000000
      vertex 21.822747 14.783716 -37.000000
    endloop
  endfacet
  facet normal 0.994522 -0.104528 0.000000
    outer loop
      vertex 21.822747 14.783716 -45.000000
      vertex 22.027034 16.727380 -45.000000
      vertex 21.822747 14.783716 -37.000000
    endloop
  endfacet
  facet normal 0.587785 -0.809017 0.000000
    outer loop
      vertex 24.585338 19.568664 -45.000000
      vertex 24.585338 19.568664 -37.000000
      vertex 23.004219 18.419914 -37.000000
    endloop
  endfacet
  facet normal 0.587785 -0.809017 0.000000
    outer loop
      vertex 23.004219 18.419914 -45.000000
      vertex 24.585338 19.568664 -45.000000
      vertex 23.004219 18.419914 -37.000000
    endloop
  endfacet
  facet normal 0.207912 -0.978148 0.000000
    outer loop
      vertex 26.497000 19.975000 -45.000000
      vertex 26.497000 19.975000 -37.000000
      vertex 24.585338 19.568664 -37.000000
    endloop
  endfacet
  facet normal 0.207912 -0.978148 0.000000
    outer loop
      vertex 24.585338 19.568664 -45.000000
      vertex 26.497000 19.975000 -45.000000
      vertex 24.585338 19.568664 -37.000000
    endloop
  endfacet
  facet normal -0.207912 -0.978148 -0.000000
    outer loop
      vertex 28.408662 19.568664 -45.000000
      vertex 28.408662 19.568664 -37.000000
      vertex 26.497000 19.975000 -37.000000
    endloop
  endfacet
  facet normal -0.207912 -0.978148 -0.000000
    outer loop
      vertex 26.497000 19.975000 -45.000000
      vertex 28.408662 19.568664 -45.000000
      vertex 26.497000 19.975000 -37.000000
    endloop
  endfacet
  facet normal -0.587785 -0.809017 -0.000000
    outer loop
      vertex 29.989781 18.419914 -45.000000
      vertex 29.989781 18.419914 -37.000000
      vertex 28.408662 19.568664 -37.000000
    endloop
  endfacet
  facet normal -0.587785 -0.809017 -0.000000
    outer loop
      vertex 28.408662 19.568664 -45.000000
      vertex 29.989781 18.419914 -45.000000
      vertex 28.408662 19.568664 -37.000000
    endloop
  endfacet
  facet normal -0.866025 -0.500000 0.000000
    outer loop
      vertex 30.966966 16.727380 -37.000000
      vertex 29.989781 18.419914 -37.000000
      vertex 30.966966 16.727380 -45.000000
    endloop
  endfacet
  facet normal -0.866025 -0.500000 0.000000
    outer loop
      vertex 30.966966 16.727380 -45.000000
      vertex 29.989781 18.419914 -37.000000
      vertex 29.989781 18.419914 -45.000000
    endloop
  endfacet
  facet normal -0.994522 -0.104528 0.000000
    outer loop
      vertex 31.171253 14.783716 -37.000000
      vertex 30.966966 16.727380 -37.000000
      vertex 31.171253 14.783716 -45.000000
    endloop
  endfacet
  facet normal -0.994522 -0.104528 0.000000
    outer loop
      vertex 31.171253 14.783716 -45.000000
      vertex 30.966966 16.727380 -37.000000
      vertex 30.966966 16.727380 -45.000000
    endloop
  endfacet
  facet normal -0.951056 0.309017 0.000000
    outer loop
      vertex 31.171253 14.783716 -37.000000
      vertex 31.171253 14.783716 -45.000000
      vertex 30.567319 12.925000 -37.000000
    endloop
  endfacet
  facet normal -0.951056 0.309017 0.000000
    outer loop
      vertex 30.567319 12.925000 -37.000000
      vertex 31.171253 14.783716 -45.000000
      vertex 30.567319 12.925000 -45.000000
    endloop
  endfacet
  facet normal -0.743145 0.669130 0.000000
    outer loop
      vertex 30.567319 12.925000 -37.000000
      vertex 30.567319 12.925000 -45.000000
      vertex 29.259591 11.472620 -37.000000
    endloop
  endfacet
  facet normal -0.743145 0.669130 0.000000
    outer loop
      vertex 29.259591 11.472620 -37.000000
      vertex 30.567319 12.925000 -45.000000
      vertex 29.259591 11.472620 -45.000000
    endloop
  endfacet
  facet normal -0.406737 0.913545 0.000000
    outer loop
      vertex 29.259591 11.472620 -37.000000
      vertex 29.259591 11.472620 -45.000000
      vertex 27.474185 10.677706 -37.000000
    endloop
  endfacet
  facet normal -0.406737 0.913545 0.000000
    outer loop
      vertex 27.474185 10.677706 -37.000000
      vertex 29.259591 11.472620 -45.000000
      vertex 27.474185 10.677706 -45.000000
    endloop
  endfacet
  facet normal 0.000000 1.000000 0.000000
    outer loop
      vertex 27.474185 10.677706 -37.000000
      vertex 27.474185 10.677706 -45.000000
      vertex 25.519815 10.677706 -37.000000
    endloop
  endfacet
  facet normal 0.000000 1.000000 -0.000000
    outer loop
      vertex 25.519815 10.677706 -37.000000
      vertex 27.474185 10.677706 -45.000000
      vertex 25.519815 10.677706 -45.000000
    endloop
  endfacet
  facet normal 0.406737 0.913545 -0.000000
    outer loop
      vertex 25.519815 10.677706 -37.000000
      vertex 25.519815 10.677706 -45.000000
      vertex 23.734409 11.472620 -37.000000
    endloop
  endfacet
  facet normal 0.406737 0.913545 -0.000000
    outer loop
      vertex 23.734409 11.472620 -37.000000
      vertex 25.519815 10.677706 -45.000000
      vertex 23.734409 11.472620 -45.000000
    endloop
  endfacet
  facet normal 0.743145 0.669130 0.000000
    outer loop
      vertex 22.426681 12.925000 -37.000000
      vertex 23.734409 11.472620 -37.000000
      vertex 23.734409 11.472620 -45.000000
    endloop
  endfacet
  facet normal 0.743145 0.669130 0.000000
    outer loop
      vertex 22.426681 12.925000 -45.000000
      vertex 22.426681 12.925000 -37.000000
      vertex 23.734409 11.472620 -45.000000
    endloop
  endfacet
  facet normal 0.951056 0.309017 0.000000
    outer loop
      vertex 21.822747 14.783716 -37.000000
      vertex 22.426681 12.925000 -37.000000
      vertex 22.426681 12.925000 -45.000000
    endloop
  endfacet
  facet normal 0.951056 0.309017 0.000000
    outer loop
      vertex 21.822747 14.783716 -45.000000
      vertex 21.822747 14.783716 -37.000000
      vertex 22.426681 12.925000 -45.000000
    endloop
  endfacet
  facet normal 0.989755 -0.142305 0.011629
    outer loop
      vertex 51.922556 14.174755 -45.000000
      vertex 51.934584 14.258415 -45.000000
      vertex 51.995184 15.905729 -30.000000
    endloop
  endfacet
  facet normal 0.989755 -0.142305 0.011629
    outer loop
      vertex 51.742587 14.148880 -30.000000
      vertex 51.922556 14.174755 -45.000000
      vertex 51.995184 15.905729 -30.000000
    endloop
  endfacet
  facet normal 0.989755 -0.142305 0.011629
    outer loop
      vertex 52.171872 15.908788 -45.000000
      vertex 52.006483 15.984318 -30.000000
      vertex 51.995184 15.905729 -30.000000
    endloop
  endfacet
  facet normal 0.989755 -0.142305 0.011629
    outer loop
      vertex 51.934584 14.258415 -45.000000
      vertex 52.171872 15.908788 -45.000000
      vertex 51.995184 15.905729 -30.000000
    endloop
  endfacet
  facet normal 0.755698 -0.654817 0.011629
    outer loop
      vertex 52.171872 15.908788 -45.000000
      vertex 52.227220 15.972664 -45.000000
      vertex 53.168806 17.325710 -30.000000
    endloop
  endfacet
  facet normal 0.755698 -0.654817 0.011629
    outer loop
      vertex 52.006483 15.984318 -30.000000
      vertex 52.171872 15.908788 -45.000000
      vertex 53.168806 17.325710 -30.000000
    endloop
  endfacet
  facet normal 0.755699 -0.654816 0.011629
    outer loop
      vertex 53.319098 17.232759 -45.000000
      vertex 53.220800 17.385714 -30.000000
      vertex 53.168806 17.325710 -30.000000
    endloop
  endfacet
  facet normal 0.755699 -0.654816 0.011629
    outer loop
      vertex 52.227220 15.972664 -45.000000
      vertex 53.319098 17.232759 -45.000000
      vertex 53.168806 17.325710 -30.000000
    endloop
  endfacet
  facet normal 0.281713 -0.959428 0.011629
    outer loop
      vertex 53.319098 17.232759 -45.000000
      vertex 53.400194 17.256571 -45.000000
      vertex 54.923819 17.885765 -30.000000
    endloop
  endfacet
  facet normal 0.281713 -0.959428 0.011629
    outer loop
      vertex 53.220800 17.385714 -30.000000
      vertex 53.319098 17.232759 -45.000000
      vertex 54.923819 17.885765 -30.000000
    endloop
  endfacet
  facet normal 0.281713 -0.959428 0.011629
    outer loop
      vertex 55.000000 17.726316 -45.000000
      vertex 55.000000 17.908134 -30.000000
      vertex 54.923819 17.885765 -30.000000
    endloop
  endfacet
  facet normal 0.281713 -0.959428 0.011629
    outer loop
      vertex 53.400194 17.256571 -45.000000
      vertex 55.000000 17.726316 -45.000000
      vertex 54.923819 17.885765 -30.000000
    endloop
  endfacet
  facet normal -0.281713 -0.959428 0.011629
    outer loop
      vertex 55.081096 17.702504 -45.000000
      vertex 56.703019 17.408083 -30.000000
      vertex 55.000000 17.908134 -30.000000
    endloop
  endfacet
  facet normal -0.281713 -0.959428 0.011629
    outer loop
      vertex 55.000000 17.726316 -45.000000
      vertex 55.081096 17.702504 -45.000000
      vertex 55.000000 17.908134 -30.000000
    endloop
  endfacet
  facet normal -0.281713 -0.959428 0.011629
    outer loop
      vertex 56.680902 17.232759 -45.000000
      vertex 56.779200 17.385714 -30.000000
      vertex 56.703019 17.408083 -30.000000
    endloop
  endfacet
  facet normal -0.281713 -0.959428 0.011629
    outer loop
      vertex 55.081096 17.702504 -45.000000
      vertex 56.680902 17.232759 -45.000000
      vertex 56.703019 17.408083 -30.000000
    endloop
  endfacet
  facet normal -0.755698 -0.654817 0.011629
    outer loop
      vertex 57.941522 16.044323 -30.000000
      vertex 56.779200 17.385714 -30.000000
      vertex 56.736251 17.168883 -45.000000
    endloop
  endfacet
  facet normal -0.755698 -0.654817 0.011629
    outer loop
      vertex 56.736251 17.168883 -45.000000
      vertex 56.779200 17.385714 -30.000000
      vertex 56.680902 17.232759 -45.000000
    endloop
  endfacet
  facet normal -0.755699 -0.654816 0.011629
    outer loop
      vertex 57.993517 15.984318 -30.000000
      vertex 57.941522 16.044323 -30.000000
      vertex 57.828128 15.908788 -45.000000
    endloop
  endfacet
  facet normal -0.755699 -0.654816 0.011629
    outer loop
      vertex 57.828128 15.908788 -45.000000
      vertex 57.941522 16.044323 -30.000000
      vertex 56.736251 17.168883 -45.000000
    endloop
  endfacet
  facet normal -0.989755 -0.142305 0.011629
    outer loop
      vertex 58.246113 14.227469 -30.000000
      vertex 57.993517 15.984318 -30.000000
      vertex 57.840157 15.825129 -45.000000
    endloop
  endfacet
  facet normal -0.989755 -0.142305 0.011629
    outer loop
      vertex 57.840157 15.825129 -45.000000
      vertex 57.993517 15.984318 -30.000000
      vertex 57.828128 15.908788 -45.000000
    endloop
  endfacet
  facet normal -0.989755 -0.142305 0.011629
    outer loop
      vertex 58.257413 14.148880 -30.000000
      vertex 58.246113 14.227469 -30.000000
      vertex 58.077444 14.174755 -45.000000
    endloop
  endfacet
  facet normal -0.989755 -0.142305 0.011629
    outer loop
      vertex 58.077444 14.174755 -45.000000
      vertex 58.246113 14.227469 -30.000000
      vertex 57.840157 15.825129 -45.000000
    endloop
  endfacet
  facet normal -0.909570 0.415387 0.011629
    outer loop
      vertex 58.077444 14.174755 -45.000000
      vertex 58.042334 14.097873 -45.000000
      vertex 58.257413 14.148880 -30.000000
    endloop
  endfacet
  facet normal -0.909570 0.415387 0.011629
    outer loop
      vertex 58.257413 14.148880 -30.000000
      vertex 58.042334 14.097873 -45.000000
      vertex 57.520086 12.534361 -30.000000
    endloop
  endfacet
  facet normal -0.909571 0.415387 0.011629
    outer loop
      vertex 57.520086 12.534361 -30.000000
      vertex 58.042334 14.097873 -45.000000
      vertex 57.487104 12.462138 -30.000000
    endloop
  endfacet
  facet normal -0.909571 0.415387 0.011629
    outer loop
      vertex 57.487104 12.462138 -30.000000
      vertex 58.042334 14.097873 -45.000000
      vertex 57.349694 12.581204 -45.000000
    endloop
  endfacet
  facet normal -0.540604 0.841197 0.011629
    outer loop
      vertex 57.349694 12.581204 -45.000000
      vertex 57.278592 12.535509 -45.000000
      vertex 57.487104 12.462138 -30.000000
    endloop
  endfacet
  facet normal -0.540604 0.841197 0.011629
    outer loop
      vertex 57.487104 12.462138 -30.000000
      vertex 57.278592 12.535509 -45.000000
      vertex 55.993949 11.502546 -30.000000
    endloop
  endfacet
  facet normal -0.540604 0.841197 0.011629
    outer loop
      vertex 55.993949 11.502546 -30.000000
      vertex 57.278592 12.535509 -45.000000
      vertex 55.927156 11.459621 -30.000000
    endloop
  endfacet
  facet normal -0.540604 0.841197 0.011629
    outer loop
      vertex 55.927156 11.459621 -30.000000
      vertex 57.278592 12.535509 -45.000000
      vertex 55.875932 11.634074 -45.000000
    endloop
  endfacet
  facet normal -0.000000 0.999932 0.011629
    outer loop
      vertex 55.875932 11.634074 -45.000000
      vertex 54.124068 11.634074 -45.000000
      vertex 55.927156 11.459621 -30.000000
    endloop
  endfacet
  facet normal -0.000000 0.999932 0.011629
    outer loop
      vertex 55.927156 11.459621 -30.000000
      vertex 54.124068 11.634074 -45.000000
      vertex 54.072844 11.459621 -30.000000
    endloop
  endfacet
  facet normal 0.540604 0.841197 0.011629
    outer loop
      vertex 54.124068 11.634074 -45.000000
      vertex 54.052965 11.679769 -45.000000
      vertex 54.072844 11.459621 -30.000000
    endloop
  endfacet
  facet normal 0.540604 0.841197 0.011629
    outer loop
      vertex 54.072844 11.459621 -30.000000
      vertex 54.052965 11.679769 -45.000000
      vertex 52.579690 12.419213 -30.000000
    endloop
  endfacet
  facet normal 0.540604 0.841197 0.011629
    outer loop
      vertex 54.052965 11.679769 -45.000000
      vertex 52.650306 12.581204 -45.000000
      vertex 52.579690 12.419213 -30.000000
    endloop
  endfacet
  facet normal 0.540604 0.841197 0.011629
    outer loop
      vertex 52.579690 12.419213 -30.000000
      vertex 52.650306 12.581204 -45.000000
      vertex 52.512896 12.462138 -30.000000
    endloop
  endfacet
  facet normal 0.909570 0.415387 0.011629
    outer loop
      vertex 52.512896 12.462138 -30.000000
      vertex 52.650306 12.581204 -45.000000
      vertex 52.615195 12.658085 -45.000000
    endloop
  endfacet
  facet normal 0.909570 0.415387 0.011629
    outer loop
      vertex 51.775570 14.076657 -30.000000
      vertex 52.512896 12.462138 -30.000000
      vertex 52.615195 12.658085 -45.000000
    endloop
  endfacet
  facet normal 0.909571 0.415387 0.011629
    outer loop
      vertex 51.775570 14.076657 -30.000000
      vertex 52.615195 12.658085 -45.000000
      vertex 51.922556 14.174755 -45.000000
    endloop
  endfacet
  facet normal 0.909571 0.415387 0.011629
    outer loop
      vertex 51.742587 14.148880 -30.000000
      vertex 51.775570 14.076657 -30.000000
      vertex 51.922556 14.174755 -45.000000
    endloop
  endfacet
  facet normal 0.000000 1.000000 0.000000
    outer loop
      vertex 30.384500 8.541652 -37.000000
      vertex 22.609500 8.541652 -37.000000
      vertex 30.384500 8.541652 -30.000000
    endloop
  endfacet
  facet normal 0.000000 1.000000 0.000000
    outer loop
      vertex 30.384500 8.541652 -30.000000
      vertex 22.609500 8.541652 -37.000000
      vertex 22.609500 8.541652 -30.000000
    endloop
  endfacet
  facet normal 0.866025 0.500000 -0.000000
    outer loop
      vertex 22.609500 8.541652 -30.000000
      vertex 22.609500 8.541652 -37.000000
      vertex 18.722000 15.275000 -37.000000
    endloop
  endfacet
  facet normal 0.866025 0.500000 -0.000000
    outer loop
      vertex 18.722000 15.275000 -30.000000
      vertex 22.609500 8.541652 -30.000000
      vertex 18.722000 15.275000 -37.000000
    endloop
  endfacet
  facet normal -0.866025 0.500000 0.000000
    outer loop
      vertex 34.272000 15.275000 -37.000000
      vertex 30.384500 8.541652 -37.000000
      vertex 34.272000 15.275000 -30.000000
    endloop
  endfacet
  facet normal -0.866025 0.500000 0.000000
    outer loop
      vertex 34.272000 15.275000 -30.000000
      vertex 30.384500 8.541652 -37.000000
      vertex 30.384500 8.541652 -30.000000
    endloop
  endfacet
  facet normal -0.866025 -0.500000 -0.000000
    outer loop
      vertex 34.272000 15.275000 -37.000000
      vertex 34.272000 15.275000 -30.000000
      vertex 30.384500 22.008348 -37.000000
    endloop
  endfacet
  facet normal -0.866025 -0.500000 -0.000000
    outer loop
      vertex 30.384500 22.008348 -37.000000
      vertex 34.272000 15.275000 -30.000000
      vertex 30.384500 22.008348 -30.000000
    endloop
  endfacet
  facet normal -0.000000 -1.000000 0.000000
    outer loop
      vertex 22.609500 22.008348 -37.000000
      vertex 30.384500 22.008348 -37.000000
      vertex 30.384500 22.008348 -30.000000
    endloop
  endfacet
  facet normal 0.000000 -1.000000 0.000000
    outer loop
      vertex 22.609500 22.008348 -30.000000
      vertex 22.609500 22.008348 -37.000000
      vertex 30.384500 22.008348 -30.000000
    endloop
  endfacet
  facet normal 0.866025 -0.500000 0.000000
    outer loop
      vertex 18.722000 15.275000 -37.000000
      vertex 22.609500 22.008348 -37.000000
      vertex 22.609500 22.008348 -30.000000
    endloop
  endfacet
  facet normal 0.866025 -0.500000 0.000000
    outer loop
      vertex 18.722000 15.275000 -30.000000
      vertex 18.722000 15.275000 -37.000000
      vertex 22.609500 22.008348 -30.000000
    endloop
  endfacet
  facet normal 0.000000 -0.000000 1.000000
    outer loop
      vertex 30.567319 12.925000 -37.000000
      vertex 30.384500 8.541652 -37.000000
      vertex 34.272000 15.275000 -37.000000
    endloop
  endfacet
  facet normal 0.000000 -0.000000 1.000000
    outer loop
      vertex 31.171253 14.783716 -37.000000
      vertex 30.567319 12.925000 -37.000000
      vertex 34.272000 15.275000 -37.000000
    endloop
  endfacet
  facet normal 0.000000 0.000000 1.000000
    outer loop
      vertex 24.585338 19.568664 -37.000000
      vertex 26.497000 19.975000 -37.000000
      vertex 30.384500 22.008348 -37.000000
    endloop
  endfacet
  facet normal 0.000000 0.000000 1.000000
    outer loop
      vertex 18.722000 15.275000 -37.000000
      vertex 22.027034 16.727380 -37.000000
      vertex 22.609500 22.008348 -37.000000
    endloop
  endfacet
  facet normal 0.000000 0.000000 1.000000
    outer loop
      vertex 28.408662 19.568664 -37.000000
      vertex 29.989781 18.419914 -37.000000
      vertex 30.384500 22.008348 -37.000000
    endloop
  endfacet
  facet normal 0.000000 0.000000 1.000000
    outer loop
      vertex 22.609500 22.008348 -37.000000
      vertex 24.585338 19.568664 -37.000000
      vertex 30.384500 22.008348 -37.000000
    endloop
  endfacet
  facet normal 0.000000 0.000000 1.000000
    outer loop
      vertex 22.609500 22.008348 -37.000000
      vertex 23.004219 18.419914 -37.000000
      vertex 24.585338 19.568664 -37.000000
    endloop
  endfacet
  facet normal -0.000000 -0.000000 1.000000
    outer loop
      vertex 22.426681 12.925000 -37.000000
      vertex 21.822747 14.783716 -37.000000
      vertex 22.609500 8.541652 -37.000000
    endloop
  endfacet
  facet normal 0.000000 0.000000 1.000000
    outer loop
      vertex 26.497000 19.975000 -37.000000
      vertex 28.408662 19.568664 -37.000000
      vertex 30.384500 22.008348 -37.000000
    endloop
  endfacet
  facet normal 0.000000 -0.000000 1.000000
    outer loop
      vertex 30.384500 22.008348 -37.000000
      vertex 29.989781 18.419914 -37.000000
      vertex 34.272000 15.275000 -37.000000
    endloop
  endfacet
  facet normal 0.000000 0.000000 1.000000
    outer loop
      vertex 29.989781 18.419914 -37.000000
      vertex 30.966966 16.727380 -37.000000
      vertex 34.272000 15.275000 -37.000000
    endloop
  endfacet
  facet normal -0.000000 0.000000 1.000000
    outer loop
      vertex 23.734409 11.472620 -37.000000
      vertex 22.426681 12.925000 -37.000000
      vertex 22.609500 8.541652 -37.000000
    endloop
  endfacet
  facet normal 0.000000 0.000000 1.000000
    outer loop
      vertex 30.966966 16.727380 -37.000000
      vertex 31.171253 14.783716 -37.000000
      vertex 34.272000 15.275000 -37.000000
    endloop
  endfacet
  facet normal 0.000000 0.000000 1.000000
    outer loop
      vertex 29.259591 11.472620 -37.000000
      vertex 30.384500 8.541652 -37.000000
      vertex 30.567319 12.925000 -37.000000
    endloop
  endfacet
  facet normal 0.000000 0.000000 1.000000
    outer loop
      vertex 27.474185 10.677706 -37.000000
      vertex 30.384500 8.541652 -37.000000
      vertex 29.259591 11.472620 -37.000000
    endloop
  endfacet
  facet normal -0.000000 0.000000 1.000000
    outer loop
      vertex 25.519815 10.677706 -37.000000
      vertex 23.734409 11.472620 -37.000000
      vertex 22.609500 8.541652 -37.000000
    endloop
  endfacet
  facet normal 0.000000 0.000000 1.000000
    outer loop
      vertex 22.609500 8.541652 -37.000000
      vertex 30.384500 8.541652 -37.000000
      vertex 27.474185 10.677706 -37.000000
    endloop
  endfacet
  facet normal 0.000000 0.000000 1.000000
    outer loop
      vertex 18.722000 15.275000 -37.000000
      vertex 21.822747 14.783716 -37.000000
      vertex 22.027034 16.727380 -37.000000
    endloop
  endfacet
  facet normal 0.000000 0.000000 1.000000
    outer loop
      vertex 18.722000 15.275000 -37.000000
      vertex 22.609500 8.541652 -37.000000
      vertex 21.822747 14.783716 -37.000000
    endloop
  endfacet
  facet normal 0.000000 0.000000 1.000000
    outer loop
      vertex 22.027034 16.727380 -37.000000
      vertex 23.004219 18.419914 -37.000000
      vertex 22.609500 22.008348 -37.000000
    endloop
  endfacet
  facet normal 0.000000 0.000000 1.000000
    outer loop
      vertex 27.474185 10.677706 -37.000000
      vertex 25.519815 10.677706 -37.000000
      vertex 22.609500 8.541652 -37.000000
    endloop
  endfacet
endsolid
