solid
  facet normal -1.000000 0.000000 0.000000
    outer loop
      vertex 12.497000 -1.232656 47.368861
      vertex 12.497000 5.225000 45.000000
      vertex 12.497000 -34.775000 55.000000
    endloop
  endfacet
  facet normal -1.000000 0.000000 0.000000
    outer loop
      vertex 12.497000 -28.317344 47.368861
      vertex 12.497000 5.225000 45.000000
      vertex 12.497000 -34.775000 45.000000
    endloop
  endfacet
  facet normal -1.000000 0.000000 0.000000
    outer loop
      vertex 12.497000 5.225000 55.000000
      vertex 12.497000 5.225000 45.000000
      vertex 12.497000 2.149871 48.600000
    endloop
  endfacet
  facet normal -1.000000 0.000000 0.000000
    outer loop
      vertex 12.497000 5.225000 55.000000
      vertex 12.497000 2.149871 48.600000
      vertex 12.497000 2.482462 50.486215
    endloop
  endfacet
  facet normal -1.000000 0.000000 0.000000
    outer loop
      vertex 12.497000 5.225000 55.000000
      vertex 12.497000 2.482462 50.486215
      vertex 12.497000 1.524805 52.144924
    endloop
  endfacet
  facet normal -1.000000 0.000000 0.000000
    outer loop
      vertex 12.497000 5.225000 55.000000
      vertex 12.497000 1.524805 52.144924
      vertex 12.497000 0.665959 52.457519
    endloop
  endfacet
  facet normal -1.000000 0.000000 0.000000
    outer loop
      vertex 12.497000 5.225000 55.000000
      vertex 12.497000 0.665959 52.457519
      vertex 12.497000 -0.275000 53.398478
    endloop
  endfacet
  facet normal -1.000000 0.000000 0.000000
    outer loop
      vertex 12.497000 5.225000 55.000000
      vertex 12.497000 -0.275000 53.398478
      vertex 12.497000 -34.775000 55.000000
    endloop
  endfacet
  facet normal -1.000000 0.000000 -0.000000
    outer loop
      vertex 12.497000 -2.074805 52.144924
      vertex 12.497000 -34.775000 55.000000
      vertex 12.497000 -1.215959 52.457519
    endloop
  endfacet
  facet normal -1.000000 0.000000 -0.000000
    outer loop
      vertex 12.497000 -3.032462 50.486215
      vertex 12.497000 -34.775000 55.000000
      vertex 12.497000 -2.074805 52.144924
    endloop
  endfacet
  facet normal -1.000000 0.000000 0.000000
    outer loop
      vertex 12.497000 -2.699871 48.600000
      vertex 12.497000 -34.775000 55.000000
      vertex 12.497000 -3.032462 50.486215
    endloop
  endfacet
  facet normal -1.000000 0.000000 0.000000
    outer loop
      vertex 12.497000 -29.275000 53.398478
      vertex 12.497000 -27.475195 52.144924
      vertex 12.497000 -28.334041 52.457519
    endloop
  endfacet
  facet normal -1.000000 0.000000 0.000000
    outer loop
      vertex 12.497000 0.682656 47.368861
      vertex 12.497000 5.225000 45.000000
      vertex 12.497000 -1.232656 47.368861
    endloop
  endfacet
  facet normal -1.000000 0.000000 0.000000
    outer loop
      vertex 12.497000 -2.699871 48.600000
      vertex 12.497000 -1.232656 47.368861
      vertex 12.497000 -34.775000 55.000000
    endloop
  endfacet
  facet normal -1.000000 0.000000 0.000000
    outer loop
      vertex 12.497000 2.149871 48.600000
      vertex 12.497000 5.225000 45.000000
      vertex 12.497000 0.682656 47.368861
    endloop
  endfacet
  facet normal -1.000000 0.000000 0.000000
    outer loop
      vertex 12.497000 -26.517538 50.486215
      vertex 12.497000 5.225000 45.000000
      vertex 12.497000 -26.850129 48.600000
    endloop
  endfacet
  facet normal -1.000000 0.000000 0.000000
    outer loop
      vertex 12.497000 -27.475195 52.144924
      vertex 12.497000 5.225000 45.000000
      vertex 12.497000 -26.517538 50.486215
    endloop
  endfacet
  facet normal -1.000000 0.000000 0.000000
    outer loop
      vertex 12.497000 -29.275000 53.398478
      vertex 12.497000 5.225000 45.000000
      vertex 12.497000 -27.475195 52.144924
    endloop
  endfacet
  facet normal -1.000000 0.000000 0.000000
    outer loop
      vertex 12.497000 -34.775000 55.000000
      vertex 12.497000 5.225000 45.000000
      vertex 12.497000 -29.275000 53.398478
    endloop
  endfacet
  facet normal -1.000000 0.000000 -0.000000
    outer loop
      vertex 12.497000 -30.215959 52.457519
      vertex 12.497000 -34.775000 55.000000
      vertex 12.497000 -29.275000 53.398478
    endloop
  endfacet
  facet normal -1.000000 0.000000 -0.000000
    outer loop
      vertex 12.497000 -32.032462 50.486215
      vertex 12.497000 -34.775000 55.000000
      vertex 12.497000 -31.074805 52.144924
    endloop
  endfacet
  facet normal -1.000000 0.000000 0.000000
    outer loop
      vertex 12.497000 -34.775000 55.000000
      vertex 12.497000 -30.215959 52.457519
      vertex 12.497000 -31.074805 52.144924
    endloop
  endfacet
  facet normal -1.000000 0.000000 0.000000
    outer loop
      vertex 12.497000 -28.317344 47.368861
      vertex 12.497000 -34.775000 45.000000
      vertex 12.497000 -30.232656 47.368861
    endloop
  endfacet
  facet normal -1.000000 0.000000 0.000000
    outer loop
      vertex 12.497000 -34.775000 55.000000
      vertex 12.497000 -32.032462 50.486215
      vertex 12.497000 -34.775000 45.000000
    endloop
  endfacet
  facet normal -1.000000 0.000000 0.000000
    outer loop
      vertex 12.497000 -32.032462 50.486215
      vertex 12.497000 -31.699871 48.600000
      vertex 12.497000 -34.775000 45.000000
    endloop
  endfacet
  facet normal -1.000000 0.000000 0.000000
    outer loop
      vertex 12.497000 -31.699871 48.600000
      vertex 12.497000 -30.232656 47.368861
      vertex 12.497000 -34.775000 45.000000
    endloop
  endfacet
  facet normal -1.000000 0.000000 0.000000
    outer loop
      vertex 12.497000 -26.850129 48.600000
      vertex 12.497000 5.225000 45.000000
      vertex 12.497000 -28.317344 47.368861
    endloop
  endfacet
  facet normal -1.000000 0.000000 -0.000000
    outer loop
      vertex 12.497000 -1.215959 52.457519
      vertex 12.497000 -34.775000 55.000000
      vertex 12.497000 -0.275000 53.398478
    endloop
  endfacet
  facet normal 0.000000 1.000000 -0.000000
    outer loop
      vertex 12.497000 5.225000 55.000000
      vertex 24.497000 5.225000 55.000000
      vertex 12.497000 5.225000 45.000000
    endloop
  endfacet
  facet normal 0.000000 1.000000 -0.000000
    outer loop
      vertex 12.497000 5.225000 45.000000
      vertex 24.497000 5.225000 55.000000
      vertex 24.497000 5.225000 45.000000
    endloop
  endfacet
  facet normal -0.000000 0.000000 1.000000
    outer loop
      vertex 17.350931 -15.769695 55.000000
      vertex 12.497000 5.225000 55.000000
      vertex 12.497000 -34.775000 55.000000
    endloop
  endfacet
  facet normal -0.000000 0.000000 1.000000
    outer loop
      vertex 18.613914 -10.031905 55.000000
      vertex 19.817841 -8.448165 55.000000
      vertex 24.497000 5.225000 55.000000
    endloop
  endfacet
  facet normal -0.000000 0.000000 1.000000
    outer loop
      vertex 24.497000 -34.775000 55.000000
      vertex 24.497000 -23.711757 55.000000
      vertex 12.497000 -34.775000 55.000000
    endloop
  endfacet
  facet normal -0.000000 0.000000 1.000000
    outer loop
      vertex 24.497000 -23.711757 55.000000
      vertex 23.091729 -23.321586 55.000000
      vertex 12.497000 -34.775000 55.000000
    endloop
  endfacet
  facet normal -0.000000 0.000000 1.000000
    outer loop
      vertex 23.091729 -23.321586 55.000000
      vertex 21.334079 -22.389739 55.000000
      vertex 12.497000 -34.775000 55.000000
    endloop
  endfacet
  facet normal -0.000000 0.000000 1.000000
    outer loop
      vertex 21.334079 -22.389739 55.000000
      vertex 19.817841 -21.101835 55.000000
      vertex 12.497000 -34.775000 55.000000
    endloop
  endfacet
  facet normal -0.000000 0.000000 1.000000
    outer loop
      vertex 19.817841 -21.101835 55.000000
      vertex 18.613914 -19.518095 55.000000
      vertex 12.497000 -34.775000 55.000000
    endloop
  endfacet
  facet normal -0.000000 0.000000 1.000000
    outer loop
      vertex 18.613914 -19.518095 55.000000
      vertex 17.778591 -17.712574 55.000000
      vertex 12.497000 -34.775000 55.000000
    endloop
  endfacet
  facet normal -0.000000 0.000000 1.000000
    outer loop
      vertex 17.350931 -13.780305 55.000000
      vertex 12.497000 5.225000 55.000000
      vertex 17.350931 -15.769695 55.000000
    endloop
  endfacet
  facet normal -0.000000 0.000000 1.000000
    outer loop
      vertex 17.778591 -11.837426 55.000000
      vertex 12.497000 5.225000 55.000000
      vertex 17.350931 -13.780305 55.000000
    endloop
  endfacet
  facet normal -0.000000 0.000000 1.000000
    outer loop
      vertex 24.497000 5.225000 55.000000
      vertex 12.497000 5.225000 55.000000
      vertex 17.778591 -11.837426 55.000000
    endloop
  endfacet
  facet normal -0.000000 0.000000 1.000000
    outer loop
      vertex 24.497000 5.225000 55.000000
      vertex 17.778591 -11.837426 55.000000
      vertex 18.613914 -10.031905 55.000000
    endloop
  endfacet
  facet normal -0.000000 0.000000 1.000000
    outer loop
      vertex 21.334079 -7.160261 55.000000
      vertex 23.091729 -6.228414 55.000000
      vertex 24.497000 5.225000 55.000000
    endloop
  endfacet
  facet normal -0.000000 0.000000 1.000000
    outer loop
      vertex 23.091729 -6.228414 55.000000
      vertex 24.497000 -5.838243 55.000000
      vertex 24.497000 5.225000 55.000000
    endloop
  endfacet
  facet normal -0.000000 0.000000 1.000000
    outer loop
      vertex 17.778591 -17.712574 55.000000
      vertex 17.350931 -15.769695 55.000000
      vertex 12.497000 -34.775000 55.000000
    endloop
  endfacet
  facet normal -0.000000 0.000000 1.000000
    outer loop
      vertex 19.817841 -8.448165 55.000000
      vertex 21.334079 -7.160261 55.000000
      vertex 24.497000 5.225000 55.000000
    endloop
  endfacet
  facet normal 0.000000 -1.000000 0.000000
    outer loop
      vertex 24.497000 -34.775000 55.000000
      vertex 12.497000 -34.775000 55.000000
      vertex 12.497000 -34.775000 45.000000
    endloop
  endfacet
  facet normal 0.000000 -1.000000 0.000000
    outer loop
      vertex 24.497000 -34.775000 45.000000
      vertex 24.497000 -34.775000 55.000000
      vertex 12.497000 -34.775000 45.000000
    endloop
  endfacet
  facet normal 0.000000 0.000000 -1.000000
    outer loop
      vertex 17.350931 -15.769695 45.000000
      vertex 12.497000 -34.775000 45.000000
      vertex 17.350931 -13.780305 45.000000
    endloop
  endfacet
  facet normal 0.000000 -0.000000 -1.000000
    outer loop
      vertex 23.091729 -6.228414 45.000000
      vertex 24.497000 5.225000 45.000000
      vertex 24.497000 -5.838243 45.000000
    endloop
  endfacet
  facet normal 0.000000 -0.000000 -1.000000
    outer loop
      vertex 21.334079 -7.160261 45.000000
      vertex 24.497000 5.225000 45.000000
      vertex 23.091729 -6.228414 45.000000
    endloop
  endfacet
  facet normal -0.000000 -0.000000 -1.000000
    outer loop
      vertex 12.497000 5.225000 45.000000
      vertex 24.497000 5.225000 45.000000
      vertex 19.817841 -8.448165 45.000000
    endloop
  endfacet
  facet normal 0.000000 -0.000000 -1.000000
    outer loop
      vertex 12.497000 5.225000 45.000000
      vertex 19.817841 -8.448165 45.000000
      vertex 18.613914 -10.031905 45.000000
    endloop
  endfacet
  facet normal 0.000000 -0.000000 -1.000000
    outer loop
      vertex 12.497000 5.225000 45.000000
      vertex 18.613914 -10.031905 45.000000
      vertex 17.778591 -11.837426 45.000000
    endloop
  endfacet
  facet normal 0.000000 -0.000000 -1.000000
    outer loop
      vertex 12.497000 5.225000 45.000000
      vertex 17.778591 -11.837426 45.000000
      vertex 12.497000 -34.775000 45.000000
    endloop
  endfacet
  facet normal 0.000000 0.000000 -1.000000
    outer loop
      vertex 17.778591 -11.837426 45.000000
      vertex 17.350931 -13.780305 45.000000
      vertex 12.497000 -34.775000 45.000000
    endloop
  endfacet
  facet normal 0.000000 0.000000 -1.000000
    outer loop
      vertex 17.778591 -17.712574 45.000000
      vertex 12.497000 -34.775000 45.000000
      vertex 17.350931 -15.769695 45.000000
    endloop
  endfacet
  facet normal 0.000000 0.000000 -1.000000
    outer loop
      vertex 19.817841 -21.101835 45.000000
      vertex 12.497000 -34.775000 45.000000
      vertex 18.613914 -19.518095 45.000000
    endloop
  endfacet
  facet normal 0.000000 0.000000 -1.000000
    outer loop
      vertex 12.497000 -34.775000 45.000000
      vertex 19.817841 -21.101835 45.000000
      vertex 21.334079 -22.389739 45.000000
    endloop
  endfacet
  facet normal 0.000000 0.000000 -1.000000
    outer loop
      vertex 21.334079 -22.389739 45.000000
      vertex 23.091729 -23.321586 45.000000
      vertex 12.497000 -34.775000 45.000000
    endloop
  endfacet
  facet normal 0.000000 0.000000 -1.000000
    outer loop
      vertex 23.091729 -23.321586 45.000000
      vertex 24.497000 -23.711757 45.000000
      vertex 12.497000 -34.775000 45.000000
    endloop
  endfacet
  facet normal -0.000000 0.000000 -1.000000
    outer loop
      vertex 12.497000 -34.775000 45.000000
      vertex 24.497000 -23.711757 45.000000
      vertex 24.497000 -34.775000 45.000000
    endloop
  endfacet
  facet normal 0.000000 -0.000000 -1.000000
    outer loop
      vertex 19.817841 -8.448165 45.000000
      vertex 24.497000 5.225000 45.000000
      vertex 21.334079 -7.160261 45.000000
    endloop
  endfacet
  facet normal 0.000000 0.000000 -1.000000
    outer loop
      vertex 18.613914 -19.518095 45.000000
      vertex 12.497000 -34.775000 45.000000
      vertex 17.778591 -17.712574 45.000000
    endloop
  endfacet
  facet normal 0.000000 -0.984808 0.173648
    outer loop
      vertex 12.497000 2.149871 48.600000
      vertex 24.497000 2.149871 48.600000
      vertex 24.497000 2.482462 50.486215
    endloop
  endfacet
  facet normal 0.000000 -0.984808 0.173648
    outer loop
      vertex 12.497000 2.482462 50.486215
      vertex 12.497000 2.149871 48.600000
      vertex 24.497000 2.482462 50.486215
    endloop
  endfacet
  facet normal 0.000000 -0.642787 0.766045
    outer loop
      vertex 12.497000 0.682656 47.368861
      vertex 24.497000 0.682656 47.368861
      vertex 24.497000 2.149871 48.600000
    endloop
  endfacet
  facet normal 0.000000 -0.642787 0.766045
    outer loop
      vertex 12.497000 2.149871 48.600000
      vertex 12.497000 0.682656 47.368861
      vertex 24.497000 2.149871 48.600000
    endloop
  endfacet
  facet normal 0.000000 0.000000 1.000000
    outer loop
      vertex 12.497000 -1.232656 47.368861
      vertex 24.497000 -1.232656 47.368861
      vertex 24.497000 0.682656 47.368861
    endloop
  endfacet
  facet normal 0.000000 -0.000000 1.000000
    outer loop
      vertex 12.497000 0.682656 47.368861
      vertex 12.497000 -1.232656 47.368861
      vertex 24.497000 0.682656 47.368861
    endloop
  endfacet
  facet normal 0.000000 0.642787 0.766045
    outer loop
      vertex 12.497000 -2.699871 48.600000
      vertex 24.497000 -2.699871 48.600000
      vertex 24.497000 -1.232656 47.368861
    endloop
  endfacet
  facet normal 0.000000 0.642787 0.766045
    outer loop
      vertex 12.497000 -1.232656 47.368861
      vertex 12.497000 -2.699871 48.600000
      vertex 24.497000 -1.232656 47.368861
    endloop
  endfacet
  facet normal -0.000000 0.984808 0.173648
    outer loop
      vertex 24.497000 -3.032462 50.486215
      vertex 24.497000 -2.699871 48.600000
      vertex 12.497000 -3.032462 50.486215
    endloop
  endfacet
  facet normal 0.000000 0.984808 0.173648
    outer loop
      vertex 12.497000 -3.032462 50.486215
      vertex 24.497000 -2.699871 48.600000
      vertex 12.497000 -2.699871 48.600000
    endloop
  endfacet
  facet normal 0.000000 0.866025 -0.500000
    outer loop
      vertex 24.497000 -3.032462 50.486215
      vertex 12.497000 -3.032462 50.486215
      vertex 24.497000 -2.074805 52.144924
    endloop
  endfacet
  facet normal 0.000000 0.866025 -0.500000
    outer loop
      vertex 24.497000 -2.074805 52.144924
      vertex 12.497000 -3.032462 50.486215
      vertex 12.497000 -2.074805 52.144924
    endloop
  endfacet
  facet normal 0.000000 0.342020 -0.939693
    outer loop
      vertex 24.497000 -2.074805 52.144924
      vertex 12.497000 -2.074805 52.144924
      vertex 24.497000 -1.215959 52.457519
    endloop
  endfacet
  facet normal 0.000000 0.342020 -0.939693
    outer loop
      vertex 24.497000 -1.215959 52.457519
      vertex 12.497000 -2.074805 52.144924
      vertex 12.497000 -1.215959 52.457519
    endloop
  endfacet
  facet normal 0.000000 0.707107 -0.707107
    outer loop
      vertex 24.497000 -1.215959 52.457519
      vertex 12.497000 -1.215959 52.457519
      vertex 24.497000 -0.275000 53.398478
    endloop
  endfacet
  facet normal 0.000000 0.707107 -0.707107
    outer loop
      vertex 24.497000 -0.275000 53.398478
      vertex 12.497000 -1.215959 52.457519
      vertex 12.497000 -0.275000 53.398478
    endloop
  endfacet
  facet normal 0.000000 -0.707107 -0.707107
    outer loop
      vertex 24.497000 0.665959 52.457519
      vertex 24.497000 -0.275000 53.398478
      vertex 12.497000 -0.275000 53.398478
    endloop
  endfacet
  facet normal -0.000000 -0.707107 -0.707107
    outer loop
      vertex 12.497000 0.665959 52.457519
      vertex 24.497000 0.665959 52.457519
      vertex 12.497000 -0.275000 53.398478
    endloop
  endfacet
  facet normal 0.000000 -0.342020 -0.939693
    outer loop
      vertex 24.497000 0.665959 52.457519
      vertex 12.497000 0.665959 52.457519
      vertex 24.497000 1.524805 52.144924
    endloop
  endfacet
  facet normal 0.000000 -0.342020 -0.939693
    outer loop
      vertex 24.497000 1.524805 52.144924
      vertex 12.497000 0.665959 52.457519
      vertex 12.497000 1.524805 52.144924
    endloop
  endfacet
  facet normal 0.000000 -0.866025 -0.500000
    outer loop
      vertex 24.497000 2.482462 50.486215
      vertex 24.497000 1.524805 52.144924
      vertex 12.497000 1.524805 52.144924
    endloop
  endfacet
  facet normal -0.000000 -0.866025 -0.500000
    outer loop
      vertex 12.497000 2.482462 50.486215
      vertex 24.497000 2.482462 50.486215
      vertex 12.497000 1.524805 52.144924
    endloop
  endfacet
  facet normal 0.000000 -0.642787 0.766045
    outer loop
      vertex 12.497000 -28.317344 47.368861
      vertex 24.497000 -28.317344 47.368861
      vertex 24.497000 -26.850129 48.600000
    endloop
  endfacet
  facet normal 0.000000 -0.642787 0.766045
    outer loop
      vertex 12.497000 -26.850129 48.600000
      vertex 12.497000 -28.317344 47.368861
      vertex 24.497000 -26.850129 48.600000
    endloop
  endfacet
  facet normal 0.000000 -0.984808 0.173648
    outer loop
      vertex 12.497000 -26.850129 48.600000
      vertex 24.497000 -26.850129 48.600000
      vertex 24.497000 -26.517538 50.486215
    endloop
  endfacet
  facet normal 0.000000 -0.984808 0.173648
    outer loop
      vertex 12.497000 -26.517538 50.486215
      vertex 12.497000 -26.850129 48.600000
      vertex 24.497000 -26.517538 50.486215
    endloop
  endfacet
  facet normal 0.000000 0.000000 1.000000
    outer loop
      vertex 12.497000 -30.232656 47.368861
      vertex 24.497000 -30.232656 47.368861
      vertex 24.497000 -28.317344 47.368861
    endloop
  endfacet
  facet normal 0.000000 -0.000000 1.000000
    outer loop
      vertex 12.497000 -28.317344 47.368861
      vertex 12.497000 -30.232656 47.368861
      vertex 24.497000 -28.317344 47.368861
    endloop
  endfacet
  facet normal 0.000000 0.642787 0.766045
    outer loop
      vertex 12.497000 -31.699871 48.600000
      vertex 24.497000 -31.699871 48.600000
      vertex 24.497000 -30.232656 47.368861
    endloop
  endfacet
  facet normal 0.000000 0.642787 0.766045
    outer loop
      vertex 12.497000 -30.232656 47.368861
      vertex 12.497000 -31.699871 48.600000
      vertex 24.497000 -30.232656 47.368861
    endloop
  endfacet
  facet normal -0.000000 0.984808 0.173648
    outer loop
      vertex 24.497000 -32.032462 50.486215
      vertex 24.497000 -31.699871 48.600000
      vertex 12.497000 -32.032462 50.486215
    endloop
  endfacet
  facet normal 0.000000 0.984808 0.173648
    outer loop
      vertex 12.497000 -32.032462 50.486215
      vertex 24.497000 -31.699871 48.600000
      vertex 12.497000 -31.699871 48.600000
    endloop
  endfacet
  facet normal 0.000000 0.866025 -0.500000
    outer loop
      vertex 24.497000 -32.032462 50.486215
      vertex 12.497000 -32.032462 50.486215
      vertex 24.497000 -31.074805 52.144924
    endloop
  endfacet
  facet normal 0.000000 0.866025 -0.500000
    outer loop
      vertex 24.497000 -31.074805 52.144924
      vertex 12.497000 -32.032462 50.486215
      vertex 12.497000 -31.074805 52.144924
    endloop
  endfacet
  facet normal 0.000000 0.342020 -0.939693
    outer loop
      vertex 24.497000 -31.074805 52.144924
      vertex 12.497000 -31.074805 52.144924
      vertex 24.497000 -30.215959 52.457519
    endloop
  endfacet
  facet normal -0.000000 0.342020 -0.939693
    outer loop
      vertex 24.497000 -30.215959 52.457519
      vertex 12.497000 -31.074805 52.144924
      vertex 12.497000 -30.215959 52.457519
    endloop
  endfacet
  facet normal -0.000000 0.707107 -0.707107
    outer loop
      vertex 24.497000 -30.215959 52.457519
      vertex 12.497000 -30.215959 52.457519
      vertex 24.497000 -29.275000 53.398478
    endloop
  endfacet
  facet normal 0.000000 0.707107 -0.707107
    outer loop
      vertex 24.497000 -29.275000 53.398478
      vertex 12.497000 -30.215959 52.457519
      vertex 12.497000 -29.275000 53.398478
    endloop
  endfacet
  facet normal 0.000000 -0.707107 -0.707107
    outer loop
      vertex 24.497000 -28.334041 52.457519
      vertex 24.497000 -29.275000 53.398478
      vertex 12.497000 -29.275000 53.398478
    endloop
  endfacet
  facet normal -0.000000 -0.707107 -0.707107
    outer loop
      vertex 12.497000 -28.334041 52.457519
      vertex 24.497000 -28.334041 52.457519
      vertex 12.497000 -29.275000 53.398478
    endloop
  endfacet
  facet normal -0.000000 -0.342020 -0.939693
    outer loop
      vertex 24.497000 -28.334041 52.457519
      vertex 12.497000 -28.334041 52.457519
      vertex 24.497000 -27.475195 52.144924
    endloop
  endfacet
  facet normal 0.000000 -0.342020 -0.939693
    outer loop
      vertex 24.497000 -27.475195 52.144924
      vertex 12.497000 -28.334041 52.457519
      vertex 12.497000 -27.475195 52.144924
    endloop
  endfacet
  facet normal 0.000000 -0.866025 -0.500000
    outer loop
      vertex 24.497000 -26.517538 50.486215
      vertex 24.497000 -27.475195 52.144924
      vertex 12.497000 -27.475195 52.144924
    endloop
  endfacet
  facet normal -0.000000 -0.866025 -0.500000
    outer loop
      vertex 12.497000 -26.517538 50.486215
      vertex 24.497000 -26.517538 50.486215
      vertex 12.497000 -27.475195 52.144924
    endloop
  endfacet
  facet normal 1.000000 0.000000 0.000000
    outer loop
      vertex 24.497000 -0.275000 53.398478
      vertex 24.497000 5.225000 55.000000
      vertex 24.497000 -5.838243 55.000000
    endloop
  endfacet
  facet normal 1.000000 0.000000 0.000000
    outer loop
      vertex 24.497000 5.225000 45.000000
      vertex 24.497000 5.225000 55.000000
      vertex 24.497000 2.482462 50.486215
    endloop
  endfacet
  facet normal 1.000000 0.000000 0.000000
    outer loop
      vertex 24.497000 -2.699871 48.600000
      vertex 24.497000 -3.032462 50.486215
      vertex 24.497000 -5.838243 55.000000
    endloop
  endfacet
  facet normal 1.000000 0.000000 0.000000
    outer loop
      vertex 24.497000 5.225000 45.000000
      vertex 24.497000 2.482462 50.486215
      vertex 24.497000 2.149871 48.600000
    endloop
  endfacet
  facet normal 1.000000 0.000000 0.000000
    outer loop
      vertex 24.497000 -5.838243 45.000000
      vertex 24.497000 5.225000 45.000000
      vertex 24.497000 0.682656 47.368861
    endloop
  endfacet
  facet normal 1.000000 0.000000 0.000000
    outer loop
      vertex 24.497000 -5.838243 45.000000
      vertex 24.497000 0.682656 47.368861
      vertex 24.497000 -1.232656 47.368861
    endloop
  endfacet
  facet normal 1.000000 0.000000 0.000000
    outer loop
      vertex 24.497000 -5.838243 45.000000
      vertex 24.497000 -2.699871 48.600000
      vertex 24.497000 -5.838243 55.000000
    endloop
  endfacet
  facet normal 1.000000 0.000000 0.000000
    outer loop
      vertex 24.497000 -5.838243 45.000000
      vertex 24.497000 -1.232656 47.368861
      vertex 24.497000 -2.699871 48.600000
    endloop
  endfacet
  facet normal 1.000000 0.000000 0.000000
    outer loop
      vertex 24.497000 -2.074805 52.144924
      vertex 24.497000 -1.215959 52.457519
      vertex 24.497000 -5.838243 55.000000
    endloop
  endfacet
  facet normal 1.000000 0.000000 0.000000
    outer loop
      vertex 24.497000 0.665959 52.457519
      vertex 24.497000 5.225000 55.000000
      vertex 24.497000 -0.275000 53.398478
    endloop
  endfacet
  facet normal 1.000000 0.000000 0.000000
    outer loop
      vertex 24.497000 1.524805 52.144924
      vertex 24.497000 5.225000 55.000000
      vertex 24.497000 0.665959 52.457519
    endloop
  endfacet
  facet normal 1.000000 0.000000 0.000000
    outer loop
      vertex 24.497000 2.482462 50.486215
      vertex 24.497000 5.225000 55.000000
      vertex 24.497000 1.524805 52.144924
    endloop
  endfacet
  facet normal 1.000000 0.000000 0.000000
    outer loop
      vertex 24.497000 -1.215959 52.457519
      vertex 24.497000 -0.275000 53.398478
      vertex 24.497000 -5.838243 55.000000
    endloop
  endfacet
  facet normal 1.000000 0.000000 -0.000000
    outer loop
      vertex 24.497000 2.149871 48.600000
      vertex 24.497000 0.682656 47.368861
      vertex 24.497000 5.225000 45.000000
    endloop
  endfacet
  facet normal 1.000000 0.000000 0.000000
    outer loop
      vertex 24.497000 -3.032462 50.486215
      vertex 24.497000 -2.074805 52.144924
      vertex 24.497000 -5.838243 55.000000
    endloop
  endfacet
  facet normal 0.267528 -0.963550 0.000000
    outer loop
      vertex 23.091729 -6.228414 45.000000
      vertex 24.497000 -5.838243 45.000000
      vertex 24.497000 -5.838243 55.000000
    endloop
  endfacet
  facet normal 0.267528 -0.963550 0.000000
    outer loop
      vertex 23.091729 -6.228414 55.000000
      vertex 23.091729 -6.228414 45.000000
      vertex 24.497000 -5.838243 55.000000
    endloop
  endfacet
  facet normal 0.468408 -0.883512 0.000000
    outer loop
      vertex 21.334079 -7.160261 45.000000
      vertex 23.091729 -6.228414 45.000000
      vertex 23.091729 -6.228414 55.000000
    endloop
  endfacet
  facet normal 0.468408 -0.883512 0.000000
    outer loop
      vertex 21.334079 -7.160261 55.000000
      vertex 21.334079 -7.160261 45.000000
      vertex 23.091729 -6.228414 55.000000
    endloop
  endfacet
  facet normal 0.647386 -0.762162 0.000000
    outer loop
      vertex 19.817841 -8.448165 45.000000
      vertex 21.334079 -7.160261 45.000000
      vertex 21.334079 -7.160261 55.000000
    endloop
  endfacet
  facet normal 0.647386 -0.762162 0.000000
    outer loop
      vertex 19.817841 -8.448165 55.000000
      vertex 19.817841 -8.448165 45.000000
      vertex 21.334079 -7.160261 55.000000
    endloop
  endfacet
  facet normal 0.796093 -0.605174 0.000000
    outer loop
      vertex 18.613914 -10.031905 45.000000
      vertex 19.817841 -8.448165 45.000000
      vertex 19.817841 -8.448165 55.000000
    endloop
  endfacet
  facet normal 0.796093 -0.605174 0.000000
    outer loop
      vertex 18.613914 -10.031905 55.000000
      vertex 18.613914 -10.031905 45.000000
      vertex 19.817841 -8.448165 55.000000
    endloop
  endfacet
  facet normal 0.907575 -0.419889 0.000000
    outer loop
      vertex 17.778591 -11.837426 45.000000
      vertex 18.613914 -10.031905 45.000000
      vertex 18.613914 -10.031905 55.000000
    endloop
  endfacet
  facet normal 0.907575 -0.419889 0.000000
    outer loop
      vertex 17.778591 -11.837426 55.000000
      vertex 17.778591 -11.837426 45.000000
      vertex 18.613914 -10.031905 55.000000
    endloop
  endfacet
  facet normal 0.976621 -0.214970 0.000000
    outer loop
      vertex 17.350931 -13.780305 45.000000
      vertex 17.778591 -11.837426 45.000000
      vertex 17.778591 -11.837426 55.000000
    endloop
  endfacet
  facet normal 0.976621 -0.214970 0.000000
    outer loop
      vertex 17.350931 -13.780305 55.000000
      vertex 17.350931 -13.780305 45.000000
      vertex 17.778591 -11.837426 55.000000
    endloop
  endfacet
  facet normal 1.000000 0.000000 -0.000000
    outer loop
      vertex 17.350931 -15.769695 55.000000
      vertex 17.350931 -15.769695 45.000000
      vertex 17.350931 -13.780305 45.000000
    endloop
  endfacet
  facet normal 1.000000 0.000000 0.000000
    outer loop
      vertex 17.350931 -13.780305 55.000000
      vertex 17.350931 -15.769695 55.000000
      vertex 17.350931 -13.780305 45.000000
    endloop
  endfacet
  facet normal 0.976621 0.214970 -0.000000
    outer loop
      vertex 17.778591 -17.712574 55.000000
      vertex 17.778591 -17.712574 45.000000
      vertex 17.350931 -15.769695 45.000000
    endloop
  endfacet
  facet normal 0.976621 0.214970 -0.000000
    outer loop
      vertex 17.350931 -15.769695 55.000000
      vertex 17.778591 -17.712574 55.000000
      vertex 17.350931 -15.769695 45.000000
    endloop
  endfacet
  facet normal 0.907575 0.419889 -0.000000
    outer loop
      vertex 18.613914 -19.518095 55.000000
      vertex 18.613914 -19.518095 45.000000
      vertex 17.778591 -17.712574 45.000000
    endloop
  endfacet
  facet normal 0.907575 0.419889 -0.000000
    outer loop
      vertex 17.778591 -17.712574 55.000000
      vertex 18.613914 -19.518095 55.000000
      vertex 17.778591 -17.712574 45.000000
    endloop
  endfacet
  facet normal 0.796093 0.605174 -0.000000
    outer loop
      vertex 19.817841 -21.101835 55.000000
      vertex 19.817841 -21.101835 45.000000
      vertex 18.613914 -19.518095 45.000000
    endloop
  endfacet
  facet normal 0.796093 0.605174 -0.000000
    outer loop
      vertex 18.613914 -19.518095 55.000000
      vertex 19.817841 -21.101835 55.000000
      vertex 18.613914 -19.518095 45.000000
    endloop
  endfacet
  facet normal 0.647386 0.762162 0.000000
    outer loop
      vertex 21.334079 -22.389739 45.000000
      vertex 19.817841 -21.101835 45.000000
      vertex 21.334079 -22.389739 55.000000
    endloop
  endfacet
  facet normal 0.647386 0.762162 -0.000000
    outer loop
      vertex 21.334079 -22.389739 55.000000
      vertex 19.817841 -21.101835 45.000000
      vertex 19.817841 -21.101835 55.000000
    endloop
  endfacet
  facet normal 0.468408 0.883512 0.000000
    outer loop
      vertex 23.091729 -23.321586 45.000000
      vertex 21.334079 -22.389739 45.000000
      vertex 23.091729 -23.321586 55.000000
    endloop
  endfacet
  facet normal 0.468408 0.883512 0.000000
    outer loop
      vertex 23.091729 -23.321586 55.000000
      vertex 21.334079 -22.389739 45.000000
      vertex 21.334079 -22.389739 55.000000
    endloop
  endfacet
  facet normal 0.267528 0.963550 -0.000000
    outer loop
      vertex 24.497000 -23.711757 45.000000
      vertex 23.091729 -23.321586 45.000000
      vertex 24.497000 -23.711757 55.000000
    endloop
  endfacet
  facet normal 0.267528 0.963550 0.000000
    outer loop
      vertex 24.497000 -23.711757 55.000000
      vertex 23.091729 -23.321586 45.000000
      vertex 23.091729 -23.321586 55.000000
    endloop
  endfacet
  facet normal 1.000000 0.000000 0.000000
    outer loop
      vertex 24.497000 -29.275000 53.398478
      vertex 24.497000 -23.711757 55.000000
      vertex 24.497000 -34.775000 55.000000
    endloop
  endfacet
  facet normal 1.000000 0.000000 0.000000
    outer loop
      vertex 24.497000 -23.711757 45.000000
      vertex 24.497000 -23.711757 55.000000
      vertex 24.497000 -26.517538 50.486215
    endloop
  endfacet
  facet normal 1.000000 0.000000 0.000000
    outer loop
      vertex 24.497000 -31.699871 48.600000
      vertex 24.497000 -32.032462 50.486215
      vertex 24.497000 -34.775000 55.000000
    endloop
  endfacet
  facet normal 1.000000 0.000000 0.000000
    outer loop
      vertex 24.497000 -23.711757 45.000000
      vertex 24.497000 -26.517538 50.486215
      vertex 24.497000 -26.850129 48.600000
    endloop
  endfacet
  facet normal 1.000000 0.000000 0.000000
    outer loop
      vertex 24.497000 -34.775000 45.000000
      vertex 24.497000 -23.711757 45.000000
      vertex 24.497000 -28.317344 47.368861
    endloop
  endfacet
  facet normal 1.000000 0.000000 0.000000
    outer loop
      vertex 24.497000 -34.775000 45.000000
      vertex 24.497000 -28.317344 47.368861
      vertex 24.497000 -30.232656 47.368861
    endloop
  endfacet
  facet normal 1.000000 0.000000 0.000000
    outer loop
      vertex 24.497000 -34.775000 45.000000
      vertex 24.497000 -31.699871 48.600000
      vertex 24.497000 -34.775000 55.000000
    endloop
  endfacet
  facet normal 1.000000 0.000000 0.000000
    outer loop
      vertex 24.497000 -34.775000 45.000000
      vertex 24.497000 -30.232656 47.368861
      vertex 24.497000 -31.699871 48.600000
    endloop
  endfacet
  facet normal 1.000000 0.000000 0.000000
    outer loop
      vertex 24.497000 -31.074805 52.144924
      vertex 24.497000 -30.215959 52.457519
      vertex 24.497000 -34.775000 55.000000
    endloop
  endfacet
  facet normal 1.000000 0.000000 0.000000
    outer loop
      vertex 24.497000 -28.334041 52.457519
      vertex 24.497000 -23.711757 55.000000
      vertex 24.497000 -29.275000 53.398478
    endloop
  endfacet
  facet normal 1.000000 0.000000 0.000000
    outer loop
      vertex 24.497000 -27.475195 52.144924
      vertex 24.497000 -23.711757 55.000000
      vertex 24.497000 -28.334041 52.457519
    endloop
  endfacet
  facet normal 1.000000 0.000000 0.000000
    outer loop
      vertex 24.497000 -26.517538 50.486215
      vertex 24.497000 -23.711757 55.000000
      vertex 24.497000 -27.475195 52.144924
    endloop
  endfacet
  facet normal 1.000000 0.000000 0.000000
    outer loop
      vertex 24.497000 -30.215959 52.457519
      vertex 24.497000 -29.275000 53.398478
      vertex 24.497000 -34.775000 55.000000
    endloop
  endfacet
  facet normal 1.000000 0.000000 -0.000000
    outer loop
      vertex 24.497000 -26.850129 48.600000
      vertex 24.497000 -28.317344 47.368861
      vertex 24.497000 -23.711757 45.000000
    endloop
  endfacet
  facet normal 1.000000 0.000000 0.000000
    outer loop
      vertex 24.497000 -32.032462 50.486215
      vertex 24.497000 -31.074805 52.144924
      vertex 24.497000 -34.775000 55.000000
    endloop
  endfacet
endsolid
