solid
  facet normal -1.000000 0.000000 0.000000
    outer loop
      vertex 12.497000 -0.307656 47.368861
      vertex 12.497000 6.150000 45.000000
      vertex 12.497000 -33.850000 55.000000
    endloop
  endfacet
  facet normal -1.000000 0.000000 0.000000
    outer loop
      vertex 12.497000 -27.392344 47.368861
      vertex 12.497000 6.150000 45.000000
      vertex 12.497000 -33.850000 45.000000
    endloop
  endfacet
  facet normal -1.000000 0.000000 0.000000
    outer loop
      vertex 12.497000 6.150000 55.000000
      vertex 12.497000 6.150000 45.000000
      vertex 12.497000 3.074871 48.600000
    endloop
  endfacet
  facet normal -1.000000 0.000000 0.000000
    outer loop
      vertex 12.497000 6.150000 55.000000
      vertex 12.497000 3.074871 48.600000
      vertex 12.497000 3.407462 50.486215
    endloop
  endfacet
  facet normal -1.000000 0.000000 0.000000
    outer loop
      vertex 12.497000 6.150000 55.000000
      vertex 12.497000 3.407462 50.486215
      vertex 12.497000 2.449805 52.144924
    endloop
  endfacet
  facet normal -1.000000 0.000000 0.000000
    outer loop
      vertex 12.497000 6.150000 55.000000
      vertex 12.497000 2.449805 52.144924
      vertex 12.497000 1.590959 52.457519
    endloop
  endfacet
  facet normal -1.000000 0.000000 0.000000
    outer loop
      vertex 12.497000 6.150000 55.000000
      vertex 12.497000 1.590959 52.457519
      vertex 12.497000 0.650000 53.398478
    endloop
  endfacet
  facet normal -1.000000 0.000000 0.000000
    outer loop
      vertex 12.497000 6.150000 55.000000
      vertex 12.497000 0.650000 53.398478
      vertex 12.497000 -33.850000 55.000000
    endloop
  endfacet
  facet normal -1.000000 0.000000 -0.000000
    outer loop
      vertex 12.497000 -1.149805 52.144924
      vertex 12.497000 -33.850000 55.000000
      vertex 12.497000 -0.290959 52.457519
    endloop
  endfacet
  facet normal -1.000000 0.000000 -0.000000
    outer loop
      vertex 12.497000 -2.107462 50.486215
      vertex 12.497000 -33.850000 55.000000
      vertex 12.497000 -1.149805 52.144924
    endloop
  endfacet
  facet normal -1.000000 0.000000 0.000000
    outer loop
      vertex 12.497000 -1.774871 48.600000
      vertex 12.497000 -33.850000 55.000000
      vertex 12.497000 -2.107462 50.486215
    endloop
  endfacet
  facet normal -1.000000 0.000000 0.000000
    outer loop
      vertex 12.497000 -28.350000 53.398478
      vertex 12.497000 -26.550195 52.144924
      vertex 12.497000 -27.409041 52.457519
    endloop
  endfacet
  facet normal -1.000000 0.000000 0.000000
    outer loop
      vertex 12.497000 1.607656 47.368861
      vertex 12.497000 6.150000 45.000000
      vertex 12.497000 -0.307656 47.368861
    endloop
  endfacet
  facet normal -1.000000 0.000000 0.000000
    outer loop
      vertex 12.497000 -1.774871 48.600000
      vertex 12.497000 -0.307656 47.368861
      vertex 12.497000 -33.850000 55.000000
    endloop
  endfacet
  facet normal -1.000000 0.000000 0.000000
    outer loop
      vertex 12.497000 3.074871 48.600000
      vertex 12.497000 6.150000 45.000000
      vertex 12.497000 1.607656 47.368861
    endloop
  endfacet
  facet normal -1.000000 0.000000 0.000000
    outer loop
      vertex 12.497000 -25.592538 50.486215
      vertex 12.497000 6.150000 45.000000
      vertex 12.497000 -25.925129 48.600000
    endloop
  endfacet
  facet normal -1.000000 0.000000 0.000000
    outer loop
      vertex 12.497000 -26.550195 52.144924
      vertex 12.497000 6.150000 45.000000
      vertex 12.497000 -25.592538 50.486215
    endloop
  endfacet
  facet normal -1.000000 0.000000 0.000000
    outer loop
      vertex 12.497000 -28.350000 53.398478
      vertex 12.497000 6.150000 45.000000
      vertex 12.497000 -26.550195 52.144924
    endloop
  endfacet
  facet normal -1.000000 0.000000 0.000000
    outer loop
      vertex 12.497000 -33.850000 55.000000
      vertex 12.497000 6.150000 45.000000
      vertex 12.497000 -28.350000 53.398478
    endloop
  endfacet
  facet normal -1.000000 0.000000 -0.000000
    outer loop
      vertex 12.497000 -29.290959 52.457519
      vertex 12.497000 -33.850000 55.000000
      vertex 12.497000 -28.350000 53.398478
    endloop
  endfacet
  facet normal -1.000000 0.000000 -0.000000
    outer loop
      vertex 12.497000 -31.107462 50.486215
      vertex 12.497000 -33.850000 55.000000
      vertex 12.497000 -30.149805 52.144924
    endloop
  endfacet
  facet normal -1.000000 0.000000 0.000000
    outer loop
      vertex 12.497000 -33.850000 55.000000
      vertex 12.497000 -29.290959 52.457519
      vertex 12.497000 -30.149805 52.144924
    endloop
  endfacet
  facet normal -1.000000 0.000000 0.000000
    outer loop
      vertex 12.497000 -27.392344 47.368861
      vertex 12.497000 -33.850000 45.000000
      vertex 12.497000 -29.307656 47.368861
    endloop
  endfacet
  facet normal -1.000000 0.000000 0.000000
    outer loop
      vertex 12.497000 -33.850000 55.000000
      vertex 12.497000 -31.107462 50.486215
      vertex 12.497000 -33.850000 45.000000
    endloop
  endfacet
  facet normal -1.000000 0.000000 0.000000
    outer loop
      vertex 12.497000 -31.107462 50.486215
      vertex 12.497000 -30.774871 48.600000
      vertex 12.497000 -33.850000 45.000000
    endloop
  endfacet
  facet normal -1.000000 0.000000 0.000000
    outer loop
      vertex 12.497000 -30.774871 48.600000
      vertex 12.497000 -29.307656 47.368861
      vertex 12.497000 -33.850000 45.000000
    endloop
  endfacet
  facet normal -1.000000 0.000000 0.000000
    outer loop
      vertex 12.497000 -25.925129 48.600000
      vertex 12.497000 6.150000 45.000000
      vertex 12.497000 -27.392344 47.368861
    endloop
  endfacet
  facet normal -1.000000 0.000000 -0.000000
    outer loop
      vertex 12.497000 -0.290959 52.457519
      vertex 12.497000 -33.850000 55.000000
      vertex 12.497000 0.650000 53.398478
    endloop
  endfacet
  facet normal 0.000000 1.000000 -0.000000
    outer loop
      vertex 12.497000 6.150000 55.000000
      vertex 24.497000 6.150000 55.000000
      vertex 12.497000 6.150000 45.000000
    endloop
  endfacet
  facet normal 0.000000 1.000000 -0.000000
    outer loop
      vertex 12.497000 6.150000 45.000000
      vertex 24.497000 6.150000 55.000000
      vertex 24.497000 6.150000 45.000000
    endloop
  endfacet
  facet normal -0.000000 0.000000 1.000000
    outer loop
      vertex 17.350931 -14.844695 55.000000
      vertex 12.497000 6.150000 55.000000
      vertex 12.497000 -33.850000 55.000000
    endloop
  endfacet
  facet normal -0.000000 0.000000 1.000000
    outer loop
      vertex 18.613914 -9.106905 55.000000
      vertex 19.817841 -7.523165 55.000000
      vertex 24.497000 6.150000 55.000000
    endloop
  endfacet
  facet normal -0.000000 0.000000 1.000000
    outer loop
      vertex 24.497000 -33.850000 55.000000
      vertex 24.497000 -22.786757 55.000000
      vertex 12.497000 -33.850000 55.000000
    endloop
  endfacet
  facet normal -0.000000 0.000000 1.000000
    outer loop
      vertex 24.497000 -22.786757 55.000000
      vertex 23.091729 -22.396586 55.000000
      vertex 12.497000 -33.850000 55.000000
    endloop
  endfacet
  facet normal -0.000000 0.000000 1.000000
    outer loop
      vertex 23.091729 -22.396586 55.000000
      vertex 21.334079 -21.464739 55.000000
      vertex 12.497000 -33.850000 55.000000
    endloop
  endfacet
  facet normal -0.000000 0.000000 1.000000
    outer loop
      vertex 21.334079 -21.464739 55.000000
      vertex 19.817841 -20.176835 55.000000
      vertex 12.497000 -33.850000 55.000000
    endloop
  endfacet
  facet normal -0.000000 0.000000 1.000000
    outer loop
      vertex 19.817841 -20.176835 55.000000
      vertex 18.613914 -18.593095 55.000000
      vertex 12.497000 -33.850000 55.000000
    endloop
  endfacet
  facet normal -0.000000 0.000000 1.000000
    outer loop
      vertex 18.613914 -18.593095 55.000000
      vertex 17.778591 -16.787574 55.000000
      vertex 12.497000 -33.850000 55.000000
    endloop
  endfacet
  facet normal -0.000000 0.000000 1.000000
    outer loop
      vertex 17.350931 -12.855305 55.000000
      vertex 12.497000 6.150000 55.000000
      vertex 17.350931 -14.844695 55.000000
    endloop
  endfacet
  facet normal -0.000000 0.000000 1.000000
    outer loop
      vertex 17.778591 -10.912426 55.000000
      vertex 12.497000 6.150000 55.000000
      vertex 17.350931 -12.855305 55.000000
    endloop
  endfacet
  facet normal -0.000000 0.000000 1.000000
    outer loop
      vertex 24.497000 6.150000 55.000000
      vertex 12.497000 6.150000 55.000000
      vertex 17.778591 -10.912426 55.000000
    endloop
  endfacet
  facet normal -0.000000 0.000000 1.000000
    outer loop
      vertex 24.497000 6.150000 55.000000
      vertex 17.778591 -10.912426 55.000000
      vertex 18.613914 -9.106905 55.000000
    endloop
  endfacet
  facet normal -0.000000 0.000000 1.000000
    outer loop
      vertex 21.334079 -6.235261 55.000000
      vertex 23.091729 -5.303414 55.000000
      vertex 24.497000 6.150000 55.000000
    endloop
  endfacet
  facet normal -0.000000 0.000000 1.000000
    outer loop
      vertex 23.091729 -5.303414 55.000000
      vertex 24.497000 -4.913243 55.000000
      vertex 24.497000 6.150000 55.000000
    endloop
  endfacet
  facet normal -0.000000 0.000000 1.000000
    outer loop
      vertex 17.778591 -16.787574 55.000000
      vertex 17.350931 -14.844695 55.000000
      vertex 12.497000 -33.850000 55.000000
    endloop
  endfacet
  facet normal -0.000000 0.000000 1.000000
    outer loop
      vertex 19.817841 -7.523165 55.000000
      vertex 21.334079 -6.235261 55.000000
      vertex 24.497000 6.150000 55.000000
    endloop
  endfacet
  facet normal 0.000000 -1.000000 0.000000
    outer loop
      vertex 24.497000 -33.850000 55.000000
      vertex 12.497000 -33.850000 55.000000
      vertex 12.497000 -33.850000 45.000000
    endloop
  endfacet
  facet normal 0.000000 -1.000000 0.000000
    outer loop
      vertex 24.497000 -33.850000 45.000000
      vertex 24.497000 -33.850000 55.000000
      vertex 12.497000 -33.850000 45.000000
    endloop
  endfacet
  facet normal 0.000000 0.000000 -1.000000
    outer loop
      vertex 17.350931 -14.844695 45.000000
      vertex 12.497000 -33.850000 45.000000
      vertex 17.350931 -12.855305 45.000000
    endloop
  endfacet
  facet normal 0.000000 -0.000000 -1.000000
    outer loop
      vertex 23.091729 -5.303414 45.000000
      vertex 24.497000 6.150000 45.000000
      vertex 24.497000 -4.913243 45.000000
    endloop
  endfacet
  facet normal 0.000000 -0.000000 -1.000000
    outer loop
      vertex 21.334079 -6.235261 45.000000
      vertex 24.497000 6.150000 45.000000
      vertex 23.091729 -5.303414 45.000000
    endloop
  endfacet
  facet normal -0.000000 -0.000000 -1.000000
    outer loop
      vertex 12.497000 6.150000 45.000000
      vertex 24.497000 6.150000 45.000000
      vertex 19.817841 -7.523165 45.000000
    endloop
  endfacet
  facet normal 0.000000 -0.000000 -1.000000
    outer loop
      vertex 12.497000 6.150000 45.000000
      vertex 19.817841 -7.523165 45.000000
      vertex 18.613914 -9.106905 45.000000
    endloop
  endfacet
  facet normal 0.000000 -0.000000 -1.000000
    outer loop
      vertex 12.497000 6.150000 45.000000
      vertex 18.613914 -9.106905 45.000000
      vertex 17.778591 -10.912426 45.000000
    endloop
  endfacet
  facet normal 0.000000 -0.000000 -1.000000
    outer loop
      vertex 12.497000 6.150000 45.000000
      vertex 17.778591 -10.912426 45.000000
      vertex 12.497000 -33.850000 45.000000
    endloop
  endfacet
  facet normal 0.000000 0.000000 -1.000000
    outer loop
      vertex 17.778591 -10.912426 45.000000
      vertex 17.350931 -12.855305 45.000000
      vertex 12.497000 -33.850000 45.000000
    endloop
  endfacet
  facet normal 0.000000 0.000000 -1.000000
    outer loop
      vertex 17.778591 -16.787574 45.000000
      vertex 12.497000 -33.850000 45.000000
      vertex 17.350931 -14.844695 45.000000
    endloop
  endfacet
  facet normal 0.000000 0.000000 -1.000000
    outer loop
      vertex 19.817841 -20.176835 45.000000
      vertex 12.497000 -33.850000 45.000000
      vertex 18.613914 -18.593095 45.000000
    endloop
  endfacet
  facet normal 0.000000 0.000000 -1.000000
    outer loop
      vertex 12.497000 -33.850000 45.000000
      vertex 19.817841 -20.176835 45.000000
      vertex 21.334079 -21.464739 45.000000
    endloop
  endfacet
  facet normal 0.000000 0.000000 -1.000000
    outer loop
      vertex 21.334079 -21.464739 45.000000
      vertex 23.091729 -22.396586 45.000000
      vertex 12.497000 -33.850000 45.000000
    endloop
  endfacet
  facet normal 0.000000 0.000000 -1.000000
    outer loop
      vertex 23.091729 -22.396586 45.000000
      vertex 24.497000 -22.786757 45.000000
      vertex 12.497000 -33.850000 45.000000
    endloop
  endfacet
  facet normal -0.000000 0.000000 -1.000000
    outer loop
      vertex 12.497000 -33.850000 45.000000
      vertex 24.497000 -22.786757 45.000000
      vertex 24.497000 -33.850000 45.000000
    endloop
  endfacet
  facet normal 0.000000 -0.000000 -1.000000
    outer loop
      vertex 19.817841 -7.523165 45.000000
      vertex 24.497000 6.150000 45.000000
      vertex 21.334079 -6.235261 45.000000
    endloop
  endfacet
  facet normal 0.000000 0.000000 -1.000000
    outer loop
      vertex 18.613914 -18.593095 45.000000
      vertex 12.497000 -33.850000 45.000000
      vertex 17.778591 -16.787574 45.000000
    endloop
  endfacet
  facet normal 0.000000 -0.642787 0.766045
    outer loop
      vertex 12.497000 1.607656 47.368861
      vertex 24.497000 1.607656 47.368861
      vertex 24.497000 3.074871 48.600000
    endloop
  endfacet
  facet normal 0.000000 -0.642787 0.766045
    outer loop
      vertex 12.497000 3.074871 48.600000
      vertex 12.497000 1.607656 47.368861
      vertex 24.497000 3.074871 48.600000
    endloop
  endfacet
  facet normal 0.000000 -0.984808 0.173648
    outer loop
      vertex 12.497000 3.074871 48.600000
      vertex 24.497000 3.074871 48.600000
      vertex 24.497000 3.407462 50.486215
    endloop
  endfacet
  facet normal 0.000000 -0.984808 0.173648
    outer loop
      vertex 12.497000 3.407462 50.486215
      vertex 12.497000 3.074871 48.600000
      vertex 24.497000 3.407462 50.486215
    endloop
  endfacet
  facet normal 0.000000 0.000000 1.000000
    outer loop
      vertex 12.497000 -0.307656 47.368861
      vertex 24.497000 -0.307656 47.368861
      vertex 24.497000 1.607656 47.368861
    endloop
  endfacet
  facet normal 0.000000 -0.000000 1.000000
    outer loop
      vertex 12.497000 1.607656 47.368861
      vertex 12.497000 -0.307656 47.368861
      vertex 24.497000 1.607656 47.368861
    endloop
  endfacet
  facet normal 0.000000 0.642787 0.766045
    outer loop
      vertex 12.497000 -1.774871 48.600000
      vertex 24.497000 -1.774871 48.600000
      vertex 24.497000 -0.307656 47.368861
    endloop
  endfacet
  facet normal 0.000000 0.642787 0.766045
    outer loop
      vertex 12.497000 -0.307656 47.368861
      vertex 12.497000 -1.774871 48.600000
      vertex 24.497000 -0.307656 47.368861
    endloop
  endfacet
  facet normal -0.000000 0.984808 0.173648
    outer loop
      vertex 24.497000 -2.107462 50.486215
      vertex 24.497000 -1.774871 48.600000
      vertex 12.497000 -2.107462 50.486215
    endloop
  endfacet
  facet normal 0.000000 0.984808 0.173648
    outer loop
      vertex 12.497000 -2.107462 50.486215
      vertex 24.497000 -1.774871 48.600000
      vertex 12.497000 -1.774871 48.600000
    endloop
  endfacet
  facet normal 0.000000 0.866025 -0.500000
    outer loop
      vertex 24.497000 -2.107462 50.486215
      vertex 12.497000 -2.107462 50.486215
      vertex 24.497000 -1.149805 52.144924
    endloop
  endfacet
  facet normal 0.000000 0.866025 -0.500000
    outer loop
      vertex 24.497000 -1.149805 52.144924
      vertex 12.497000 -2.107462 50.486215
      vertex 12.497000 -1.149805 52.144924
    endloop
  endfacet
  facet normal 0.000000 0.342020 -0.939693
    outer loop
      vertex 24.497000 -1.149805 52.144924
      vertex 12.497000 -1.149805 52.144924
      vertex 24.497000 -0.290959 52.457519
    endloop
  endfacet
  facet normal 0.000000 0.342020 -0.939693
    outer loop
      vertex 24.497000 -0.290959 52.457519
      vertex 12.497000 -1.149805 52.144924
      vertex 12.497000 -0.290959 52.457519
    endloop
  endfacet
  facet normal 0.000000 0.707107 -0.707107
    outer loop
      vertex 24.497000 -0.290959 52.457519
      vertex 12.497000 -0.290959 52.457519
      vertex 24.497000 0.650000 53.398478
    endloop
  endfacet
  facet normal 0.000000 0.707107 -0.707107
    outer loop
      vertex 24.497000 0.650000 53.398478
      vertex 12.497000 -0.290959 52.457519
      vertex 12.497000 0.650000 53.398478
    endloop
  endfacet
  facet normal 0.000000 -0.707107 -0.707107
    outer loop
      vertex 24.497000 1.590959 52.457519
      vertex 24.497000 0.650000 53.398478
      vertex 12.497000 0.650000 53.398478
    endloop
  endfacet
  facet normal -0.000000 -0.707107 -0.707107
    outer loop
      vertex 12.497000 1.590959 52.457519
      vertex 24.497000 1.590959 52.457519
      vertex 12.497000 0.650000 53.398478
    endloop
  endfacet
  facet normal 0.000000 -0.342020 -0.939693
    outer loop
      vertex 24.497000 1.590959 52.457519
      vertex 12.497000 1.590959 52.457519
      vertex 24.497000 2.449805 52.144924
    endloop
  endfacet
  facet normal 0.000000 -0.342020 -0.939693
    outer loop
      vertex 24.497000 2.449805 52.144924
      vertex 12.497000 1.590959 52.457519
      vertex 12.497000 2.449805 52.144924
    endloop
  endfacet
  facet normal 0.000000 -0.866025 -0.500000
    outer loop
      vertex 24.497000 3.407462 50.486215
      vertex 24.497000 2.449805 52.144924
      vertex 12.497000 2.449805 52.144924
    endloop
  endfacet
  facet normal -0.000000 -0.866025 -0.500000
    outer loop
      vertex 12.497000 3.407462 50.486215
      vertex 24.497000 3.407462 50.486215
      vertex 12.497000 2.449805 52.144924
    endloop
  endfacet
  facet normal 0.000000 -0.984808 0.173648
    outer loop
      vertex 12.497000 -25.925129 48.600000
      vertex 24.497000 -25.925129 48.600000
      vertex 24.497000 -25.592538 50.486215
    endloop
  endfacet
  facet normal 0.000000 -0.984808 0.173648
    outer loop
      vertex 12.497000 -25.592538 50.486215
      vertex 12.497000 -25.925129 48.600000
      vertex 24.497000 -25.592538 50.486215
    endloop
  endfacet
  facet normal 0.000000 -0.642787 0.766045
    outer loop
      vertex 12.497000 -27.392344 47.368861
      vertex 24.497000 -27.392344 47.368861
      vertex 24.497000 -25.925129 48.600000
    endloop
  endfacet
  facet normal 0.000000 -0.642787 0.766045
    outer loop
      vertex 12.497000 -25.925129 48.600000
      vertex 12.497000 -27.392344 47.368861
      vertex 24.497000 -25.925129 48.600000
    endloop
  endfacet
  facet normal 0.000000 0.000000 1.000000
    outer loop
      vertex 12.497000 -29.307656 47.368861
      vertex 24.497000 -29.307656 47.368861
      vertex 24.497000 -27.392344 47.368861
    endloop
  endfacet
  facet normal 0.000000 -0.000000 1.000000
    outer loop
      vertex 12.497000 -27.392344 47.368861
      vertex 12.497000 -29.307656 47.368861
      vertex 24.497000 -27.392344 47.368861
    endloop
  endfacet
  facet normal 0.000000 0.642787 0.766045
    outer loop
      vertex 12.497000 -30.774871 48.600000
      vertex 24.497000 -30.774871 48.600000
      vertex 24.497000 -29.307656 47.368861
    endloop
  endfacet
  facet normal 0.000000 0.642787 0.766045
    outer loop
      vertex 12.497000 -29.307656 47.368861
      vertex 12.497000 -30.774871 48.600000
      vertex 24.497000 -29.307656 47.368861
    endloop
  endfacet
  facet normal -0.000000 0.984808 0.173648
    outer loop
      vertex 24.497000 -31.107462 50.486215
      vertex 24.497000 -30.774871 48.600000
      vertex 12.497000 -31.107462 50.486215
    endloop
  endfacet
  facet normal 0.000000 0.984808 0.173648
    outer loop
      vertex 12.497000 -31.107462 50.486215
      vertex 24.497000 -30.774871 48.600000
      vertex 12.497000 -30.774871 48.600000
    endloop
  endfacet
  facet normal 0.000000 0.866025 -0.500000
    outer loop
      vertex 24.497000 -31.107462 50.486215
      vertex 12.497000 -31.107462 50.486215
      vertex 24.497000 -30.149805 52.144924
    endloop
  endfacet
  facet normal 0.000000 0.866025 -0.500000
    outer loop
      vertex 24.497000 -30.149805 52.144924
      vertex 12.497000 -31.107462 50.486215
      vertex 12.497000 -30.149805 52.144924
    endloop
  endfacet
  facet normal 0.000000 0.342020 -0.939693
    outer loop
      vertex 24.497000 -30.149805 52.144924
      vertex 12.497000 -30.149805 52.144924
      vertex 24.497000 -29.290959 52.457519
    endloop
  endfacet
  facet normal -0.000000 0.342020 -0.939693
    outer loop
      vertex 24.497000 -29.290959 52.457519
      vertex 12.497000 -30.149805 52.144924
      vertex 12.497000 -29.290959 52.457519
    endloop
  endfacet
  facet normal -0.000000 0.707107 -0.707107
    outer loop
      vertex 24.497000 -29.290959 52.457519
      vertex 12.497000 -29.290959 52.457519
      vertex 24.497000 -28.350000 53.398478
    endloop
  endfacet
  facet normal 0.000000 0.707107 -0.707107
    outer loop
      vertex 24.497000 -28.350000 53.398478
      vertex 12.497000 -29.290959 52.457519
      vertex 12.497000 -28.350000 53.398478
    endloop
  endfacet
  facet normal 0.000000 -0.707107 -0.707107
    outer loop
      vertex 24.497000 -27.409041 52.457519
      vertex 24.497000 -28.350000 53.398478
      vertex 12.497000 -28.350000 53.398478
    endloop
  endfacet
  facet normal -0.000000 -0.707107 -0.707107
    outer loop
      vertex 12.497000 -27.409041 52.457519
      vertex 24.497000 -27.409041 52.457519
      vertex 12.497000 -28.350000 53.398478
    endloop
  endfacet
  facet normal -0.000000 -0.342020 -0.939693
    outer loop
      vertex 24.497000 -27.409041 52.457519
      vertex 12.497000 -27.409041 52.457519
      vertex 24.497000 -26.550195 52.144924
    endloop
  endfacet
  facet normal 0.000000 -0.342020 -0.939693
    outer loop
      vertex 24.497000 -26.550195 52.144924
      vertex 12.497000 -27.409041 52.457519
      vertex 12.497000 -26.550195 52.144924
    endloop
  endfacet
  facet normal 0.000000 -0.866025 -0.500000
    outer loop
      vertex 24.497000 -25.592538 50.486215
      vertex 24.497000 -26.550195 52.144924
      vertex 12.497000 -26.550195 52.144924
    endloop
  endfacet
  facet normal -0.000000 -0.866025 -0.500000
    outer loop
      vertex 12.497000 -25.592538 50.486215
      vertex 24.497000 -25.592538 50.486215
      vertex 12.497000 -26.550195 52.144924
    endloop
  endfacet
  facet normal 1.000000 0.000000 0.000000
    outer loop
      vertex 24.497000 0.650000 53.398478
      vertex 24.497000 6.150000 55.000000
      vertex 24.497000 -4.913243 55.000000
    endloop
  endfacet
  facet normal 1.000000 0.000000 0.000000
    outer loop
      vertex 24.497000 6.150000 45.000000
      vertex 24.497000 6.150000 55.000000
      vertex 24.497000 3.407462 50.486215
    endloop
  endfacet
  facet normal 1.000000 0.000000 0.000000
    outer loop
      vertex 24.497000 -1.774871 48.600000
      vertex 24.497000 -2.107462 50.486215
      vertex 24.497000 -4.913243 55.000000
    endloop
  endfacet
  facet normal 1.000000 0.000000 0.000000
    outer loop
      vertex 24.497000 6.150000 45.000000
      vertex 24.497000 3.407462 50.486215
      vertex 24.497000 3.074871 48.600000
    endloop
  endfacet
  facet normal 1.000000 0.000000 0.000000
    outer loop
      vertex 24.497000 -4.913243 45.000000
      vertex 24.497000 6.150000 45.000000
      vertex 24.497000 1.607656 47.368861
    endloop
  endfacet
  facet normal 1.000000 0.000000 0.000000
    outer loop
      vertex 24.497000 -4.913243 45.000000
      vertex 24.497000 1.607656 47.368861
      vertex 24.497000 -0.307656 47.368861
    endloop
  endfacet
  facet normal 1.000000 0.000000 0.000000
    outer loop
      vertex 24.497000 -4.913243 45.000000
      vertex 24.497000 -1.774871 48.600000
      vertex 24.497000 -4.913243 55.000000
    endloop
  endfacet
  facet normal 1.000000 0.000000 0.000000
    outer loop
      vertex 24.497000 -4.913243 45.000000
      vertex 24.497000 -0.307656 47.368861
      vertex 24.497000 -1.774871 48.600000
    endloop
  endfacet
  facet normal 1.000000 0.000000 0.000000
    outer loop
      vertex 24.497000 -1.149805 52.144924
      vertex 24.497000 -0.290959 52.457519
      vertex 24.497000 -4.913243 55.000000
    endloop
  endfacet
  facet normal 1.000000 0.000000 0.000000
    outer loop
      vertex 24.497000 1.590959 52.457519
      vertex 24.497000 6.150000 55.000000
      vertex 24.497000 0.650000 53.398478
    endloop
  endfacet
  facet normal 1.000000 0.000000 0.000000
    outer loop
      vertex 24.497000 2.449805 52.144924
      vertex 24.497000 6.150000 55.000000
      vertex 24.497000 1.590959 52.457519
    endloop
  endfacet
  facet normal 1.000000 0.000000 0.000000
    outer loop
      vertex 24.497000 3.407462 50.486215
      vertex 24.497000 6.150000 55.000000
      vertex 24.497000 2.449805 52.144924
    endloop
  endfacet
  facet normal 1.000000 0.000000 0.000000
    outer loop
      vertex 24.497000 -0.290959 52.457519
      vertex 24.497000 0.650000 53.398478
      vertex 24.497000 -4.913243 55.000000
    endloop
  endfacet
  facet normal 1.000000 0.000000 -0.000000
    outer loop
      vertex 24.497000 3.074871 48.600000
      vertex 24.497000 1.607656 47.368861
      vertex 24.497000 6.150000 45.000000
    endloop
  endfacet
  facet normal 1.000000 0.000000 0.000000
    outer loop
      vertex 24.497000 -2.107462 50.486215
      vertex 24.497000 -1.149805 52.144924
      vertex 24.497000 -4.913243 55.000000
    endloop
  endfacet
  facet normal 0.267528 -0.963550 0.000000
    outer loop
      vertex 23.091729 -5.303414 45.000000
      vertex 24.497000 -4.913243 45.000000
      vertex 24.497000 -4.913243 55.000000
    endloop
  endfacet
  facet normal 0.267528 -0.963550 0.000000
    outer loop
      vertex 23.091729 -5.303414 55.000000
      vertex 23.091729 -5.303414 45.000000
      vertex 24.497000 -4.913243 55.000000
    endloop
  endfacet
  facet normal 0.468408 -0.883512 0.000000
    outer loop
      vertex 21.334079 -6.235261 45.000000
      vertex 23.091729 -5.303414 45.000000
      vertex 23.091729 -5.303414 55.000000
    endloop
  endfacet
  facet normal 0.468408 -0.883512 0.000000
    outer loop
      vertex 21.334079 -6.235261 55.000000
      vertex 21.334079 -6.235261 45.000000
      vertex 23.091729 -5.303414 55.000000
    endloop
  endfacet
  facet normal 0.647386 -0.762162 0.000000
    outer loop
      vertex 19.817841 -7.523165 45.000000
      vertex 21.334079 -6.235261 45.000000
      vertex 21.334079 -6.235261 55.000000
    endloop
  endfacet
  facet normal 0.647386 -0.762162 0.000000
    outer loop
      vertex 19.817841 -7.523165 55.000000
      vertex 19.817841 -7.523165 45.000000
      vertex 21.334079 -6.235261 55.000000
    endloop
  endfacet
  facet normal 0.796093 -0.605174 0.000000
    outer loop
      vertex 18.613914 -9.106905 45.000000
      vertex 19.817841 -7.523165 45.000000
      vertex 19.817841 -7.523165 55.000000
    endloop
  endfacet
  facet normal 0.796093 -0.605174 0.000000
    outer loop
      vertex 18.613914 -9.106905 55.000000
      vertex 18.613914 -9.106905 45.000000
      vertex 19.817841 -7.523165 55.000000
    endloop
  endfacet
  facet normal 0.907575 -0.419889 0.000000
    outer loop
      vertex 17.778591 -10.912426 45.000000
      vertex 18.613914 -9.106905 45.000000
      vertex 18.613914 -9.106905 55.000000
    endloop
  endfacet
  facet normal 0.907575 -0.419889 0.000000
    outer loop
      vertex 17.778591 -10.912426 55.000000
      vertex 17.778591 -10.912426 45.000000
      vertex 18.613914 -9.106905 55.000000
    endloop
  endfacet
  facet normal 0.976621 -0.214970 0.000000
    outer loop
      vertex 17.350931 -12.855305 45.000000
      vertex 17.778591 -10.912426 45.000000
      vertex 17.778591 -10.912426 55.000000
    endloop
  endfacet
  facet normal 0.976621 -0.214970 0.000000
    outer loop
      vertex 17.350931 -12.855305 55.000000
      vertex 17.350931 -12.855305 45.000000
      vertex 17.778591 -10.912426 55.000000
    endloop
  endfacet
  facet normal 1.000000 0.000000 -0.000000
    outer loop
      vertex 17.350931 -14.844695 55.000000
      vertex 17.350931 -14.844695 45.000000
      vertex 17.350931 -12.855305 45.000000
    endloop
  endfacet
  facet normal 1.000000 0.000000 0.000000
    outer loop
      vertex 17.350931 -12.855305 55.000000
      vertex 17.350931 -14.844695 55.000000
      vertex 17.350931 -12.855305 45.000000
    endloop
  endfacet
  facet normal 0.976621 0.214970 -0.000000
    outer loop
      vertex 17.778591 -16.787574 55.000000
      vertex 17.778591 -16.787574 45.000000
      vertex 17.350931 -14.844695 45.000000
    endloop
  endfacet
  facet normal 0.976621 0.214970 -0.000000
    outer loop
      vertex 17.350931 -14.844695 55.000000
      vertex 17.778591 -16.787574 55.000000
      vertex 17.350931 -14.844695 45.000000
    endloop
  endfacet
  facet normal 0.907575 0.419889 -0.000000
    outer loop
      vertex 18.613914 -18.593095 55.000000
      vertex 18.613914 -18.593095 45.000000
      vertex 17.778591 -16.787574 45.000000
    endloop
  endfacet
  facet normal 0.907575 0.419889 -0.000000
    outer loop
      vertex 17.778591 -16.787574 55.000000
      vertex 18.613914 -18.593095 55.000000
      vertex 17.778591 -16.787574 45.000000
    endloop
  endfacet
  facet normal 0.796093 0.605174 -0.000000
    outer loop
      vertex 19.817841 -20.176835 55.000000
      vertex 19.817841 -20.176835 45.000000
      vertex 18.613914 -18.593095 45.000000
    endloop
  endfacet
  facet normal 0.796093 0.605174 -0.000000
    outer loop
      vertex 18.613914 -18.593095 55.000000
      vertex 19.817841 -20.176835 55.000000
      vertex 18.613914 -18.593095 45.000000
    endloop
  endfacet
  facet normal 0.647386 0.762162 0.000000
    outer loop
      vertex 21.334079 -21.464739 45.000000
      vertex 19.817841 -20.176835 45.000000
      vertex 21.334079 -21.464739 55.000000
    endloop
  endfacet
  facet normal 0.647386 0.762162 -0.000000
    outer loop
      vertex 21.334079 -21.464739 55.000000
      vertex 19.817841 -20.176835 45.000000
      vertex 19.817841 -20.176835 55.000000
    endloop
  endfacet
  facet normal 0.468408 0.883512 0.000000
    outer loop
      vertex 23.091729 -22.396586 45.000000
      vertex 21.334079 -21.464739 45.000000
      vertex 23.091729 -22.396586 55.000000
    endloop
  endfacet
  facet normal 0.468408 0.883512 0.000000
    outer loop
      vertex 23.091729 -22.396586 55.000000
      vertex 21.334079 -21.464739 45.000000
      vertex 21.334079 -21.464739 55.000000
    endloop
  endfacet
  facet normal 0.267528 0.963550 -0.000000
    outer loop
      vertex 24.497000 -22.786757 45.000000
      vertex 23.091729 -22.396586 45.000000
      vertex 24.497000 -22.786757 55.000000
    endloop
  endfacet
  facet normal 0.267528 0.963550 0.000000
    outer loop
      vertex 24.497000 -22.786757 55.000000
      vertex 23.091729 -22.396586 45.000000
      vertex 23.091729 -22.396586 55.000000
    endloop
  endfacet
  facet normal 1.000000 0.000000 0.000000
    outer loop
      vertex 24.497000 -28.350000 53.398478
      vertex 24.497000 -22.786757 55.000000
      vertex 24.497000 -33.850000 55.000000
    endloop
  endfacet
  facet normal 1.000000 0.000000 0.000000
    outer loop
      vertex 24.497000 -22.786757 45.000000
      vertex 24.497000 -22.786757 55.000000
      vertex 24.497000 -25.592538 50.486215
    endloop
  endfacet
  facet normal 1.000000 0.000000 0.000000
    outer loop
      vertex 24.497000 -30.774871 48.600000
      vertex 24.497000 -31.107462 50.486215
      vertex 24.497000 -33.850000 55.000000
    endloop
  endfacet
  facet normal 1.000000 0.000000 0.000000
    outer loop
      vertex 24.497000 -22.786757 45.000000
      vertex 24.497000 -25.592538 50.486215
      vertex 24.497000 -25.925129 48.600000
    endloop
  endfacet
  facet normal 1.000000 0.000000 0.000000
    outer loop
      vertex 24.497000 -33.850000 45.000000
      vertex 24.497000 -22.786757 45.000000
      vertex 24.497000 -27.392344 47.368861
    endloop
  endfacet
  facet normal 1.000000 0.000000 0.000000
    outer loop
      vertex 24.497000 -33.850000 45.000000
      vertex 24.497000 -27.392344 47.368861
      vertex 24.497000 -29.307656 47.368861
    endloop
  endfacet
  facet normal 1.000000 0.000000 0.000000
    outer loop
      vertex 24.497000 -33.850000 45.000000
      vertex 24.497000 -30.774871 48.600000
      vertex 24.497000 -33.850000 55.000000
    endloop
  endfacet
  facet normal 1.000000 0.000000 0.000000
    outer loop
      vertex 24.497000 -33.850000 45.000000
      vertex 24.497000 -29.307656 47.368861
      vertex 24.497000 -30.774871 48.600000
    endloop
  endfacet
  facet normal 1.000000 0.000000 0.000000
    outer loop
      vertex 24.497000 -30.149805 52.144924
      vertex 24.497000 -29.290959 52.457519
      vertex 24.497000 -33.850000 55.000000
    endloop
  endfacet
  facet normal 1.000000 0.000000 0.000000
    outer loop
      vertex 24.497000 -27.409041 52.457519
      vertex 24.497000 -22.786757 55.000000
      vertex 24.497000 -28.350000 53.398478
    endloop
  endfacet
  facet normal 1.000000 0.000000 0.000000
    outer loop
      vertex 24.497000 -26.550195 52.144924
      vertex 24.497000 -22.786757 55.000000
      vertex 24.497000 -27.409041 52.457519
    endloop
  endfacet
  facet normal 1.000000 0.000000 0.000000
    outer loop
      vertex 24.497000 -25.592538 50.486215
      vertex 24.497000 -22.786757 55.000000
      vertex 24.497000 -26.550195 52.144924
    endloop
  endfacet
  facet normal 1.000000 0.000000 0.000000
    outer loop
      vertex 24.497000 -29.290959 52.457519
      vertex 24.497000 -28.350000 53.398478
      vertex 24.497000 -33.850000 55.000000
    endloop
  endfacet
  facet normal 1.000000 0.000000 -0.000000
    outer loop
      vertex 24.497000 -25.925129 48.600000
      vertex 24.497000 -27.392344 47.368861
      vertex 24.497000 -22.786757 45.000000
    endloop
  endfacet
  facet normal 1.000000 0.000000 0.000000
    outer loop
      vertex 24.497000 -31.107462 50.486215
      vertex 24.497000 -30.149805 52.144924
      vertex 24.497000 -33.850000 55.000000
    endloop
  endfacet
endsolid
