solid
  facet normal -1.000000 -0.000000 -0.000000
    outer loop
      vertex 0.000000 0.000000 -45.000000
      vertex 0.000000 0.000000 -35.000000
      vertex 0.000000 29.550000 -45.000000
    endloop
  endfacet
  facet normal -1.000000 0.000000 0.000000
    outer loop
      vertex 0.000000 29.550000 -45.000000
      vertex 0.000000 0.000000 -35.000000
      vertex 0.000000 29.550000 -35.000000
    endloop
  endfacet
  facet normal 0.000000 -1.000000 0.000000
    outer loop
      vertex 0.000000 0.000000 -35.000000
      vertex 0.000000 0.000000 -45.000000
      vertex 60.000000 0.000000 -45.000000
    endloop
  endfacet
  facet normal 0.000000 -1.000000 0.000000
    outer loop
      vertex 60.000000 0.000000 -35.000000
      vertex 0.000000 0.000000 -35.000000
      vertex 60.000000 0.000000 -45.000000
    endloop
  endfacet
  facet normal 0.000000 -0.000000 -1.000000
    outer loop
      vertex 28.319312 18.559069 -45.000000
      vertex 0.000000 29.550000 -45.000000
      vertex 60.000000 29.550000 -45.000000
    endloop
  endfacet
  facet normal 0.000000 -0.000000 -1.000000
    outer loop
      vertex 1.922556 14.332530 -45.000000
      vertex 0.000000 29.550000 -45.000000
      vertex 1.934584 14.416190 -45.000000
    endloop
  endfacet
  facet normal 0.000000 -0.000000 -1.000000
    outer loop
      vertex 0.000000 0.000000 -45.000000
      vertex 0.000000 29.550000 -45.000000
      vertex 1.922556 14.332530 -45.000000
    endloop
  endfacet
  facet normal 0.000000 0.000000 -1.000000
    outer loop
      vertex 5.875932 11.791849 -45.000000
      vertex 60.000000 0.000000 -45.000000
      vertex 4.124068 11.791849 -45.000000
    endloop
  endfacet
  facet normal 0.000000 0.000000 -1.000000
    outer loop
      vertex 0.000000 0.000000 -45.000000
      vertex 2.615195 12.815861 -45.000000
      vertex 2.650306 12.738979 -45.000000
    endloop
  endfacet
  facet normal 0.000000 0.000000 -1.000000
    outer loop
      vertex 0.000000 0.000000 -45.000000
      vertex 2.650306 12.738979 -45.000000
      vertex 4.052965 11.837544 -45.000000
    endloop
  endfacet
  facet normal 0.000000 0.000000 -1.000000
    outer loop
      vertex 0.000000 0.000000 -45.000000
      vertex 4.052965 11.837544 -45.000000
      vertex 4.124068 11.791849 -45.000000
    endloop
  endfacet
  facet normal -0.000000 0.000000 -1.000000
    outer loop
      vertex 0.000000 0.000000 -45.000000
      vertex 4.124068 11.791849 -45.000000
      vertex 60.000000 0.000000 -45.000000
    endloop
  endfacet
  facet normal 0.000000 0.000000 -1.000000
    outer loop
      vertex 7.278592 12.693284 -45.000000
      vertex 60.000000 0.000000 -45.000000
      vertex 5.875932 11.791849 -45.000000
    endloop
  endfacet
  facet normal 0.000000 0.000000 -1.000000
    outer loop
      vertex 8.042334 14.255648 -45.000000
      vertex 60.000000 0.000000 -45.000000
      vertex 7.349694 12.738979 -45.000000
    endloop
  endfacet
  facet normal -0.000000 0.000000 -1.000000
    outer loop
      vertex 7.278592 12.693284 -45.000000
      vertex 7.349694 12.738979 -45.000000
      vertex 60.000000 0.000000 -45.000000
    endloop
  endfacet
  facet normal 0.000000 0.000000 -1.000000
    outer loop
      vertex 28.319312 10.990931 -45.000000
      vertex 60.000000 0.000000 -45.000000
      vertex 26.497000 10.575000 -45.000000
    endloop
  endfacet
  facet normal -0.000000 -0.000000 -1.000000
    outer loop
      vertex 6.736251 17.326658 -45.000000
      vertex 0.000000 29.550000 -45.000000
      vertex 7.828128 16.066564 -45.000000
    endloop
  endfacet
  facet normal -0.000000 0.000000 -1.000000
    outer loop
      vertex 8.042334 14.255648 -45.000000
      vertex 8.077444 14.332530 -45.000000
      vertex 60.000000 0.000000 -45.000000
    endloop
  endfacet
  facet normal -0.000000 -0.000000 -1.000000
    outer loop
      vertex 5.081096 17.860279 -45.000000
      vertex 0.000000 29.550000 -45.000000
      vertex 6.680902 17.390534 -45.000000
    endloop
  endfacet
  facet normal -0.000000 -0.000000 -1.000000
    outer loop
      vertex 8.077444 14.332530 -45.000000
      vertex 7.840157 15.982904 -45.000000
      vertex 60.000000 0.000000 -45.000000
    endloop
  endfacet
  facet normal -0.000000 -0.000000 -1.000000
    outer loop
      vertex 7.840157 15.982904 -45.000000
      vertex 7.828128 16.066564 -45.000000
      vertex 60.000000 0.000000 -45.000000
    endloop
  endfacet
  facet normal -0.000000 -0.000000 -1.000000
    outer loop
      vertex 6.680902 17.390534 -45.000000
      vertex 0.000000 29.550000 -45.000000
      vertex 6.736251 17.326658 -45.000000
    endloop
  endfacet
  facet normal -0.000000 -0.000000 -1.000000
    outer loop
      vertex 5.000000 17.884091 -45.000000
      vertex 0.000000 29.550000 -45.000000
      vertex 5.081096 17.860279 -45.000000
    endloop
  endfacet
  facet normal 0.000000 -0.000000 -1.000000
    outer loop
      vertex 3.400194 17.414346 -45.000000
      vertex 0.000000 29.550000 -45.000000
      vertex 5.000000 17.884091 -45.000000
    endloop
  endfacet
  facet normal 0.000000 -0.000000 -1.000000
    outer loop
      vertex 3.319098 17.390534 -45.000000
      vertex 0.000000 29.550000 -45.000000
      vertex 3.400194 17.414346 -45.000000
    endloop
  endfacet
  facet normal 0.000000 -0.000000 -1.000000
    outer loop
      vertex 2.227220 16.130439 -45.000000
      vertex 0.000000 29.550000 -45.000000
      vertex 3.319098 17.390534 -45.000000
    endloop
  endfacet
  facet normal 0.000000 -0.000000 -1.000000
    outer loop
      vertex 2.171872 16.066564 -45.000000
      vertex 0.000000 29.550000 -45.000000
      vertex 2.227220 16.130439 -45.000000
    endloop
  endfacet
  facet normal 0.000000 -0.000000 -1.000000
    outer loop
      vertex 1.934584 14.416190 -45.000000
      vertex 0.000000 29.550000 -45.000000
      vertex 2.171872 16.066564 -45.000000
    endloop
  endfacet
  facet normal -0.000000 -0.000000 -1.000000
    outer loop
      vertex 7.828128 16.066564 -45.000000
      vertex 0.000000 29.550000 -45.000000
      vertex 22.402303 15.709588 -45.000000
    endloop
  endfacet
  facet normal 0.000000 0.000000 -1.000000
    outer loop
      vertex 7.828128 16.066564 -45.000000
      vertex 22.402303 15.709588 -45.000000
      vertex 22.402303 13.840412 -45.000000
    endloop
  endfacet
  facet normal 0.000000 0.000000 -1.000000
    outer loop
      vertex 7.828128 16.066564 -45.000000
      vertex 22.402303 13.840412 -45.000000
      vertex 23.213308 12.156343 -45.000000
    endloop
  endfacet
  facet normal 0.000000 0.000000 -1.000000
    outer loop
      vertex 7.828128 16.066564 -45.000000
      vertex 23.213308 12.156343 -45.000000
      vertex 24.674688 10.990931 -45.000000
    endloop
  endfacet
  facet normal 0.000000 0.000000 -1.000000
    outer loop
      vertex 7.828128 16.066564 -45.000000
      vertex 24.674688 10.990931 -45.000000
      vertex 60.000000 0.000000 -45.000000
    endloop
  endfacet
  facet normal 0.000000 0.000000 -1.000000
    outer loop
      vertex 24.674688 10.990931 -45.000000
      vertex 26.497000 10.575000 -45.000000
      vertex 60.000000 0.000000 -45.000000
    endloop
  endfacet
  facet normal 0.000000 0.000000 -1.000000
    outer loop
      vertex 29.780692 12.156343 -45.000000
      vertex 60.000000 0.000000 -45.000000
      vertex 28.319312 10.990931 -45.000000
    endloop
  endfacet
  facet normal 0.000000 0.000000 -1.000000
    outer loop
      vertex 30.591697 13.840412 -45.000000
      vertex 60.000000 0.000000 -45.000000
      vertex 29.780692 12.156343 -45.000000
    endloop
  endfacet
  facet normal 0.000000 0.000000 -1.000000
    outer loop
      vertex 54.052965 11.201300 -45.000000
      vertex 60.000000 0.000000 -45.000000
      vertex 52.650306 12.102735 -45.000000
    endloop
  endfacet
  facet normal 0.000000 0.000000 -1.000000
    outer loop
      vertex 30.591697 15.709588 -45.000000
      vertex 60.000000 0.000000 -45.000000
      vertex 30.591697 13.840412 -45.000000
    endloop
  endfacet
  facet normal 0.000000 -0.000000 -1.000000
    outer loop
      vertex 24.674688 18.559069 -45.000000
      vertex 0.000000 29.550000 -45.000000
      vertex 26.497000 18.975000 -45.000000
    endloop
  endfacet
  facet normal 0.000000 -0.000000 -1.000000
    outer loop
      vertex 53.400194 16.778102 -45.000000
      vertex 30.591697 15.709588 -45.000000
      vertex 60.000000 29.550000 -45.000000
    endloop
  endfacet
  facet normal 0.000000 -0.000000 -1.000000
    outer loop
      vertex 23.213308 17.393657 -45.000000
      vertex 0.000000 29.550000 -45.000000
      vertex 24.674688 18.559069 -45.000000
    endloop
  endfacet
  facet normal 0.000000 -0.000000 -1.000000
    outer loop
      vertex 30.591697 15.709588 -45.000000
      vertex 29.780692 17.393657 -45.000000
      vertex 60.000000 29.550000 -45.000000
    endloop
  endfacet
  facet normal -0.000000 -0.000000 -1.000000
    outer loop
      vertex 26.497000 18.975000 -45.000000
      vertex 0.000000 29.550000 -45.000000
      vertex 28.319312 18.559069 -45.000000
    endloop
  endfacet
  facet normal 0.000000 -0.000000 -1.000000
    outer loop
      vertex 29.780692 17.393657 -45.000000
      vertex 28.319312 18.559069 -45.000000
      vertex 60.000000 29.550000 -45.000000
    endloop
  endfacet
  facet normal 0.000000 -0.000000 -1.000000
    outer loop
      vertex 22.402303 15.709588 -45.000000
      vertex 0.000000 29.550000 -45.000000
      vertex 23.213308 17.393657 -45.000000
    endloop
  endfacet
  facet normal 0.000000 -0.000000 -1.000000
    outer loop
      vertex 51.922556 13.696286 -45.000000
      vertex 30.591697 15.709588 -45.000000
      vertex 51.934584 13.779946 -45.000000
    endloop
  endfacet
  facet normal 0.000000 0.000000 -1.000000
    outer loop
      vertex 52.615195 12.179617 -45.000000
      vertex 30.591697 15.709588 -45.000000
      vertex 51.922556 13.696286 -45.000000
    endloop
  endfacet
  facet normal 0.000000 0.000000 -1.000000
    outer loop
      vertex 52.650306 12.102735 -45.000000
      vertex 30.591697 15.709588 -45.000000
      vertex 52.615195 12.179617 -45.000000
    endloop
  endfacet
  facet normal 0.000000 0.000000 -1.000000
    outer loop
      vertex 60.000000 0.000000 -45.000000
      vertex 30.591697 15.709588 -45.000000
      vertex 52.650306 12.102735 -45.000000
    endloop
  endfacet
  facet normal -0.000000 0.000000 -1.000000
    outer loop
      vertex 57.840157 15.346660 -45.000000
      vertex 60.000000 29.550000 -45.000000
      vertex 58.077444 13.696286 -45.000000
    endloop
  endfacet
  facet normal 0.000000 0.000000 -1.000000
    outer loop
      vertex 60.000000 0.000000 -45.000000
      vertex 54.052965 11.201300 -45.000000
      vertex 54.124068 11.155605 -45.000000
    endloop
  endfacet
  facet normal 0.000000 0.000000 -1.000000
    outer loop
      vertex 60.000000 0.000000 -45.000000
      vertex 54.124068 11.155605 -45.000000
      vertex 55.875932 11.155605 -45.000000
    endloop
  endfacet
  facet normal 0.000000 0.000000 -1.000000
    outer loop
      vertex 60.000000 0.000000 -45.000000
      vertex 55.875932 11.155605 -45.000000
      vertex 57.278592 12.057040 -45.000000
    endloop
  endfacet
  facet normal 0.000000 0.000000 -1.000000
    outer loop
      vertex 60.000000 0.000000 -45.000000
      vertex 57.278592 12.057040 -45.000000
      vertex 57.349694 12.102735 -45.000000
    endloop
  endfacet
  facet normal 0.000000 0.000000 -1.000000
    outer loop
      vertex 60.000000 0.000000 -45.000000
      vertex 57.349694 12.102735 -45.000000
      vertex 58.042334 13.619404 -45.000000
    endloop
  endfacet
  facet normal 0.000000 0.000000 -1.000000
    outer loop
      vertex 60.000000 0.000000 -45.000000
      vertex 58.042334 13.619404 -45.000000
      vertex 58.077444 13.696286 -45.000000
    endloop
  endfacet
  facet normal 0.000000 0.000000 -1.000000
    outer loop
      vertex 60.000000 0.000000 -45.000000
      vertex 58.077444 13.696286 -45.000000
      vertex 60.000000 29.550000 -45.000000
    endloop
  endfacet
  facet normal -0.000000 0.000000 -1.000000
    outer loop
      vertex 56.736251 16.690414 -45.000000
      vertex 60.000000 29.550000 -45.000000
      vertex 57.828128 15.430319 -45.000000
    endloop
  endfacet
  facet normal 0.000000 -0.000000 -1.000000
    outer loop
      vertex 57.840157 15.346660 -45.000000
      vertex 57.828128 15.430319 -45.000000
      vertex 60.000000 29.550000 -45.000000
    endloop
  endfacet
  facet normal -0.000000 0.000000 -1.000000
    outer loop
      vertex 55.081096 17.224035 -45.000000
      vertex 60.000000 29.550000 -45.000000
      vertex 56.680902 16.754290 -45.000000
    endloop
  endfacet
  facet normal 0.000000 -0.000000 -1.000000
    outer loop
      vertex 56.736251 16.690414 -45.000000
      vertex 56.680902 16.754290 -45.000000
      vertex 60.000000 29.550000 -45.000000
    endloop
  endfacet
  facet normal 0.000000 0.000000 -1.000000
    outer loop
      vertex 53.400194 16.778102 -45.000000
      vertex 60.000000 29.550000 -45.000000
      vertex 55.000000 17.247847 -45.000000
    endloop
  endfacet
  facet normal 0.000000 -0.000000 -1.000000
    outer loop
      vertex 55.081096 17.224035 -45.000000
      vertex 55.000000 17.247847 -45.000000
      vertex 60.000000 29.550000 -45.000000
    endloop
  endfacet
  facet normal 0.000000 -0.000000 -1.000000
    outer loop
      vertex 53.319098 16.754290 -45.000000
      vertex 30.591697 15.709588 -45.000000
      vertex 53.400194 16.778102 -45.000000
    endloop
  endfacet
  facet normal 0.000000 -0.000000 -1.000000
    outer loop
      vertex 52.227220 15.494195 -45.000000
      vertex 30.591697 15.709588 -45.000000
      vertex 53.319098 16.754290 -45.000000
    endloop
  endfacet
  facet normal 0.000000 -0.000000 -1.000000
    outer loop
      vertex 52.171872 15.430319 -45.000000
      vertex 30.591697 15.709588 -45.000000
      vertex 52.227220 15.494195 -45.000000
    endloop
  endfacet
  facet normal 0.000000 -0.000000 -1.000000
    outer loop
      vertex 51.934584 13.779946 -45.000000
      vertex 30.591697 15.709588 -45.000000
      vertex 52.171872 15.430319 -45.000000
    endloop
  endfacet
  facet normal 0.000000 0.000000 -1.000000
    outer loop
      vertex 2.615195 12.815861 -45.000000
      vertex 0.000000 0.000000 -45.000000
      vertex 1.922556 14.332530 -45.000000
    endloop
  endfacet
  facet normal 0.000000 1.000000 0.000000
    outer loop
      vertex 0.000000 29.550000 -45.000000
      vertex 0.000000 29.550000 -35.000000
      vertex 60.000000 29.550000 -45.000000
    endloop
  endfacet
  facet normal 0.000000 1.000000 0.000000
    outer loop
      vertex 60.000000 29.550000 -45.000000
      vertex 0.000000 29.550000 -35.000000
      vertex 60.000000 29.550000 -35.000000
    endloop
  endfacet
  facet normal 0.000000 -0.000000 1.000000
    outer loop
      vertex 22.859500 8.474665 -35.000000
      vertex 0.000000 0.000000 -35.000000
      vertex 60.000000 0.000000 -35.000000
    endloop
  endfacet
  facet normal 0.000000 0.000000 1.000000
    outer loop
      vertex 30.134500 21.075335 -35.000000
      vertex 33.772000 14.775000 -35.000000
      vertex 60.000000 0.000000 -35.000000
    endloop
  endfacet
  facet normal 0.000000 0.000000 1.000000
    outer loop
      vertex 7.487104 12.619913 -35.000000
      vertex 5.993949 11.660321 -35.000000
      vertex 0.000000 0.000000 -35.000000
    endloop
  endfacet
  facet normal 0.000000 -0.000000 1.000000
    outer loop
      vertex 1.742587 14.306655 -35.000000
      vertex 0.000000 0.000000 -35.000000
      vertex 1.775570 14.234432 -35.000000
    endloop
  endfacet
  facet normal 0.000000 -0.000000 1.000000
    outer loop
      vertex 0.000000 29.550000 -35.000000
      vertex 0.000000 0.000000 -35.000000
      vertex 1.742587 14.306655 -35.000000
    endloop
  endfacet
  facet normal 0.000000 0.000000 1.000000
    outer loop
      vertex 22.859500 8.474665 -35.000000
      vertex 7.993517 16.142094 -35.000000
      vertex 8.246113 14.385244 -35.000000
    endloop
  endfacet
  facet normal 0.000000 0.000000 1.000000
    outer loop
      vertex 22.859500 8.474665 -35.000000
      vertex 7.941522 16.202098 -35.000000
      vertex 7.993517 16.142094 -35.000000
    endloop
  endfacet
  facet normal 0.000000 0.000000 1.000000
    outer loop
      vertex 0.000000 29.550000 -35.000000
      vertex 1.995184 16.063504 -35.000000
      vertex 2.006483 16.142094 -35.000000
    endloop
  endfacet
  facet normal 0.000000 -0.000000 1.000000
    outer loop
      vertex 30.134500 8.474665 -35.000000
      vertex 22.859500 8.474665 -35.000000
      vertex 60.000000 0.000000 -35.000000
    endloop
  endfacet
  facet normal 0.000000 0.000000 1.000000
    outer loop
      vertex 0.000000 29.550000 -35.000000
      vertex 2.006483 16.142094 -35.000000
      vertex 3.168806 17.483485 -35.000000
    endloop
  endfacet
  facet normal 0.000000 0.000000 1.000000
    outer loop
      vertex 22.859500 8.474665 -35.000000
      vertex 19.222000 14.775000 -35.000000
      vertex 6.779200 17.543489 -35.000000
    endloop
  endfacet
  facet normal 0.000000 0.000000 1.000000
    outer loop
      vertex 0.000000 29.550000 -35.000000
      vertex 3.168806 17.483485 -35.000000
      vertex 3.220800 17.543489 -35.000000
    endloop
  endfacet
  facet normal 0.000000 0.000000 1.000000
    outer loop
      vertex 0.000000 29.550000 -35.000000
      vertex 3.220800 17.543489 -35.000000
      vertex 4.923819 18.043540 -35.000000
    endloop
  endfacet
  facet normal 0.000000 0.000000 1.000000
    outer loop
      vertex 0.000000 29.550000 -35.000000
      vertex 4.923819 18.043540 -35.000000
      vertex 5.000000 18.065909 -35.000000
    endloop
  endfacet
  facet normal 0.000000 0.000000 1.000000
    outer loop
      vertex 0.000000 29.550000 -35.000000
      vertex 5.000000 18.065909 -35.000000
      vertex 6.703019 17.565858 -35.000000
    endloop
  endfacet
  facet normal 0.000000 0.000000 1.000000
    outer loop
      vertex 52.006483 15.505849 -35.000000
      vertex 53.168806 16.847241 -35.000000
      vertex 60.000000 29.550000 -35.000000
    endloop
  endfacet
  facet normal 0.000000 0.000000 1.000000
    outer loop
      vertex 0.000000 29.550000 -35.000000
      vertex 6.703019 17.565858 -35.000000
      vertex 6.779200 17.543489 -35.000000
    endloop
  endfacet
  facet normal 0.000000 0.000000 1.000000
    outer loop
      vertex 19.222000 14.775000 -35.000000
      vertex 22.859500 21.075335 -35.000000
      vertex 0.000000 29.550000 -35.000000
    endloop
  endfacet
  facet normal 0.000000 0.000000 1.000000
    outer loop
      vertex 22.859500 8.474665 -35.000000
      vertex 7.520086 12.692136 -35.000000
      vertex 7.487104 12.619913 -35.000000
    endloop
  endfacet
  facet normal 0.000000 0.000000 1.000000
    outer loop
      vertex 22.859500 8.474665 -35.000000
      vertex 8.257413 14.306655 -35.000000
      vertex 7.520086 12.692136 -35.000000
    endloop
  endfacet
  facet normal 0.000000 -0.000000 1.000000
    outer loop
      vertex 5.927156 11.617396 -35.000000
      vertex 0.000000 0.000000 -35.000000
      vertex 5.993949 11.660321 -35.000000
    endloop
  endfacet
  facet normal 0.000000 -0.000000 1.000000
    outer loop
      vertex 4.072844 11.617396 -35.000000
      vertex 0.000000 0.000000 -35.000000
      vertex 5.927156 11.617396 -35.000000
    endloop
  endfacet
  facet normal 0.000000 -0.000000 1.000000
    outer loop
      vertex 2.579690 12.576988 -35.000000
      vertex 0.000000 0.000000 -35.000000
      vertex 4.072844 11.617396 -35.000000
    endloop
  endfacet
  facet normal 0.000000 -0.000000 1.000000
    outer loop
      vertex 2.512896 12.619913 -35.000000
      vertex 0.000000 0.000000 -35.000000
      vertex 2.579690 12.576988 -35.000000
    endloop
  endfacet
  facet normal 0.000000 -0.000000 1.000000
    outer loop
      vertex 1.775570 14.234432 -35.000000
      vertex 0.000000 0.000000 -35.000000
      vertex 2.512896 12.619913 -35.000000
    endloop
  endfacet
  facet normal 0.000000 -0.000000 1.000000
    outer loop
      vertex 7.487104 12.619913 -35.000000
      vertex 0.000000 0.000000 -35.000000
      vertex 22.859500 8.474665 -35.000000
    endloop
  endfacet
  facet normal 0.000000 0.000000 1.000000
    outer loop
      vertex 53.220800 16.907245 -35.000000
      vertex 54.923819 17.407296 -35.000000
      vertex 60.000000 29.550000 -35.000000
    endloop
  endfacet
  facet normal 0.000000 0.000000 1.000000
    outer loop
      vertex 0.000000 29.550000 -35.000000
      vertex 6.779200 17.543489 -35.000000
      vertex 19.222000 14.775000 -35.000000
    endloop
  endfacet
  facet normal 0.000000 -0.000000 1.000000
    outer loop
      vertex 33.772000 14.775000 -35.000000
      vertex 30.134500 8.474665 -35.000000
      vertex 60.000000 0.000000 -35.000000
    endloop
  endfacet
  facet normal 0.000000 0.000000 1.000000
    outer loop
      vertex 60.000000 29.550000 -35.000000
      vertex 0.000000 29.550000 -35.000000
      vertex 22.859500 21.075335 -35.000000
    endloop
  endfacet
  facet normal -0.000000 -0.000000 1.000000
    outer loop
      vertex 52.579690 11.940744 -35.000000
      vertex 30.134500 21.075335 -35.000000
      vertex 60.000000 0.000000 -35.000000
    endloop
  endfacet
  facet normal 0.000000 0.000000 1.000000
    outer loop
      vertex 60.000000 29.550000 -35.000000
      vertex 22.859500 21.075335 -35.000000
      vertex 30.134500 21.075335 -35.000000
    endloop
  endfacet
  facet normal 0.000000 -0.000000 1.000000
    outer loop
      vertex 58.257413 13.670411 -35.000000
      vertex 57.520086 12.055892 -35.000000
      vertex 60.000000 0.000000 -35.000000
    endloop
  endfacet
  facet normal 0.000000 0.000000 1.000000
    outer loop
      vertex 22.859500 8.474665 -35.000000
      vertex 8.246113 14.385244 -35.000000
      vertex 8.257413 14.306655 -35.000000
    endloop
  endfacet
  facet normal -0.000000 -0.000000 1.000000
    outer loop
      vertex 51.742587 13.670411 -35.000000
      vertex 30.134500 21.075335 -35.000000
      vertex 51.775570 13.598188 -35.000000
    endloop
  endfacet
  facet normal -0.000000 0.000000 1.000000
    outer loop
      vertex 51.995184 15.427260 -35.000000
      vertex 30.134500 21.075335 -35.000000
      vertex 51.742587 13.670411 -35.000000
    endloop
  endfacet
  facet normal -0.000000 0.000000 1.000000
    outer loop
      vertex 52.006483 15.505849 -35.000000
      vertex 30.134500 21.075335 -35.000000
      vertex 51.995184 15.427260 -35.000000
    endloop
  endfacet
  facet normal 0.000000 0.000000 1.000000
    outer loop
      vertex 60.000000 29.550000 -35.000000
      vertex 30.134500 21.075335 -35.000000
      vertex 52.006483 15.505849 -35.000000
    endloop
  endfacet
  facet normal 0.000000 0.000000 1.000000
    outer loop
      vertex 60.000000 29.550000 -35.000000
      vertex 53.168806 16.847241 -35.000000
      vertex 53.220800 16.907245 -35.000000
    endloop
  endfacet
  facet normal -0.000000 -0.000000 1.000000
    outer loop
      vertex 54.072844 10.981152 -35.000000
      vertex 52.579690 11.940744 -35.000000
      vertex 60.000000 0.000000 -35.000000
    endloop
  endfacet
  facet normal 0.000000 0.000000 1.000000
    outer loop
      vertex 60.000000 29.550000 -35.000000
      vertex 54.923819 17.407296 -35.000000
      vertex 55.000000 17.429665 -35.000000
    endloop
  endfacet
  facet normal 0.000000 0.000000 1.000000
    outer loop
      vertex 60.000000 29.550000 -35.000000
      vertex 55.000000 17.429665 -35.000000
      vertex 56.703019 16.929614 -35.000000
    endloop
  endfacet
  facet normal 0.000000 -0.000000 1.000000
    outer loop
      vertex 57.487104 11.983669 -35.000000
      vertex 55.993949 11.024077 -35.000000
      vertex 60.000000 0.000000 -35.000000
    endloop
  endfacet
  facet normal 0.000000 0.000000 1.000000
    outer loop
      vertex 60.000000 29.550000 -35.000000
      vertex 56.703019 16.929614 -35.000000
      vertex 56.779200 16.907245 -35.000000
    endloop
  endfacet
  facet normal 0.000000 0.000000 1.000000
    outer loop
      vertex 60.000000 29.550000 -35.000000
      vertex 56.779200 16.907245 -35.000000
      vertex 57.941522 15.565854 -35.000000
    endloop
  endfacet
  facet normal 0.000000 0.000000 1.000000
    outer loop
      vertex 60.000000 29.550000 -35.000000
      vertex 57.941522 15.565854 -35.000000
      vertex 57.993517 15.505849 -35.000000
    endloop
  endfacet
  facet normal 0.000000 0.000000 1.000000
    outer loop
      vertex 60.000000 29.550000 -35.000000
      vertex 57.993517 15.505849 -35.000000
      vertex 58.246113 13.749000 -35.000000
    endloop
  endfacet
  facet normal 0.000000 0.000000 1.000000
    outer loop
      vertex 60.000000 29.550000 -35.000000
      vertex 58.257413 13.670411 -35.000000
      vertex 60.000000 0.000000 -35.000000
    endloop
  endfacet
  facet normal 0.000000 0.000000 1.000000
    outer loop
      vertex 60.000000 29.550000 -35.000000
      vertex 58.246113 13.749000 -35.000000
      vertex 58.257413 13.670411 -35.000000
    endloop
  endfacet
  facet normal 0.000000 -0.000000 1.000000
    outer loop
      vertex 57.520086 12.055892 -35.000000
      vertex 57.487104 11.983669 -35.000000
      vertex 60.000000 0.000000 -35.000000
    endloop
  endfacet
  facet normal 0.000000 -0.000000 1.000000
    outer loop
      vertex 55.993949 11.024077 -35.000000
      vertex 55.927156 10.981152 -35.000000
      vertex 60.000000 0.000000 -35.000000
    endloop
  endfacet
  facet normal 0.000000 -0.000000 1.000000
    outer loop
      vertex 55.927156 10.981152 -35.000000
      vertex 54.072844 10.981152 -35.000000
      vertex 60.000000 0.000000 -35.000000
    endloop
  endfacet
  facet normal -0.000000 -0.000000 1.000000
    outer loop
      vertex 52.512896 11.983669 -35.000000
      vertex 30.134500 21.075335 -35.000000
      vertex 52.579690 11.940744 -35.000000
    endloop
  endfacet
  facet normal -0.000000 -0.000000 1.000000
    outer loop
      vertex 51.775570 13.598188 -35.000000
      vertex 30.134500 21.075335 -35.000000
      vertex 52.512896 11.983669 -35.000000
    endloop
  endfacet
  facet normal 0.000000 0.000000 1.000000
    outer loop
      vertex 1.742587 14.306655 -35.000000
      vertex 1.995184 16.063504 -35.000000
      vertex 0.000000 29.550000 -35.000000
    endloop
  endfacet
  facet normal 0.000000 0.000000 1.000000
    outer loop
      vertex 22.859500 8.474665 -35.000000
      vertex 6.779200 17.543489 -35.000000
      vertex 7.941522 16.202098 -35.000000
    endloop
  endfacet
  facet normal 1.000000 0.000000 -0.000000
    outer loop
      vertex 60.000000 0.000000 -35.000000
      vertex 60.000000 0.000000 -45.000000
      vertex 60.000000 29.550000 -45.000000
    endloop
  endfacet
  facet normal 1.000000 0.000000 0.000000
    outer loop
      vertex 60.000000 29.550000 -35.000000
      vertex 60.000000 0.000000 -35.000000
      vertex 60.000000 29.550000 -45.000000
    endloop
  endfacet
  facet normal 0.989671 -0.142293 0.017443
    outer loop
      vertex 1.922556 14.332530 -45.000000
      vertex 1.934584 14.416190 -45.000000
      vertex 1.995184 16.063504 -35.000000
    endloop
  endfacet
  facet normal 0.989671 -0.142293 0.017443
    outer loop
      vertex 1.742587 14.306655 -35.000000
      vertex 1.922556 14.332530 -45.000000
      vertex 1.995184 16.063504 -35.000000
    endloop
  endfacet
  facet normal 0.989671 -0.142293 0.017443
    outer loop
      vertex 2.171872 16.066564 -45.000000
      vertex 2.006483 16.142094 -35.000000
      vertex 1.995184 16.063504 -35.000000
    endloop
  endfacet
  facet normal 0.989671 -0.142293 0.017443
    outer loop
      vertex 1.934584 14.416190 -45.000000
      vertex 2.171872 16.066564 -45.000000
      vertex 1.995184 16.063504 -35.000000
    endloop
  endfacet
  facet normal 0.755635 -0.654761 0.017443
    outer loop
      vertex 2.171872 16.066564 -45.000000
      vertex 2.227220 16.130439 -45.000000
      vertex 3.168806 17.483485 -35.000000
    endloop
  endfacet
  facet normal 0.755635 -0.654761 0.017443
    outer loop
      vertex 2.006483 16.142094 -35.000000
      vertex 2.171872 16.066564 -45.000000
      vertex 3.168806 17.483485 -35.000000
    endloop
  endfacet
  facet normal 0.755635 -0.654761 0.017443
    outer loop
      vertex 3.319098 17.390534 -45.000000
      vertex 3.220800 17.543489 -35.000000
      vertex 3.168806 17.483485 -35.000000
    endloop
  endfacet
  facet normal 0.755635 -0.654761 0.017443
    outer loop
      vertex 2.227220 16.130439 -45.000000
      vertex 3.319098 17.390534 -45.000000
      vertex 3.168806 17.483485 -35.000000
    endloop
  endfacet
  facet normal 0.281689 -0.959347 0.017443
    outer loop
      vertex 3.319098 17.390534 -45.000000
      vertex 3.400194 17.414346 -45.000000
      vertex 4.923819 18.043540 -35.000000
    endloop
  endfacet
  facet normal 0.281689 -0.959347 0.017443
    outer loop
      vertex 3.220800 17.543489 -35.000000
      vertex 3.319098 17.390534 -45.000000
      vertex 4.923819 18.043540 -35.000000
    endloop
  endfacet
  facet normal 0.281690 -0.959347 0.017443
    outer loop
      vertex 5.000000 17.884091 -45.000000
      vertex 5.000000 18.065909 -35.000000
      vertex 4.923819 18.043540 -35.000000
    endloop
  endfacet
  facet normal 0.281690 -0.959347 0.017443
    outer loop
      vertex 3.400194 17.414346 -45.000000
      vertex 5.000000 17.884091 -45.000000
      vertex 4.923819 18.043540 -35.000000
    endloop
  endfacet
  facet normal -0.281689 -0.959347 0.017443
    outer loop
      vertex 5.081096 17.860279 -45.000000
      vertex 6.703019 17.565858 -35.000000
      vertex 5.000000 18.065909 -35.000000
    endloop
  endfacet
  facet normal -0.281689 -0.959347 0.017443
    outer loop
      vertex 5.000000 17.884091 -45.000000
      vertex 5.081096 17.860279 -45.000000
      vertex 5.000000 18.065909 -35.000000
    endloop
  endfacet
  facet normal -0.281690 -0.959347 0.017443
    outer loop
      vertex 6.680902 17.390534 -45.000000
      vertex 6.779200 17.543489 -35.000000
      vertex 6.703019 17.565858 -35.000000
    endloop
  endfacet
  facet normal -0.281690 -0.959347 0.017443
    outer loop
      vertex 5.081096 17.860279 -45.000000
      vertex 6.680902 17.390534 -45.000000
      vertex 6.703019 17.565858 -35.000000
    endloop
  endfacet
  facet normal -0.755635 -0.654761 0.017443
    outer loop
      vertex 7.941522 16.202098 -35.000000
      vertex 6.779200 17.543489 -35.000000
      vertex 6.736251 17.326658 -45.000000
    endloop
  endfacet
  facet normal -0.755635 -0.654761 0.017443
    outer loop
      vertex 6.736251 17.326658 -45.000000
      vertex 6.779200 17.543489 -35.000000
      vertex 6.680902 17.390534 -45.000000
    endloop
  endfacet
  facet normal -0.755635 -0.654761 0.017443
    outer loop
      vertex 7.993517 16.142094 -35.000000
      vertex 7.941522 16.202098 -35.000000
      vertex 7.828128 16.066564 -45.000000
    endloop
  endfacet
  facet normal -0.755635 -0.654761 0.017443
    outer loop
      vertex 7.828128 16.066564 -45.000000
      vertex 7.941522 16.202098 -35.000000
      vertex 6.736251 17.326658 -45.000000
    endloop
  endfacet
  facet normal -0.989671 -0.142293 0.017443
    outer loop
      vertex 8.246113 14.385244 -35.000000
      vertex 7.993517 16.142094 -35.000000
      vertex 7.840157 15.982904 -45.000000
    endloop
  endfacet
  facet normal -0.989671 -0.142293 0.017443
    outer loop
      vertex 7.840157 15.982904 -45.000000
      vertex 7.993517 16.142094 -35.000000
      vertex 7.828128 16.066564 -45.000000
    endloop
  endfacet
  facet normal -0.989671 -0.142293 0.017443
    outer loop
      vertex 8.257413 14.306655 -35.000000
      vertex 8.246113 14.385244 -35.000000
      vertex 8.077444 14.332530 -45.000000
    endloop
  endfacet
  facet normal -0.989671 -0.142293 0.017443
    outer loop
      vertex 8.077444 14.332530 -45.000000
      vertex 8.246113 14.385244 -35.000000
      vertex 7.840157 15.982904 -45.000000
    endloop
  endfacet
  facet normal -0.909494 0.415352 0.017443
    outer loop
      vertex 8.077444 14.332530 -45.000000
      vertex 8.042334 14.255648 -45.000000
      vertex 8.257413 14.306655 -35.000000
    endloop
  endfacet
  facet normal -0.909494 0.415352 0.017443
    outer loop
      vertex 8.257413 14.306655 -35.000000
      vertex 8.042334 14.255648 -45.000000
      vertex 7.520086 12.692136 -35.000000
    endloop
  endfacet
  facet normal -0.909494 0.415351 0.017443
    outer loop
      vertex 7.520086 12.692136 -35.000000
      vertex 8.042334 14.255648 -45.000000
      vertex 7.487104 12.619913 -35.000000
    endloop
  endfacet
  facet normal -0.909494 0.415351 0.017443
    outer loop
      vertex 7.487104 12.619913 -35.000000
      vertex 8.042334 14.255648 -45.000000
      vertex 7.349694 12.738979 -45.000000
    endloop
  endfacet
  facet normal -0.540559 0.841126 0.017443
    outer loop
      vertex 7.349694 12.738979 -45.000000
      vertex 7.278592 12.693284 -45.000000
      vertex 7.487104 12.619913 -35.000000
    endloop
  endfacet
  facet normal -0.540559 0.841126 0.017443
    outer loop
      vertex 7.487104 12.619913 -35.000000
      vertex 7.278592 12.693284 -45.000000
      vertex 5.993949 11.660321 -35.000000
    endloop
  endfacet
  facet normal -0.540559 0.841126 0.017443
    outer loop
      vertex 5.993949 11.660321 -35.000000
      vertex 7.278592 12.693284 -45.000000
      vertex 5.927156 11.617396 -35.000000
    endloop
  endfacet
  facet normal -0.540559 0.841126 0.017443
    outer loop
      vertex 5.927156 11.617396 -35.000000
      vertex 7.278592 12.693284 -45.000000
      vertex 5.875932 11.791849 -45.000000
    endloop
  endfacet
  facet normal -0.000000 0.999848 0.017443
    outer loop
      vertex 5.875932 11.791849 -45.000000
      vertex 4.124068 11.791849 -45.000000
      vertex 5.927156 11.617396 -35.000000
    endloop
  endfacet
  facet normal -0.000000 0.999848 0.017443
    outer loop
      vertex 5.927156 11.617396 -35.000000
      vertex 4.124068 11.791849 -45.000000
      vertex 4.072844 11.617396 -35.000000
    endloop
  endfacet
  facet normal 0.540559 0.841126 0.017443
    outer loop
      vertex 4.124068 11.791849 -45.000000
      vertex 4.052965 11.837544 -45.000000
      vertex 4.072844 11.617396 -35.000000
    endloop
  endfacet
  facet normal 0.540559 0.841126 0.017443
    outer loop
      vertex 4.072844 11.617396 -35.000000
      vertex 4.052965 11.837544 -45.000000
      vertex 2.579690 12.576988 -35.000000
    endloop
  endfacet
  facet normal 0.540559 0.841126 0.017443
    outer loop
      vertex 4.052965 11.837544 -45.000000
      vertex 2.650306 12.738979 -45.000000
      vertex 2.579690 12.576988 -35.000000
    endloop
  endfacet
  facet normal 0.540559 0.841126 0.017443
    outer loop
      vertex 2.579690 12.576988 -35.000000
      vertex 2.650306 12.738979 -45.000000
      vertex 2.512896 12.619913 -35.000000
    endloop
  endfacet
  facet normal 0.909494 0.415352 0.017443
    outer loop
      vertex 2.512896 12.619913 -35.000000
      vertex 2.650306 12.738979 -45.000000
      vertex 2.615195 12.815861 -45.000000
    endloop
  endfacet
  facet normal 0.909494 0.415352 0.017443
    outer loop
      vertex 1.775570 14.234432 -35.000000
      vertex 2.512896 12.619913 -35.000000
      vertex 2.615195 12.815861 -45.000000
    endloop
  endfacet
  facet normal 0.909494 0.415351 0.017443
    outer loop
      vertex 1.775570 14.234432 -35.000000
      vertex 2.615195 12.815861 -45.000000
      vertex 1.922556 14.332530 -45.000000
    endloop
  endfacet
  facet normal 0.909494 0.415351 0.017443
    outer loop
      vertex 1.742587 14.306655 -35.000000
      vertex 1.775570 14.234432 -35.000000
      vertex 1.922556 14.332530 -45.000000
    endloop
  endfacet
  facet normal 0.900969 -0.433884 0.000000
    outer loop
      vertex 23.213308 17.393657 -45.000000
      vertex 23.213308 17.393657 -41.200000
      vertex 22.402303 15.709588 -41.200000
    endloop
  endfacet
  facet normal 0.900969 -0.433884 0.000000
    outer loop
      vertex 22.402303 15.709588 -45.000000
      vertex 23.213308 17.393657 -45.000000
      vertex 22.402303 15.709588 -41.200000
    endloop
  endfacet
  facet normal 1.000000 -0.000000 0.000000
    outer loop
      vertex 22.402303 15.709588 -45.000000
      vertex 22.402303 15.709588 -41.200000
      vertex 22.402303 13.840412 -41.200000
    endloop
  endfacet
  facet normal 1.000000 -0.000000 0.000000
    outer loop
      vertex 22.402303 13.840412 -45.000000
      vertex 22.402303 15.709588 -45.000000
      vertex 22.402303 13.840412 -41.200000
    endloop
  endfacet
  facet normal 0.623490 -0.781831 0.000000
    outer loop
      vertex 24.674688 18.559069 -45.000000
      vertex 24.674688 18.559069 -41.200000
      vertex 23.213308 17.393657 -41.200000
    endloop
  endfacet
  facet normal 0.623490 -0.781831 0.000000
    outer loop
      vertex 23.213308 17.393657 -45.000000
      vertex 24.674688 18.559069 -45.000000
      vertex 23.213308 17.393657 -41.200000
    endloop
  endfacet
  facet normal 0.222521 -0.974928 0.000000
    outer loop
      vertex 26.497000 18.975000 -45.000000
      vertex 26.497000 18.975000 -41.200000
      vertex 24.674688 18.559069 -41.200000
    endloop
  endfacet
  facet normal 0.222521 -0.974928 0.000000
    outer loop
      vertex 24.674688 18.559069 -45.000000
      vertex 26.497000 18.975000 -45.000000
      vertex 24.674688 18.559069 -41.200000
    endloop
  endfacet
  facet normal -0.222521 -0.974928 -0.000000
    outer loop
      vertex 28.319312 18.559069 -45.000000
      vertex 28.319312 18.559069 -41.200000
      vertex 26.497000 18.975000 -41.200000
    endloop
  endfacet
  facet normal -0.222521 -0.974928 -0.000000
    outer loop
      vertex 26.497000 18.975000 -45.000000
      vertex 28.319312 18.559069 -45.000000
      vertex 26.497000 18.975000 -41.200000
    endloop
  endfacet
  facet normal -0.623490 -0.781831 -0.000000
    outer loop
      vertex 29.780692 17.393657 -45.000000
      vertex 29.780692 17.393657 -41.200000
      vertex 28.319312 18.559069 -41.200000
    endloop
  endfacet
  facet normal -0.623490 -0.781831 -0.000000
    outer loop
      vertex 28.319312 18.559069 -45.000000
      vertex 29.780692 17.393657 -45.000000
      vertex 28.319312 18.559069 -41.200000
    endloop
  endfacet
  facet normal -0.900969 -0.433884 0.000000
    outer loop
      vertex 30.591697 15.709588 -41.200000
      vertex 29.780692 17.393657 -41.200000
      vertex 30.591697 15.709588 -45.000000
    endloop
  endfacet
  facet normal -0.900969 -0.433884 0.000000
    outer loop
      vertex 30.591697 15.709588 -45.000000
      vertex 29.780692 17.393657 -41.200000
      vertex 29.780692 17.393657 -45.000000
    endloop
  endfacet
  facet normal -1.000000 0.000000 0.000000
    outer loop
      vertex 30.591697 15.709588 -41.200000
      vertex 30.591697 15.709588 -45.000000
      vertex 30.591697 13.840412 -41.200000
    endloop
  endfacet
  facet normal -1.000000 0.000000 0.000000
    outer loop
      vertex 30.591697 13.840412 -41.200000
      vertex 30.591697 15.709588 -45.000000
      vertex 30.591697 13.840412 -45.000000
    endloop
  endfacet
  facet normal -0.900969 0.433884 0.000000
    outer loop
      vertex 30.591697 13.840412 -41.200000
      vertex 30.591697 13.840412 -45.000000
      vertex 29.780692 12.156343 -41.200000
    endloop
  endfacet
  facet normal -0.900969 0.433884 0.000000
    outer loop
      vertex 29.780692 12.156343 -41.200000
      vertex 30.591697 13.840412 -45.000000
      vertex 29.780692 12.156343 -45.000000
    endloop
  endfacet
  facet normal -0.623490 0.781831 0.000000
    outer loop
      vertex 29.780692 12.156343 -41.200000
      vertex 29.780692 12.156343 -45.000000
      vertex 28.319312 10.990931 -41.200000
    endloop
  endfacet
  facet normal -0.623490 0.781831 0.000000
    outer loop
      vertex 28.319312 10.990931 -41.200000
      vertex 29.780692 12.156343 -45.000000
      vertex 28.319312 10.990931 -45.000000
    endloop
  endfacet
  facet normal -0.222521 0.974928 0.000000
    outer loop
      vertex 28.319312 10.990931 -41.200000
      vertex 28.319312 10.990931 -45.000000
      vertex 26.497000 10.575000 -41.200000
    endloop
  endfacet
  facet normal -0.222521 0.974928 0.000000
    outer loop
      vertex 26.497000 10.575000 -41.200000
      vertex 28.319312 10.990931 -45.000000
      vertex 26.497000 10.575000 -45.000000
    endloop
  endfacet
  facet normal 0.222521 0.974928 -0.000000
    outer loop
      vertex 26.497000 10.575000 -41.200000
      vertex 26.497000 10.575000 -45.000000
      vertex 24.674688 10.990931 -41.200000
    endloop
  endfacet
  facet normal 0.222521 0.974928 -0.000000
    outer loop
      vertex 24.674688 10.990931 -41.200000
      vertex 26.497000 10.575000 -45.000000
      vertex 24.674688 10.990931 -45.000000
    endloop
  endfacet
  facet normal 0.623490 0.781831 -0.000000
    outer loop
      vertex 24.674688 10.990931 -41.200000
      vertex 24.674688 10.990931 -45.000000
      vertex 23.213308 12.156343 -41.200000
    endloop
  endfacet
  facet normal 0.623490 0.781831 -0.000000
    outer loop
      vertex 23.213308 12.156343 -41.200000
      vertex 24.674688 10.990931 -45.000000
      vertex 23.213308 12.156343 -45.000000
    endloop
  endfacet
  facet normal 0.900969 0.433884 0.000000
    outer loop
      vertex 22.402303 13.840412 -41.200000
      vertex 23.213308 12.156343 -41.200000
      vertex 23.213308 12.156343 -45.000000
    endloop
  endfacet
  facet normal 0.900969 0.433884 0.000000
    outer loop
      vertex 22.402303 13.840412 -45.000000
      vertex 22.402303 13.840412 -41.200000
      vertex 23.213308 12.156343 -45.000000
    endloop
  endfacet
  facet normal 0.989671 -0.142293 0.017443
    outer loop
      vertex 51.922556 13.696286 -45.000000
      vertex 51.934584 13.779946 -45.000000
      vertex 51.995184 15.427260 -35.000000
    endloop
  endfacet
  facet normal 0.989671 -0.142293 0.017443
    outer loop
      vertex 51.742587 13.670411 -35.000000
      vertex 51.922556 13.696286 -45.000000
      vertex 51.995184 15.427260 -35.000000
    endloop
  endfacet
  facet normal 0.989671 -0.142293 0.017443
    outer loop
      vertex 52.171872 15.430319 -45.000000
      vertex 52.006483 15.505849 -35.000000
      vertex 51.995184 15.427260 -35.000000
    endloop
  endfacet
  facet normal 0.989671 -0.142293 0.017443
    outer loop
      vertex 51.934584 13.779946 -45.000000
      vertex 52.171872 15.430319 -45.000000
      vertex 51.995184 15.427260 -35.000000
    endloop
  endfacet
  facet normal 0.755635 -0.654761 0.017443
    outer loop
      vertex 52.171872 15.430319 -45.000000
      vertex 52.227220 15.494195 -45.000000
      vertex 53.168806 16.847241 -35.000000
    endloop
  endfacet
  facet normal 0.755635 -0.654761 0.017443
    outer loop
      vertex 52.006483 15.505849 -35.000000
      vertex 52.171872 15.430319 -45.000000
      vertex 53.168806 16.847241 -35.000000
    endloop
  endfacet
  facet normal 0.755635 -0.654761 0.017443
    outer loop
      vertex 53.319098 16.754290 -45.000000
      vertex 53.220800 16.907245 -35.000000
      vertex 53.168806 16.847241 -35.000000
    endloop
  endfacet
  facet normal 0.755635 -0.654761 0.017443
    outer loop
      vertex 52.227220 15.494195 -45.000000
      vertex 53.319098 16.754290 -45.000000
      vertex 53.168806 16.847241 -35.000000
    endloop
  endfacet
  facet normal 0.281689 -0.959347 0.017443
    outer loop
      vertex 53.319098 16.754290 -45.000000
      vertex 53.400194 16.778102 -45.000000
      vertex 54.923819 17.407296 -35.000000
    endloop
  endfacet
  facet normal 0.281689 -0.959347 0.017443
    outer loop
      vertex 53.220800 16.907245 -35.000000
      vertex 53.319098 16.754290 -45.000000
      vertex 54.923819 17.407296 -35.000000
    endloop
  endfacet
  facet normal 0.281690 -0.959347 0.017443
    outer loop
      vertex 55.000000 17.247847 -45.000000
      vertex 55.000000 17.429665 -35.000000
      vertex 54.923819 17.407296 -35.000000
    endloop
  endfacet
  facet normal 0.281690 -0.959347 0.017443
    outer loop
      vertex 53.400194 16.778102 -45.000000
      vertex 55.000000 17.247847 -45.000000
      vertex 54.923819 17.407296 -35.000000
    endloop
  endfacet
  facet normal -0.281689 -0.959347 0.017443
    outer loop
      vertex 55.081096 17.224035 -45.000000
      vertex 56.703019 16.929614 -35.000000
      vertex 55.000000 17.429665 -35.000000
    endloop
  endfacet
  facet normal -0.281689 -0.959347 0.017443
    outer loop
      vertex 55.000000 17.247847 -45.000000
      vertex 55.081096 17.224035 -45.000000
      vertex 55.000000 17.429665 -35.000000
    endloop
  endfacet
  facet normal -0.281690 -0.959347 0.017443
    outer loop
      vertex 56.680902 16.754290 -45.000000
      vertex 56.779200 16.907245 -35.000000
      vertex 56.703019 16.929614 -35.000000
    endloop
  endfacet
  facet normal -0.281690 -0.959347 0.017443
    outer loop
      vertex 55.081096 17.224035 -45.000000
      vertex 56.680902 16.754290 -45.000000
      vertex 56.703019 16.929614 -35.000000
    endloop
  endfacet
  facet normal -0.755635 -0.654761 0.017443
    outer loop
      vertex 57.941522 15.565854 -35.000000
      vertex 56.779200 16.907245 -35.000000
      vertex 56.736251 16.690414 -45.000000
    endloop
  endfacet
  facet normal -0.755635 -0.654761 0.017443
    outer loop
      vertex 56.736251 16.690414 -45.000000
      vertex 56.779200 16.907245 -35.000000
      vertex 56.680902 16.754290 -45.000000
    endloop
  endfacet
  facet normal -0.755635 -0.654761 0.017443
    outer loop
      vertex 57.993517 15.505849 -35.000000
      vertex 57.941522 15.565854 -35.000000
      vertex 57.828128 15.430319 -45.000000
    endloop
  endfacet
  facet normal -0.755635 -0.654761 0.017443
    outer loop
      vertex 57.828128 15.430319 -45.000000
      vertex 57.941522 15.565854 -35.000000
      vertex 56.736251 16.690414 -45.000000
    endloop
  endfacet
  facet normal -0.989671 -0.142293 0.017443
    outer loop
      vertex 58.246113 13.749000 -35.000000
      vertex 57.993517 15.505849 -35.000000
      vertex 57.840157 15.346660 -45.000000
    endloop
  endfacet
  facet normal -0.989671 -0.142293 0.017443
    outer loop
      vertex 57.840157 15.346660 -45.000000
      vertex 57.993517 15.505849 -35.000000
      vertex 57.828128 15.430319 -45.000000
    endloop
  endfacet
  facet normal -0.989671 -0.142293 0.017443
    outer loop
      vertex 58.257413 13.670411 -35.000000
      vertex 58.246113 13.749000 -35.000000
      vertex 58.077444 13.696286 -45.000000
    endloop
  endfacet
  facet normal -0.989671 -0.142293 0.017443
    outer loop
      vertex 58.077444 13.696286 -45.000000
      vertex 58.246113 13.749000 -35.000000
      vertex 57.840157 15.346660 -45.000000
    endloop
  endfacet
  facet normal -0.909494 0.415352 0.017443
    outer loop
      vertex 58.077444 13.696286 -45.000000
      vertex 58.042334 13.619404 -45.000000
      vertex 58.257413 13.670411 -35.000000
    endloop
  endfacet
  facet normal -0.909494 0.415352 0.017443
    outer loop
      vertex 58.257413 13.670411 -35.000000
      vertex 58.042334 13.619404 -45.000000
      vertex 57.520086 12.055892 -35.000000
    endloop
  endfacet
  facet normal -0.909494 0.415351 0.017443
    outer loop
      vertex 57.520086 12.055892 -35.000000
      vertex 58.042334 13.619404 -45.000000
      vertex 57.487104 11.983669 -35.000000
    endloop
  endfacet
  facet normal -0.909494 0.415351 0.017443
    outer loop
      vertex 57.487104 11.983669 -35.000000
      vertex 58.042334 13.619404 -45.000000
      vertex 57.349694 12.102735 -45.000000
    endloop
  endfacet
  facet normal -0.540559 0.841126 0.017443
    outer loop
      vertex 57.349694 12.102735 -45.000000
      vertex 57.278592 12.057040 -45.000000
      vertex 57.487104 11.983669 -35.000000
    endloop
  endfacet
  facet normal -0.540559 0.841126 0.017443
    outer loop
      vertex 57.487104 11.983669 -35.000000
      vertex 57.278592 12.057040 -45.000000
      vertex 55.993949 11.024077 -35.000000
    endloop
  endfacet
  facet normal -0.540559 0.841126 0.017443
    outer loop
      vertex 55.993949 11.024077 -35.000000
      vertex 57.278592 12.057040 -45.000000
      vertex 55.927156 10.981152 -35.000000
    endloop
  endfacet
  facet normal -0.540559 0.841126 0.017443
    outer loop
      vertex 55.927156 10.981152 -35.000000
      vertex 57.278592 12.057040 -45.000000
      vertex 55.875932 11.155605 -45.000000
    endloop
  endfacet
  facet normal -0.000000 0.999848 0.017443
    outer loop
      vertex 55.875932 11.155605 -45.000000
      vertex 54.124068 11.155605 -45.000000
      vertex 55.927156 10.981152 -35.000000
    endloop
  endfacet
  facet normal -0.000000 0.999848 0.017443
    outer loop
      vertex 55.927156 10.981152 -35.000000
      vertex 54.124068 11.155605 -45.000000
      vertex 54.072844 10.981152 -35.000000
    endloop
  endfacet
  facet normal 0.540559 0.841126 0.017443
    outer loop
      vertex 54.124068 11.155605 -45.000000
      vertex 54.052965 11.201300 -45.000000
      vertex 54.072844 10.981152 -35.000000
    endloop
  endfacet
  facet normal 0.540559 0.841126 0.017443
    outer loop
      vertex 54.072844 10.981152 -35.000000
      vertex 54.052965 11.201300 -45.000000
      vertex 52.579690 11.940744 -35.000000
    endloop
  endfacet
  facet normal 0.540559 0.841126 0.017443
    outer loop
      vertex 54.052965 11.201300 -45.000000
      vertex 52.650306 12.102735 -45.000000
      vertex 52.579690 11.940744 -35.000000
    endloop
  endfacet
  facet normal 0.540559 0.841126 0.017443
    outer loop
      vertex 52.579690 11.940744 -35.000000
      vertex 52.650306 12.102735 -45.000000
      vertex 52.512896 11.983669 -35.000000
    endloop
  endfacet
  facet normal 0.909494 0.415352 0.017443
    outer loop
      vertex 52.512896 11.983669 -35.000000
      vertex 52.650306 12.102735 -45.000000
      vertex 52.615195 12.179617 -45.000000
    endloop
  endfacet
  facet normal 0.909494 0.415352 0.017443
    outer loop
      vertex 51.775570 13.598188 -35.000000
      vertex 52.512896 11.983669 -35.000000
      vertex 52.615195 12.179617 -45.000000
    endloop
  endfacet
  facet normal 0.909494 0.415351 0.017443
    outer loop
      vertex 51.775570 13.598188 -35.000000
      vertex 52.615195 12.179617 -45.000000
      vertex 51.922556 13.696286 -45.000000
    endloop
  endfacet
  facet normal 0.909494 0.415351 0.017443
    outer loop
      vertex 51.742587 13.670411 -35.000000
      vertex 51.775570 13.598188 -35.000000
      vertex 51.922556 13.696286 -45.000000
    endloop
  endfacet
  facet normal 0.866025 0.500000 -0.000000
    outer loop
      vertex 22.859500 8.474665 -35.000000
      vertex 22.859500 8.474665 -41.200000
      vertex 19.222000 14.775000 -41.200000
    endloop
  endfacet
  facet normal 0.866025 0.500000 -0.000000
    outer loop
      vertex 19.222000 14.775000 -35.000000
      vertex 22.859500 8.474665 -35.000000
      vertex 19.222000 14.775000 -41.200000
    endloop
  endfacet
  facet normal -0.000000 1.000000 0.000000
    outer loop
      vertex 30.134500 8.474665 -41.200000
      vertex 22.859500 8.474665 -41.200000
      vertex 30.134500 8.474665 -35.000000
    endloop
  endfacet
  facet normal 0.000000 1.000000 0.000000
    outer loop
      vertex 30.134500 8.474665 -35.000000
      vertex 22.859500 8.474665 -41.200000
      vertex 22.859500 8.474665 -35.000000
    endloop
  endfacet
  facet normal -0.866025 0.500000 0.000000
    outer loop
      vertex 33.772000 14.775000 -41.200000
      vertex 30.134500 8.474665 -41.200000
      vertex 33.772000 14.775000 -35.000000
    endloop
  endfacet
  facet normal -0.866025 0.500000 0.000000
    outer loop
      vertex 33.772000 14.775000 -35.000000
      vertex 30.134500 8.474665 -41.200000
      vertex 30.134500 8.474665 -35.000000
    endloop
  endfacet
  facet normal -0.866025 -0.500000 -0.000000
    outer loop
      vertex 33.772000 14.775000 -41.200000
      vertex 33.772000 14.775000 -35.000000
      vertex 30.134500 21.075335 -41.200000
    endloop
  endfacet
  facet normal -0.866025 -0.500000 -0.000000
    outer loop
      vertex 30.134500 21.075335 -41.200000
      vertex 33.772000 14.775000 -35.000000
      vertex 30.134500 21.075335 -35.000000
    endloop
  endfacet
  facet normal -0.000000 -1.000000 0.000000
    outer loop
      vertex 22.859500 21.075335 -41.200000
      vertex 30.134500 21.075335 -41.200000
      vertex 30.134500 21.075335 -35.000000
    endloop
  endfacet
  facet normal 0.000000 -1.000000 0.000000
    outer loop
      vertex 22.859500 21.075335 -35.000000
      vertex 22.859500 21.075335 -41.200000
      vertex 30.134500 21.075335 -35.000000
    endloop
  endfacet
  facet normal 0.866025 -0.500000 0.000000
    outer loop
      vertex 19.222000 14.775000 -41.200000
      vertex 22.859500 21.075335 -41.200000
      vertex 22.859500 21.075335 -35.000000
    endloop
  endfacet
  facet normal 0.866025 -0.500000 0.000000
    outer loop
      vertex 19.222000 14.775000 -35.000000
      vertex 19.222000 14.775000 -41.200000
      vertex 22.859500 21.075335 -35.000000
    endloop
  endfacet
  facet normal 0.000000 0.000000 1.000000
    outer loop
      vertex 29.780692 12.156343 -41.200000
      vertex 30.134500 8.474665 -41.200000
      vertex 33.772000 14.775000 -41.200000
    endloop
  endfacet
  facet normal 0.000000 -0.000000 1.000000
    outer loop
      vertex 30.591697 13.840412 -41.200000
      vertex 29.780692 12.156343 -41.200000
      vertex 33.772000 14.775000 -41.200000
    endloop
  endfacet
  facet normal 0.000000 0.000000 1.000000
    outer loop
      vertex 28.319312 10.990931 -41.200000
      vertex 26.497000 10.575000 -41.200000
      vertex 22.859500 8.474665 -41.200000
    endloop
  endfacet
  facet normal 0.000000 0.000000 1.000000
    outer loop
      vertex 24.674688 18.559069 -41.200000
      vertex 26.497000 18.975000 -41.200000
      vertex 30.134500 21.075335 -41.200000
    endloop
  endfacet
  facet normal 0.000000 0.000000 1.000000
    outer loop
      vertex 19.222000 14.775000 -41.200000
      vertex 22.402303 15.709588 -41.200000
      vertex 22.859500 21.075335 -41.200000
    endloop
  endfacet
  facet normal 0.000000 0.000000 1.000000
    outer loop
      vertex 22.859500 21.075335 -41.200000
      vertex 24.674688 18.559069 -41.200000
      vertex 30.134500 21.075335 -41.200000
    endloop
  endfacet
  facet normal 0.000000 0.000000 1.000000
    outer loop
      vertex 22.859500 21.075335 -41.200000
      vertex 23.213308 17.393657 -41.200000
      vertex 24.674688 18.559069 -41.200000
    endloop
  endfacet
  facet normal -0.000000 0.000000 1.000000
    outer loop
      vertex 23.213308 12.156343 -41.200000
      vertex 22.402303 13.840412 -41.200000
      vertex 22.859500 8.474665 -41.200000
    endloop
  endfacet
  facet normal 0.000000 0.000000 1.000000
    outer loop
      vertex 26.497000 18.975000 -41.200000
      vertex 28.319312 18.559069 -41.200000
      vertex 30.134500 21.075335 -41.200000
    endloop
  endfacet
  facet normal 0.000000 -0.000000 1.000000
    outer loop
      vertex 30.134500 21.075335 -41.200000
      vertex 29.780692 17.393657 -41.200000
      vertex 33.772000 14.775000 -41.200000
    endloop
  endfacet
  facet normal 0.000000 0.000000 1.000000
    outer loop
      vertex 29.780692 17.393657 -41.200000
      vertex 30.591697 15.709588 -41.200000
      vertex 33.772000 14.775000 -41.200000
    endloop
  endfacet
  facet normal 0.000000 -0.000000 1.000000
    outer loop
      vertex 30.591697 15.709588 -41.200000
      vertex 30.591697 13.840412 -41.200000
      vertex 33.772000 14.775000 -41.200000
    endloop
  endfacet
  facet normal -0.000000 0.000000 1.000000
    outer loop
      vertex 24.674688 10.990931 -41.200000
      vertex 23.213308 12.156343 -41.200000
      vertex 22.859500 8.474665 -41.200000
    endloop
  endfacet
  facet normal 0.000000 0.000000 1.000000
    outer loop
      vertex 28.319312 10.990931 -41.200000
      vertex 30.134500 8.474665 -41.200000
      vertex 29.780692 12.156343 -41.200000
    endloop
  endfacet
  facet normal 0.000000 0.000000 1.000000
    outer loop
      vertex 22.859500 8.474665 -41.200000
      vertex 30.134500 8.474665 -41.200000
      vertex 28.319312 10.990931 -41.200000
    endloop
  endfacet
  facet normal 0.000000 0.000000 1.000000
    outer loop
      vertex 19.222000 14.775000 -41.200000
      vertex 22.402303 13.840412 -41.200000
      vertex 22.402303 15.709588 -41.200000
    endloop
  endfacet
  facet normal 0.000000 0.000000 1.000000
    outer loop
      vertex 19.222000 14.775000 -41.200000
      vertex 22.859500 8.474665 -41.200000
      vertex 22.402303 13.840412 -41.200000
    endloop
  endfacet
  facet normal 0.000000 0.000000 1.000000
    outer loop
      vertex 22.402303 15.709588 -41.200000
      vertex 23.213308 17.393657 -41.200000
      vertex 22.859500 21.075335 -41.200000
    endloop
  endfacet
  facet normal 0.000000 0.000000 1.000000
    outer loop
      vertex 28.319312 18.559069 -41.200000
      vertex 29.780692 17.393657 -41.200000
      vertex 30.134500 21.075335 -41.200000
    endloop
  endfacet
  facet normal -0.000000 0.000000 1.000000
    outer loop
      vertex 26.497000 10.575000 -41.200000
      vertex 24.674688 10.990931 -41.200000
      vertex 22.859500 8.474665 -41.200000
    endloop
  endfacet
endsolid
