solid
  facet normal -1.000000 -0.000000 -0.000000
    outer loop
      vertex 0.000000 0.000000 -45.000000
      vertex 0.000000 0.000000 -30.000000
      vertex 0.000000 27.700000 -45.000000
    endloop
  endfacet
  facet normal -1.000000 0.000000 0.000000
    outer loop
      vertex 0.000000 27.700000 -45.000000
      vertex 0.000000 0.000000 -30.000000
      vertex 0.000000 27.700000 -30.000000
    endloop
  endfacet
  facet normal 0.000000 -1.000000 0.000000
    outer loop
      vertex 0.000000 0.000000 -30.000000
      vertex 0.000000 0.000000 -45.000000
      vertex 60.000000 0.000000 -45.000000
    endloop
  endfacet
  facet normal 0.000000 -1.000000 0.000000
    outer loop
      vertex 60.000000 0.000000 -30.000000
      vertex 0.000000 0.000000 -30.000000
      vertex 60.000000 0.000000 -45.000000
    endloop
  endfacet
  facet normal 0.000000 -0.000000 -1.000000
    outer loop
      vertex 28.254083 16.584074 -45.000000
      vertex 0.000000 27.700000 -45.000000
      vertex 60.000000 27.700000 -45.000000
    endloop
  endfacet
  facet normal 0.000000 -0.000000 -1.000000
    outer loop
      vertex 1.922556 13.407530 -45.000000
      vertex 0.000000 27.700000 -45.000000
      vertex 1.934584 13.491190 -45.000000
    endloop
  endfacet
  facet normal 0.000000 -0.000000 -1.000000
    outer loop
      vertex 0.000000 0.000000 -45.000000
      vertex 0.000000 27.700000 -45.000000
      vertex 1.922556 13.407530 -45.000000
    endloop
  endfacet
  facet normal 0.000000 0.000000 -1.000000
    outer loop
      vertex 5.875932 10.866849 -45.000000
      vertex 60.000000 0.000000 -45.000000
      vertex 4.124068 10.866849 -45.000000
    endloop
  endfacet
  facet normal 0.000000 0.000000 -1.000000
    outer loop
      vertex 0.000000 0.000000 -45.000000
      vertex 2.615195 11.890861 -45.000000
      vertex 2.650306 11.813979 -45.000000
    endloop
  endfacet
  facet normal 0.000000 0.000000 -1.000000
    outer loop
      vertex 0.000000 0.000000 -45.000000
      vertex 2.650306 11.813979 -45.000000
      vertex 4.052965 10.912544 -45.000000
    endloop
  endfacet
  facet normal 0.000000 0.000000 -1.000000
    outer loop
      vertex 0.000000 0.000000 -45.000000
      vertex 4.052965 10.912544 -45.000000
      vertex 4.124068 10.866849 -45.000000
    endloop
  endfacet
  facet normal -0.000000 0.000000 -1.000000
    outer loop
      vertex 0.000000 0.000000 -45.000000
      vertex 4.124068 10.866849 -45.000000
      vertex 60.000000 0.000000 -45.000000
    endloop
  endfacet
  facet normal 0.000000 0.000000 -1.000000
    outer loop
      vertex 7.278592 11.768284 -45.000000
      vertex 60.000000 0.000000 -45.000000
      vertex 5.875932 10.866849 -45.000000
    endloop
  endfacet
  facet normal 0.000000 0.000000 -1.000000
    outer loop
      vertex 8.042334 13.330648 -45.000000
      vertex 60.000000 0.000000 -45.000000
      vertex 7.349694 11.813979 -45.000000
    endloop
  endfacet
  facet normal -0.000000 0.000000 -1.000000
    outer loop
      vertex 7.278592 11.768284 -45.000000
      vertex 7.349694 11.813979 -45.000000
      vertex 60.000000 0.000000 -45.000000
    endloop
  endfacet
  facet normal 0.000000 -0.000000 -1.000000
    outer loop
      vertex 23.540696 15.200099 -45.000000
      vertex 0.000000 27.700000 -45.000000
      vertex 24.739917 16.584074 -45.000000
    endloop
  endfacet
  facet normal -0.000000 -0.000000 -1.000000
    outer loop
      vertex 6.736251 16.401658 -45.000000
      vertex 0.000000 27.700000 -45.000000
      vertex 7.828128 15.141564 -45.000000
    endloop
  endfacet
  facet normal -0.000000 0.000000 -1.000000
    outer loop
      vertex 8.042334 13.330648 -45.000000
      vertex 8.077444 13.407530 -45.000000
      vertex 60.000000 0.000000 -45.000000
    endloop
  endfacet
  facet normal -0.000000 -0.000000 -1.000000
    outer loop
      vertex 5.081096 16.935279 -45.000000
      vertex 0.000000 27.700000 -45.000000
      vertex 6.680902 16.465534 -45.000000
    endloop
  endfacet
  facet normal -0.000000 -0.000000 -1.000000
    outer loop
      vertex 8.077444 13.407530 -45.000000
      vertex 7.840157 15.057904 -45.000000
      vertex 60.000000 0.000000 -45.000000
    endloop
  endfacet
  facet normal -0.000000 -0.000000 -1.000000
    outer loop
      vertex 7.840157 15.057904 -45.000000
      vertex 7.828128 15.141564 -45.000000
      vertex 60.000000 0.000000 -45.000000
    endloop
  endfacet
  facet normal -0.000000 -0.000000 -1.000000
    outer loop
      vertex 6.680902 16.465534 -45.000000
      vertex 0.000000 27.700000 -45.000000
      vertex 6.736251 16.401658 -45.000000
    endloop
  endfacet
  facet normal -0.000000 -0.000000 -1.000000
    outer loop
      vertex 5.000000 16.959091 -45.000000
      vertex 0.000000 27.700000 -45.000000
      vertex 5.081096 16.935279 -45.000000
    endloop
  endfacet
  facet normal 0.000000 -0.000000 -1.000000
    outer loop
      vertex 3.400194 16.489346 -45.000000
      vertex 0.000000 27.700000 -45.000000
      vertex 5.000000 16.959091 -45.000000
    endloop
  endfacet
  facet normal 0.000000 -0.000000 -1.000000
    outer loop
      vertex 3.319098 16.465534 -45.000000
      vertex 0.000000 27.700000 -45.000000
      vertex 3.400194 16.489346 -45.000000
    endloop
  endfacet
  facet normal 0.000000 -0.000000 -1.000000
    outer loop
      vertex 2.227220 15.205439 -45.000000
      vertex 0.000000 27.700000 -45.000000
      vertex 3.319098 16.465534 -45.000000
    endloop
  endfacet
  facet normal 0.000000 -0.000000 -1.000000
    outer loop
      vertex 2.171872 15.141564 -45.000000
      vertex 0.000000 27.700000 -45.000000
      vertex 2.227220 15.205439 -45.000000
    endloop
  endfacet
  facet normal 0.000000 -0.000000 -1.000000
    outer loop
      vertex 1.934584 13.491190 -45.000000
      vertex 0.000000 27.700000 -45.000000
      vertex 2.171872 15.141564 -45.000000
    endloop
  endfacet
  facet normal 0.000000 -0.000000 -1.000000
    outer loop
      vertex 7.828128 15.141564 -45.000000
      vertex 0.000000 27.700000 -45.000000
      vertex 23.540696 15.200099 -45.000000
    endloop
  endfacet
  facet normal -0.000000 0.000000 -1.000000
    outer loop
      vertex 7.828128 15.141564 -45.000000
      vertex 23.540696 15.200099 -45.000000
      vertex 23.280080 13.387477 -45.000000
    endloop
  endfacet
  facet normal 0.000000 0.000000 -1.000000
    outer loop
      vertex 7.828128 15.141564 -45.000000
      vertex 23.280080 13.387477 -45.000000
      vertex 24.040814 11.721703 -45.000000
    endloop
  endfacet
  facet normal 0.000000 0.000000 -1.000000
    outer loop
      vertex 7.828128 15.141564 -45.000000
      vertex 24.040814 11.721703 -45.000000
      vertex 25.581369 10.731648 -45.000000
    endloop
  endfacet
  facet normal 0.000000 0.000000 -1.000000
    outer loop
      vertex 7.828128 15.141564 -45.000000
      vertex 25.581369 10.731648 -45.000000
      vertex 60.000000 0.000000 -45.000000
    endloop
  endfacet
  facet normal 0.000000 0.000000 -1.000000
    outer loop
      vertex 28.953186 11.721703 -45.000000
      vertex 60.000000 0.000000 -45.000000
      vertex 27.412631 10.731648 -45.000000
    endloop
  endfacet
  facet normal 0.000000 0.000000 -1.000000
    outer loop
      vertex 29.713920 13.387477 -45.000000
      vertex 60.000000 0.000000 -45.000000
      vertex 28.953186 11.721703 -45.000000
    endloop
  endfacet
  facet normal 0.000000 0.000000 -1.000000
    outer loop
      vertex 27.412631 10.731648 -45.000000
      vertex 60.000000 0.000000 -45.000000
      vertex 25.581369 10.731648 -45.000000
    endloop
  endfacet
  facet normal 0.000000 0.000000 -1.000000
    outer loop
      vertex 29.453304 15.200099 -45.000000
      vertex 60.000000 0.000000 -45.000000
      vertex 29.713920 13.387477 -45.000000
    endloop
  endfacet
  facet normal 0.000000 0.000000 -1.000000
    outer loop
      vertex 54.052965 10.316133 -45.000000
      vertex 60.000000 0.000000 -45.000000
      vertex 52.650306 11.217567 -45.000000
    endloop
  endfacet
  facet normal 0.000000 -0.000000 -1.000000
    outer loop
      vertex 53.400194 15.892934 -45.000000
      vertex 29.453304 15.200099 -45.000000
      vertex 60.000000 27.700000 -45.000000
    endloop
  endfacet
  facet normal -0.000000 -0.000000 -1.000000
    outer loop
      vertex 26.497000 17.100000 -45.000000
      vertex 0.000000 27.700000 -45.000000
      vertex 28.254083 16.584074 -45.000000
    endloop
  endfacet
  facet normal 0.000000 -0.000000 -1.000000
    outer loop
      vertex 29.453304 15.200099 -45.000000
      vertex 28.254083 16.584074 -45.000000
      vertex 60.000000 27.700000 -45.000000
    endloop
  endfacet
  facet normal 0.000000 -0.000000 -1.000000
    outer loop
      vertex 24.739917 16.584074 -45.000000
      vertex 0.000000 27.700000 -45.000000
      vertex 26.497000 17.100000 -45.000000
    endloop
  endfacet
  facet normal 0.000000 -0.000000 -1.000000
    outer loop
      vertex 51.922556 12.811119 -45.000000
      vertex 29.453304 15.200099 -45.000000
      vertex 51.934584 12.894778 -45.000000
    endloop
  endfacet
  facet normal 0.000000 0.000000 -1.000000
    outer loop
      vertex 52.615195 11.294449 -45.000000
      vertex 29.453304 15.200099 -45.000000
      vertex 51.922556 12.811119 -45.000000
    endloop
  endfacet
  facet normal 0.000000 0.000000 -1.000000
    outer loop
      vertex 52.650306 11.217567 -45.000000
      vertex 29.453304 15.200099 -45.000000
      vertex 52.615195 11.294449 -45.000000
    endloop
  endfacet
  facet normal 0.000000 0.000000 -1.000000
    outer loop
      vertex 60.000000 0.000000 -45.000000
      vertex 29.453304 15.200099 -45.000000
      vertex 52.650306 11.217567 -45.000000
    endloop
  endfacet
  facet normal -0.000000 0.000000 -1.000000
    outer loop
      vertex 57.840157 14.461493 -45.000000
      vertex 60.000000 27.700000 -45.000000
      vertex 58.077444 12.811119 -45.000000
    endloop
  endfacet
  facet normal 0.000000 0.000000 -1.000000
    outer loop
      vertex 60.000000 0.000000 -45.000000
      vertex 54.052965 10.316133 -45.000000
      vertex 54.124068 10.270438 -45.000000
    endloop
  endfacet
  facet normal 0.000000 0.000000 -1.000000
    outer loop
      vertex 60.000000 0.000000 -45.000000
      vertex 54.124068 10.270438 -45.000000
      vertex 55.875932 10.270438 -45.000000
    endloop
  endfacet
  facet normal 0.000000 0.000000 -1.000000
    outer loop
      vertex 60.000000 0.000000 -45.000000
      vertex 55.875932 10.270438 -45.000000
      vertex 57.278592 11.171872 -45.000000
    endloop
  endfacet
  facet normal 0.000000 0.000000 -1.000000
    outer loop
      vertex 60.000000 0.000000 -45.000000
      vertex 57.278592 11.171872 -45.000000
      vertex 57.349694 11.217567 -45.000000
    endloop
  endfacet
  facet normal 0.000000 0.000000 -1.000000
    outer loop
      vertex 60.000000 0.000000 -45.000000
      vertex 57.349694 11.217567 -45.000000
      vertex 58.042334 12.734237 -45.000000
    endloop
  endfacet
  facet normal 0.000000 0.000000 -1.000000
    outer loop
      vertex 60.000000 0.000000 -45.000000
      vertex 58.042334 12.734237 -45.000000
      vertex 58.077444 12.811119 -45.000000
    endloop
  endfacet
  facet normal 0.000000 0.000000 -1.000000
    outer loop
      vertex 60.000000 0.000000 -45.000000
      vertex 58.077444 12.811119 -45.000000
      vertex 60.000000 27.700000 -45.000000
    endloop
  endfacet
  facet normal -0.000000 0.000000 -1.000000
    outer loop
      vertex 57.828128 14.545152 -45.000000
      vertex 60.000000 27.700000 -45.000000
      vertex 57.840157 14.461493 -45.000000
    endloop
  endfacet
  facet normal -0.000000 0.000000 -1.000000
    outer loop
      vertex 56.736251 15.805247 -45.000000
      vertex 60.000000 27.700000 -45.000000
      vertex 57.828128 14.545152 -45.000000
    endloop
  endfacet
  facet normal -0.000000 0.000000 -1.000000
    outer loop
      vertex 55.081096 16.338867 -45.000000
      vertex 60.000000 27.700000 -45.000000
      vertex 56.680902 15.869122 -45.000000
    endloop
  endfacet
  facet normal 0.000000 -0.000000 -1.000000
    outer loop
      vertex 56.736251 15.805247 -45.000000
      vertex 56.680902 15.869122 -45.000000
      vertex 60.000000 27.700000 -45.000000
    endloop
  endfacet
  facet normal 0.000000 0.000000 -1.000000
    outer loop
      vertex 53.400194 15.892934 -45.000000
      vertex 60.000000 27.700000 -45.000000
      vertex 55.000000 16.362679 -45.000000
    endloop
  endfacet
  facet normal 0.000000 -0.000000 -1.000000
    outer loop
      vertex 55.081096 16.338867 -45.000000
      vertex 55.000000 16.362679 -45.000000
      vertex 60.000000 27.700000 -45.000000
    endloop
  endfacet
  facet normal 0.000000 -0.000000 -1.000000
    outer loop
      vertex 53.319098 15.869122 -45.000000
      vertex 29.453304 15.200099 -45.000000
      vertex 53.400194 15.892934 -45.000000
    endloop
  endfacet
  facet normal 0.000000 -0.000000 -1.000000
    outer loop
      vertex 52.227220 14.609028 -45.000000
      vertex 29.453304 15.200099 -45.000000
      vertex 53.319098 15.869122 -45.000000
    endloop
  endfacet
  facet normal 0.000000 -0.000000 -1.000000
    outer loop
      vertex 52.171872 14.545152 -45.000000
      vertex 29.453304 15.200099 -45.000000
      vertex 52.227220 14.609028 -45.000000
    endloop
  endfacet
  facet normal 0.000000 -0.000000 -1.000000
    outer loop
      vertex 51.934584 12.894778 -45.000000
      vertex 29.453304 15.200099 -45.000000
      vertex 52.171872 14.545152 -45.000000
    endloop
  endfacet
  facet normal 0.000000 0.000000 -1.000000
    outer loop
      vertex 2.615195 11.890861 -45.000000
      vertex 0.000000 0.000000 -45.000000
      vertex 1.922556 13.407530 -45.000000
    endloop
  endfacet
  facet normal 0.000000 1.000000 0.000000
    outer loop
      vertex 0.000000 27.700000 -45.000000
      vertex 0.000000 27.700000 -30.000000
      vertex 60.000000 27.700000 -45.000000
    endloop
  endfacet
  facet normal 0.000000 1.000000 0.000000
    outer loop
      vertex 60.000000 27.700000 -45.000000
      vertex 0.000000 27.700000 -30.000000
      vertex 60.000000 27.700000 -30.000000
    endloop
  endfacet
  facet normal 0.000000 -0.000000 1.000000
    outer loop
      vertex 7.487104 11.694913 -30.000000
      vertex 0.000000 0.000000 -30.000000
      vertex 60.000000 0.000000 -30.000000
    endloop
  endfacet
  facet normal 0.000000 0.000000 1.000000
    outer loop
      vertex 29.672000 19.349261 -30.000000
      vertex 32.847000 13.850000 -30.000000
      vertex 60.000000 0.000000 -30.000000
    endloop
  endfacet
  facet normal 0.000000 -0.000000 1.000000
    outer loop
      vertex 29.672000 8.350739 -30.000000
      vertex 23.322000 8.350739 -30.000000
      vertex 60.000000 0.000000 -30.000000
    endloop
  endfacet
  facet normal 0.000000 -0.000000 1.000000
    outer loop
      vertex 1.742587 13.381655 -30.000000
      vertex 0.000000 0.000000 -30.000000
      vertex 1.775570 13.309432 -30.000000
    endloop
  endfacet
  facet normal 0.000000 -0.000000 1.000000
    outer loop
      vertex 0.000000 27.700000 -30.000000
      vertex 0.000000 0.000000 -30.000000
      vertex 1.742587 13.381655 -30.000000
    endloop
  endfacet
  facet normal 0.000000 -0.000000 1.000000
    outer loop
      vertex 8.257413 13.381655 -30.000000
      vertex 7.520086 11.767136 -30.000000
      vertex 23.322000 8.350739 -30.000000
    endloop
  endfacet
  facet normal 0.000000 0.000000 1.000000
    outer loop
      vertex 0.000000 27.700000 -30.000000
      vertex 1.995184 15.138504 -30.000000
      vertex 2.006483 15.217094 -30.000000
    endloop
  endfacet
  facet normal 0.000000 0.000000 1.000000
    outer loop
      vertex 23.322000 8.350739 -30.000000
      vertex 20.147000 13.850000 -30.000000
      vertex 6.779200 16.618489 -30.000000
    endloop
  endfacet
  facet normal 0.000000 0.000000 1.000000
    outer loop
      vertex 0.000000 27.700000 -30.000000
      vertex 2.006483 15.217094 -30.000000
      vertex 3.168806 16.558485 -30.000000
    endloop
  endfacet
  facet normal 0.000000 0.000000 1.000000
    outer loop
      vertex 0.000000 27.700000 -30.000000
      vertex 3.168806 16.558485 -30.000000
      vertex 3.220800 16.618489 -30.000000
    endloop
  endfacet
  facet normal 0.000000 0.000000 1.000000
    outer loop
      vertex 20.147000 13.850000 -30.000000
      vertex 23.322000 19.349261 -30.000000
      vertex 0.000000 27.700000 -30.000000
    endloop
  endfacet
  facet normal 0.000000 0.000000 1.000000
    outer loop
      vertex 0.000000 27.700000 -30.000000
      vertex 3.220800 16.618489 -30.000000
      vertex 4.923819 17.118540 -30.000000
    endloop
  endfacet
  facet normal 0.000000 0.000000 1.000000
    outer loop
      vertex 0.000000 27.700000 -30.000000
      vertex 4.923819 17.118540 -30.000000
      vertex 5.000000 17.140909 -30.000000
    endloop
  endfacet
  facet normal 0.000000 0.000000 1.000000
    outer loop
      vertex 0.000000 27.700000 -30.000000
      vertex 5.000000 17.140909 -30.000000
      vertex 6.703019 16.640858 -30.000000
    endloop
  endfacet
  facet normal 0.000000 0.000000 1.000000
    outer loop
      vertex 52.006483 14.620682 -30.000000
      vertex 53.168806 15.962073 -30.000000
      vertex 60.000000 27.700000 -30.000000
    endloop
  endfacet
  facet normal 0.000000 0.000000 1.000000
    outer loop
      vertex 0.000000 27.700000 -30.000000
      vertex 6.703019 16.640858 -30.000000
      vertex 6.779200 16.618489 -30.000000
    endloop
  endfacet
  facet normal -0.000000 -0.000000 1.000000
    outer loop
      vertex 23.322000 8.350739 -30.000000
      vertex 7.520086 11.767136 -30.000000
      vertex 60.000000 0.000000 -30.000000
    endloop
  endfacet
  facet normal 0.000000 0.000000 1.000000
    outer loop
      vertex 23.322000 8.350739 -30.000000
      vertex 8.246113 13.460244 -30.000000
      vertex 8.257413 13.381655 -30.000000
    endloop
  endfacet
  facet normal 0.000000 -0.000000 1.000000
    outer loop
      vertex 7.520086 11.767136 -30.000000
      vertex 7.487104 11.694913 -30.000000
      vertex 60.000000 0.000000 -30.000000
    endloop
  endfacet
  facet normal 0.000000 -0.000000 1.000000
    outer loop
      vertex 58.257413 12.785243 -30.000000
      vertex 57.520086 11.170724 -30.000000
      vertex 60.000000 0.000000 -30.000000
    endloop
  endfacet
  facet normal 0.000000 -0.000000 1.000000
    outer loop
      vertex 5.927156 10.692396 -30.000000
      vertex 0.000000 0.000000 -30.000000
      vertex 5.993949 10.735321 -30.000000
    endloop
  endfacet
  facet normal 0.000000 -0.000000 1.000000
    outer loop
      vertex 4.072844 10.692396 -30.000000
      vertex 0.000000 0.000000 -30.000000
      vertex 5.927156 10.692396 -30.000000
    endloop
  endfacet
  facet normal 0.000000 -0.000000 1.000000
    outer loop
      vertex 2.579690 11.651988 -30.000000
      vertex 0.000000 0.000000 -30.000000
      vertex 4.072844 10.692396 -30.000000
    endloop
  endfacet
  facet normal 0.000000 -0.000000 1.000000
    outer loop
      vertex 2.512896 11.694913 -30.000000
      vertex 0.000000 0.000000 -30.000000
      vertex 2.579690 11.651988 -30.000000
    endloop
  endfacet
  facet normal 0.000000 -0.000000 1.000000
    outer loop
      vertex 1.775570 13.309432 -30.000000
      vertex 0.000000 0.000000 -30.000000
      vertex 2.512896 11.694913 -30.000000
    endloop
  endfacet
  facet normal 0.000000 0.000000 1.000000
    outer loop
      vertex 7.487104 11.694913 -30.000000
      vertex 5.993949 10.735321 -30.000000
      vertex 0.000000 0.000000 -30.000000
    endloop
  endfacet
  facet normal 0.000000 0.000000 1.000000
    outer loop
      vertex 53.220800 16.022078 -30.000000
      vertex 54.923819 16.522129 -30.000000
      vertex 60.000000 27.700000 -30.000000
    endloop
  endfacet
  facet normal 0.000000 0.000000 1.000000
    outer loop
      vertex 0.000000 27.700000 -30.000000
      vertex 6.779200 16.618489 -30.000000
      vertex 20.147000 13.850000 -30.000000
    endloop
  endfacet
  facet normal 0.000000 -0.000000 1.000000
    outer loop
      vertex 32.847000 13.850000 -30.000000
      vertex 29.672000 8.350739 -30.000000
      vertex 60.000000 0.000000 -30.000000
    endloop
  endfacet
  facet normal 0.000000 0.000000 1.000000
    outer loop
      vertex 60.000000 27.700000 -30.000000
      vertex 0.000000 27.700000 -30.000000
      vertex 23.322000 19.349261 -30.000000
    endloop
  endfacet
  facet normal -0.000000 -0.000000 1.000000
    outer loop
      vertex 52.579690 11.055576 -30.000000
      vertex 29.672000 19.349261 -30.000000
      vertex 60.000000 0.000000 -30.000000
    endloop
  endfacet
  facet normal 0.000000 0.000000 1.000000
    outer loop
      vertex 60.000000 27.700000 -30.000000
      vertex 23.322000 19.349261 -30.000000
      vertex 29.672000 19.349261 -30.000000
    endloop
  endfacet
  facet normal 0.000000 0.000000 1.000000
    outer loop
      vertex 23.322000 8.350739 -30.000000
      vertex 6.779200 16.618489 -30.000000
      vertex 7.941522 15.277098 -30.000000
    endloop
  endfacet
  facet normal 0.000000 0.000000 1.000000
    outer loop
      vertex 23.322000 8.350739 -30.000000
      vertex 7.941522 15.277098 -30.000000
      vertex 7.993517 15.217094 -30.000000
    endloop
  endfacet
  facet normal -0.000000 -0.000000 1.000000
    outer loop
      vertex 51.742587 12.785243 -30.000000
      vertex 29.672000 19.349261 -30.000000
      vertex 51.775570 12.713021 -30.000000
    endloop
  endfacet
  facet normal -0.000000 0.000000 1.000000
    outer loop
      vertex 51.995184 14.542093 -30.000000
      vertex 29.672000 19.349261 -30.000000
      vertex 51.742587 12.785243 -30.000000
    endloop
  endfacet
  facet normal -0.000000 0.000000 1.000000
    outer loop
      vertex 52.006483 14.620682 -30.000000
      vertex 29.672000 19.349261 -30.000000
      vertex 51.995184 14.542093 -30.000000
    endloop
  endfacet
  facet normal 0.000000 0.000000 1.000000
    outer loop
      vertex 60.000000 27.700000 -30.000000
      vertex 29.672000 19.349261 -30.000000
      vertex 52.006483 14.620682 -30.000000
    endloop
  endfacet
  facet normal 0.000000 0.000000 1.000000
    outer loop
      vertex 60.000000 27.700000 -30.000000
      vertex 53.168806 15.962073 -30.000000
      vertex 53.220800 16.022078 -30.000000
    endloop
  endfacet
  facet normal -0.000000 -0.000000 1.000000
    outer loop
      vertex 54.072844 10.095984 -30.000000
      vertex 52.579690 11.055576 -30.000000
      vertex 60.000000 0.000000 -30.000000
    endloop
  endfacet
  facet normal 0.000000 0.000000 1.000000
    outer loop
      vertex 60.000000 27.700000 -30.000000
      vertex 54.923819 16.522129 -30.000000
      vertex 55.000000 16.544498 -30.000000
    endloop
  endfacet
  facet normal 0.000000 0.000000 1.000000
    outer loop
      vertex 60.000000 27.700000 -30.000000
      vertex 55.000000 16.544498 -30.000000
      vertex 56.703019 16.044447 -30.000000
    endloop
  endfacet
  facet normal 0.000000 -0.000000 1.000000
    outer loop
      vertex 57.487104 11.098502 -30.000000
      vertex 55.993949 10.138910 -30.000000
      vertex 60.000000 0.000000 -30.000000
    endloop
  endfacet
  facet normal 0.000000 0.000000 1.000000
    outer loop
      vertex 60.000000 27.700000 -30.000000
      vertex 56.703019 16.044447 -30.000000
      vertex 56.779200 16.022078 -30.000000
    endloop
  endfacet
  facet normal 0.000000 0.000000 1.000000
    outer loop
      vertex 60.000000 27.700000 -30.000000
      vertex 56.779200 16.022078 -30.000000
      vertex 57.941522 14.680687 -30.000000
    endloop
  endfacet
  facet normal 0.000000 0.000000 1.000000
    outer loop
      vertex 60.000000 27.700000 -30.000000
      vertex 57.941522 14.680687 -30.000000
      vertex 57.993517 14.620682 -30.000000
    endloop
  endfacet
  facet normal 0.000000 0.000000 1.000000
    outer loop
      vertex 60.000000 27.700000 -30.000000
      vertex 57.993517 14.620682 -30.000000
      vertex 58.246113 12.863833 -30.000000
    endloop
  endfacet
  facet normal 0.000000 0.000000 1.000000
    outer loop
      vertex 60.000000 27.700000 -30.000000
      vertex 58.257413 12.785243 -30.000000
      vertex 60.000000 0.000000 -30.000000
    endloop
  endfacet
  facet normal 0.000000 0.000000 1.000000
    outer loop
      vertex 60.000000 27.700000 -30.000000
      vertex 58.246113 12.863833 -30.000000
      vertex 58.257413 12.785243 -30.000000
    endloop
  endfacet
  facet normal 0.000000 -0.000000 1.000000
    outer loop
      vertex 57.520086 11.170724 -30.000000
      vertex 57.487104 11.098502 -30.000000
      vertex 60.000000 0.000000 -30.000000
    endloop
  endfacet
  facet normal 0.000000 -0.000000 1.000000
    outer loop
      vertex 55.993949 10.138910 -30.000000
      vertex 55.927156 10.095984 -30.000000
      vertex 60.000000 0.000000 -30.000000
    endloop
  endfacet
  facet normal 0.000000 -0.000000 1.000000
    outer loop
      vertex 55.927156 10.095984 -30.000000
      vertex 54.072844 10.095984 -30.000000
      vertex 60.000000 0.000000 -30.000000
    endloop
  endfacet
  facet normal -0.000000 -0.000000 1.000000
    outer loop
      vertex 52.512896 11.098502 -30.000000
      vertex 29.672000 19.349261 -30.000000
      vertex 52.579690 11.055576 -30.000000
    endloop
  endfacet
  facet normal -0.000000 -0.000000 1.000000
    outer loop
      vertex 51.775570 12.713021 -30.000000
      vertex 29.672000 19.349261 -30.000000
      vertex 52.512896 11.098502 -30.000000
    endloop
  endfacet
  facet normal 0.000000 0.000000 1.000000
    outer loop
      vertex 1.742587 13.381655 -30.000000
      vertex 1.995184 15.138504 -30.000000
      vertex 0.000000 27.700000 -30.000000
    endloop
  endfacet
  facet normal 0.000000 0.000000 1.000000
    outer loop
      vertex 23.322000 8.350739 -30.000000
      vertex 7.993517 15.217094 -30.000000
      vertex 8.246113 13.460244 -30.000000
    endloop
  endfacet
  facet normal 1.000000 0.000000 -0.000000
    outer loop
      vertex 60.000000 0.000000 -30.000000
      vertex 60.000000 0.000000 -45.000000
      vertex 60.000000 27.700000 -45.000000
    endloop
  endfacet
  facet normal 1.000000 0.000000 0.000000
    outer loop
      vertex 60.000000 27.700000 -30.000000
      vertex 60.000000 0.000000 -30.000000
      vertex 60.000000 27.700000 -45.000000
    endloop
  endfacet
  facet normal 0.989755 -0.142305 0.011629
    outer loop
      vertex 2.171872 15.141564 -45.000000
      vertex 2.006483 15.217094 -30.000000
      vertex 1.995184 15.138504 -30.000000
    endloop
  endfacet
  facet normal 0.989755 -0.142305 0.011629
    outer loop
      vertex 1.934584 13.491190 -45.000000
      vertex 2.171872 15.141564 -45.000000
      vertex 1.995184 15.138504 -30.000000
    endloop
  endfacet
  facet normal 0.989755 -0.142305 0.011629
    outer loop
      vertex 1.922556 13.407530 -45.000000
      vertex 1.934584 13.491190 -45.000000
      vertex 1.995184 15.138504 -30.000000
    endloop
  endfacet
  facet normal 0.989755 -0.142305 0.011629
    outer loop
      vertex 1.742587 13.381655 -30.000000
      vertex 1.922556 13.407530 -45.000000
      vertex 1.995184 15.138504 -30.000000
    endloop
  endfacet
  facet normal 0.755698 -0.654817 0.011629
    outer loop
      vertex 2.171872 15.141564 -45.000000
      vertex 2.227220 15.205439 -45.000000
      vertex 3.168806 16.558485 -30.000000
    endloop
  endfacet
  facet normal 0.755698 -0.654817 0.011629
    outer loop
      vertex 2.006483 15.217094 -30.000000
      vertex 2.171872 15.141564 -45.000000
      vertex 3.168806 16.558485 -30.000000
    endloop
  endfacet
  facet normal 0.755699 -0.654816 0.011629
    outer loop
      vertex 3.319098 16.465534 -45.000000
      vertex 3.220800 16.618489 -30.000000
      vertex 3.168806 16.558485 -30.000000
    endloop
  endfacet
  facet normal 0.755699 -0.654816 0.011629
    outer loop
      vertex 2.227220 15.205439 -45.000000
      vertex 3.319098 16.465534 -45.000000
      vertex 3.168806 16.558485 -30.000000
    endloop
  endfacet
  facet normal 0.281713 -0.959428 0.011629
    outer loop
      vertex 3.319098 16.465534 -45.000000
      vertex 3.400194 16.489346 -45.000000
      vertex 4.923819 17.118540 -30.000000
    endloop
  endfacet
  facet normal 0.281713 -0.959428 0.011629
    outer loop
      vertex 3.220800 16.618489 -30.000000
      vertex 3.319098 16.465534 -45.000000
      vertex 4.923819 17.118540 -30.000000
    endloop
  endfacet
  facet normal 0.281713 -0.959428 0.011629
    outer loop
      vertex 5.000000 16.959091 -45.000000
      vertex 5.000000 17.140909 -30.000000
      vertex 4.923819 17.118540 -30.000000
    endloop
  endfacet
  facet normal 0.281713 -0.959428 0.011629
    outer loop
      vertex 3.400194 16.489346 -45.000000
      vertex 5.000000 16.959091 -45.000000
      vertex 4.923819 17.118540 -30.000000
    endloop
  endfacet
  facet normal -0.281713 -0.959428 0.011629
    outer loop
      vertex 5.081096 16.935279 -45.000000
      vertex 6.703019 16.640858 -30.000000
      vertex 5.000000 17.140909 -30.000000
    endloop
  endfacet
  facet normal -0.281713 -0.959428 0.011629
    outer loop
      vertex 5.000000 16.959091 -45.000000
      vertex 5.081096 16.935279 -45.000000
      vertex 5.000000 17.140909 -30.000000
    endloop
  endfacet
  facet normal -0.281713 -0.959428 0.011629
    outer loop
      vertex 6.680902 16.465534 -45.000000
      vertex 6.779200 16.618489 -30.000000
      vertex 6.703019 16.640858 -30.000000
    endloop
  endfacet
  facet normal -0.281713 -0.959428 0.011629
    outer loop
      vertex 5.081096 16.935279 -45.000000
      vertex 6.680902 16.465534 -45.000000
      vertex 6.703019 16.640858 -30.000000
    endloop
  endfacet
  facet normal -0.755698 -0.654817 0.011629
    outer loop
      vertex 7.941522 15.277098 -30.000000
      vertex 6.779200 16.618489 -30.000000
      vertex 6.736251 16.401658 -45.000000
    endloop
  endfacet
  facet normal -0.755698 -0.654817 0.011629
    outer loop
      vertex 6.736251 16.401658 -45.000000
      vertex 6.779200 16.618489 -30.000000
      vertex 6.680902 16.465534 -45.000000
    endloop
  endfacet
  facet normal -0.755699 -0.654816 0.011629
    outer loop
      vertex 7.993517 15.217094 -30.000000
      vertex 7.941522 15.277098 -30.000000
      vertex 7.828128 15.141564 -45.000000
    endloop
  endfacet
  facet normal -0.755699 -0.654816 0.011629
    outer loop
      vertex 7.828128 15.141564 -45.000000
      vertex 7.941522 15.277098 -30.000000
      vertex 6.736251 16.401658 -45.000000
    endloop
  endfacet
  facet normal -0.989755 -0.142305 0.011629
    outer loop
      vertex 8.246113 13.460244 -30.000000
      vertex 7.993517 15.217094 -30.000000
      vertex 7.840157 15.057904 -45.000000
    endloop
  endfacet
  facet normal -0.989755 -0.142305 0.011629
    outer loop
      vertex 7.840157 15.057904 -45.000000
      vertex 7.993517 15.217094 -30.000000
      vertex 7.828128 15.141564 -45.000000
    endloop
  endfacet
  facet normal -0.989755 -0.142305 0.011629
    outer loop
      vertex 8.257413 13.381655 -30.000000
      vertex 8.246113 13.460244 -30.000000
      vertex 8.077444 13.407530 -45.000000
    endloop
  endfacet
  facet normal -0.989755 -0.142305 0.011629
    outer loop
      vertex 8.077444 13.407530 -45.000000
      vertex 8.246113 13.460244 -30.000000
      vertex 7.840157 15.057904 -45.000000
    endloop
  endfacet
  facet normal -0.909570 0.415387 0.011629
    outer loop
      vertex 8.077444 13.407530 -45.000000
      vertex 8.042334 13.330648 -45.000000
      vertex 8.257413 13.381655 -30.000000
    endloop
  endfacet
  facet normal -0.909570 0.415387 0.011629
    outer loop
      vertex 8.257413 13.381655 -30.000000
      vertex 8.042334 13.330648 -45.000000
      vertex 7.520086 11.767136 -30.000000
    endloop
  endfacet
  facet normal -0.909571 0.415387 0.011629
    outer loop
      vertex 7.520086 11.767136 -30.000000
      vertex 8.042334 13.330648 -45.000000
      vertex 7.487104 11.694913 -30.000000
    endloop
  endfacet
  facet normal -0.909571 0.415387 0.011629
    outer loop
      vertex 7.487104 11.694913 -30.000000
      vertex 8.042334 13.330648 -45.000000
      vertex 7.349694 11.813979 -45.000000
    endloop
  endfacet
  facet normal -0.540604 0.841197 0.011629
    outer loop
      vertex 7.349694 11.813979 -45.000000
      vertex 7.278592 11.768284 -45.000000
      vertex 7.487104 11.694913 -30.000000
    endloop
  endfacet
  facet normal -0.540604 0.841197 0.011629
    outer loop
      vertex 7.487104 11.694913 -30.000000
      vertex 7.278592 11.768284 -45.000000
      vertex 5.993949 10.735321 -30.000000
    endloop
  endfacet
  facet normal -0.540604 0.841197 0.011629
    outer loop
      vertex 5.993949 10.735321 -30.000000
      vertex 7.278592 11.768284 -45.000000
      vertex 5.927156 10.692396 -30.000000
    endloop
  endfacet
  facet normal -0.540604 0.841197 0.011629
    outer loop
      vertex 5.927156 10.692396 -30.000000
      vertex 7.278592 11.768284 -45.000000
      vertex 5.875932 10.866849 -45.000000
    endloop
  endfacet
  facet normal -0.000000 0.999932 0.011629
    outer loop
      vertex 5.875932 10.866849 -45.000000
      vertex 4.124068 10.866849 -45.000000
      vertex 5.927156 10.692396 -30.000000
    endloop
  endfacet
  facet normal -0.000000 0.999932 0.011629
    outer loop
      vertex 5.927156 10.692396 -30.000000
      vertex 4.124068 10.866849 -45.000000
      vertex 4.072844 10.692396 -30.000000
    endloop
  endfacet
  facet normal 0.540604 0.841197 0.011629
    outer loop
      vertex 4.124068 10.866849 -45.000000
      vertex 4.052965 10.912544 -45.000000
      vertex 4.072844 10.692396 -30.000000
    endloop
  endfacet
  facet normal 0.540604 0.841197 0.011629
    outer loop
      vertex 4.072844 10.692396 -30.000000
      vertex 4.052965 10.912544 -45.000000
      vertex 2.579690 11.651988 -30.000000
    endloop
  endfacet
  facet normal 0.540604 0.841197 0.011629
    outer loop
      vertex 4.052965 10.912544 -45.000000
      vertex 2.650306 11.813979 -45.000000
      vertex 2.579690 11.651988 -30.000000
    endloop
  endfacet
  facet normal 0.540604 0.841197 0.011629
    outer loop
      vertex 2.579690 11.651988 -30.000000
      vertex 2.650306 11.813979 -45.000000
      vertex 2.512896 11.694913 -30.000000
    endloop
  endfacet
  facet normal 0.909570 0.415387 0.011629
    outer loop
      vertex 2.512896 11.694913 -30.000000
      vertex 2.650306 11.813979 -45.000000
      vertex 2.615195 11.890861 -45.000000
    endloop
  endfacet
  facet normal 0.909570 0.415387 0.011629
    outer loop
      vertex 1.775570 13.309432 -30.000000
      vertex 2.512896 11.694913 -30.000000
      vertex 2.615195 11.890861 -45.000000
    endloop
  endfacet
  facet normal 0.909571 0.415387 0.011629
    outer loop
      vertex 1.775570 13.309432 -30.000000
      vertex 2.615195 11.890861 -45.000000
      vertex 1.922556 13.407530 -45.000000
    endloop
  endfacet
  facet normal 0.909571 0.415387 0.011629
    outer loop
      vertex 1.742587 13.381655 -30.000000
      vertex 1.775570 13.309432 -30.000000
      vertex 1.922556 13.407530 -45.000000
    endloop
  endfacet
  facet normal 0.989821 -0.142315 0.000000
    outer loop
      vertex 23.540696 15.200099 -45.000000
      vertex 23.540696 15.200099 -37.000000
      vertex 23.280080 13.387477 -37.000000
    endloop
  endfacet
  facet normal 0.989821 -0.142315 0.000000
    outer loop
      vertex 23.280080 13.387477 -45.000000
      vertex 23.540696 15.200099 -45.000000
      vertex 23.280080 13.387477 -37.000000
    endloop
  endfacet
  facet normal 0.755750 -0.654861 0.000000
    outer loop
      vertex 24.739917 16.584074 -45.000000
      vertex 24.739917 16.584074 -37.000000
      vertex 23.540696 15.200099 -37.000000
    endloop
  endfacet
  facet normal 0.755750 -0.654861 0.000000
    outer loop
      vertex 23.540696 15.200099 -45.000000
      vertex 24.739917 16.584074 -45.000000
      vertex 23.540696 15.200099 -37.000000
    endloop
  endfacet
  facet normal 0.281732 -0.959493 0.000000
    outer loop
      vertex 26.497000 17.100000 -45.000000
      vertex 26.497000 17.100000 -37.000000
      vertex 24.739917 16.584074 -37.000000
    endloop
  endfacet
  facet normal 0.281732 -0.959493 0.000000
    outer loop
      vertex 24.739917 16.584074 -45.000000
      vertex 26.497000 17.100000 -45.000000
      vertex 24.739917 16.584074 -37.000000
    endloop
  endfacet
  facet normal -0.281732 -0.959493 -0.000000
    outer loop
      vertex 28.254083 16.584074 -45.000000
      vertex 28.254083 16.584074 -37.000000
      vertex 26.497000 17.100000 -37.000000
    endloop
  endfacet
  facet normal -0.281732 -0.959493 -0.000000
    outer loop
      vertex 26.497000 17.100000 -45.000000
      vertex 28.254083 16.584074 -45.000000
      vertex 26.497000 17.100000 -37.000000
    endloop
  endfacet
  facet normal -0.755750 -0.654861 0.000000
    outer loop
      vertex 29.453304 15.200099 -37.000000
      vertex 28.254083 16.584074 -37.000000
      vertex 29.453304 15.200099 -45.000000
    endloop
  endfacet
  facet normal -0.755750 -0.654861 0.000000
    outer loop
      vertex 29.453304 15.200099 -45.000000
      vertex 28.254083 16.584074 -37.000000
      vertex 28.254083 16.584074 -45.000000
    endloop
  endfacet
  facet normal -0.989821 -0.142315 0.000000
    outer loop
      vertex 29.713920 13.387477 -37.000000
      vertex 29.453304 15.200099 -37.000000
      vertex 29.713920 13.387477 -45.000000
    endloop
  endfacet
  facet normal -0.989821 -0.142315 0.000000
    outer loop
      vertex 29.713920 13.387477 -45.000000
      vertex 29.453304 15.200099 -37.000000
      vertex 29.453304 15.200099 -45.000000
    endloop
  endfacet
  facet normal -0.909632 0.415415 0.000000
    outer loop
      vertex 29.713920 13.387477 -37.000000
      vertex 29.713920 13.387477 -45.000000
      vertex 28.953186 11.721703 -37.000000
    endloop
  endfacet
  facet normal -0.909632 0.415415 0.000000
    outer loop
      vertex 28.953186 11.721703 -37.000000
      vertex 29.713920 13.387477 -45.000000
      vertex 28.953186 11.721703 -45.000000
    endloop
  endfacet
  facet normal -0.540641 0.841253 0.000000
    outer loop
      vertex 28.953186 11.721703 -37.000000
      vertex 28.953186 11.721703 -45.000000
      vertex 27.412631 10.731648 -37.000000
    endloop
  endfacet
  facet normal -0.540641 0.841253 0.000000
    outer loop
      vertex 27.412631 10.731648 -37.000000
      vertex 28.953186 11.721703 -45.000000
      vertex 27.412631 10.731648 -45.000000
    endloop
  endfacet
  facet normal 0.000000 1.000000 0.000000
    outer loop
      vertex 27.412631 10.731648 -37.000000
      vertex 27.412631 10.731648 -45.000000
      vertex 25.581369 10.731648 -37.000000
    endloop
  endfacet
  facet normal 0.000000 1.000000 -0.000000
    outer loop
      vertex 25.581369 10.731648 -37.000000
      vertex 27.412631 10.731648 -45.000000
      vertex 25.581369 10.731648 -45.000000
    endloop
  endfacet
  facet normal 0.540641 0.841253 -0.000000
    outer loop
      vertex 25.581369 10.731648 -37.000000
      vertex 25.581369 10.731648 -45.000000
      vertex 24.040814 11.721703 -37.000000
    endloop
  endfacet
  facet normal 0.540641 0.841253 -0.000000
    outer loop
      vertex 24.040814 11.721703 -37.000000
      vertex 25.581369 10.731648 -45.000000
      vertex 24.040814 11.721703 -45.000000
    endloop
  endfacet
  facet normal 0.909632 0.415415 0.000000
    outer loop
      vertex 23.280080 13.387477 -37.000000
      vertex 24.040814 11.721703 -37.000000
      vertex 24.040814 11.721703 -45.000000
    endloop
  endfacet
  facet normal 0.909632 0.415415 0.000000
    outer loop
      vertex 23.280080 13.387477 -45.000000
      vertex 23.280080 13.387477 -37.000000
      vertex 24.040814 11.721703 -45.000000
    endloop
  endfacet
  facet normal 0.989755 -0.142305 0.011629
    outer loop
      vertex 52.171872 14.545152 -45.000000
      vertex 52.006483 14.620682 -30.000000
      vertex 51.995184 14.542093 -30.000000
    endloop
  endfacet
  facet normal 0.989755 -0.142305 0.011629
    outer loop
      vertex 51.934584 12.894778 -45.000000
      vertex 52.171872 14.545152 -45.000000
      vertex 51.995184 14.542093 -30.000000
    endloop
  endfacet
  facet normal 0.989755 -0.142305 0.011629
    outer loop
      vertex 51.922556 12.811119 -45.000000
      vertex 51.934584 12.894778 -45.000000
      vertex 51.995184 14.542093 -30.000000
    endloop
  endfacet
  facet normal 0.989755 -0.142305 0.011629
    outer loop
      vertex 51.742587 12.785243 -30.000000
      vertex 51.922556 12.811119 -45.000000
      vertex 51.995184 14.542093 -30.000000
    endloop
  endfacet
  facet normal 0.755698 -0.654817 0.011629
    outer loop
      vertex 52.171872 14.545152 -45.000000
      vertex 52.227220 14.609028 -45.000000
      vertex 53.168806 15.962073 -30.000000
    endloop
  endfacet
  facet normal 0.755698 -0.654817 0.011629
    outer loop
      vertex 52.006483 14.620682 -30.000000
      vertex 52.171872 14.545152 -45.000000
      vertex 53.168806 15.962073 -30.000000
    endloop
  endfacet
  facet normal 0.755699 -0.654816 0.011629
    outer loop
      vertex 53.319098 15.869122 -45.000000
      vertex 53.220800 16.022078 -30.000000
      vertex 53.168806 15.962073 -30.000000
    endloop
  endfacet
  facet normal 0.755699 -0.654816 0.011629
    outer loop
      vertex 52.227220 14.609028 -45.000000
      vertex 53.319098 15.869122 -45.000000
      vertex 53.168806 15.962073 -30.000000
    endloop
  endfacet
  facet normal 0.281713 -0.959428 0.011629
    outer loop
      vertex 53.319098 15.869122 -45.000000
      vertex 53.400194 15.892934 -45.000000
      vertex 54.923819 16.522129 -30.000000
    endloop
  endfacet
  facet normal 0.281713 -0.959428 0.011629
    outer loop
      vertex 53.220800 16.022078 -30.000000
      vertex 53.319098 15.869122 -45.000000
      vertex 54.923819 16.522129 -30.000000
    endloop
  endfacet
  facet normal 0.281713 -0.959428 0.011629
    outer loop
      vertex 55.000000 16.362679 -45.000000
      vertex 55.000000 16.544498 -30.000000
      vertex 54.923819 16.522129 -30.000000
    endloop
  endfacet
  facet normal 0.281713 -0.959428 0.011629
    outer loop
      vertex 53.400194 15.892934 -45.000000
      vertex 55.000000 16.362679 -45.000000
      vertex 54.923819 16.522129 -30.000000
    endloop
  endfacet
  facet normal -0.281713 -0.959428 0.011629
    outer loop
      vertex 55.081096 16.338867 -45.000000
      vertex 56.703019 16.044447 -30.000000
      vertex 55.000000 16.544498 -30.000000
    endloop
  endfacet
  facet normal -0.281713 -0.959428 0.011629
    outer loop
      vertex 55.000000 16.362679 -45.000000
      vertex 55.081096 16.338867 -45.000000
      vertex 55.000000 16.544498 -30.000000
    endloop
  endfacet
  facet normal -0.281713 -0.959428 0.011629
    outer loop
      vertex 56.680902 15.869122 -45.000000
      vertex 56.779200 16.022078 -30.000000
      vertex 56.703019 16.044447 -30.000000
    endloop
  endfacet
  facet normal -0.281713 -0.959428 0.011629
    outer loop
      vertex 55.081096 16.338867 -45.000000
      vertex 56.680902 15.869122 -45.000000
      vertex 56.703019 16.044447 -30.000000
    endloop
  endfacet
  facet normal -0.755698 -0.654817 0.011629
    outer loop
      vertex 57.941522 14.680687 -30.000000
      vertex 56.779200 16.022078 -30.000000
      vertex 56.736251 15.805247 -45.000000
    endloop
  endfacet
  facet normal -0.755698 -0.654817 0.011629
    outer loop
      vertex 56.736251 15.805247 -45.000000
      vertex 56.779200 16.022078 -30.000000
      vertex 56.680902 15.869122 -45.000000
    endloop
  endfacet
  facet normal -0.755699 -0.654816 0.011629
    outer loop
      vertex 57.993517 14.620682 -30.000000
      vertex 57.941522 14.680687 -30.000000
      vertex 57.828128 14.545152 -45.000000
    endloop
  endfacet
  facet normal -0.755699 -0.654816 0.011629
    outer loop
      vertex 57.828128 14.545152 -45.000000
      vertex 57.941522 14.680687 -30.000000
      vertex 56.736251 15.805247 -45.000000
    endloop
  endfacet
  facet normal -0.989755 -0.142305 0.011629
    outer loop
      vertex 58.246113 12.863833 -30.000000
      vertex 57.993517 14.620682 -30.000000
      vertex 57.840157 14.461493 -45.000000
    endloop
  endfacet
  facet normal -0.989755 -0.142305 0.011629
    outer loop
      vertex 57.840157 14.461493 -45.000000
      vertex 57.993517 14.620682 -30.000000
      vertex 57.828128 14.545152 -45.000000
    endloop
  endfacet
  facet normal -0.989755 -0.142305 0.011629
    outer loop
      vertex 58.257413 12.785243 -30.000000
      vertex 58.246113 12.863833 -30.000000
      vertex 58.077444 12.811119 -45.000000
    endloop
  endfacet
  facet normal -0.989755 -0.142305 0.011629
    outer loop
      vertex 58.077444 12.811119 -45.000000
      vertex 58.246113 12.863833 -30.000000
      vertex 57.840157 14.461493 -45.000000
    endloop
  endfacet
  facet normal -0.909570 0.415387 0.011629
    outer loop
      vertex 58.077444 12.811119 -45.000000
      vertex 58.042334 12.734237 -45.000000
      vertex 58.257413 12.785243 -30.000000
    endloop
  endfacet
  facet normal -0.909570 0.415387 0.011629
    outer loop
      vertex 58.257413 12.785243 -30.000000
      vertex 58.042334 12.734237 -45.000000
      vertex 57.520086 11.170724 -30.000000
    endloop
  endfacet
  facet normal -0.909571 0.415387 0.011629
    outer loop
      vertex 57.520086 11.170724 -30.000000
      vertex 58.042334 12.734237 -45.000000
      vertex 57.487104 11.098502 -30.000000
    endloop
  endfacet
  facet normal -0.909571 0.415387 0.011629
    outer loop
      vertex 57.487104 11.098502 -30.000000
      vertex 58.042334 12.734237 -45.000000
      vertex 57.349694 11.217567 -45.000000
    endloop
  endfacet
  facet normal -0.540604 0.841197 0.011629
    outer loop
      vertex 57.349694 11.217567 -45.000000
      vertex 57.278592 11.171872 -45.000000
      vertex 57.487104 11.098502 -30.000000
    endloop
  endfacet
  facet normal -0.540604 0.841197 0.011629
    outer loop
      vertex 57.487104 11.098502 -30.000000
      vertex 57.278592 11.171872 -45.000000
      vertex 55.993949 10.138910 -30.000000
    endloop
  endfacet
  facet normal -0.540604 0.841197 0.011629
    outer loop
      vertex 55.993949 10.138910 -30.000000
      vertex 57.278592 11.171872 -45.000000
      vertex 55.927156 10.095984 -30.000000
    endloop
  endfacet
  facet normal -0.540604 0.841197 0.011629
    outer loop
      vertex 55.927156 10.095984 -30.000000
      vertex 57.278592 11.171872 -45.000000
      vertex 55.875932 10.270438 -45.000000
    endloop
  endfacet
  facet normal -0.000000 0.999932 0.011629
    outer loop
      vertex 55.875932 10.270438 -45.000000
      vertex 54.124068 10.270438 -45.000000
      vertex 55.927156 10.095984 -30.000000
    endloop
  endfacet
  facet normal -0.000000 0.999932 0.011629
    outer loop
      vertex 55.927156 10.095984 -30.000000
      vertex 54.124068 10.270438 -45.000000
      vertex 54.072844 10.095984 -30.000000
    endloop
  endfacet
  facet normal 0.540604 0.841197 0.011629
    outer loop
      vertex 54.124068 10.270438 -45.000000
      vertex 54.052965 10.316133 -45.000000
      vertex 54.072844 10.095984 -30.000000
    endloop
  endfacet
  facet normal 0.540604 0.841197 0.011629
    outer loop
      vertex 54.072844 10.095984 -30.000000
      vertex 54.052965 10.316133 -45.000000
      vertex 52.579690 11.055576 -30.000000
    endloop
  endfacet
  facet normal 0.540604 0.841197 0.011629
    outer loop
      vertex 54.052965 10.316133 -45.000000
      vertex 52.650306 11.217567 -45.000000
      vertex 52.579690 11.055576 -30.000000
    endloop
  endfacet
  facet normal 0.540604 0.841197 0.011629
    outer loop
      vertex 52.579690 11.055576 -30.000000
      vertex 52.650306 11.217567 -45.000000
      vertex 52.512896 11.098502 -30.000000
    endloop
  endfacet
  facet normal 0.909570 0.415387 0.011629
    outer loop
      vertex 52.512896 11.098502 -30.000000
      vertex 52.650306 11.217567 -45.000000
      vertex 52.615195 11.294449 -45.000000
    endloop
  endfacet
  facet normal 0.909570 0.415387 0.011629
    outer loop
      vertex 51.775570 12.713021 -30.000000
      vertex 52.512896 11.098502 -30.000000
      vertex 52.615195 11.294449 -45.000000
    endloop
  endfacet
  facet normal 0.909571 0.415387 0.011629
    outer loop
      vertex 51.775570 12.713021 -30.000000
      vertex 52.615195 11.294449 -45.000000
      vertex 51.922556 12.811119 -45.000000
    endloop
  endfacet
  facet normal 0.909571 0.415387 0.011629
    outer loop
      vertex 51.742587 12.785243 -30.000000
      vertex 51.775570 12.713021 -30.000000
      vertex 51.922556 12.811119 -45.000000
    endloop
  endfacet
  facet normal 0.866025 0.500000 -0.000000
    outer loop
      vertex 23.322000 8.350739 -30.000000
      vertex 23.322000 8.350739 -37.000000
      vertex 20.147000 13.850000 -37.000000
    endloop
  endfacet
  facet normal 0.866025 0.500000 -0.000000
    outer loop
      vertex 20.147000 13.850000 -30.000000
      vertex 23.322000 8.350739 -30.000000
      vertex 20.147000 13.850000 -37.000000
    endloop
  endfacet
  facet normal -0.000000 1.000000 0.000000
    outer loop
      vertex 29.672000 8.350739 -37.000000
      vertex 23.322000 8.350739 -37.000000
      vertex 29.672000 8.350739 -30.000000
    endloop
  endfacet
  facet normal 0.000000 1.000000 0.000000
    outer loop
      vertex 29.672000 8.350739 -30.000000
      vertex 23.322000 8.350739 -37.000000
      vertex 23.322000 8.350739 -30.000000
    endloop
  endfacet
  facet normal -0.866025 0.500000 0.000000
    outer loop
      vertex 32.847000 13.850000 -37.000000
      vertex 29.672000 8.350739 -37.000000
      vertex 32.847000 13.850000 -30.000000
    endloop
  endfacet
  facet normal -0.866025 0.500000 0.000000
    outer loop
      vertex 32.847000 13.850000 -30.000000
      vertex 29.672000 8.350739 -37.000000
      vertex 29.672000 8.350739 -30.000000
    endloop
  endfacet
  facet normal -0.866025 -0.500000 -0.000000
    outer loop
      vertex 32.847000 13.850000 -37.000000
      vertex 32.847000 13.850000 -30.000000
      vertex 29.672000 19.349261 -37.000000
    endloop
  endfacet
  facet normal -0.866025 -0.500000 -0.000000
    outer loop
      vertex 29.672000 19.349261 -37.000000
      vertex 32.847000 13.850000 -30.000000
      vertex 29.672000 19.349261 -30.000000
    endloop
  endfacet
  facet normal -0.000000 -1.000000 0.000000
    outer loop
      vertex 23.322000 19.349261 -37.000000
      vertex 29.672000 19.349261 -37.000000
      vertex 29.672000 19.349261 -30.000000
    endloop
  endfacet
  facet normal 0.000000 -1.000000 0.000000
    outer loop
      vertex 23.322000 19.349261 -30.000000
      vertex 23.322000 19.349261 -37.000000
      vertex 29.672000 19.349261 -30.000000
    endloop
  endfacet
  facet normal 0.866025 -0.500000 0.000000
    outer loop
      vertex 20.147000 13.850000 -37.000000
      vertex 23.322000 19.349261 -37.000000
      vertex 23.322000 19.349261 -30.000000
    endloop
  endfacet
  facet normal 0.866025 -0.500000 0.000000
    outer loop
      vertex 20.147000 13.850000 -30.000000
      vertex 20.147000 13.850000 -37.000000
      vertex 23.322000 19.349261 -30.000000
    endloop
  endfacet
  facet normal 0.000000 0.000000 1.000000
    outer loop
      vertex 23.322000 8.350739 -37.000000
      vertex 29.672000 8.350739 -37.000000
      vertex 32.847000 13.850000 -37.000000
    endloop
  endfacet
  facet normal 0.000000 -0.000000 1.000000
    outer loop
      vertex 27.412631 10.731648 -37.000000
      vertex 23.322000 8.350739 -37.000000
      vertex 32.847000 13.850000 -37.000000
    endloop
  endfacet
  facet normal 0.000000 0.000000 1.000000
    outer loop
      vertex 24.739917 16.584074 -37.000000
      vertex 26.497000 17.100000 -37.000000
      vertex 29.672000 19.349261 -37.000000
    endloop
  endfacet
  facet normal 0.000000 0.000000 1.000000
    outer loop
      vertex 26.497000 17.100000 -37.000000
      vertex 28.254083 16.584074 -37.000000
      vertex 29.672000 19.349261 -37.000000
    endloop
  endfacet
  facet normal 0.000000 0.000000 1.000000
    outer loop
      vertex 23.322000 19.349261 -37.000000
      vertex 24.739917 16.584074 -37.000000
      vertex 29.672000 19.349261 -37.000000
    endloop
  endfacet
  facet normal 0.000000 0.000000 1.000000
    outer loop
      vertex 23.322000 19.349261 -37.000000
      vertex 23.540696 15.200099 -37.000000
      vertex 24.739917 16.584074 -37.000000
    endloop
  endfacet
  facet normal -0.000000 0.000000 1.000000
    outer loop
      vertex 24.040814 11.721703 -37.000000
      vertex 23.280080 13.387477 -37.000000
      vertex 23.322000 8.350739 -37.000000
    endloop
  endfacet
  facet normal 0.000000 -0.000000 1.000000
    outer loop
      vertex 29.672000 19.349261 -37.000000
      vertex 28.254083 16.584074 -37.000000
      vertex 32.847000 13.850000 -37.000000
    endloop
  endfacet
  facet normal 0.000000 0.000000 1.000000
    outer loop
      vertex 28.254083 16.584074 -37.000000
      vertex 29.453304 15.200099 -37.000000
      vertex 32.847000 13.850000 -37.000000
    endloop
  endfacet
  facet normal 0.000000 0.000000 1.000000
    outer loop
      vertex 29.453304 15.200099 -37.000000
      vertex 29.713920 13.387477 -37.000000
      vertex 32.847000 13.850000 -37.000000
    endloop
  endfacet
  facet normal 0.000000 -0.000000 1.000000
    outer loop
      vertex 29.713920 13.387477 -37.000000
      vertex 28.953186 11.721703 -37.000000
      vertex 32.847000 13.850000 -37.000000
    endloop
  endfacet
  facet normal 0.000000 -0.000000 1.000000
    outer loop
      vertex 28.953186 11.721703 -37.000000
      vertex 27.412631 10.731648 -37.000000
      vertex 32.847000 13.850000 -37.000000
    endloop
  endfacet
  facet normal 0.000000 0.000000 1.000000
    outer loop
      vertex 20.147000 13.850000 -37.000000
      vertex 23.280080 13.387477 -37.000000
      vertex 23.322000 19.349261 -37.000000
    endloop
  endfacet
  facet normal 0.000000 0.000000 1.000000
    outer loop
      vertex 20.147000 13.850000 -37.000000
      vertex 23.322000 8.350739 -37.000000
      vertex 23.280080 13.387477 -37.000000
    endloop
  endfacet
  facet normal 0.000000 0.000000 1.000000
    outer loop
      vertex 23.280080 13.387477 -37.000000
      vertex 23.540696 15.200099 -37.000000
      vertex 23.322000 19.349261 -37.000000
    endloop
  endfacet
  facet normal 0.000000 0.000000 1.000000
    outer loop
      vertex 27.412631 10.731648 -37.000000
      vertex 25.581369 10.731648 -37.000000
      vertex 23.322000 8.350739 -37.000000
    endloop
  endfacet
  facet normal -0.000000 0.000000 1.000000
    outer loop
      vertex 25.581369 10.731648 -37.000000
      vertex 24.040814 11.721703 -37.000000
      vertex 23.322000 8.350739 -37.000000
    endloop
  endfacet
endsolid
