solid
  facet normal -1.000000 -0.000000 -0.000000
    outer loop
      vertex 0.000000 0.000000 -45.000000
      vertex 0.000000 0.000000 -30.000000
      vertex 0.000000 28.550000 -45.000000
    endloop
  endfacet
  facet normal -1.000000 0.000000 0.000000
    outer loop
      vertex 0.000000 28.550000 -45.000000
      vertex 0.000000 0.000000 -30.000000
      vertex 0.000000 28.550000 -30.000000
    endloop
  endfacet
  facet normal 0.000000 -1.000000 0.000000
    outer loop
      vertex 0.000000 0.000000 -30.000000
      vertex 0.000000 0.000000 -45.000000
      vertex 60.000000 0.000000 -45.000000
    endloop
  endfacet
  facet normal 0.000000 -1.000000 0.000000
    outer loop
      vertex 60.000000 0.000000 -30.000000
      vertex 0.000000 0.000000 -30.000000
      vertex 60.000000 0.000000 -45.000000
    endloop
  endfacet
  facet normal 0.000000 -0.000000 -1.000000
    outer loop
      vertex 28.347000 17.479294 -45.000000
      vertex 0.000000 28.550000 -45.000000
      vertex 60.000000 28.550000 -45.000000
    endloop
  endfacet
  facet normal 0.000000 -0.000000 -1.000000
    outer loop
      vertex 1.922556 13.832530 -45.000000
      vertex 0.000000 28.550000 -45.000000
      vertex 1.934584 13.916190 -45.000000
    endloop
  endfacet
  facet normal 0.000000 -0.000000 -1.000000
    outer loop
      vertex 0.000000 0.000000 -45.000000
      vertex 0.000000 28.550000 -45.000000
      vertex 1.922556 13.832530 -45.000000
    endloop
  endfacet
  facet normal 0.000000 0.000000 -1.000000
    outer loop
      vertex 5.875932 11.291849 -45.000000
      vertex 60.000000 0.000000 -45.000000
      vertex 4.124068 11.291849 -45.000000
    endloop
  endfacet
  facet normal 0.000000 0.000000 -1.000000
    outer loop
      vertex 0.000000 0.000000 -45.000000
      vertex 2.615195 12.315861 -45.000000
      vertex 2.650306 12.238979 -45.000000
    endloop
  endfacet
  facet normal 0.000000 0.000000 -1.000000
    outer loop
      vertex 0.000000 0.000000 -45.000000
      vertex 2.650306 12.238979 -45.000000
      vertex 4.052965 11.337544 -45.000000
    endloop
  endfacet
  facet normal 0.000000 0.000000 -1.000000
    outer loop
      vertex 0.000000 0.000000 -45.000000
      vertex 4.052965 11.337544 -45.000000
      vertex 4.124068 11.291849 -45.000000
    endloop
  endfacet
  facet normal -0.000000 0.000000 -1.000000
    outer loop
      vertex 0.000000 0.000000 -45.000000
      vertex 4.124068 11.291849 -45.000000
      vertex 60.000000 0.000000 -45.000000
    endloop
  endfacet
  facet normal 0.000000 0.000000 -1.000000
    outer loop
      vertex 7.278592 12.193284 -45.000000
      vertex 60.000000 0.000000 -45.000000
      vertex 5.875932 11.291849 -45.000000
    endloop
  endfacet
  facet normal 0.000000 0.000000 -1.000000
    outer loop
      vertex 8.042334 13.755648 -45.000000
      vertex 60.000000 0.000000 -45.000000
      vertex 7.349694 12.238979 -45.000000
    endloop
  endfacet
  facet normal -0.000000 0.000000 -1.000000
    outer loop
      vertex 7.278592 12.193284 -45.000000
      vertex 7.349694 12.238979 -45.000000
      vertex 60.000000 0.000000 -45.000000
    endloop
  endfacet
  facet normal 0.000000 -0.000000 -1.000000
    outer loop
      vertex 22.797000 14.275000 -45.000000
      vertex 0.000000 28.550000 -45.000000
      vertex 23.292706 16.125000 -45.000000
    endloop
  endfacet
  facet normal -0.000000 -0.000000 -1.000000
    outer loop
      vertex 6.736251 16.826658 -45.000000
      vertex 0.000000 28.550000 -45.000000
      vertex 7.828128 15.566564 -45.000000
    endloop
  endfacet
  facet normal -0.000000 0.000000 -1.000000
    outer loop
      vertex 8.042334 13.755648 -45.000000
      vertex 8.077444 13.832530 -45.000000
      vertex 60.000000 0.000000 -45.000000
    endloop
  endfacet
  facet normal -0.000000 -0.000000 -1.000000
    outer loop
      vertex 5.081096 17.360279 -45.000000
      vertex 0.000000 28.550000 -45.000000
      vertex 6.680902 16.890534 -45.000000
    endloop
  endfacet
  facet normal -0.000000 -0.000000 -1.000000
    outer loop
      vertex 8.077444 13.832530 -45.000000
      vertex 7.840157 15.482904 -45.000000
      vertex 60.000000 0.000000 -45.000000
    endloop
  endfacet
  facet normal -0.000000 -0.000000 -1.000000
    outer loop
      vertex 7.840157 15.482904 -45.000000
      vertex 7.828128 15.566564 -45.000000
      vertex 60.000000 0.000000 -45.000000
    endloop
  endfacet
  facet normal -0.000000 -0.000000 -1.000000
    outer loop
      vertex 6.680902 16.890534 -45.000000
      vertex 0.000000 28.550000 -45.000000
      vertex 6.736251 16.826658 -45.000000
    endloop
  endfacet
  facet normal -0.000000 -0.000000 -1.000000
    outer loop
      vertex 5.000000 17.384091 -45.000000
      vertex 0.000000 28.550000 -45.000000
      vertex 5.081096 17.360279 -45.000000
    endloop
  endfacet
  facet normal 0.000000 -0.000000 -1.000000
    outer loop
      vertex 3.400194 16.914346 -45.000000
      vertex 0.000000 28.550000 -45.000000
      vertex 5.000000 17.384091 -45.000000
    endloop
  endfacet
  facet normal 0.000000 -0.000000 -1.000000
    outer loop
      vertex 3.319098 16.890534 -45.000000
      vertex 0.000000 28.550000 -45.000000
      vertex 3.400194 16.914346 -45.000000
    endloop
  endfacet
  facet normal 0.000000 -0.000000 -1.000000
    outer loop
      vertex 2.227220 15.630439 -45.000000
      vertex 0.000000 28.550000 -45.000000
      vertex 3.319098 16.890534 -45.000000
    endloop
  endfacet
  facet normal 0.000000 -0.000000 -1.000000
    outer loop
      vertex 2.171872 15.566564 -45.000000
      vertex 0.000000 28.550000 -45.000000
      vertex 2.227220 15.630439 -45.000000
    endloop
  endfacet
  facet normal 0.000000 -0.000000 -1.000000
    outer loop
      vertex 1.934584 13.916190 -45.000000
      vertex 0.000000 28.550000 -45.000000
      vertex 2.171872 15.566564 -45.000000
    endloop
  endfacet
  facet normal -0.000000 -0.000000 -1.000000
    outer loop
      vertex 7.828128 15.566564 -45.000000
      vertex 0.000000 28.550000 -45.000000
      vertex 22.797000 14.275000 -45.000000
    endloop
  endfacet
  facet normal 0.000000 0.000000 -1.000000
    outer loop
      vertex 54.052965 10.722831 -45.000000
      vertex 60.000000 0.000000 -45.000000
      vertex 52.650306 11.624266 -45.000000
    endloop
  endfacet
  facet normal 0.000000 0.000000 -1.000000
    outer loop
      vertex 7.828128 15.566564 -45.000000
      vertex 22.797000 14.275000 -45.000000
      vertex 23.292706 12.425000 -45.000000
    endloop
  endfacet
  facet normal 0.000000 0.000000 -1.000000
    outer loop
      vertex 7.828128 15.566564 -45.000000
      vertex 23.292706 12.425000 -45.000000
      vertex 24.647000 11.070706 -45.000000
    endloop
  endfacet
  facet normal 0.000000 0.000000 -1.000000
    outer loop
      vertex 7.828128 15.566564 -45.000000
      vertex 24.647000 11.070706 -45.000000
      vertex 60.000000 0.000000 -45.000000
    endloop
  endfacet
  facet normal 0.000000 0.000000 -1.000000
    outer loop
      vertex 24.647000 11.070706 -45.000000
      vertex 26.497000 10.575000 -45.000000
      vertex 60.000000 0.000000 -45.000000
    endloop
  endfacet
  facet normal 0.000000 0.000000 -1.000000
    outer loop
      vertex 29.701294 12.425000 -45.000000
      vertex 60.000000 0.000000 -45.000000
      vertex 28.347000 11.070706 -45.000000
    endloop
  endfacet
  facet normal 0.000000 0.000000 -1.000000
    outer loop
      vertex 28.347000 11.070706 -45.000000
      vertex 60.000000 0.000000 -45.000000
      vertex 26.497000 10.575000 -45.000000
    endloop
  endfacet
  facet normal 0.000000 0.000000 -1.000000
    outer loop
      vertex 30.197000 14.275000 -45.000000
      vertex 60.000000 0.000000 -45.000000
      vertex 29.701294 12.425000 -45.000000
    endloop
  endfacet
  facet normal 0.000000 -0.000000 -1.000000
    outer loop
      vertex 24.647000 17.479294 -45.000000
      vertex 0.000000 28.550000 -45.000000
      vertex 26.497000 17.975000 -45.000000
    endloop
  endfacet
  facet normal 0.000000 -0.000000 -1.000000
    outer loop
      vertex 53.400194 16.299633 -45.000000
      vertex 30.197000 14.275000 -45.000000
      vertex 60.000000 28.550000 -45.000000
    endloop
  endfacet
  facet normal 0.000000 -0.000000 -1.000000
    outer loop
      vertex 23.292706 16.125000 -45.000000
      vertex 0.000000 28.550000 -45.000000
      vertex 24.647000 17.479294 -45.000000
    endloop
  endfacet
  facet normal 0.000000 -0.000000 -1.000000
    outer loop
      vertex 30.197000 14.275000 -45.000000
      vertex 29.701294 16.125000 -45.000000
      vertex 60.000000 28.550000 -45.000000
    endloop
  endfacet
  facet normal -0.000000 -0.000000 -1.000000
    outer loop
      vertex 26.497000 17.975000 -45.000000
      vertex 0.000000 28.550000 -45.000000
      vertex 28.347000 17.479294 -45.000000
    endloop
  endfacet
  facet normal 0.000000 -0.000000 -1.000000
    outer loop
      vertex 29.701294 16.125000 -45.000000
      vertex 28.347000 17.479294 -45.000000
      vertex 60.000000 28.550000 -45.000000
    endloop
  endfacet
  facet normal 0.000000 -0.000000 -1.000000
    outer loop
      vertex 51.922556 13.217817 -45.000000
      vertex 30.197000 14.275000 -45.000000
      vertex 51.934584 13.301477 -45.000000
    endloop
  endfacet
  facet normal 0.000000 0.000000 -1.000000
    outer loop
      vertex 52.615195 11.701148 -45.000000
      vertex 30.197000 14.275000 -45.000000
      vertex 51.922556 13.217817 -45.000000
    endloop
  endfacet
  facet normal 0.000000 0.000000 -1.000000
    outer loop
      vertex 52.650306 11.624266 -45.000000
      vertex 30.197000 14.275000 -45.000000
      vertex 52.615195 11.701148 -45.000000
    endloop
  endfacet
  facet normal 0.000000 0.000000 -1.000000
    outer loop
      vertex 60.000000 0.000000 -45.000000
      vertex 30.197000 14.275000 -45.000000
      vertex 52.650306 11.624266 -45.000000
    endloop
  endfacet
  facet normal -0.000000 0.000000 -1.000000
    outer loop
      vertex 57.840157 14.868191 -45.000000
      vertex 60.000000 28.550000 -45.000000
      vertex 58.077444 13.217817 -45.000000
    endloop
  endfacet
  facet normal 0.000000 0.000000 -1.000000
    outer loop
      vertex 60.000000 0.000000 -45.000000
      vertex 54.052965 10.722831 -45.000000
      vertex 54.124068 10.677136 -45.000000
    endloop
  endfacet
  facet normal 0.000000 0.000000 -1.000000
    outer loop
      vertex 60.000000 0.000000 -45.000000
      vertex 54.124068 10.677136 -45.000000
      vertex 55.875932 10.677136 -45.000000
    endloop
  endfacet
  facet normal 0.000000 0.000000 -1.000000
    outer loop
      vertex 60.000000 0.000000 -45.000000
      vertex 55.875932 10.677136 -45.000000
      vertex 57.278592 11.578571 -45.000000
    endloop
  endfacet
  facet normal 0.000000 0.000000 -1.000000
    outer loop
      vertex 60.000000 0.000000 -45.000000
      vertex 57.278592 11.578571 -45.000000
      vertex 57.349694 11.624266 -45.000000
    endloop
  endfacet
  facet normal 0.000000 0.000000 -1.000000
    outer loop
      vertex 60.000000 0.000000 -45.000000
      vertex 57.349694 11.624266 -45.000000
      vertex 58.042334 13.140935 -45.000000
    endloop
  endfacet
  facet normal 0.000000 0.000000 -1.000000
    outer loop
      vertex 60.000000 0.000000 -45.000000
      vertex 58.042334 13.140935 -45.000000
      vertex 58.077444 13.217817 -45.000000
    endloop
  endfacet
  facet normal 0.000000 0.000000 -1.000000
    outer loop
      vertex 60.000000 0.000000 -45.000000
      vertex 58.077444 13.217817 -45.000000
      vertex 60.000000 28.550000 -45.000000
    endloop
  endfacet
  facet normal -0.000000 0.000000 -1.000000
    outer loop
      vertex 56.736251 16.211945 -45.000000
      vertex 60.000000 28.550000 -45.000000
      vertex 57.828128 14.951851 -45.000000
    endloop
  endfacet
  facet normal 0.000000 -0.000000 -1.000000
    outer loop
      vertex 57.840157 14.868191 -45.000000
      vertex 57.828128 14.951851 -45.000000
      vertex 60.000000 28.550000 -45.000000
    endloop
  endfacet
  facet normal -0.000000 0.000000 -1.000000
    outer loop
      vertex 55.081096 16.745566 -45.000000
      vertex 60.000000 28.550000 -45.000000
      vertex 56.680902 16.275821 -45.000000
    endloop
  endfacet
  facet normal 0.000000 -0.000000 -1.000000
    outer loop
      vertex 56.736251 16.211945 -45.000000
      vertex 56.680902 16.275821 -45.000000
      vertex 60.000000 28.550000 -45.000000
    endloop
  endfacet
  facet normal 0.000000 0.000000 -1.000000
    outer loop
      vertex 53.400194 16.299633 -45.000000
      vertex 60.000000 28.550000 -45.000000
      vertex 55.000000 16.769378 -45.000000
    endloop
  endfacet
  facet normal 0.000000 -0.000000 -1.000000
    outer loop
      vertex 55.081096 16.745566 -45.000000
      vertex 55.000000 16.769378 -45.000000
      vertex 60.000000 28.550000 -45.000000
    endloop
  endfacet
  facet normal 0.000000 -0.000000 -1.000000
    outer loop
      vertex 53.319098 16.275821 -45.000000
      vertex 30.197000 14.275000 -45.000000
      vertex 53.400194 16.299633 -45.000000
    endloop
  endfacet
  facet normal 0.000000 -0.000000 -1.000000
    outer loop
      vertex 52.227220 15.015726 -45.000000
      vertex 30.197000 14.275000 -45.000000
      vertex 53.319098 16.275821 -45.000000
    endloop
  endfacet
  facet normal 0.000000 -0.000000 -1.000000
    outer loop
      vertex 52.171872 14.951851 -45.000000
      vertex 30.197000 14.275000 -45.000000
      vertex 52.227220 15.015726 -45.000000
    endloop
  endfacet
  facet normal 0.000000 -0.000000 -1.000000
    outer loop
      vertex 51.934584 13.301477 -45.000000
      vertex 30.197000 14.275000 -45.000000
      vertex 52.171872 14.951851 -45.000000
    endloop
  endfacet
  facet normal 0.000000 0.000000 -1.000000
    outer loop
      vertex 2.615195 12.315861 -45.000000
      vertex 0.000000 0.000000 -45.000000
      vertex 1.922556 13.832530 -45.000000
    endloop
  endfacet
  facet normal 0.000000 1.000000 0.000000
    outer loop
      vertex 0.000000 28.550000 -45.000000
      vertex 0.000000 28.550000 -30.000000
      vertex 60.000000 28.550000 -45.000000
    endloop
  endfacet
  facet normal 0.000000 1.000000 0.000000
    outer loop
      vertex 60.000000 28.550000 -45.000000
      vertex 0.000000 28.550000 -30.000000
      vertex 60.000000 28.550000 -30.000000
    endloop
  endfacet
  facet normal 0.000000 -0.000000 1.000000
    outer loop
      vertex 23.109500 8.407678 -30.000000
      vertex 0.000000 0.000000 -30.000000
      vertex 60.000000 0.000000 -30.000000
    endloop
  endfacet
  facet normal 0.000000 0.000000 1.000000
    outer loop
      vertex 29.884500 20.142322 -30.000000
      vertex 33.272000 14.275000 -30.000000
      vertex 60.000000 0.000000 -30.000000
    endloop
  endfacet
  facet normal 0.000000 0.000000 1.000000
    outer loop
      vertex 7.487104 12.119913 -30.000000
      vertex 5.993949 11.160321 -30.000000
      vertex 0.000000 0.000000 -30.000000
    endloop
  endfacet
  facet normal 0.000000 -0.000000 1.000000
    outer loop
      vertex 1.742587 13.806655 -30.000000
      vertex 0.000000 0.000000 -30.000000
      vertex 1.775570 13.734432 -30.000000
    endloop
  endfacet
  facet normal 0.000000 -0.000000 1.000000
    outer loop
      vertex 0.000000 28.550000 -30.000000
      vertex 0.000000 0.000000 -30.000000
      vertex 1.742587 13.806655 -30.000000
    endloop
  endfacet
  facet normal 0.000000 0.000000 1.000000
    outer loop
      vertex 23.109500 8.407678 -30.000000
      vertex 7.993517 15.642094 -30.000000
      vertex 8.246113 13.885244 -30.000000
    endloop
  endfacet
  facet normal 0.000000 0.000000 1.000000
    outer loop
      vertex 23.109500 8.407678 -30.000000
      vertex 8.246113 13.885244 -30.000000
      vertex 8.257413 13.806655 -30.000000
    endloop
  endfacet
  facet normal 0.000000 0.000000 1.000000
    outer loop
      vertex 0.000000 28.550000 -30.000000
      vertex 1.995184 15.563504 -30.000000
      vertex 2.006483 15.642094 -30.000000
    endloop
  endfacet
  facet normal 0.000000 0.000000 1.000000
    outer loop
      vertex 23.109500 8.407678 -30.000000
      vertex 19.722000 14.275000 -30.000000
      vertex 6.779200 17.043489 -30.000000
    endloop
  endfacet
  facet normal 0.000000 0.000000 1.000000
    outer loop
      vertex 0.000000 28.550000 -30.000000
      vertex 2.006483 15.642094 -30.000000
      vertex 3.168806 16.983485 -30.000000
    endloop
  endfacet
  facet normal 0.000000 0.000000 1.000000
    outer loop
      vertex 0.000000 28.550000 -30.000000
      vertex 3.168806 16.983485 -30.000000
      vertex 3.220800 17.043489 -30.000000
    endloop
  endfacet
  facet normal 0.000000 0.000000 1.000000
    outer loop
      vertex 0.000000 28.550000 -30.000000
      vertex 3.220800 17.043489 -30.000000
      vertex 4.923819 17.543540 -30.000000
    endloop
  endfacet
  facet normal 0.000000 0.000000 1.000000
    outer loop
      vertex 0.000000 28.550000 -30.000000
      vertex 4.923819 17.543540 -30.000000
      vertex 5.000000 17.565909 -30.000000
    endloop
  endfacet
  facet normal 0.000000 0.000000 1.000000
    outer loop
      vertex 0.000000 28.550000 -30.000000
      vertex 5.000000 17.565909 -30.000000
      vertex 6.703019 17.065858 -30.000000
    endloop
  endfacet
  facet normal 0.000000 0.000000 1.000000
    outer loop
      vertex 52.006483 15.027381 -30.000000
      vertex 53.168806 16.368772 -30.000000
      vertex 60.000000 28.550000 -30.000000
    endloop
  endfacet
  facet normal 0.000000 0.000000 1.000000
    outer loop
      vertex 0.000000 28.550000 -30.000000
      vertex 6.703019 17.065858 -30.000000
      vertex 6.779200 17.043489 -30.000000
    endloop
  endfacet
  facet normal 0.000000 0.000000 1.000000
    outer loop
      vertex 19.722000 14.275000 -30.000000
      vertex 23.109500 20.142322 -30.000000
      vertex 0.000000 28.550000 -30.000000
    endloop
  endfacet
  facet normal 0.000000 0.000000 1.000000
    outer loop
      vertex 23.109500 8.407678 -30.000000
      vertex 7.941522 15.702098 -30.000000
      vertex 7.993517 15.642094 -30.000000
    endloop
  endfacet
  facet normal 0.000000 0.000000 1.000000
    outer loop
      vertex 23.109500 8.407678 -30.000000
      vertex 7.520086 12.192136 -30.000000
      vertex 7.487104 12.119913 -30.000000
    endloop
  endfacet
  facet normal 0.000000 0.000000 1.000000
    outer loop
      vertex 23.109500 8.407678 -30.000000
      vertex 8.257413 13.806655 -30.000000
      vertex 7.520086 12.192136 -30.000000
    endloop
  endfacet
  facet normal 0.000000 -0.000000 1.000000
    outer loop
      vertex 5.927156 11.117396 -30.000000
      vertex 0.000000 0.000000 -30.000000
      vertex 5.993949 11.160321 -30.000000
    endloop
  endfacet
  facet normal 0.000000 -0.000000 1.000000
    outer loop
      vertex 4.072844 11.117396 -30.000000
      vertex 0.000000 0.000000 -30.000000
      vertex 5.927156 11.117396 -30.000000
    endloop
  endfacet
  facet normal 0.000000 -0.000000 1.000000
    outer loop
      vertex 2.579690 12.076988 -30.000000
      vertex 0.000000 0.000000 -30.000000
      vertex 4.072844 11.117396 -30.000000
    endloop
  endfacet
  facet normal 0.000000 -0.000000 1.000000
    outer loop
      vertex 2.512896 12.119913 -30.000000
      vertex 0.000000 0.000000 -30.000000
      vertex 2.579690 12.076988 -30.000000
    endloop
  endfacet
  facet normal 0.000000 -0.000000 1.000000
    outer loop
      vertex 1.775570 13.734432 -30.000000
      vertex 0.000000 0.000000 -30.000000
      vertex 2.512896 12.119913 -30.000000
    endloop
  endfacet
  facet normal 0.000000 -0.000000 1.000000
    outer loop
      vertex 7.487104 12.119913 -30.000000
      vertex 0.000000 0.000000 -30.000000
      vertex 23.109500 8.407678 -30.000000
    endloop
  endfacet
  facet normal 0.000000 0.000000 1.000000
    outer loop
      vertex 53.220800 16.428776 -30.000000
      vertex 54.923819 16.928827 -30.000000
      vertex 60.000000 28.550000 -30.000000
    endloop
  endfacet
  facet normal 0.000000 0.000000 1.000000
    outer loop
      vertex 0.000000 28.550000 -30.000000
      vertex 6.779200 17.043489 -30.000000
      vertex 19.722000 14.275000 -30.000000
    endloop
  endfacet
  facet normal 0.000000 -0.000000 1.000000
    outer loop
      vertex 33.272000 14.275000 -30.000000
      vertex 29.884500 8.407678 -30.000000
      vertex 60.000000 0.000000 -30.000000
    endloop
  endfacet
  facet normal 0.000000 0.000000 1.000000
    outer loop
      vertex 60.000000 28.550000 -30.000000
      vertex 0.000000 28.550000 -30.000000
      vertex 23.109500 20.142322 -30.000000
    endloop
  endfacet
  facet normal -0.000000 -0.000000 1.000000
    outer loop
      vertex 52.579690 11.462275 -30.000000
      vertex 29.884500 20.142322 -30.000000
      vertex 60.000000 0.000000 -30.000000
    endloop
  endfacet
  facet normal 0.000000 0.000000 1.000000
    outer loop
      vertex 60.000000 28.550000 -30.000000
      vertex 23.109500 20.142322 -30.000000
      vertex 29.884500 20.142322 -30.000000
    endloop
  endfacet
  facet normal -0.000000 -0.000000 1.000000
    outer loop
      vertex 29.884500 8.407678 -30.000000
      vertex 23.109500 8.407678 -30.000000
      vertex 60.000000 0.000000 -30.000000
    endloop
  endfacet
  facet normal 0.000000 -0.000000 1.000000
    outer loop
      vertex 58.257413 13.191942 -30.000000
      vertex 57.520086 11.577423 -30.000000
      vertex 60.000000 0.000000 -30.000000
    endloop
  endfacet
  facet normal -0.000000 -0.000000 1.000000
    outer loop
      vertex 51.742587 13.191942 -30.000000
      vertex 29.884500 20.142322 -30.000000
      vertex 51.775570 13.119719 -30.000000
    endloop
  endfacet
  facet normal -0.000000 0.000000 1.000000
    outer loop
      vertex 51.995184 14.948791 -30.000000
      vertex 29.884500 20.142322 -30.000000
      vertex 51.742587 13.191942 -30.000000
    endloop
  endfacet
  facet normal -0.000000 0.000000 1.000000
    outer loop
      vertex 52.006483 15.027381 -30.000000
      vertex 29.884500 20.142322 -30.000000
      vertex 51.995184 14.948791 -30.000000
    endloop
  endfacet
  facet normal 0.000000 0.000000 1.000000
    outer loop
      vertex 60.000000 28.550000 -30.000000
      vertex 29.884500 20.142322 -30.000000
      vertex 52.006483 15.027381 -30.000000
    endloop
  endfacet
  facet normal 0.000000 0.000000 1.000000
    outer loop
      vertex 60.000000 28.550000 -30.000000
      vertex 53.168806 16.368772 -30.000000
      vertex 53.220800 16.428776 -30.000000
    endloop
  endfacet
  facet normal -0.000000 -0.000000 1.000000
    outer loop
      vertex 54.072844 10.502683 -30.000000
      vertex 52.579690 11.462275 -30.000000
      vertex 60.000000 0.000000 -30.000000
    endloop
  endfacet
  facet normal 0.000000 0.000000 1.000000
    outer loop
      vertex 60.000000 28.550000 -30.000000
      vertex 54.923819 16.928827 -30.000000
      vertex 55.000000 16.951196 -30.000000
    endloop
  endfacet
  facet normal 0.000000 0.000000 1.000000
    outer loop
      vertex 60.000000 28.550000 -30.000000
      vertex 55.000000 16.951196 -30.000000
      vertex 56.703019 16.451145 -30.000000
    endloop
  endfacet
  facet normal 0.000000 -0.000000 1.000000
    outer loop
      vertex 57.487104 11.505200 -30.000000
      vertex 55.993949 10.545608 -30.000000
      vertex 60.000000 0.000000 -30.000000
    endloop
  endfacet
  facet normal 0.000000 0.000000 1.000000
    outer loop
      vertex 60.000000 28.550000 -30.000000
      vertex 56.703019 16.451145 -30.000000
      vertex 56.779200 16.428776 -30.000000
    endloop
  endfacet
  facet normal 0.000000 0.000000 1.000000
    outer loop
      vertex 60.000000 28.550000 -30.000000
      vertex 56.779200 16.428776 -30.000000
      vertex 57.941522 15.087385 -30.000000
    endloop
  endfacet
  facet normal 0.000000 0.000000 1.000000
    outer loop
      vertex 60.000000 28.550000 -30.000000
      vertex 57.941522 15.087385 -30.000000
      vertex 57.993517 15.027381 -30.000000
    endloop
  endfacet
  facet normal 0.000000 0.000000 1.000000
    outer loop
      vertex 60.000000 28.550000 -30.000000
      vertex 57.993517 15.027381 -30.000000
      vertex 58.246113 13.270531 -30.000000
    endloop
  endfacet
  facet normal 0.000000 0.000000 1.000000
    outer loop
      vertex 60.000000 28.550000 -30.000000
      vertex 58.257413 13.191942 -30.000000
      vertex 60.000000 0.000000 -30.000000
    endloop
  endfacet
  facet normal 0.000000 0.000000 1.000000
    outer loop
      vertex 60.000000 28.550000 -30.000000
      vertex 58.246113 13.270531 -30.000000
      vertex 58.257413 13.191942 -30.000000
    endloop
  endfacet
  facet normal 0.000000 -0.000000 1.000000
    outer loop
      vertex 57.520086 11.577423 -30.000000
      vertex 57.487104 11.505200 -30.000000
      vertex 60.000000 0.000000 -30.000000
    endloop
  endfacet
  facet normal 0.000000 -0.000000 1.000000
    outer loop
      vertex 55.993949 10.545608 -30.000000
      vertex 55.927156 10.502683 -30.000000
      vertex 60.000000 0.000000 -30.000000
    endloop
  endfacet
  facet normal 0.000000 -0.000000 1.000000
    outer loop
      vertex 55.927156 10.502683 -30.000000
      vertex 54.072844 10.502683 -30.000000
      vertex 60.000000 0.000000 -30.000000
    endloop
  endfacet
  facet normal -0.000000 -0.000000 1.000000
    outer loop
      vertex 52.512896 11.505200 -30.000000
      vertex 29.884500 20.142322 -30.000000
      vertex 52.579690 11.462275 -30.000000
    endloop
  endfacet
  facet normal -0.000000 -0.000000 1.000000
    outer loop
      vertex 51.775570 13.119719 -30.000000
      vertex 29.884500 20.142322 -30.000000
      vertex 52.512896 11.505200 -30.000000
    endloop
  endfacet
  facet normal 0.000000 0.000000 1.000000
    outer loop
      vertex 1.742587 13.806655 -30.000000
      vertex 1.995184 15.563504 -30.000000
      vertex 0.000000 28.550000 -30.000000
    endloop
  endfacet
  facet normal 0.000000 0.000000 1.000000
    outer loop
      vertex 23.109500 8.407678 -30.000000
      vertex 6.779200 17.043489 -30.000000
      vertex 7.941522 15.702098 -30.000000
    endloop
  endfacet
  facet normal 1.000000 0.000000 -0.000000
    outer loop
      vertex 60.000000 0.000000 -30.000000
      vertex 60.000000 0.000000 -45.000000
      vertex 60.000000 28.550000 -45.000000
    endloop
  endfacet
  facet normal 1.000000 0.000000 0.000000
    outer loop
      vertex 60.000000 28.550000 -30.000000
      vertex 60.000000 0.000000 -30.000000
      vertex 60.000000 28.550000 -45.000000
    endloop
  endfacet
  facet normal 0.989755 -0.142305 0.011629
    outer loop
      vertex 1.922556 13.832530 -45.000000
      vertex 1.934584 13.916190 -45.000000
      vertex 1.995184 15.563504 -30.000000
    endloop
  endfacet
  facet normal 0.989755 -0.142305 0.011629
    outer loop
      vertex 1.742587 13.806655 -30.000000
      vertex 1.922556 13.832530 -45.000000
      vertex 1.995184 15.563504 -30.000000
    endloop
  endfacet
  facet normal 0.989755 -0.142305 0.011629
    outer loop
      vertex 2.171872 15.566564 -45.000000
      vertex 2.006483 15.642094 -30.000000
      vertex 1.995184 15.563504 -30.000000
    endloop
  endfacet
  facet normal 0.989755 -0.142305 0.011629
    outer loop
      vertex 1.934584 13.916190 -45.000000
      vertex 2.171872 15.566564 -45.000000
      vertex 1.995184 15.563504 -30.000000
    endloop
  endfacet
  facet normal 0.755698 -0.654817 0.011629
    outer loop
      vertex 2.171872 15.566564 -45.000000
      vertex 2.227220 15.630439 -45.000000
      vertex 3.168806 16.983485 -30.000000
    endloop
  endfacet
  facet normal 0.755698 -0.654817 0.011629
    outer loop
      vertex 2.006483 15.642094 -30.000000
      vertex 2.171872 15.566564 -45.000000
      vertex 3.168806 16.983485 -30.000000
    endloop
  endfacet
  facet normal 0.755699 -0.654816 0.011629
    outer loop
      vertex 3.319098 16.890534 -45.000000
      vertex 3.220800 17.043489 -30.000000
      vertex 3.168806 16.983485 -30.000000
    endloop
  endfacet
  facet normal 0.755699 -0.654816 0.011629
    outer loop
      vertex 2.227220 15.630439 -45.000000
      vertex 3.319098 16.890534 -45.000000
      vertex 3.168806 16.983485 -30.000000
    endloop
  endfacet
  facet normal 0.281713 -0.959428 0.011629
    outer loop
      vertex 3.319098 16.890534 -45.000000
      vertex 3.400194 16.914346 -45.000000
      vertex 4.923819 17.543540 -30.000000
    endloop
  endfacet
  facet normal 0.281713 -0.959428 0.011629
    outer loop
      vertex 3.220800 17.043489 -30.000000
      vertex 3.319098 16.890534 -45.000000
      vertex 4.923819 17.543540 -30.000000
    endloop
  endfacet
  facet normal 0.281713 -0.959428 0.011629
    outer loop
      vertex 5.000000 17.384091 -45.000000
      vertex 5.000000 17.565909 -30.000000
      vertex 4.923819 17.543540 -30.000000
    endloop
  endfacet
  facet normal 0.281713 -0.959428 0.011629
    outer loop
      vertex 3.400194 16.914346 -45.000000
      vertex 5.000000 17.384091 -45.000000
      vertex 4.923819 17.543540 -30.000000
    endloop
  endfacet
  facet normal -0.281713 -0.959428 0.011629
    outer loop
      vertex 5.081096 17.360279 -45.000000
      vertex 6.703019 17.065858 -30.000000
      vertex 5.000000 17.565909 -30.000000
    endloop
  endfacet
  facet normal -0.281713 -0.959428 0.011629
    outer loop
      vertex 5.000000 17.384091 -45.000000
      vertex 5.081096 17.360279 -45.000000
      vertex 5.000000 17.565909 -30.000000
    endloop
  endfacet
  facet normal -0.281713 -0.959428 0.011629
    outer loop
      vertex 6.680902 16.890534 -45.000000
      vertex 6.779200 17.043489 -30.000000
      vertex 6.703019 17.065858 -30.000000
    endloop
  endfacet
  facet normal -0.281713 -0.959428 0.011629
    outer loop
      vertex 5.081096 17.360279 -45.000000
      vertex 6.680902 16.890534 -45.000000
      vertex 6.703019 17.065858 -30.000000
    endloop
  endfacet
  facet normal -0.755698 -0.654817 0.011629
    outer loop
      vertex 7.941522 15.702098 -30.000000
      vertex 6.779200 17.043489 -30.000000
      vertex 6.736251 16.826658 -45.000000
    endloop
  endfacet
  facet normal -0.755698 -0.654817 0.011629
    outer loop
      vertex 6.736251 16.826658 -45.000000
      vertex 6.779200 17.043489 -30.000000
      vertex 6.680902 16.890534 -45.000000
    endloop
  endfacet
  facet normal -0.755699 -0.654816 0.011629
    outer loop
      vertex 7.993517 15.642094 -30.000000
      vertex 7.941522 15.702098 -30.000000
      vertex 7.828128 15.566564 -45.000000
    endloop
  endfacet
  facet normal -0.755699 -0.654816 0.011629
    outer loop
      vertex 7.828128 15.566564 -45.000000
      vertex 7.941522 15.702098 -30.000000
      vertex 6.736251 16.826658 -45.000000
    endloop
  endfacet
  facet normal -0.989755 -0.142305 0.011629
    outer loop
      vertex 8.246113 13.885244 -30.000000
      vertex 7.993517 15.642094 -30.000000
      vertex 7.840157 15.482904 -45.000000
    endloop
  endfacet
  facet normal -0.989755 -0.142305 0.011629
    outer loop
      vertex 7.840157 15.482904 -45.000000
      vertex 7.993517 15.642094 -30.000000
      vertex 7.828128 15.566564 -45.000000
    endloop
  endfacet
  facet normal -0.989755 -0.142305 0.011629
    outer loop
      vertex 8.257413 13.806655 -30.000000
      vertex 8.246113 13.885244 -30.000000
      vertex 8.077444 13.832530 -45.000000
    endloop
  endfacet
  facet normal -0.989755 -0.142305 0.011629
    outer loop
      vertex 8.077444 13.832530 -45.000000
      vertex 8.246113 13.885244 -30.000000
      vertex 7.840157 15.482904 -45.000000
    endloop
  endfacet
  facet normal -0.909570 0.415387 0.011629
    outer loop
      vertex 8.077444 13.832530 -45.000000
      vertex 8.042334 13.755648 -45.000000
      vertex 8.257413 13.806655 -30.000000
    endloop
  endfacet
  facet normal -0.909570 0.415387 0.011629
    outer loop
      vertex 8.257413 13.806655 -30.000000
      vertex 8.042334 13.755648 -45.000000
      vertex 7.520086 12.192136 -30.000000
    endloop
  endfacet
  facet normal -0.909571 0.415387 0.011629
    outer loop
      vertex 7.520086 12.192136 -30.000000
      vertex 8.042334 13.755648 -45.000000
      vertex 7.487104 12.119913 -30.000000
    endloop
  endfacet
  facet normal -0.909571 0.415387 0.011629
    outer loop
      vertex 7.487104 12.119913 -30.000000
      vertex 8.042334 13.755648 -45.000000
      vertex 7.349694 12.238979 -45.000000
    endloop
  endfacet
  facet normal -0.540604 0.841197 0.011629
    outer loop
      vertex 7.349694 12.238979 -45.000000
      vertex 7.278592 12.193284 -45.000000
      vertex 7.487104 12.119913 -30.000000
    endloop
  endfacet
  facet normal -0.540604 0.841197 0.011629
    outer loop
      vertex 7.487104 12.119913 -30.000000
      vertex 7.278592 12.193284 -45.000000
      vertex 5.993949 11.160321 -30.000000
    endloop
  endfacet
  facet normal -0.540604 0.841197 0.011629
    outer loop
      vertex 5.993949 11.160321 -30.000000
      vertex 7.278592 12.193284 -45.000000
      vertex 5.927156 11.117396 -30.000000
    endloop
  endfacet
  facet normal -0.540604 0.841197 0.011629
    outer loop
      vertex 5.927156 11.117396 -30.000000
      vertex 7.278592 12.193284 -45.000000
      vertex 5.875932 11.291849 -45.000000
    endloop
  endfacet
  facet normal -0.000000 0.999932 0.011629
    outer loop
      vertex 5.875932 11.291849 -45.000000
      vertex 4.124068 11.291849 -45.000000
      vertex 5.927156 11.117396 -30.000000
    endloop
  endfacet
  facet normal -0.000000 0.999932 0.011629
    outer loop
      vertex 5.927156 11.117396 -30.000000
      vertex 4.124068 11.291849 -45.000000
      vertex 4.072844 11.117396 -30.000000
    endloop
  endfacet
  facet normal 0.540604 0.841197 0.011629
    outer loop
      vertex 4.124068 11.291849 -45.000000
      vertex 4.052965 11.337544 -45.000000
      vertex 4.072844 11.117396 -30.000000
    endloop
  endfacet
  facet normal 0.540604 0.841197 0.011629
    outer loop
      vertex 4.072844 11.117396 -30.000000
      vertex 4.052965 11.337544 -45.000000
      vertex 2.579690 12.076988 -30.000000
    endloop
  endfacet
  facet normal 0.540604 0.841197 0.011629
    outer loop
      vertex 4.052965 11.337544 -45.000000
      vertex 2.650306 12.238979 -45.000000
      vertex 2.579690 12.076988 -30.000000
    endloop
  endfacet
  facet normal 0.540604 0.841197 0.011629
    outer loop
      vertex 2.579690 12.076988 -30.000000
      vertex 2.650306 12.238979 -45.000000
      vertex 2.512896 12.119913 -30.000000
    endloop
  endfacet
  facet normal 0.909570 0.415387 0.011629
    outer loop
      vertex 2.512896 12.119913 -30.000000
      vertex 2.650306 12.238979 -45.000000
      vertex 2.615195 12.315861 -45.000000
    endloop
  endfacet
  facet normal 0.909570 0.415387 0.011629
    outer loop
      vertex 1.775570 13.734432 -30.000000
      vertex 2.512896 12.119913 -30.000000
      vertex 2.615195 12.315861 -45.000000
    endloop
  endfacet
  facet normal 0.909571 0.415387 0.011629
    outer loop
      vertex 1.775570 13.734432 -30.000000
      vertex 2.615195 12.315861 -45.000000
      vertex 1.922556 13.832530 -45.000000
    endloop
  endfacet
  facet normal 0.909571 0.415387 0.011629
    outer loop
      vertex 1.742587 13.806655 -30.000000
      vertex 1.775570 13.734432 -30.000000
      vertex 1.922556 13.832530 -45.000000
    endloop
  endfacet
  facet normal 0.965926 -0.258819 0.000000
    outer loop
      vertex 23.292706 16.125000 -45.000000
      vertex 23.292706 16.125000 -37.000000
      vertex 22.797000 14.275000 -37.000000
    endloop
  endfacet
  facet normal 0.965926 -0.258819 0.000000
    outer loop
      vertex 22.797000 14.275000 -45.000000
      vertex 23.292706 16.125000 -45.000000
      vertex 22.797000 14.275000 -37.000000
    endloop
  endfacet
  facet normal 0.965926 0.258819 0.000000
    outer loop
      vertex 22.797000 14.275000 -37.000000
      vertex 23.292706 12.425000 -37.000000
      vertex 23.292706 12.425000 -45.000000
    endloop
  endfacet
  facet normal 0.965926 0.258819 0.000000
    outer loop
      vertex 22.797000 14.275000 -45.000000
      vertex 22.797000 14.275000 -37.000000
      vertex 23.292706 12.425000 -45.000000
    endloop
  endfacet
  facet normal 0.707107 -0.707107 0.000000
    outer loop
      vertex 24.647000 17.479294 -45.000000
      vertex 24.647000 17.479294 -37.000000
      vertex 23.292706 16.125000 -37.000000
    endloop
  endfacet
  facet normal 0.707107 -0.707107 0.000000
    outer loop
      vertex 23.292706 16.125000 -45.000000
      vertex 24.647000 17.479294 -45.000000
      vertex 23.292706 16.125000 -37.000000
    endloop
  endfacet
  facet normal 0.258819 -0.965926 0.000000
    outer loop
      vertex 26.497000 17.975000 -45.000000
      vertex 26.497000 17.975000 -37.000000
      vertex 24.647000 17.479294 -37.000000
    endloop
  endfacet
  facet normal 0.258819 -0.965926 0.000000
    outer loop
      vertex 24.647000 17.479294 -45.000000
      vertex 26.497000 17.975000 -45.000000
      vertex 24.647000 17.479294 -37.000000
    endloop
  endfacet
  facet normal -0.258819 -0.965926 -0.000000
    outer loop
      vertex 28.347000 17.479294 -45.000000
      vertex 28.347000 17.479294 -37.000000
      vertex 26.497000 17.975000 -37.000000
    endloop
  endfacet
  facet normal -0.258819 -0.965926 -0.000000
    outer loop
      vertex 26.497000 17.975000 -45.000000
      vertex 28.347000 17.479294 -45.000000
      vertex 26.497000 17.975000 -37.000000
    endloop
  endfacet
  facet normal -0.707107 -0.707107 0.000000
    outer loop
      vertex 29.701294 16.125000 -37.000000
      vertex 28.347000 17.479294 -37.000000
      vertex 29.701294 16.125000 -45.000000
    endloop
  endfacet
  facet normal -0.707107 -0.707107 0.000000
    outer loop
      vertex 29.701294 16.125000 -45.000000
      vertex 28.347000 17.479294 -37.000000
      vertex 28.347000 17.479294 -45.000000
    endloop
  endfacet
  facet normal -0.965926 -0.258819 0.000000
    outer loop
      vertex 30.197000 14.275000 -37.000000
      vertex 29.701294 16.125000 -37.000000
      vertex 30.197000 14.275000 -45.000000
    endloop
  endfacet
  facet normal -0.965926 -0.258819 0.000000
    outer loop
      vertex 30.197000 14.275000 -45.000000
      vertex 29.701294 16.125000 -37.000000
      vertex 29.701294 16.125000 -45.000000
    endloop
  endfacet
  facet normal -0.965926 0.258819 0.000000
    outer loop
      vertex 30.197000 14.275000 -37.000000
      vertex 30.197000 14.275000 -45.000000
      vertex 29.701294 12.425000 -37.000000
    endloop
  endfacet
  facet normal -0.965926 0.258819 0.000000
    outer loop
      vertex 29.701294 12.425000 -37.000000
      vertex 30.197000 14.275000 -45.000000
      vertex 29.701294 12.425000 -45.000000
    endloop
  endfacet
  facet normal -0.707107 0.707107 0.000000
    outer loop
      vertex 29.701294 12.425000 -37.000000
      vertex 29.701294 12.425000 -45.000000
      vertex 28.347000 11.070706 -37.000000
    endloop
  endfacet
  facet normal -0.707107 0.707107 0.000000
    outer loop
      vertex 28.347000 11.070706 -37.000000
      vertex 29.701294 12.425000 -45.000000
      vertex 28.347000 11.070706 -45.000000
    endloop
  endfacet
  facet normal -0.258819 0.965926 0.000000
    outer loop
      vertex 28.347000 11.070706 -37.000000
      vertex 28.347000 11.070706 -45.000000
      vertex 26.497000 10.575000 -37.000000
    endloop
  endfacet
  facet normal -0.258819 0.965926 0.000000
    outer loop
      vertex 26.497000 10.575000 -37.000000
      vertex 28.347000 11.070706 -45.000000
      vertex 26.497000 10.575000 -45.000000
    endloop
  endfacet
  facet normal 0.258819 0.965926 -0.000000
    outer loop
      vertex 26.497000 10.575000 -37.000000
      vertex 26.497000 10.575000 -45.000000
      vertex 24.647000 11.070706 -37.000000
    endloop
  endfacet
  facet normal 0.258819 0.965926 -0.000000
    outer loop
      vertex 24.647000 11.070706 -37.000000
      vertex 26.497000 10.575000 -45.000000
      vertex 24.647000 11.070706 -45.000000
    endloop
  endfacet
  facet normal 0.707107 0.707107 0.000000
    outer loop
      vertex 23.292706 12.425000 -37.000000
      vertex 24.647000 11.070706 -37.000000
      vertex 24.647000 11.070706 -45.000000
    endloop
  endfacet
  facet normal 0.707107 0.707107 0.000000
    outer loop
      vertex 23.292706 12.425000 -45.000000
      vertex 23.292706 12.425000 -37.000000
      vertex 24.647000 11.070706 -45.000000
    endloop
  endfacet
  facet normal 0.989755 -0.142305 0.011629
    outer loop
      vertex 51.922556 13.217817 -45.000000
      vertex 51.934584 13.301477 -45.000000
      vertex 51.995184 14.948791 -30.000000
    endloop
  endfacet
  facet normal 0.989755 -0.142305 0.011629
    outer loop
      vertex 51.742587 13.191942 -30.000000
      vertex 51.922556 13.217817 -45.000000
      vertex 51.995184 14.948791 -30.000000
    endloop
  endfacet
  facet normal 0.989755 -0.142305 0.011629
    outer loop
      vertex 52.171872 14.951851 -45.000000
      vertex 52.006483 15.027381 -30.000000
      vertex 51.995184 14.948791 -30.000000
    endloop
  endfacet
  facet normal 0.989755 -0.142305 0.011629
    outer loop
      vertex 51.934584 13.301477 -45.000000
      vertex 52.171872 14.951851 -45.000000
      vertex 51.995184 14.948791 -30.000000
    endloop
  endfacet
  facet normal 0.755698 -0.654817 0.011629
    outer loop
      vertex 52.171872 14.951851 -45.000000
      vertex 52.227220 15.015726 -45.000000
      vertex 53.168806 16.368772 -30.000000
    endloop
  endfacet
  facet normal 0.755698 -0.654817 0.011629
    outer loop
      vertex 52.006483 15.027381 -30.000000
      vertex 52.171872 14.951851 -45.000000
      vertex 53.168806 16.368772 -30.000000
    endloop
  endfacet
  facet normal 0.755699 -0.654816 0.011629
    outer loop
      vertex 53.319098 16.275821 -45.000000
      vertex 53.220800 16.428776 -30.000000
      vertex 53.168806 16.368772 -30.000000
    endloop
  endfacet
  facet normal 0.755699 -0.654816 0.011629
    outer loop
      vertex 52.227220 15.015726 -45.000000
      vertex 53.319098 16.275821 -45.000000
      vertex 53.168806 16.368772 -30.000000
    endloop
  endfacet
  facet normal 0.281713 -0.959428 0.011629
    outer loop
      vertex 53.319098 16.275821 -45.000000
      vertex 53.400194 16.299633 -45.000000
      vertex 54.923819 16.928827 -30.000000
    endloop
  endfacet
  facet normal 0.281713 -0.959428 0.011629
    outer loop
      vertex 53.220800 16.428776 -30.000000
      vertex 53.319098 16.275821 -45.000000
      vertex 54.923819 16.928827 -30.000000
    endloop
  endfacet
  facet normal 0.281713 -0.959428 0.011629
    outer loop
      vertex 55.000000 16.769378 -45.000000
      vertex 55.000000 16.951196 -30.000000
      vertex 54.923819 16.928827 -30.000000
    endloop
  endfacet
  facet normal 0.281713 -0.959428 0.011629
    outer loop
      vertex 53.400194 16.299633 -45.000000
      vertex 55.000000 16.769378 -45.000000
      vertex 54.923819 16.928827 -30.000000
    endloop
  endfacet
  facet normal -0.281713 -0.959428 0.011629
    outer loop
      vertex 55.081096 16.745566 -45.000000
      vertex 56.703019 16.451145 -30.000000
      vertex 55.000000 16.951196 -30.000000
    endloop
  endfacet
  facet normal -0.281713 -0.959428 0.011629
    outer loop
      vertex 55.000000 16.769378 -45.000000
      vertex 55.081096 16.745566 -45.000000
      vertex 55.000000 16.951196 -30.000000
    endloop
  endfacet
  facet normal -0.281713 -0.959428 0.011629
    outer loop
      vertex 56.680902 16.275821 -45.000000
      vertex 56.779200 16.428776 -30.000000
      vertex 56.703019 16.451145 -30.000000
    endloop
  endfacet
  facet normal -0.281713 -0.959428 0.011629
    outer loop
      vertex 55.081096 16.745566 -45.000000
      vertex 56.680902 16.275821 -45.000000
      vertex 56.703019 16.451145 -30.000000
    endloop
  endfacet
  facet normal -0.755698 -0.654817 0.011629
    outer loop
      vertex 57.941522 15.087385 -30.000000
      vertex 56.779200 16.428776 -30.000000
      vertex 56.736251 16.211945 -45.000000
    endloop
  endfacet
  facet normal -0.755698 -0.654817 0.011629
    outer loop
      vertex 56.736251 16.211945 -45.000000
      vertex 56.779200 16.428776 -30.000000
      vertex 56.680902 16.275821 -45.000000
    endloop
  endfacet
  facet normal -0.755699 -0.654816 0.011629
    outer loop
      vertex 57.993517 15.027381 -30.000000
      vertex 57.941522 15.087385 -30.000000
      vertex 57.828128 14.951851 -45.000000
    endloop
  endfacet
  facet normal -0.755699 -0.654816 0.011629
    outer loop
      vertex 57.828128 14.951851 -45.000000
      vertex 57.941522 15.087385 -30.000000
      vertex 56.736251 16.211945 -45.000000
    endloop
  endfacet
  facet normal -0.989755 -0.142305 0.011629
    outer loop
      vertex 58.246113 13.270531 -30.000000
      vertex 57.993517 15.027381 -30.000000
      vertex 57.840157 14.868191 -45.000000
    endloop
  endfacet
  facet normal -0.989755 -0.142305 0.011629
    outer loop
      vertex 57.840157 14.868191 -45.000000
      vertex 57.993517 15.027381 -30.000000
      vertex 57.828128 14.951851 -45.000000
    endloop
  endfacet
  facet normal -0.989755 -0.142305 0.011629
    outer loop
      vertex 58.257413 13.191942 -30.000000
      vertex 58.246113 13.270531 -30.000000
      vertex 58.077444 13.217817 -45.000000
    endloop
  endfacet
  facet normal -0.989755 -0.142305 0.011629
    outer loop
      vertex 58.077444 13.217817 -45.000000
      vertex 58.246113 13.270531 -30.000000
      vertex 57.840157 14.868191 -45.000000
    endloop
  endfacet
  facet normal -0.909570 0.415387 0.011629
    outer loop
      vertex 58.077444 13.217817 -45.000000
      vertex 58.042334 13.140935 -45.000000
      vertex 58.257413 13.191942 -30.000000
    endloop
  endfacet
  facet normal -0.909570 0.415387 0.011629
    outer loop
      vertex 58.257413 13.191942 -30.000000
      vertex 58.042334 13.140935 -45.000000
      vertex 57.520086 11.577423 -30.000000
    endloop
  endfacet
  facet normal -0.909571 0.415387 0.011629
    outer loop
      vertex 57.520086 11.577423 -30.000000
      vertex 58.042334 13.140935 -45.000000
      vertex 57.487104 11.505200 -30.000000
    endloop
  endfacet
  facet normal -0.909571 0.415387 0.011629
    outer loop
      vertex 57.487104 11.505200 -30.000000
      vertex 58.042334 13.140935 -45.000000
      vertex 57.349694 11.624266 -45.000000
    endloop
  endfacet
  facet normal -0.540604 0.841197 0.011629
    outer loop
      vertex 57.349694 11.624266 -45.000000
      vertex 57.278592 11.578571 -45.000000
      vertex 57.487104 11.505200 -30.000000
    endloop
  endfacet
  facet normal -0.540604 0.841197 0.011629
    outer loop
      vertex 57.487104 11.505200 -30.000000
      vertex 57.278592 11.578571 -45.000000
      vertex 55.993949 10.545608 -30.000000
    endloop
  endfacet
  facet normal -0.540604 0.841197 0.011629
    outer loop
      vertex 55.993949 10.545608 -30.000000
      vertex 57.278592 11.578571 -45.000000
      vertex 55.927156 10.502683 -30.000000
    endloop
  endfacet
  facet normal -0.540604 0.841197 0.011629
    outer loop
      vertex 55.927156 10.502683 -30.000000
      vertex 57.278592 11.578571 -45.000000
      vertex 55.875932 10.677136 -45.000000
    endloop
  endfacet
  facet normal -0.000000 0.999932 0.011629
    outer loop
      vertex 55.875932 10.677136 -45.000000
      vertex 54.124068 10.677136 -45.000000
      vertex 55.927156 10.502683 -30.000000
    endloop
  endfacet
  facet normal -0.000000 0.999932 0.011629
    outer loop
      vertex 55.927156 10.502683 -30.000000
      vertex 54.124068 10.677136 -45.000000
      vertex 54.072844 10.502683 -30.000000
    endloop
  endfacet
  facet normal 0.540604 0.841197 0.011629
    outer loop
      vertex 54.124068 10.677136 -45.000000
      vertex 54.052965 10.722831 -45.000000
      vertex 54.072844 10.502683 -30.000000
    endloop
  endfacet
  facet normal 0.540604 0.841197 0.011629
    outer loop
      vertex 54.072844 10.502683 -30.000000
      vertex 54.052965 10.722831 -45.000000
      vertex 52.579690 11.462275 -30.000000
    endloop
  endfacet
  facet normal 0.540604 0.841197 0.011629
    outer loop
      vertex 54.052965 10.722831 -45.000000
      vertex 52.650306 11.624266 -45.000000
      vertex 52.579690 11.462275 -30.000000
    endloop
  endfacet
  facet normal 0.540604 0.841197 0.011629
    outer loop
      vertex 52.579690 11.462275 -30.000000
      vertex 52.650306 11.624266 -45.000000
      vertex 52.512896 11.505200 -30.000000
    endloop
  endfacet
  facet normal 0.909570 0.415387 0.011629
    outer loop
      vertex 52.512896 11.505200 -30.000000
      vertex 52.650306 11.624266 -45.000000
      vertex 52.615195 11.701148 -45.000000
    endloop
  endfacet
  facet normal 0.909570 0.415387 0.011629
    outer loop
      vertex 51.775570 13.119719 -30.000000
      vertex 52.512896 11.505200 -30.000000
      vertex 52.615195 11.701148 -45.000000
    endloop
  endfacet
  facet normal 0.909571 0.415387 0.011629
    outer loop
      vertex 51.775570 13.119719 -30.000000
      vertex 52.615195 11.701148 -45.000000
      vertex 51.922556 13.217817 -45.000000
    endloop
  endfacet
  facet normal 0.909571 0.415387 0.011629
    outer loop
      vertex 51.742587 13.191942 -30.000000
      vertex 51.775570 13.119719 -30.000000
      vertex 51.922556 13.217817 -45.000000
    endloop
  endfacet
  facet normal 0.866025 0.500000 -0.000000
    outer loop
      vertex 23.109500 8.407678 -30.000000
      vertex 23.109500 8.407678 -37.000000
      vertex 19.722000 14.275000 -37.000000
    endloop
  endfacet
  facet normal 0.866025 0.500000 -0.000000
    outer loop
      vertex 19.722000 14.275000 -30.000000
      vertex 23.109500 8.407678 -30.000000
      vertex 19.722000 14.275000 -37.000000
    endloop
  endfacet
  facet normal 0.000000 1.000000 0.000000
    outer loop
      vertex 29.884500 8.407678 -37.000000
      vertex 23.109500 8.407678 -37.000000
      vertex 29.884500 8.407678 -30.000000
    endloop
  endfacet
  facet normal 0.000000 1.000000 0.000000
    outer loop
      vertex 29.884500 8.407678 -30.000000
      vertex 23.109500 8.407678 -37.000000
      vertex 23.109500 8.407678 -30.000000
    endloop
  endfacet
  facet normal -0.866025 0.500000 0.000000
    outer loop
      vertex 33.272000 14.275000 -37.000000
      vertex 29.884500 8.407678 -37.000000
      vertex 33.272000 14.275000 -30.000000
    endloop
  endfacet
  facet normal -0.866025 0.500000 0.000000
    outer loop
      vertex 33.272000 14.275000 -30.000000
      vertex 29.884500 8.407678 -37.000000
      vertex 29.884500 8.407678 -30.000000
    endloop
  endfacet
  facet normal -0.866025 -0.500000 -0.000000
    outer loop
      vertex 33.272000 14.275000 -37.000000
      vertex 33.272000 14.275000 -30.000000
      vertex 29.884500 20.142322 -37.000000
    endloop
  endfacet
  facet normal -0.866025 -0.500000 -0.000000
    outer loop
      vertex 29.884500 20.142322 -37.000000
      vertex 33.272000 14.275000 -30.000000
      vertex 29.884500 20.142322 -30.000000
    endloop
  endfacet
  facet normal -0.000000 -1.000000 0.000000
    outer loop
      vertex 23.109500 20.142322 -37.000000
      vertex 29.884500 20.142322 -37.000000
      vertex 29.884500 20.142322 -30.000000
    endloop
  endfacet
  facet normal 0.000000 -1.000000 0.000000
    outer loop
      vertex 23.109500 20.142322 -30.000000
      vertex 23.109500 20.142322 -37.000000
      vertex 29.884500 20.142322 -30.000000
    endloop
  endfacet
  facet normal 0.866025 -0.500000 0.000000
    outer loop
      vertex 19.722000 14.275000 -37.000000
      vertex 23.109500 20.142322 -37.000000
      vertex 23.109500 20.142322 -30.000000
    endloop
  endfacet
  facet normal 0.866025 -0.500000 0.000000
    outer loop
      vertex 19.722000 14.275000 -30.000000
      vertex 19.722000 14.275000 -37.000000
      vertex 23.109500 20.142322 -30.000000
    endloop
  endfacet
  facet normal 0.000000 0.000000 1.000000
    outer loop
      vertex 28.347000 11.070706 -37.000000
      vertex 29.884500 8.407678 -37.000000
      vertex 33.272000 14.275000 -37.000000
    endloop
  endfacet
  facet normal -0.000000 0.000000 1.000000
    outer loop
      vertex 26.497000 10.575000 -37.000000
      vertex 24.647000 11.070706 -37.000000
      vertex 23.109500 8.407678 -37.000000
    endloop
  endfacet
  facet normal 0.000000 0.000000 1.000000
    outer loop
      vertex 28.347000 11.070706 -37.000000
      vertex 26.497000 10.575000 -37.000000
      vertex 23.109500 8.407678 -37.000000
    endloop
  endfacet
  facet normal 0.000000 0.000000 1.000000
    outer loop
      vertex 19.722000 14.275000 -37.000000
      vertex 22.797000 14.275000 -37.000000
      vertex 23.109500 20.142322 -37.000000
    endloop
  endfacet
  facet normal 0.000000 0.000000 1.000000
    outer loop
      vertex 19.722000 14.275000 -37.000000
      vertex 23.109500 8.407678 -37.000000
      vertex 22.797000 14.275000 -37.000000
    endloop
  endfacet
  facet normal 0.000000 0.000000 1.000000
    outer loop
      vertex 24.647000 17.479294 -37.000000
      vertex 26.497000 17.975000 -37.000000
      vertex 29.884500 20.142322 -37.000000
    endloop
  endfacet
  facet normal 0.000000 0.000000 1.000000
    outer loop
      vertex 23.109500 20.142322 -37.000000
      vertex 24.647000 17.479294 -37.000000
      vertex 29.884500 20.142322 -37.000000
    endloop
  endfacet
  facet normal 0.000000 0.000000 1.000000
    outer loop
      vertex 23.109500 20.142322 -37.000000
      vertex 23.292706 16.125000 -37.000000
      vertex 24.647000 17.479294 -37.000000
    endloop
  endfacet
  facet normal 0.000000 0.000000 1.000000
    outer loop
      vertex 26.497000 17.975000 -37.000000
      vertex 28.347000 17.479294 -37.000000
      vertex 29.884500 20.142322 -37.000000
    endloop
  endfacet
  facet normal 0.000000 -0.000000 1.000000
    outer loop
      vertex 29.884500 20.142322 -37.000000
      vertex 29.701294 16.125000 -37.000000
      vertex 33.272000 14.275000 -37.000000
    endloop
  endfacet
  facet normal 0.000000 0.000000 1.000000
    outer loop
      vertex 29.701294 16.125000 -37.000000
      vertex 30.197000 14.275000 -37.000000
      vertex 33.272000 14.275000 -37.000000
    endloop
  endfacet
  facet normal 0.000000 -0.000000 1.000000
    outer loop
      vertex 30.197000 14.275000 -37.000000
      vertex 29.701294 12.425000 -37.000000
      vertex 33.272000 14.275000 -37.000000
    endloop
  endfacet
  facet normal 0.000000 0.000000 1.000000
    outer loop
      vertex 23.109500 8.407678 -37.000000
      vertex 29.884500 8.407678 -37.000000
      vertex 28.347000 11.070706 -37.000000
    endloop
  endfacet
  facet normal -0.000000 0.000000 1.000000
    outer loop
      vertex 24.647000 11.070706 -37.000000
      vertex 23.292706 12.425000 -37.000000
      vertex 23.109500 8.407678 -37.000000
    endloop
  endfacet
  facet normal 0.000000 -0.000000 1.000000
    outer loop
      vertex 29.701294 12.425000 -37.000000
      vertex 28.347000 11.070706 -37.000000
      vertex 33.272000 14.275000 -37.000000
    endloop
  endfacet
  facet normal 0.000000 0.000000 1.000000
    outer loop
      vertex 28.347000 17.479294 -37.000000
      vertex 29.701294 16.125000 -37.000000
      vertex 29.884500 20.142322 -37.000000
    endloop
  endfacet
  facet normal 0.000000 0.000000 1.000000
    outer loop
      vertex 22.797000 14.275000 -37.000000
      vertex 23.292706 16.125000 -37.000000
      vertex 23.109500 20.142322 -37.000000
    endloop
  endfacet
  facet normal -0.000000 0.000000 1.000000
    outer loop
      vertex 23.292706 12.425000 -37.000000
      vertex 22.797000 14.275000 -37.000000
      vertex 23.109500 8.407678 -37.000000
    endloop
  endfacet
endsolid
