  0
SECTION
  2
ENTITIES
  0
LINE
 10
-2.505000
 11
-2.495000
 20
0.000000
 21
0.225000
  0
LINE
 10
-2.495000
 11
-2.465000
 20
0.225000
 21
0.447000
  0
LINE
 10
-2.465000
 11
-2.415000
 20
0.447000
 21
0.666000
  0
LINE
 10
-2.415000
 11
-2.345000
 20
0.666000
 21
0.880000
  0
LINE
 10
-2.345000
 11
-2.257000
 20
0.880000
 21
1.087000
  0
LINE
 10
-2.257000
 11
-2.150000
 20
1.087000
 21
1.285000
  0
LINE
 10
-2.150000
 11
-2.027000
 20
1.285000
 21
1.472000
  0
LINE
 10
-2.027000
 11
-1.886000
 20
1.472000
 21
1.648000
  0
LINE
 10
-1.886000
 11
-1.731000
 20
1.648000
 21
1.811000
  0
LINE
 10
-1.731000
 11
-1.562000
 20
1.811000
 21
1.958000
  0
LINE
 10
-1.562000
 11
-1.380000
 20
1.958000
 21
2.091000
  0
LINE
 10
-1.380000
 11
-1.187000
 20
2.091000
 21
2.206000
  0
LINE
 10
-1.187000
 11
-0.985000
 20
2.206000
 21
2.303000
  0
LINE
 10
-0.985000
 11
-0.774000
 20
2.303000
 21
2.382000
  0
LINE
 10
-0.774000
 11
-0.557000
 20
2.382000
 21
2.442000
  0
LINE
 10
-0.557000
 11
-0.336000
 20
2.442000
 21
2.482000
  0
LINE
 10
-0.336000
 11
-0.112000
 20
2.482000
 21
2.502000
  0
LINE
 10
-0.112000
 11
0.112000
 20
2.502000
 21
2.502000
  0
LINE
 10
0.112000
 11
0.336000
 20
2.502000
 21
2.482000
  0
LINE
 10
0.336000
 11
0.557000
 20
2.482000
 21
2.442000
  0
LINE
 10
0.557000
 11
0.774000
 20
2.442000
 21
2.382000
  0
LINE
 10
0.774000
 11
0.985000
 20
2.382000
 21
2.303000
  0
LINE
 10
0.985000
 11
1.187000
 20
2.303000
 21
2.206000
  0
LINE
 10
1.187000
 11
1.380000
 20
2.206000
 21
2.091000
  0
LINE
 10
1.380000
 11
1.562000
 20
2.091000
 21
1.958000
  0
LINE
 10
1.562000
 11
1.731000
 20
1.958000
 21
1.811000
  0
LINE
 10
1.731000
 11
1.886000
 20
1.811000
 21
1.648000
  0
LINE
 10
1.886000
 11
2.027000
 20
1.648000
 21
1.472000
  0
LINE
 10
2.027000
 11
2.065000
 20
1.472000
 21
1.414000
  0
LINE
 10
2.065000
 11
2.065000
 20
1.414000
 21
-1.414000
  0
LINE
 10
2.065000
 11
2.027000
 20
-1.414000
 21
-1.472000
  0
LINE
 10
2.027000
 11
1.886000
 20
-1.472000
 21
-1.648000
  0
LINE
 10
1.886000
 11
1.731000
 20
-1.648000
 21
-1.811000
  0
LINE
 10
1.731000
 11
1.562000
 20
-1.811000
 21
-1.958000
  0
LINE
 10
1.562000
 11
1.380000
 20
-1.958000
 21
-2.091000
  0
LINE
 10
1.380000
 11
1.187000
 20
-2.091000
 21
-2.206000
  0
LINE
 10
1.187000
 11
0.985000
 20
-2.206000
 21
-2.303000
  0
LINE
 10
0.985000
 11
0.774000
 20
-2.303000
 21
-2.382000
  0
LINE
 10
0.774000
 11
0.557000
 20
-2.382000
 21
-2.442000
  0
LINE
 10
0.557000
 11
0.336000
 20
-2.442000
 21
-2.482000
  0
LINE
 10
0.336000
 11
0.112000
 20
-2.482000
 21
-2.502000
  0
LINE
 10
0.112000
 11
-0.112000
 20
-2.502000
 21
-2.502000
  0
LINE
 10
-0.112000
 11
-0.336000
 20
-2.502000
 21
-2.482000
  0
LINE
 10
-0.336000
 11
-0.557000
 20
-2.482000
 21
-2.442000
  0
LINE
 10
-0.557000
 11
-0.774000
 20
-2.442000
 21
-2.382000
  0
LINE
 10
-0.774000
 11
-0.985000
 20
-2.382000
 21
-2.303000
  0
LINE
 10
-0.985000
 11
-1.187000
 20
-2.303000
 21
-2.206000
  0
LINE
 10
-1.187000
 11
-1.380000
 20
-2.206000
 21
-2.091000
  0
LINE
 10
-1.380000
 11
-1.562000
 20
-2.091000
 21
-1.958000
  0
LINE
 10
-1.562000
 11
-1.731000
 20
-1.958000
 21
-1.811000
  0
LINE
 10
-1.731000
 11
-1.886000
 20
-1.811000
 21
-1.648000
  0
LINE
 10
-1.886000
 11
-2.027000
 20
-1.648000
 21
-1.472000
  0
LINE
 10
-2.027000
 11
-2.150000
 20
-1.472000
 21
-1.285000
  0
LINE
 10
-2.150000
 11
-2.257000
 20
-1.285000
 21
-1.087000
  0
LINE
 10
-2.257000
 11
-2.345000
 20
-1.087000
 21
-0.880000
  0
LINE
 10
-2.345000
 11
-2.415000
 20
-0.880000
 21
-0.666000
  0
LINE
 10
-2.415000
 11
-2.465000
 20
-0.666000
 21
-0.447000
  0
LINE
 10
-2.465000
 11
-2.495000
 20
-0.447000
 21
-0.225000
  0
LINE
 10
-2.495000
 11
-2.505000
 20
-0.225000
 21
0.000000
  0
ENDSEC
  0
EOF
