  0
SECTION
  2
ENTITIES
  0
LINE
 10
7.43722484501
 20
-0.96834219407
 11
6.74308385947
 21
-0.87796358929
  0
LINE
 10
6.74308385947
 20
-0.87796358929
 11
6.74308385947
 21
0.87796358929
  0
LINE
 10
7.43722484501
 20
0.96834219407
 11
6.74308385947
 21
0.87796358929
  0
LINE
 10
7.43722484501
 20
0.96834219407
 11
7.45347457968
 21
0.971193435976
  0
LINE
 10
7.45347457968
 20
0.971193435976
 11
7.50163239939
 21
0.982604368278
  0
LINE
 10
7.50163239939
 20
0.982604368278
 11
7.58049370553
 21
1.00678457516
  0
LINE
 10
7.58049370553
 20
1.00678457516
 11
7.68843868272
 21
1.04781230313
  0
LINE
 10
7.68843868272
 20
1.04781230313
 11
7.82344502236
 21
1.10959811779
  0
LINE
 10
7.82344502236
 20
1.10959811779
 11
7.98310362409
 21
1.19584970976
  0
LINE
 10
7.98310362409
 20
1.19584970976
 11
8.16463717633
 21
1.3100380837
  0
LINE
 10
8.16463717633
 20
1.3100380837
 11
8.3649214989
 21
1.45536535604
  0
LINE
 10
8.3649214989
 20
1.45536535604
 11
8.58050951387
 21
1.63473437761
  0
LINE
 10
8.58050951387
 20
1.63473437761
 11
8.80765769401
 21
1.85072038645
  0
LINE
 10
6.7801169907
 20
3.20624602805
 11
6.79532863516
 21
3.21263268057
  0
LINE
 10
6.79532863516
 20
3.21263268057
 11
6.84201078689
 21
3.22906927647
  0
LINE
 10
6.84201078689
 20
3.22906927647
 11
6.9214259461
 21
3.25136323302
  0
LINE
 10
6.9214259461
 20
3.25136323302
 11
7.0344163039
 21
3.27520797263
  0
LINE
 10
7.0344163039
 20
3.27520797263
 11
7.18139479742
 21
3.2962203756
  0
LINE
 10
7.18139479742
 20
3.2962203756
 11
7.36233929136
 21
3.3099788761
  0
LINE
 10
7.36233929136
 20
3.3099788761
 11
7.57678992934
 21
3.31206195118
  0
LINE
 10
7.57678992934
 20
3.31206195118
 11
7.82384967859
 21
3.29808674979
  0
LINE
 10
7.82384967859
 20
3.29808674979
 11
8.10218807227
 21
3.26374760736
  0
LINE
 10
8.10218807227
 20
3.26374760736
 11
8.41004813367
 21
3.20485419217
  0
LINE
 10
8.80765769401
 20
1.85072038645
 11
8.80765769381
 21
1.85072038641
  0
LINE
 10
8.41004813367
 20
3.20485419217
 11
8.41004813348
 21
3.2048541921
  0
LINE
 10
8.80765769381
 20
1.85072038641
 11
8.41004813348
 21
3.2048541921
  0
LINE
 10
6.7801169907
 20
3.20624602805
 11
6.14730607157
 21
2.90699639877
  0
LINE
 10
6.14730607157
 20
2.90699639877
 11
5.19798016635
 21
4.38417634114
  0
LINE
 10
5.73306635994
 20
4.83548861156
 11
5.19798016635
 21
4.38417634114
  0
LINE
 10
5.73306635994
 20
4.83548861156
 11
5.74519500889
 21
4.84667249872
  0
LINE
 10
5.74519500889
 20
4.84667249872
 11
5.77953872909
 21
4.88230806885
  0
LINE
 10
5.77953872909
 20
4.88230806885
 11
5.83280827466
 21
4.94528539433
  0
LINE
 10
5.83280827466
 20
4.94528539433
 11
5.90143610369
 21
5.03815957614
  0
LINE
 10
5.90143610369
 20
5.03815957614
 11
5.98160673053
 21
5.16312704882
  0
LINE
 10
5.98160673053
 20
5.16312704882
 11
6.06928896209
 21
5.32200446223
  0
LINE
 10
6.06928896209
 20
5.32200446223
 11
6.1602698084
 21
5.51621028329
  0
LINE
 10
6.1602698084
 20
5.51621028329
 11
6.25018984702
 21
5.74674924445
  0
LINE
 10
6.25018984702
 20
5.74674924445
 11
6.33457981181
 21
6.01419974817
  0
LINE
 10
6.33457981181
 20
6.01419974817
 11
6.40889816844
 21
6.31870431895
  0
LINE
 10
3.97036989786
 20
6.36287379052
 11
3.97971386247
 21
6.37647062041
  0
LINE
 10
3.97971386247
 20
6.37647062041
 11
4.01009909289
 21
6.41553624145
  0
LINE
 10
4.01009909289
 20
6.41553624145
 11
4.06485435324
 21
6.47722618775
  0
LINE
 10
4.06485435324
 20
6.47722618775
 11
4.1470164514
 21
6.5583728586
  0
LINE
 10
4.1470164514
 20
6.5583728586
 11
4.25930246561
 21
6.65551218971
  0
LINE
 10
4.25930246561
 20
6.65551218971
 11
4.40408425343
 21
6.76491255598
  0
LINE
 10
4.40408425343
 20
6.76491255598
 11
4.58336541483
 21
6.88260571848
  0
LINE
 10
4.58336541483
 20
6.88260571848
 11
4.79876086601
 21
7.00441961573
  0
LINE
 10
4.79876086601
 20
7.00441961573
 11
5.05147916505
 21
7.12601278754
  0
LINE
 10
5.05147916505
 20
7.12601278754
 11
5.34230771345
 21
7.2429102092
  0
LINE
 10
6.40889816844
 20
6.31870431895
 11
6.40889816829
 21
6.3187043188
  0
LINE
 10
5.34230771345
 20
7.2429102092
 11
5.34230771332
 21
7.24291020904
  0
LINE
 10
6.40889816829
 20
6.3187043188
 11
5.34230771332
 21
7.24291020904
  0
LINE
 10
3.97036989786
 20
6.36287379052
 11
3.59980204073
 21
5.76900557007
  0
LINE
 10
3.59980204073
 20
5.76900557007
 11
2.00255449758
 21
6.4984440818
  0
LINE
 10
2.20869981351
 20
7.1674015608
 11
2.00255449758
 21
6.4984440818
  0
LINE
 10
2.20869981351
 20
7.1674015608
 11
2.21285661639
 21
7.18336728807
  0
LINE
 10
2.21285661639
 20
7.18336728807
 11
2.22248234857
 21
7.2319134543
  0
LINE
 10
2.22248234857
 20
7.2319134543
 11
2.23324742924
 21
7.31369304251
  0
LINE
 10
2.23324742924
 20
7.31369304251
 11
2.24076925929
 21
7.42892678166
  0
LINE
 10
2.24076925929
 20
7.42892678166
 11
2.24065056576
 21
7.57739962277
  0
LINE
 10
2.24065056576
 20
7.57739962277
 11
2.22851793817
 21
7.75846040143
  0
LINE
 10
2.22851793817
 20
7.75846040143
 11
2.20006030269
 21
7.97102469362
  0
LINE
 10
2.20006030269
 20
7.97102469362
 11
2.15106708044
 21
8.21358085233
  0
LINE
 10
2.15106708044
 20
8.21358085233
 11
2.07746577749
 21
8.48419919299
  0
LINE
 10
2.07746577749
 20
8.48419919299
 11
1.9753587575
 21
8.780544276
  0
LINE
 10
-0.0999415842505
 20
7.49933408242
 11
-0.0994319422382
 21
7.51582419226
  0
LINE
 10
-0.0994319422382
 20
7.51582419226
 11
-0.0949907290979
 21
7.56511577978
  0
LINE
 10
-0.0949907290979
 20
7.56511577978
 11
-0.0822797758806
 21
7.64661559377
  0
LINE
 10
-0.0822797758806
 20
7.64661559377
 11
-0.0570318229977
 21
7.75930070121
  0
LINE
 10
-0.0570318229977
 20
7.75930070121
 11
-0.0150883042424
 21
7.90172590919
  0
LINE
 10
-0.0150883042424
 20
7.90172590919
 11
0.0475635828022
 21
8.07203429793
  0
LINE
 10
0.0475635828022
 20
8.07203429793
 11
0.134754765617
 21
8.26797080032
  0
LINE
 10
0.134754765617
 20
8.26797080032
 11
0.250099384892
 21
8.48689874454
  0
LINE
 10
0.250099384892
 20
8.48689874454
 11
0.396961314965
 21
8.72581925766
  0
LINE
 10
0.396961314965
 20
8.72581925766
 11
0.578422341147
 21
8.98139341077
  0
LINE
 10
1.9753587575
 20
8.780544276
 11
1.97535875746
 21
8.7805442758
  0
LINE
 10
0.578422341147
 20
8.98139341077
 11
0.578422341134
 21
8.98139341056
  0
LINE
 10
1.97535875746
 20
8.7805442758
 11
0.578422341134
 21
8.98139341056
  0
LINE
 10
-0.0999415842505
 20
7.49933408242
 11
-0.0906137030538
 21
6.79939623473
  0
LINE
 10
-0.0906137030538
 20
6.79939623473
 11
-1.82866807479
 21
6.54950174229
  0
LINE
 10
-2.01691331779
 20
7.22371515693
 11
-1.82866807479
 21
6.54950174229
  0
LINE
 10
-2.01691331779
 20
7.22371515693
 11
-2.02204811652
 21
7.23939371871
  0
LINE
 10
-2.02204811652
 20
7.23939371871
 11
-2.04019647431
 21
7.28543741627
  0
LINE
 10
-2.04019647431
 20
7.28543741627
 11
-2.07535369559
 21
7.36005482578
  0
LINE
 10
-2.07535369559
 20
7.36005482578
 11
-2.13132599241
 21
7.46106222429
  0
LINE
 10
-2.13132599241
 20
7.46106222429
 11
-2.21169632195
 21
7.58590135583
  0
LINE
 10
-2.21169632195
 20
7.58590135583
 11
-2.31979178517
 21
7.73165998184
  0
LINE
 10
-2.31979178517
 20
7.73165998184
 11
-2.45865280424
 21
7.89509508429
  0
LINE
 10
-2.45865280424
 20
7.89509508429
 11
-2.63100428546
 21
8.07265857399
  0
LINE
 10
-2.63100428546
 20
8.07265857399
 11
-2.8392289625
 21
8.26052534053
  0
LINE
 10
-2.8392289625
 20
8.26052534053
 11
-3.08534310173
 21
8.45462346579
  0
LINE
 10
-4.13852231952
 20
6.25480879091
 11
-4.14700880784
 21
6.26895668734
  0
LINE
 10
-4.14700880784
 20
6.26895668734
 11
-4.16992166577
 21
6.31282451059
  0
LINE
 10
-4.16992166577
 20
6.31282451059
 11
-4.20329065752
 21
6.38825857716
  0
LINE
 10
-4.20329065752
 20
6.38825857716
 11
-4.24297289657
 21
6.49670539578
  0
LINE
 10
-4.24297289657
 20
6.49670539578
 11
-4.2846886441
 21
6.63919748343
  0
LINE
 10
-4.2846886441
 20
6.63919748343
 11
-4.3240581893
 21
6.81634218455
  0
LINE
 10
-4.3240581893
 20
6.81634218455
 11
-4.35663956954
 21
7.02831357175
  0
LINE
 10
-4.35663956954
 20
7.02831357175
 11
-4.37796688381
 21
7.27484748752
  0
LINE
 10
-4.37796688381
 20
7.27484748752
 11
-4.38358894782
 21
7.55523976718
  0
LINE
 10
-4.38358894782
 20
7.55523976718
 11
-4.36910803753
 21
7.86834766391
  0
LINE
 10
-3.08534310173
 20
8.45462346579
 11
-3.08534310166
 21
8.4546234656
  0
LINE
 10
-4.36910803753
 20
7.86834766391
 11
-4.36910803743
 21
7.86834766373
  0
LINE
 10
-3.08534310166
 20
8.4546234656
 11
-4.36910803743
 21
7.86834766373
  0
LINE
 10
-4.13852231952
 20
6.25480879091
 11
-3.75226023636
 21
5.67102663709
  0
LINE
 10
-3.75226023636
 20
5.67102663709
 11
-5.07930145417
 21
4.52113887617
  0
LINE
 10
-5.60217072151
 20
4.98655023107
 11
-5.07930145417
 21
4.52113887617
  0
LINE
 10
-5.60217072151
 20
4.98655023107
 11
-5.61496685955
 21
4.99696379477
  0
LINE
 10
-5.61496685955
 20
4.99696379477
 11
-5.65512733194
 21
5.02588647501
  0
LINE
 10
-5.65512733194
 20
5.02588647501
 11
-5.72504468582
 21
5.06965120553
  0
LINE
 10
-5.72504468582
 20
5.06965120553
 11
-5.82674030076
 21
5.12436312805
  0
LINE
 10
-5.82674030076
 20
5.12436312805
 11
-5.96184525455
 21
5.18593300784
  0
LINE
 10
-5.96184525455
 20
5.18593300784
 11
-6.13158400758
 21
5.25011214732
  0
LINE
 10
-6.13158400758
 20
5.25011214732
 11
-6.33676101783
 21
5.31252856978
  0
LINE
 10
-6.33676101783
 20
5.31252856978
 11
-6.57775038052
 21
5.36872423709
  0
LINE
 10
-6.57775038052
 20
5.36872423709
 11
-6.85448856794
 21
5.41419305853
  0
LINE
 10
-6.85448856794
 20
5.41419305853
 11
-7.16647032615
 21
5.44441944271
  0
LINE
 10
-6.86315145974
 20
3.02442590265
 11
-6.87793967831
 21
3.03173972853
  0
LINE
 10
-6.87793967831
 20
3.03173972853
 11
-6.92093193682
 21
3.05625606357
  0
LINE
 10
-6.92093193682
 20
3.05625606357
 11
-6.98978645443
 21
3.10167459959
  0
LINE
 10
-6.98978645443
 20
3.10167459959
 11
-7.08180005489
 21
3.17145203073
  0
LINE
 10
-7.08180005489
 20
3.17145203073
 11
-7.19393061363
 21
3.26877076701
  0
LINE
 10
-7.19393061363
 20
3.26877076701
 11
-7.32282203863
 21
3.39650958956
  0
LINE
 10
-7.32282203863
 20
3.39650958956
 11
-7.46483162392
 21
3.55721644385
  0
LINE
 10
-7.46483162392
 20
3.55721644385
 11
-7.61605960014
 21
3.75308355482
  0
LINE
 10
-7.61605960014
 20
3.75308355482
 11
-7.77238069264
 21
3.98592503339
  0
LINE
 10
-7.77238069264
 20
3.98592503339
 11
-7.92947748493
 21
4.25715712884
  0
LINE
 10
-7.16647032615
 20
5.44441944271
 11
-7.16647032599
 21
5.44441944258
  0
LINE
 10
-7.92947748493
 20
4.25715712884
 11
-7.92947748475
 21
4.25715712875
  0
LINE
 10
-7.16647032599
 20
5.44441944258
 11
-7.92947748475
 21
4.25715712875
  0
LINE
 10
-6.86315145974
 20
3.02442590265
 11
-6.22259065683
 21
2.74214615174
  0
LINE
 10
-6.22259065683
 20
2.74214615174
 11
-6.71729251048
 21
1.05734636171
  0
LINE
 10
-7.40877850421
 20
1.16619084012
 11
-6.71729251048
 21
1.05734636171
  0
LINE
 10
-7.40877850421
 20
1.16619084012
 11
-7.42517329812
 21
1.16803317285
  0
LINE
 10
-7.42517329812
 20
1.16803317285
 11
-7.47459521889
 21
1.17065208916
  0
LINE
 10
-7.47459521889
 20
1.17065208916
 11
-7.55707443953
 21
1.16966914796
  0
LINE
 10
-7.55707443953
 20
1.16966914796
 11
-7.67220573339
 21
1.16071494568
  0
LINE
 10
-7.67220573339
 20
1.16071494568
 11
-7.81915044321
 21
1.13946757191
  0
LINE
 10
-7.81915044321
 20
1.13946757191
 11
-7.99664163128
 21
1.10169080154
  0
LINE
 10
-7.99664163128
 20
1.10169080154
 11
-8.20299238168
 21
1.04327177089
  0
LINE
 10
-8.20299238168
 20
1.04327177089
 11
-8.43610720593
 21
0.960257888504
  0
LINE
 10
-8.43610720593
 20
0.960257888504
 11
-8.69349648455
 21
0.848892735307
  0
LINE
 10
-8.69349648455
 20
0.848892735307
 11
-8.97229385788
 21
0.705650714992
  0
LINE
 10
-7.40877850421
 20
-1.16619084012
 11
-7.42517329812
 21
-1.16803317285
  0
LINE
 10
-7.42517329812
 20
-1.16803317285
 11
-7.47459521889
 21
-1.17065208916
  0
LINE
 10
-7.47459521889
 20
-1.17065208916
 11
-7.55707443953
 21
-1.16966914796
  0
LINE
 10
-7.55707443953
 20
-1.16966914796
 11
-7.67220573339
 21
-1.16071494568
  0
LINE
 10
-7.67220573339
 20
-1.16071494568
 11
-7.81915044321
 21
-1.13946757191
  0
LINE
 10
-7.81915044321
 20
-1.13946757191
 11
-7.99664163128
 21
-1.10169080154
  0
LINE
 10
-7.99664163128
 20
-1.10169080154
 11
-8.20299238168
 21
-1.04327177089
  0
LINE
 10
-8.20299238168
 20
-1.04327177089
 11
-8.43610720593
 21
-0.960257888504
  0
LINE
 10
-8.43610720593
 20
-0.960257888504
 11
-8.69349648455
 21
-0.848892735307
  0
LINE
 10
-8.69349648455
 20
-0.848892735307
 11
-8.97229385788
 21
-0.705650714992
  0
LINE
 10
-8.97229385788
 20
0.705650714992
 11
-8.97229385767
 21
0.705650714976
  0
LINE
 10
-8.97229385788
 20
-0.705650714992
 11
-8.97229385767
 21
-0.705650714976
  0
LINE
 10
-8.97229385767
 20
0.705650714976
 11
-8.97229385767
 21
-0.705650714976
  0
LINE
 10
-7.40877850421
 20
-1.16619084012
 11
-6.71729251048
 21
-1.05734636171
  0
LINE
 10
-6.71729251048
 20
-1.05734636171
 11
-6.22259065683
 21
-2.74214615174
  0
LINE
 10
-6.86315145974
 20
-3.02442590265
 11
-6.22259065683
 21
-2.74214615174
  0
LINE
 10
-6.86315145974
 20
-3.02442590265
 11
-6.87793967831
 21
-3.03173972853
  0
LINE
 10
-6.87793967831
 20
-3.03173972853
 11
-6.92093193682
 21
-3.05625606357
  0
LINE
 10
-6.92093193682
 20
-3.05625606357
 11
-6.98978645443
 21
-3.10167459959
  0
LINE
 10
-6.98978645443
 20
-3.10167459959
 11
-7.08180005489
 21
-3.17145203073
  0
LINE
 10
-7.08180005489
 20
-3.17145203073
 11
-7.19393061363
 21
-3.26877076701
  0
LINE
 10
-7.19393061363
 20
-3.26877076701
 11
-7.32282203863
 21
-3.39650958956
  0
LINE
 10
-7.32282203863
 20
-3.39650958956
 11
-7.46483162392
 21
-3.55721644385
  0
LINE
 10
-7.46483162392
 20
-3.55721644385
 11
-7.61605960014
 21
-3.75308355482
  0
LINE
 10
-7.61605960014
 20
-3.75308355482
 11
-7.77238069264
 21
-3.98592503339
  0
LINE
 10
-7.77238069264
 20
-3.98592503339
 11
-7.92947748493
 21
-4.25715712884
  0
LINE
 10
-5.60217072151
 20
-4.98655023107
 11
-5.61496685955
 21
-4.99696379477
  0
LINE
 10
-5.61496685955
 20
-4.99696379477
 11
-5.65512733194
 21
-5.02588647501
  0
LINE
 10
-5.65512733194
 20
-5.02588647501
 11
-5.72504468582
 21
-5.06965120553
  0
LINE
 10
-5.72504468582
 20
-5.06965120553
 11
-5.82674030076
 21
-5.12436312805
  0
LINE
 10
-5.82674030076
 20
-5.12436312805
 11
-5.96184525455
 21
-5.18593300784
  0
LINE
 10
-5.96184525455
 20
-5.18593300784
 11
-6.13158400758
 21
-5.25011214732
  0
LINE
 10
-6.13158400758
 20
-5.25011214732
 11
-6.33676101783
 21
-5.31252856978
  0
LINE
 10
-6.33676101783
 20
-5.31252856978
 11
-6.57775038052
 21
-5.36872423709
  0
LINE
 10
-6.57775038052
 20
-5.36872423709
 11
-6.85448856794
 21
-5.41419305853
  0
LINE
 10
-6.85448856794
 20
-5.41419305853
 11
-7.16647032615
 21
-5.44441944271
  0
LINE
 10
-7.92947748493
 20
-4.25715712884
 11
-7.92947748475
 21
-4.25715712875
  0
LINE
 10
-7.16647032615
 20
-5.44441944271
 11
-7.16647032599
 21
-5.44441944258
  0
LINE
 10
-7.92947748475
 20
-4.25715712875
 11
-7.16647032599
 21
-5.44441944258
  0
LINE
 10
-5.60217072151
 20
-4.98655023107
 11
-5.07930145417
 21
-4.52113887617
  0
LINE
 10
-5.07930145417
 20
-4.52113887617
 11
-3.75226023636
 21
-5.67102663709
  0
LINE
 10
-4.13852231952
 20
-6.25480879091
 11
-3.75226023636
 21
-5.67102663709
  0
LINE
 10
-4.13852231952
 20
-6.25480879091
 11
-4.14700880784
 21
-6.26895668734
  0
LINE
 10
-4.14700880784
 20
-6.26895668734
 11
-4.16992166577
 21
-6.31282451059
  0
LINE
 10
-4.16992166577
 20
-6.31282451059
 11
-4.20329065752
 21
-6.38825857716
  0
LINE
 10
-4.20329065752
 20
-6.38825857716
 11
-4.24297289657
 21
-6.49670539578
  0
LINE
 10
-4.24297289657
 20
-6.49670539578
 11
-4.2846886441
 21
-6.63919748343
  0
LINE
 10
-4.2846886441
 20
-6.63919748343
 11
-4.3240581893
 21
-6.81634218455
  0
LINE
 10
-4.3240581893
 20
-6.81634218455
 11
-4.35663956954
 21
-7.02831357175
  0
LINE
 10
-4.35663956954
 20
-7.02831357175
 11
-4.37796688381
 21
-7.27484748752
  0
LINE
 10
-4.37796688381
 20
-7.27484748752
 11
-4.38358894782
 21
-7.55523976718
  0
LINE
 10
-4.38358894782
 20
-7.55523976718
 11
-4.36910803753
 21
-7.86834766391
  0
LINE
 10
-2.01691331779
 20
-7.22371515693
 11
-2.02204811652
 21
-7.23939371871
  0
LINE
 10
-2.02204811652
 20
-7.23939371871
 11
-2.04019647431
 21
-7.28543741627
  0
LINE
 10
-2.04019647431
 20
-7.28543741627
 11
-2.07535369559
 21
-7.36005482578
  0
LINE
 10
-2.07535369559
 20
-7.36005482578
 11
-2.13132599241
 21
-7.46106222429
  0
LINE
 10
-2.13132599241
 20
-7.46106222429
 11
-2.21169632195
 21
-7.58590135583
  0
LINE
 10
-2.21169632195
 20
-7.58590135583
 11
-2.31979178517
 21
-7.73165998184
  0
LINE
 10
-2.31979178517
 20
-7.73165998184
 11
-2.45865280424
 21
-7.89509508429
  0
LINE
 10
-2.45865280424
 20
-7.89509508429
 11
-2.63100428546
 21
-8.07265857399
  0
LINE
 10
-2.63100428546
 20
-8.07265857399
 11
-2.8392289625
 21
-8.26052534053
  0
LINE
 10
-2.8392289625
 20
-8.26052534053
 11
-3.08534310173
 21
-8.45462346579
  0
LINE
 10
-4.36910803753
 20
-7.86834766391
 11
-4.36910803743
 21
-7.86834766373
  0
LINE
 10
-3.08534310173
 20
-8.45462346579
 11
-3.08534310166
 21
-8.4546234656
  0
LINE
 10
-4.36910803743
 20
-7.86834766373
 11
-3.08534310166
 21
-8.4546234656
  0
LINE
 10
-2.01691331779
 20
-7.22371515693
 11
-1.82866807479
 21
-6.54950174229
  0
LINE
 10
-1.82866807479
 20
-6.54950174229
 11
-0.0906137030538
 21
-6.79939623473
  0
LINE
 10
-0.0999415842505
 20
-7.49933408242
 11
-0.0906137030538
 21
-6.79939623473
  0
LINE
 10
-0.0999415842505
 20
-7.49933408242
 11
-0.0994319422382
 21
-7.51582419226
  0
LINE
 10
-0.0994319422382
 20
-7.51582419226
 11
-0.0949907290979
 21
-7.56511577978
  0
LINE
 10
-0.0949907290979
 20
-7.56511577978
 11
-0.0822797758806
 21
-7.64661559377
  0
LINE
 10
-0.0822797758806
 20
-7.64661559377
 11
-0.0570318229977
 21
-7.75930070121
  0
LINE
 10
-0.0570318229977
 20
-7.75930070121
 11
-0.0150883042424
 21
-7.90172590919
  0
LINE
 10
-0.0150883042424
 20
-7.90172590919
 11
0.0475635828022
 21
-8.07203429793
  0
LINE
 10
0.0475635828022
 20
-8.07203429793
 11
0.134754765617
 21
-8.26797080032
  0
LINE
 10
0.134754765617
 20
-8.26797080032
 11
0.250099384892
 21
-8.48689874454
  0
LINE
 10
0.250099384892
 20
-8.48689874454
 11
0.396961314965
 21
-8.72581925766
  0
LINE
 10
0.396961314965
 20
-8.72581925766
 11
0.578422341147
 21
-8.98139341077
  0
LINE
 10
2.20869981351
 20
-7.1674015608
 11
2.21285661639
 21
-7.18336728807
  0
LINE
 10
2.21285661639
 20
-7.18336728807
 11
2.22248234857
 21
-7.2319134543
  0
LINE
 10
2.22248234857
 20
-7.2319134543
 11
2.23324742924
 21
-7.31369304251
  0
LINE
 10
2.23324742924
 20
-7.31369304251
 11
2.24076925929
 21
-7.42892678166
  0
LINE
 10
2.24076925929
 20
-7.42892678166
 11
2.24065056576
 21
-7.57739962277
  0
LINE
 10
2.24065056576
 20
-7.57739962277
 11
2.22851793817
 21
-7.75846040143
  0
LINE
 10
2.22851793817
 20
-7.75846040143
 11
2.20006030269
 21
-7.97102469362
  0
LINE
 10
2.20006030269
 20
-7.97102469362
 11
2.15106708044
 21
-8.21358085233
  0
LINE
 10
2.15106708044
 20
-8.21358085233
 11
2.07746577749
 21
-8.48419919299
  0
LINE
 10
2.07746577749
 20
-8.48419919299
 11
1.9753587575
 21
-8.780544276
  0
LINE
 10
0.578422341147
 20
-8.98139341077
 11
0.578422341134
 21
-8.98139341056
  0
LINE
 10
1.9753587575
 20
-8.780544276
 11
1.97535875746
 21
-8.7805442758
  0
LINE
 10
0.578422341134
 20
-8.98139341056
 11
1.97535875746
 21
-8.7805442758
  0
LINE
 10
2.20869981351
 20
-7.1674015608
 11
2.00255449758
 21
-6.4984440818
  0
LINE
 10
2.00255449758
 20
-6.4984440818
 11
3.59980204073
 21
-5.76900557007
  0
LINE
 10
3.97036989786
 20
-6.36287379052
 11
3.59980204073
 21
-5.76900557007
  0
LINE
 10
3.97036989786
 20
-6.36287379052
 11
3.97971386247
 21
-6.37647062041
  0
LINE
 10
3.97971386247
 20
-6.37647062041
 11
4.01009909289
 21
-6.41553624145
  0
LINE
 10
4.01009909289
 20
-6.41553624145
 11
4.06485435324
 21
-6.47722618775
  0
LINE
 10
4.06485435324
 20
-6.47722618775
 11
4.1470164514
 21
-6.5583728586
  0
LINE
 10
4.1470164514
 20
-6.5583728586
 11
4.25930246561
 21
-6.65551218971
  0
LINE
 10
4.25930246561
 20
-6.65551218971
 11
4.40408425343
 21
-6.76491255598
  0
LINE
 10
4.40408425343
 20
-6.76491255598
 11
4.58336541483
 21
-6.88260571848
  0
LINE
 10
4.58336541483
 20
-6.88260571848
 11
4.79876086601
 21
-7.00441961573
  0
LINE
 10
4.79876086601
 20
-7.00441961573
 11
5.05147916505
 21
-7.12601278754
  0
LINE
 10
5.05147916505
 20
-7.12601278754
 11
5.34230771345
 21
-7.2429102092
  0
LINE
 10
5.73306635994
 20
-4.83548861156
 11
5.74519500889
 21
-4.84667249872
  0
LINE
 10
5.74519500889
 20
-4.84667249872
 11
5.77953872909
 21
-4.88230806885
  0
LINE
 10
5.77953872909
 20
-4.88230806885
 11
5.83280827466
 21
-4.94528539433
  0
LINE
 10
5.83280827466
 20
-4.94528539433
 11
5.90143610369
 21
-5.03815957614
  0
LINE
 10
5.90143610369
 20
-5.03815957614
 11
5.98160673053
 21
-5.16312704882
  0
LINE
 10
5.98160673053
 20
-5.16312704882
 11
6.06928896209
 21
-5.32200446223
  0
LINE
 10
6.06928896209
 20
-5.32200446223
 11
6.1602698084
 21
-5.51621028329
  0
LINE
 10
6.1602698084
 20
-5.51621028329
 11
6.25018984702
 21
-5.74674924445
  0
LINE
 10
6.25018984702
 20
-5.74674924445
 11
6.33457981181
 21
-6.01419974817
  0
LINE
 10
6.33457981181
 20
-6.01419974817
 11
6.40889816844
 21
-6.31870431895
  0
LINE
 10
5.34230771345
 20
-7.2429102092
 11
5.34230771332
 21
-7.24291020904
  0
LINE
 10
6.40889816844
 20
-6.31870431895
 11
6.40889816829
 21
-6.3187043188
  0
LINE
 10
5.34230771332
 20
-7.24291020904
 11
6.40889816829
 21
-6.3187043188
  0
LINE
 10
5.73306635994
 20
-4.83548861156
 11
5.19798016635
 21
-4.38417634114
  0
LINE
 10
5.19798016635
 20
-4.38417634114
 11
6.14730607157
 21
-2.90699639877
  0
LINE
 10
6.7801169907
 20
-3.20624602805
 11
6.14730607157
 21
-2.90699639877
  0
LINE
 10
6.7801169907
 20
-3.20624602805
 11
6.79532863516
 21
-3.21263268057
  0
LINE
 10
6.79532863516
 20
-3.21263268057
 11
6.84201078689
 21
-3.22906927647
  0
LINE
 10
6.84201078689
 20
-3.22906927647
 11
6.9214259461
 21
-3.25136323302
  0
LINE
 10
6.9214259461
 20
-3.25136323302
 11
7.0344163039
 21
-3.27520797263
  0
LINE
 10
7.0344163039
 20
-3.27520797263
 11
7.18139479742
 21
-3.2962203756
  0
LINE
 10
7.18139479742
 20
-3.2962203756
 11
7.36233929136
 21
-3.3099788761
  0
LINE
 10
7.36233929136
 20
-3.3099788761
 11
7.57678992934
 21
-3.31206195118
  0
LINE
 10
7.57678992934
 20
-3.31206195118
 11
7.82384967859
 21
-3.29808674979
  0
LINE
 10
7.82384967859
 20
-3.29808674979
 11
8.10218807227
 21
-3.26374760736
  0
LINE
 10
8.10218807227
 20
-3.26374760736
 11
8.41004813367
 21
-3.20485419217
  0
LINE
 10
7.43722484501
 20
-0.96834219407
 11
7.45347457968
 21
-0.971193435976
  0
LINE
 10
7.45347457968
 20
-0.971193435976
 11
7.50163239939
 21
-0.982604368278
  0
LINE
 10
7.50163239939
 20
-0.982604368278
 11
7.58049370553
 21
-1.00678457516
  0
LINE
 10
7.58049370553
 20
-1.00678457516
 11
7.68843868272
 21
-1.04781230313
  0
LINE
 10
7.68843868272
 20
-1.04781230313
 11
7.82344502236
 21
-1.10959811779
  0
LINE
 10
7.82344502236
 20
-1.10959811779
 11
7.98310362409
 21
-1.19584970976
  0
LINE
 10
7.98310362409
 20
-1.19584970976
 11
8.16463717633
 21
-1.3100380837
  0
LINE
 10
8.16463717633
 20
-1.3100380837
 11
8.3649214989
 21
-1.45536535604
  0
LINE
 10
8.3649214989
 20
-1.45536535604
 11
8.58050951387
 21
-1.63473437761
  0
LINE
 10
8.58050951387
 20
-1.63473437761
 11
8.80765769401
 21
-1.85072038645
  0
LINE
 10
8.41004813367
 20
-3.20485419217
 11
8.41004813348
 21
-3.2048541921
  0
LINE
 10
8.80765769401
 20
-1.85072038645
 11
8.80765769381
 21
-1.85072038641
  0
LINE
 10
8.41004813348
 20
-3.2048541921
 11
8.80765769381
 21
-1.85072038641
  0
ENDSEC
  0
EOF
