  0
SECTION
  2
ENTITIES
  0
LINE
 10
28.4765198712
 20
-1.15663997151
 11
27.7770965761
 21
-1.12823127046
  0
LINE
 10
27.7770965761
 20
-1.12823127046
 11
27.7770965761
 21
1.12823127046
  0
LINE
 10
28.4765198712
 20
1.15663997151
 11
27.7770965761
 21
1.12823127046
  0
LINE
 10
28.4765198712
 20
1.15663997151
 11
28.4918840819
 21
1.15760159996
  0
LINE
 10
28.4918840819
 20
1.15760159996
 11
28.5378721558
 21
1.1618316647
  0
LINE
 10
28.5378721558
 20
1.1618316647
 11
28.614252748
 21
1.17134097166
  0
LINE
 10
28.614252748
 20
1.17134097166
 11
28.7206955502
 21
1.18812756536
  0
LINE
 10
28.7206955502
 20
1.18812756536
 11
28.8567719155
 21
1.21417240114
  0
LINE
 10
28.8567719155
 20
1.21417240114
 11
29.02195566
 21
1.25143504572
  0
LINE
 10
29.02195566
 20
1.25143504572
 11
29.215624041
 21
1.30184941326
  0
LINE
 10
29.215624041
 20
1.30184941326
 11
29.43705891
 21
1.36731954372
  0
LINE
 10
29.43705891
 20
1.36731954372
 11
29.6854480373
 21
1.44971543035
  0
LINE
 10
29.6854480373
 20
1.44971543035
 11
29.9598866094
 21
1.55086890332
  0
LINE
 10
28.2932945172
 20
3.42629323925
 11
28.3086140215
 21
3.42780865635
  0
LINE
 10
28.3086140215
 20
3.42780865635
 11
28.354685112
 21
3.43101037569
  0
LINE
 10
28.354685112
 20
3.43101037569
 11
28.4316019957
 21
3.43387652039
  0
LINE
 10
28.4316019957
 20
3.43387652039
 11
28.5393591506
 21
3.4343819349
  0
LINE
 10
28.5393591506
 20
3.4343819349
 11
28.6778512481
 21
3.43050255695
  0
LINE
 10
28.6778512481
 20
3.43050255695
 11
28.846873255
 21
3.42021978986
  0
LINE
 10
28.846873255
 20
3.42021978986
 11
29.0461207147
 21
3.40152486821
  0
LINE
 10
29.0461207147
 20
3.40152486821
 11
29.2751902077
 21
3.3724232097
  0
LINE
 10
29.2751902077
 20
3.3724232097
 11
29.5335799908
 21
3.33093874622
  0
LINE
 10
29.5335799908
 20
3.33093874622
 11
29.8206908137
 21
3.27511822703
  0
LINE
 10
29.9598866094
 20
1.55086890332
 11
29.9598866093
 21
1.55086890332
  0
LINE
 10
29.8206908137
 20
3.27511822703
 11
29.8206908136
 21
3.27511822702
  0
LINE
 10
29.9598866093
 20
1.55086890332
 11
29.8206908136
 21
3.27511822702
  0
LINE
 10
28.2932945172
 20
3.42629323925
 11
27.598371494
 21
3.34213866846
  0
LINE
 10
27.598371494
 20
3.34213866846
 11
27.2364094476
 21
5.56938061211
  0
LINE
 10
27.9222183186
 20
5.70961681458
 11
27.2364094476
 21
5.56938061211
  0
LINE
 10
27.9222183186
 20
5.70961681458
 11
27.9372293107
 21
5.7130305829
  0
LINE
 10
27.9372293107
 20
5.7130305829
 11
27.9819433011
 21
5.72458287526
  0
LINE
 10
27.9819433011
 20
5.72458287526
 11
28.0558093846
 21
5.74622134781
  0
LINE
 10
28.0558093846
 20
5.74622134781
 11
28.1581810214
 21
5.77986518578
  0
LINE
 10
28.1581810214
 20
5.77986518578
 11
28.288317348
 21
5.82740093181
  0
LINE
 10
28.288317348
 20
5.82740093181
 11
28.4453846578
 21
5.89067837096
  0
LINE
 10
28.4453846578
 20
5.89067837096
 11
28.628458051
 21
5.97150647876
  0
LINE
 10
28.628458051
 20
5.97150647876
 11
28.836523249
 21
6.07164943917
  0
LINE
 10
28.836523249
 20
6.07164943917
 11
29.0684785727
 21
6.19282273878
  0
LINE
 10
29.0684785727
 20
6.19282273878
 11
29.3231370792
 21
6.33668934371
  0
LINE
 10
27.377287697
 20
7.92048725487
 11
27.3921657277
 21
7.92444046901
  0
LINE
 10
27.3921657277
 20
7.92444046901
 11
27.4371266178
 21
7.93499104957
  0
LINE
 10
27.4371266178
 20
7.93499104957
 11
27.5125876862
 21
7.95015841429
  0
LINE
 10
27.5125876862
 20
7.95015841429
 11
27.61886834
 21
7.96794274705
  0
LINE
 10
27.61886834
 20
7.96794274705
 11
27.7561892972
 21
7.98632930077
  0
LINE
 10
27.7561892972
 20
7.98632930077
 11
27.9246719853
 21
8.00329272944
  0
LINE
 10
27.9246719853
 20
8.00329272944
 11
28.1243381191
 21
8.01680144233
  0
LINE
 10
28.1243381191
 20
8.01680144233
 11
28.3551094566
 21
8.02482197343
  0
LINE
 10
28.3551094566
 20
8.02482197343
 11
28.6168077358
 21
8.02532335893
  0
LINE
 10
28.6168077358
 20
8.02532335893
 11
28.9091547899
 21
8.01628151564
  0
LINE
 10
29.3231370792
 20
6.33668934371
 11
29.3231370791
 21
6.33668934369
  0
LINE
 10
28.9091547899
 20
8.01628151564
 11
28.9091547898
 21
8.01628151562
  0
LINE
 10
29.3231370791
 20
6.33668934369
 11
28.9091547898
 21
8.01628151562
  0
LINE
 10
27.377287697
 20
7.92048725487
 11
26.7048630869
 21
7.72594897142
  0
LINE
 10
26.7048630869
 20
7.72594897142
 11
25.990313621
 21
9.86628592137
  0
LINE
 10
26.6447459784
 20
10.1147175813
 11
25.990313621
 21
9.86628592137
  0
LINE
 10
26.6447459784
 20
10.1147175813
 11
26.6590149751
 21
10.1204950747
  0
LINE
 10
26.6590149751
 20
10.1204950747
 11
26.701296813
 21
10.1390703963
  0
LINE
 10
26.701296813
 20
10.1390703963
 11
26.770735295
 21
10.1722776094
  0
LINE
 10
26.770735295
 20
10.1722776094
 11
26.866384395
 21
10.2219073339
  0
LINE
 10
26.866384395
 20
10.2219073339
 11
26.9872102204
 21
10.2897028393
  0
LINE
 10
26.9872102204
 20
10.2897028393
 11
27.1320931347
 21
10.3773562206
  0
LINE
 10
27.1320931347
 20
10.3773562206
 11
27.2998300352
 21
10.4865046631
  0
LINE
 10
27.2998300352
 20
10.4865046631
 11
27.4891367831
 21
10.6187268034
  0
LINE
 10
27.4891367831
 20
10.6187268034
 11
27.698650782
 21
10.7755391912
  0
LINE
 10
27.698650782
 20
10.7755391912
 11
27.9269337014
 21
10.9583928586
  0
LINE
 10
25.7522235061
 20
12.209544811
 11
25.76627473
 21
12.215833436
  0
LINE
 10
25.76627473
 20
12.215833436
 11
25.8089609563
 21
12.2334596233
  0
LINE
 10
25.8089609563
 20
12.2334596233
 11
25.8810118072
 21
12.2605353813
  0
LINE
 10
25.8810118072
 20
12.2605353813
 11
25.9830633469
 21
12.2951380274
  0
LINE
 10
25.9830633469
 20
12.2951380274
 11
26.1156566231
 21
12.3353143107
  0
LINE
 10
26.1156566231
 20
12.3353143107
 11
26.2792363794
 21
12.3790845913
  0
LINE
 10
26.2792363794
 20
12.3790845913
 11
26.4741499392
 21
12.4244470701
  0
LINE
 10
26.4741499392
 20
12.4244470701
 11
26.7006462649
 21
12.4693820633
  0
LINE
 10
26.7006462649
 20
12.4693820633
 11
26.9588751922
 21
12.5118563121
  0
LINE
 10
26.9588751922
 20
12.5118563121
 11
27.2488868424
 21
12.5498273238
  0
LINE
 10
27.9269337014
 20
10.9583928586
 11
27.9269337013
 21
10.9583928586
  0
LINE
 10
27.2488868424
 20
12.5498273238
 11
27.2488868423
 21
12.5498273237
  0
LINE
 10
27.9269337013
 20
10.9583928586
 11
27.2488868423
 21
12.5498273237
  0
LINE
 10
25.7522235061
 20
12.209544811
 11
25.1197127533
 21
11.9096612543
  0
LINE
 10
25.1197127533
 20
11.9096612543
 11
24.0710823237
 21
13.9076596078
  0
LINE
 10
24.6771887131
 20
14.2578524756
 11
24.0710823237
 21
13.9076596078
  0
LINE
 10
24.6771887131
 20
14.2578524756
 11
24.690346155
 21
14.26584406
  0
LINE
 10
24.690346155
 20
14.26584406
 11
24.7291007631
 21
14.2909613199
  0
LINE
 10
24.7291007631
 20
14.2909613199
 11
24.7923132234
 21
14.3348772242
  0
LINE
 10
24.7923132234
 20
14.3348772242
 11
24.8787625249
 21
14.3992074514
  0
LINE
 10
24.8787625249
 20
14.3992074514
 11
24.9871485238
 21
14.4855068483
  0
LINE
 10
24.9871485238
 20
14.4855068483
 11
25.1160946513
 21
14.5952659952
  0
LINE
 10
25.1160946513
 20
14.5952659952
 11
25.2641507615
 21
14.7299078851
  0
LINE
 10
25.2641507615
 20
14.7299078851
 11
25.4297961138
 21
14.8907847213
  0
LINE
 10
25.4297961138
 20
14.8907847213
 11
25.6114424855
 21
15.0791748387
  0
LINE
 10
25.6114424855
 20
15.0791748387
 11
25.80743741
 21
15.2962797547
  0
LINE
 10
23.4601902534
 20
16.18238157
 11
23.4730507512
 21
16.1908427338
  0
LINE
 10
23.4730507512
 20
16.1908427338
 11
23.5123567628
 21
16.2150880188
  0
LINE
 10
23.5123567628
 20
16.2150880188
 11
23.5791313171
 21
16.2533709221
  0
LINE
 10
23.5791313171
 20
16.2533709221
 11
23.6743106614
 21
16.3038956912
  0
LINE
 10
23.6743106614
 20
16.3038956912
 11
23.7987421604
 21
16.3648211595
  0
LINE
 10
23.7987421604
 20
16.3648211595
 11
23.9531823551
 21
16.4342646646
  0
LINE
 10
23.9531823551
 20
16.4342646646
 11
24.1382951822
 21
16.5103060451
  0
LINE
 10
24.1382951822
 20
16.5103060451
 11
24.3546503601
 21
16.5909917076
  0
LINE
 10
24.3546503601
 20
16.5909917076
 11
24.6027219419
 21
16.6743387591
  0
LINE
 10
24.6027219419
 20
16.6743387591
 11
24.8828870388
 21
16.7583391963
  0
LINE
 10
25.80743741
 20
15.2962797547
 11
25.80743741
 21
15.2962797546
  0
LINE
 10
24.8828870388
 20
16.7583391963
 11
24.8828870387
 21
16.7583391963
  0
LINE
 10
25.80743741
 20
15.2962797546
 11
24.8828870387
 21
16.7583391963
  0
LINE
 10
23.4601902534
 20
16.18238157
 11
22.8839750542
 21
15.7849195665
  0
LINE
 10
22.8839750542
 20
15.7849195665
 11
21.5284226382
 21
17.5888322157
  0
LINE
 10
22.0705052226
 20
18.0317164801
 11
21.5284226382
 21
17.5888322157
  0
LINE
 10
22.0705052226
 20
18.0317164801
 11
22.0822103387
 21
18.0417151778
  0
LINE
 10
22.0822103387
 20
18.0417151778
 11
22.116433993
 21
18.0727238521
  0
LINE
 10
22.116433993
 20
18.0727238521
 11
22.1717832621
 21
18.1262110486
  0
LINE
 10
22.1717832621
 20
18.1262110486
 11
22.2467937737
 21
18.2035756595
  0
LINE
 10
22.2467937737
 20
18.2035756595
 11
22.3399328056
 21
18.3061438387
  0
LINE
 10
22.3399328056
 20
18.3061438387
 11
22.4496025093
 21
18.4351660469
  0
LINE
 10
22.4496025093
 20
18.4351660469
 11
22.5741432537
 21
18.59181423
  0
LINE
 10
22.5741432537
 20
18.59181423
 11
22.7118370828
 21
18.7771791366
  0
LINE
 10
22.7118370828
 20
18.7771791366
 11
22.8609112817
 21
18.9922677786
  0
LINE
 10
22.8609112817
 20
18.9922677786
 11
23.0195420458
 21
19.2380010398
  0
LINE
 10
20.5605503961
 20
19.7361031465
 11
20.5718870878
 21
19.7465177093
  0
LINE
 10
20.5718870878
 20
19.7465177093
 11
20.6067948797
 21
19.776754152
  0
LINE
 10
20.6067948797
 20
19.776754152
 11
20.6665637115
 21
19.8252526935
  0
LINE
 10
20.6665637115
 20
19.8252526935
 11
20.7524057653
 21
19.8903910206
  0
LINE
 10
20.7524057653
 20
19.8903910206
 11
20.8654527767
 21
19.9704877363
  0
LINE
 10
20.8654527767
 20
19.9704877363
 11
21.0067534898
 21
20.0638059157
  0
LINE
 10
21.0067534898
 20
20.0638059157
 11
21.1772712591
 21
20.1685567659
  0
LINE
 10
21.1772712591
 20
20.1685567659
 11
21.3778818039
 21
20.2829033815
  0
LINE
 10
21.3778818039
 20
20.2829033815
 11
21.6093711166
 21
20.4049645907
  0
LINE
 10
21.6093711166
 20
20.4049645907
 11
21.8724335313
 21
20.5328188864
  0
LINE
 10
23.0195420458
 20
19.2380010398
 11
23.0195420457
 21
19.2380010398
  0
LINE
 10
21.8724335313
 20
20.5328188864
 11
21.8724335313
 21
20.5328188864
  0
LINE
 10
23.0195420457
 20
19.2380010398
 11
21.8724335313
 21
20.5328188864
  0
LINE
 10
20.5605503961
 20
19.7361031465
 11
20.0555544215
 21
19.2513567534
  0
LINE
 10
20.0555544215
 20
19.2513567534
 11
18.4281881147
 21
20.8144633083
  0
LINE
 10
18.8922072398
 20
21.3385684995
 11
18.4281881147
 21
20.8144633083
  0
LINE
 10
18.8922072398
 20
21.3385684995
 11
18.902156874
 21
21.3503153493
  0
LINE
 10
18.902156874
 20
21.3503153493
 11
18.9309631997
 21
21.3864123296
  0
LINE
 10
18.9309631997
 20
21.3864123296
 11
18.9770157606
 21
21.4480855281
  0
LINE
 10
18.9770157606
 20
21.4480855281
 11
19.0386447495
 21
21.5364808198
  0
LINE
 10
19.0386447495
 20
21.5364808198
 11
19.1141245623
 21
21.6526613195
  0
LINE
 10
19.1141245623
 20
21.6526613195
 11
19.2016774545
 21
21.7976049817
  0
LINE
 10
19.2016774545
 20
21.7976049817
 11
19.2994772933
 21
21.9722023522
  0
LINE
 10
19.2994772933
 20
21.9722023522
 11
19.4056534014
 21
22.1772544754
  0
LINE
 10
19.4056534014
 20
22.1772544754
 11
19.518294484
 21
22.4134709593
  0
LINE
 10
19.518294484
 20
22.4134709593
 11
19.6354526342
 21
22.6814682033
  0
LINE
 10
17.1284030836
 20
22.7786700183
 11
17.1379223548
 21
22.7907682486
  0
LINE
 10
17.1379223548
 20
22.7907682486
 11
17.1675278334
 21
22.8262127408
  0
LINE
 10
17.1675278334
 20
22.8262127408
 11
17.2187429613
 21
22.8836708338
  0
LINE
 10
17.2187429613
 20
22.8836708338
 11
17.2930244606
 21
22.9617356706
  0
LINE
 10
17.2930244606
 20
22.9617356706
 11
17.3917591262
 21
23.0589291707
  0
LINE
 10
17.3917591262
 20
23.0589291707
 11
17.5162607435
 21
23.1737051325
  0
LINE
 10
17.5162607435
 20
23.1737051325
 11
17.6677671344
 21
23.3044524606
  0
LINE
 10
17.6677671344
 20
23.3044524606
 11
17.8474373382
 21
23.449498512
  0
LINE
 10
17.8474373382
 20
23.449498512
 11
18.0563489302
 21
23.6071125577
  0
LINE
 10
18.0563489302
 20
23.6071125577
 11
18.2954954844
 21
23.7755093528
  0
LINE
 10
19.6354526342
 20
22.6814682033
 11
19.6354526341
 21
22.6814682032
  0
LINE
 10
18.2954954844
 20
23.7755093528
 11
18.2954954844
 21
23.7755093527
  0
LINE
 10
19.6354526341
 20
22.6814682032
 11
18.2954954844
 21
23.7755093527
  0
LINE
 10
17.1284030836
 20
22.7786700183
 11
16.707705464
 21
22.2191939126
  0
LINE
 10
16.707705464
 20
22.2191939126
 11
14.8506731989
 21
23.5010107344
  0
LINE
 10
15.2246110132
 20
24.0927628033
 11
14.8506731989
 21
23.5010107344
  0
LINE
 10
15.2246110132
 20
24.0927628033
 11
15.232547475
 21
24.105953568
  0
LINE
 10
15.232547475
 20
24.105953568
 11
15.2551904035
 21
24.1462039615
  0
LINE
 10
15.2551904035
 20
24.1462039615
 11
15.2907535191
 21
24.2144658586
  0
LINE
 10
15.2907535191
 20
24.2144658586
 11
15.3374048268
 21
24.3116024396
  0
LINE
 10
15.3374048268
 20
24.3116024396
 11
15.3932705331
 21
24.4383862457
  0
LINE
 10
15.3932705331
 20
24.4383862457
 11
15.4564390398
 21
24.5954973971
  0
LINE
 10
15.4564390398
 20
24.5954973971
 11
15.5249650085
 21
24.783521975
  0
LINE
 10
15.5249650085
 20
24.783521975
 11
15.5968734902
 21
25.0029505726
  0
LINE
 10
15.5968734902
 20
25.0029505726
 11
15.6701641116
 21
25.2541770153
  0
LINE
 10
15.6701641116
 20
25.2541770153
 11
15.7428153133
 21
25.5374972543
  0
LINE
 10
13.2526391284
 20
25.2312813018
 11
13.2600944349
 21
25.2447498617
  0
LINE
 10
13.2600944349
 20
25.2447498617
 11
13.2836308339
 21
25.2844844098
  0
LINE
 10
13.2836308339
 20
25.2844844098
 11
13.3249658131
 21
25.3494139198
  0
LINE
 10
13.3249658131
 20
25.3494139198
 11
13.385762906
 21
25.4383834279
  0
LINE
 10
13.385762906
 20
25.4383834279
 11
13.4676280498
 21
25.5501564519
  0
LINE
 10
13.4676280498
 20
25.5501564519
 11
13.5721060447
 21
25.683417559
  0
LINE
 10
13.5721060447
 20
25.683417559
 11
13.7006771214
 21
25.8367750778
  0
LINE
 10
13.7006771214
 20
25.8367750778
 11
13.8547536203
 21
26.0087639484
  0
LINE
 10
13.8547536203
 20
26.0087639484
 11
14.0356767911
 21
26.1978487098
  0
LINE
 10
14.0356767911
 20
26.1978487098
 11
14.2447137147
 21
26.4024266156
  0
LINE
 10
15.7428153133
 20
25.5374972543
 11
15.7428153133
 21
25.5374972543
  0
LINE
 10
14.2447137147
 20
26.4024266156
 11
14.2447137146
 21
26.4024266155
  0
LINE
 10
15.7428153133
 20
25.5374972543
 11
14.2447137146
 21
26.4024266155
  0
LINE
 10
13.2526391284
 20
25.2312813018
 11
12.9271357112
 21
24.6115656207
  0
LINE
 10
12.9271357112
 20
24.6115656207
 11
10.8885336479
 21
25.5788943271
  0
LINE
 10
11.1627053585
 20
26.2229672059
 11
10.8885336479
 21
25.5788943271
  0
LINE
 10
11.1627053585
 20
26.2229672059
 11
11.1684230977
 21
26.2372602516
  0
LINE
 10
11.1684230977
 20
26.2372602516
 11
11.1843161891
 21
26.2806215943
  0
LINE
 10
11.1843161891
 20
26.2806215943
 11
11.2084687933
 21
26.3537042427
  0
LINE
 10
11.2084687933
 20
26.3537042427
 11
11.2389341754
 21
26.4570663264
  0
LINE
 10
11.2389341754
 20
26.4570663264
 11
11.2737388828
 21
26.5911698051
  0
LINE
 10
11.2737388828
 20
26.5911698051
 11
11.3108869728
 21
26.7563793494
  0
LINE
 10
11.3108869728
 20
26.7563793494
 11
11.3483642849
 21
26.9529613968
  0
LINE
 10
11.3483642849
 20
26.9529613968
 11
11.3841427483
 21
27.1810833833
  0
LINE
 10
11.3841427483
 20
27.1810833833
 11
11.4161847199
 21
27.440813152
  0
LINE
 10
11.4161847199
 20
27.440813152
 11
11.4424473452
 21
27.7321185407
  0
LINE
 10
9.03363878102
 20
27.030415653
 11
9.03883703428
 21
27.0449057138
  0
LINE
 10
9.03883703428
 20
27.0449057138
 11
9.05569477338
 21
27.0879012139
  0
LINE
 10
9.05569477338
 20
27.0879012139
 11
9.0860790496
 21
27.1586205008
  0
LINE
 10
9.0860790496
 20
27.1586205008
 11
9.13181712336
 21
27.2561904166
  0
LINE
 10
9.13181712336
 20
27.2561904166
 11
9.19469248107
 21
27.3796481018
  0
LINE
 10
9.19469248107
 20
27.3796481018
 11
9.27644092855
 21
27.5279429617
  0
LINE
 10
9.27644092855
 20
27.5279429617
 11
9.37874676749
 21
27.6999387919
  0
LINE
 10
9.37874676749
 20
27.6999387919
 11
9.50323906122
 21
27.8944160604
  0
LINE
 10
9.50323906122
 20
27.8944160604
 11
9.65148799573
 21
28.1100743413
  0
LINE
 10
9.65148799573
 20
28.1100743413
 11
9.82500134211
 21
28.3455348976
  0
LINE
 10
11.4424473452
 20
27.7321185407
 11
11.4424473452
 21
27.7321185407
  0
LINE
 10
9.82500134211
 20
28.3455348976
 11
9.82500134208
 21
28.3455348975
  0
LINE
 10
11.4424473452
 20
27.7321185407
 11
9.82500134208
 21
28.3455348975
  0
LINE
 10
9.03363878102
 20
27.030415653
 11
8.81175993376
 21
26.3665107071
  0
LINE
 10
8.81175993376
 20
26.3665107071
 11
6.64438679499
 21
26.9942979927
  0
LINE
 10
6.81169149846
 20
27.6740105321
 11
6.64438679499
 21
26.9942979927
  0
LINE
 10
6.81169149846
 20
27.6740105321
 11
6.81504242865
 21
27.6890356765
  0
LINE
 10
6.81504242865
 20
27.6890356765
 11
6.82377406016
 21
27.7343849324
  0
LINE
 10
6.82377406016
 20
27.7343849324
 11
6.83589061325
 21
27.8103955298
  0
LINE
 10
6.83589061325
 20
27.8103955298
 11
6.84938103244
 21
27.9173060927
  0
LINE
 10
6.84938103244
 20
27.9173060927
 11
6.8622233172
 21
28.0552560342
  0
LINE
 10
6.8622233172
 20
28.0552560342
 11
6.87238887466
 21
28.224285131
  0
LINE
 10
6.87238887466
 20
28.224285131
 11
6.87784688738
 21
28.4243332762
  0
LINE
 10
6.87784688738
 20
28.4243332762
 11
6.87656868896
 21
28.655240412
  0
LINE
 10
6.87656868896
 20
28.655240412
 11
6.8665321406
 21
28.9167466422
  0
LINE
 10
6.8665321406
 20
28.9167466422
 11
6.84572600129
 21
29.2084925239
  0
LINE
 10
4.58067193436
 20
28.1294764372
 11
4.58347850241
 21
28.1446127139
  0
LINE
 10
4.58347850241
 20
28.1446127139
 11
4.59322097497
 21
28.1897556051
  0
LINE
 10
4.59322097497
 20
28.1897556051
 11
4.61186761139
 21
28.2644330765
  0
LINE
 10
4.61186761139
 20
28.2644330765
 11
4.64136207394
 21
28.3680763905
  0
LINE
 10
4.64136207394
 20
28.3680763905
 11
4.68361920687
 21
28.5000212478
  0
LINE
 10
4.68361920687
 20
28.5000212478
 11
4.74052086501
 21
28.6595091013
  0
LINE
 10
4.74052086501
 20
28.6595091013
 11
4.81391179878
 21
28.8456886414
  0
LINE
 10
4.81391179878
 20
28.8456886414
 11
4.90559560226
 21
29.0576174486
  0
LINE
 10
4.90559560226
 20
29.0576174486
 11
5.01733073094
 21
29.2942638129
  0
LINE
 10
5.01733073094
 20
29.2942638129
 11
5.15082659562
 21
29.554508715
  0
LINE
 10
6.84572600129
 20
29.2084925239
 11
6.84572600127
 21
29.2084925238
  0
LINE
 10
5.15082659562
 20
29.554508715
 11
5.1508265956
 21
29.5545087149
  0
LINE
 10
6.84572600127
 20
29.2084925238
 11
5.1508265956
 21
29.5545087149
  0
LINE
 10
4.58067193436
 20
28.1294764372
 11
4.46816420264
 21
27.4385770159
  0
LINE
 10
4.46816420264
 20
27.4385770159
 11
2.2281538142
 21
27.7105635197
  0
LINE
 10
2.28425840664
 20
28.408311522
 11
2.2281538142
 21
27.7105635197
  0
LINE
 10
2.28425840664
 20
28.408311522
 11
2.2851557405
 21
28.4236796218
  0
LINE
 10
2.2851557405
 20
28.4236796218
 11
2.28649976746
 21
28.4698422689
  0
LINE
 10
2.28649976746
 20
28.4698422689
 11
2.28626645708
 21
28.5468121808
  0
LINE
 10
2.28626645708
 20
28.5468121808
 11
2.28243251855
 21
28.6545022954
  0
LINE
 10
2.28243251855
 20
28.6545022954
 11
2.27297977228
 21
28.7927258688
  0
LINE
 10
2.27297977228
 20
28.7927258688
 11
2.25589951453
 21
28.9611967533
  0
LINE
 10
2.25589951453
 20
28.9611967533
 11
2.22919686821
 21
29.1595298543
  0
LINE
 10
2.22919686821
 20
29.1595298543
 11
2.19089511271
 21
29.3872417659
  0
LINE
 10
2.19089511271
 20
29.3872417659
 11
2.13903998568
 21
29.6437515835
  0
LINE
 10
2.13903998568
 20
29.6437515835
 11
2.07170394984
 21
29.9283818933
  0
LINE
 10
0.0090680907236
 20
28.4999985574
 11
0.0094102849049
 21
28.5153890285
  0
LINE
 10
0.0094102849049
 20
28.5153890285
 11
0.011785166021
 21
28.5615101336
  0
LINE
 10
0.011785166021
 20
28.5615101336
 11
0.0182112245594
 21
28.6382116822
  0
LINE
 10
0.0182112245594
 20
28.6382116822
 11
0.0306981848069
 21
28.745244087
  0
LINE
 10
0.0306981848069
 20
28.745244087
 11
0.0512426554013
 21
28.8822588139
  0
LINE
 10
0.0512426554013
 20
28.8822588139
 11
0.0818238011466
 21
29.0488090094
  0
LINE
 10
0.0818238011466
 20
29.0488090094
 11
0.124399043113
 21
29.244350307
  0
LINE
 10
0.124399043113
 20
29.244350307
 11
0.180899793999
 21
29.4682418082
  0
LINE
 10
0.180899793999
 20
29.4682418082
 11
0.253227235697
 21
29.7197472394
  0
LINE
 10
0.253227235697
 20
29.7197472394
 11
0.343248145905
 21
29.998036281
  0
LINE
 10
2.07170394984
 20
29.9283818933
 11
2.07170394983
 21
29.9283818932
  0
LINE
 10
0.343248145905
 20
29.998036281
 11
0.343248145904
 21
29.9980362809
  0
LINE
 10
2.07170394983
 20
29.9283818932
 11
0.343248145904
 21
29.9980362809
  0
LINE
 10
0.0090680907236
 20
28.4999985574
 11
0.00884536568828
 21
27.7999985928
  0
LINE
 10
0.00884536568828
 20
27.7999985928
 11
-2.24578717999
 21
27.7091400073
  0
LINE
 10
-2.30233577804
 20
28.4068521657
 11
-2.24578717999
 21
27.7091400073
  0
LINE
 10
-2.30233577804
 20
28.4068521657
 11
-2.303915281
 21
28.4221651951
  0
LINE
 10
-2.303915281
 20
28.4221651951
 11
-2.30999366818
 21
28.4679456451
  0
LINE
 10
-2.30999366818
 20
28.4679456451
 11
-2.32257079942
 21
28.5438813913
  0
LINE
 10
-2.32257079942
 20
28.5438813913
 11
-2.34362979866
 21
28.6495619402
  0
LINE
 10
-2.34362979866
 20
28.6495619402
 11
-2.3751327548
 21
28.7844792275
  0
LINE
 10
-2.3751327548
 20
28.7844792275
 11
-2.41901645807
 21
28.9480285922
  0
LINE
 10
-2.41901645807
 20
28.9480285922
 11
-2.4771881789
 21
29.139509926
  0
LINE
 10
-2.4771881789
 20
29.139509926
 11
-2.55152149613
 21
29.3581289945
  0
LINE
 10
-2.55152149613
 20
29.3581289945
 11
-2.64385218128
 21
29.60299893
  0
LINE
 10
-2.64385218128
 20
29.60299893
 11
-2.75597414571
 21
29.8731418922
  0
LINE
 10
-4.5627706117
 20
28.1323856853
 11
-4.56490165403
 21
28.1476317457
  0
LINE
 10
-4.56490165403
 20
28.1476317457
 11
-4.56995587254
 21
28.1935365523
  0
LINE
 10
-4.56995587254
 20
28.1935365523
 11
-4.57591682343
 21
28.2702756482
  0
LINE
 10
-4.57591682343
 20
28.2702756482
 11
-4.58076077119
 21
28.3779250608
  0
LINE
 10
-4.58076077119
 20
28.3779250608
 11
-4.58246105393
 21
28.5164610478
  0
LINE
 10
-4.58246105393
 20
28.5164610478
 11
-4.57899245619
 21
28.6857600228
  0
LINE
 10
-4.57899245619
 20
28.6857600228
 11
-4.56833558243
 21
28.8855986611
  0
LINE
 10
-4.56833558243
 20
28.8855986611
 11
-4.5484812239
 21
29.1156541839
  0
LINE
 10
-4.5484812239
 20
29.1156541839
 11
-4.51743471193
 21
29.3755048234
  0
LINE
 10
-4.51743471193
 20
29.3755048234
 11
-4.47322025049
 21
29.6646304645
  0
LINE
 10
-2.75597414571
 20
29.8731418922
 11
-2.7559741457
 21
29.8731418921
  0
LINE
 10
-4.47322025049
 20
29.6646304645
 11
-4.47322025047
 21
29.6646304644
  0
LINE
 10
-2.7559741457
 20
29.8731418921
 11
-4.47322025047
 21
29.6646304644
  0
LINE
 10
-4.5627706117
 20
28.1323856853
 11
-4.45070256159
 21
27.4414148088
  0
LINE
 10
-4.45070256159
 20
27.4414148088
 11
-6.66156346587
 21
26.9900643236
  0
LINE
 10
-6.82930067544
 20
27.6696702598
 11
-6.66156346587
 21
26.9900643236
  0
LINE
 10
-6.82930067544
 20
27.6696702598
 11
-6.8333161069
 21
27.6845316194
  0
LINE
 10
-6.8333161069
 20
27.6845316194
 11
-6.84665948119
 21
27.7287441827
  0
LINE
 10
-6.84665948119
 20
27.7287441827
 11
-6.87125469219
 21
27.8016790672
  0
LINE
 10
-6.87125469219
 20
27.8016790672
 11
-6.90899333514
 21
27.9026129797
  0
LINE
 10
-6.90899333514
 20
27.9026129797
 11
-6.96173059113
 21
28.030729694
  0
LINE
 10
-6.96173059113
 20
28.030729694
 11
-7.03128117505
 21
28.1851216964
  0
LINE
 10
-7.03128117505
 20
28.1851216964
 11
-7.11941535339
 21
28.3647919969
  0
LINE
 10
-7.11941535339
 20
28.3647919969
 11
-7.22785503848
 21
28.5686561033
  0
LINE
 10
-7.22785503848
 20
28.5686561033
 11
-7.35826996549
 21
28.7955441539
  0
LINE
 10
-7.35826996549
 20
28.7955441539
 11
-7.51227395852
 21
29.0442032078
  0
LINE
 10
-9.01643595199
 20
27.0361588012
 11
-9.02098503796
 21
27.0508655859
  0
LINE
 10
-9.02098503796
 20
27.0508655859
 11
-9.03333745449
 21
27.0953651836
  0
LINE
 10
-9.03333745449
 20
27.0953651836
 11
-9.0515310293
 21
27.1701543247
  0
LINE
 10
-9.0515310293
 20
27.1701543247
 11
-9.07358042938
 21
27.2756326818
  0
LINE
 10
-9.07358042938
 20
27.2756326818
 11
-9.09748142901
 21
27.4121019196
  0
LINE
 10
-9.09748142901
 20
27.4121019196
 11
-9.12121521414
 21
27.5797649196
  0
LINE
 10
-9.12121521414
 20
27.5797649196
 11
-9.14275271602
 21
27.7787251827
  0
LINE
 10
-9.14275271602
 20
27.7787251827
 11
-9.16005896732
 21
28.0089864101
  0
LINE
 10
-9.16005896732
 20
28.0089864101
 11
-9.17109747342
 21
28.2704522627
  0
LINE
 10
-9.17109747342
 20
28.2704522627
 11
-9.17383459206
 21
28.5629263011
  0
LINE
 10
-7.51227395852
 20
29.0442032078
 11
-7.5122739585
 21
29.0442032077
  0
LINE
 10
-9.17383459206
 20
28.5629263011
 11
-9.17383459204
 21
28.562926301
  0
LINE
 10
-7.5122739585
 20
29.0442032077
 11
-9.17383459204
 21
28.562926301
  0
LINE
 10
-9.01643595199
 20
27.0361588012
 11
-8.79497963037
 21
26.3721127956
  0
LINE
 10
-8.79497963037
 20
26.3721127956
 11
-10.9048087571
 21
25.5719601511
  0
LINE
 10
-11.1793902726
 20
26.2158584283
 11
-10.9048087571
 21
25.5719601511
  0
LINE
 10
-11.1793902726
 20
26.2158584283
 11
-11.185737635
 21
26.2298832167
  0
LINE
 10
-11.185737635
 20
26.2298832167
 11
-11.20600041
 21
26.2713828112
  0
LINE
 10
-11.20600041
 20
26.2713828112
 11
-11.2419766977
 21
26.3394278588
  0
LINE
 10
-11.2419766977
 20
26.3394278588
 11
-11.2954175734
 21
26.4330009996
  0
LINE
 10
-11.2954175734
 20
26.4330009996
 11
-11.368023262
 21
26.5509989853
  0
LINE
 10
-11.368023262
 20
26.5509989853
 11
-11.461439403
 21
26.6922349535
  0
LINE
 10
-11.461439403
 20
26.6922349535
 11
-11.5772534099
 21
26.8554408544
  0
LINE
 10
-11.5772534099
 20
26.8554408544
 11
-11.7169909319
 21
27.0392700254
  0
LINE
 10
-11.7169909319
 20
27.0392700254
 11
-11.8821124227
 21
27.2422999098
  0
LINE
 10
-11.8821124227
 20
27.2422999098
 11
-12.0740098218
 21
27.4630349166
  0
LINE
 10
-13.2365803372
 20
25.2397096056
 11
-13.2434296479
 21
25.2534962166
  0
LINE
 10
-13.2434296479
 20
25.2534962166
 11
-13.2627603414
 21
25.2954380893
  0
LINE
 10
-13.2627603414
 20
25.2954380893
 11
-13.2927153361
 21
25.3663402759
  0
LINE
 10
-13.2927153361
 20
25.3663402759
 11
-13.3313991206
 21
25.4669157435
  0
LINE
 10
-13.3313991206
 20
25.4669157435
 11
-13.3768818138
 21
25.5977837506
  0
LINE
 10
-13.3768818138
 20
25.5977837506
 11
-13.4272032892
 21
25.7594683919
  0
LINE
 10
-13.4272032892
 20
25.7594683919
 11
-13.4803773567
 21
25.9523973136
  0
LINE
 10
-13.4803773567
 20
25.9523973136
 11
-13.534395995
 21
26.1769006006
  0
LINE
 10
-13.534395995
 20
26.1769006006
 11
-13.5872336277
 21
26.4332098382
  0
LINE
 10
-13.5872336277
 20
26.4332098382
 11
-13.6368514365
 21
26.7214573499
  0
LINE
 10
-12.0740098218
 20
27.4630349166
 11
-12.0740098218
 21
27.4630349165
  0
LINE
 10
-13.6368514365
 20
26.7214573499
 11
-13.6368514365
 21
26.7214573499
  0
LINE
 10
-12.0740098218
 20
27.4630349165
 11
-13.6368514365
 21
26.7214573499
  0
LINE
 10
-13.2365803372
 20
25.2397096056
 11
-12.9114713465
 21
24.6197869135
  0
LINE
 10
-12.9114713465
 20
24.6197869135
 11
-14.8656252296
 21
23.4915556431
  0
LINE
 10
-15.239939534
 20
24.0830696341
 11
-14.8656252296
 21
23.4915556431
  0
LINE
 10
-15.239939534
 20
24.0830696341
 11
-15.248454434
 21
24.0958946166
  0
LINE
 10
-15.248454434
 20
24.0958946166
 11
-15.2751118145
 21
24.1336064246
  0
LINE
 10
-15.2751118145
 20
24.1336064246
 11
-15.321537412
 21
24.1949993043
  0
LINE
 10
-15.321537412
 20
24.1949993043
 11
-15.3892964297
 21
24.2787881782
  0
LINE
 10
-15.3892964297
 20
24.2787881782
 11
-15.4798901017
 21
24.3836113494
  0
LINE
 10
-15.4798901017
 20
24.3836113494
 11
-15.5947523708
 21
24.5080333462
  0
LINE
 10
-15.5947523708
 20
24.5080333462
 11
-15.7352466843
 21
24.6505479003
  0
LINE
 10
-15.7352466843
 20
24.6505479003
 11
-15.9026629149
 21
24.8095810569
  0
LINE
 10
-15.9026629149
 20
24.8095810569
 11
-16.0982144096
 21
24.9834944078
  0
LINE
 10
-16.0982144096
 20
24.9834944078
 11
-16.3230351729
 21
25.1705884466
  0
LINE
 10
-17.1139042446
 20
22.789565189
 11
-17.1228763864
 21
22.8020745603
  0
LINE
 10
-17.1228763864
 20
22.8020745603
 11
-17.148684702
 21
22.8403724355
  0
LINE
 10
-17.148684702
 20
22.8403724355
 11
-17.189625298
 21
22.9055513384
  0
LINE
 10
-17.189625298
 20
22.9055513384
 11
-17.2439415772
 21
22.9986190647
  0
LINE
 10
-17.2439415772
 20
22.9986190647
 11
-17.3098279861
 21
23.1204964283
  0
LINE
 10
-17.3098279861
 20
23.1204964283
 11
-17.3854338521
 21
23.2720151637
  0
LINE
 10
-17.3854338521
 20
23.2720151637
 11
-17.4688673048
 21
23.4539159862
  0
LINE
 10
-17.4688673048
 20
23.4539159862
 11
-17.5581992758
 21
23.6668468157
  0
LINE
 10
-17.5581992758
 20
23.6668468157
 11
-17.6514675681
 21
23.9113611636
  0
LINE
 10
-17.6514675681
 20
23.9113611636
 11
-17.7466809918
 21
24.1879166895
  0
LINE
 10
-16.3230351729
 20
25.1705884466
 11
-16.3230351729
 21
25.1705884465
  0
LINE
 10
-17.7466809918
 20
24.1879166895
 11
-17.7466809918
 21
24.1879166894
  0
LINE
 10
-16.3230351729
 20
25.1705884465
 11
-17.7466809918
 21
24.1879166894
  0
LINE
 10
-17.1139042446
 20
22.789565189
 11
-16.6935627369
 21
22.2298214827
  0
LINE
 10
-16.6935627369
 20
22.2298214827
 11
-18.4414298172
 21
20.8027321834
  0
LINE
 10
-18.9057823666
 20
21.3265419866
 11
-18.4414298172
 21
20.8027321834
  0
LINE
 10
-18.9057823666
 20
21.3265419866
 11
-18.9162442727
 21
21.337835003
  0
LINE
 10
-18.9162442727
 20
21.337835003
 11
-18.9486058466
 21
21.3707823084
  0
LINE
 10
-18.9486058466
 20
21.3707823084
 11
-19.0042783553
 21
21.4239329769
  0
LINE
 10
-19.0042783553
 20
21.4239329769
 11
-19.084600592
 21
21.495767496
  0
LINE
 10
-19.084600592
 20
21.495767496
 11
-19.190835919
 21
21.5847009878
  0
LINE
 10
-19.190835919
 20
21.5847009878
 11
-19.3241694437
 21
21.6890865486
  0
LINE
 10
-19.3241694437
 20
21.6890865486
 11
-19.485705335
 21
21.8072187039
  0
LINE
 10
-19.485705335
 20
21.8072187039
 11
-19.6764642817
 21
21.9373369709
  0
LINE
 10
-19.6764642817
 20
21.9373369709
 11
-19.8973810993
 21
22.0776295239
  0
LINE
 10
-19.8973810993
 20
22.0776295239
 11
-20.1493024872
 21
22.2262369574
  0
LINE
 10
-20.5479870216
 20
19.7491830049
 11
-20.5588496208
 21
19.7600911503
  0
LINE
 10
-20.5588496208
 20
19.7600911503
 11
-20.5904671367
 21
19.7937531331
  0
LINE
 10
-20.5904671367
 20
19.7937531331
 11
-20.641332994
 21
19.8515206529
  0
LINE
 10
-20.641332994
 20
19.8515206529
 11
-20.7098750048
 21
19.9346702327
  0
LINE
 10
-20.7098750048
 20
19.9346702327
 11
-20.794458706
 21
20.0444003932
  0
LINE
 10
-20.794458706
 20
20.0444003932
 11
-20.8933908103
 21
20.1818289669
  0
LINE
 10
-20.8933908103
 20
20.1818289669
 11
-21.0049227657
 21
20.3479905546
  0
LINE
 10
-21.0049227657
 20
20.3479905546
 11
-21.1272544182
 21
20.5438341298
  0
LINE
 10
-21.1272544182
 20
20.5438341298
 11
-21.2585377703
 21
20.770220795
  0
LINE
 10
-21.2585377703
 20
20.770220795
 11
-21.3968808314
 21
21.0279216922
  0
LINE
 10
-20.1493024872
 20
22.2262369574
 11
-20.1493024871
 21
22.2262369573
  0
LINE
 10
-21.3968808314
 20
21.0279216922
 11
-21.3968808313
 21
21.0279216921
  0
LINE
 10
-20.1493024871
 20
22.2262369573
 11
-21.3968808313
 21
21.0279216921
  0
LINE
 10
-20.5479870216
 20
19.7491830049
 11
-20.0432996211
 21
19.2641153521
  0
LINE
 10
-20.0432996211
 20
19.2641153521
 11
-21.5396110594
 21
17.5751288874
  0
LINE
 10
-22.0819753667
 20
18.017668104
 11
-21.5396110594
 21
17.5751288874
  0
LINE
 10
-22.0819753667
 20
18.017668104
 11
-22.0941133211
 21
18.027136671
  0
LINE
 10
-22.0941133211
 20
18.027136671
 11
-22.1313409405
 21
18.0544661559
  0
LINE
 10
-22.1313409405
 20
18.0544661559
 11
-22.1948184716
 21
18.0979980388
  0
LINE
 10
-22.1948184716
 20
18.0979980388
 11
-22.2856236238
 21
18.1560177269
  0
LINE
 10
-22.2856236238
 20
18.1560177269
 11
-22.4047491665
 21
18.2267582085
  0
LINE
 10
-22.4047491665
 20
18.2267582085
 11
-22.5531006786
 21
18.3084038022
  0
LINE
 10
-22.5531006786
 20
18.3084038022
 11
-22.7314944528
 21
18.3990939979
  0
LINE
 10
-22.7314944528
 20
18.3990939979
 11
-22.9406555591
 21
18.4969273805
  0
LINE
 10
-22.9406555591
 20
18.4969273805
 11
-23.1812160701
 21
18.5999656322
  0
LINE
 10
-23.1812160701
 20
18.5999656322
 11
-23.4537134509
 21
18.7062376059
  0
LINE
 10
-23.449887728
 20
16.1973073547
 11
-23.462359449
 21
16.2063317591
  0
LINE
 10
-23.462359449
 20
16.2063317591
 11
-23.4989672881
 21
16.2344860218
  0
LINE
 10
-23.4989672881
 20
16.2344860218
 11
-23.5584410078
 21
16.28334601
  0
LINE
 10
-23.5584410078
 20
16.28334601
 11
-23.6394335482
 21
16.3544239128
  0
LINE
 10
-23.6394335482
 20
16.3544239128
 11
-23.7405238683
 21
16.4491649168
  0
LINE
 10
-23.7405238683
 20
16.4491649168
 11
-23.8602199213
 21
16.568944001
  0
LINE
 10
-23.8602199213
 20
16.568944001
 11
-23.9969617603
 21
16.7150628559
  0
LINE
 10
-23.9969617603
 20
16.7150628559
 11
-24.1491247688
 21
16.8887469312
  0
LINE
 10
-24.1491247688
 20
16.8887469312
 11
-24.3150230109
 21
17.0911426178
  0
LINE
 10
-24.3150230109
 20
17.0911426178
 11
-24.4929126967
 21
17.3233145685
  0
LINE
 10
-23.4537134509
 20
18.7062376059
 11
-23.4537134508
 21
18.7062376058
  0
LINE
 10
-24.4929126967
 20
17.3233145685
 11
-24.4929126966
 21
17.3233145684
  0
LINE
 10
-23.4537134508
 20
18.7062376058
 11
-24.4929126966
 21
17.3233145684
  0
LINE
 10
-23.449887728
 20
16.1973073547
 11
-22.8739255733
 21
15.799478753
  0
LINE
 10
-22.8739255733
 20
15.799478753
 11
-24.0799276894
 21
13.892338985
  0
LINE
 10
-24.6862568039
 20
14.2421460818
 11
-24.0799276894
 21
13.892338985
  0
LINE
 10
-24.6862568039
 20
14.2421460818
 11
-24.6997564399
 21
14.2495449685
  0
LINE
 10
-24.6997564399
 20
14.2495449685
 11
-24.7408859291
 21
14.2705488136
  0
LINE
 10
-24.7408859291
 20
14.2705488136
 11
-24.810524448
 21
14.303334458
  0
LINE
 10
-24.810524448
 20
14.303334458
 11
-24.9094607097
 21
14.3460366356
  0
LINE
 10
-24.9094607097
 20
14.3460366356
 11
-25.0383911792
 21
14.3967519656
  0
LINE
 10
-25.0383911792
 20
14.3967519656
 11
-25.1979184524
 21
14.4535430143
  0
LINE
 10
-25.1979184524
 20
14.4535430143
 11
-25.3885498046
 21
14.514442422
  0
LINE
 10
-25.3885498046
 20
14.514442422
 11
-25.6106959078
 21
14.577457087
  0
LINE
 10
-25.6106959078
 20
14.577457087
 11
-25.8646697212
 21
14.6405724006
  0
LINE
 10
-25.8646697212
 20
14.6405724006
 11
-26.1506855559
 21
14.7017565263
  0
LINE
 10
-25.74444866
 20
12.225929952
 11
-25.7582064917
 21
12.232836888
  0
LINE
 10
-25.7582064917
 20
12.232836888
 11
-25.7988565303
 21
12.2547542501
  0
LINE
 10
-25.7988565303
 20
12.2547542501
 11
-25.8653977742
 21
12.2934412588
  0
LINE
 10
-25.8653977742
 20
12.2934412588
 11
-25.9567431799
 21
12.3506066042
  0
LINE
 10
-25.9567431799
 20
12.3506066042
 11
-26.0717219327
 21
12.4279047093
  0
LINE
 10
-26.0717219327
 20
12.4279047093
 11
-26.2090818696
 21
12.5269320887
  0
LINE
 10
-26.2090818696
 20
12.5269320887
 11
-26.3674920504
 21
12.6492238093
  0
LINE
 10
-26.3674920504
 20
12.6492238093
 11
-26.5455454728
 21
12.7962500583
  0
LINE
 10
-26.5455454728
 20
12.7962500583
 11
-26.7417619276
 21
12.9694128244
  0
LINE
 10
-26.7417619276
 20
12.9694128244
 11
-26.9545909887
 21
13.170042697
  0
LINE
 10
-26.1506855559
 20
14.7017565263
 11
-26.1506855559
 21
14.7017565263
  0
LINE
 10
-26.9545909887
 20
13.170042697
 11
-26.9545909886
 21
13.1700426969
  0
LINE
 10
-26.1506855559
 20
14.7017565263
 11
-26.9545909886
 21
13.1700426969
  0
LINE
 10
-25.74444866
 20
12.225929952
 11
-25.1121288684
 21
11.9256439532
  0
LINE
 10
-25.1121288684
 20
11.9256439532
 11
-25.9965868408
 21
9.84974480019
  0
LINE
 10
-26.6511771569
 20
10.097759957
 11
-25.9965868408
 21
9.84974480019
  0
LINE
 10
-26.6511771569
 20
10.097759957
 11
-26.6656888412
 21
10.1028975362
  0
LINE
 10
-26.6656888412
 20
10.1028975362
 11
-26.709654968
 21
10.117031753
  0
LINE
 10
-26.709654968
 20
10.117031753
 11
-26.7836508735
 21
10.1382220279
  0
LINE
 10
-26.7836508735
 20
10.1382220279
 11
-26.8881558477
 21
10.1645007311
  0
LINE
 10
-26.8881558477
 20
10.1645007311
 11
-27.0235520124
 21
10.1938774091
  0
LINE
 10
-27.0235520124
 20
10.1938774091
 11
-27.1901233743
 21
10.2243430544
  0
LINE
 10
-27.1901233743
 20
10.2243430544
 11
-27.3880550525
 21
10.2538744114
  0
LINE
 10
-27.3880550525
 20
10.2538744114
 11
-27.6174326851
 21
10.2804383121
  0
LINE
 10
-27.6174326851
 20
10.2804383121
 11
-27.8782420126
 21
10.3019960343
  0
LINE
 10
-27.8782420126
 20
10.3019960343
 11
-28.1703686414
 21
10.3165076752
  0
LINE
 10
-27.3722418946
 20
7.93790738563
 11
-27.3869295165
 21
7.94251796719
  0
LINE
 10
-27.3869295165
 20
7.94251796719
 11
-27.4305689398
 21
7.9576307804
  0
LINE
 10
-27.4305689398
 20
7.9576307804
 11
-27.5024543247
 21
7.98514283634
  0
LINE
 10
-27.5024543247
 20
7.98514283634
 11
-27.6017867977
 21
8.02691507205
  0
LINE
 10
-27.6017867977
 20
8.02691507205
 11
-27.7276760939
 21
8.08476829798
  0
LINE
 10
-27.7276760939
 20
8.08476829798
 11
-27.8791423645
 21
8.16047921537
  0
LINE
 10
-27.8791423645
 20
8.16047921537
 11
-28.0551181465
 21
8.25577651029
  0
LINE
 10
-28.0551181465
 20
8.25577651029
 11
-28.2544504928
 21
8.37233703049
  0
LINE
 10
-28.2544504928
 20
8.37233703049
 11
-28.4759032572
 21
8.51178205142
  0
LINE
 10
-28.4759032572
 20
8.51178205142
 11
-28.7181595326
 21
8.6756736375
  0
LINE
 10
-28.1703686414
 20
10.3165076752
 11
-28.1703686413
 21
10.3165076752
  0
LINE
 10
-28.7181595326
 20
8.6756736375
 11
-28.7181595325
 21
8.67567363747
  0
LINE
 10
-28.1703686413
 20
10.3165076752
 11
-28.7181595325
 21
8.67567363747
  0
LINE
 10
-27.3722418946
 20
7.93790738563
 11
-26.6999412165
 21
7.74294123932
  0
LINE
 10
-26.6999412165
 20
7.74294123932
 11
-27.2399480484
 21
5.55204739888
  0
LINE
 10
-27.9258460209
 20
5.69184715353
 11
-27.2399480484
 21
5.55204739888
  0
LINE
 10
-27.9258460209
 20
5.69184715353
 11
-27.9409939082
 21
5.69459036454
  0
LINE
 10
-27.9409939082
 20
5.69459036454
 11
-27.9866579731
 21
5.70148888426
  0
LINE
 10
-27.9866579731
 20
5.70148888426
 11
-28.0630948102
 21
5.71053497264
  0
LINE
 10
-28.0630948102
 20
5.71053497264
 11
-28.1704618728
 21
5.71970959676
  0
LINE
 10
-28.1704618728
 20
5.71970959676
 11
-28.3088170434
 21
5.72698678232
  0
LINE
 10
-28.3088170434
 20
5.72698678232
 11
-28.478118383
 21
5.73033798
  0
LINE
 10
-28.478118383
 20
5.73033798
 11
-28.6782240608
 21
5.72773643963
  0
LINE
 10
-28.6782240608
 20
5.72773643963
 11
-28.9088924626
 21
5.71716158493
  0
LINE
 10
-28.9088924626
 20
5.71716158493
 11
-29.1697824797
 21
5.69660338202
  0
LINE
 10
-29.1697824797
 20
5.69660338202
 11
-29.4604539763
 21
5.66406669434
  0
LINE
 10
-28.2911084421
 20
3.44429718752
 11
-28.3063454524
 21
3.44649200302
  0
LINE
 10
-28.3063454524
 20
3.44649200302
 11
-28.3518440224
 21
3.45440885347
  0
LINE
 10
-28.3518440224
 20
3.45440885347
 11
-28.4272117546
 21
3.47003340884
  0
LINE
 10
-28.4272117546
 20
3.47003340884
 11
-28.531958636
 21
3.49533065585
  0
LINE
 10
-28.531958636
 20
3.49533065585
 11
-28.665498009
 21
3.53224063445
  0
LINE
 10
-28.665498009
 20
3.53224063445
 11
-28.8271477163
 21
3.58267421688
  0
LINE
 10
-28.8271477163
 20
3.58267421688
 11
-29.0161314193
 21
3.64850893626
  0
LINE
 10
-29.0161314193
 20
3.64850893626
 11
-29.2315800865
 21
3.73158487135
  0
LINE
 10
-29.2315800865
 20
3.73158487135
 11
-29.4725336501
 21
3.8337005943
  0
LINE
 10
-29.4725336501
 20
3.8337005943
 11
-29.7379428296
 21
3.95660918795
  0
LINE
 10
-29.4604539763
 20
5.66406669434
 11
-29.4604539762
 21
5.66406669432
  0
LINE
 10
-29.7379428296
 20
3.95660918795
 11
-29.7379428296
 21
3.95660918794
  0
LINE
 10
-29.4604539762
 20
5.66406669432
 11
-29.7379428296
 21
3.95660918794
  0
LINE
 10
-28.2911084421
 20
3.44429718752
 11
-27.596239112
 21
3.35970041449
  0
LINE
 10
-27.596239112
 20
3.35970041449
 11
-27.7778089101
 21
1.1105548863
  0
LINE
 10
-28.4772501416
 20
1.13851849854
 11
-27.7778089101
 21
1.1105548863
  0
LINE
 10
-28.4772501416
 20
1.13851849854
 11
-28.4926419098
 21
1.13879629367
  0
LINE
 10
-28.4926419098
 20
1.13879629367
 11
-28.5388212374
 21
1.13828044824
  0
LINE
 10
-28.5388212374
 20
1.13828044824
 11
-28.6157193322
 21
1.13494806121
  0
LINE
 10
-28.6157193322
 20
1.13494806121
 11
-28.7231677328
 21
1.12678098832
  0
LINE
 10
-28.7231677328
 20
1.12678098832
 11
-28.8608985829
 21
1.11177020611
  0
LINE
 10
-28.8608985829
 20
1.11177020611
 11
-29.0285450845
 21
1.08792016193
  0
LINE
 10
-29.0285450845
 20
1.08792016193
 11
-29.2256421299
 21
1.05325310274
  0
LINE
 10
-29.2256421299
 20
1.05325310274
 11
-29.4516271105
 21
1.00581337584
  0
LINE
 10
-29.4516271105
 20
1.00581337584
 11
-29.7058409027
 21
0.943671694461
  0
LINE
 10
-29.7058409027
 20
0.943671694461
 11
-29.987529028
 21
0.864929361259
  0
LINE
 10
-28.4772501416
 20
-1.13851849854
 11
-28.4926419098
 21
-1.13879629367
  0
LINE
 10
-28.4926419098
 20
-1.13879629367
 11
-28.5388212374
 21
-1.13828044824
  0
LINE
 10
-28.5388212374
 20
-1.13828044824
 11
-28.6157193322
 21
-1.13494806121
  0
LINE
 10
-28.6157193322
 20
-1.13494806121
 11
-28.7231677328
 21
-1.12678098832
  0
LINE
 10
-28.7231677328
 20
-1.12678098832
 11
-28.8608985829
 21
-1.11177020611
  0
LINE
 10
-28.8608985829
 20
-1.11177020611
 11
-29.0285450845
 21
-1.08792016193
  0
LINE
 10
-29.0285450845
 20
-1.08792016193
 11
-29.2256421299
 21
-1.05325310274
  0
LINE
 10
-29.2256421299
 20
-1.05325310274
 11
-29.4516271105
 21
-1.00581337584
  0
LINE
 10
-29.4516271105
 20
-1.00581337584
 11
-29.7058409027
 21
-0.943671694461
  0
LINE
 10
-29.7058409027
 20
-0.943671694461
 11
-29.987529028
 21
-0.864929361259
  0
LINE
 10
-29.987529028
 20
0.864929361259
 11
-29.9875290279
 21
0.864929361257
  0
LINE
 10
-29.987529028
 20
-0.864929361259
 11
-29.9875290279
 21
-0.864929361257
  0
LINE
 10
-29.9875290279
 20
0.864929361257
 11
-29.9875290279
 21
-0.864929361257
  0
LINE
 10
-28.4772501416
 20
-1.13851849854
 11
-27.7778089101
 21
-1.1105548863
  0
LINE
 10
-27.7778089101
 20
-1.1105548863
 11
-27.596239112
 21
-3.35970041449
  0
LINE
 10
-28.2911084421
 20
-3.44429718752
 11
-27.596239112
 21
-3.35970041449
  0
LINE
 10
-28.2911084421
 20
-3.44429718752
 11
-28.3063454524
 21
-3.44649200302
  0
LINE
 10
-28.3063454524
 20
-3.44649200302
 11
-28.3518440224
 21
-3.45440885347
  0
LINE
 10
-28.3518440224
 20
-3.45440885347
 11
-28.4272117546
 21
-3.47003340884
  0
LINE
 10
-28.4272117546
 20
-3.47003340884
 11
-28.531958636
 21
-3.49533065585
  0
LINE
 10
-28.531958636
 20
-3.49533065585
 11
-28.665498009
 21
-3.53224063445
  0
LINE
 10
-28.665498009
 20
-3.53224063445
 11
-28.8271477163
 21
-3.58267421688
  0
LINE
 10
-28.8271477163
 20
-3.58267421688
 11
-29.0161314193
 21
-3.64850893626
  0
LINE
 10
-29.0161314193
 20
-3.64850893626
 11
-29.2315800865
 21
-3.73158487135
  0
LINE
 10
-29.2315800865
 20
-3.73158487135
 11
-29.4725336501
 21
-3.8337005943
  0
LINE
 10
-29.4725336501
 20
-3.8337005943
 11
-29.7379428296
 21
-3.95660918795
  0
LINE
 10
-27.9258460209
 20
-5.69184715353
 11
-27.9409939082
 21
-5.69459036454
  0
LINE
 10
-27.9409939082
 20
-5.69459036454
 11
-27.9866579731
 21
-5.70148888426
  0
LINE
 10
-27.9866579731
 20
-5.70148888426
 11
-28.0630948102
 21
-5.71053497264
  0
LINE
 10
-28.0630948102
 20
-5.71053497264
 11
-28.1704618728
 21
-5.71970959676
  0
LINE
 10
-28.1704618728
 20
-5.71970959676
 11
-28.3088170434
 21
-5.72698678232
  0
LINE
 10
-28.3088170434
 20
-5.72698678232
 11
-28.478118383
 21
-5.73033798
  0
LINE
 10
-28.478118383
 20
-5.73033798
 11
-28.6782240608
 21
-5.72773643963
  0
LINE
 10
-28.6782240608
 20
-5.72773643963
 11
-28.9088924626
 21
-5.71716158493
  0
LINE
 10
-28.9088924626
 20
-5.71716158493
 11
-29.1697824797
 21
-5.69660338202
  0
LINE
 10
-29.1697824797
 20
-5.69660338202
 11
-29.4604539763
 21
-5.66406669434
  0
LINE
 10
-29.7379428296
 20
-3.95660918795
 11
-29.7379428296
 21
-3.95660918794
  0
LINE
 10
-29.4604539763
 20
-5.66406669434
 11
-29.4604539762
 21
-5.66406669432
  0
LINE
 10
-29.7379428296
 20
-3.95660918794
 11
-29.4604539762
 21
-5.66406669432
  0
LINE
 10
-27.9258460209
 20
-5.69184715353
 11
-27.2399480484
 21
-5.55204739888
  0
LINE
 10
-27.2399480484
 20
-5.55204739888
 11
-26.6999412165
 21
-7.74294123932
  0
LINE
 10
-27.3722418946
 20
-7.93790738563
 11
-26.6999412165
 21
-7.74294123932
  0
LINE
 10
-27.3722418946
 20
-7.93790738563
 11
-27.3869295165
 21
-7.94251796719
  0
LINE
 10
-27.3869295165
 20
-7.94251796719
 11
-27.4305689398
 21
-7.9576307804
  0
LINE
 10
-27.4305689398
 20
-7.9576307804
 11
-27.5024543247
 21
-7.98514283634
  0
LINE
 10
-27.5024543247
 20
-7.98514283634
 11
-27.6017867977
 21
-8.02691507205
  0
LINE
 10
-27.6017867977
 20
-8.02691507205
 11
-27.7276760939
 21
-8.08476829798
  0
LINE
 10
-27.7276760939
 20
-8.08476829798
 11
-27.8791423645
 21
-8.16047921537
  0
LINE
 10
-27.8791423645
 20
-8.16047921537
 11
-28.0551181465
 21
-8.25577651029
  0
LINE
 10
-28.0551181465
 20
-8.25577651029
 11
-28.2544504928
 21
-8.37233703049
  0
LINE
 10
-28.2544504928
 20
-8.37233703049
 11
-28.4759032572
 21
-8.51178205142
  0
LINE
 10
-28.4759032572
 20
-8.51178205142
 11
-28.7181595326
 21
-8.6756736375
  0
LINE
 10
-26.6511771569
 20
-10.097759957
 11
-26.6656888412
 21
-10.1028975362
  0
LINE
 10
-26.6656888412
 20
-10.1028975362
 11
-26.709654968
 21
-10.117031753
  0
LINE
 10
-26.709654968
 20
-10.117031753
 11
-26.7836508735
 21
-10.1382220279
  0
LINE
 10
-26.7836508735
 20
-10.1382220279
 11
-26.8881558477
 21
-10.1645007311
  0
LINE
 10
-26.8881558477
 20
-10.1645007311
 11
-27.0235520124
 21
-10.1938774091
  0
LINE
 10
-27.0235520124
 20
-10.1938774091
 11
-27.1901233743
 21
-10.2243430544
  0
LINE
 10
-27.1901233743
 20
-10.2243430544
 11
-27.3880550525
 21
-10.2538744114
  0
LINE
 10
-27.3880550525
 20
-10.2538744114
 11
-27.6174326851
 21
-10.2804383121
  0
LINE
 10
-27.6174326851
 20
-10.2804383121
 11
-27.8782420126
 21
-10.3019960343
  0
LINE
 10
-27.8782420126
 20
-10.3019960343
 11
-28.1703686414
 21
-10.3165076752
  0
LINE
 10
-28.7181595326
 20
-8.6756736375
 11
-28.7181595325
 21
-8.67567363747
  0
LINE
 10
-28.1703686414
 20
-10.3165076752
 11
-28.1703686413
 21
-10.3165076752
  0
LINE
 10
-28.7181595325
 20
-8.67567363747
 11
-28.1703686413
 21
-10.3165076752
  0
LINE
 10
-26.6511771569
 20
-10.097759957
 11
-25.9965868408
 21
-9.84974480019
  0
LINE
 10
-25.9965868408
 20
-9.84974480019
 11
-25.1121288684
 21
-11.9256439532
  0
LINE
 10
-25.74444866
 20
-12.225929952
 11
-25.1121288684
 21
-11.9256439532
  0
LINE
 10
-25.74444866
 20
-12.225929952
 11
-25.7582064917
 21
-12.232836888
  0
LINE
 10
-25.7582064917
 20
-12.232836888
 11
-25.7988565303
 21
-12.2547542501
  0
LINE
 10
-25.7988565303
 20
-12.2547542501
 11
-25.8653977742
 21
-12.2934412588
  0
LINE
 10
-25.8653977742
 20
-12.2934412588
 11
-25.9567431799
 21
-12.3506066042
  0
LINE
 10
-25.9567431799
 20
-12.3506066042
 11
-26.0717219327
 21
-12.4279047093
  0
LINE
 10
-26.0717219327
 20
-12.4279047093
 11
-26.2090818696
 21
-12.5269320887
  0
LINE
 10
-26.2090818696
 20
-12.5269320887
 11
-26.3674920504
 21
-12.6492238093
  0
LINE
 10
-26.3674920504
 20
-12.6492238093
 11
-26.5455454728
 21
-12.7962500583
  0
LINE
 10
-26.5455454728
 20
-12.7962500583
 11
-26.7417619276
 21
-12.9694128244
  0
LINE
 10
-26.7417619276
 20
-12.9694128244
 11
-26.9545909887
 21
-13.170042697
  0
LINE
 10
-24.6862568039
 20
-14.2421460818
 11
-24.6997564399
 21
-14.2495449685
  0
LINE
 10
-24.6997564399
 20
-14.2495449685
 11
-24.7408859291
 21
-14.2705488136
  0
LINE
 10
-24.7408859291
 20
-14.2705488136
 11
-24.810524448
 21
-14.303334458
  0
LINE
 10
-24.810524448
 20
-14.303334458
 11
-24.9094607097
 21
-14.3460366356
  0
LINE
 10
-24.9094607097
 20
-14.3460366356
 11
-25.0383911792
 21
-14.3967519656
  0
LINE
 10
-25.0383911792
 20
-14.3967519656
 11
-25.1979184524
 21
-14.4535430143
  0
LINE
 10
-25.1979184524
 20
-14.4535430143
 11
-25.3885498046
 21
-14.514442422
  0
LINE
 10
-25.3885498046
 20
-14.514442422
 11
-25.6106959078
 21
-14.577457087
  0
LINE
 10
-25.6106959078
 20
-14.577457087
 11
-25.8646697212
 21
-14.6405724006
  0
LINE
 10
-25.8646697212
 20
-14.6405724006
 11
-26.1506855559
 21
-14.7017565263
  0
LINE
 10
-26.9545909887
 20
-13.170042697
 11
-26.9545909886
 21
-13.1700426969
  0
LINE
 10
-26.1506855559
 20
-14.7017565263
 11
-26.1506855559
 21
-14.7017565263
  0
LINE
 10
-26.9545909886
 20
-13.1700426969
 11
-26.1506855559
 21
-14.7017565263
  0
LINE
 10
-24.6862568039
 20
-14.2421460818
 11
-24.0799276894
 21
-13.892338985
  0
LINE
 10
-24.0799276894
 20
-13.892338985
 11
-22.8739255733
 21
-15.799478753
  0
LINE
 10
-23.449887728
 20
-16.1973073547
 11
-22.8739255733
 21
-15.799478753
  0
LINE
 10
-23.449887728
 20
-16.1973073547
 11
-23.462359449
 21
-16.2063317591
  0
LINE
 10
-23.462359449
 20
-16.2063317591
 11
-23.4989672881
 21
-16.2344860218
  0
LINE
 10
-23.4989672881
 20
-16.2344860218
 11
-23.5584410078
 21
-16.28334601
  0
LINE
 10
-23.5584410078
 20
-16.28334601
 11
-23.6394335482
 21
-16.3544239128
  0
LINE
 10
-23.6394335482
 20
-16.3544239128
 11
-23.7405238683
 21
-16.4491649168
  0
LINE
 10
-23.7405238683
 20
-16.4491649168
 11
-23.8602199213
 21
-16.568944001
  0
LINE
 10
-23.8602199213
 20
-16.568944001
 11
-23.9969617603
 21
-16.7150628559
  0
LINE
 10
-23.9969617603
 20
-16.7150628559
 11
-24.1491247688
 21
-16.8887469312
  0
LINE
 10
-24.1491247688
 20
-16.8887469312
 11
-24.3150230109
 21
-17.0911426178
  0
LINE
 10
-24.3150230109
 20
-17.0911426178
 11
-24.4929126967
 21
-17.3233145685
  0
LINE
 10
-22.0819753667
 20
-18.017668104
 11
-22.0941133211
 21
-18.027136671
  0
LINE
 10
-22.0941133211
 20
-18.027136671
 11
-22.1313409405
 21
-18.0544661559
  0
LINE
 10
-22.1313409405
 20
-18.0544661559
 11
-22.1948184716
 21
-18.0979980388
  0
LINE
 10
-22.1948184716
 20
-18.0979980388
 11
-22.2856236238
 21
-18.1560177269
  0
LINE
 10
-22.2856236238
 20
-18.1560177269
 11
-22.4047491665
 21
-18.2267582085
  0
LINE
 10
-22.4047491665
 20
-18.2267582085
 11
-22.5531006786
 21
-18.3084038022
  0
LINE
 10
-22.5531006786
 20
-18.3084038022
 11
-22.7314944528
 21
-18.3990939979
  0
LINE
 10
-22.7314944528
 20
-18.3990939979
 11
-22.9406555591
 21
-18.4969273805
  0
LINE
 10
-22.9406555591
 20
-18.4969273805
 11
-23.1812160701
 21
-18.5999656322
  0
LINE
 10
-23.1812160701
 20
-18.5999656322
 11
-23.4537134509
 21
-18.7062376059
  0
LINE
 10
-24.4929126967
 20
-17.3233145685
 11
-24.4929126966
 21
-17.3233145684
  0
LINE
 10
-23.4537134509
 20
-18.7062376059
 11
-23.4537134508
 21
-18.7062376058
  0
LINE
 10
-24.4929126966
 20
-17.3233145684
 11
-23.4537134508
 21
-18.7062376058
  0
LINE
 10
-22.0819753667
 20
-18.017668104
 11
-21.5396110594
 21
-17.5751288874
  0
LINE
 10
-21.5396110594
 20
-17.5751288874
 11
-20.0432996211
 21
-19.2641153521
  0
LINE
 10
-20.5479870216
 20
-19.7491830049
 11
-20.0432996211
 21
-19.2641153521
  0
LINE
 10
-20.5479870216
 20
-19.7491830049
 11
-20.5588496208
 21
-19.7600911503
  0
LINE
 10
-20.5588496208
 20
-19.7600911503
 11
-20.5904671367
 21
-19.7937531331
  0
LINE
 10
-20.5904671367
 20
-19.7937531331
 11
-20.641332994
 21
-19.8515206529
  0
LINE
 10
-20.641332994
 20
-19.8515206529
 11
-20.7098750048
 21
-19.9346702327
  0
LINE
 10
-20.7098750048
 20
-19.9346702327
 11
-20.794458706
 21
-20.0444003932
  0
LINE
 10
-20.794458706
 20
-20.0444003932
 11
-20.8933908103
 21
-20.1818289669
  0
LINE
 10
-20.8933908103
 20
-20.1818289669
 11
-21.0049227657
 21
-20.3479905546
  0
LINE
 10
-21.0049227657
 20
-20.3479905546
 11
-21.1272544182
 21
-20.5438341298
  0
LINE
 10
-21.1272544182
 20
-20.5438341298
 11
-21.2585377703
 21
-20.770220795
  0
LINE
 10
-21.2585377703
 20
-20.770220795
 11
-21.3968808314
 21
-21.0279216922
  0
LINE
 10
-18.9057823666
 20
-21.3265419866
 11
-18.9162442727
 21
-21.337835003
  0
LINE
 10
-18.9162442727
 20
-21.337835003
 11
-18.9486058466
 21
-21.3707823084
  0
LINE
 10
-18.9486058466
 20
-21.3707823084
 11
-19.0042783553
 21
-21.4239329769
  0
LINE
 10
-19.0042783553
 20
-21.4239329769
 11
-19.084600592
 21
-21.495767496
  0
LINE
 10
-19.084600592
 20
-21.495767496
 11
-19.190835919
 21
-21.5847009878
  0
LINE
 10
-19.190835919
 20
-21.5847009878
 11
-19.3241694437
 21
-21.6890865486
  0
LINE
 10
-19.3241694437
 20
-21.6890865486
 11
-19.485705335
 21
-21.8072187039
  0
LINE
 10
-19.485705335
 20
-21.8072187039
 11
-19.6764642817
 21
-21.9373369709
  0
LINE
 10
-19.6764642817
 20
-21.9373369709
 11
-19.8973810993
 21
-22.0776295239
  0
LINE
 10
-19.8973810993
 20
-22.0776295239
 11
-20.1493024872
 21
-22.2262369574
  0
LINE
 10
-21.3968808314
 20
-21.0279216922
 11
-21.3968808313
 21
-21.0279216921
  0
LINE
 10
-20.1493024872
 20
-22.2262369574
 11
-20.1493024871
 21
-22.2262369573
  0
LINE
 10
-21.3968808313
 20
-21.0279216921
 11
-20.1493024871
 21
-22.2262369573
  0
LINE
 10
-18.9057823666
 20
-21.3265419866
 11
-18.4414298172
 21
-20.8027321834
  0
LINE
 10
-18.4414298172
 20
-20.8027321834
 11
-16.6935627369
 21
-22.2298214827
  0
LINE
 10
-17.1139042446
 20
-22.789565189
 11
-16.6935627369
 21
-22.2298214827
  0
LINE
 10
-17.1139042446
 20
-22.789565189
 11
-17.1228763864
 21
-22.8020745603
  0
LINE
 10
-17.1228763864
 20
-22.8020745603
 11
-17.148684702
 21
-22.8403724355
  0
LINE
 10
-17.148684702
 20
-22.8403724355
 11
-17.189625298
 21
-22.9055513384
  0
LINE
 10
-17.189625298
 20
-22.9055513384
 11
-17.2439415772
 21
-22.9986190647
  0
LINE
 10
-17.2439415772
 20
-22.9986190647
 11
-17.3098279861
 21
-23.1204964283
  0
LINE
 10
-17.3098279861
 20
-23.1204964283
 11
-17.3854338521
 21
-23.2720151637
  0
LINE
 10
-17.3854338521
 20
-23.2720151637
 11
-17.4688673048
 21
-23.4539159862
  0
LINE
 10
-17.4688673048
 20
-23.4539159862
 11
-17.5581992758
 21
-23.6668468157
  0
LINE
 10
-17.5581992758
 20
-23.6668468157
 11
-17.6514675681
 21
-23.9113611636
  0
LINE
 10
-17.6514675681
 20
-23.9113611636
 11
-17.7466809918
 21
-24.1879166895
  0
LINE
 10
-15.239939534
 20
-24.0830696341
 11
-15.248454434
 21
-24.0958946166
  0
LINE
 10
-15.248454434
 20
-24.0958946166
 11
-15.2751118145
 21
-24.1336064246
  0
LINE
 10
-15.2751118145
 20
-24.1336064246
 11
-15.321537412
 21
-24.1949993043
  0
LINE
 10
-15.321537412
 20
-24.1949993043
 11
-15.3892964297
 21
-24.2787881782
  0
LINE
 10
-15.3892964297
 20
-24.2787881782
 11
-15.4798901017
 21
-24.3836113494
  0
LINE
 10
-15.4798901017
 20
-24.3836113494
 11
-15.5947523708
 21
-24.5080333462
  0
LINE
 10
-15.5947523708
 20
-24.5080333462
 11
-15.7352466843
 21
-24.6505479003
  0
LINE
 10
-15.7352466843
 20
-24.6505479003
 11
-15.9026629149
 21
-24.8095810569
  0
LINE
 10
-15.9026629149
 20
-24.8095810569
 11
-16.0982144096
 21
-24.9834944078
  0
LINE
 10
-16.0982144096
 20
-24.9834944078
 11
-16.3230351729
 21
-25.1705884466
  0
LINE
 10
-17.7466809918
 20
-24.1879166895
 11
-17.7466809918
 21
-24.1879166894
  0
LINE
 10
-16.3230351729
 20
-25.1705884466
 11
-16.3230351729
 21
-25.1705884465
  0
LINE
 10
-17.7466809918
 20
-24.1879166894
 11
-16.3230351729
 21
-25.1705884465
  0
LINE
 10
-15.239939534
 20
-24.0830696341
 11
-14.8656252296
 21
-23.4915556431
  0
LINE
 10
-14.8656252296
 20
-23.4915556431
 11
-12.9114713465
 21
-24.6197869135
  0
LINE
 10
-13.2365803372
 20
-25.2397096056
 11
-12.9114713465
 21
-24.6197869135
  0
LINE
 10
-13.2365803372
 20
-25.2397096056
 11
-13.2434296479
 21
-25.2534962166
  0
LINE
 10
-13.2434296479
 20
-25.2534962166
 11
-13.2627603414
 21
-25.2954380893
  0
LINE
 10
-13.2627603414
 20
-25.2954380893
 11
-13.2927153361
 21
-25.3663402759
  0
LINE
 10
-13.2927153361
 20
-25.3663402759
 11
-13.3313991206
 21
-25.4669157435
  0
LINE
 10
-13.3313991206
 20
-25.4669157435
 11
-13.3768818138
 21
-25.5977837506
  0
LINE
 10
-13.3768818138
 20
-25.5977837506
 11
-13.4272032892
 21
-25.7594683919
  0
LINE
 10
-13.4272032892
 20
-25.7594683919
 11
-13.4803773567
 21
-25.9523973136
  0
LINE
 10
-13.4803773567
 20
-25.9523973136
 11
-13.534395995
 21
-26.1769006006
  0
LINE
 10
-13.534395995
 20
-26.1769006006
 11
-13.5872336277
 21
-26.4332098382
  0
LINE
 10
-13.5872336277
 20
-26.4332098382
 11
-13.6368514365
 21
-26.7214573499
  0
LINE
 10
-11.1793902726
 20
-26.2158584283
 11
-11.185737635
 21
-26.2298832167
  0
LINE
 10
-11.185737635
 20
-26.2298832167
 11
-11.20600041
 21
-26.2713828112
  0
LINE
 10
-11.20600041
 20
-26.2713828112
 11
-11.2419766977
 21
-26.3394278588
  0
LINE
 10
-11.2419766977
 20
-26.3394278588
 11
-11.2954175734
 21
-26.4330009996
  0
LINE
 10
-11.2954175734
 20
-26.4330009996
 11
-11.368023262
 21
-26.5509989853
  0
LINE
 10
-11.368023262
 20
-26.5509989853
 11
-11.461439403
 21
-26.6922349535
  0
LINE
 10
-11.461439403
 20
-26.6922349535
 11
-11.5772534099
 21
-26.8554408544
  0
LINE
 10
-11.5772534099
 20
-26.8554408544
 11
-11.7169909319
 21
-27.0392700254
  0
LINE
 10
-11.7169909319
 20
-27.0392700254
 11
-11.8821124227
 21
-27.2422999098
  0
LINE
 10
-11.8821124227
 20
-27.2422999098
 11
-12.0740098218
 21
-27.4630349166
  0
LINE
 10
-13.6368514365
 20
-26.7214573499
 11
-13.6368514365
 21
-26.7214573499
  0
LINE
 10
-12.0740098218
 20
-27.4630349166
 11
-12.0740098218
 21
-27.4630349165
  0
LINE
 10
-13.6368514365
 20
-26.7214573499
 11
-12.0740098218
 21
-27.4630349165
  0
LINE
 10
-11.1793902726
 20
-26.2158584283
 11
-10.9048087571
 21
-25.5719601511
  0
LINE
 10
-10.9048087571
 20
-25.5719601511
 11
-8.79497963037
 21
-26.3721127956
  0
LINE
 10
-9.01643595199
 20
-27.0361588012
 11
-8.79497963037
 21
-26.3721127956
  0
LINE
 10
-9.01643595199
 20
-27.0361588012
 11
-9.02098503796
 21
-27.0508655859
  0
LINE
 10
-9.02098503796
 20
-27.0508655859
 11
-9.03333745449
 21
-27.0953651836
  0
LINE
 10
-9.03333745449
 20
-27.0953651836
 11
-9.0515310293
 21
-27.1701543247
  0
LINE
 10
-9.0515310293
 20
-27.1701543247
 11
-9.07358042938
 21
-27.2756326818
  0
LINE
 10
-9.07358042938
 20
-27.2756326818
 11
-9.09748142901
 21
-27.4121019196
  0
LINE
 10
-9.09748142901
 20
-27.4121019196
 11
-9.12121521414
 21
-27.5797649196
  0
LINE
 10
-9.12121521414
 20
-27.5797649196
 11
-9.14275271602
 21
-27.7787251827
  0
LINE
 10
-9.14275271602
 20
-27.7787251827
 11
-9.16005896732
 21
-28.0089864101
  0
LINE
 10
-9.16005896732
 20
-28.0089864101
 11
-9.17109747342
 21
-28.2704522627
  0
LINE
 10
-9.17109747342
 20
-28.2704522627
 11
-9.17383459206
 21
-28.5629263011
  0
LINE
 10
-6.82930067544
 20
-27.6696702598
 11
-6.8333161069
 21
-27.6845316194
  0
LINE
 10
-6.8333161069
 20
-27.6845316194
 11
-6.84665948119
 21
-27.7287441827
  0
LINE
 10
-6.84665948119
 20
-27.7287441827
 11
-6.87125469219
 21
-27.8016790672
  0
LINE
 10
-6.87125469219
 20
-27.8016790672
 11
-6.90899333514
 21
-27.9026129797
  0
LINE
 10
-6.90899333514
 20
-27.9026129797
 11
-6.96173059113
 21
-28.030729694
  0
LINE
 10
-6.96173059113
 20
-28.030729694
 11
-7.03128117505
 21
-28.1851216964
  0
LINE
 10
-7.03128117505
 20
-28.1851216964
 11
-7.11941535339
 21
-28.3647919969
  0
LINE
 10
-7.11941535339
 20
-28.3647919969
 11
-7.22785503848
 21
-28.5686561033
  0
LINE
 10
-7.22785503848
 20
-28.5686561033
 11
-7.35826996549
 21
-28.7955441539
  0
LINE
 10
-7.35826996549
 20
-28.7955441539
 11
-7.51227395852
 21
-29.0442032078
  0
LINE
 10
-9.17383459206
 20
-28.5629263011
 11
-9.17383459204
 21
-28.562926301
  0
LINE
 10
-7.51227395852
 20
-29.0442032078
 11
-7.5122739585
 21
-29.0442032077
  0
LINE
 10
-9.17383459204
 20
-28.562926301
 11
-7.5122739585
 21
-29.0442032077
  0
LINE
 10
-6.82930067544
 20
-27.6696702598
 11
-6.66156346587
 21
-26.9900643236
  0
LINE
 10
-6.66156346587
 20
-26.9900643236
 11
-4.45070256159
 21
-27.4414148088
  0
LINE
 10
-4.5627706117
 20
-28.1323856853
 11
-4.45070256159
 21
-27.4414148088
  0
LINE
 10
-4.5627706117
 20
-28.1323856853
 11
-4.56490165403
 21
-28.1476317457
  0
LINE
 10
-4.56490165403
 20
-28.1476317457
 11
-4.56995587254
 21
-28.1935365523
  0
LINE
 10
-4.56995587254
 20
-28.1935365523
 11
-4.57591682343
 21
-28.2702756482
  0
LINE
 10
-4.57591682343
 20
-28.2702756482
 11
-4.58076077119
 21
-28.3779250608
  0
LINE
 10
-4.58076077119
 20
-28.3779250608
 11
-4.58246105393
 21
-28.5164610478
  0
LINE
 10
-4.58246105393
 20
-28.5164610478
 11
-4.57899245619
 21
-28.6857600228
  0
LINE
 10
-4.57899245619
 20
-28.6857600228
 11
-4.56833558243
 21
-28.8855986611
  0
LINE
 10
-4.56833558243
 20
-28.8855986611
 11
-4.5484812239
 21
-29.1156541839
  0
LINE
 10
-4.5484812239
 20
-29.1156541839
 11
-4.51743471193
 21
-29.3755048234
  0
LINE
 10
-4.51743471193
 20
-29.3755048234
 11
-4.47322025049
 21
-29.6646304645
  0
LINE
 10
-2.30233577804
 20
-28.4068521657
 11
-2.303915281
 21
-28.4221651951
  0
LINE
 10
-2.303915281
 20
-28.4221651951
 11
-2.30999366818
 21
-28.4679456451
  0
LINE
 10
-2.30999366818
 20
-28.4679456451
 11
-2.32257079942
 21
-28.5438813913
  0
LINE
 10
-2.32257079942
 20
-28.5438813913
 11
-2.34362979866
 21
-28.6495619402
  0
LINE
 10
-2.34362979866
 20
-28.6495619402
 11
-2.3751327548
 21
-28.7844792275
  0
LINE
 10
-2.3751327548
 20
-28.7844792275
 11
-2.41901645807
 21
-28.9480285922
  0
LINE
 10
-2.41901645807
 20
-28.9480285922
 11
-2.4771881789
 21
-29.139509926
  0
LINE
 10
-2.4771881789
 20
-29.139509926
 11
-2.55152149613
 21
-29.3581289945
  0
LINE
 10
-2.55152149613
 20
-29.3581289945
 11
-2.64385218128
 21
-29.60299893
  0
LINE
 10
-2.64385218128
 20
-29.60299893
 11
-2.75597414571
 21
-29.8731418922
  0
LINE
 10
-4.47322025049
 20
-29.6646304645
 11
-4.47322025047
 21
-29.6646304644
  0
LINE
 10
-2.75597414571
 20
-29.8731418922
 11
-2.7559741457
 21
-29.8731418921
  0
LINE
 10
-4.47322025047
 20
-29.6646304644
 11
-2.7559741457
 21
-29.8731418921
  0
LINE
 10
-2.30233577804
 20
-28.4068521657
 11
-2.24578717999
 21
-27.7091400073
  0
LINE
 10
-2.24578717999
 20
-27.7091400073
 11
0.0088453656883
 21
-27.7999985928
  0
LINE
 10
0.00906809072361
 20
-28.4999985574
 11
0.0088453656883
 21
-27.7999985928
  0
LINE
 10
0.00906809072361
 20
-28.4999985574
 11
0.00941028490491
 21
-28.5153890285
  0
LINE
 10
0.00941028490491
 20
-28.5153890285
 11
0.011785166021
 21
-28.5615101336
  0
LINE
 10
0.011785166021
 20
-28.5615101336
 11
0.0182112245594
 21
-28.6382116822
  0
LINE
 10
0.0182112245594
 20
-28.6382116822
 11
0.0306981848069
 21
-28.745244087
  0
LINE
 10
0.0306981848069
 20
-28.745244087
 11
0.0512426554013
 21
-28.8822588139
  0
LINE
 10
0.0512426554013
 20
-28.8822588139
 11
0.0818238011466
 21
-29.0488090094
  0
LINE
 10
0.0818238011466
 20
-29.0488090094
 11
0.124399043113
 21
-29.244350307
  0
LINE
 10
0.124399043113
 20
-29.244350307
 11
0.180899793999
 21
-29.4682418082
  0
LINE
 10
0.180899793999
 20
-29.4682418082
 11
0.253227235697
 21
-29.7197472394
  0
LINE
 10
0.253227235697
 20
-29.7197472394
 11
0.343248145905
 21
-29.998036281
  0
LINE
 10
2.28425840664
 20
-28.408311522
 11
2.2851557405
 21
-28.4236796218
  0
LINE
 10
2.2851557405
 20
-28.4236796218
 11
2.28649976746
 21
-28.4698422689
  0
LINE
 10
2.28649976746
 20
-28.4698422689
 11
2.28626645708
 21
-28.5468121808
  0
LINE
 10
2.28626645708
 20
-28.5468121808
 11
2.28243251855
 21
-28.6545022954
  0
LINE
 10
2.28243251855
 20
-28.6545022954
 11
2.27297977228
 21
-28.7927258688
  0
LINE
 10
2.27297977228
 20
-28.7927258688
 11
2.25589951453
 21
-28.9611967533
  0
LINE
 10
2.25589951453
 20
-28.9611967533
 11
2.22919686821
 21
-29.1595298543
  0
LINE
 10
2.22919686821
 20
-29.1595298543
 11
2.19089511271
 21
-29.3872417659
  0
LINE
 10
2.19089511271
 20
-29.3872417659
 11
2.13903998568
 21
-29.6437515835
  0
LINE
 10
2.13903998568
 20
-29.6437515835
 11
2.07170394984
 21
-29.9283818933
  0
LINE
 10
0.343248145905
 20
-29.998036281
 11
0.343248145904
 21
-29.9980362809
  0
LINE
 10
2.07170394984
 20
-29.9283818933
 11
2.07170394983
 21
-29.9283818932
  0
LINE
 10
0.343248145904
 20
-29.9980362809
 11
2.07170394983
 21
-29.9283818932
  0
LINE
 10
2.28425840664
 20
-28.408311522
 11
2.2281538142
 21
-27.7105635197
  0
LINE
 10
2.2281538142
 20
-27.7105635197
 11
4.46816420264
 21
-27.4385770159
  0
LINE
 10
4.58067193436
 20
-28.1294764372
 11
4.46816420264
 21
-27.4385770159
  0
LINE
 10
4.58067193436
 20
-28.1294764372
 11
4.58347850241
 21
-28.1446127139
  0
LINE
 10
4.58347850241
 20
-28.1446127139
 11
4.59322097497
 21
-28.1897556051
  0
LINE
 10
4.59322097497
 20
-28.1897556051
 11
4.61186761139
 21
-28.2644330765
  0
LINE
 10
4.61186761139
 20
-28.2644330765
 11
4.64136207394
 21
-28.3680763905
  0
LINE
 10
4.64136207394
 20
-28.3680763905
 11
4.68361920687
 21
-28.5000212478
  0
LINE
 10
4.68361920687
 20
-28.5000212478
 11
4.74052086501
 21
-28.6595091013
  0
LINE
 10
4.74052086501
 20
-28.6595091013
 11
4.81391179878
 21
-28.8456886414
  0
LINE
 10
4.81391179878
 20
-28.8456886414
 11
4.90559560226
 21
-29.0576174486
  0
LINE
 10
4.90559560226
 20
-29.0576174486
 11
5.01733073094
 21
-29.2942638129
  0
LINE
 10
5.01733073094
 20
-29.2942638129
 11
5.15082659562
 21
-29.554508715
  0
LINE
 10
6.81169149846
 20
-27.6740105321
 11
6.81504242865
 21
-27.6890356765
  0
LINE
 10
6.81504242865
 20
-27.6890356765
 11
6.82377406016
 21
-27.7343849324
  0
LINE
 10
6.82377406016
 20
-27.7343849324
 11
6.83589061325
 21
-27.8103955298
  0
LINE
 10
6.83589061325
 20
-27.8103955298
 11
6.84938103244
 21
-27.9173060927
  0
LINE
 10
6.84938103244
 20
-27.9173060927
 11
6.8622233172
 21
-28.0552560342
  0
LINE
 10
6.8622233172
 20
-28.0552560342
 11
6.87238887466
 21
-28.224285131
  0
LINE
 10
6.87238887466
 20
-28.224285131
 11
6.87784688738
 21
-28.4243332762
  0
LINE
 10
6.87784688738
 20
-28.4243332762
 11
6.87656868896
 21
-28.655240412
  0
LINE
 10
6.87656868896
 20
-28.655240412
 11
6.8665321406
 21
-28.9167466422
  0
LINE
 10
6.8665321406
 20
-28.9167466422
 11
6.84572600129
 21
-29.2084925239
  0
LINE
 10
5.15082659562
 20
-29.554508715
 11
5.1508265956
 21
-29.5545087149
  0
LINE
 10
6.84572600129
 20
-29.2084925239
 11
6.84572600127
 21
-29.2084925238
  0
LINE
 10
5.1508265956
 20
-29.5545087149
 11
6.84572600127
 21
-29.2084925238
  0
LINE
 10
6.81169149846
 20
-27.6740105321
 11
6.64438679499
 21
-26.9942979927
  0
LINE
 10
6.64438679499
 20
-26.9942979927
 11
8.81175993376
 21
-26.3665107071
  0
LINE
 10
9.03363878102
 20
-27.030415653
 11
8.81175993376
 21
-26.3665107071
  0
LINE
 10
9.03363878102
 20
-27.030415653
 11
9.03883703428
 21
-27.0449057138
  0
LINE
 10
9.03883703428
 20
-27.0449057138
 11
9.05569477338
 21
-27.0879012139
  0
LINE
 10
9.05569477338
 20
-27.0879012139
 11
9.0860790496
 21
-27.1586205008
  0
LINE
 10
9.0860790496
 20
-27.1586205008
 11
9.13181712336
 21
-27.2561904166
  0
LINE
 10
9.13181712336
 20
-27.2561904166
 11
9.19469248107
 21
-27.3796481018
  0
LINE
 10
9.19469248107
 20
-27.3796481018
 11
9.27644092855
 21
-27.5279429617
  0
LINE
 10
9.27644092855
 20
-27.5279429617
 11
9.37874676749
 21
-27.6999387919
  0
LINE
 10
9.37874676749
 20
-27.6999387919
 11
9.50323906122
 21
-27.8944160604
  0
LINE
 10
9.50323906122
 20
-27.8944160604
 11
9.65148799573
 21
-28.1100743413
  0
LINE
 10
9.65148799573
 20
-28.1100743413
 11
9.82500134211
 21
-28.3455348976
  0
LINE
 10
11.1627053585
 20
-26.2229672059
 11
11.1684230977
 21
-26.2372602516
  0
LINE
 10
11.1684230977
 20
-26.2372602516
 11
11.1843161891
 21
-26.2806215943
  0
LINE
 10
11.1843161891
 20
-26.2806215943
 11
11.2084687933
 21
-26.3537042427
  0
LINE
 10
11.2084687933
 20
-26.3537042427
 11
11.2389341754
 21
-26.4570663264
  0
LINE
 10
11.2389341754
 20
-26.4570663264
 11
11.2737388828
 21
-26.5911698051
  0
LINE
 10
11.2737388828
 20
-26.5911698051
 11
11.3108869728
 21
-26.7563793494
  0
LINE
 10
11.3108869728
 20
-26.7563793494
 11
11.3483642849
 21
-26.9529613968
  0
LINE
 10
11.3483642849
 20
-26.9529613968
 11
11.3841427483
 21
-27.1810833833
  0
LINE
 10
11.3841427483
 20
-27.1810833833
 11
11.4161847199
 21
-27.440813152
  0
LINE
 10
11.4161847199
 20
-27.440813152
 11
11.4424473452
 21
-27.7321185407
  0
LINE
 10
9.82500134211
 20
-28.3455348976
 11
9.82500134208
 21
-28.3455348975
  0
LINE
 10
11.4424473452
 20
-27.7321185407
 11
11.4424473452
 21
-27.7321185407
  0
LINE
 10
9.82500134208
 20
-28.3455348975
 11
11.4424473452
 21
-27.7321185407
  0
LINE
 10
11.1627053585
 20
-26.2229672059
 11
10.8885336479
 21
-25.5788943271
  0
LINE
 10
10.8885336479
 20
-25.5788943271
 11
12.9271357112
 21
-24.6115656207
  0
LINE
 10
13.2526391284
 20
-25.2312813018
 11
12.9271357112
 21
-24.6115656207
  0
LINE
 10
13.2526391284
 20
-25.2312813018
 11
13.2600944349
 21
-25.2447498617
  0
LINE
 10
13.2600944349
 20
-25.2447498617
 11
13.2836308339
 21
-25.2844844098
  0
LINE
 10
13.2836308339
 20
-25.2844844098
 11
13.3249658131
 21
-25.3494139198
  0
LINE
 10
13.3249658131
 20
-25.3494139198
 11
13.385762906
 21
-25.4383834279
  0
LINE
 10
13.385762906
 20
-25.4383834279
 11
13.4676280498
 21
-25.5501564519
  0
LINE
 10
13.4676280498
 20
-25.5501564519
 11
13.5721060447
 21
-25.683417559
  0
LINE
 10
13.5721060447
 20
-25.683417559
 11
13.7006771214
 21
-25.8367750778
  0
LINE
 10
13.7006771214
 20
-25.8367750778
 11
13.8547536203
 21
-26.0087639484
  0
LINE
 10
13.8547536203
 20
-26.0087639484
 11
14.0356767911
 21
-26.1978487098
  0
LINE
 10
14.0356767911
 20
-26.1978487098
 11
14.2447137147
 21
-26.4024266156
  0
LINE
 10
15.2246110132
 20
-24.0927628033
 11
15.232547475
 21
-24.105953568
  0
LINE
 10
15.232547475
 20
-24.105953568
 11
15.2551904035
 21
-24.1462039615
  0
LINE
 10
15.2551904035
 20
-24.1462039615
 11
15.2907535191
 21
-24.2144658586
  0
LINE
 10
15.2907535191
 20
-24.2144658586
 11
15.3374048268
 21
-24.3116024396
  0
LINE
 10
15.3374048268
 20
-24.3116024396
 11
15.3932705331
 21
-24.4383862457
  0
LINE
 10
15.3932705331
 20
-24.4383862457
 11
15.4564390398
 21
-24.5954973971
  0
LINE
 10
15.4564390398
 20
-24.5954973971
 11
15.5249650085
 21
-24.783521975
  0
LINE
 10
15.5249650085
 20
-24.783521975
 11
15.5968734902
 21
-25.0029505726
  0
LINE
 10
15.5968734902
 20
-25.0029505726
 11
15.6701641116
 21
-25.2541770153
  0
LINE
 10
15.6701641116
 20
-25.2541770153
 11
15.7428153133
 21
-25.5374972543
  0
LINE
 10
14.2447137147
 20
-26.4024266156
 11
14.2447137146
 21
-26.4024266155
  0
LINE
 10
15.7428153133
 20
-25.5374972543
 11
15.7428153133
 21
-25.5374972543
  0
LINE
 10
14.2447137146
 20
-26.4024266155
 11
15.7428153133
 21
-25.5374972543
  0
LINE
 10
15.2246110132
 20
-24.0927628033
 11
14.8506731989
 21
-23.5010107344
  0
LINE
 10
14.8506731989
 20
-23.5010107344
 11
16.707705464
 21
-22.2191939126
  0
LINE
 10
17.1284030836
 20
-22.7786700183
 11
16.707705464
 21
-22.2191939126
  0
LINE
 10
17.1284030836
 20
-22.7786700183
 11
17.1379223548
 21
-22.7907682486
  0
LINE
 10
17.1379223548
 20
-22.7907682486
 11
17.1675278334
 21
-22.8262127408
  0
LINE
 10
17.1675278334
 20
-22.8262127408
 11
17.2187429613
 21
-22.8836708338
  0
LINE
 10
17.2187429613
 20
-22.8836708338
 11
17.2930244606
 21
-22.9617356706
  0
LINE
 10
17.2930244606
 20
-22.9617356706
 11
17.3917591262
 21
-23.0589291707
  0
LINE
 10
17.3917591262
 20
-23.0589291707
 11
17.5162607435
 21
-23.1737051325
  0
LINE
 10
17.5162607435
 20
-23.1737051325
 11
17.6677671344
 21
-23.3044524606
  0
LINE
 10
17.6677671344
 20
-23.3044524606
 11
17.8474373382
 21
-23.449498512
  0
LINE
 10
17.8474373382
 20
-23.449498512
 11
18.0563489302
 21
-23.6071125577
  0
LINE
 10
18.0563489302
 20
-23.6071125577
 11
18.2954954844
 21
-23.7755093528
  0
LINE
 10
18.8922072398
 20
-21.3385684995
 11
18.902156874
 21
-21.3503153493
  0
LINE
 10
18.902156874
 20
-21.3503153493
 11
18.9309631997
 21
-21.3864123296
  0
LINE
 10
18.9309631997
 20
-21.3864123296
 11
18.9770157606
 21
-21.4480855281
  0
LINE
 10
18.9770157606
 20
-21.4480855281
 11
19.0386447495
 21
-21.5364808198
  0
LINE
 10
19.0386447495
 20
-21.5364808198
 11
19.1141245623
 21
-21.6526613195
  0
LINE
 10
19.1141245623
 20
-21.6526613195
 11
19.2016774545
 21
-21.7976049817
  0
LINE
 10
19.2016774545
 20
-21.7976049817
 11
19.2994772933
 21
-21.9722023522
  0
LINE
 10
19.2994772933
 20
-21.9722023522
 11
19.4056534014
 21
-22.1772544754
  0
LINE
 10
19.4056534014
 20
-22.1772544754
 11
19.518294484
 21
-22.4134709593
  0
LINE
 10
19.518294484
 20
-22.4134709593
 11
19.6354526342
 21
-22.6814682033
  0
LINE
 10
18.2954954844
 20
-23.7755093528
 11
18.2954954844
 21
-23.7755093527
  0
LINE
 10
19.6354526342
 20
-22.6814682033
 11
19.6354526341
 21
-22.6814682032
  0
LINE
 10
18.2954954844
 20
-23.7755093527
 11
19.6354526341
 21
-22.6814682032
  0
LINE
 10
18.8922072398
 20
-21.3385684995
 11
18.4281881147
 21
-20.8144633083
  0
LINE
 10
18.4281881147
 20
-20.8144633083
 11
20.0555544215
 21
-19.2513567534
  0
LINE
 10
20.5605503961
 20
-19.7361031465
 11
20.0555544215
 21
-19.2513567534
  0
LINE
 10
20.5605503961
 20
-19.7361031465
 11
20.5718870878
 21
-19.7465177093
  0
LINE
 10
20.5718870878
 20
-19.7465177093
 11
20.6067948797
 21
-19.776754152
  0
LINE
 10
20.6067948797
 20
-19.776754152
 11
20.6665637115
 21
-19.8252526935
  0
LINE
 10
20.6665637115
 20
-19.8252526935
 11
20.7524057653
 21
-19.8903910206
  0
LINE
 10
20.7524057653
 20
-19.8903910206
 11
20.8654527767
 21
-19.9704877363
  0
LINE
 10
20.8654527767
 20
-19.9704877363
 11
21.0067534898
 21
-20.0638059157
  0
LINE
 10
21.0067534898
 20
-20.0638059157
 11
21.1772712591
 21
-20.1685567659
  0
LINE
 10
21.1772712591
 20
-20.1685567659
 11
21.3778818039
 21
-20.2829033815
  0
LINE
 10
21.3778818039
 20
-20.2829033815
 11
21.6093711166
 21
-20.4049645907
  0
LINE
 10
21.6093711166
 20
-20.4049645907
 11
21.8724335313
 21
-20.5328188864
  0
LINE
 10
22.0705052226
 20
-18.0317164801
 11
22.0822103387
 21
-18.0417151778
  0
LINE
 10
22.0822103387
 20
-18.0417151778
 11
22.116433993
 21
-18.0727238521
  0
LINE
 10
22.116433993
 20
-18.0727238521
 11
22.1717832621
 21
-18.1262110486
  0
LINE
 10
22.1717832621
 20
-18.1262110486
 11
22.2467937737
 21
-18.2035756595
  0
LINE
 10
22.2467937737
 20
-18.2035756595
 11
22.3399328056
 21
-18.3061438387
  0
LINE
 10
22.3399328056
 20
-18.3061438387
 11
22.4496025093
 21
-18.4351660469
  0
LINE
 10
22.4496025093
 20
-18.4351660469
 11
22.5741432537
 21
-18.59181423
  0
LINE
 10
22.5741432537
 20
-18.59181423
 11
22.7118370828
 21
-18.7771791366
  0
LINE
 10
22.7118370828
 20
-18.7771791366
 11
22.8609112817
 21
-18.9922677786
  0
LINE
 10
22.8609112817
 20
-18.9922677786
 11
23.0195420458
 21
-19.2380010398
  0
LINE
 10
21.8724335313
 20
-20.5328188864
 11
21.8724335313
 21
-20.5328188864
  0
LINE
 10
23.0195420458
 20
-19.2380010398
 11
23.0195420457
 21
-19.2380010398
  0
LINE
 10
21.8724335313
 20
-20.5328188864
 11
23.0195420457
 21
-19.2380010398
  0
LINE
 10
22.0705052226
 20
-18.0317164801
 11
21.5284226382
 21
-17.5888322157
  0
LINE
 10
21.5284226382
 20
-17.5888322157
 11
22.8839750542
 21
-15.7849195665
  0
LINE
 10
23.4601902534
 20
-16.18238157
 11
22.8839750542
 21
-15.7849195665
  0
LINE
 10
23.4601902534
 20
-16.18238157
 11
23.4730507512
 21
-16.1908427338
  0
LINE
 10
23.4730507512
 20
-16.1908427338
 11
23.5123567628
 21
-16.2150880188
  0
LINE
 10
23.5123567628
 20
-16.2150880188
 11
23.5791313171
 21
-16.2533709221
  0
LINE
 10
23.5791313171
 20
-16.2533709221
 11
23.6743106614
 21
-16.3038956912
  0
LINE
 10
23.6743106614
 20
-16.3038956912
 11
23.7987421604
 21
-16.3648211595
  0
LINE
 10
23.7987421604
 20
-16.3648211595
 11
23.9531823551
 21
-16.4342646646
  0
LINE
 10
23.9531823551
 20
-16.4342646646
 11
24.1382951822
 21
-16.5103060451
  0
LINE
 10
24.1382951822
 20
-16.5103060451
 11
24.3546503601
 21
-16.5909917076
  0
LINE
 10
24.3546503601
 20
-16.5909917076
 11
24.6027219419
 21
-16.6743387591
  0
LINE
 10
24.6027219419
 20
-16.6743387591
 11
24.8828870388
 21
-16.7583391963
  0
LINE
 10
24.6771887131
 20
-14.2578524756
 11
24.690346155
 21
-14.26584406
  0
LINE
 10
24.690346155
 20
-14.26584406
 11
24.7291007631
 21
-14.2909613199
  0
LINE
 10
24.7291007631
 20
-14.2909613199
 11
24.7923132234
 21
-14.3348772242
  0
LINE
 10
24.7923132234
 20
-14.3348772242
 11
24.8787625249
 21
-14.3992074514
  0
LINE
 10
24.8787625249
 20
-14.3992074514
 11
24.9871485238
 21
-14.4855068483
  0
LINE
 10
24.9871485238
 20
-14.4855068483
 11
25.1160946513
 21
-14.5952659952
  0
LINE
 10
25.1160946513
 20
-14.5952659952
 11
25.2641507615
 21
-14.7299078851
  0
LINE
 10
25.2641507615
 20
-14.7299078851
 11
25.4297961138
 21
-14.8907847213
  0
LINE
 10
25.4297961138
 20
-14.8907847213
 11
25.6114424855
 21
-15.0791748387
  0
LINE
 10
25.6114424855
 20
-15.0791748387
 11
25.80743741
 21
-15.2962797547
  0
LINE
 10
24.8828870388
 20
-16.7583391963
 11
24.8828870387
 21
-16.7583391963
  0
LINE
 10
25.80743741
 20
-15.2962797547
 11
25.80743741
 21
-15.2962797546
  0
LINE
 10
24.8828870387
 20
-16.7583391963
 11
25.80743741
 21
-15.2962797546
  0
LINE
 10
24.6771887131
 20
-14.2578524756
 11
24.0710823237
 21
-13.9076596078
  0
LINE
 10
24.0710823237
 20
-13.9076596078
 11
25.1197127533
 21
-11.9096612543
  0
LINE
 10
25.7522235061
 20
-12.209544811
 11
25.1197127533
 21
-11.9096612543
  0
LINE
 10
25.7522235061
 20
-12.209544811
 11
25.76627473
 21
-12.215833436
  0
LINE
 10
25.76627473
 20
-12.215833436
 11
25.8089609563
 21
-12.2334596233
  0
LINE
 10
25.8089609563
 20
-12.2334596233
 11
25.8810118072
 21
-12.2605353813
  0
LINE
 10
25.8810118072
 20
-12.2605353813
 11
25.9830633469
 21
-12.2951380274
  0
LINE
 10
25.9830633469
 20
-12.2951380274
 11
26.1156566231
 21
-12.3353143107
  0
LINE
 10
26.1156566231
 20
-12.3353143107
 11
26.2792363794
 21
-12.3790845913
  0
LINE
 10
26.2792363794
 20
-12.3790845913
 11
26.4741499392
 21
-12.4244470701
  0
LINE
 10
26.4741499392
 20
-12.4244470701
 11
26.7006462649
 21
-12.4693820633
  0
LINE
 10
26.7006462649
 20
-12.4693820633
 11
26.9588751922
 21
-12.5118563121
  0
LINE
 10
26.9588751922
 20
-12.5118563121
 11
27.2488868424
 21
-12.5498273238
  0
LINE
 10
26.6447459784
 20
-10.1147175813
 11
26.6590149751
 21
-10.1204950747
  0
LINE
 10
26.6590149751
 20
-10.1204950747
 11
26.701296813
 21
-10.1390703963
  0
LINE
 10
26.701296813
 20
-10.1390703963
 11
26.770735295
 21
-10.1722776094
  0
LINE
 10
26.770735295
 20
-10.1722776094
 11
26.866384395
 21
-10.2219073339
  0
LINE
 10
26.866384395
 20
-10.2219073339
 11
26.9872102204
 21
-10.2897028393
  0
LINE
 10
26.9872102204
 20
-10.2897028393
 11
27.1320931347
 21
-10.3773562206
  0
LINE
 10
27.1320931347
 20
-10.3773562206
 11
27.2998300352
 21
-10.4865046631
  0
LINE
 10
27.2998300352
 20
-10.4865046631
 11
27.4891367831
 21
-10.6187268034
  0
LINE
 10
27.4891367831
 20
-10.6187268034
 11
27.698650782
 21
-10.7755391912
  0
LINE
 10
27.698650782
 20
-10.7755391912
 11
27.9269337014
 21
-10.9583928586
  0
LINE
 10
27.2488868424
 20
-12.5498273238
 11
27.2488868423
 21
-12.5498273237
  0
LINE
 10
27.9269337014
 20
-10.9583928586
 11
27.9269337013
 21
-10.9583928586
  0
LINE
 10
27.2488868423
 20
-12.5498273237
 11
27.9269337013
 21
-10.9583928586
  0
LINE
 10
26.6447459784
 20
-10.1147175813
 11
25.990313621
 21
-9.86628592137
  0
LINE
 10
25.990313621
 20
-9.86628592137
 11
26.7048630869
 21
-7.72594897142
  0
LINE
 10
27.377287697
 20
-7.92048725487
 11
26.7048630869
 21
-7.72594897142
  0
LINE
 10
27.377287697
 20
-7.92048725487
 11
27.3921657277
 21
-7.92444046901
  0
LINE
 10
27.3921657277
 20
-7.92444046901
 11
27.4371266178
 21
-7.93499104957
  0
LINE
 10
27.4371266178
 20
-7.93499104957
 11
27.5125876862
 21
-7.95015841429
  0
LINE
 10
27.5125876862
 20
-7.95015841429
 11
27.61886834
 21
-7.96794274705
  0
LINE
 10
27.61886834
 20
-7.96794274705
 11
27.7561892972
 21
-7.98632930077
  0
LINE
 10
27.7561892972
 20
-7.98632930077
 11
27.9246719853
 21
-8.00329272944
  0
LINE
 10
27.9246719853
 20
-8.00329272944
 11
28.1243381191
 21
-8.01680144233
  0
LINE
 10
28.1243381191
 20
-8.01680144233
 11
28.3551094566
 21
-8.02482197343
  0
LINE
 10
28.3551094566
 20
-8.02482197343
 11
28.6168077358
 21
-8.02532335893
  0
LINE
 10
28.6168077358
 20
-8.02532335893
 11
28.9091547899
 21
-8.01628151564
  0
LINE
 10
27.9222183186
 20
-5.70961681458
 11
27.9372293107
 21
-5.7130305829
  0
LINE
 10
27.9372293107
 20
-5.7130305829
 11
27.9819433011
 21
-5.72458287526
  0
LINE
 10
27.9819433011
 20
-5.72458287526
 11
28.0558093846
 21
-5.74622134781
  0
LINE
 10
28.0558093846
 20
-5.74622134781
 11
28.1581810214
 21
-5.77986518578
  0
LINE
 10
28.1581810214
 20
-5.77986518578
 11
28.288317348
 21
-5.82740093181
  0
LINE
 10
28.288317348
 20
-5.82740093181
 11
28.4453846578
 21
-5.89067837096
  0
LINE
 10
28.4453846578
 20
-5.89067837096
 11
28.628458051
 21
-5.97150647876
  0
LINE
 10
28.628458051
 20
-5.97150647876
 11
28.836523249
 21
-6.07164943917
  0
LINE
 10
28.836523249
 20
-6.07164943917
 11
29.0684785727
 21
-6.19282273878
  0
LINE
 10
29.0684785727
 20
-6.19282273878
 11
29.3231370792
 21
-6.33668934371
  0
LINE
 10
28.9091547899
 20
-8.01628151564
 11
28.9091547898
 21
-8.01628151562
  0
LINE
 10
29.3231370792
 20
-6.33668934371
 11
29.3231370791
 21
-6.33668934369
  0
LINE
 10
28.9091547898
 20
-8.01628151562
 11
29.3231370791
 21
-6.33668934369
  0
LINE
 10
27.9222183186
 20
-5.70961681458
 11
27.2364094476
 21
-5.56938061211
  0
LINE
 10
27.2364094476
 20
-5.56938061211
 11
27.598371494
 21
-3.34213866846
  0
LINE
 10
28.2932945172
 20
-3.42629323925
 11
27.598371494
 21
-3.34213866846
  0
LINE
 10
28.2932945172
 20
-3.42629323925
 11
28.3086140215
 21
-3.42780865635
  0
LINE
 10
28.3086140215
 20
-3.42780865635
 11
28.354685112
 21
-3.43101037569
  0
LINE
 10
28.354685112
 20
-3.43101037569
 11
28.4316019957
 21
-3.43387652039
  0
LINE
 10
28.4316019957
 20
-3.43387652039
 11
28.5393591506
 21
-3.4343819349
  0
LINE
 10
28.5393591506
 20
-3.4343819349
 11
28.6778512481
 21
-3.43050255695
  0
LINE
 10
28.6778512481
 20
-3.43050255695
 11
28.846873255
 21
-3.42021978986
  0
LINE
 10
28.846873255
 20
-3.42021978986
 11
29.0461207147
 21
-3.40152486821
  0
LINE
 10
29.0461207147
 20
-3.40152486821
 11
29.2751902077
 21
-3.3724232097
  0
LINE
 10
29.2751902077
 20
-3.3724232097
 11
29.5335799908
 21
-3.33093874622
  0
LINE
 10
29.5335799908
 20
-3.33093874622
 11
29.8206908137
 21
-3.27511822703
  0
LINE
 10
28.4765198712
 20
-1.15663997151
 11
28.4918840819
 21
-1.15760159996
  0
LINE
 10
28.4918840819
 20
-1.15760159996
 11
28.5378721558
 21
-1.1618316647
  0
LINE
 10
28.5378721558
 20
-1.1618316647
 11
28.614252748
 21
-1.17134097166
  0
LINE
 10
28.614252748
 20
-1.17134097166
 11
28.7206955502
 21
-1.18812756536
  0
LINE
 10
28.7206955502
 20
-1.18812756536
 11
28.8567719155
 21
-1.21417240114
  0
LINE
 10
28.8567719155
 20
-1.21417240114
 11
29.02195566
 21
-1.25143504572
  0
LINE
 10
29.02195566
 20
-1.25143504572
 11
29.215624041
 21
-1.30184941326
  0
LINE
 10
29.215624041
 20
-1.30184941326
 11
29.43705891
 21
-1.36731954372
  0
LINE
 10
29.43705891
 20
-1.36731954372
 11
29.6854480373
 21
-1.44971543035
  0
LINE
 10
29.6854480373
 20
-1.44971543035
 11
29.9598866094
 21
-1.55086890332
  0
LINE
 10
29.8206908137
 20
-3.27511822703
 11
29.8206908136
 21
-3.27511822702
  0
LINE
 10
29.9598866094
 20
-1.55086890332
 11
29.9598866093
 21
-1.55086890332
  0
LINE
 10
29.8206908136
 20
-3.27511822702
 11
29.9598866093
 21
-1.55086890332
  0
ENDSEC
  0
EOF
