  999
file created by gear template generator
  0
SECTION
  2
HEADER
  9
$ACADVER
  1
AC1006
  9
$INSBASE
  10
0.0
  20
0.0
  30
0.0
  9
$EXTMIN
  10
0.0
  20
0.0
  9
$EXTMAX
  10
10000.0
  20
10000.0
  0
ENDSEC
  0
SECTION
  2
ENTITIES
  0
LINE
  8
0
  10
59.43262
  20
30.47602
  30
0
  11
59.4699
  21
30.46755
  31
0
  0
LINE
  8
0
  10
59.4699
  20
30.46755
  30
0
  11
59.50717
  21
30.45884
  31
0
  0
LINE
  8
0
  10
59.50717
  20
30.45884
  30
0
  11
59.54444
  21
30.44988
  31
0
  0
LINE
  8
0
  10
59.54444
  20
30.44988
  30
0
  11
59.5817
  21
30.44068
  31
0
  0
LINE
  8
0
  10
59.5817
  20
30.44068
  30
0
  11
59.73066
  21
30.40161
  31
0
  0
LINE
  8
0
  10
59.73066
  20
30.40161
  30
0
  11
59.87952
  21
30.3591
  31
0
  0
LINE
  8
0
  10
59.87952
  20
30.3591
  30
0
  11
60.02826
  21
30.31336
  31
0
  0
LINE
  8
0
  10
60.02826
  20
30.31336
  30
0
  11
60.17686
  21
30.26456
  31
0
  0
LINE
  8
0
  10
60.17686
  20
30.26456
  30
0
  11
60.32533
  21
30.21285
  31
0
  0
LINE
  8
0
  10
60.32533
  20
30.21285
  30
0
  11
60.47365
  21
30.15834
  31
0
  0
LINE
  8
0
  10
60.47365
  20
30.15834
  30
0
  11
60.6218
  21
30.10112
  31
0
  0
LINE
  8
0
  10
60.6218
  20
30.10112
  30
0
  11
60.76978
  21
30.0413
  31
0
  0
LINE
  8
0
  10
60.76978
  20
30.0413
  30
0
  11
60.91759
  21
29.97893
  31
0
  0
LINE
  8
0
  10
60.91759
  20
29.97893
  30
0
  11
61.06519
  21
29.91408
  31
0
  0
LINE
  8
0
  10
61.06519
  20
29.91408
  30
0
  11
61.2126
  21
29.84682
  31
0
  0
LINE
  8
0
  10
61.2126
  20
29.84682
  30
0
  11
61.35979
  21
29.77719
  31
0
  0
LINE
  8
0
  10
61.35979
  20
29.77719
  30
0
  11
61.50675
  21
29.70525
  31
0
  0
LINE
  8
0
  10
61.50675
  20
29.70525
  30
0
  11
61.65347
  21
29.63102
  31
0
  0
LINE
  8
0
  10
61.65347
  20
29.63102
  30
0
  11
61.79995
  21
29.55456
  31
0
  0
LINE
  8
0
  10
61.79995
  20
29.55456
  30
0
  11
61.7011
  21
28.09597
  31
0
  0
LINE
  8
0
  10
61.7011
  20
28.09597
  30
0
  11
61.54565
  21
28.03997
  31
0
  0
LINE
  8
0
  10
61.54565
  20
28.03997
  30
0
  11
61.39025
  21
27.98622
  31
0
  0
LINE
  8
0
  10
61.39025
  20
27.98622
  30
0
  11
61.23493
  21
27.93476
  31
0
  0
LINE
  8
0
  10
61.23493
  20
27.93476
  30
0
  11
61.07969
  21
27.88562
  31
0
  0
LINE
  8
0
  10
61.07969
  20
27.88562
  30
0
  11
60.92456
  21
27.83886
  31
0
  0
LINE
  8
0
  10
60.92456
  20
27.83886
  30
0
  11
60.76955
  21
27.79453
  31
0
  0
LINE
  8
0
  10
60.76955
  20
27.79453
  30
0
  11
60.61469
  21
27.75267
  31
0
  0
LINE
  8
0
  10
60.61469
  20
27.75267
  30
0
  11
60.45999
  21
27.71336
  31
0
  0
LINE
  8
0
  10
60.45999
  20
27.71336
  30
0
  11
60.30547
  21
27.67665
  31
0
  0
LINE
  8
0
  10
60.30547
  20
27.67665
  30
0
  11
60.15115
  21
27.64265
  31
0
  0
LINE
  8
0
  10
60.15115
  20
27.64265
  30
0
  11
59.99707
  21
27.61144
  31
0
  0
LINE
  8
0
  10
59.99707
  20
27.61144
  30
0
  11
59.84324
  21
27.58314
  31
0
  0
LINE
  8
0
  10
59.84324
  20
27.58314
  30
0
  11
59.68969
  21
27.55789
  31
0
  0
LINE
  8
0
  10
59.68969
  20
27.55789
  30
0
  11
59.53646
  21
27.53585
  31
0
  0
LINE
  8
0
  10
59.53646
  20
27.53585
  30
0
  11
59.38358
  21
27.51723
  31
0
  0
LINE
  8
0
  10
59.38358
  20
27.51723
  30
0
  11
59.34542
  21
27.51315
  31
0
  0
LINE
  8
0
  10
59.34542
  20
27.51315
  30
0
  11
59.30729
  21
27.5093
  31
0
  0
LINE
  8
0
  10
59.30729
  20
27.5093
  30
0
  11
59.26918
  21
27.50569
  31
0
  0
LINE
  8
0
  10
59.26918
  20
27.50569
  30
0
  11
59.2311
  21
27.50233
  31
0
  0
LINE
  8
0
  10
59.2311
  20
27.50233
  30
0
  11
58.99292
  21
25.90714
  31
0
  0
LINE
  8
0
  10
58.99292
  20
25.90714
  30
0
  11
59.02835
  21
25.89281
  31
0
  0
LINE
  8
0
  10
59.02835
  20
25.89281
  30
0
  11
59.06374
  21
25.87823
  31
0
  0
LINE
  8
0
  10
59.06374
  20
25.87823
  30
0
  11
59.09909
  21
25.86341
  31
0
  0
LINE
  8
0
  10
59.09909
  20
25.86341
  30
0
  11
59.13439
  21
25.84835
  31
0
  0
LINE
  8
0
  10
59.13439
  20
25.84835
  30
0
  11
59.27516
  21
25.78589
  31
0
  0
LINE
  8
0
  10
59.27516
  20
25.78589
  30
0
  11
59.41527
  21
25.72005
  31
0
  0
LINE
  8
0
  10
59.41527
  20
25.72005
  30
0
  11
59.55475
  21
25.65105
  31
0
  0
LINE
  8
0
  10
59.55475
  20
25.65105
  30
0
  11
59.6936
  21
25.57904
  31
0
  0
LINE
  8
0
  10
59.6936
  20
25.57904
  30
0
  11
59.83185
  21
25.50418
  31
0
  0
LINE
  8
0
  10
59.83185
  20
25.50418
  30
0
  11
59.9695
  21
25.42659
  31
0
  0
LINE
  8
0
  10
59.9695
  20
25.42659
  30
0
  11
60.10656
  21
25.34635
  31
0
  0
LINE
  8
0
  10
60.10656
  20
25.34635
  30
0
  11
60.24303
  21
25.26356
  31
0
  0
LINE
  8
0
  10
60.24303
  20
25.26356
  30
0
  11
60.37891
  21
25.17829
  31
0
  0
LINE
  8
0
  10
60.37891
  20
25.17829
  30
0
  11
60.51421
  21
25.09061
  31
0
  0
LINE
  8
0
  10
60.51421
  20
25.09061
  30
0
  11
60.64891
  21
25.00057
  31
0
  0
LINE
  8
0
  10
60.64891
  20
25.00057
  30
0
  11
60.78303
  21
24.90823
  31
0
  0
LINE
  8
0
  10
60.78303
  20
24.90823
  30
0
  11
60.91654
  21
24.81364
  31
0
  0
LINE
  8
0
  10
60.91654
  20
24.81364
  30
0
  11
61.04946
  21
24.71684
  31
0
  0
LINE
  8
0
  10
61.04946
  20
24.71684
  30
0
  11
61.18177
  21
24.61788
  31
0
  0
LINE
  8
0
  10
61.18177
  20
24.61788
  30
0
  11
60.85023
  21
23.19403
  31
0
  0
LINE
  8
0
  10
60.85023
  20
23.19403
  30
0
  11
60.68781
  21
23.16369
  31
0
  0
LINE
  8
0
  10
60.68781
  20
23.16369
  30
0
  11
60.5258
  21
23.13556
  31
0
  0
LINE
  8
0
  10
60.5258
  20
23.13556
  30
0
  11
60.36424
  21
23.10968
  31
0
  0
LINE
  8
0
  10
60.36424
  20
23.10968
  30
0
  11
60.20313
  21
23.08609
  31
0
  0
LINE
  8
0
  10
60.20313
  20
23.08609
  30
0
  11
60.0425
  21
23.06482
  31
0
  0
LINE
  8
0
  10
60.0425
  20
23.06482
  30
0
  11
59.88239
  21
23.04592
  31
0
  0
LINE
  8
0
  10
59.88239
  20
23.04592
  30
0
  11
59.72282
  21
23.02945
  31
0
  0
LINE
  8
0
  10
59.72282
  20
23.02945
  30
0
  11
59.56381
  21
23.01546
  31
0
  0
LINE
  8
0
  10
59.56381
  20
23.01546
  30
0
  11
59.40541
  21
23.00402
  31
0
  0
LINE
  8
0
  10
59.40541
  20
23.00402
  30
0
  11
59.24764
  21
22.99521
  31
0
  0
LINE
  8
0
  10
59.24764
  20
22.99521
  30
0
  11
59.09054
  21
22.98912
  31
0
  0
LINE
  8
0
  10
59.09054
  20
22.98912
  30
0
  11
58.93416
  21
22.98586
  31
0
  0
LINE
  8
0
  10
58.93416
  20
22.98586
  30
0
  11
58.77855
  21
22.98557
  31
0
  0
LINE
  8
0
  10
58.77855
  20
22.98557
  30
0
  11
58.62377
  21
22.98839
  31
0
  0
LINE
  8
0
  10
58.62377
  20
22.98839
  30
0
  11
58.46989
  21
22.99454
  31
0
  0
LINE
  8
0
  10
58.46989
  20
22.99454
  30
0
  11
58.43156
  21
22.99663
  31
0
  0
LINE
  8
0
  10
58.43156
  20
22.99663
  30
0
  11
58.39331
  21
22.99895
  31
0
  0
LINE
  8
0
  10
58.39331
  20
22.99895
  30
0
  11
58.35512
  21
23.0015
  31
0
  0
LINE
  8
0
  10
58.35512
  20
23.0015
  30
0
  11
58.31699
  21
23.00429
  31
0
  0
LINE
  8
0
  10
58.31699
  20
23.00429
  30
0
  11
57.82601
  21
21.46797
  31
0
  0
LINE
  8
0
  10
57.82601
  20
21.46797
  30
0
  11
57.85868
  21
21.44814
  31
0
  0
LINE
  8
0
  10
57.85868
  20
21.44814
  30
0
  11
57.89128
  21
21.42807
  31
0
  0
LINE
  8
0
  10
57.89128
  20
21.42807
  30
0
  11
57.92379
  21
21.40777
  31
0
  0
LINE
  8
0
  10
57.92379
  20
21.40777
  30
0
  11
57.95622
  21
21.38724
  31
0
  0
LINE
  8
0
  10
57.95622
  20
21.38724
  30
0
  11
58.08515
  21
21.30301
  31
0
  0
LINE
  8
0
  10
58.08515
  20
21.30301
  30
0
  11
58.21288
  21
21.21555
  31
0
  0
LINE
  8
0
  10
58.21288
  20
21.21555
  30
0
  11
58.33948
  21
21.12506
  31
0
  0
LINE
  8
0
  10
58.33948
  20
21.12506
  30
0
  11
58.46499
  21
21.03172
  31
0
  0
LINE
  8
0
  10
58.46499
  20
21.03172
  30
0
  11
58.58944
  21
20.93565
  31
0
  0
LINE
  8
0
  10
58.58944
  20
20.93565
  30
0
  11
58.71286
  21
20.83698
  31
0
  0
LINE
  8
0
  10
58.71286
  20
20.83698
  30
0
  11
58.83527
  21
20.7358
  31
0
  0
LINE
  8
0
  10
58.83527
  20
20.7358
  30
0
  11
58.95669
  21
20.63219
  31
0
  0
LINE
  8
0
  10
58.95669
  20
20.63219
  30
0
  11
59.07714
  21
20.52622
  31
0
  0
LINE
  8
0
  10
59.07714
  20
20.52622
  30
0
  11
59.19661
  21
20.41797
  31
0
  0
LINE
  8
0
  10
59.19661
  20
20.41797
  30
0
  11
59.31513
  21
20.3075
  31
0
  0
LINE
  8
0
  10
59.31513
  20
20.3075
  30
0
  11
59.4327
  21
20.19484
  31
0
  0
LINE
  8
0
  10
59.4327
  20
20.19484
  30
0
  11
59.54931
  21
20.08006
  31
0
  0
LINE
  8
0
  10
59.54931
  20
20.08006
  30
0
  11
59.66498
  21
19.96319
  31
0
  0
LINE
  8
0
  10
59.66498
  20
19.96319
  30
0
  11
59.77971
  21
19.84428
  31
0
  0
LINE
  8
0
  10
59.77971
  20
19.84428
  30
0
  11
59.22406
  21
18.49205
  31
0
  0
LINE
  8
0
  10
59.22406
  20
18.49205
  30
0
  11
59.05887
  21
18.48816
  31
0
  0
LINE
  8
0
  10
59.05887
  20
18.48816
  30
0
  11
58.89445
  21
18.48639
  31
0
  0
LINE
  8
0
  10
58.89445
  20
18.48639
  30
0
  11
58.73082
  21
18.48676
  31
0
  0
LINE
  8
0
  10
58.73082
  20
18.48676
  30
0
  11
58.56802
  21
18.48931
  31
0
  0
LINE
  8
0
  10
58.56802
  20
18.48931
  30
0
  11
58.40606
  21
18.49409
  31
0
  0
LINE
  8
0
  10
58.40606
  20
18.49409
  30
0
  11
58.24499
  21
18.50112
  31
0
  0
LINE
  8
0
  10
58.24499
  20
18.50112
  30
0
  11
58.08484
  21
18.51045
  31
0
  0
LINE
  8
0
  10
58.08484
  20
18.51045
  30
0
  11
57.92565
  21
18.52215
  31
0
  0
LINE
  8
0
  10
57.92565
  20
18.52215
  30
0
  11
57.76746
  21
18.53627
  31
0
  0
LINE
  8
0
  10
57.76746
  20
18.53627
  30
0
  11
57.61032
  21
18.55288
  31
0
  0
LINE
  8
0
  10
57.61032
  20
18.55288
  30
0
  11
57.45428
  21
18.57207
  31
0
  0
LINE
  8
0
  10
57.45428
  20
18.57207
  30
0
  11
57.29941
  21
18.59394
  31
0
  0
LINE
  8
0
  10
57.29941
  20
18.59394
  30
0
  11
57.14576
  21
18.61861
  31
0
  0
LINE
  8
0
  10
57.14576
  20
18.61861
  30
0
  11
56.99344
  21
18.64623
  31
0
  0
LINE
  8
0
  10
56.99344
  20
18.64623
  30
0
  11
56.84253
  21
18.67699
  31
0
  0
LINE
  8
0
  10
56.84253
  20
18.67699
  30
0
  11
56.80504
  21
18.6852
  31
0
  0
LINE
  8
0
  10
56.80504
  20
18.6852
  30
0
  11
56.76765
  21
18.69362
  31
0
  0
LINE
  8
0
  10
56.76765
  20
18.69362
  30
0
  11
56.73037
  21
18.70227
  31
0
  0
LINE
  8
0
  10
56.73037
  20
18.70227
  30
0
  11
56.69318
  21
18.71114
  31
0
  0
LINE
  8
0
  10
56.69318
  20
18.71114
  30
0
  11
55.96211
  21
17.27347
  31
0
  0
LINE
  8
0
  10
55.96211
  20
17.27347
  30
0
  11
55.99119
  21
17.24865
  31
0
  0
LINE
  8
0
  10
55.99119
  20
17.24865
  30
0
  11
56.02014
  21
17.22361
  31
0
  0
LINE
  8
0
  10
56.02014
  20
17.22361
  30
0
  11
56.04897
  21
17.19836
  31
0
  0
LINE
  8
0
  10
56.04897
  20
17.19836
  30
0
  11
56.07769
  21
17.1729
  31
0
  0
LINE
  8
0
  10
56.07769
  20
17.1729
  30
0
  11
56.19144
  21
17.06908
  31
0
  0
LINE
  8
0
  10
56.19144
  20
17.06908
  30
0
  11
56.30349
  21
16.96226
  31
0
  0
LINE
  8
0
  10
56.30349
  20
16.96226
  30
0
  11
56.41393
  21
16.85264
  31
0
  0
LINE
  8
0
  10
56.41393
  20
16.85264
  30
0
  11
56.52284
  21
16.74037
  31
0
  0
LINE
  8
0
  10
56.52284
  20
16.74037
  30
0
  11
56.63027
  21
16.62558
  31
0
  0
LINE
  8
0
  10
56.63027
  20
16.62558
  30
0
  11
56.73626
  21
16.50839
  31
0
  0
LINE
  8
0
  10
56.73626
  20
16.50839
  30
0
  11
56.84086
  21
16.38888
  31
0
  0
LINE
  8
0
  10
56.84086
  20
16.38888
  30
0
  11
56.94409
  21
16.26713
  31
0
  0
LINE
  8
0
  10
56.94409
  20
16.26713
  30
0
  11
57.04598
  21
16.14322
  31
0
  0
LINE
  8
0
  10
57.04598
  20
16.14322
  30
0
  11
57.14654
  21
16.01721
  31
0
  0
LINE
  8
0
  10
57.14654
  20
16.01721
  30
0
  11
57.2458
  21
15.88915
  31
0
  0
LINE
  8
0
  10
57.2458
  20
15.88915
  30
0
  11
57.34377
  21
15.75909
  31
0
  0
LINE
  8
0
  10
57.34377
  20
15.75909
  30
0
  11
57.44047
  21
15.62709
  31
0
  0
LINE
  8
0
  10
57.44047
  20
15.62709
  30
0
  11
57.53589
  21
15.49318
  31
0
  0
LINE
  8
0
  10
57.53589
  20
15.49318
  30
0
  11
57.63005
  21
15.35741
  31
0
  0
LINE
  8
0
  10
57.63005
  20
15.35741
  30
0
  11
56.86469
  21
14.11183
  31
0
  0
LINE
  8
0
  10
56.86469
  20
14.11183
  30
0
  11
56.70102
  21
14.13448
  31
0
  0
LINE
  8
0
  10
56.70102
  20
14.13448
  30
0
  11
56.53844
  21
14.15911
  31
0
  0
LINE
  8
0
  10
56.53844
  20
14.15911
  30
0
  11
56.37699
  21
14.18572
  31
0
  0
LINE
  8
0
  10
56.37699
  20
14.18572
  30
0
  11
56.2167
  21
14.21436
  31
0
  0
LINE
  8
0
  10
56.2167
  20
14.21436
  30
0
  11
56.05761
  21
14.24505
  31
0
  0
LINE
  8
0
  10
56.05761
  20
14.24505
  30
0
  11
55.89976
  21
14.27783
  31
0
  0
LINE
  8
0
  10
55.89976
  20
14.27783
  30
0
  11
55.74318
  21
14.31273
  31
0
  0
LINE
  8
0
  10
55.74318
  20
14.31273
  30
0
  11
55.58793
  21
14.34981
  31
0
  0
LINE
  8
0
  10
55.58793
  20
14.34981
  30
0
  11
55.43405
  21
14.38913
  31
0
  0
LINE
  8
0
  10
55.43405
  20
14.38913
  30
0
  11
55.28161
  21
14.43073
  31
0
  0
LINE
  8
0
  10
55.28161
  20
14.43073
  30
0
  11
55.13067
  21
14.4747
  31
0
  0
LINE
  8
0
  10
55.13067
  20
14.4747
  30
0
  11
54.98131
  21
14.52113
  31
0
  0
LINE
  8
0
  10
54.98131
  20
14.52113
  30
0
  11
54.83361
  21
14.57013
  31
0
  0
LINE
  8
0
  10
54.83361
  20
14.57013
  30
0
  11
54.68769
  21
14.62182
  31
0
  0
LINE
  8
0
  10
54.68769
  20
14.62182
  30
0
  11
54.54367
  21
14.67639
  31
0
  0
LINE
  8
0
  10
54.54367
  20
14.67639
  30
0
  11
54.50798
  21
14.6905
  31
0
  0
LINE
  8
0
  10
54.50798
  20
14.6905
  30
0
  11
54.47243
  21
14.70482
  31
0
  0
LINE
  8
0
  10
54.47243
  20
14.70482
  30
0
  11
54.43701
  21
14.71933
  31
0
  0
LINE
  8
0
  10
54.43701
  20
14.71933
  30
0
  11
54.40173
  21
14.73405
  31
0
  0
LINE
  8
0
  10
54.40173
  20
14.73405
  30
0
  11
53.44951
  21
13.43227
  31
0
  0
LINE
  8
0
  10
53.44951
  20
13.43227
  30
0
  11
53.47423
  21
13.40311
  31
0
  0
LINE
  8
0
  10
53.47423
  20
13.40311
  30
0
  11
53.49879
  21
13.37375
  31
0
  0
LINE
  8
0
  10
53.49879
  20
13.37375
  30
0
  11
53.5232
  21
13.3442
  31
0
  0
LINE
  8
0
  10
53.5232
  20
13.3442
  30
0
  11
53.54746
  21
13.31447
  31
0
  0
LINE
  8
0
  10
53.54746
  20
13.31447
  30
0
  11
53.64308
  21
13.19374
  31
0
  0
LINE
  8
0
  10
53.64308
  20
13.19374
  30
0
  11
53.73655
  21
13.07033
  31
0
  0
LINE
  8
0
  10
53.73655
  20
13.07033
  30
0
  11
53.82797
  21
12.94442
  31
0
  0
LINE
  8
0
  10
53.82797
  20
12.94442
  30
0
  11
53.91746
  21
12.81613
  31
0
  0
LINE
  8
0
  10
53.91746
  20
12.81613
  30
0
  11
54.00509
  21
12.6856
  31
0
  0
LINE
  8
0
  10
54.00509
  20
12.6856
  30
0
  11
54.09091
  21
12.55292
  31
0
  0
LINE
  8
0
  10
54.09091
  20
12.55292
  30
0
  11
54.17498
  21
12.41818
  31
0
  0
LINE
  8
0
  10
54.17498
  20
12.41818
  30
0
  11
54.25734
  21
12.28145
  31
0
  0
LINE
  8
0
  10
54.25734
  20
12.28145
  30
0
  11
54.33803
  21
12.1428
  31
0
  0
LINE
  8
0
  10
54.33803
  20
12.1428
  30
0
  11
54.41708
  21
12.00229
  31
0
  0
LINE
  8
0
  10
54.41708
  20
12.00229
  30
0
  11
54.49452
  21
11.85996
  31
0
  0
LINE
  8
0
  10
54.49452
  20
11.85996
  30
0
  11
54.57036
  21
11.71588
  31
0
  0
LINE
  8
0
  10
54.57036
  20
11.71588
  30
0
  11
54.64462
  21
11.57007
  31
0
  0
LINE
  8
0
  10
54.64462
  20
11.57007
  30
0
  11
54.71733
  21
11.42259
  31
0
  0
LINE
  8
0
  10
54.71733
  20
11.42259
  30
0
  11
54.7885
  21
11.27347
  31
0
  0
LINE
  8
0
  10
54.7885
  20
11.27347
  30
0
  11
53.83324
  21
10.16679
  31
0
  0
LINE
  8
0
  10
53.83324
  20
10.16679
  30
0
  11
53.67532
  21
10.21541
  31
0
  0
LINE
  8
0
  10
53.67532
  20
10.21541
  30
0
  11
53.5188
  21
10.26579
  31
0
  0
LINE
  8
0
  10
53.5188
  20
10.26579
  30
0
  11
53.36371
  21
10.31796
  31
0
  0
LINE
  8
0
  10
53.36371
  20
10.31796
  30
0
  11
53.21009
  21
10.37194
  31
0
  0
LINE
  8
0
  10
53.21009
  20
10.37194
  30
0
  11
53.05798
  21
10.42775
  31
0
  0
LINE
  8
0
  10
53.05798
  20
10.42775
  30
0
  11
52.90743
  21
10.48543
  31
0
  0
LINE
  8
0
  10
52.90743
  20
10.48543
  30
0
  11
52.75848
  21
10.545
  31
0
  0
LINE
  8
0
  10
52.75848
  20
10.545
  30
0
  11
52.61118
  21
10.6065
  31
0
  0
LINE
  8
0
  10
52.61118
  20
10.6065
  30
0
  11
52.46561
  21
10.66999
  31
0
  0
LINE
  8
0
  10
52.46561
  20
10.66999
  30
0
  11
52.32181
  21
10.73551
  31
0
  0
LINE
  8
0
  10
52.32181
  20
10.73551
  30
0
  11
52.17988
  21
10.80312
  31
0
  0
LINE
  8
0
  10
52.17988
  20
10.80312
  30
0
  11
52.0399
  21
10.87291
  31
0
  0
LINE
  8
0
  10
52.0399
  20
10.87291
  30
0
  11
51.90198
  21
10.94497
  31
0
  0
LINE
  8
0
  10
51.90198
  20
10.94497
  30
0
  11
51.76624
  21
11.0194
  31
0
  0
LINE
  8
0
  10
51.76624
  20
11.0194
  30
0
  11
51.63284
  21
11.09636
  31
0
  0
LINE
  8
0
  10
51.63284
  20
11.09636
  30
0
  11
51.59988
  21
11.11602
  31
0
  0
LINE
  8
0
  10
51.59988
  20
11.11602
  30
0
  11
51.56708
  21
11.13585
  31
0
  0
LINE
  8
0
  10
51.56708
  20
11.13585
  30
0
  11
51.53445
  21
11.15586
  31
0
  0
LINE
  8
0
  10
51.53445
  20
11.15586
  30
0
  11
51.50199
  21
11.17605
  31
0
  0
LINE
  8
0
  10
51.50199
  20
11.17605
  30
0
  11
50.35328
  21
10.04387
  31
0
  0
LINE
  8
0
  10
50.35328
  20
10.04387
  30
0
  11
50.373
  21
10.01112
  31
0
  0
LINE
  8
0
  10
50.373
  20
10.01112
  30
0
  11
50.39253
  21
9.9782
  31
0
  0
LINE
  8
0
  10
50.39253
  20
9.9782
  30
0
  11
50.41188
  21
9.94512
  31
0
  0
LINE
  8
0
  10
50.41188
  20
9.94512
  30
0
  11
50.43106
  21
9.91188
  31
0
  0
LINE
  8
0
  10
50.43106
  20
9.91188
  30
0
  11
50.50608
  21
9.77738
  31
0
  0
LINE
  8
0
  10
50.50608
  20
9.77738
  30
0
  11
50.57853
  21
9.64058
  31
0
  0
LINE
  8
0
  10
50.57853
  20
9.64058
  30
0
  11
50.64858
  21
9.50162
  31
0
  0
LINE
  8
0
  10
50.64858
  20
9.50162
  30
0
  11
50.71633
  21
9.36064
  31
0
  0
LINE
  8
0
  10
50.71633
  20
9.36064
  30
0
  11
50.78188
  21
9.21775
  31
0
  0
LINE
  8
0
  10
50.78188
  20
9.21775
  30
0
  11
50.84531
  21
9.07302
  31
0
  0
LINE
  8
0
  10
50.84531
  20
9.07302
  30
0
  11
50.90668
  21
8.92654
  31
0
  0
LINE
  8
0
  10
50.90668
  20
8.92654
  30
0
  11
50.96604
  21
8.77837
  31
0
  0
LINE
  8
0
  10
50.96604
  20
8.77837
  30
0
  11
51.02345
  21
8.62857
  31
0
  0
LINE
  8
0
  10
51.02345
  20
8.62857
  30
0
  11
51.07893
  21
8.47719
  31
0
  0
LINE
  8
0
  10
51.07893
  20
8.47719
  30
0
  11
51.13253
  21
8.32429
  31
0
  0
LINE
  8
0
  10
51.13253
  20
8.32429
  30
0
  11
51.18428
  21
8.16991
  31
0
  0
LINE
  8
0
  10
51.18428
  20
8.16991
  30
0
  11
51.23419
  21
8.01408
  31
0
  0
LINE
  8
0
  10
51.23419
  20
8.01408
  30
0
  11
51.2823
  21
7.85684
  31
0
  0
LINE
  8
0
  10
51.2823
  20
7.85684
  30
0
  11
51.32863
  21
7.69824
  31
0
  0
LINE
  8
0
  10
51.32863
  20
7.69824
  30
0
  11
50.20821
  21
6.75912
  31
0
  0
LINE
  8
0
  10
50.20821
  20
6.75912
  30
0
  11
50.06014
  21
6.83244
  31
0
  0
LINE
  8
0
  10
50.06014
  20
6.83244
  30
0
  11
49.91373
  21
6.90728
  31
0
  0
LINE
  8
0
  10
49.91373
  20
6.90728
  30
0
  11
49.76902
  21
6.98365
  31
0
  0
LINE
  8
0
  10
49.76902
  20
6.98365
  30
0
  11
49.62604
  21
7.06157
  31
0
  0
LINE
  8
0
  10
49.62604
  20
7.06157
  30
0
  11
49.48486
  21
7.14106
  31
0
  0
LINE
  8
0
  10
49.48486
  20
7.14106
  30
0
  11
49.34551
  21
7.22214
  31
0
  0
LINE
  8
0
  10
49.34551
  20
7.22214
  30
0
  11
49.20804
  21
7.30483
  31
0
  0
LINE
  8
0
  10
49.20804
  20
7.30483
  30
0
  11
49.07252
  21
7.38917
  31
0
  0
LINE
  8
0
  10
49.07252
  20
7.38917
  30
0
  11
48.93901
  21
7.47519
  31
0
  0
LINE
  8
0
  10
48.93901
  20
7.47519
  30
0
  11
48.80759
  21
7.56292
  31
0
  0
LINE
  8
0
  10
48.80759
  20
7.56292
  30
0
  11
48.67834
  21
7.65243
  31
0
  0
LINE
  8
0
  10
48.67834
  20
7.65243
  30
0
  11
48.55137
  21
7.74377
  31
0
  0
LINE
  8
0
  10
48.55137
  20
7.74377
  30
0
  11
48.42679
  21
7.83702
  31
0
  0
LINE
  8
0
  10
48.42679
  20
7.83702
  30
0
  11
48.30475
  21
7.93226
  31
0
  0
LINE
  8
0
  10
48.30475
  20
7.93226
  30
0
  11
48.18542
  21
8.02962
  31
0
  0
LINE
  8
0
  10
48.18542
  20
8.02962
  30
0
  11
48.15604
  21
8.05431
  31
0
  0
LINE
  8
0
  10
48.15604
  20
8.05431
  30
0
  11
48.12685
  21
8.07915
  31
0
  0
LINE
  8
0
  10
48.12685
  20
8.07915
  30
0
  11
48.09785
  21
8.10413
  31
0
  0
LINE
  8
0
  10
48.09785
  20
8.10413
  30
0
  11
48.06905
  21
8.12927
  31
0
  0
LINE
  8
0
  10
48.06905
  20
8.12927
  30
0
  11
46.7536
  21
7.19602
  31
0
  0
LINE
  8
0
  10
46.7536
  20
7.19602
  30
0
  11
46.76781
  21
7.16053
  31
0
  0
LINE
  8
0
  10
46.76781
  20
7.16053
  30
0
  11
46.78181
  21
7.12491
  31
0
  0
LINE
  8
0
  10
46.78181
  20
7.12491
  30
0
  11
46.7956
  21
7.08915
  31
0
  0
LINE
  8
0
  10
46.7956
  20
7.08915
  30
0
  11
46.8092
  21
7.05326
  31
0
  0
LINE
  8
0
  10
46.8092
  20
7.05326
  30
0
  11
46.86167
  21
6.90847
  31
0
  0
LINE
  8
0
  10
46.86167
  20
6.90847
  30
0
  11
46.91125
  21
6.76181
  31
0
  0
LINE
  8
0
  10
46.91125
  20
6.76181
  30
0
  11
46.9581
  21
6.61342
  31
0
  0
LINE
  8
0
  10
46.9581
  20
6.61342
  30
0
  11
47.00236
  21
6.4634
  31
0
  0
LINE
  8
0
  10
47.00236
  20
6.4634
  30
0
  11
47.04413
  21
6.31184
  31
0
  0
LINE
  8
0
  10
47.04413
  20
6.31184
  30
0
  11
47.08352
  21
6.15881
  31
0
  0
LINE
  8
0
  10
47.08352
  20
6.15881
  30
0
  11
47.1206
  21
6.00438
  31
0
  0
LINE
  8
0
  10
47.1206
  20
6.00438
  30
0
  11
47.15543
  21
5.84861
  31
0
  0
LINE
  8
0
  10
47.15543
  20
5.84861
  30
0
  11
47.18806
  21
5.69154
  31
0
  0
LINE
  8
0
  10
47.18806
  20
5.69154
  30
0
  11
47.21855
  21
5.53322
  31
0
  0
LINE
  8
0
  10
47.21855
  20
5.53322
  30
0
  11
47.24692
  21
5.3737
  31
0
  0
LINE
  8
0
  10
47.24692
  20
5.3737
  30
0
  11
47.27324
  21
5.21302
  31
0
  0
LINE
  8
0
  10
47.27324
  20
5.21302
  30
0
  11
47.29751
  21
5.0512
  31
0
  0
LINE
  8
0
  10
47.29751
  20
5.0512
  30
0
  11
47.31977
  21
4.88828
  31
0
  0
LINE
  8
0
  10
47.31977
  20
4.88828
  30
0
  11
47.34005
  21
4.7243
  31
0
  0
LINE
  8
0
  10
47.34005
  20
4.7243
  30
0
  11
46.0835
  21
3.97708
  31
0
  0
LINE
  8
0
  10
46.0835
  20
3.97708
  30
0
  11
45.94911
  21
4.0732
  31
0
  0
LINE
  8
0
  10
45.94911
  20
4.0732
  30
0
  11
45.8166
  21
4.17055
  31
0
  0
LINE
  8
0
  10
45.8166
  20
4.17055
  30
0
  11
45.68601
  21
4.26915
  31
0
  0
LINE
  8
0
  10
45.68601
  20
4.26915
  30
0
  11
45.55739
  21
4.369
  31
0
  0
LINE
  8
0
  10
45.55739
  20
4.369
  30
0
  11
45.43078
  21
4.47011
  31
0
  0
LINE
  8
0
  10
45.43078
  20
4.47011
  30
0
  11
45.30624
  21
4.57249
  31
0
  0
LINE
  8
0
  10
45.30624
  20
4.57249
  30
0
  11
45.18382
  21
4.67616
  31
0
  0
LINE
  8
0
  10
45.18382
  20
4.67616
  30
0
  11
45.06358
  21
4.78114
  31
0
  0
LINE
  8
0
  10
45.06358
  20
4.78114
  30
0
  11
44.9456
  21
4.88746
  31
0
  0
LINE
  8
0
  10
44.9456
  20
4.88746
  30
0
  11
44.82996
  21
4.99515
  31
0
  0
LINE
  8
0
  10
44.82996
  20
4.99515
  30
0
  11
44.71674
  21
5.10423
  31
0
  0
LINE
  8
0
  10
44.71674
  20
5.10423
  30
0
  11
44.60606
  21
5.21475
  31
0
  0
LINE
  8
0
  10
44.60606
  20
5.21475
  30
0
  11
44.49806
  21
5.32677
  31
0
  0
LINE
  8
0
  10
44.49806
  20
5.32677
  30
0
  11
44.39287
  21
5.44036
  31
0
  0
LINE
  8
0
  10
44.39287
  20
5.44036
  30
0
  11
44.29071
  21
5.5556
  31
0
  0
LINE
  8
0
  10
44.29071
  20
5.5556
  30
0
  11
44.26567
  21
5.58469
  31
0
  0
LINE
  8
0
  10
44.26567
  20
5.58469
  30
0
  11
44.24084
  21
5.61388
  31
0
  0
LINE
  8
0
  10
44.24084
  20
5.61388
  30
0
  11
44.21622
  21
5.64319
  31
0
  0
LINE
  8
0
  10
44.21622
  20
5.64319
  30
0
  11
44.19183
  21
5.67262
  31
0
  0
LINE
  8
0
  10
44.19183
  20
5.67262
  30
0
  11
42.74371
  21
4.96247
  31
0
  0
LINE
  8
0
  10
42.74371
  20
4.96247
  30
0
  11
42.75204
  21
4.92517
  31
0
  0
LINE
  8
0
  10
42.75204
  20
4.92517
  30
0
  11
42.76015
  21
4.88776
  31
0
  0
LINE
  8
0
  10
42.76015
  20
4.88776
  30
0
  11
42.76803
  21
4.85025
  31
0
  0
LINE
  8
0
  10
42.76803
  20
4.85025
  30
0
  11
42.77569
  21
4.81265
  31
0
  0
LINE
  8
0
  10
42.77569
  20
4.81265
  30
0
  11
42.80426
  21
4.66131
  31
0
  0
LINE
  8
0
  10
42.80426
  20
4.66131
  30
0
  11
42.82966
  21
4.5086
  31
0
  0
LINE
  8
0
  10
42.82966
  20
4.5086
  30
0
  11
42.8521
  21
4.35462
  31
0
  0
LINE
  8
0
  10
42.8521
  20
4.35462
  30
0
  11
42.87172
  21
4.19944
  31
0
  0
LINE
  8
0
  10
42.87172
  20
4.19944
  30
0
  11
42.88865
  21
4.04314
  31
0
  0
LINE
  8
0
  10
42.88865
  20
4.04314
  30
0
  11
42.90298
  21
3.88577
  31
0
  0
LINE
  8
0
  10
42.90298
  20
3.88577
  30
0
  11
42.91481
  21
3.7274
  31
0
  0
LINE
  8
0
  10
42.91481
  20
3.7274
  30
0
  11
42.92419
  21
3.56805
  31
0
  0
LINE
  8
0
  10
42.92419
  20
3.56805
  30
0
  11
42.93121
  21
3.40779
  31
0
  0
LINE
  8
0
  10
42.93121
  20
3.40779
  30
0
  11
42.9359
  21
3.24663
  31
0
  0
LINE
  8
0
  10
42.9359
  20
3.24663
  30
0
  11
42.93833
  21
3.08462
  31
0
  0
LINE
  8
0
  10
42.93833
  20
3.08462
  30
0
  11
42.93852
  21
2.9218
  31
0
  0
LINE
  8
0
  10
42.93852
  20
2.9218
  30
0
  11
42.93652
  21
2.75818
  31
0
  0
LINE
  8
0
  10
42.93652
  20
2.75818
  30
0
  11
42.93236
  21
2.5938
  31
0
  0
LINE
  8
0
  10
42.93236
  20
2.5938
  30
0
  11
42.92608
  21
2.42869
  31
0
  0
LINE
  8
0
  10
42.92608
  20
2.42869
  30
0
  11
41.56594
  21
1.89271
  31
0
  0
LINE
  8
0
  10
41.56594
  20
1.89271
  30
0
  11
41.4487
  21
2.00914
  31
0
  0
LINE
  8
0
  10
41.4487
  20
2.00914
  30
0
  11
41.33352
  21
2.12649
  31
0
  0
LINE
  8
0
  10
41.33352
  20
2.12649
  30
0
  11
41.22044
  21
2.24476
  31
0
  0
LINE
  8
0
  10
41.22044
  20
2.24476
  30
0
  11
41.1095
  21
2.36395
  31
0
  0
LINE
  8
0
  10
41.1095
  20
2.36395
  30
0
  11
41.00076
  21
2.48406
  31
0
  0
LINE
  8
0
  10
41.00076
  20
2.48406
  30
0
  11
40.89425
  21
2.60509
  31
0
  0
LINE
  8
0
  10
40.89425
  20
2.60509
  30
0
  11
40.79004
  21
2.72706
  31
0
  0
LINE
  8
0
  10
40.79004
  20
2.72706
  30
0
  11
40.68821
  21
2.84997
  31
0
  0
LINE
  8
0
  10
40.68821
  20
2.84997
  30
0
  11
40.58881
  21
2.97384
  31
0
  0
LINE
  8
0
  10
40.58881
  20
2.97384
  30
0
  11
40.49193
  21
3.09868
  31
0
  0
LINE
  8
0
  10
40.49193
  20
3.09868
  30
0
  11
40.39768
  21
3.2245
  31
0
  0
LINE
  8
0
  10
40.39768
  20
3.2245
  30
0
  11
40.30617
  21
3.35135
  31
0
  0
LINE
  8
0
  10
40.30617
  20
3.35135
  30
0
  11
40.21753
  21
3.47925
  31
0
  0
LINE
  8
0
  10
40.21753
  20
3.47925
  30
0
  11
40.13192
  21
3.60824
  31
0
  0
LINE
  8
0
  10
40.13192
  20
3.60824
  30
0
  11
40.04957
  21
3.73838
  31
0
  0
LINE
  8
0
  10
40.04957
  20
3.73838
  30
0
  11
40.02952
  21
3.7711
  31
0
  0
LINE
  8
0
  10
40.02952
  20
3.7711
  30
0
  11
40.0097
  21
3.8039
  31
0
  0
LINE
  8
0
  10
40.0097
  20
3.8039
  30
0
  11
39.9901
  21
3.83678
  31
0
  0
LINE
  8
0
  10
39.9901
  20
3.83678
  30
0
  11
39.97074
  21
3.86974
  31
0
  0
LINE
  8
0
  10
39.97074
  20
3.86974
  30
0
  11
38.42746
  21
3.40109
  31
0
  0
LINE
  8
0
  10
38.42746
  20
3.40109
  30
0
  11
38.4297
  21
3.36292
  31
0
  0
LINE
  8
0
  10
38.4297
  20
3.36292
  30
0
  11
38.4317
  21
3.3247
  31
0
  0
LINE
  8
0
  10
38.4317
  20
3.3247
  30
0
  11
38.43346
  21
3.28641
  31
0
  0
LINE
  8
0
  10
38.43346
  20
3.28641
  30
0
  11
38.43499
  21
3.24807
  31
0
  0
LINE
  8
0
  10
38.43499
  20
3.24807
  30
0
  11
38.43891
  21
3.09411
  31
0
  0
LINE
  8
0
  10
38.43891
  20
3.09411
  30
0
  11
38.4395
  21
2.9393
  31
0
  0
LINE
  8
0
  10
38.4395
  20
2.9393
  30
0
  11
38.43694
  21
2.78371
  31
0
  0
LINE
  8
0
  10
38.43694
  20
2.78371
  30
0
  11
38.43142
  21
2.6274
  31
0
  0
LINE
  8
0
  10
38.43142
  20
2.6274
  30
0
  11
38.42305
  21
2.4704
  31
0
  0
LINE
  8
0
  10
38.42305
  20
2.4704
  30
0
  11
38.41196
  21
2.31278
  31
0
  0
LINE
  8
0
  10
38.41196
  20
2.31278
  30
0
  11
38.39822
  21
2.15456
  31
0
  0
LINE
  8
0
  10
38.39822
  20
2.15456
  30
0
  11
38.38193
  21
1.99577
  31
0
  0
LINE
  8
0
  10
38.38193
  20
1.99577
  30
0
  11
38.36314
  21
1.83645
  31
0
  0
LINE
  8
0
  10
38.36314
  20
1.83645
  30
0
  11
38.34193
  21
1.67663
  31
0
  0
LINE
  8
0
  10
38.34193
  20
1.67663
  30
0
  11
38.31833
  21
1.51633
  31
0
  0
LINE
  8
0
  10
38.31833
  20
1.51633
  30
0
  11
38.2924
  21
1.35558
  31
0
  0
LINE
  8
0
  10
38.2924
  20
1.35558
  30
0
  11
38.26418
  21
1.19441
  31
0
  0
LINE
  8
0
  10
38.26418
  20
1.19441
  30
0
  11
38.23371
  21
1.03283
  31
0
  0
LINE
  8
0
  10
38.23371
  20
1.03283
  30
0
  11
38.20102
  21
0.87086
  31
0
  0
LINE
  8
0
  10
38.20102
  20
0.87086
  30
0
  11
36.77251
  21
0.56
  31
0
  0
LINE
  8
0
  10
36.77251
  20
0.56
  30
0
  11
36.67547
  21
0.69373
  31
0
  0
LINE
  8
0
  10
36.67547
  20
0.69373
  30
0
  11
36.58061
  21
0.82804
  31
0
  0
LINE
  8
0
  10
36.58061
  20
0.82804
  30
0
  11
36.48797
  21
0.96292
  31
0
  0
LINE
  8
0
  10
36.48797
  20
0.96292
  30
0
  11
36.39759
  21
1.09835
  31
0
  0
LINE
  8
0
  10
36.39759
  20
1.09835
  30
0
  11
36.30951
  21
1.23435
  31
0
  0
LINE
  8
0
  10
36.30951
  20
1.23435
  30
0
  11
36.2238
  21
1.3709
  31
0
  0
LINE
  8
0
  10
36.2238
  20
1.3709
  30
0
  11
36.14051
  21
1.50801
  31
0
  0
LINE
  8
0
  10
36.14051
  20
1.50801
  30
0
  11
36.05971
  21
1.64566
  31
0
  0
LINE
  8
0
  10
36.05971
  20
1.64566
  30
0
  11
35.98146
  21
1.78387
  31
0
  0
LINE
  8
0
  10
35.98146
  20
1.78387
  30
0
  11
35.90587
  21
1.92263
  31
0
  0
LINE
  8
0
  10
35.90587
  20
1.92263
  30
0
  11
35.83302
  21
2.06195
  31
0
  0
LINE
  8
0
  10
35.83302
  20
2.06195
  30
0
  11
35.76304
  21
2.20183
  31
0
  0
LINE
  8
0
  10
35.76304
  20
2.20183
  30
0
  11
35.69606
  21
2.34229
  31
0
  0
LINE
  8
0
  10
35.69606
  20
2.34229
  30
0
  11
35.63226
  21
2.48334
  31
0
  0
LINE
  8
0
  10
35.63226
  20
2.48334
  30
0
  11
35.57185
  21
2.62501
  31
0
  0
LINE
  8
0
  10
35.57185
  20
2.62501
  30
0
  11
35.55731
  21
2.66052
  31
0
  0
LINE
  8
0
  10
35.55731
  20
2.66052
  30
0
  11
35.543
  21
2.69608
  31
0
  0
LINE
  8
0
  10
35.543
  20
2.69608
  30
0
  11
35.52894
  21
2.73168
  31
0
  0
LINE
  8
0
  10
35.52894
  20
2.73168
  30
0
  11
35.51512
  21
2.76732
  31
0
  0
LINE
  8
0
  10
35.51512
  20
2.76732
  30
0
  11
33.91664
  21
2.55229
  31
0
  0
LINE
  8
0
  10
33.91664
  20
2.55229
  30
0
  11
33.91273
  21
2.51426
  31
0
  0
LINE
  8
0
  10
33.91273
  20
2.51426
  30
0
  11
33.90857
  21
2.47621
  31
0
  0
LINE
  8
0
  10
33.90857
  20
2.47621
  30
0
  11
33.90417
  21
2.43814
  31
0
  0
LINE
  8
0
  10
33.90417
  20
2.43814
  30
0
  11
33.89953
  21
2.40004
  31
0
  0
LINE
  8
0
  10
33.89953
  20
2.40004
  30
0
  11
33.87871
  21
2.24745
  31
0
  0
LINE
  8
0
  10
33.87871
  20
2.24745
  30
0
  11
33.85445
  21
2.09456
  31
0
  0
LINE
  8
0
  10
33.85445
  20
2.09456
  30
0
  11
33.82697
  21
1.94139
  31
0
  0
LINE
  8
0
  10
33.82697
  20
1.94139
  30
0
  11
33.79644
  21
1.78799
  31
0
  0
LINE
  8
0
  10
33.79644
  20
1.78799
  30
0
  11
33.763
  21
1.63437
  31
0
  0
LINE
  8
0
  10
33.763
  20
1.63437
  30
0
  11
33.72676
  21
1.48056
  31
0
  0
LINE
  8
0
  10
33.72676
  20
1.48056
  30
0
  11
33.68782
  21
1.32659
  31
0
  0
LINE
  8
0
  10
33.68782
  20
1.32659
  30
0
  11
33.64627
  21
1.17248
  31
0
  0
LINE
  8
0
  10
33.64627
  20
1.17248
  30
0
  11
33.60217
  21
1.01824
  31
0
  0
LINE
  8
0
  10
33.60217
  20
1.01824
  30
0
  11
33.55559
  21
0.86389
  31
0
  0
LINE
  8
0
  10
33.55559
  20
0.86389
  30
0
  11
33.50659
  21
0.70945
  31
0
  0
LINE
  8
0
  10
33.50659
  20
0.70945
  30
0
  11
33.45521
  21
0.55494
  31
0
  0
LINE
  8
0
  10
33.45521
  20
0.55494
  30
0
  11
33.4015
  21
0.40038
  31
0
  0
LINE
  8
0
  10
33.4015
  20
0.40038
  30
0
  11
33.3455
  21
0.24578
  31
0
  0
LINE
  8
0
  10
33.3455
  20
0.24578
  30
0
  11
33.28726
  21
0.09116
  31
0
  0
LINE
  8
0
  10
33.28726
  20
0.09116
  30
0
  11
31.82738
  21
0.01347
  31
0
  0
LINE
  8
0
  10
31.82738
  20
0.01347
  30
0
  11
31.75305
  21
0.16104
  31
0
  0
LINE
  8
0
  10
31.75305
  20
0.16104
  30
0
  11
31.68096
  21
0.30882
  31
0
  0
LINE
  8
0
  10
31.68096
  20
0.30882
  30
0
  11
31.61116
  21
0.45681
  31
0
  0
LINE
  8
0
  10
31.61116
  20
0.45681
  30
0
  11
31.54367
  21
0.60499
  31
0
  0
LINE
  8
0
  10
31.54367
  20
0.60499
  30
0
  11
31.47855
  21
0.75336
  31
0
  0
LINE
  8
0
  10
31.47855
  20
0.75336
  30
0
  11
31.41585
  21
0.90189
  31
0
  0
LINE
  8
0
  10
31.41585
  20
0.90189
  30
0
  11
31.35564
  21
1.05058
  31
0
  0
LINE
  8
0
  10
31.35564
  20
1.05058
  30
0
  11
31.29796
  21
1.19942
  31
0
  0
LINE
  8
0
  10
31.29796
  20
1.19942
  30
0
  11
31.2429
  21
1.34838
  31
0
  0
LINE
  8
0
  10
31.2429
  20
1.34838
  30
0
  11
31.19054
  21
1.49747
  31
0
  0
LINE
  8
0
  10
31.19054
  20
1.49747
  30
0
  11
31.14099
  21
1.64667
  31
0
  0
LINE
  8
0
  10
31.14099
  20
1.64667
  30
0
  11
31.09435
  21
1.79597
  31
0
  0
LINE
  8
0
  10
31.09435
  20
1.79597
  30
0
  11
31.05077
  21
1.94536
  31
0
  0
LINE
  8
0
  10
31.05077
  20
1.94536
  30
0
  11
31.01042
  21
2.09482
  31
0
  0
LINE
  8
0
  10
31.01042
  20
2.09482
  30
0
  11
30.97352
  21
2.24434
  31
0
  0
LINE
  8
0
  10
30.97352
  20
2.24434
  30
0
  11
30.96487
  21
2.28172
  31
0
  0
LINE
  8
0
  10
30.96487
  20
2.28172
  30
0
  11
30.95645
  21
2.31911
  31
0
  0
LINE
  8
0
  10
30.95645
  20
2.31911
  30
0
  11
30.94827
  21
2.35651
  31
0
  0
LINE
  8
0
  10
30.94827
  20
2.35651
  30
0
  11
30.94035
  21
2.3939
  31
0
  0
LINE
  8
0
  10
30.94035
  20
2.3939
  30
0
  11
29.32808
  21
2.43807
  31
0
  0
LINE
  8
0
  10
29.32808
  20
2.43807
  30
0
  11
29.31812
  21
2.40117
  31
0
  0
LINE
  8
0
  10
29.31812
  20
2.40117
  30
0
  11
29.30791
  21
2.36428
  31
0
  0
LINE
  8
0
  10
29.30791
  20
2.36428
  30
0
  11
29.29746
  21
2.3274
  31
0
  0
LINE
  8
0
  10
29.29746
  20
2.3274
  30
0
  11
29.28677
  21
2.29054
  31
0
  0
LINE
  8
0
  10
29.28677
  20
2.29054
  30
0
  11
29.24174
  21
2.14327
  31
0
  0
LINE
  8
0
  10
29.24174
  20
2.14327
  30
0
  11
29.19326
  21
1.99624
  31
0
  0
LINE
  8
0
  10
29.19326
  20
1.99624
  30
0
  11
29.14157
  21
1.84947
  31
0
  0
LINE
  8
0
  10
29.14157
  20
1.84947
  30
0
  11
29.08683
  21
1.70295
  31
0
  0
LINE
  8
0
  10
29.08683
  20
1.70295
  30
0
  11
29.02918
  21
1.55669
  31
0
  0
LINE
  8
0
  10
29.02918
  20
1.55669
  30
0
  11
28.96874
  21
1.41068
  31
0
  0
LINE
  8
0
  10
28.96874
  20
1.41068
  30
0
  11
28.90561
  21
1.26495
  31
0
  0
LINE
  8
0
  10
28.90561
  20
1.26495
  30
0
  11
28.83987
  21
1.1195
  31
0
  0
LINE
  8
0
  10
28.83987
  20
1.1195
  30
0
  11
28.7716
  21
0.97433
  31
0
  0
LINE
  8
0
  10
28.7716
  20
0.97433
  30
0
  11
28.70087
  21
0.82945
  31
0
  0
LINE
  8
0
  10
28.70087
  20
0.82945
  30
0
  11
28.62772
  21
0.68488
  31
0
  0
LINE
  8
0
  10
28.62772
  20
0.68488
  30
0
  11
28.55223
  21
0.54061
  31
0
  0
LINE
  8
0
  10
28.55223
  20
0.54061
  30
0
  11
28.47442
  21
0.39666
  31
0
  0
LINE
  8
0
  10
28.47442
  20
0.39666
  30
0
  11
28.39435
  21
0.25305
  31
0
  0
LINE
  8
0
  10
28.39435
  20
0.25305
  30
0
  11
28.31205
  21
0.10977
  31
0
  0
LINE
  8
0
  10
28.31205
  20
0.10977
  30
0
  11
26.85862
  21
0.26727
  31
0
  0
LINE
  8
0
  10
26.85862
  20
0.26727
  30
0
  11
26.80893
  21
0.42485
  31
0
  0
LINE
  8
0
  10
26.80893
  20
0.42485
  30
0
  11
26.76148
  21
0.58228
  31
0
  0
LINE
  8
0
  10
26.76148
  20
0.58228
  30
0
  11
26.71631
  21
0.73956
  31
0
  0
LINE
  8
0
  10
26.71631
  20
0.73956
  30
0
  11
26.67347
  21
0.89665
  31
0
  0
LINE
  8
0
  10
26.67347
  20
0.89665
  30
0
  11
26.63299
  21
1.05353
  31
0
  0
LINE
  8
0
  10
26.63299
  20
1.05353
  30
0
  11
26.59493
  21
1.2102
  31
0
  0
LINE
  8
0
  10
26.59493
  20
1.2102
  30
0
  11
26.55935
  21
1.36662
  31
0
  0
LINE
  8
0
  10
26.55935
  20
1.36662
  30
0
  11
26.52629
  21
1.52278
  31
0
  0
LINE
  8
0
  10
26.52629
  20
1.52278
  30
0
  11
26.49584
  21
1.67866
  31
0
  0
LINE
  8
0
  10
26.49584
  20
1.67866
  30
0
  11
26.46808
  21
1.83421
  31
0
  0
LINE
  8
0
  10
26.46808
  20
1.83421
  30
0
  11
26.4431
  21
1.98943
  31
0
  0
LINE
  8
0
  10
26.4431
  20
1.98943
  30
0
  11
26.42102
  21
2.14428
  31
0
  0
LINE
  8
0
  10
26.42102
  20
2.14428
  30
0
  11
26.40197
  21
2.29872
  31
0
  0
LINE
  8
0
  10
26.40197
  20
2.29872
  30
0
  11
26.38611
  21
2.45271
  31
0
  0
LINE
  8
0
  10
26.38611
  20
2.45271
  30
0
  11
26.37367
  21
2.60622
  31
0
  0
LINE
  8
0
  10
26.37367
  20
2.60622
  30
0
  11
26.37113
  21
2.64451
  31
0
  0
LINE
  8
0
  10
26.37113
  20
2.64451
  30
0
  11
26.36882
  21
2.68277
  31
0
  0
LINE
  8
0
  10
26.36882
  20
2.68277
  30
0
  11
26.36675
  21
2.72099
  31
0
  0
LINE
  8
0
  10
26.36675
  20
2.72099
  30
0
  11
26.36492
  21
2.75917
  31
0
  0
LINE
  8
0
  10
26.36492
  20
2.75917
  30
0
  11
24.78062
  21
3.06139
  31
0
  0
LINE
  8
0
  10
24.78062
  20
3.06139
  30
0
  11
24.76487
  21
3.02656
  31
0
  0
LINE
  8
0
  10
24.76487
  20
3.02656
  30
0
  11
24.74887
  21
2.99179
  31
0
  0
LINE
  8
0
  10
24.74887
  20
2.99179
  30
0
  11
24.73264
  21
2.95707
  31
0
  0
LINE
  8
0
  10
24.73264
  20
2.95707
  30
0
  11
24.71618
  21
2.9224
  31
0
  0
LINE
  8
0
  10
24.71618
  20
2.9224
  30
0
  11
24.6481
  21
2.78426
  31
0
  0
LINE
  8
0
  10
24.6481
  20
2.78426
  30
0
  11
24.57667
  21
2.64691
  31
0
  0
LINE
  8
0
  10
24.57667
  20
2.64691
  30
0
  11
24.50211
  21
2.51033
  31
0
  0
LINE
  8
0
  10
24.50211
  20
2.51033
  30
0
  11
24.42457
  21
2.37449
  31
0
  0
LINE
  8
0
  10
24.42457
  20
2.37449
  30
0
  11
24.34421
  21
2.23936
  31
0
  0
LINE
  8
0
  10
24.34421
  20
2.23936
  30
0
  11
24.26113
  21
2.10495
  31
0
  0
LINE
  8
0
  10
24.26113
  20
2.10495
  30
0
  11
24.17544
  21
1.97123
  31
0
  0
LINE
  8
0
  10
24.17544
  20
1.97123
  30
0
  11
24.08722
  21
1.83821
  31
0
  0
LINE
  8
0
  10
24.08722
  20
1.83821
  30
0
  11
23.99655
  21
1.70587
  31
0
  0
LINE
  8
0
  10
23.99655
  20
1.70587
  30
0
  11
23.90349
  21
1.57421
  31
0
  0
LINE
  8
0
  10
23.90349
  20
1.57421
  30
0
  11
23.8081
  21
1.44324
  31
0
  0
LINE
  8
0
  10
23.8081
  20
1.44324
  30
0
  11
23.71044
  21
1.31296
  31
0
  0
LINE
  8
0
  10
23.71044
  20
1.31296
  30
0
  11
23.61055
  21
1.18336
  31
0
  0
LINE
  8
0
  10
23.61055
  20
1.18336
  30
0
  11
23.50848
  21
1.05444
  31
0
  0
LINE
  8
0
  10
23.50848
  20
1.05444
  30
0
  11
23.40426
  21
0.92622
  31
0
  0
LINE
  8
0
  10
23.40426
  20
0.92622
  30
0
  11
21.99492
  21
1.31483
  31
0
  0
LINE
  8
0
  10
21.99492
  20
1.31483
  30
0
  11
21.97114
  21
1.47834
  31
0
  0
LINE
  8
0
  10
21.97114
  20
1.47834
  30
0
  11
21.94956
  21
1.64135
  31
0
  0
LINE
  8
0
  10
21.94956
  20
1.64135
  30
0
  11
21.93021
  21
1.80383
  31
0
  0
LINE
  8
0
  10
21.93021
  20
1.80383
  30
0
  11
21.91312
  21
1.96576
  31
0
  0
LINE
  8
0
  10
21.91312
  20
1.96576
  30
0
  11
21.89834
  21
2.1271
  31
0
  0
LINE
  8
0
  10
21.89834
  20
2.1271
  30
0
  11
21.8859
  21
2.28785
  31
0
  0
LINE
  8
0
  10
21.8859
  20
2.28785
  30
0
  11
21.87587
  21
2.44795
  31
0
  0
LINE
  8
0
  10
21.87587
  20
2.44795
  30
0
  11
21.86829
  21
2.60739
  31
0
  0
LINE
  8
0
  10
21.86829
  20
2.60739
  30
0
  11
21.86324
  21
2.76613
  31
0
  0
LINE
  8
0
  10
21.86324
  20
2.76613
  30
0
  11
21.86079
  21
2.92413
  31
0
  0
LINE
  8
0
  10
21.86079
  20
2.92413
  30
0
  11
21.86103
  21
3.08134
  31
0
  0
LINE
  8
0
  10
21.86103
  20
3.08134
  30
0
  11
21.86407
  21
3.23773
  31
0
  0
LINE
  8
0
  10
21.86407
  20
3.23773
  30
0
  11
21.87004
  21
3.39322
  31
0
  0
LINE
  8
0
  10
21.87004
  20
3.39322
  30
0
  11
21.8791
  21
3.54777
  31
0
  0
LINE
  8
0
  10
21.8791
  20
3.54777
  30
0
  11
21.89144
  21
3.70128
  31
0
  0
LINE
  8
0
  10
21.89144
  20
3.70128
  30
0
  11
21.89507
  21
3.73948
  31
0
  0
LINE
  8
0
  10
21.89507
  20
3.73948
  30
0
  11
21.89893
  21
3.77762
  31
0
  0
LINE
  8
0
  10
21.89893
  20
3.77762
  30
0
  11
21.90301
  21
3.81567
  31
0
  0
LINE
  8
0
  10
21.90301
  20
3.81567
  30
0
  11
21.90734
  21
3.85366
  31
0
  0
LINE
  8
0
  10
21.90734
  20
3.85366
  30
0
  11
20.39203
  21
4.4061
  31
0
  0
LINE
  8
0
  10
20.39203
  20
4.4061
  30
0
  11
20.3709
  21
4.37425
  31
0
  0
LINE
  8
0
  10
20.3709
  20
4.37425
  30
0
  11
20.34953
  21
4.34249
  31
0
  0
LINE
  8
0
  10
20.34953
  20
4.34249
  30
0
  11
20.32794
  21
4.31083
  31
0
  0
LINE
  8
0
  10
20.32794
  20
4.31083
  30
0
  11
20.30613
  21
4.27925
  31
0
  0
LINE
  8
0
  10
20.30613
  20
4.27925
  30
0
  11
20.21678
  21
4.15381
  31
0
  0
LINE
  8
0
  10
20.21678
  20
4.15381
  30
0
  11
20.12424
  21
4.0297
  31
0
  0
LINE
  8
0
  10
20.12424
  20
4.0297
  30
0
  11
20.02873
  21
3.90685
  31
0
  0
LINE
  8
0
  10
20.02873
  20
3.90685
  30
0
  11
19.93041
  21
3.78521
  31
0
  0
LINE
  8
0
  10
19.93041
  20
3.78521
  30
0
  11
19.82941
  21
3.66473
  31
0
  0
LINE
  8
0
  10
19.82941
  20
3.66473
  30
0
  11
19.72585
  21
3.54538
  31
0
  0
LINE
  8
0
  10
19.72585
  20
3.54538
  30
0
  11
19.61981
  21
3.42714
  31
0
  0
LINE
  8
0
  10
19.61981
  20
3.42714
  30
0
  11
19.5114
  21
3.30999
  31
0
  0
LINE
  8
0
  10
19.5114
  20
3.30999
  30
0
  11
19.40067
  21
3.19391
  31
0
  0
LINE
  8
0
  10
19.40067
  20
3.19391
  30
0
  11
19.2877
  21
3.07889
  31
0
  0
LINE
  8
0
  10
19.2877
  20
3.07889
  30
0
  11
19.17254
  21
2.96491
  31
0
  0
LINE
  8
0
  10
19.17254
  20
2.96491
  30
0
  11
19.05524
  21
2.85198
  31
0
  0
LINE
  8
0
  10
19.05524
  20
2.85198
  30
0
  11
18.93586
  21
2.74008
  31
0
  0
LINE
  8
0
  10
18.93586
  20
2.74008
  30
0
  11
18.81443
  21
2.62921
  31
0
  0
LINE
  8
0
  10
18.81443
  20
2.62921
  30
0
  11
18.69099
  21
2.51937
  31
0
  0
LINE
  8
0
  10
18.69099
  20
2.51937
  30
0
  11
17.36224
  21
3.12902
  31
0
  0
LINE
  8
0
  10
17.36224
  20
3.12902
  30
0
  11
17.365
  21
3.29422
  31
0
  0
LINE
  8
0
  10
17.365
  20
3.29422
  30
0
  11
17.36985
  21
3.45858
  31
0
  0
LINE
  8
0
  10
17.36985
  20
3.45858
  30
0
  11
17.37681
  21
3.62206
  31
0
  0
LINE
  8
0
  10
17.37681
  20
3.62206
  30
0
  11
17.38592
  21
3.78463
  31
0
  0
LINE
  8
0
  10
17.38592
  20
3.78463
  30
0
  11
17.3972
  21
3.94627
  31
0
  0
LINE
  8
0
  10
17.3972
  20
3.94627
  30
0
  11
17.41072
  21
4.10692
  31
0
  0
LINE
  8
0
  10
17.41072
  20
4.10692
  30
0
  11
17.42649
  21
4.26656
  31
0
  0
LINE
  8
0
  10
17.42649
  20
4.26656
  30
0
  11
17.44459
  21
4.42516
  31
0
  0
LINE
  8
0
  10
17.44459
  20
4.42516
  30
0
  11
17.46507
  21
4.58265
  31
0
  0
LINE
  8
0
  10
17.46507
  20
4.58265
  30
0
  11
17.488
  21
4.73899
  31
0
  0
LINE
  8
0
  10
17.488
  20
4.73899
  30
0
  11
17.51345
  21
4.89413
  31
0
  0
LINE
  8
0
  10
17.51345
  20
4.89413
  30
0
  11
17.54154
  21
5.048
  31
0
  0
LINE
  8
0
  10
17.54154
  20
5.048
  30
0
  11
17.57238
  21
5.20053
  31
0
  0
LINE
  8
0
  10
17.57238
  20
5.20053
  30
0
  11
17.60611
  21
5.35162
  31
0
  0
LINE
  8
0
  10
17.60611
  20
5.35162
  30
0
  11
17.64291
  21
5.50116
  31
0
  0
LINE
  8
0
  10
17.64291
  20
5.50116
  30
0
  11
17.65263
  21
5.53829
  31
0
  0
LINE
  8
0
  10
17.65263
  20
5.53829
  30
0
  11
17.66255
  21
5.57531
  31
0
  0
LINE
  8
0
  10
17.66255
  20
5.57531
  30
0
  11
17.67269
  21
5.61222
  31
0
  0
LINE
  8
0
  10
17.67269
  20
5.61222
  30
0
  11
17.68305
  21
5.64901
  31
0
  0
LINE
  8
0
  10
17.68305
  20
5.64901
  30
0
  11
16.27598
  21
6.43738
  31
0
  0
LINE
  8
0
  10
16.27598
  20
6.43738
  30
0
  11
16.25001
  21
6.40933
  31
0
  0
LINE
  8
0
  10
16.25001
  20
6.40933
  30
0
  11
16.22383
  21
6.38141
  31
0
  0
LINE
  8
0
  10
16.22383
  20
6.38141
  30
0
  11
16.19744
  21
6.35362
  31
0
  0
LINE
  8
0
  10
16.19744
  20
6.35362
  30
0
  11
16.17084
  21
6.32595
  31
0
  0
LINE
  8
0
  10
16.17084
  20
6.32595
  30
0
  11
16.06253
  21
6.21647
  31
0
  0
LINE
  8
0
  10
16.06253
  20
6.21647
  30
0
  11
15.95128
  21
6.10881
  31
0
  0
LINE
  8
0
  10
15.95128
  20
6.10881
  30
0
  11
15.8373
  21
6.00287
  31
0
  0
LINE
  8
0
  10
15.8373
  20
6.00287
  30
0
  11
15.72074
  21
5.89857
  31
0
  0
LINE
  8
0
  10
15.72074
  20
5.89857
  30
0
  11
15.60172
  21
5.79586
  31
0
  0
LINE
  8
0
  10
15.60172
  20
5.79586
  30
0
  11
15.48035
  21
5.69467
  31
0
  0
LINE
  8
0
  10
15.48035
  20
5.69467
  30
0
  11
15.35673
  21
5.59497
  31
0
  0
LINE
  8
0
  10
15.35673
  20
5.59497
  30
0
  11
15.23092
  21
5.49672
  31
0
  0
LINE
  8
0
  10
15.23092
  20
5.49672
  30
0
  11
15.10301
  21
5.39991
  31
0
  0
LINE
  8
0
  10
15.10301
  20
5.39991
  30
0
  11
14.97305
  21
5.3045
  31
0
  0
LINE
  8
0
  10
14.97305
  20
5.3045
  30
0
  11
14.8411
  21
5.21047
  31
0
  0
LINE
  8
0
  10
14.8411
  20
5.21047
  30
0
  11
14.7072
  21
5.11782
  31
0
  0
LINE
  8
0
  10
14.7072
  20
5.11782
  30
0
  11
14.57142
  21
5.02652
  31
0
  0
LINE
  8
0
  10
14.57142
  20
5.02652
  30
0
  11
14.43377
  21
4.93656
  31
0
  0
LINE
  8
0
  10
14.43377
  20
4.93656
  30
0
  11
14.29432
  21
4.84794
  31
0
  0
LINE
  8
0
  10
14.29432
  20
4.84794
  30
0
  11
13.08056
  21
5.66284
  31
0
  0
LINE
  8
0
  10
13.08056
  20
5.66284
  30
0
  11
13.10979
  21
5.82547
  31
0
  0
LINE
  8
0
  10
13.10979
  20
5.82547
  30
0
  11
13.14094
  21
5.98692
  31
0
  0
LINE
  8
0
  10
13.14094
  20
5.98692
  30
0
  11
13.17404
  21
6.14717
  31
0
  0
LINE
  8
0
  10
13.17404
  20
6.14717
  30
0
  11
13.2091
  21
6.30617
  31
0
  0
LINE
  8
0
  10
13.2091
  20
6.30617
  30
0
  11
13.24617
  21
6.4639
  31
0
  0
LINE
  8
0
  10
13.24617
  20
6.4639
  30
0
  11
13.28528
  21
6.62031
  31
0
  0
LINE
  8
0
  10
13.28528
  20
6.62031
  30
0
  11
13.32646
  21
6.77535
  31
0
  0
LINE
  8
0
  10
13.32646
  20
6.77535
  30
0
  11
13.36977
  21
6.92899
  31
0
  0
LINE
  8
0
  10
13.36977
  20
6.92899
  30
0
  11
13.41524
  21
7.08116
  31
0
  0
LINE
  8
0
  10
13.41524
  20
7.08116
  30
0
  11
13.46295
  21
7.2318
  31
0
  0
LINE
  8
0
  10
13.46295
  20
7.2318
  30
0
  11
13.51297
  21
7.38084
  31
0
  0
LINE
  8
0
  10
13.51297
  20
7.38084
  30
0
  11
13.56537
  21
7.52822
  31
0
  0
LINE
  8
0
  10
13.56537
  20
7.52822
  30
0
  11
13.62028
  21
7.67382
  31
0
  0
LINE
  8
0
  10
13.62028
  20
7.67382
  30
0
  11
13.6778
  21
7.81754
  31
0
  0
LINE
  8
0
  10
13.6778
  20
7.81754
  30
0
  11
13.73813
  21
7.95925
  31
0
  0
LINE
  8
0
  10
13.73813
  20
7.95925
  30
0
  11
13.75367
  21
7.99434
  31
0
  0
LINE
  8
0
  10
13.75367
  20
7.99434
  30
0
  11
13.7694
  21
8.02928
  31
0
  0
LINE
  8
0
  10
13.7694
  20
8.02928
  30
0
  11
13.78533
  21
8.06409
  31
0
  0
LINE
  8
0
  10
13.78533
  20
8.06409
  30
0
  11
13.80146
  21
8.09875
  31
0
  0
LINE
  8
0
  10
13.80146
  20
8.09875
  30
0
  11
12.53908
  21
9.10261
  31
0
  0
LINE
  8
0
  10
12.53908
  20
9.10261
  30
0
  11
12.50894
  21
9.07909
  31
0
  0
LINE
  8
0
  10
12.50894
  20
9.07909
  30
0
  11
12.47862
  21
9.05573
  31
0
  0
LINE
  8
0
  10
12.47862
  20
9.05573
  30
0
  11
12.44811
  21
9.03253
  31
0
  0
LINE
  8
0
  10
12.44811
  20
9.03253
  30
0
  11
12.41742
  21
9.00949
  31
0
  0
LINE
  8
0
  10
12.41742
  20
9.00949
  30
0
  11
12.29295
  21
8.91881
  31
0
  0
LINE
  8
0
  10
12.29295
  20
8.91881
  30
0
  11
12.16587
  21
8.83039
  31
0
  0
LINE
  8
0
  10
12.16587
  20
8.83039
  30
0
  11
12.03637
  21
8.7441
  31
0
  0
LINE
  8
0
  10
12.03637
  20
8.7441
  30
0
  11
11.90459
  21
8.65985
  31
0
  0
LINE
  8
0
  10
11.90459
  20
8.65985
  30
0
  11
11.77064
  21
8.57756
  31
0
  0
LINE
  8
0
  10
11.77064
  20
8.57756
  30
0
  11
11.63461
  21
8.49715
  31
0
  0
LINE
  8
0
  10
11.63461
  20
8.49715
  30
0
  11
11.49659
  21
8.41857
  31
0
  0
LINE
  8
0
  10
11.49659
  20
8.41857
  30
0
  11
11.35666
  21
8.34178
  31
0
  0
LINE
  8
0
  10
11.35666
  20
8.34178
  30
0
  11
11.21487
  21
8.26673
  31
0
  0
LINE
  8
0
  10
11.21487
  20
8.26673
  30
0
  11
11.07129
  21
8.19341
  31
0
  0
LINE
  8
0
  10
11.07129
  20
8.19341
  30
0
  11
10.92596
  21
8.12177
  31
0
  0
LINE
  8
0
  10
10.92596
  20
8.12177
  30
0
  11
10.77894
  21
8.05179
  31
0
  0
LINE
  8
0
  10
10.77894
  20
8.05179
  30
0
  11
10.63026
  21
7.98345
  31
0
  0
LINE
  8
0
  10
10.63026
  20
7.98345
  30
0
  11
10.47997
  21
7.91674
  31
0
  0
LINE
  8
0
  10
10.47997
  20
7.91674
  30
0
  11
10.32811
  21
7.85164
  31
0
  0
LINE
  8
0
  10
10.32811
  20
7.85164
  30
0
  11
9.26079
  21
8.85069
  31
0
  0
LINE
  8
0
  10
9.26079
  20
8.85069
  30
0
  11
9.31573
  21
9.00652
  31
0
  0
LINE
  8
0
  10
9.31573
  20
9.00652
  30
0
  11
9.37237
  21
9.16088
  31
0
  0
LINE
  8
0
  10
9.37237
  20
9.16088
  30
0
  11
9.43075
  21
9.31375
  31
0
  0
LINE
  8
0
  10
9.43075
  20
9.31375
  30
0
  11
9.49087
  21
9.46507
  31
0
  0
LINE
  8
0
  10
9.49087
  20
9.46507
  30
0
  11
9.55276
  21
9.61481
  31
0
  0
LINE
  8
0
  10
9.55276
  20
9.61481
  30
0
  11
9.61645
  21
9.76292
  31
0
  0
LINE
  8
0
  10
9.61645
  20
9.76292
  30
0
  11
9.68197
  21
9.90935
  31
0
  0
LINE
  8
0
  10
9.68197
  20
9.90935
  30
0
  11
9.74935
  21
10.05404
  31
0
  0
LINE
  8
0
  10
9.74935
  20
10.05404
  30
0
  11
9.81865
  21
10.19695
  31
0
  0
LINE
  8
0
  10
9.81865
  20
10.19695
  30
0
  11
9.88991
  21
10.33799
  31
0
  0
LINE
  8
0
  10
9.88991
  20
10.33799
  30
0
  11
9.96318
  21
10.47708
  31
0
  0
LINE
  8
0
  10
9.96318
  20
10.47708
  30
0
  11
10.03855
  21
10.61414
  31
0
  0
LINE
  8
0
  10
10.03855
  20
10.61414
  30
0
  11
10.1161
  21
10.74905
  31
0
  0
LINE
  8
0
  10
10.1161
  20
10.74905
  30
0
  11
10.19594
  21
10.88168
  31
0
  0
LINE
  8
0
  10
10.19594
  20
10.88168
  30
0
  11
10.27821
  21
11.01187
  31
0
  0
LINE
  8
0
  10
10.27821
  20
11.01187
  30
0
  11
10.29918
  21
11.04401
  31
0
  0
LINE
  8
0
  10
10.29918
  20
11.04401
  30
0
  11
10.32031
  21
11.07599
  31
0
  0
LINE
  8
0
  10
10.32031
  20
11.07599
  30
0
  11
10.34162
  21
11.10779
  31
0
  0
LINE
  8
0
  10
10.34162
  20
11.10779
  30
0
  11
10.3631
  21
11.13941
  31
0
  0
LINE
  8
0
  10
10.3631
  20
11.13941
  30
0
  11
9.2781
  21
12.33277
  31
0
  0
LINE
  8
0
  10
9.2781
  20
12.33277
  30
0
  11
9.24458
  21
12.31439
  31
0
  0
LINE
  8
0
  10
9.24458
  20
12.31439
  30
0
  11
9.2109
  21
12.2962
  31
0
  0
LINE
  8
0
  10
9.2109
  20
12.2962
  30
0
  11
9.17707
  21
12.27819
  31
0
  0
LINE
  8
0
  10
9.17707
  20
12.27819
  30
0
  11
9.14308
  21
12.26037
  31
0
  0
LINE
  8
0
  10
9.14308
  20
12.26037
  30
0
  11
9.00567
  21
12.19083
  31
0
  0
LINE
  8
0
  10
9.00567
  20
12.19083
  30
0
  11
8.86606
  21
12.12394
  31
0
  0
LINE
  8
0
  10
8.86606
  20
12.12394
  30
0
  11
8.72439
  21
12.05954
  31
0
  0
LINE
  8
0
  10
8.72439
  20
12.05954
  30
0
  11
8.5808
  21
11.99753
  31
0
  0
LINE
  8
0
  10
8.5808
  20
11.99753
  30
0
  11
8.43538
  21
11.93778
  31
0
  0
LINE
  8
0
  10
8.43538
  20
11.93778
  30
0
  11
8.28822
  21
11.88023
  31
0
  0
LINE
  8
0
  10
8.28822
  20
11.88023
  30
0
  11
8.13938
  21
11.82481
  31
0
  0
LINE
  8
0
  10
8.13938
  20
11.82481
  30
0
  11
7.98894
  21
11.77146
  31
0
  0
LINE
  8
0
  10
7.98894
  20
11.77146
  30
0
  11
7.83695
  21
11.72014
  31
0
  0
LINE
  8
0
  10
7.83695
  20
11.72014
  30
0
  11
7.68347
  21
11.67079
  31
0
  0
LINE
  8
0
  10
7.68347
  20
11.67079
  30
0
  11
7.52853
  21
11.62339
  31
0
  0
LINE
  8
0
  10
7.52853
  20
11.62339
  30
0
  11
7.37219
  21
11.5779
  31
0
  0
LINE
  8
0
  10
7.37219
  20
11.5779
  30
0
  11
7.21448
  21
11.5343
  31
0
  0
LINE
  8
0
  10
7.21448
  20
11.5343
  30
0
  11
7.05543
  21
11.49256
  31
0
  0
LINE
  8
0
  10
7.05543
  20
11.49256
  30
0
  11
6.89509
  21
11.45267
  31
0
  0
LINE
  8
0
  10
6.89509
  20
11.45267
  30
0
  11
6.00185
  21
12.60999
  31
0
  0
LINE
  8
0
  10
6.00185
  20
12.60999
  30
0
  11
6.08107
  21
12.75499
  31
0
  0
LINE
  8
0
  10
6.08107
  20
12.75499
  30
0
  11
6.16175
  21
12.89827
  31
0
  0
LINE
  8
0
  10
6.16175
  20
12.89827
  30
0
  11
6.24388
  21
13.03979
  31
0
  0
LINE
  8
0
  10
6.24388
  20
13.03979
  30
0
  11
6.3275
  21
13.1795
  31
0
  0
LINE
  8
0
  10
6.3275
  20
13.1795
  30
0
  11
6.41261
  21
13.31737
  31
0
  0
LINE
  8
0
  10
6.41261
  20
13.31737
  30
0
  11
6.49923
  21
13.45335
  31
0
  0
LINE
  8
0
  10
6.49923
  20
13.45335
  30
0
  11
6.58739
  21
13.58737
  31
0
  0
LINE
  8
0
  10
6.58739
  20
13.58737
  30
0
  11
6.67712
  21
13.71939
  31
0
  0
LINE
  8
0
  10
6.67712
  20
13.71939
  30
0
  11
6.76844
  21
13.84932
  31
0
  0
LINE
  8
0
  10
6.76844
  20
13.84932
  30
0
  11
6.8614
  21
13.97711
  31
0
  0
LINE
  8
0
  10
6.8614
  20
13.97711
  30
0
  11
6.95604
  21
14.10264
  31
0
  0
LINE
  8
0
  10
6.95604
  20
14.10264
  30
0
  11
7.05242
  21
14.22584
  31
0
  0
LINE
  8
0
  10
7.05242
  20
14.22584
  30
0
  11
7.1506
  21
14.34656
  31
0
  0
LINE
  8
0
  10
7.1506
  20
14.34656
  30
0
  11
7.25068
  21
14.46467
  31
0
  0
LINE
  8
0
  10
7.25068
  20
14.46467
  30
0
  11
7.35277
  21
14.57998
  31
0
  0
LINE
  8
0
  10
7.35277
  20
14.57998
  30
0
  11
7.37862
  21
14.60834
  31
0
  0
LINE
  8
0
  10
7.37862
  20
14.60834
  30
0
  11
7.40461
  21
14.63651
  31
0
  0
LINE
  8
0
  10
7.40461
  20
14.63651
  30
0
  11
7.43074
  21
14.66448
  31
0
  0
LINE
  8
0
  10
7.43074
  20
14.66448
  30
0
  11
7.45702
  21
14.69224
  31
0
  0
LINE
  8
0
  10
7.45702
  20
14.69224
  30
0
  11
6.5775
  21
16.0442
  31
0
  0
LINE
  8
0
  10
6.5775
  20
16.0442
  30
0
  11
6.54147
  21
16.03143
  31
0
  0
LINE
  8
0
  10
6.54147
  20
16.03143
  30
0
  11
6.50531
  21
16.01888
  31
0
  0
LINE
  8
0
  10
6.50531
  20
16.01888
  30
0
  11
6.46902
  21
16.00654
  31
0
  0
LINE
  8
0
  10
6.46902
  20
16.00654
  30
0
  11
6.43261
  21
15.9944
  31
0
  0
LINE
  8
0
  10
6.43261
  20
15.9944
  30
0
  11
6.28583
  21
15.9478
  31
0
  0
LINE
  8
0
  10
6.28583
  20
15.9478
  30
0
  11
6.13729
  21
15.90417
  31
0
  0
LINE
  8
0
  10
6.13729
  20
15.90417
  30
0
  11
5.98714
  21
15.86333
  31
0
  0
LINE
  8
0
  10
5.98714
  20
15.86333
  30
0
  11
5.83546
  21
15.82515
  31
0
  0
LINE
  8
0
  10
5.83546
  20
15.82515
  30
0
  11
5.68233
  21
15.78951
  31
0
  0
LINE
  8
0
  10
5.68233
  20
15.78951
  30
0
  11
5.52784
  21
15.75631
  31
0
  0
LINE
  8
0
  10
5.52784
  20
15.75631
  30
0
  11
5.37205
  21
15.72548
  31
0
  0
LINE
  8
0
  10
5.37205
  20
15.72548
  30
0
  11
5.215
  21
15.69696
  31
0
  0
LINE
  8
0
  10
5.215
  20
15.69696
  30
0
  11
5.05674
  21
15.67068
  31
0
  0
LINE
  8
0
  10
5.05674
  20
15.67068
  30
0
  11
4.89733
  21
15.64659
  31
0
  0
LINE
  8
0
  10
4.89733
  20
15.64659
  30
0
  11
4.7368
  21
15.62466
  31
0
  0
LINE
  8
0
  10
4.7368
  20
15.62466
  30
0
  11
4.57518
  21
15.60484
  31
0
  0
LINE
  8
0
  10
4.57518
  20
15.60484
  30
0
  11
4.41252
  21
15.5871
  31
0
  0
LINE
  8
0
  10
4.41252
  20
15.5871
  30
0
  11
4.24884
  21
15.57141
  31
0
  0
LINE
  8
0
  10
4.24884
  20
15.57141
  30
0
  11
4.08417
  21
15.55775
  31
0
  0
LINE
  8
0
  10
4.08417
  20
15.55775
  30
0
  11
3.38815
  21
16.84337
  31
0
  0
LINE
  8
0
  10
3.38815
  20
16.84337
  30
0
  11
3.4896
  21
16.97379
  31
0
  0
LINE
  8
0
  10
3.4896
  20
16.97379
  30
0
  11
3.59222
  21
17.10227
  31
0
  0
LINE
  8
0
  10
3.59222
  20
17.10227
  30
0
  11
3.69599
  21
17.22878
  31
0
  0
LINE
  8
0
  10
3.69599
  20
17.22878
  30
0
  11
3.80093
  21
17.35328
  31
0
  0
LINE
  8
0
  10
3.80093
  20
17.35328
  30
0
  11
3.90706
  21
17.47571
  31
0
  0
LINE
  8
0
  10
3.90706
  20
17.47571
  30
0
  11
4.01437
  21
17.59603
  31
0
  0
LINE
  8
0
  10
4.01437
  20
17.59603
  30
0
  11
4.12289
  21
17.71417
  31
0
  0
LINE
  8
0
  10
4.12289
  20
17.71417
  30
0
  11
4.23263
  21
17.83009
  31
0
  0
LINE
  8
0
  10
4.23263
  20
17.83009
  30
0
  11
4.34361
  21
17.94369
  31
0
  0
LINE
  8
0
  10
4.34361
  20
17.94369
  30
0
  11
4.45587
  21
18.05491
  31
0
  0
LINE
  8
0
  10
4.45587
  20
18.05491
  30
0
  11
4.56942
  21
18.16364
  31
0
  0
LINE
  8
0
  10
4.56942
  20
18.16364
  30
0
  11
4.68431
  21
18.26977
  31
0
  0
LINE
  8
0
  10
4.68431
  20
18.26977
  30
0
  11
4.80059
  21
18.37319
  31
0
  0
LINE
  8
0
  10
4.80059
  20
18.37319
  30
0
  11
4.91832
  21
18.47371
  31
0
  0
LINE
  8
0
  10
4.91832
  20
18.47371
  30
0
  11
5.03758
  21
18.57115
  31
0
  0
LINE
  8
0
  10
5.03758
  20
18.57115
  30
0
  11
5.06765
  21
18.595
  31
0
  0
LINE
  8
0
  10
5.06765
  20
18.595
  30
0
  11
5.09782
  21
18.61863
  31
0
  0
LINE
  8
0
  10
5.09782
  20
18.61863
  30
0
  11
5.1281
  21
18.64205
  31
0
  0
LINE
  8
0
  10
5.1281
  20
18.64205
  30
0
  11
5.15849
  21
18.66524
  31
0
  0
LINE
  8
0
  10
5.15849
  20
18.66524
  30
0
  11
4.50723
  21
20.14078
  31
0
  0
LINE
  8
0
  10
4.50723
  20
20.14078
  30
0
  11
4.46961
  21
20.13395
  31
0
  0
LINE
  8
0
  10
4.46961
  20
20.13395
  30
0
  11
4.43191
  21
20.12736
  31
0
  0
LINE
  8
0
  10
4.43191
  20
20.12736
  30
0
  11
4.39411
  21
20.121
  31
0
  0
LINE
  8
0
  10
4.39411
  20
20.121
  30
0
  11
4.35623
  21
20.11486
  31
0
  0
LINE
  8
0
  10
4.35623
  20
20.11486
  30
0
  11
4.20387
  21
20.09241
  31
0
  0
LINE
  8
0
  10
4.20387
  20
20.09241
  30
0
  11
4.05026
  21
20.07317
  31
0
  0
LINE
  8
0
  10
4.05026
  20
20.07317
  30
0
  11
3.8955
  21
20.05695
  31
0
  0
LINE
  8
0
  10
3.8955
  20
20.05695
  30
0
  11
3.73965
  21
20.04359
  31
0
  0
LINE
  8
0
  10
3.73965
  20
20.04359
  30
0
  11
3.5828
  21
20.03297
  31
0
  0
LINE
  8
0
  10
3.5828
  20
20.03297
  30
0
  11
3.42498
  21
20.02499
  31
0
  0
LINE
  8
0
  10
3.42498
  20
20.02499
  30
0
  11
3.26626
  21
20.01955
  31
0
  0
LINE
  8
0
  10
3.26626
  20
20.01955
  30
0
  11
3.10667
  21
20.01659
  31
0
  0
LINE
  8
0
  10
3.10667
  20
20.01659
  30
0
  11
2.94625
  21
20.01603
  31
0
  0
LINE
  8
0
  10
2.94625
  20
20.01603
  30
0
  11
2.78503
  21
20.01783
  31
0
  0
LINE
  8
0
  10
2.78503
  20
20.01783
  30
0
  11
2.62306
  21
20.02193
  31
0
  0
LINE
  8
0
  10
2.62306
  20
20.02193
  30
0
  11
2.46036
  21
20.0283
  31
0
  0
LINE
  8
0
  10
2.46036
  20
20.0283
  30
0
  11
2.29696
  21
20.03688
  31
0
  0
LINE
  8
0
  10
2.29696
  20
20.03688
  30
0
  11
2.13288
  21
20.04765
  31
0
  0
LINE
  8
0
  10
2.13288
  20
20.04765
  30
0
  11
1.96815
  21
20.06058
  31
0
  0
LINE
  8
0
  10
1.96815
  20
20.06058
  30
0
  11
1.48737
  21
21.4412
  31
0
  0
LINE
  8
0
  10
1.48737
  20
21.4412
  30
0
  11
1.60843
  21
21.55366
  31
0
  0
LINE
  8
0
  10
1.60843
  20
21.55366
  30
0
  11
1.73033
  21
21.66401
  31
0
  0
LINE
  8
0
  10
1.73033
  20
21.66401
  30
0
  11
1.85305
  21
21.77224
  31
0
  0
LINE
  8
0
  10
1.85305
  20
21.77224
  30
0
  11
1.97661
  21
21.87829
  31
0
  0
LINE
  8
0
  10
1.97661
  20
21.87829
  30
0
  11
2.101
  21
21.98211
  31
0
  0
LINE
  8
0
  10
2.101
  20
21.98211
  30
0
  11
2.22622
  21
22.08366
  31
0
  0
LINE
  8
0
  10
2.22622
  20
22.08366
  30
0
  11
2.35229
  21
22.18287
  31
0
  0
LINE
  8
0
  10
2.35229
  20
22.18287
  30
0
  11
2.4792
  21
22.27968
  31
0
  0
LINE
  8
0
  10
2.4792
  20
22.27968
  30
0
  11
2.60697
  21
22.37401
  31
0
  0
LINE
  8
0
  10
2.60697
  20
22.37401
  30
0
  11
2.73561
  21
22.46578
  31
0
  0
LINE
  8
0
  10
2.73561
  20
22.46578
  30
0
  11
2.86513
  21
22.55488
  31
0
  0
LINE
  8
0
  10
2.86513
  20
22.55488
  30
0
  11
2.99556
  21
22.64122
  31
0
  0
LINE
  8
0
  10
2.99556
  20
22.64122
  30
0
  11
3.12692
  21
22.72464
  31
0
  0
LINE
  8
0
  10
3.12692
  20
22.72464
  30
0
  11
3.25925
  21
22.80497
  31
0
  0
LINE
  8
0
  10
3.25925
  20
22.80497
  30
0
  11
3.3926
  21
22.88202
  31
0
  0
LINE
  8
0
  10
3.3926
  20
22.88202
  30
0
  11
3.42611
  21
22.90074
  31
0
  0
LINE
  8
0
  10
3.42611
  20
22.90074
  30
0
  11
3.45968
  21
22.91922
  31
0
  0
LINE
  8
0
  10
3.45968
  20
22.91922
  30
0
  11
3.49332
  21
22.93748
  31
0
  0
LINE
  8
0
  10
3.49332
  20
22.93748
  30
0
  11
3.52704
  21
22.9555
  31
0
  0
LINE
  8
0
  10
3.52704
  20
22.9555
  30
0
  11
3.1209
  21
24.5164
  31
0
  0
LINE
  8
0
  10
3.1209
  20
24.5164
  30
0
  11
3.08268
  21
24.51569
  31
0
  0
LINE
  8
0
  10
3.08268
  20
24.51569
  30
0
  11
3.04441
  21
24.51524
  31
0
  0
LINE
  8
0
  10
3.04441
  20
24.51524
  30
0
  11
3.00608
  21
24.51502
  31
0
  0
LINE
  8
0
  10
3.00608
  20
24.51502
  30
0
  11
2.9677
  21
24.51503
  31
0
  0
LINE
  8
0
  10
2.9677
  20
24.51503
  30
0
  11
2.81371
  21
24.51731
  31
0
  0
LINE
  8
0
  10
2.81371
  20
24.51731
  30
0
  11
2.65901
  21
24.52297
  31
0
  0
LINE
  8
0
  10
2.65901
  20
24.52297
  30
0
  11
2.50365
  21
24.53178
  31
0
  0
LINE
  8
0
  10
2.50365
  20
24.53178
  30
0
  11
2.34768
  21
24.5436
  31
0
  0
LINE
  8
0
  10
2.34768
  20
24.5436
  30
0
  11
2.19115
  21
24.55828
  31
0
  0
LINE
  8
0
  10
2.19115
  20
24.55828
  30
0
  11
2.0341
  21
24.57571
  31
0
  0
LINE
  8
0
  10
2.0341
  20
24.57571
  30
0
  11
1.87656
  21
24.59581
  31
0
  0
LINE
  8
0
  10
1.87656
  20
24.59581
  30
0
  11
1.71856
  21
24.61848
  31
0
  0
LINE
  8
0
  10
1.71856
  20
24.61848
  30
0
  11
1.56013
  21
24.64366
  31
0
  0
LINE
  8
0
  10
1.56013
  20
24.64366
  30
0
  11
1.40129
  21
24.6713
  31
0
  0
LINE
  8
0
  10
1.40129
  20
24.6713
  30
0
  11
1.24207
  21
24.70133
  31
0
  0
LINE
  8
0
  10
1.24207
  20
24.70133
  30
0
  11
1.0825
  21
24.73371
  31
0
  0
LINE
  8
0
  10
1.0825
  20
24.73371
  30
0
  11
0.92259
  21
24.7684
  31
0
  0
LINE
  8
0
  10
0.92259
  20
24.7684
  30
0
  11
0.76236
  21
24.80535
  31
0
  0
LINE
  8
0
  10
0.76236
  20
24.80535
  30
0
  11
0.60185
  21
24.84454
  31
0
  0
LINE
  8
0
  10
0.60185
  20
24.84454
  30
0
  11
0.34876
  21
26.2844
  31
0
  0
LINE
  8
0
  10
0.34876
  20
26.2844
  30
0
  11
0.48629
  21
26.37598
  31
0
  0
LINE
  8
0
  10
0.48629
  20
26.37598
  30
0
  11
0.62431
  21
26.46535
  31
0
  0
LINE
  8
0
  10
0.62431
  20
26.46535
  30
0
  11
0.7628
  21
26.55249
  31
0
  0
LINE
  8
0
  10
0.7628
  20
26.55249
  30
0
  11
0.90177
  21
26.63735
  31
0
  0
LINE
  8
0
  10
0.90177
  20
26.63735
  30
0
  11
1.0412
  21
26.71987
  31
0
  0
LINE
  8
0
  10
1.0412
  20
26.71987
  30
0
  11
1.1811
  21
26.80002
  31
0
  0
LINE
  8
0
  10
1.1811
  20
26.80002
  30
0
  11
1.32144
  21
26.87772
  31
0
  0
LINE
  8
0
  10
1.32144
  20
26.87772
  30
0
  11
1.46224
  21
26.95292
  31
0
  0
LINE
  8
0
  10
1.46224
  20
26.95292
  30
0
  11
1.60349
  21
27.02553
  31
0
  0
LINE
  8
0
  10
1.60349
  20
27.02553
  30
0
  11
1.74518
  21
27.09547
  31
0
  0
LINE
  8
0
  10
1.74518
  20
27.09547
  30
0
  11
1.88732
  21
27.16265
  31
0
  0
LINE
  8
0
  10
1.88732
  20
27.16265
  30
0
  11
2.02991
  21
27.22694
  31
0
  0
LINE
  8
0
  10
2.02991
  20
27.22694
  30
0
  11
2.17295
  21
27.28821
  31
0
  0
LINE
  8
0
  10
2.17295
  20
27.28821
  30
0
  11
2.31645
  21
27.34628
  31
0
  0
LINE
  8
0
  10
2.31645
  20
27.34628
  30
0
  11
2.46044
  21
27.40094
  31
0
  0
LINE
  8
0
  10
2.46044
  20
27.40094
  30
0
  11
2.49651
  21
27.41404
  31
0
  0
LINE
  8
0
  10
2.49651
  20
27.41404
  30
0
  11
2.53261
  21
27.4269
  31
0
  0
LINE
  8
0
  10
2.53261
  20
27.4269
  30
0
  11
2.56875
  21
27.43952
  31
0
  0
LINE
  8
0
  10
2.56875
  20
27.43952
  30
0
  11
2.60492
  21
27.4519
  31
0
  0
LINE
  8
0
  10
2.60492
  20
27.4519
  30
0
  11
2.45443
  21
29.05773
  31
0
  0
LINE
  8
0
  10
2.45443
  20
29.05773
  30
0
  11
2.41659
  21
29.06317
  31
0
  0
LINE
  8
0
  10
2.41659
  20
29.06317
  30
0
  11
2.37874
  21
29.06886
  31
0
  0
LINE
  8
0
  10
2.37874
  20
29.06886
  30
0
  11
2.34087
  21
29.07479
  31
0
  0
LINE
  8
0
  10
2.34087
  20
29.07479
  30
0
  11
2.30299
  21
29.08096
  31
0
  0
LINE
  8
0
  10
2.30299
  20
29.08096
  30
0
  11
2.15136
  21
29.10792
  31
0
  0
LINE
  8
0
  10
2.15136
  20
29.10792
  30
0
  11
1.99957
  21
29.13831
  31
0
  0
LINE
  8
0
  10
1.99957
  20
29.13831
  30
0
  11
1.84763
  21
29.17194
  31
0
  0
LINE
  8
0
  10
1.84763
  20
29.17194
  30
0
  11
1.69558
  21
29.20862
  31
0
  0
LINE
  8
0
  10
1.69558
  20
29.20862
  30
0
  11
1.54344
  21
29.24821
  31
0
  0
LINE
  8
0
  10
1.54344
  20
29.24821
  30
0
  11
1.39121
  21
29.29062
  31
0
  0
LINE
  8
0
  10
1.39121
  20
29.29062
  30
0
  11
1.23894
  21
29.33572
  31
0
  0
LINE
  8
0
  10
1.23894
  20
29.33572
  30
0
  11
1.08662
  21
29.38345
  31
0
  0
LINE
  8
0
  10
1.08662
  20
29.38345
  30
0
  11
0.93428
  21
29.43372
  31
0
  0
LINE
  8
0
  10
0.93428
  20
29.43372
  30
0
  11
0.78193
  21
29.48648
  31
0
  0
LINE
  8
0
  10
0.78193
  20
29.48648
  30
0
  11
0.62959
  21
29.54166
  31
0
  0
LINE
  8
0
  10
0.62959
  20
29.54166
  30
0
  11
0.47728
  21
29.59922
  31
0
  0
LINE
  8
0
  10
0.47728
  20
29.59922
  30
0
  11
0.325
  21
29.65911
  31
0
  0
LINE
  8
0
  10
0.325
  20
29.65911
  30
0
  11
0.17278
  21
29.72128
  31
0
  0
LINE
  8
0
  10
0.17278
  20
29.72128
  30
0
  11
0.02063
  21
29.78571
  31
0
  0
LINE
  8
0
  10
0.02063
  20
29.78571
  30
0
  11
0.00179
  21
31.24753
  31
0
  0
LINE
  8
0
  10
0.00179
  20
31.24753
  30
0
  11
0.15223
  21
31.31586
  31
0
  0
LINE
  8
0
  10
0.15223
  20
31.31586
  30
0
  11
0.3028
  21
31.38194
  31
0
  0
LINE
  8
0
  10
0.3028
  20
31.38194
  30
0
  11
0.45348
  21
31.44573
  31
0
  0
LINE
  8
0
  10
0.45348
  20
31.44573
  30
0
  11
0.60426
  21
31.50719
  31
0
  0
LINE
  8
0
  10
0.60426
  20
31.50719
  30
0
  11
0.75512
  21
31.56628
  31
0
  0
LINE
  8
0
  10
0.75512
  20
31.56628
  30
0
  11
0.90606
  21
31.62295
  31
0
  0
LINE
  8
0
  10
0.90606
  20
31.62295
  30
0
  11
1.05706
  21
31.67713
  31
0
  0
LINE
  8
0
  10
1.05706
  20
31.67713
  30
0
  11
1.20809
  21
31.72877
  31
0
  0
LINE
  8
0
  10
1.20809
  20
31.72877
  30
0
  11
1.35916
  21
31.77778
  31
0
  0
LINE
  8
0
  10
1.35916
  20
31.77778
  30
0
  11
1.51023
  21
31.82409
  31
0
  0
LINE
  8
0
  10
1.51023
  20
31.82409
  30
0
  11
1.66131
  21
31.8676
  31
0
  0
LINE
  8
0
  10
1.66131
  20
31.8676
  30
0
  11
1.81236
  21
31.90819
  31
0
  0
LINE
  8
0
  10
1.81236
  20
31.90819
  30
0
  11
1.96338
  21
31.94572
  31
0
  0
LINE
  8
0
  10
1.96338
  20
31.94572
  30
0
  11
2.11434
  21
31.98002
  31
0
  0
LINE
  8
0
  10
2.11434
  20
31.98002
  30
0
  11
2.26523
  21
32.01087
  31
0
  0
LINE
  8
0
  10
2.26523
  20
32.01087
  30
0
  11
2.30293
  21
32.01801
  31
0
  0
LINE
  8
0
  10
2.30293
  20
32.01801
  30
0
  11
2.34063
  21
32.02492
  31
0
  0
LINE
  8
0
  10
2.34063
  20
32.02492
  30
0
  11
2.37833
  21
32.03158
  31
0
  0
LINE
  8
0
  10
2.37833
  20
32.03158
  30
0
  11
2.41601
  21
32.03799
  31
0
  0
LINE
  8
0
  10
2.41601
  20
32.03799
  30
0
  11
2.52506
  21
33.64717
  31
0
  0
LINE
  8
0
  10
2.52506
  20
33.64717
  30
0
  11
2.48859
  21
33.65861
  31
0
  0
LINE
  8
0
  10
2.48859
  20
33.65861
  30
0
  11
2.45214
  21
33.6703
  31
0
  0
LINE
  8
0
  10
2.45214
  20
33.6703
  30
0
  11
2.41572
  21
33.68223
  31
0
  0
LINE
  8
0
  10
2.41572
  20
33.68223
  30
0
  11
2.37932
  21
33.69439
  31
0
  0
LINE
  8
0
  10
2.37932
  20
33.69439
  30
0
  11
2.23398
  21
33.74532
  31
0
  0
LINE
  8
0
  10
2.23398
  20
33.74532
  30
0
  11
2.08902
  21
33.79967
  31
0
  0
LINE
  8
0
  10
2.08902
  20
33.79967
  30
0
  11
1.94445
  21
33.85723
  31
0
  0
LINE
  8
0
  10
1.94445
  20
33.85723
  30
0
  11
1.80025
  21
33.91783
  31
0
  0
LINE
  8
0
  10
1.80025
  20
33.91783
  30
0
  11
1.65643
  21
33.98132
  31
0
  0
LINE
  8
0
  10
1.65643
  20
33.98132
  30
0
  11
1.51298
  21
34.04759
  31
0
  0
LINE
  8
0
  10
1.51298
  20
34.04759
  30
0
  11
1.36991
  21
34.11654
  31
0
  0
LINE
  8
0
  10
1.36991
  20
34.11654
  30
0
  11
1.22722
  21
34.18808
  31
0
  0
LINE
  8
0
  10
1.22722
  20
34.18808
  30
0
  11
1.08491
  21
34.26214
  31
0
  0
LINE
  8
0
  10
1.08491
  20
34.26214
  30
0
  11
0.943
  21
34.33865
  31
0
  0
LINE
  8
0
  10
0.943
  20
34.33865
  30
0
  11
0.80149
  21
34.41756
  31
0
  0
LINE
  8
0
  10
0.80149
  20
34.41756
  30
0
  11
0.66038
  21
34.4988
  31
0
  0
LINE
  8
0
  10
0.66038
  20
34.4988
  30
0
  11
0.51969
  21
34.58234
  31
0
  0
LINE
  8
0
  10
0.51969
  20
34.58234
  30
0
  11
0.37941
  21
34.66813
  31
0
  0
LINE
  8
0
  10
0.37941
  20
34.66813
  30
0
  11
0.23956
  21
34.75613
  31
0
  0
LINE
  8
0
  10
0.23956
  20
34.75613
  30
0
  11
0.45546
  21
36.20204
  31
0
  0
LINE
  8
0
  10
0.45546
  20
36.20204
  30
0
  11
0.61491
  21
36.24535
  31
0
  0
LINE
  8
0
  10
0.61491
  20
36.24535
  30
0
  11
0.77413
  21
36.28642
  31
0
  0
LINE
  8
0
  10
0.77413
  20
36.28642
  30
0
  11
0.93309
  21
36.32522
  31
0
  0
LINE
  8
0
  10
0.93309
  20
36.32522
  30
0
  11
1.09178
  21
36.3617
  31
0
  0
LINE
  8
0
  10
1.09178
  20
36.3617
  30
0
  11
1.25017
  21
36.39583
  31
0
  0
LINE
  8
0
  10
1.25017
  20
36.39583
  30
0
  11
1.40824
  21
36.42754
  31
0
  0
LINE
  8
0
  10
1.40824
  20
36.42754
  30
0
  11
1.56597
  21
36.45681
  31
0
  0
LINE
  8
0
  10
1.56597
  20
36.45681
  30
0
  11
1.72333
  21
36.48354
  31
0
  0
LINE
  8
0
  10
1.72333
  20
36.48354
  30
0
  11
1.88031
  21
36.50769
  31
0
  0
LINE
  8
0
  10
1.88031
  20
36.50769
  30
0
  11
2.03686
  21
36.52917
  31
0
  0
LINE
  8
0
  10
2.03686
  20
36.52917
  30
0
  11
2.19295
  21
36.54788
  31
0
  0
LINE
  8
0
  10
2.19295
  20
36.54788
  30
0
  11
2.34856
  21
36.56371
  31
0
  0
LINE
  8
0
  10
2.34856
  20
36.56371
  30
0
  11
2.50364
  21
36.57653
  31
0
  0
LINE
  8
0
  10
2.50364
  20
36.57653
  30
0
  11
2.65815
  21
36.58617
  31
0
  0
LINE
  8
0
  10
2.65815
  20
36.58617
  30
0
  11
2.81203
  21
36.59241
  31
0
  0
LINE
  8
0
  10
2.81203
  20
36.59241
  30
0
  11
2.8504
  21
36.59342
  31
0
  0
LINE
  8
0
  10
2.8504
  20
36.59342
  30
0
  11
2.88872
  21
36.59419
  31
0
  0
LINE
  8
0
  10
2.88872
  20
36.59419
  30
0
  11
2.92699
  21
36.59472
  31
0
  0
LINE
  8
0
  10
2.92699
  20
36.59472
  30
0
  11
2.96522
  21
36.595
  31
0
  0
LINE
  8
0
  10
2.96522
  20
36.595
  30
0
  11
3.33099
  21
38.16585
  31
0
  0
LINE
  8
0
  10
3.33099
  20
38.16585
  30
0
  11
3.29682
  21
38.18299
  31
0
  0
LINE
  8
0
  10
3.29682
  20
38.18299
  30
0
  11
3.26271
  21
38.20037
  31
0
  0
LINE
  8
0
  10
3.26271
  20
38.20037
  30
0
  11
3.22868
  21
38.21799
  31
0
  0
LINE
  8
0
  10
3.22868
  20
38.21799
  30
0
  11
3.1947
  21
38.23584
  31
0
  0
LINE
  8
0
  10
3.1947
  20
38.23584
  30
0
  11
3.05941
  21
38.30942
  31
0
  0
LINE
  8
0
  10
3.05941
  20
38.30942
  30
0
  11
2.92505
  21
38.38632
  31
0
  0
LINE
  8
0
  10
2.92505
  20
38.38632
  30
0
  11
2.79158
  21
38.46632
  31
0
  0
LINE
  8
0
  10
2.79158
  20
38.46632
  30
0
  11
2.65897
  21
38.54927
  31
0
  0
LINE
  8
0
  10
2.65897
  20
38.54927
  30
0
  11
2.5272
  21
38.63501
  31
0
  0
LINE
  8
0
  10
2.5272
  20
38.63501
  30
0
  11
2.39624
  21
38.72343
  31
0
  0
LINE
  8
0
  10
2.39624
  20
38.72343
  30
0
  11
2.26608
  21
38.81444
  31
0
  0
LINE
  8
0
  10
2.26608
  20
38.81444
  30
0
  11
2.13671
  21
38.90794
  31
0
  0
LINE
  8
0
  10
2.13671
  20
38.90794
  30
0
  11
2.00813
  21
39.00387
  31
0
  0
LINE
  8
0
  10
2.00813
  20
39.00387
  30
0
  11
1.88033
  21
39.10215
  31
0
  0
LINE
  8
0
  10
1.88033
  20
39.10215
  30
0
  11
1.75331
  21
39.20274
  31
0
  0
LINE
  8
0
  10
1.75331
  20
39.20274
  30
0
  11
1.62706
  21
39.30557
  31
0
  0
LINE
  8
0
  10
1.62706
  20
39.30557
  30
0
  11
1.50159
  21
39.41059
  31
0
  0
LINE
  8
0
  10
1.50159
  20
39.41059
  30
0
  11
1.37689
  21
39.51777
  31
0
  0
LINE
  8
0
  10
1.37689
  20
39.51777
  30
0
  11
1.25297
  21
39.62707
  31
0
  0
LINE
  8
0
  10
1.25297
  20
39.62707
  30
0
  11
1.69801
  21
41.01962
  31
0
  0
LINE
  8
0
  10
1.69801
  20
41.01962
  30
0
  11
1.86234
  21
41.03679
  31
0
  0
LINE
  8
0
  10
1.86234
  20
41.03679
  30
0
  11
2.02609
  21
41.05179
  31
0
  0
LINE
  8
0
  10
2.02609
  20
41.05179
  30
0
  11
2.18922
  21
41.06458
  31
0
  0
LINE
  8
0
  10
2.18922
  20
41.06458
  30
0
  11
2.3517
  21
41.07514
  31
0
  0
LINE
  8
0
  10
2.3517
  20
41.07514
  30
0
  11
2.51351
  21
41.08341
  31
0
  0
LINE
  8
0
  10
2.51351
  20
41.08341
  30
0
  11
2.67463
  21
41.08937
  31
0
  0
LINE
  8
0
  10
2.67463
  20
41.08937
  30
0
  11
2.83501
  21
41.09295
  31
0
  0
LINE
  8
0
  10
2.83501
  20
41.09295
  30
0
  11
2.99462
  21
41.0941
  31
0
  0
LINE
  8
0
  10
2.99462
  20
41.0941
  30
0
  11
3.15344
  21
41.09275
  31
0
  0
LINE
  8
0
  10
3.15344
  20
41.09275
  30
0
  11
3.3114
  21
41.08884
  31
0
  0
LINE
  8
0
  10
3.3114
  20
41.08884
  30
0
  11
3.46848
  21
41.08227
  31
0
  0
LINE
  8
0
  10
3.46848
  20
41.08227
  30
0
  11
3.62461
  21
41.07293
  31
0
  0
LINE
  8
0
  10
3.62461
  20
41.07293
  30
0
  11
3.77974
  21
41.0607
  31
0
  0
LINE
  8
0
  10
3.77974
  20
41.0607
  30
0
  11
3.9338
  21
41.04543
  31
0
  0
LINE
  8
0
  10
3.9338
  20
41.04543
  30
0
  11
4.08669
  21
41.02692
  31
0
  0
LINE
  8
0
  10
4.08669
  20
41.02692
  30
0
  11
4.12472
  21
41.02175
  31
0
  0
LINE
  8
0
  10
4.12472
  20
41.02175
  30
0
  11
4.16266
  21
41.01636
  31
0
  0
LINE
  8
0
  10
4.16266
  20
41.01636
  30
0
  11
4.20053
  21
41.01075
  31
0
  0
LINE
  8
0
  10
4.20053
  20
41.01075
  30
0
  11
4.2383
  21
41.0049
  31
0
  0
LINE
  8
0
  10
4.2383
  20
41.0049
  30
0
  11
4.85132
  21
42.49673
  31
0
  0
LINE
  8
0
  10
4.85132
  20
42.49673
  30
0
  11
4.82034
  21
42.51913
  31
0
  0
LINE
  8
0
  10
4.82034
  20
42.51913
  30
0
  11
4.78947
  21
42.54176
  31
0
  0
LINE
  8
0
  10
4.78947
  20
42.54176
  30
0
  11
4.7587
  21
42.56461
  31
0
  0
LINE
  8
0
  10
4.7587
  20
42.56461
  30
0
  11
4.72802
  21
42.58767
  31
0
  0
LINE
  8
0
  10
4.72802
  20
42.58767
  30
0
  11
4.60629
  21
42.682
  31
0
  0
LINE
  8
0
  10
4.60629
  20
42.682
  30
0
  11
4.48601
  21
42.77946
  31
0
  0
LINE
  8
0
  10
4.48601
  20
42.77946
  30
0
  11
4.3671
  21
42.87984
  31
0
  0
LINE
  8
0
  10
4.3671
  20
42.87984
  30
0
  11
4.24951
  21
42.98298
  31
0
  0
LINE
  8
0
  10
4.24951
  20
42.98298
  30
0
  11
4.1332
  21
43.08875
  31
0
  0
LINE
  8
0
  10
4.1332
  20
43.08875
  30
0
  11
4.01812
  21
43.19704
  31
0
  0
LINE
  8
0
  10
4.01812
  20
43.19704
  30
0
  11
3.90424
  21
43.30774
  31
0
  0
LINE
  8
0
  10
3.90424
  20
43.30774
  30
0
  11
3.79155
  21
43.42079
  31
0
  0
LINE
  8
0
  10
3.79155
  20
43.42079
  30
0
  11
3.68002
  21
43.5361
  31
0
  0
LINE
  8
0
  10
3.68002
  20
43.5361
  30
0
  11
3.56964
  21
43.65361
  31
0
  0
LINE
  8
0
  10
3.56964
  20
43.65361
  30
0
  11
3.4604
  21
43.77327
  31
0
  0
LINE
  8
0
  10
3.4604
  20
43.77327
  30
0
  11
3.35228
  21
43.89502
  31
0
  0
LINE
  8
0
  10
3.35228
  20
43.89502
  30
0
  11
3.24528
  21
44.01881
  31
0
  0
LINE
  8
0
  10
3.24528
  20
44.01881
  30
0
  11
3.13939
  21
44.14461
  31
0
  0
LINE
  8
0
  10
3.13939
  20
44.14461
  30
0
  11
3.03461
  21
44.27236
  31
0
  0
LINE
  8
0
  10
3.03461
  20
44.27236
  30
0
  11
3.69726
  21
45.57549
  31
0
  0
LINE
  8
0
  10
3.69726
  20
45.57549
  30
0
  11
3.86223
  21
45.56608
  31
0
  0
LINE
  8
0
  10
3.86223
  20
45.56608
  30
0
  11
4.02626
  21
45.55462
  31
0
  0
LINE
  8
0
  10
4.02626
  20
45.55462
  30
0
  11
4.18932
  21
45.54108
  31
0
  0
LINE
  8
0
  10
4.18932
  20
45.54108
  30
0
  11
4.3514
  21
45.52543
  31
0
  0
LINE
  8
0
  10
4.3514
  20
45.52543
  30
0
  11
4.51244
  21
45.50765
  31
0
  0
LINE
  8
0
  10
4.51244
  20
45.50765
  30
0
  11
4.67242
  21
45.48768
  31
0
  0
LINE
  8
0
  10
4.67242
  20
45.48768
  30
0
  11
4.8313
  21
45.46548
  31
0
  0
LINE
  8
0
  10
4.8313
  20
45.46548
  30
0
  11
4.98904
  21
45.44101
  31
0
  0
LINE
  8
0
  10
4.98904
  20
45.44101
  30
0
  11
5.14558
  21
45.41421
  31
0
  0
LINE
  8
0
  10
5.14558
  20
45.41421
  30
0
  11
5.30087
  21
45.38501
  31
0
  0
LINE
  8
0
  10
5.30087
  20
45.38501
  30
0
  11
5.45486
  21
45.35332
  31
0
  0
LINE
  8
0
  10
5.45486
  20
45.35332
  30
0
  11
5.60747
  21
45.31906
  31
0
  0
LINE
  8
0
  10
5.60747
  20
45.31906
  30
0
  11
5.75863
  21
45.28211
  31
0
  0
LINE
  8
0
  10
5.75863
  20
45.28211
  30
0
  11
5.90824
  21
45.24233
  31
0
  0
LINE
  8
0
  10
5.90824
  20
45.24233
  30
0
  11
6.05618
  21
45.19953
  31
0
  0
LINE
  8
0
  10
6.05618
  20
45.19953
  30
0
  11
6.09289
  21
45.18833
  31
0
  0
LINE
  8
0
  10
6.09289
  20
45.18833
  30
0
  11
6.12948
  21
45.17692
  31
0
  0
LINE
  8
0
  10
6.12948
  20
45.17692
  30
0
  11
6.16595
  21
45.1653
  31
0
  0
LINE
  8
0
  10
6.16595
  20
45.1653
  30
0
  11
6.2023
  21
45.15347
  31
0
  0
LINE
  8
0
  10
6.2023
  20
45.15347
  30
0
  11
7.04668
  21
46.52765
  31
0
  0
LINE
  8
0
  10
7.04668
  20
46.52765
  30
0
  11
7.0197
  21
46.55473
  31
0
  0
LINE
  8
0
  10
7.0197
  20
46.55473
  30
0
  11
6.99286
  21
46.58201
  31
0
  0
LINE
  8
0
  10
6.99286
  20
46.58201
  30
0
  11
6.96615
  21
46.6095
  31
0
  0
LINE
  8
0
  10
6.96615
  20
46.6095
  30
0
  11
6.93958
  21
46.63719
  31
0
  0
LINE
  8
0
  10
6.93958
  20
46.63719
  30
0
  11
6.83455
  21
46.74983
  31
0
  0
LINE
  8
0
  10
6.83455
  20
46.74983
  30
0
  11
6.73146
  21
46.86532
  31
0
  0
LINE
  8
0
  10
6.73146
  20
46.86532
  30
0
  11
6.63019
  21
46.98347
  31
0
  0
LINE
  8
0
  10
6.63019
  20
46.98347
  30
0
  11
6.53067
  21
47.10414
  31
0
  0
LINE
  8
0
  10
6.53067
  20
47.10414
  30
0
  11
6.43283
  21
47.2272
  31
0
  0
LINE
  8
0
  10
6.43283
  20
47.2272
  30
0
  11
6.33661
  21
47.35254
  31
0
  0
LINE
  8
0
  10
6.33661
  20
47.35254
  30
0
  11
6.24197
  21
47.48008
  31
0
  0
LINE
  8
0
  10
6.24197
  20
47.48008
  30
0
  11
6.14887
  21
47.60974
  31
0
  0
LINE
  8
0
  10
6.14887
  20
47.60974
  30
0
  11
6.05728
  21
47.74145
  31
0
  0
LINE
  8
0
  10
6.05728
  20
47.74145
  30
0
  11
5.96718
  21
47.87514
  31
0
  0
LINE
  8
0
  10
5.96718
  20
47.87514
  30
0
  11
5.87855
  21
48.01077
  31
0
  0
LINE
  8
0
  10
5.87855
  20
48.01077
  30
0
  11
5.79136
  21
48.14829
  31
0
  0
LINE
  8
0
  10
5.79136
  20
48.14829
  30
0
  11
5.7056
  21
48.28765
  31
0
  0
LINE
  8
0
  10
5.7056
  20
48.28765
  30
0
  11
5.62126
  21
48.4288
  31
0
  0
LINE
  8
0
  10
5.62126
  20
48.4288
  30
0
  11
5.53833
  21
48.57171
  31
0
  0
LINE
  8
0
  10
5.53833
  20
48.57171
  30
0
  11
6.40144
  21
49.75167
  31
0
  0
LINE
  8
0
  10
6.40144
  20
49.75167
  30
0
  11
6.56276
  21
49.71591
  31
0
  0
LINE
  8
0
  10
6.56276
  20
49.71591
  30
0
  11
6.72283
  21
49.67829
  31
0
  0
LINE
  8
0
  10
6.72283
  20
49.67829
  30
0
  11
6.88161
  21
49.63877
  31
0
  0
LINE
  8
0
  10
6.88161
  20
49.63877
  30
0
  11
7.03907
  21
49.59733
  31
0
  0
LINE
  8
0
  10
7.03907
  20
49.59733
  30
0
  11
7.19518
  21
49.55393
  31
0
  0
LINE
  8
0
  10
7.19518
  20
49.55393
  30
0
  11
7.34989
  21
49.50856
  31
0
  0
LINE
  8
0
  10
7.34989
  20
49.50856
  30
0
  11
7.50315
  21
49.46117
  31
0
  0
LINE
  8
0
  10
7.50315
  20
49.46117
  30
0
  11
7.65491
  21
49.41171
  31
0
  0
LINE
  8
0
  10
7.65491
  20
49.41171
  30
0
  11
7.80513
  21
49.36015
  31
0
  0
LINE
  8
0
  10
7.80513
  20
49.36015
  30
0
  11
7.95373
  21
49.30641
  31
0
  0
LINE
  8
0
  10
7.95373
  20
49.30641
  30
0
  11
8.10064
  21
49.25044
  31
0
  0
LINE
  8
0
  10
8.10064
  20
49.25044
  30
0
  11
8.24578
  21
49.19214
  31
0
  0
LINE
  8
0
  10
8.24578
  20
49.19214
  30
0
  11
8.38906
  21
49.13142
  31
0
  0
LINE
  8
0
  10
8.38906
  20
49.13142
  30
0
  11
8.53035
  21
49.06815
  31
0
  0
LINE
  8
0
  10
8.53035
  20
49.06815
  30
0
  11
8.6695
  21
49.00217
  31
0
  0
LINE
  8
0
  10
8.6695
  20
49.00217
  30
0
  11
8.70394
  21
48.98523
  31
0
  0
LINE
  8
0
  10
8.70394
  20
48.98523
  30
0
  11
8.73823
  21
48.9681
  31
0
  0
LINE
  8
0
  10
8.73823
  20
48.9681
  30
0
  11
8.77236
  21
48.95078
  31
0
  0
LINE
  8
0
  10
8.77236
  20
48.95078
  30
0
  11
8.80634
  21
48.93327
  31
0
  0
LINE
  8
0
  10
8.80634
  20
48.93327
  30
0
  11
9.86022
  21
50.15421
  31
0
  0
LINE
  8
0
  10
9.86022
  20
50.15421
  30
0
  11
9.83794
  21
50.18526
  31
0
  0
LINE
  8
0
  10
9.83794
  20
50.18526
  30
0
  11
9.81582
  21
50.2165
  31
0
  0
LINE
  8
0
  10
9.81582
  20
50.2165
  30
0
  11
9.79387
  21
50.24792
  31
0
  0
LINE
  8
0
  10
9.79387
  20
50.24792
  30
0
  11
9.77208
  21
50.27951
  31
0
  0
LINE
  8
0
  10
9.77208
  20
50.27951
  30
0
  11
9.68648
  21
50.40754
  31
0
  0
LINE
  8
0
  10
9.68648
  20
50.40754
  30
0
  11
9.60325
  21
50.53807
  31
0
  0
LINE
  8
0
  10
9.60325
  20
50.53807
  30
0
  11
9.52225
  21
50.67094
  31
0
  0
LINE
  8
0
  10
9.52225
  20
50.67094
  30
0
  11
9.44337
  21
50.80601
  31
0
  0
LINE
  8
0
  10
9.44337
  20
50.80601
  30
0
  11
9.36653
  21
50.94317
  31
0
  0
LINE
  8
0
  10
9.36653
  20
50.94317
  30
0
  11
9.29167
  21
51.08232
  31
0
  0
LINE
  8
0
  10
9.29167
  20
51.08232
  30
0
  11
9.21871
  21
51.22339
  31
0
  0
LINE
  8
0
  10
9.21871
  20
51.22339
  30
0
  11
9.14762
  21
51.3663
  31
0
  0
LINE
  8
0
  10
9.14762
  20
51.3663
  30
0
  11
9.07834
  21
51.511
  31
0
  0
LINE
  8
0
  10
9.07834
  20
51.511
  30
0
  11
9.01086
  21
51.65742
  31
0
  0
LINE
  8
0
  10
9.01086
  20
51.65742
  30
0
  11
8.94513
  21
51.80551
  31
0
  0
LINE
  8
0
  10
8.94513
  20
51.80551
  30
0
  11
8.88113
  21
51.95523
  31
0
  0
LINE
  8
0
  10
8.88113
  20
51.95523
  30
0
  11
8.81883
  21
52.10654
  31
0
  0
LINE
  8
0
  10
8.81883
  20
52.10654
  30
0
  11
8.75823
  21
52.25939
  31
0
  0
LINE
  8
0
  10
8.75823
  20
52.25939
  30
0
  11
8.69929
  21
52.41375
  31
0
  0
LINE
  8
0
  10
8.69929
  20
52.41375
  30
0
  11
9.74051
  21
53.43998
  31
0
  0
LINE
  8
0
  10
9.74051
  20
53.43998
  30
0
  11
9.894
  21
53.37881
  31
0
  0
LINE
  8
0
  10
9.894
  20
53.37881
  30
0
  11
10.04596
  21
53.316
  31
0
  0
LINE
  8
0
  10
10.04596
  20
53.316
  30
0
  11
10.19635
  21
53.25152
  31
0
  0
LINE
  8
0
  10
10.19635
  20
53.25152
  30
0
  11
10.34512
  21
53.18535
  31
0
  0
LINE
  8
0
  10
10.34512
  20
53.18535
  30
0
  11
10.49225
  21
53.11748
  31
0
  0
LINE
  8
0
  10
10.49225
  20
53.11748
  30
0
  11
10.63767
  21
53.04788
  31
0
  0
LINE
  8
0
  10
10.63767
  20
53.04788
  30
0
  11
10.78135
  21
52.97652
  31
0
  0
LINE
  8
0
  10
10.78135
  20
52.97652
  30
0
  11
10.92322
  21
52.90336
  31
0
  0
LINE
  8
0
  10
10.92322
  20
52.90336
  30
0
  11
11.06321
  21
52.82836
  31
0
  0
LINE
  8
0
  10
11.06321
  20
52.82836
  30
0
  11
11.20127
  21
52.75149
  31
0
  0
LINE
  8
0
  10
11.20127
  20
52.75149
  30
0
  11
11.3373
  21
52.67267
  31
0
  0
LINE
  8
0
  10
11.3373
  20
52.67267
  30
0
  11
11.47121
  21
52.59184
  31
0
  0
LINE
  8
0
  10
11.47121
  20
52.59184
  30
0
  11
11.60289
  21
52.50893
  31
0
  0
LINE
  8
0
  10
11.60289
  20
52.50893
  30
0
  11
11.7322
  21
52.42381
  31
0
  0
LINE
  8
0
  10
11.7322
  20
52.42381
  30
0
  11
11.85897
  21
52.33637
  31
0
  0
LINE
  8
0
  10
11.85897
  20
52.33637
  30
0
  11
11.89024
  21
52.31412
  31
0
  0
LINE
  8
0
  10
11.89024
  20
52.31412
  30
0
  11
11.92134
  21
52.29171
  31
0
  0
LINE
  8
0
  10
11.92134
  20
52.29171
  30
0
  11
11.95225
  21
52.26915
  31
0
  0
LINE
  8
0
  10
11.95225
  20
52.26915
  30
0
  11
11.98298
  21
52.24641
  31
0
  0
LINE
  8
0
  10
11.98298
  20
52.24641
  30
0
  11
13.21907
  21
53.28248
  31
0
  0
LINE
  8
0
  10
13.21907
  20
53.28248
  30
0
  11
13.20205
  21
53.31671
  31
0
  0
LINE
  8
0
  10
13.20205
  20
53.31671
  30
0
  11
13.18523
  21
53.35109
  31
0
  0
LINE
  8
0
  10
13.18523
  20
53.35109
  30
0
  11
13.1686
  21
53.38562
  31
0
  0
LINE
  8
0
  10
13.1686
  20
53.38562
  30
0
  11
13.15216
  21
53.4203
  31
0
  0
LINE
  8
0
  10
13.15216
  20
53.4203
  30
0
  11
13.08821
  21
53.5604
  31
0
  0
LINE
  8
0
  10
13.08821
  20
53.5604
  30
0
  11
13.027
  21
53.70259
  31
0
  0
LINE
  8
0
  10
13.027
  20
53.70259
  30
0
  11
12.96836
  21
53.84673
  31
0
  0
LINE
  8
0
  10
12.96836
  20
53.84673
  30
0
  11
12.91217
  21
53.99271
  31
0
  0
LINE
  8
0
  10
12.91217
  20
53.99271
  30
0
  11
12.85833
  21
54.14041
  31
0
  0
LINE
  8
0
  10
12.85833
  20
54.14041
  30
0
  11
12.80676
  21
54.28978
  31
0
  0
LINE
  8
0
  10
12.80676
  20
54.28978
  30
0
  11
12.75737
  21
54.44072
  31
0
  0
LINE
  8
0
  10
12.75737
  20
54.44072
  30
0
  11
12.71013
  21
54.59319
  31
0
  0
LINE
  8
0
  10
12.71013
  20
54.59319
  30
0
  11
12.66496
  21
54.74712
  31
0
  0
LINE
  8
0
  10
12.66496
  20
54.74712
  30
0
  11
12.62184
  21
54.90247
  31
0
  0
LINE
  8
0
  10
12.62184
  20
54.90247
  30
0
  11
12.58071
  21
55.05919
  31
0
  0
LINE
  8
0
  10
12.58071
  20
55.05919
  30
0
  11
12.54156
  21
55.21724
  31
0
  0
LINE
  8
0
  10
12.54156
  20
55.21724
  30
0
  11
12.50434
  21
55.37658
  31
0
  0
LINE
  8
0
  10
12.50434
  20
55.37658
  30
0
  11
12.46904
  21
55.53717
  31
0
  0
LINE
  8
0
  10
12.46904
  20
55.53717
  30
0
  11
12.43563
  21
55.69899
  31
0
  0
LINE
  8
0
  10
12.43563
  20
55.69899
  30
0
  11
13.62798
  21
56.5449
  31
0
  0
LINE
  8
0
  10
13.62798
  20
56.5449
  30
0
  11
13.76967
  21
56.45991
  31
0
  0
LINE
  8
0
  10
13.76967
  20
56.45991
  30
0
  11
13.90959
  21
56.37353
  31
0
  0
LINE
  8
0
  10
13.90959
  20
56.37353
  30
0
  11
14.04769
  21
56.28576
  31
0
  0
LINE
  8
0
  10
14.04769
  20
56.28576
  30
0
  11
14.18392
  21
56.19659
  31
0
  0
LINE
  8
0
  10
14.18392
  20
56.19659
  30
0
  11
14.31825
  21
56.106
  31
0
  0
LINE
  8
0
  10
14.31825
  20
56.106
  30
0
  11
14.45063
  21
56.01397
  31
0
  0
LINE
  8
0
  10
14.45063
  20
56.01397
  30
0
  11
14.581
  21
55.92048
  31
0
  0
LINE
  8
0
  10
14.581
  20
55.92048
  30
0
  11
14.70929
  21
55.82551
  31
0
  0
LINE
  8
0
  10
14.70929
  20
55.82551
  30
0
  11
14.83545
  21
55.72903
  31
0
  0
LINE
  8
0
  10
14.83545
  20
55.72903
  30
0
  11
14.95938
  21
55.63101
  31
0
  0
LINE
  8
0
  10
14.95938
  20
55.63101
  30
0
  11
15.08101
  21
55.53139
  31
0
  0
LINE
  8
0
  10
15.08101
  20
55.53139
  30
0
  11
15.20022
  21
55.43013
  31
0
  0
LINE
  8
0
  10
15.20022
  20
55.43013
  30
0
  11
15.31689
  21
55.32716
  31
0
  0
LINE
  8
0
  10
15.31689
  20
55.32716
  30
0
  11
15.43087
  21
55.22241
  31
0
  0
LINE
  8
0
  10
15.43087
  20
55.22241
  30
0
  11
15.54198
  21
55.11576
  31
0
  0
LINE
  8
0
  10
15.54198
  20
55.11576
  30
0
  11
15.56928
  21
55.08878
  31
0
  0
LINE
  8
0
  10
15.56928
  20
55.08878
  30
0
  11
15.59638
  21
55.06168
  31
0
  0
LINE
  8
0
  10
15.59638
  20
55.06168
  30
0
  11
15.62327
  21
55.03444
  31
0
  0
LINE
  8
0
  10
15.62327
  20
55.03444
  30
0
  11
15.64996
  21
55.00707
  31
0
  0
LINE
  8
0
  10
15.64996
  20
55.00707
  30
0
  11
17.03623
  21
55.83144
  31
0
  0
LINE
  8
0
  10
17.03623
  20
55.83144
  30
0
  11
17.02493
  21
55.86796
  31
0
  0
LINE
  8
0
  10
17.02493
  20
55.86796
  30
0
  11
17.01384
  21
55.9046
  31
0
  0
LINE
  8
0
  10
17.01384
  20
55.9046
  30
0
  11
17.00297
  21
55.94135
  31
0
  0
LINE
  8
0
  10
17.00297
  20
55.94135
  30
0
  11
16.9923
  21
55.97821
  31
0
  0
LINE
  8
0
  10
16.9923
  20
55.97821
  30
0
  11
16.95165
  21
56.12676
  31
0
  0
LINE
  8
0
  10
16.95165
  20
56.12676
  30
0
  11
16.91404
  21
56.27693
  31
0
  0
LINE
  8
0
  10
16.91404
  20
56.27693
  30
0
  11
16.87928
  21
56.42861
  31
0
  0
LINE
  8
0
  10
16.87928
  20
56.42861
  30
0
  11
16.84724
  21
56.5817
  31
0
  0
LINE
  8
0
  10
16.84724
  20
56.5817
  30
0
  11
16.81779
  21
56.73614
  31
0
  0
LINE
  8
0
  10
16.81779
  20
56.73614
  30
0
  11
16.79084
  21
56.89184
  31
0
  0
LINE
  8
0
  10
16.79084
  20
56.89184
  30
0
  11
16.76631
  21
57.04875
  31
0
  0
LINE
  8
0
  10
16.76631
  20
57.04875
  30
0
  11
16.74413
  21
57.20682
  31
0
  0
LINE
  8
0
  10
16.74413
  20
57.20682
  30
0
  11
16.72424
  21
57.366
  31
0
  0
LINE
  8
0
  10
16.72424
  20
57.366
  30
0
  11
16.7066
  21
57.52626
  31
0
  0
LINE
  8
0
  10
16.7066
  20
57.52626
  30
0
  11
16.69114
  21
57.68754
  31
0
  0
LINE
  8
0
  10
16.69114
  20
57.68754
  30
0
  11
16.67785
  21
57.84983
  31
0
  0
LINE
  8
0
  10
16.67785
  20
57.84983
  30
0
  11
16.66668
  21
58.01307
  31
0
  0
LINE
  8
0
  10
16.66668
  20
58.01307
  30
0
  11
16.65759
  21
58.17725
  31
0
  0
LINE
  8
0
  10
16.65759
  20
58.17725
  30
0
  11
16.65057
  21
58.34234
  31
0
  0
LINE
  8
0
  10
16.65057
  20
58.34234
  30
0
  11
17.96318
  21
58.98603
  31
0
  0
LINE
  8
0
  10
17.96318
  20
58.98603
  30
0
  11
18.0894
  21
58.8794
  31
0
  0
LINE
  8
0
  10
18.0894
  20
58.8794
  30
0
  11
18.21365
  21
58.7717
  31
0
  0
LINE
  8
0
  10
18.21365
  20
58.7717
  30
0
  11
18.33588
  21
58.66292
  31
0
  0
LINE
  8
0
  10
18.33588
  20
58.66292
  30
0
  11
18.45605
  21
58.55304
  31
0
  0
LINE
  8
0
  10
18.45605
  20
58.55304
  30
0
  11
18.57411
  21
58.44208
  31
0
  0
LINE
  8
0
  10
18.57411
  20
58.44208
  30
0
  11
18.69001
  21
58.33
  31
0
  0
LINE
  8
0
  10
18.69001
  20
58.33
  30
0
  11
18.80369
  21
58.21682
  31
0
  0
LINE
  8
0
  10
18.80369
  20
58.21682
  30
0
  11
18.91509
  21
58.1025
  31
0
  0
LINE
  8
0
  10
18.91509
  20
58.1025
  30
0
  11
19.02413
  21
57.98703
  31
0
  0
LINE
  8
0
  10
19.02413
  20
57.98703
  30
0
  11
19.13074
  21
57.87039
  31
0
  0
LINE
  8
0
  10
19.13074
  20
57.87039
  30
0
  11
19.23481
  21
57.75255
  31
0
  0
LINE
  8
0
  10
19.23481
  20
57.75255
  30
0
  11
19.33623
  21
57.63348
  31
0
  0
LINE
  8
0
  10
19.33623
  20
57.63348
  30
0
  11
19.43488
  21
57.51313
  31
0
  0
LINE
  8
0
  10
19.43488
  20
57.51313
  30
0
  11
19.53058
  21
57.39145
  31
0
  0
LINE
  8
0
  10
19.53058
  20
57.39145
  30
0
  11
19.62314
  21
57.26836
  31
0
  0
LINE
  8
0
  10
19.62314
  20
57.26836
  30
0
  11
19.64575
  21
57.23736
  31
0
  0
LINE
  8
0
  10
19.64575
  20
57.23736
  30
0
  11
19.66816
  21
57.20626
  31
0
  0
LINE
  8
0
  10
19.66816
  20
57.20626
  30
0
  11
19.69033
  21
57.17506
  31
0
  0
LINE
  8
0
  10
19.69033
  20
57.17506
  30
0
  11
19.71228
  21
57.14376
  31
0
  0
LINE
  8
0
  10
19.71228
  20
57.14376
  30
0
  11
21.21285
  21
57.73508
  31
0
  0
LINE
  8
0
  10
21.21285
  20
57.73508
  30
0
  11
21.20754
  21
57.77294
  31
0
  0
LINE
  8
0
  10
21.20754
  20
57.77294
  30
0
  11
21.20248
  21
57.81088
  31
0
  0
LINE
  8
0
  10
21.20248
  20
57.81088
  30
0
  11
21.19764
  21
57.8489
  31
0
  0
LINE
  8
0
  10
21.19764
  20
57.8489
  30
0
  11
21.19303
  21
57.887
  31
0
  0
LINE
  8
0
  10
21.19303
  20
57.887
  30
0
  11
21.17673
  21
58.04014
  31
0
  0
LINE
  8
0
  10
21.17673
  20
58.04014
  30
0
  11
21.16369
  21
58.1944
  31
0
  0
LINE
  8
0
  10
21.16369
  20
58.1944
  30
0
  11
21.15372
  21
58.34969
  31
0
  0
LINE
  8
0
  10
21.15372
  20
58.34969
  30
0
  11
21.14665
  21
58.50594
  31
0
  0
LINE
  8
0
  10
21.14665
  20
58.50594
  30
0
  11
21.14235
  21
58.6631
  31
0
  0
LINE
  8
0
  10
21.14235
  20
58.6631
  30
0
  11
21.14073
  21
58.82111
  31
0
  0
LINE
  8
0
  10
21.14073
  20
58.82111
  30
0
  11
21.14169
  21
58.97992
  31
0
  0
LINE
  8
0
  10
21.14169
  20
58.97992
  30
0
  11
21.14515
  21
59.13951
  31
0
  0
LINE
  8
0
  10
21.14515
  20
59.13951
  30
0
  11
21.15106
  21
59.29982
  31
0
  0
LINE
  8
0
  10
21.15106
  20
59.29982
  30
0
  11
21.15934
  21
59.46083
  31
0
  0
LINE
  8
0
  10
21.15934
  20
59.46083
  30
0
  11
21.16997
  21
59.62251
  31
0
  0
LINE
  8
0
  10
21.16997
  20
59.62251
  30
0
  11
21.18287
  21
59.78482
  31
0
  0
LINE
  8
0
  10
21.18287
  20
59.78482
  30
0
  11
21.19803
  21
59.94774
  31
0
  0
LINE
  8
0
  10
21.19803
  20
59.94774
  30
0
  11
21.2154
  21
60.11125
  31
0
  0
LINE
  8
0
  10
21.2154
  20
60.11125
  30
0
  11
21.23496
  21
60.27532
  31
0
  0
LINE
  8
0
  10
21.23496
  20
60.27532
  30
0
  11
22.63382
  21
60.70012
  31
0
  0
LINE
  8
0
  10
22.63382
  20
60.70012
  30
0
  11
22.7413
  21
60.57463
  31
0
  0
LINE
  8
0
  10
22.7413
  20
60.57463
  30
0
  11
22.84666
  21
60.44839
  31
0
  0
LINE
  8
0
  10
22.84666
  20
60.44839
  30
0
  11
22.94986
  21
60.32141
  31
0
  0
LINE
  8
0
  10
22.94986
  20
60.32141
  30
0
  11
23.05085
  21
60.19368
  31
0
  0
LINE
  8
0
  10
23.05085
  20
60.19368
  30
0
  11
23.14958
  21
60.06522
  31
0
  0
LINE
  8
0
  10
23.14958
  20
60.06522
  30
0
  11
23.246
  21
59.936
  31
0
  0
LINE
  8
0
  10
23.246
  20
59.936
  30
0
  11
23.34005
  21
59.80605
  31
0
  0
LINE
  8
0
  10
23.34005
  20
59.80605
  30
0
  11
23.43167
  21
59.67534
  31
0
  0
LINE
  8
0
  10
23.43167
  20
59.67534
  30
0
  11
23.52078
  21
59.54387
  31
0
  0
LINE
  8
0
  10
23.52078
  20
59.54387
  30
0
  11
23.6073
  21
59.41165
  31
0
  0
LINE
  8
0
  10
23.6073
  20
59.41165
  30
0
  11
23.69112
  21
59.27864
  31
0
  0
LINE
  8
0
  10
23.69112
  20
59.27864
  30
0
  11
23.77213
  21
59.14484
  31
0
  0
LINE
  8
0
  10
23.77213
  20
59.14484
  30
0
  11
23.85019
  21
59.01023
  31
0
  0
LINE
  8
0
  10
23.85019
  20
59.01023
  30
0
  11
23.92513
  21
58.87477
  31
0
  0
LINE
  8
0
  10
23.92513
  20
58.87477
  30
0
  11
23.99675
  21
58.73842
  31
0
  0
LINE
  8
0
  10
23.99675
  20
58.73842
  30
0
  11
24.0141
  21
58.70419
  31
0
  0
LINE
  8
0
  10
24.0141
  20
58.70419
  30
0
  11
24.03122
  21
58.6699
  31
0
  0
LINE
  8
0
  10
24.03122
  20
58.6699
  30
0
  11
24.04811
  21
58.63555
  31
0
  0
LINE
  8
0
  10
24.04811
  20
58.63555
  30
0
  11
24.06475
  21
58.60114
  31
0
  0
LINE
  8
0
  10
24.06475
  20
58.60114
  30
0
  11
25.64074
  21
58.9441
  31
0
  0
LINE
  8
0
  10
25.64074
  20
58.9441
  30
0
  11
25.64158
  21
58.98231
  31
0
  0
LINE
  8
0
  10
25.64158
  20
58.98231
  30
0
  11
25.64266
  21
59.02058
  31
0
  0
LINE
  8
0
  10
25.64266
  20
59.02058
  30
0
  11
25.64399
  21
59.05888
  31
0
  0
LINE
  8
0
  10
25.64399
  20
59.05888
  30
0
  11
25.64554
  21
59.09722
  31
0
  0
LINE
  8
0
  10
25.64554
  20
59.09722
  30
0
  11
25.65402
  21
59.251
  31
0
  0
LINE
  8
0
  10
25.65402
  20
59.251
  30
0
  11
25.6659
  21
59.40535
  31
0
  0
LINE
  8
0
  10
25.6659
  20
59.40535
  30
0
  11
25.68097
  21
59.56023
  31
0
  0
LINE
  8
0
  10
25.68097
  20
59.56023
  30
0
  11
25.69905
  21
59.71559
  31
0
  0
LINE
  8
0
  10
25.69905
  20
59.71559
  30
0
  11
25.72002
  21
59.8714
  31
0
  0
LINE
  8
0
  10
25.72002
  20
59.8714
  30
0
  11
25.74377
  21
60.02763
  31
0
  0
LINE
  8
0
  10
25.74377
  20
60.02763
  30
0
  11
25.77019
  21
60.18423
  31
0
  0
LINE
  8
0
  10
25.77019
  20
60.18423
  30
0
  11
25.79921
  21
60.34119
  31
0
  0
LINE
  8
0
  10
25.79921
  20
60.34119
  30
0
  11
25.83075
  21
60.49848
  31
0
  0
LINE
  8
0
  10
25.83075
  20
60.49848
  30
0
  11
25.86476
  21
60.65608
  31
0
  0
LINE
  8
0
  10
25.86476
  20
60.65608
  30
0
  11
25.90118
  21
60.81395
  31
0
  0
LINE
  8
0
  10
25.90118
  20
60.81395
  30
0
  11
25.93996
  21
60.9721
  31
0
  0
LINE
  8
0
  10
25.93996
  20
60.9721
  30
0
  11
25.98105
  21
61.13048
  31
0
  0
LINE
  8
0
  10
25.98105
  20
61.13048
  30
0
  11
26.02443
  21
61.28908
  31
0
  0
LINE
  8
0
  10
26.02443
  20
61.28908
  30
0
  11
26.07005
  21
61.44789
  31
0
  0
LINE
  8
0
  10
26.07005
  20
61.44789
  30
0
  11
27.51893
  21
61.6428
  31
0
  0
LINE
  8
0
  10
27.51893
  20
61.6428
  30
0
  11
27.6049
  21
61.50169
  31
0
  0
LINE
  8
0
  10
27.6049
  20
61.50169
  30
0
  11
27.68864
  21
61.36019
  31
0
  0
LINE
  8
0
  10
27.68864
  20
61.36019
  30
0
  11
27.77013
  21
61.21829
  31
0
  0
LINE
  8
0
  10
27.77013
  20
61.21829
  30
0
  11
27.84933
  21
61.07602
  31
0
  0
LINE
  8
0
  10
27.84933
  20
61.07602
  30
0
  11
27.92617
  21
60.93338
  31
0
  0
LINE
  8
0
  10
27.92617
  20
60.93338
  30
0
  11
28.00062
  21
60.79037
  31
0
  0
LINE
  8
0
  10
28.00062
  20
60.79037
  30
0
  11
28.0726
  21
60.64701
  31
0
  0
LINE
  8
0
  10
28.0726
  20
60.64701
  30
0
  11
28.14207
  21
60.5033
  31
0
  0
LINE
  8
0
  10
28.14207
  20
60.5033
  30
0
  11
28.20894
  21
60.35925
  31
0
  0
LINE
  8
0
  10
28.20894
  20
60.35925
  30
0
  11
28.27312
  21
60.21485
  31
0
  0
LINE
  8
0
  10
28.27312
  20
60.21485
  30
0
  11
28.33452
  21
60.07012
  31
0
  0
LINE
  8
0
  10
28.33452
  20
60.07012
  30
0
  11
28.39302
  21
59.92506
  31
0
  0
LINE
  8
0
  10
28.39302
  20
59.92506
  30
0
  11
28.44848
  21
59.77967
  31
0
  0
LINE
  8
0
  10
28.44848
  20
59.77967
  30
0
  11
28.50072
  21
59.63394
  31
0
  0
LINE
  8
0
  10
28.50072
  20
59.63394
  30
0
  11
28.54954
  21
59.48788
  31
0
  0
LINE
  8
0
  10
28.54954
  20
59.48788
  30
0
  11
28.56117
  21
59.4513
  31
0
  0
LINE
  8
0
  10
28.56117
  20
59.4513
  30
0
  11
28.57257
  21
59.41471
  31
0
  0
LINE
  8
0
  10
28.57257
  20
59.41471
  30
0
  11
28.58373
  21
59.3781
  31
0
  0
LINE
  8
0
  10
28.58373
  20
59.3781
  30
0
  11
28.59464
  21
59.34146
  31
0
  0
LINE
  8
0
  10
28.59464
  20
59.34146
  30
0
  11
30.20523
  21
59.42717
  31
0
  0
LINE
  8
0
  10
30.20523
  20
59.42717
  30
0
  11
30.21219
  21
59.46476
  31
0
  0
LINE
  8
0
  10
30.21219
  20
59.46476
  30
0
  11
30.2194
  21
59.50235
  31
0
  0
LINE
  8
0
  10
30.2194
  20
59.50235
  30
0
  11
30.22685
  21
59.53994
  31
0
  0
LINE
  8
0
  10
30.22685
  20
59.53994
  30
0
  11
30.23454
  21
59.57754
  31
0
  0
LINE
  8
0
  10
30.23454
  20
59.57754
  30
0
  11
30.26757
  21
59.72797
  31
0
  0
LINE
  8
0
  10
30.26757
  20
59.72797
  30
0
  11
30.30406
  21
59.87841
  31
0
  0
LINE
  8
0
  10
30.30406
  20
59.87841
  30
0
  11
30.34377
  21
60.02887
  31
0
  0
LINE
  8
0
  10
30.34377
  20
60.02887
  30
0
  11
30.38654
  21
60.17932
  31
0
  0
LINE
  8
0
  10
30.38654
  20
60.17932
  30
0
  11
30.43224
  21
60.32975
  31
0
  0
LINE
  8
0
  10
30.43224
  20
60.32975
  30
0
  11
30.48073
  21
60.48014
  31
0
  0
LINE
  8
0
  10
30.48073
  20
60.48014
  30
0
  11
30.53193
  21
60.63048
  31
0
  0
LINE
  8
0
  10
30.53193
  20
60.63048
  30
0
  11
30.58576
  21
60.78075
  31
0
  0
LINE
  8
0
  10
30.58576
  20
60.78075
  30
0
  11
30.64212
  21
60.93094
  31
0
  0
LINE
  8
0
  10
30.64212
  20
60.93094
  30
0
  11
30.70097
  21
61.08104
  31
0
  0
LINE
  8
0
  10
30.70097
  20
61.08104
  30
0
  11
30.76224
  21
61.23104
  31
0
  0
LINE
  8
0
  10
30.76224
  20
61.23104
  30
0
  11
30.82589
  21
61.38091
  31
0
  0
LINE
  8
0
  10
30.82589
  20
61.38091
  30
0
  11
30.89186
  21
61.53065
  31
0
  0
LINE
  8
0
  10
30.89186
  20
61.53065
  30
0
  11
30.96011
  21
61.68024
  31
0
  0
LINE
  8
0
  10
30.96011
  20
61.68024
  30
0
  11
31.03062
  21
61.82968
  31
0
  0
LINE
  8
0
  10
31.03062
  20
61.82968
  30
0
  11
32.49201
  21
61.78964
  31
0
  0
LINE
  8
0
  10
32.49201
  20
61.78964
  30
0
  11
32.55422
  21
61.63657
  31
0
  0
LINE
  8
0
  10
32.55422
  20
61.63657
  30
0
  11
32.61418
  21
61.48346
  31
0
  0
LINE
  8
0
  10
32.61418
  20
61.48346
  30
0
  11
32.67186
  21
61.33034
  31
0
  0
LINE
  8
0
  10
32.67186
  20
61.33034
  30
0
  11
32.7272
  21
61.17721
  31
0
  0
LINE
  8
0
  10
32.7272
  20
61.17721
  30
0
  11
32.78017
  21
61.02408
  31
0
  0
LINE
  8
0
  10
32.78017
  20
61.02408
  30
0
  11
32.83071
  21
60.87099
  31
0
  0
LINE
  8
0
  10
32.83071
  20
60.87099
  30
0
  11
32.87877
  21
60.71793
  31
0
  0
LINE
  8
0
  10
32.87877
  20
60.71793
  30
0
  11
32.92428
  21
60.56494
  31
0
  0
LINE
  8
0
  10
32.92428
  20
60.56494
  30
0
  11
32.96718
  21
60.41202
  31
0
  0
LINE
  8
0
  10
32.96718
  20
60.41202
  30
0
  11
33.00737
  21
60.2592
  31
0
  0
LINE
  8
0
  10
33.00737
  20
60.2592
  30
0
  11
33.04475
  21
60.1065
  31
0
  0
LINE
  8
0
  10
33.04475
  20
60.1065
  30
0
  11
33.07923
  21
59.95393
  31
0
  0
LINE
  8
0
  10
33.07923
  20
59.95393
  30
0
  11
33.11064
  21
59.80153
  31
0
  0
LINE
  8
0
  10
33.11064
  20
59.80153
  30
0
  11
33.13884
  21
59.64931
  31
0
  0
LINE
  8
0
  10
33.13884
  20
59.64931
  30
0
  11
33.16359
  21
59.4973
  31
0
  0
LINE
  8
0
  10
33.16359
  20
59.4973
  30
0
  11
33.16921
  21
59.45934
  31
0
  0
LINE
  8
0
  10
33.16921
  20
59.45934
  30
0
  11
33.17459
  21
59.42139
  31
0
  0
LINE
  8
0
  10
33.17459
  20
59.42139
  30
0
  11
33.17973
  21
59.38346
  31
0
  0
LINE
  8
0
  10
33.17973
  20
59.38346
  30
0
  11
33.18462
  21
59.34555
  31
0
  0
LINE
  8
0
  10
33.18462
  20
59.34555
  30
0
  11
34.7881
  21
59.17179
  31
0
  0
LINE
  8
0
  10
34.7881
  20
59.17179
  30
0
  11
34.801
  21
59.20777
  31
0
  0
LINE
  8
0
  10
34.801
  20
59.20777
  30
0
  11
34.81414
  21
59.24372
  31
0
  0
LINE
  8
0
  10
34.81414
  20
59.24372
  30
0
  11
34.82753
  21
59.27964
  31
0
  0
LINE
  8
0
  10
34.82753
  20
59.27964
  30
0
  11
34.84115
  21
59.31552
  31
0
  0
LINE
  8
0
  10
34.84115
  20
59.31552
  30
0
  11
34.89789
  21
59.45869
  31
0
  0
LINE
  8
0
  10
34.89789
  20
59.45869
  30
0
  11
34.95804
  21
59.60134
  31
0
  0
LINE
  8
0
  10
34.95804
  20
59.60134
  30
0
  11
35.02137
  21
59.74348
  31
0
  0
LINE
  8
0
  10
35.02137
  20
59.74348
  30
0
  11
35.08772
  21
59.88512
  31
0
  0
LINE
  8
0
  10
35.08772
  20
59.88512
  30
0
  11
35.15695
  21
60.02627
  31
0
  0
LINE
  8
0
  10
35.15695
  20
60.02627
  30
0
  11
35.22895
  21
60.16693
  31
0
  0
LINE
  8
0
  10
35.22895
  20
60.16693
  30
0
  11
35.3036
  21
60.30711
  31
0
  0
LINE
  8
0
  10
35.3036
  20
60.30711
  30
0
  11
35.38083
  21
60.4468
  31
0
  0
LINE
  8
0
  10
35.38083
  20
60.4468
  30
0
  11
35.46056
  21
60.58601
  31
0
  0
LINE
  8
0
  10
35.46056
  20
60.58601
  30
0
  11
35.54272
  21
60.72472
  31
0
  0
LINE
  8
0
  10
35.54272
  20
60.72472
  30
0
  11
35.62726
  21
60.86295
  31
0
  0
LINE
  8
0
  10
35.62726
  20
60.86295
  30
0
  11
35.71412
  21
61.00067
  31
0
  0
LINE
  8
0
  10
35.71412
  20
61.00067
  30
0
  11
35.80326
  21
61.13789
  31
0
  0
LINE
  8
0
  10
35.80326
  20
61.13789
  30
0
  11
35.89463
  21
61.27459
  31
0
  0
LINE
  8
0
  10
35.89463
  20
61.27459
  30
0
  11
35.98819
  21
61.41078
  31
0
  0
LINE
  8
0
  10
35.98819
  20
61.41078
  30
0
  11
37.42423
  21
61.13685
  31
0
  0
LINE
  8
0
  10
37.42423
  20
61.13685
  30
0
  11
37.46109
  21
60.97578
  31
0
  0
LINE
  8
0
  10
37.46109
  20
60.97578
  30
0
  11
37.49571
  21
60.81503
  31
0
  0
LINE
  8
0
  10
37.49571
  20
60.81503
  30
0
  11
37.52808
  21
60.65464
  31
0
  0
LINE
  8
0
  10
37.52808
  20
60.65464
  30
0
  11
37.55814
  21
60.49461
  31
0
  0
LINE
  8
0
  10
37.55814
  20
60.49461
  30
0
  11
37.58586
  21
60.33497
  31
0
  0
LINE
  8
0
  10
37.58586
  20
60.33497
  30
0
  11
37.61119
  21
60.17575
  31
0
  0
LINE
  8
0
  10
37.61119
  20
60.17575
  30
0
  11
37.63407
  21
60.01697
  31
0
  0
LINE
  8
0
  10
37.63407
  20
60.01697
  30
0
  11
37.65446
  21
59.85866
  31
0
  0
LINE
  8
0
  10
37.65446
  20
59.85866
  30
0
  11
37.67226
  21
59.70084
  31
0
  0
LINE
  8
0
  10
37.67226
  20
59.70084
  30
0
  11
37.68742
  21
59.54356
  31
0
  0
LINE
  8
0
  10
37.68742
  20
59.54356
  30
0
  11
37.69983
  21
59.38683
  31
0
  0
LINE
  8
0
  10
37.69983
  20
59.38683
  30
0
  11
37.70938
  21
59.23071
  31
0
  0
LINE
  8
0
  10
37.70938
  20
59.23071
  30
0
  11
37.71594
  21
59.07524
  31
0
  0
LINE
  8
0
  10
37.71594
  20
59.07524
  30
0
  11
37.71935
  21
58.92047
  31
0
  0
LINE
  8
0
  10
37.71935
  20
58.92047
  30
0
  11
37.7194
  21
58.76646
  31
0
  0
LINE
  8
0
  10
37.7194
  20
58.76646
  30
0
  11
37.71886
  21
58.72809
  31
0
  0
LINE
  8
0
  10
37.71886
  20
58.72809
  30
0
  11
37.71808
  21
58.68977
  31
0
  0
LINE
  8
0
  10
37.71808
  20
58.68977
  30
0
  11
37.71707
  21
58.6515
  31
0
  0
LINE
  8
0
  10
37.71707
  20
58.6515
  30
0
  11
37.71582
  21
58.6133
  31
0
  0
LINE
  8
0
  10
37.71582
  20
58.6133
  30
0
  11
39.27066
  21
58.18457
  31
0
  0
LINE
  8
0
  10
39.27066
  20
58.18457
  30
0
  11
39.28917
  21
58.21802
  31
0
  0
LINE
  8
0
  10
39.28917
  20
58.21802
  30
0
  11
39.30791
  21
58.2514
  31
0
  0
LINE
  8
0
  10
39.30791
  20
58.2514
  30
0
  11
39.32688
  21
58.2847
  31
0
  0
LINE
  8
0
  10
39.32688
  20
58.2847
  30
0
  11
39.34608
  21
58.31793
  31
0
  0
LINE
  8
0
  10
39.34608
  20
58.31793
  30
0
  11
39.42505
  21
58.45015
  31
0
  0
LINE
  8
0
  10
39.42505
  20
58.45015
  30
0
  11
39.5073
  21
58.5813
  31
0
  0
LINE
  8
0
  10
39.5073
  20
58.5813
  30
0
  11
39.59261
  21
58.71144
  31
0
  0
LINE
  8
0
  10
39.59261
  20
58.71144
  30
0
  11
39.68083
  21
58.8406
  31
0
  0
LINE
  8
0
  10
39.68083
  20
58.8406
  30
0
  11
39.77181
  21
58.96882
  31
0
  0
LINE
  8
0
  10
39.77181
  20
58.96882
  30
0
  11
39.86543
  21
59.09611
  31
0
  0
LINE
  8
0
  10
39.86543
  20
59.09611
  30
0
  11
39.9616
  21
59.2225
  31
0
  0
LINE
  8
0
  10
39.9616
  20
59.2225
  30
0
  11
40.06024
  21
59.34799
  31
0
  0
LINE
  8
0
  10
40.06024
  20
59.34799
  30
0
  11
40.16127
  21
59.47261
  31
0
  0
LINE
  8
0
  10
40.16127
  20
59.47261
  30
0
  11
40.26462
  21
59.59635
  31
0
  0
LINE
  8
0
  10
40.26462
  20
59.59635
  30
0
  11
40.37024
  21
59.71922
  31
0
  0
LINE
  8
0
  10
40.37024
  20
59.71922
  30
0
  11
40.47806
  21
59.84122
  31
0
  0
LINE
  8
0
  10
40.47806
  20
59.84122
  30
0
  11
40.58806
  21
59.96237
  31
0
  0
LINE
  8
0
  10
40.58806
  20
59.96237
  30
0
  11
40.70017
  21
60.08265
  31
0
  0
LINE
  8
0
  10
40.70017
  20
60.08265
  30
0
  11
40.81437
  21
60.20207
  31
0
  0
LINE
  8
0
  10
40.81437
  20
60.20207
  30
0
  11
42.18787
  21
59.70132
  31
0
  0
LINE
  8
0
  10
42.18787
  20
59.70132
  30
0
  11
42.19841
  21
59.53642
  31
0
  0
LINE
  8
0
  10
42.19841
  20
59.53642
  30
0
  11
42.20681
  21
59.37221
  31
0
  0
LINE
  8
0
  10
42.20681
  20
59.37221
  30
0
  11
42.21302
  21
59.2087
  31
0
  0
LINE
  8
0
  10
42.21302
  20
59.2087
  30
0
  11
42.21702
  21
59.04592
  31
0
  0
LINE
  8
0
  10
42.21702
  20
59.04592
  30
0
  11
42.21878
  21
58.8839
  31
0
  0
LINE
  8
0
  10
42.21878
  20
58.8839
  30
0
  11
42.21824
  21
58.72268
  31
0
  0
LINE
  8
0
  10
42.21824
  20
58.72268
  30
0
  11
42.21536
  21
58.56229
  31
0
  0
LINE
  8
0
  10
42.21536
  20
58.56229
  30
0
  11
42.21008
  21
58.40275
  31
0
  0
LINE
  8
0
  10
42.21008
  20
58.40275
  30
0
  11
42.20234
  21
58.24412
  31
0
  0
LINE
  8
0
  10
42.20234
  20
58.24412
  30
0
  11
42.19207
  21
58.08644
  31
0
  0
LINE
  8
0
  10
42.19207
  20
58.08644
  30
0
  11
42.17918
  21
57.92976
  31
0
  0
LINE
  8
0
  10
42.17918
  20
57.92976
  30
0
  11
42.16356
  21
57.77413
  31
0
  0
LINE
  8
0
  10
42.16356
  20
57.77413
  30
0
  11
42.1451
  21
57.61961
  31
0
  0
LINE
  8
0
  10
42.1451
  20
57.61961
  30
0
  11
42.12364
  21
57.4663
  31
0
  0
LINE
  8
0
  10
42.12364
  20
57.4663
  30
0
  11
42.09898
  21
57.31428
  31
0
  0
LINE
  8
0
  10
42.09898
  20
57.31428
  30
0
  11
42.09229
  21
57.27649
  31
0
  0
LINE
  8
0
  10
42.09229
  20
57.27649
  30
0
  11
42.08538
  21
57.23879
  31
0
  0
LINE
  8
0
  10
42.08538
  20
57.23879
  30
0
  11
42.07824
  21
57.20119
  31
0
  0
LINE
  8
0
  10
42.07824
  20
57.20119
  30
0
  11
42.07087
  21
57.16368
  31
0
  0
LINE
  8
0
  10
42.07087
  20
57.16368
  30
0
  11
43.53681
  21
56.49109
  31
0
  0
LINE
  8
0
  10
43.53681
  20
56.49109
  30
0
  11
43.56044
  21
56.52114
  31
0
  0
LINE
  8
0
  10
43.56044
  20
56.52114
  30
0
  11
43.5843
  21
56.55107
  31
0
  0
LINE
  8
0
  10
43.5843
  20
56.55107
  30
0
  11
43.60836
  21
56.5809
  31
0
  0
LINE
  8
0
  10
43.60836
  20
56.5809
  30
0
  11
43.63265
  21
56.61062
  31
0
  0
LINE
  8
0
  10
43.63265
  20
56.61062
  30
0
  11
43.7318
  21
56.72846
  31
0
  0
LINE
  8
0
  10
43.7318
  20
56.72846
  30
0
  11
43.83403
  21
56.84472
  31
0
  0
LINE
  8
0
  10
43.83403
  20
56.84472
  30
0
  11
43.93911
  21
56.95948
  31
0
  0
LINE
  8
0
  10
43.93911
  20
56.95948
  30
0
  11
44.0469
  21
57.07282
  31
0
  0
LINE
  8
0
  10
44.0469
  20
57.07282
  30
0
  11
44.15727
  21
57.18479
  31
0
  0
LINE
  8
0
  10
44.15727
  20
57.18479
  30
0
  11
44.2701
  21
57.29541
  31
0
  0
LINE
  8
0
  10
44.2701
  20
57.29541
  30
0
  11
44.3853
  21
57.40474
  31
0
  0
LINE
  8
0
  10
44.3853
  20
57.40474
  30
0
  11
44.50279
  21
57.51279
  31
0
  0
LINE
  8
0
  10
44.50279
  20
57.51279
  30
0
  11
44.6225
  21
57.61958
  31
0
  0
LINE
  8
0
  10
44.6225
  20
57.61958
  30
0
  11
44.74436
  21
57.72514
  31
0
  0
LINE
  8
0
  10
44.74436
  20
57.72514
  30
0
  11
44.86832
  21
57.82948
  31
0
  0
LINE
  8
0
  10
44.86832
  20
57.82948
  30
0
  11
44.99433
  21
57.9326
  31
0
  0
LINE
  8
0
  10
44.99433
  20
57.9326
  30
0
  11
45.12233
  21
58.03453
  31
0
  0
LINE
  8
0
  10
45.12233
  20
58.03453
  30
0
  11
45.25229
  21
58.13527
  31
0
  0
LINE
  8
0
  10
45.25229
  20
58.13527
  30
0
  11
45.38416
  21
58.23483
  31
0
  0
LINE
  8
0
  10
45.38416
  20
58.23483
  30
0
  11
46.65955
  21
57.52024
  31
0
  0
LINE
  8
0
  10
46.65955
  20
57.52024
  30
0
  11
46.6435
  21
57.35579
  31
0
  0
LINE
  8
0
  10
46.6435
  20
57.35579
  30
0
  11
46.62544
  21
57.19235
  31
0
  0
LINE
  8
0
  10
46.62544
  20
57.19235
  30
0
  11
46.60535
  21
57.02996
  31
0
  0
LINE
  8
0
  10
46.60535
  20
57.02996
  30
0
  11
46.58319
  21
56.86865
  31
0
  0
LINE
  8
0
  10
46.58319
  20
56.86865
  30
0
  11
46.55893
  21
56.70845
  31
0
  0
LINE
  8
0
  10
46.55893
  20
56.70845
  30
0
  11
46.53254
  21
56.5494
  31
0
  0
LINE
  8
0
  10
46.53254
  20
56.5494
  30
0
  11
46.50397
  21
56.39155
  31
0
  0
LINE
  8
0
  10
46.50397
  20
56.39155
  30
0
  11
46.47316
  21
56.23493
  31
0
  0
LINE
  8
0
  10
46.47316
  20
56.23493
  30
0
  11
46.44008
  21
56.07959
  31
0
  0
LINE
  8
0
  10
46.44008
  20
56.07959
  30
0
  11
46.40465
  21
55.9256
  31
0
  0
LINE
  8
0
  10
46.40465
  20
55.9256
  30
0
  11
46.36679
  21
55.77301
  31
0
  0
LINE
  8
0
  10
46.36679
  20
55.77301
  30
0
  11
46.32641
  21
55.6219
  31
0
  0
LINE
  8
0
  10
46.32641
  20
55.6219
  30
0
  11
46.2834
  21
55.47235
  31
0
  0
LINE
  8
0
  10
46.2834
  20
55.47235
  30
0
  11
46.23763
  21
55.32447
  31
0
  0
LINE
  8
0
  10
46.23763
  20
55.32447
  30
0
  11
46.1889
  21
55.17837
  31
0
  0
LINE
  8
0
  10
46.1889
  20
55.17837
  30
0
  11
46.17624
  21
55.14214
  31
0
  0
LINE
  8
0
  10
46.17624
  20
55.14214
  30
0
  11
46.16337
  21
55.10604
  31
0
  0
LINE
  8
0
  10
46.16337
  20
55.10604
  30
0
  11
46.15029
  21
55.07007
  31
0
  0
LINE
  8
0
  10
46.15029
  20
55.07007
  30
0
  11
46.137
  21
55.03422
  31
0
  0
LINE
  8
0
  10
46.137
  20
55.03422
  30
0
  11
47.47607
  21
54.13519
  31
0
  0
LINE
  8
0
  10
47.47607
  20
54.13519
  30
0
  11
47.50421
  21
54.16106
  31
0
  0
LINE
  8
0
  10
47.50421
  20
54.16106
  30
0
  11
47.53255
  21
54.18679
  31
0
  0
LINE
  8
0
  10
47.53255
  20
54.18679
  30
0
  11
47.5611
  21
54.21236
  31
0
  0
LINE
  8
0
  10
47.5611
  20
54.21236
  30
0
  11
47.58983
  21
54.2378
  31
0
  0
LINE
  8
0
  10
47.58983
  20
54.2378
  30
0
  11
47.70661
  21
54.33821
  31
0
  0
LINE
  8
0
  10
47.70661
  20
54.33821
  30
0
  11
47.82615
  21
54.43657
  31
0
  0
LINE
  8
0
  10
47.82615
  20
54.43657
  30
0
  11
47.94829
  21
54.53299
  31
0
  0
LINE
  8
0
  10
47.94829
  20
54.53299
  30
0
  11
48.07287
  21
54.62757
  31
0
  0
LINE
  8
0
  10
48.07287
  20
54.62757
  30
0
  11
48.19976
  21
54.72038
  31
0
  0
LINE
  8
0
  10
48.19976
  20
54.72038
  30
0
  11
48.32888
  21
54.81148
  31
0
  0
LINE
  8
0
  10
48.32888
  20
54.81148
  30
0
  11
48.46013
  21
54.90091
  31
0
  0
LINE
  8
0
  10
48.46013
  20
54.90091
  30
0
  11
48.59343
  21
54.98871
  31
0
  0
LINE
  8
0
  10
48.59343
  20
54.98871
  30
0
  11
48.72872
  21
55.07492
  31
0
  0
LINE
  8
0
  10
48.72872
  20
55.07492
  30
0
  11
48.86593
  21
55.15956
  31
0
  0
LINE
  8
0
  10
48.86593
  20
55.15956
  30
0
  11
49.00502
  21
55.24266
  31
0
  0
LINE
  8
0
  10
49.00502
  20
55.24266
  30
0
  11
49.14594
  21
55.32424
  31
0
  0
LINE
  8
0
  10
49.14594
  20
55.32424
  30
0
  11
49.28863
  21
55.40432
  31
0
  0
LINE
  8
0
  10
49.28863
  20
55.40432
  30
0
  11
49.43307
  21
55.48291
  31
0
  0
LINE
  8
0
  10
49.43307
  20
55.48291
  30
0
  11
49.5792
  21
55.56002
  31
0
  0
LINE
  8
0
  10
49.5792
  20
55.56002
  30
0
  11
50.72345
  21
54.65009
  31
0
  0
LINE
  8
0
  10
50.72345
  20
54.65009
  30
0
  11
50.68123
  21
54.49035
  31
0
  0
LINE
  8
0
  10
50.68123
  20
54.49035
  30
0
  11
50.63719
  21
54.33192
  31
0
  0
LINE
  8
0
  10
50.63719
  20
54.33192
  30
0
  11
50.59131
  21
54.17486
  31
0
  0
LINE
  8
0
  10
50.59131
  20
54.17486
  30
0
  11
50.54356
  21
54.01919
  31
0
  0
LINE
  8
0
  10
50.54356
  20
54.01919
  30
0
  11
50.49392
  21
53.86496
  31
0
  0
LINE
  8
0
  10
50.49392
  20
53.86496
  30
0
  11
50.44235
  21
53.71221
  31
0
  0
LINE
  8
0
  10
50.44235
  20
53.71221
  30
0
  11
50.38883
  21
53.56098
  31
0
  0
LINE
  8
0
  10
50.38883
  20
53.56098
  30
0
  11
50.3333
  21
53.41133
  31
0
  0
LINE
  8
0
  10
50.3333
  20
53.41133
  30
0
  11
50.27573
  21
53.26331
  31
0
  0
LINE
  8
0
  10
50.27573
  20
53.26331
  30
0
  11
50.21605
  21
53.117
  31
0
  0
LINE
  8
0
  10
50.21605
  20
53.117
  30
0
  11
50.15421
  21
52.97246
  31
0
  0
LINE
  8
0
  10
50.15421
  20
52.97246
  30
0
  11
50.09011
  21
52.82978
  31
0
  0
LINE
  8
0
  10
50.09011
  20
52.82978
  30
0
  11
50.02367
  21
52.68907
  31
0
  0
LINE
  8
0
  10
50.02367
  20
52.68907
  30
0
  11
49.95476
  21
52.55044
  31
0
  0
LINE
  8
0
  10
49.95476
  20
52.55044
  30
0
  11
49.88324
  21
52.41405
  31
0
  0
LINE
  8
0
  10
49.88324
  20
52.41405
  30
0
  11
49.86492
  21
52.38032
  31
0
  0
LINE
  8
0
  10
49.86492
  20
52.38032
  30
0
  11
49.84643
  21
52.34675
  31
0
  0
LINE
  8
0
  10
49.84643
  20
52.34675
  30
0
  11
49.82775
  21
52.31334
  31
0
  0
LINE
  8
0
  10
49.82775
  20
52.31334
  30
0
  11
49.80888
  21
52.2801
  31
0
  0
LINE
  8
0
  10
49.80888
  20
52.2801
  30
0
  11
50.98639
  21
51.17791
  31
0
  0
LINE
  8
0
  10
50.98639
  20
51.17791
  30
0
  11
51.01832
  21
51.19893
  31
0
  0
LINE
  8
0
  10
51.01832
  20
51.19893
  30
0
  11
51.05043
  21
51.21977
  31
0
  0
LINE
  8
0
  10
51.05043
  20
51.21977
  30
0
  11
51.0827
  21
51.24044
  31
0
  0
LINE
  8
0
  10
51.0827
  20
51.24044
  30
0
  11
51.11515
  21
51.26094
  31
0
  0
LINE
  8
0
  10
51.11515
  20
51.26094
  30
0
  11
51.24652
  21
51.34131
  31
0
  0
LINE
  8
0
  10
51.24652
  20
51.34131
  30
0
  11
51.38029
  21
51.41922
  31
0
  0
LINE
  8
0
  10
51.38029
  20
51.41922
  30
0
  11
51.51631
  21
51.4948
  31
0
  0
LINE
  8
0
  10
51.51631
  20
51.4948
  30
0
  11
51.65445
  21
51.56818
  31
0
  0
LINE
  8
0
  10
51.65445
  20
51.56818
  30
0
  11
51.79459
  21
51.63943
  31
0
  0
LINE
  8
0
  10
51.79459
  20
51.63943
  30
0
  11
51.93665
  21
51.70863
  31
0
  0
LINE
  8
0
  10
51.93665
  20
51.70863
  30
0
  11
52.08054
  21
51.77585
  31
0
  0
LINE
  8
0
  10
52.08054
  20
51.77585
  30
0
  11
52.2262
  21
51.84113
  31
0
  0
LINE
  8
0
  10
52.2262
  20
51.84113
  30
0
  11
52.37356
  21
51.90452
  31
0
  0
LINE
  8
0
  10
52.37356
  20
51.90452
  30
0
  11
52.52258
  21
51.96606
  31
0
  0
LINE
  8
0
  10
52.52258
  20
51.96606
  30
0
  11
52.6732
  21
52.02577
  31
0
  0
LINE
  8
0
  10
52.6732
  20
52.02577
  30
0
  11
52.82538
  21
52.08369
  31
0
  0
LINE
  8
0
  10
52.82538
  20
52.08369
  30
0
  11
52.97907
  21
52.13984
  31
0
  0
LINE
  8
0
  10
52.97907
  20
52.13984
  30
0
  11
53.13424
  21
52.19424
  31
0
  0
LINE
  8
0
  10
53.13424
  20
52.19424
  30
0
  11
53.29085
  21
52.24691
  31
0
  0
LINE
  8
0
  10
53.29085
  20
52.24691
  30
0
  11
54.27432
  21
51.16522
  31
0
  0
LINE
  8
0
  10
54.27432
  20
51.16522
  30
0
  11
54.20702
  21
51.01432
  31
0
  0
LINE
  8
0
  10
54.20702
  20
51.01432
  30
0
  11
54.13814
  21
50.86501
  31
0
  0
LINE
  8
0
  10
54.13814
  20
50.86501
  30
0
  11
54.06766
  21
50.71734
  31
0
  0
LINE
  8
0
  10
54.06766
  20
50.71734
  30
0
  11
53.99555
  21
50.57135
  31
0
  0
LINE
  8
0
  10
53.99555
  20
50.57135
  30
0
  11
53.92181
  21
50.42708
  31
0
  0
LINE
  8
0
  10
53.92181
  20
50.42708
  30
0
  11
53.84641
  21
50.28457
  31
0
  0
LINE
  8
0
  10
53.84641
  20
50.28457
  30
0
  11
53.76932
  21
50.14389
  31
0
  0
LINE
  8
0
  10
53.76932
  20
50.14389
  30
0
  11
53.69051
  21
50.00508
  31
0
  0
LINE
  8
0
  10
53.69051
  20
50.00508
  30
0
  11
53.60994
  21
49.86822
  31
0
  0
LINE
  8
0
  10
53.60994
  20
49.86822
  30
0
  11
53.52757
  21
49.73337
  31
0
  0
LINE
  8
0
  10
53.52757
  20
49.73337
  30
0
  11
53.44334
  21
49.60062
  31
0
  0
LINE
  8
0
  10
53.44334
  20
49.60062
  30
0
  11
53.35718
  21
49.47008
  31
0
  0
LINE
  8
0
  10
53.35718
  20
49.47008
  30
0
  11
53.26903
  21
49.34184
  31
0
  0
LINE
  8
0
  10
53.26903
  20
49.34184
  30
0
  11
53.17878
  21
49.21606
  31
0
  0
LINE
  8
0
  10
53.17878
  20
49.21606
  30
0
  11
53.0863
  21
49.09292
  31
0
  0
LINE
  8
0
  10
53.0863
  20
49.09292
  30
0
  11
53.06281
  21
49.06256
  31
0
  0
LINE
  8
0
  10
53.06281
  20
49.06256
  30
0
  11
53.03917
  21
49.0324
  31
0
  0
LINE
  8
0
  10
53.03917
  20
49.0324
  30
0
  11
53.01538
  21
49.00241
  31
0
  0
LINE
  8
0
  10
53.01538
  20
49.00241
  30
0
  11
52.99142
  21
48.97262
  31
0
  0
LINE
  8
0
  10
52.99142
  20
48.97262
  30
0
  11
53.97688
  21
47.69582
  31
0
  0
LINE
  8
0
  10
53.97688
  20
47.69582
  30
0
  11
54.01177
  21
47.71145
  31
0
  0
LINE
  8
0
  10
54.01177
  20
47.71145
  30
0
  11
54.0468
  21
47.72687
  31
0
  0
LINE
  8
0
  10
54.0468
  20
47.72687
  30
0
  11
54.08197
  21
47.74209
  31
0
  0
LINE
  8
0
  10
54.08197
  20
47.74209
  30
0
  11
54.11728
  21
47.75712
  31
0
  0
LINE
  8
0
  10
54.11728
  20
47.75712
  30
0
  11
54.25985
  21
47.81538
  31
0
  0
LINE
  8
0
  10
54.25985
  20
47.81538
  30
0
  11
54.40439
  21
47.87082
  31
0
  0
LINE
  8
0
  10
54.40439
  20
47.87082
  30
0
  11
54.55077
  21
47.92361
  31
0
  0
LINE
  8
0
  10
54.55077
  20
47.92361
  30
0
  11
54.69889
  21
47.97387
  31
0
  0
LINE
  8
0
  10
54.69889
  20
47.97387
  30
0
  11
54.84864
  21
48.02172
  31
0
  0
LINE
  8
0
  10
54.84864
  20
48.02172
  30
0
  11
54.99996
  21
48.06724
  31
0
  0
LINE
  8
0
  10
54.99996
  20
48.06724
  30
0
  11
55.15277
  21
48.11051
  31
0
  0
LINE
  8
0
  10
55.15277
  20
48.11051
  30
0
  11
55.30702
  21
48.15158
  31
0
  0
LINE
  8
0
  10
55.30702
  20
48.15158
  30
0
  11
55.46265
  21
48.19051
  31
0
  0
LINE
  8
0
  10
55.46265
  20
48.19051
  30
0
  11
55.6196
  21
48.22734
  31
0
  0
LINE
  8
0
  10
55.6196
  20
48.22734
  30
0
  11
55.77785
  21
48.26212
  31
0
  0
LINE
  8
0
  10
55.77785
  20
48.26212
  30
0
  11
55.93735
  21
48.29488
  31
0
  0
LINE
  8
0
  10
55.93735
  20
48.29488
  30
0
  11
56.09806
  21
48.32565
  31
0
  0
LINE
  8
0
  10
56.09806
  20
48.32565
  30
0
  11
56.25995
  21
48.35446
  31
0
  0
LINE
  8
0
  10
56.25995
  20
48.35446
  30
0
  11
56.42298
  21
48.38132
  31
0
  0
LINE
  8
0
  10
56.42298
  20
48.38132
  30
0
  11
57.22019
  21
47.15588
  31
0
  0
LINE
  8
0
  10
57.22019
  20
47.15588
  30
0
  11
57.12956
  21
47.01772
  31
0
  0
LINE
  8
0
  10
57.12956
  20
47.01772
  30
0
  11
57.03762
  21
46.8814
  31
0
  0
LINE
  8
0
  10
57.03762
  20
46.8814
  30
0
  11
56.94436
  21
46.74695
  31
0
  0
LINE
  8
0
  10
56.94436
  20
46.74695
  30
0
  11
56.84978
  21
46.61441
  31
0
  0
LINE
  8
0
  10
56.84978
  20
46.61441
  30
0
  11
56.75385
  21
46.48384
  31
0
  0
LINE
  8
0
  10
56.75385
  20
46.48384
  30
0
  11
56.65656
  21
46.35527
  31
0
  0
LINE
  8
0
  10
56.65656
  20
46.35527
  30
0
  11
56.5579
  21
46.22878
  31
0
  0
LINE
  8
0
  10
56.5579
  20
46.22878
  30
0
  11
56.45785
  21
46.10441
  31
0
  0
LINE
  8
0
  10
56.45785
  20
46.10441
  30
0
  11
56.35636
  21
45.98224
  31
0
  0
LINE
  8
0
  10
56.35636
  20
45.98224
  30
0
  11
56.25343
  21
45.86236
  31
0
  0
LINE
  8
0
  10
56.25343
  20
45.86236
  30
0
  11
56.14899
  21
45.74484
  31
0
  0
LINE
  8
0
  10
56.14899
  20
45.74484
  30
0
  11
56.04301
  21
45.6298
  31
0
  0
LINE
  8
0
  10
56.04301
  20
45.6298
  30
0
  11
55.93543
  21
45.51737
  31
0
  0
LINE
  8
0
  10
55.93543
  20
45.51737
  30
0
  11
55.82617
  21
45.4077
  31
0
  0
LINE
  8
0
  10
55.82617
  20
45.4077
  30
0
  11
55.71514
  21
45.30098
  31
0
  0
LINE
  8
0
  10
55.71514
  20
45.30098
  30
0
  11
55.68709
  21
45.27479
  31
0
  0
LINE
  8
0
  10
55.68709
  20
45.27479
  30
0
  11
55.65891
  21
45.2488
  31
0
  0
LINE
  8
0
  10
55.65891
  20
45.2488
  30
0
  11
55.63062
  21
45.22303
  31
0
  0
LINE
  8
0
  10
55.63062
  20
45.22303
  30
0
  11
55.60219
  21
45.19747
  31
0
  0
LINE
  8
0
  10
55.60219
  20
45.19747
  30
0
  11
56.37008
  21
43.77912
  31
0
  0
LINE
  8
0
  10
56.37008
  20
43.77912
  30
0
  11
56.40702
  21
43.78895
  31
0
  0
LINE
  8
0
  10
56.40702
  20
43.78895
  30
0
  11
56.44407
  21
43.79855
  31
0
  0
LINE
  8
0
  10
56.44407
  20
43.79855
  30
0
  11
56.48123
  21
43.80793
  31
0
  0
LINE
  8
0
  10
56.48123
  20
43.80793
  30
0
  11
56.5185
  21
43.81711
  31
0
  0
LINE
  8
0
  10
56.5185
  20
43.81711
  30
0
  11
56.66856
  21
43.85174
  31
0
  0
LINE
  8
0
  10
56.66856
  20
43.85174
  30
0
  11
56.82012
  21
43.88328
  31
0
  0
LINE
  8
0
  10
56.82012
  20
43.88328
  30
0
  11
56.97308
  21
43.9119
  31
0
  0
LINE
  8
0
  10
56.97308
  20
43.9119
  30
0
  11
57.12734
  21
43.93775
  31
0
  0
LINE
  8
0
  10
57.12734
  20
43.93775
  30
0
  11
57.28283
  21
43.96096
  31
0
  0
LINE
  8
0
  10
57.28283
  20
43.96096
  30
0
  11
57.43949
  21
43.98162
  31
0
  0
LINE
  8
0
  10
57.43949
  20
43.98162
  30
0
  11
57.59726
  21
43.99981
  31
0
  0
LINE
  8
0
  10
57.59726
  20
43.99981
  30
0
  11
57.7561
  21
44.0156
  31
0
  0
LINE
  8
0
  10
57.7561
  20
44.0156
  30
0
  11
57.91595
  21
44.02907
  31
0
  0
LINE
  8
0
  10
57.91595
  20
44.02907
  30
0
  11
58.07679
  21
44.04025
  31
0
  0
LINE
  8
0
  10
58.07679
  20
44.04025
  30
0
  11
58.23857
  21
44.04919
  31
0
  0
LINE
  8
0
  10
58.23857
  20
44.04919
  30
0
  11
58.40125
  21
44.05594
  31
0
  0
LINE
  8
0
  10
58.40125
  20
44.05594
  30
0
  11
58.56482
  21
44.06053
  31
0
  0
LINE
  8
0
  10
58.56482
  20
44.06053
  30
0
  11
58.72923
  21
44.06299
  31
0
  0
LINE
  8
0
  10
58.72923
  20
44.06299
  30
0
  11
58.89446
  21
44.06336
  31
0
  0
LINE
  8
0
  10
58.89446
  20
44.06336
  30
0
  11
59.48478
  21
42.72591
  31
0
  0
LINE
  8
0
  10
59.48478
  20
42.72591
  30
0
  11
59.37316
  21
42.60408
  31
0
  0
LINE
  8
0
  10
59.37316
  20
42.60408
  30
0
  11
59.26054
  21
42.48427
  31
0
  0
LINE
  8
0
  10
59.26054
  20
42.48427
  30
0
  11
59.14692
  21
42.36652
  31
0
  0
LINE
  8
0
  10
59.14692
  20
42.36652
  30
0
  11
59.0323
  21
42.25087
  31
0
  0
LINE
  8
0
  10
59.0323
  20
42.25087
  30
0
  11
58.91667
  21
42.13737
  31
0
  0
LINE
  8
0
  10
58.91667
  20
42.13737
  30
0
  11
58.80002
  21
42.02608
  31
0
  0
LINE
  8
0
  10
58.80002
  20
42.02608
  30
0
  11
58.68234
  21
41.91705
  31
0
  0
LINE
  8
0
  10
58.68234
  20
41.91705
  30
0
  11
58.56363
  21
41.81034
  31
0
  0
LINE
  8
0
  10
58.56363
  20
41.81034
  30
0
  11
58.44387
  21
41.70604
  31
0
  0
LINE
  8
0
  10
58.44387
  20
41.70604
  30
0
  11
58.32303
  21
41.60421
  31
0
  0
LINE
  8
0
  10
58.32303
  20
41.60421
  30
0
  11
58.2011
  21
41.50497
  31
0
  0
LINE
  8
0
  10
58.2011
  20
41.50497
  30
0
  11
58.07804
  21
41.40842
  31
0
  0
LINE
  8
0
  10
58.07804
  20
41.40842
  30
0
  11
57.95382
  21
41.31471
  31
0
  0
LINE
  8
0
  10
57.95382
  20
41.31471
  30
0
  11
57.82838
  21
41.22398
  31
0
  0
LINE
  8
0
  10
57.82838
  20
41.22398
  30
0
  11
57.70166
  21
41.13645
  31
0
  0
LINE
  8
0
  10
57.70166
  20
41.13645
  30
0
  11
57.66977
  21
41.1151
  31
0
  0
LINE
  8
0
  10
57.66977
  20
41.1151
  30
0
  11
57.6378
  21
41.09397
  31
0
  0
LINE
  8
0
  10
57.6378
  20
41.09397
  30
0
  11
57.60573
  21
41.07307
  31
0
  0
LINE
  8
0
  10
57.60573
  20
41.07307
  30
0
  11
57.57358
  21
41.0524
  31
0
  0
LINE
  8
0
  10
57.57358
  20
41.0524
  30
0
  11
58.104
  21
39.52924
  31
0
  0
LINE
  8
0
  10
58.104
  20
39.52924
  30
0
  11
58.14204
  21
39.53302
  31
0
  0
LINE
  8
0
  10
58.14204
  20
39.53302
  30
0
  11
58.18015
  21
39.53655
  31
0
  0
LINE
  8
0
  10
58.18015
  20
39.53655
  30
0
  11
58.21833
  21
39.53985
  31
0
  0
LINE
  8
0
  10
58.21833
  20
39.53985
  30
0
  11
58.25659
  21
39.54293
  31
0
  0
LINE
  8
0
  10
58.25659
  20
39.54293
  30
0
  11
58.41026
  21
39.55304
  31
0
  0
LINE
  8
0
  10
58.41026
  20
39.55304
  30
0
  11
58.56492
  21
39.55986
  31
0
  0
LINE
  8
0
  10
58.56492
  20
39.55986
  30
0
  11
58.72049
  21
39.56357
  31
0
  0
LINE
  8
0
  10
58.72049
  20
39.56357
  30
0
  11
58.8769
  21
39.56435
  31
0
  0
LINE
  8
0
  10
58.8769
  20
39.56435
  30
0
  11
59.0341
  21
39.56231
  31
0
  0
LINE
  8
0
  10
59.0341
  20
39.56231
  30
0
  11
59.19204
  21
39.55757
  31
0
  0
LINE
  8
0
  10
59.19204
  20
39.55757
  30
0
  11
59.35069
  21
39.55022
  31
0
  0
LINE
  8
0
  10
59.35069
  20
39.55022
  30
0
  11
59.51001
  21
39.54033
  31
0
  0
LINE
  8
0
  10
59.51001
  20
39.54033
  30
0
  11
59.66995
  21
39.52797
  31
0
  0
LINE
  8
0
  10
59.66995
  20
39.52797
  30
0
  11
59.8305
  21
39.51321
  31
0
  0
LINE
  8
0
  10
59.8305
  20
39.51321
  30
0
  11
59.99161
  21
39.49609
  31
0
  0
LINE
  8
0
  10
59.99161
  20
39.49609
  30
0
  11
60.15328
  21
39.47665
  31
0
  0
LINE
  8
0
  10
60.15328
  20
39.47665
  30
0
  11
60.31546
  21
39.45495
  31
0
  0
LINE
  8
0
  10
60.31546
  20
39.45495
  30
0
  11
60.47814
  21
39.43101
  31
0
  0
LINE
  8
0
  10
60.47814
  20
39.43101
  30
0
  11
60.64129
  21
39.40486
  31
0
  0
LINE
  8
0
  10
60.64129
  20
39.40486
  30
0
  11
61.00942
  21
37.99003
  31
0
  0
LINE
  8
0
  10
61.00942
  20
37.99003
  30
0
  11
60.8797
  21
37.88769
  31
0
  0
LINE
  8
0
  10
60.8797
  20
37.88769
  30
0
  11
60.74932
  21
37.78749
  31
0
  0
LINE
  8
0
  10
60.74932
  20
37.78749
  30
0
  11
60.61828
  21
37.6895
  31
0
  0
LINE
  8
0
  10
60.61828
  20
37.6895
  30
0
  11
60.4866
  21
37.59373
  31
0
  0
LINE
  8
0
  10
60.4866
  20
37.59373
  30
0
  11
60.35426
  21
37.50025
  31
0
  0
LINE
  8
0
  10
60.35426
  20
37.50025
  30
0
  11
60.22127
  21
37.40911
  31
0
  0
LINE
  8
0
  10
60.22127
  20
37.40911
  30
0
  11
60.08763
  21
37.32037
  31
0
  0
LINE
  8
0
  10
60.08763
  20
37.32037
  30
0
  11
59.95333
  21
37.23409
  31
0
  0
LINE
  8
0
  10
59.95333
  20
37.23409
  30
0
  11
59.81839
  21
37.15035
  31
0
  0
LINE
  8
0
  10
59.81839
  20
37.15035
  30
0
  11
59.68278
  21
37.06923
  31
0
  0
LINE
  8
0
  10
59.68278
  20
37.06923
  30
0
  11
59.54651
  21
36.99083
  31
0
  0
LINE
  8
0
  10
59.54651
  20
36.99083
  30
0
  11
59.40956
  21
36.91527
  31
0
  0
LINE
  8
0
  10
59.40956
  20
36.91527
  30
0
  11
59.27191
  21
36.84269
  31
0
  0
LINE
  8
0
  10
59.27191
  20
36.84269
  30
0
  11
59.13354
  21
36.77326
  31
0
  0
LINE
  8
0
  10
59.13354
  20
36.77326
  30
0
  11
58.99443
  21
36.7072
  31
0
  0
LINE
  8
0
  10
58.99443
  20
36.7072
  30
0
  11
58.95953
  21
36.69124
  31
0
  0
LINE
  8
0
  10
58.95953
  20
36.69124
  30
0
  11
58.92457
  21
36.67551
  31
0
  0
LINE
  8
0
  10
58.92457
  20
36.67551
  30
0
  11
58.88957
  21
36.66002
  31
0
  0
LINE
  8
0
  10
58.88957
  20
36.66002
  30
0
  11
58.85452
  21
36.64478
  31
0
  0
LINE
  8
0
  10
58.85452
  20
36.64478
  30
0
  11
59.13374
  21
35.05626
  31
0
  0
LINE
  8
0
  10
59.13374
  20
35.05626
  30
0
  11
59.17189
  21
35.05388
  31
0
  0
LINE
  8
0
  10
59.17189
  20
35.05388
  30
0
  11
59.21008
  21
35.05126
  31
0
  0
LINE
  8
0
  10
59.21008
  20
35.05126
  30
0
  11
59.24829
  21
35.04839
  31
0
  0
LINE
  8
0
  10
59.24829
  20
35.04839
  30
0
  11
59.28655
  21
35.04529
  31
0
  0
LINE
  8
0
  10
59.28655
  20
35.04529
  30
0
  11
59.43985
  21
35.03063
  31
0
  0
LINE
  8
0
  10
59.43985
  20
35.03063
  30
0
  11
59.5936
  21
35.01254
  31
0
  0
LINE
  8
0
  10
59.5936
  20
35.01254
  30
0
  11
59.74775
  21
34.99125
  31
0
  0
LINE
  8
0
  10
59.74775
  20
34.99125
  30
0
  11
59.90226
  21
34.96693
  31
0
  0
LINE
  8
0
  10
59.90226
  20
34.96693
  30
0
  11
60.0571
  21
34.9397
  31
0
  0
LINE
  8
0
  10
60.0571
  20
34.9397
  30
0
  11
60.21224
  21
34.90968
  31
0
  0
LINE
  8
0
  10
60.21224
  20
34.90968
  30
0
  11
60.36765
  21
34.87698
  31
0
  0
LINE
  8
0
  10
60.36765
  20
34.87698
  30
0
  11
60.52332
  21
34.84166
  31
0
  0
LINE
  8
0
  10
60.52332
  20
34.84166
  30
0
  11
60.67921
  21
34.80381
  31
0
  0
LINE
  8
0
  10
60.67921
  20
34.80381
  30
0
  11
60.83531
  21
34.76348
  31
0
  0
LINE
  8
0
  10
60.83531
  20
34.76348
  30
0
  11
60.99159
  21
34.72074
  31
0
  0
LINE
  8
0
  10
60.99159
  20
34.72074
  30
0
  11
61.14804
  21
34.67562
  31
0
  0
LINE
  8
0
  10
61.14804
  20
34.67562
  30
0
  11
61.30464
  21
34.62818
  31
0
  0
LINE
  8
0
  10
61.30464
  20
34.62818
  30
0
  11
61.46137
  21
34.57846
  31
0
  0
LINE
  8
0
  10
61.46137
  20
34.57846
  30
0
  11
61.61822
  21
34.52648
  31
0
  0
LINE
  8
0
  10
61.61822
  20
34.52648
  30
0
  11
61.75462
  21
33.07092
  31
0
  0
LINE
  8
0
  10
61.75462
  20
33.07092
  30
0
  11
61.61017
  21
32.99071
  31
0
  0
LINE
  8
0
  10
61.61017
  20
32.99071
  30
0
  11
61.46541
  21
32.91273
  31
0
  0
LINE
  8
0
  10
61.46541
  20
32.91273
  30
0
  11
61.32035
  21
32.83702
  31
0
  0
LINE
  8
0
  10
61.32035
  20
32.83702
  30
0
  11
61.175
  21
32.76362
  31
0
  0
LINE
  8
0
  10
61.175
  20
32.76362
  30
0
  11
61.02938
  21
32.69258
  31
0
  0
LINE
  8
0
  10
61.02938
  20
32.69258
  30
0
  11
60.88349
  21
32.62395
  31
0
  0
LINE
  8
0
  10
60.88349
  20
32.62395
  30
0
  11
60.73735
  21
32.55779
  31
0
  0
LINE
  8
0
  10
60.73735
  20
32.55779
  30
0
  11
60.59096
  21
32.49417
  31
0
  0
LINE
  8
0
  10
60.59096
  20
32.49417
  30
0
  11
60.44433
  21
32.43316
  31
0
  0
LINE
  8
0
  10
60.44433
  20
32.43316
  30
0
  11
60.29746
  21
32.37484
  31
0
  0
LINE
  8
0
  10
60.29746
  20
32.37484
  30
0
  11
60.15038
  21
32.31932
  31
0
  0
LINE
  8
0
  10
60.15038
  20
32.31932
  30
0
  11
60.00308
  21
32.26671
  31
0
  0
LINE
  8
0
  10
60.00308
  20
32.26671
  30
0
  11
59.85557
  21
32.21715
  31
0
  0
LINE
  8
0
  10
59.85557
  20
32.21715
  30
0
  11
59.70786
  21
32.17082
  31
0
  0
LINE
  8
0
  10
59.70786
  20
32.17082
  30
0
  11
59.55995
  21
32.12792
  31
0
  0
LINE
  8
0
  10
59.55995
  20
32.12792
  30
0
  11
59.52294
  21
32.11777
  31
0
  0
LINE
  8
0
  10
59.52294
  20
32.11777
  30
0
  11
59.48592
  21
32.10785
  31
0
  0
LINE
  8
0
  10
59.48592
  20
32.10785
  30
0
  11
59.44888
  21
32.09818
  31
0
  0
LINE
  8
0
  10
59.44888
  20
32.09818
  30
0
  11
59.41184
  21
32.08875
  31
0
  0
LINE
  8
0
  10
59.41184
  20
32.08875
  30
0
  11
59.43262
  21
30.47602
  31
0
  0
LINE
  8
0
  10
34.91495
  20
30.91495
  30
0
  11
34.91495
  21
30.91495
  31
0
  0
LINE
  8
0
  10
34.91495
  20
30.91495
  30
0
  11
34.77865
  21
31.95022
  31
0
  0
LINE
  8
0
  10
34.77865
  20
31.95022
  30
0
  11
34.37905
  21
32.91495
  31
0
  0
LINE
  8
0
  10
34.37905
  20
32.91495
  30
0
  11
33.74337
  21
33.74337
  31
0
  0
LINE
  8
0
  10
33.74337
  20
33.74337
  30
0
  11
32.91495
  21
34.37905
  31
0
  0
LINE
  8
0
  10
32.91495
  20
34.37905
  30
0
  11
31.95022
  21
34.77865
  31
0
  0
LINE
  8
0
  10
31.95022
  20
34.77865
  30
0
  11
30.91495
  21
34.91495
  31
0
  0
LINE
  8
0
  10
30.91495
  20
34.91495
  30
0
  11
29.87967
  21
34.77865
  31
0
  0
LINE
  8
0
  10
29.87967
  20
34.77865
  30
0
  11
28.91495
  21
34.37905
  31
0
  0
LINE
  8
0
  10
28.91495
  20
34.37905
  30
0
  11
28.08652
  21
33.74337
  31
0
  0
LINE
  8
0
  10
28.08652
  20
33.74337
  30
0
  11
27.45085
  21
32.91495
  31
0
  0
LINE
  8
0
  10
27.45085
  20
32.91495
  30
0
  11
27.05124
  21
31.95022
  31
0
  0
LINE
  8
0
  10
27.05124
  20
31.95022
  30
0
  11
26.91495
  21
30.91495
  31
0
  0
LINE
  8
0
  10
26.91495
  20
30.91495
  30
0
  11
27.05124
  21
29.87967
  31
0
  0
LINE
  8
0
  10
27.05124
  20
29.87967
  30
0
  11
27.45085
  21
28.91495
  31
0
  0
LINE
  8
0
  10
27.45085
  20
28.91495
  30
0
  11
28.08652
  21
28.08652
  31
0
  0
LINE
  8
0
  10
28.08652
  20
28.08652
  30
0
  11
28.91495
  21
27.45085
  31
0
  0
LINE
  8
0
  10
28.91495
  20
27.45085
  30
0
  11
29.87967
  21
27.05124
  31
0
  0
LINE
  8
0
  10
29.87967
  20
27.05124
  30
0
  11
30.91495
  21
26.91495
  31
0
  0
LINE
  8
0
  10
30.91495
  20
26.91495
  30
0
  11
31.95022
  21
27.05124
  31
0
  0
LINE
  8
0
  10
31.95022
  20
27.05124
  30
0
  11
32.91495
  21
27.45085
  31
0
  0
LINE
  8
0
  10
32.91495
  20
27.45085
  30
0
  11
33.74337
  21
28.08652
  31
0
  0
LINE
  8
0
  10
33.74337
  20
28.08652
  30
0
  11
34.37905
  21
28.91495
  31
0
  0
LINE
  8
0
  10
34.37905
  20
28.91495
  30
0
  11
34.77865
  21
29.87967
  31
0
  0
LINE
  8
0
  10
34.77865
  20
29.87967
  30
0
  11
34.91495
  21
30.91495
  31
0
  0
ENDSEC
  0
EOF
