  999
file created by gear template generator
  0
SECTION
  2
HEADER
  9
$ACADVER
  1
AC1006
  9
$INSBASE
  10
0.0
  20
0.0
  30
0.0
  9
$EXTMIN
  10
0.0
  20
0.0
  9
$EXTMAX
  10
10000.0
  20
10000.0
  0
ENDSEC
  0
SECTION
  2
ENTITIES
  0
LINE
  8
0
  10
2.48122
  20
8.46216
  30
0
  11
2.42738
  21
8.56951
  31
0
  0
LINE
  8
0
  10
2.42738
  20
8.56951
  30
0
  11
2.38429
  21
8.60809
  31
0
  0
LINE
  8
0
  10
2.38429
  20
8.60809
  30
0
  11
2.34304
  21
8.6346
  31
0
  0
LINE
  8
0
  10
2.34304
  20
8.6346
  30
0
  11
2.30276
  21
8.65456
  31
0
  0
LINE
  8
0
  10
2.30276
  20
8.65456
  30
0
  11
2.14648
  21
8.69975
  31
0
  0
LINE
  8
0
  10
2.14648
  20
8.69975
  30
0
  11
1.99421
  21
8.71393
  31
0
  0
LINE
  8
0
  10
1.99421
  20
8.71393
  30
0
  11
1.84419
  21
8.70902
  31
0
  0
LINE
  8
0
  10
1.84419
  20
8.70902
  30
0
  11
1.69501
  21
8.69674
  31
0
  0
LINE
  8
0
  10
1.69501
  20
8.69674
  30
0
  11
1.54333
  21
8.70723
  31
0
  0
LINE
  8
0
  10
1.54333
  20
8.70723
  30
0
  11
1.39031
  21
8.73143
  31
0
  0
LINE
  8
0
  10
1.39031
  20
8.73143
  30
0
  11
1.23643
  21
8.7663
  31
0
  0
LINE
  8
0
  10
1.23643
  20
8.7663
  30
0
  11
1.08201
  21
8.81049
  31
0
  0
LINE
  8
0
  10
1.08201
  20
8.81049
  30
0
  11
0.92727
  21
8.86319
  31
0
  0
LINE
  8
0
  10
0.92727
  20
8.86319
  30
0
  11
0.77242
  21
8.92388
  31
0
  0
LINE
  8
0
  10
0.77242
  20
8.92388
  30
0
  11
0.61766
  21
8.99217
  31
0
  0
LINE
  8
0
  10
0.61766
  20
8.99217
  30
0
  11
0.46318
  21
9.06778
  31
0
  0
LINE
  8
0
  10
0.46318
  20
9.06778
  30
0
  11
0.30913
  21
9.15049
  31
0
  0
LINE
  8
0
  10
0.30913
  20
9.15049
  30
0
  11
0.15571
  21
9.24011
  31
0
  0
LINE
  8
0
  10
0.15571
  20
9.24011
  30
0
  11
0.00307
  21
9.3365
  31
0
  0
LINE
  8
0
  10
0.00307
  20
9.3365
  30
0
  11
0.06516
  21
10.69432
  31
0
  0
LINE
  8
0
  10
0.06516
  20
10.69432
  30
0
  11
0.22596
  21
10.77638
  31
0
  0
LINE
  8
0
  10
0.22596
  20
10.77638
  30
0
  11
0.38692
  21
10.85162
  31
0
  0
LINE
  8
0
  10
0.38692
  20
10.85162
  30
0
  11
0.54787
  21
10.91993
  31
0
  0
LINE
  8
0
  10
0.54787
  20
10.91993
  30
0
  11
0.70861
  21
10.98113
  31
0
  0
LINE
  8
0
  10
0.70861
  20
10.98113
  30
0
  11
0.86896
  21
11.03501
  31
0
  0
LINE
  8
0
  10
0.86896
  20
11.03501
  30
0
  11
1.0287
  21
11.08131
  31
0
  0
LINE
  8
0
  10
1.0287
  20
11.08131
  30
0
  11
1.1876
  21
11.11967
  31
0
  0
LINE
  8
0
  10
1.1876
  20
11.11967
  30
0
  11
1.34542
  21
11.14958
  31
0
  0
LINE
  8
0
  10
1.34542
  20
11.14958
  30
0
  11
1.50183
  21
11.17026
  31
0
  0
LINE
  8
0
  10
1.50183
  20
11.17026
  30
0
  11
1.65642
  21
11.18039
  31
0
  0
LINE
  8
0
  10
1.65642
  20
11.18039
  30
0
  11
1.80842
  21
11.17699
  31
0
  0
LINE
  8
0
  10
1.80842
  20
11.17699
  30
0
  11
1.95586
  21
11.15115
  31
0
  0
LINE
  8
0
  10
1.95586
  20
11.15115
  30
0
  11
2.10481
  21
11.13258
  31
0
  0
LINE
  8
0
  10
2.10481
  20
11.13258
  30
0
  11
2.25773
  21
11.13279
  31
0
  0
LINE
  8
0
  10
2.25773
  20
11.13279
  30
0
  11
2.41749
  21
11.16353
  31
0
  0
LINE
  8
0
  10
2.41749
  20
11.16353
  30
0
  11
2.45942
  21
11.17973
  31
0
  0
LINE
  8
0
  10
2.45942
  20
11.17973
  30
0
  11
2.50292
  21
11.20237
  31
0
  0
LINE
  8
0
  10
2.50292
  20
11.20237
  30
0
  11
2.54935
  21
11.23686
  31
0
  0
LINE
  8
0
  10
2.54935
  20
11.23686
  30
0
  11
2.61276
  21
11.33885
  31
0
  0
LINE
  8
0
  10
2.61276
  20
11.33885
  30
0
  11
2.7846
  21
11.91602
  31
0
  0
LINE
  8
0
  10
2.7846
  20
11.91602
  30
0
  11
3.00417
  21
12.47677
  31
0
  0
LINE
  8
0
  10
3.00417
  20
12.47677
  30
0
  11
3.01692
  21
12.59618
  31
0
  0
LINE
  8
0
  10
3.01692
  20
12.59618
  30
0
  11
3.00153
  21
12.65193
  31
0
  0
LINE
  8
0
  10
3.00153
  20
12.65193
  30
0
  11
2.98117
  21
12.69654
  31
0
  0
LINE
  8
0
  10
2.98117
  20
12.69654
  30
0
  11
2.95807
  21
12.73511
  31
0
  0
LINE
  8
0
  10
2.95807
  20
12.73511
  30
0
  11
2.85103
  21
12.85762
  31
0
  0
LINE
  8
0
  10
2.85103
  20
12.85762
  30
0
  11
2.73059
  21
12.95187
  31
0
  0
LINE
  8
0
  10
2.73059
  20
12.95187
  30
0
  11
2.60173
  21
13.02884
  31
0
  0
LINE
  8
0
  10
2.60173
  20
13.02884
  30
0
  11
2.4696
  21
13.09917
  31
0
  0
LINE
  8
0
  10
2.4696
  20
13.09917
  30
0
  11
2.34767
  21
13.18999
  31
0
  0
LINE
  8
0
  10
2.34767
  20
13.18999
  30
0
  11
2.23202
  21
13.29308
  31
0
  0
LINE
  8
0
  10
2.23202
  20
13.29308
  30
0
  11
2.12143
  21
13.40561
  31
0
  0
LINE
  8
0
  10
2.12143
  20
13.40561
  30
0
  11
2.01541
  21
13.52627
  31
0
  0
LINE
  8
0
  10
2.01541
  20
13.52627
  30
0
  11
1.91372
  21
13.65426
  31
0
  0
LINE
  8
0
  10
1.91372
  20
13.65426
  30
0
  11
1.81627
  21
13.78903
  31
0
  0
LINE
  8
0
  10
1.81627
  20
13.78903
  30
0
  11
1.723
  21
13.93015
  31
0
  0
LINE
  8
0
  10
1.723
  20
13.93015
  30
0
  11
1.63391
  21
14.07728
  31
0
  0
LINE
  8
0
  10
1.63391
  20
14.07728
  30
0
  11
1.54904
  21
14.23014
  31
0
  0
LINE
  8
0
  10
1.54904
  20
14.23014
  30
0
  11
1.46843
  21
14.38849
  31
0
  0
LINE
  8
0
  10
1.46843
  20
14.38849
  30
0
  11
1.39213
  21
14.5521
  31
0
  0
LINE
  8
0
  10
1.39213
  20
14.5521
  30
0
  11
2.17845
  21
15.6608
  31
0
  0
LINE
  8
0
  10
2.17845
  20
15.6608
  30
0
  11
2.35809
  21
15.6429
  31
0
  0
LINE
  8
0
  10
2.35809
  20
15.6429
  30
0
  11
2.53418
  21
15.61917
  31
0
  0
LINE
  8
0
  10
2.53418
  20
15.61917
  30
0
  11
2.70651
  21
15.58962
  31
0
  0
LINE
  8
0
  10
2.70651
  20
15.58962
  30
0
  11
2.87482
  21
15.5542
  31
0
  0
LINE
  8
0
  10
2.87482
  20
15.5542
  30
0
  11
3.03885
  21
15.51284
  31
0
  0
LINE
  8
0
  10
3.03885
  20
15.51284
  30
0
  11
3.19826
  21
15.46543
  31
0
  0
LINE
  8
0
  10
3.19826
  20
15.46543
  30
0
  11
3.35267
  21
15.41179
  31
0
  0
LINE
  8
0
  10
3.35267
  20
15.41179
  30
0
  11
3.50161
  21
15.35163
  31
0
  0
LINE
  8
0
  10
3.50161
  20
15.35163
  30
0
  11
3.64437
  21
15.28446
  31
0
  0
LINE
  8
0
  10
3.64437
  20
15.28446
  30
0
  11
3.7799
  21
15.20941
  31
0
  0
LINE
  8
0
  10
3.7799
  20
15.20941
  30
0
  11
3.90593
  21
15.12437
  31
0
  0
LINE
  8
0
  10
3.90593
  20
15.12437
  30
0
  11
4.016
  21
15.02292
  31
0
  0
LINE
  8
0
  10
4.016
  20
15.02292
  30
0
  11
4.13125
  21
14.92677
  31
0
  0
LINE
  8
0
  10
4.13125
  20
14.92677
  30
0
  11
4.26002
  21
14.84427
  31
0
  0
LINE
  8
0
  10
4.26002
  20
14.84427
  30
0
  11
4.41104
  21
14.78376
  31
0
  0
LINE
  8
0
  10
4.41104
  20
14.78376
  30
0
  11
4.45507
  21
14.77472
  31
0
  0
LINE
  8
0
  10
4.45507
  20
14.77472
  30
0
  11
4.50391
  21
14.77024
  31
0
  0
LINE
  8
0
  10
4.50391
  20
14.77024
  30
0
  11
4.56161
  21
14.77416
  31
0
  0
LINE
  8
0
  10
4.56161
  20
14.77416
  30
0
  11
4.67009
  21
14.82567
  31
0
  0
LINE
  8
0
  10
4.67009
  20
14.82567
  30
0
  11
5.1267
  21
15.21831
  31
0
  0
LINE
  8
0
  10
5.1267
  20
15.21831
  30
0
  11
5.61458
  21
15.57134
  31
0
  0
LINE
  8
0
  10
5.61458
  20
15.57134
  30
0
  11
5.68986
  21
15.66491
  31
0
  0
LINE
  8
0
  10
5.68986
  20
15.66491
  30
0
  11
5.70706
  21
15.72013
  31
0
  0
LINE
  8
0
  10
5.70706
  20
15.72013
  30
0
  11
5.71404
  21
15.76866
  31
0
  0
LINE
  8
0
  10
5.71404
  20
15.76866
  30
0
  11
5.71546
  21
15.8136
  31
0
  0
LINE
  8
0
  10
5.71546
  20
15.8136
  30
0
  11
5.69164
  21
15.97453
  31
0
  0
LINE
  8
0
  10
5.69164
  20
15.97453
  30
0
  11
5.64128
  21
16.11893
  31
0
  0
LINE
  8
0
  10
5.64128
  20
16.11893
  30
0
  11
5.5745
  21
16.25335
  31
0
  0
LINE
  8
0
  10
5.5745
  20
16.25335
  30
0
  11
5.50136
  21
16.38395
  31
0
  0
LINE
  8
0
  10
5.50136
  20
16.38395
  30
0
  11
5.44789
  21
16.52628
  31
0
  0
LINE
  8
0
  10
5.44789
  20
16.52628
  30
0
  11
5.40633
  21
16.67552
  31
0
  0
LINE
  8
0
  10
5.40633
  20
16.67552
  30
0
  11
5.37413
  21
16.82998
  31
0
  0
LINE
  8
0
  10
5.37413
  20
16.82998
  30
0
  11
5.35018
  21
16.98881
  31
0
  0
LINE
  8
0
  10
5.35018
  20
16.98881
  30
0
  11
5.33383
  21
17.15146
  31
0
  0
LINE
  8
0
  10
5.33383
  20
17.15146
  30
0
  11
5.32471
  21
17.31752
  31
0
  0
LINE
  8
0
  10
5.32471
  20
17.31752
  30
0
  11
5.32254
  21
17.48666
  31
0
  0
LINE
  8
0
  10
5.32254
  20
17.48666
  30
0
  11
5.32714
  21
17.6586
  31
0
  0
LINE
  8
0
  10
5.32714
  20
17.6586
  30
0
  11
5.33839
  21
17.83308
  31
0
  0
LINE
  8
0
  10
5.33839
  20
17.83308
  30
0
  11
5.35618
  21
18.00987
  31
0
  0
LINE
  8
0
  10
5.35618
  20
18.00987
  30
0
  11
5.38045
  21
18.18876
  31
0
  0
LINE
  8
0
  10
5.38045
  20
18.18876
  30
0
  11
6.64135
  21
18.69633
  31
0
  0
LINE
  8
0
  10
6.64135
  20
18.69633
  30
0
  11
6.78279
  21
18.58415
  31
0
  0
LINE
  8
0
  10
6.78279
  20
18.58415
  30
0
  11
6.91811
  21
18.469
  31
0
  0
LINE
  8
0
  10
6.91811
  20
18.469
  30
0
  11
7.0471
  21
18.35097
  31
0
  0
LINE
  8
0
  10
7.0471
  20
18.35097
  30
0
  11
7.16954
  21
18.23017
  31
0
  0
LINE
  8
0
  10
7.16954
  20
18.23017
  30
0
  11
7.28517
  21
18.1067
  31
0
  0
LINE
  8
0
  10
7.28517
  20
18.1067
  30
0
  11
7.39364
  21
17.98063
  31
0
  0
LINE
  8
0
  10
7.39364
  20
17.98063
  30
0
  11
7.49455
  21
17.85202
  31
0
  0
LINE
  8
0
  10
7.49455
  20
17.85202
  30
0
  11
7.58731
  21
17.72089
  31
0
  0
LINE
  8
0
  10
7.58731
  20
17.72089
  30
0
  11
7.6711
  21
17.58721
  31
0
  0
LINE
  8
0
  10
7.6711
  20
17.58721
  30
0
  11
7.74454
  21
17.4508
  31
0
  0
LINE
  8
0
  10
7.74454
  20
17.4508
  30
0
  11
7.80459
  21
17.31112
  31
0
  0
LINE
  8
0
  10
7.80459
  20
17.31112
  30
0
  11
7.84233
  21
17.16627
  31
0
  0
LINE
  8
0
  10
7.84233
  20
17.16627
  30
0
  11
7.88731
  21
17.02307
  31
0
  0
LINE
  8
0
  10
7.88731
  20
17.02307
  30
0
  11
7.95103
  21
16.88405
  31
0
  0
LINE
  8
0
  10
7.95103
  20
16.88405
  30
0
  11
8.04536
  21
16.7515
  31
0
  0
LINE
  8
0
  10
8.04536
  20
16.7515
  30
0
  11
8.07751
  21
16.72008
  31
0
  0
LINE
  8
0
  10
8.07751
  20
16.72008
  30
0
  11
8.11618
  21
16.68992
  31
0
  0
LINE
  8
0
  10
8.11618
  20
16.68992
  30
0
  11
8.16684
  21
16.66201
  31
0
  0
LINE
  8
0
  10
8.16684
  20
16.66201
  30
0
  11
8.28595
  21
16.6467
  31
0
  0
LINE
  8
0
  10
8.28595
  20
16.6467
  30
0
  11
8.88235
  21
16.73015
  31
0
  0
LINE
  8
0
  10
8.88235
  20
16.73015
  30
0
  11
9.48364
  21
16.76337
  31
0
  0
LINE
  8
0
  10
9.48364
  20
16.76337
  30
0
  11
9.59756
  21
16.80138
  31
0
  0
LINE
  8
0
  10
9.59756
  20
16.80138
  30
0
  11
9.64188
  21
16.83854
  31
0
  0
LINE
  8
0
  10
9.64188
  20
16.83854
  30
0
  11
9.67399
  21
16.87559
  31
0
  0
LINE
  8
0
  10
9.67399
  20
16.87559
  30
0
  11
9.69948
  21
16.91263
  31
0
  0
LINE
  8
0
  10
9.69948
  20
16.91263
  30
0
  11
9.76645
  21
17.06089
  31
0
  0
LINE
  8
0
  10
9.76645
  20
17.06089
  30
0
  11
9.80215
  21
17.20959
  31
0
  0
LINE
  8
0
  10
9.80215
  20
17.20959
  30
0
  11
9.81864
  21
17.35878
  31
0
  0
LINE
  8
0
  10
9.81864
  20
17.35878
  30
0
  11
9.82773
  21
17.50819
  31
0
  0
LINE
  8
0
  10
9.82773
  20
17.50819
  30
0
  11
9.85969
  21
17.65683
  31
0
  0
LINE
  8
0
  10
9.85969
  20
17.65683
  30
0
  11
9.90542
  21
17.80485
  31
0
  0
LINE
  8
0
  10
9.90542
  20
17.80485
  30
0
  11
9.96184
  21
17.9522
  31
0
  0
LINE
  8
0
  10
9.96184
  20
17.9522
  30
0
  11
10.02755
  21
18.09876
  31
0
  0
LINE
  8
0
  10
10.02755
  20
18.09876
  30
0
  11
10.10174
  21
18.24443
  31
0
  0
LINE
  8
0
  10
10.10174
  20
18.24443
  30
0
  11
10.18384
  21
18.38906
  31
0
  0
LINE
  8
0
  10
10.18384
  20
18.38906
  30
0
  11
10.27346
  21
18.53252
  31
0
  0
LINE
  8
0
  10
10.27346
  20
18.53252
  30
0
  11
10.37029
  21
18.67468
  31
0
  0
LINE
  8
0
  10
10.37029
  20
18.67468
  30
0
  11
10.47408
  21
18.81538
  31
0
  0
LINE
  8
0
  10
10.47408
  20
18.81538
  30
0
  11
10.58463
  21
18.95449
  31
0
  0
LINE
  8
0
  10
10.58463
  20
18.95449
  30
0
  11
10.70176
  21
19.09186
  31
0
  0
LINE
  8
0
  10
10.70176
  20
19.09186
  30
0
  11
12.03692
  21
18.83717
  31
0
  0
LINE
  8
0
  10
12.03692
  20
18.83717
  30
0
  11
12.09526
  21
18.66632
  31
0
  0
LINE
  8
0
  10
12.09526
  20
18.66632
  30
0
  11
12.14683
  21
18.49629
  31
0
  0
LINE
  8
0
  10
12.14683
  20
18.49629
  30
0
  11
12.19154
  21
18.32726
  31
0
  0
LINE
  8
0
  10
12.19154
  20
18.32726
  30
0
  11
12.22923
  21
18.15944
  31
0
  0
LINE
  8
0
  10
12.22923
  20
18.15944
  30
0
  11
12.25975
  21
17.99306
  31
0
  0
LINE
  8
0
  10
12.25975
  20
17.99306
  30
0
  11
12.28285
  21
17.82836
  31
0
  0
LINE
  8
0
  10
12.28285
  20
17.82836
  30
0
  11
12.2982
  21
17.66561
  31
0
  0
LINE
  8
0
  10
12.2982
  20
17.66561
  30
0
  11
12.30534
  21
17.50515
  31
0
  0
LINE
  8
0
  10
12.30534
  20
17.50515
  30
0
  11
12.30356
  21
17.34738
  31
0
  0
LINE
  8
0
  10
12.30356
  20
17.34738
  30
0
  11
12.29159
  21
17.19292
  31
0
  0
LINE
  8
0
  10
12.29159
  20
17.19292
  30
0
  11
12.26659
  21
17.04295
  31
0
  0
LINE
  8
0
  10
12.26659
  20
17.04295
  30
0
  11
12.22003
  21
16.90069
  31
0
  0
LINE
  8
0
  10
12.22003
  20
16.90069
  30
0
  11
12.18044
  21
16.75591
  31
0
  0
LINE
  8
0
  10
12.18044
  20
16.75591
  30
0
  11
12.1589
  21
16.6045
  31
0
  0
LINE
  8
0
  10
12.1589
  20
16.6045
  30
0
  11
12.16659
  21
16.442
  31
0
  0
LINE
  8
0
  10
12.16659
  20
16.442
  30
0
  11
12.17665
  21
16.39819
  31
0
  0
LINE
  8
0
  10
12.17665
  20
16.39819
  30
0
  11
12.19287
  21
16.35191
  31
0
  0
LINE
  8
0
  10
12.19287
  20
16.35191
  30
0
  11
12.2204
  21
16.30105
  31
0
  0
LINE
  8
0
  10
12.2204
  20
16.30105
  30
0
  11
12.31233
  21
16.22377
  31
0
  0
LINE
  8
0
  10
12.31233
  20
16.22377
  30
0
  11
12.85916
  21
15.97153
  31
0
  0
LINE
  8
0
  10
12.85916
  20
15.97153
  30
0
  11
13.38296
  21
15.67439
  31
0
  0
LINE
  8
0
  10
13.38296
  20
15.67439
  30
0
  11
13.49934
  21
15.64478
  31
0
  0
LINE
  8
0
  10
13.49934
  20
15.64478
  30
0
  11
13.55672
  21
15.65208
  31
0
  0
LINE
  8
0
  10
13.55672
  20
15.65208
  30
0
  11
13.60377
  21
15.66589
  31
0
  0
LINE
  8
0
  10
13.60377
  20
15.66589
  30
0
  11
13.64523
  21
15.68327
  31
0
  0
LINE
  8
0
  10
13.64523
  20
15.68327
  30
0
  11
13.78173
  21
15.77178
  31
0
  0
LINE
  8
0
  10
13.78173
  20
15.77178
  30
0
  11
13.89216
  21
15.87758
  31
0
  0
LINE
  8
0
  10
13.89216
  20
15.87758
  30
0
  11
13.98669
  21
15.99417
  31
0
  0
LINE
  8
0
  10
13.98669
  20
15.99417
  30
0
  11
14.07511
  21
16.11495
  31
0
  0
LINE
  8
0
  10
14.07511
  20
16.11495
  30
0
  11
14.18236
  21
16.22272
  31
0
  0
LINE
  8
0
  10
14.18236
  20
16.22272
  30
0
  11
14.30085
  21
16.32251
  31
0
  0
LINE
  8
0
  10
14.30085
  20
16.32251
  30
0
  11
14.42797
  21
16.41597
  31
0
  0
LINE
  8
0
  10
14.42797
  20
16.41597
  30
0
  11
14.5625
  21
16.50374
  31
0
  0
LINE
  8
0
  10
14.5625
  20
16.50374
  30
0
  11
14.70366
  21
16.58617
  31
0
  0
LINE
  8
0
  10
14.70366
  20
16.58617
  30
0
  11
14.85092
  21
16.66345
  31
0
  0
LINE
  8
0
  10
14.85092
  20
16.66345
  30
0
  11
15.00388
  21
16.73569
  31
0
  0
LINE
  8
0
  10
15.00388
  20
16.73569
  30
0
  11
15.16219
  21
16.80293
  31
0
  0
LINE
  8
0
  10
15.16219
  20
16.80293
  30
0
  11
15.32558
  21
16.86519
  31
0
  0
LINE
  8
0
  10
15.32558
  20
16.86519
  30
0
  11
15.49378
  21
16.92244
  31
0
  0
LINE
  8
0
  10
15.49378
  20
16.92244
  30
0
  11
15.66659
  21
16.97468
  31
0
  0
LINE
  8
0
  10
15.66659
  20
16.97468
  30
0
  11
16.65209
  21
16.03858
  31
0
  0
LINE
  8
0
  10
16.65209
  20
16.03858
  30
0
  11
16.60881
  21
15.86332
  31
0
  0
LINE
  8
0
  10
16.60881
  20
15.86332
  30
0
  11
16.56027
  21
15.69239
  31
0
  0
LINE
  8
0
  10
16.56027
  20
15.69239
  30
0
  11
16.50649
  21
15.52602
  31
0
  0
LINE
  8
0
  10
16.50649
  20
15.52602
  30
0
  11
16.44748
  21
15.36446
  31
0
  0
LINE
  8
0
  10
16.44748
  20
15.36446
  30
0
  11
16.38319
  21
15.208
  31
0
  0
LINE
  8
0
  10
16.38319
  20
15.208
  30
0
  11
16.31358
  21
15.05696
  31
0
  0
LINE
  8
0
  10
16.31358
  20
15.05696
  30
0
  11
16.23851
  21
14.91174
  31
0
  0
LINE
  8
0
  10
16.23851
  20
14.91174
  30
0
  11
16.15777
  21
14.77289
  31
0
  0
LINE
  8
0
  10
16.15777
  20
14.77289
  30
0
  11
16.07097
  21
14.64114
  31
0
  0
LINE
  8
0
  10
16.07097
  20
14.64114
  30
0
  11
15.97739
  21
14.51767
  31
0
  0
LINE
  8
0
  10
15.97739
  20
14.51767
  30
0
  11
15.87528
  21
14.40502
  31
0
  0
LINE
  8
0
  10
15.87528
  20
14.40502
  30
0
  11
15.7592
  21
14.31051
  31
0
  0
LINE
  8
0
  10
15.7592
  20
14.31051
  30
0
  11
15.64762
  21
14.21012
  31
0
  0
LINE
  8
0
  10
15.64762
  20
14.21012
  30
0
  11
15.54764
  21
14.0944
  31
0
  0
LINE
  8
0
  10
15.54764
  20
14.0944
  30
0
  11
15.46625
  21
13.95353
  31
0
  0
LINE
  8
0
  10
15.46625
  20
13.95353
  30
0
  11
15.45103
  21
13.91123
  31
0
  0
LINE
  8
0
  10
15.45103
  20
13.91123
  30
0
  11
15.43966
  21
13.86353
  31
0
  0
LINE
  8
0
  10
15.43966
  20
13.86353
  30
0
  11
15.43532
  21
13.80586
  31
0
  0
LINE
  8
0
  10
15.43532
  20
13.80586
  30
0
  11
15.47087
  21
13.69115
  31
0
  0
LINE
  8
0
  10
15.47087
  20
13.69115
  30
0
  11
15.79453
  21
13.18331
  31
0
  0
LINE
  8
0
  10
15.79453
  20
13.18331
  30
0
  11
16.07453
  21
12.65016
  31
0
  0
LINE
  8
0
  10
16.07453
  20
12.65016
  30
0
  11
16.15643
  21
12.56233
  31
0
  0
LINE
  8
0
  10
16.15643
  20
12.56233
  30
0
  11
16.20864
  21
12.53744
  31
0
  0
LINE
  8
0
  10
16.20864
  20
12.53744
  30
0
  11
16.25569
  21
12.52363
  31
0
  0
LINE
  8
0
  10
16.25569
  20
12.52363
  30
0
  11
16.29997
  21
12.51583
  31
0
  0
LINE
  8
0
  10
16.29997
  20
12.51583
  30
0
  11
16.46265
  21
12.5165
  31
0
  0
LINE
  8
0
  10
16.46265
  20
12.5165
  30
0
  11
16.61275
  21
12.5458
  31
0
  0
LINE
  8
0
  10
16.61275
  20
12.5458
  30
0
  11
16.75531
  21
12.59277
  31
0
  0
LINE
  8
0
  10
16.75531
  20
12.59277
  30
0
  11
16.89499
  21
12.64658
  31
0
  0
LINE
  8
0
  10
16.89499
  20
12.64658
  30
0
  11
17.04348
  21
12.67925
  31
0
  0
LINE
  8
0
  10
17.04348
  20
12.67925
  30
0
  11
17.19712
  21
12.69914
  31
0
  0
LINE
  8
0
  10
17.19712
  20
12.69914
  30
0
  11
17.35458
  21
12.70903
  31
0
  0
LINE
  8
0
  10
17.35458
  20
12.70903
  30
0
  11
17.5152
  21
12.71014
  31
0
  0
LINE
  8
0
  10
17.5152
  20
12.71014
  30
0
  11
17.67852
  21
12.70317
  31
0
  0
LINE
  8
0
  10
17.67852
  20
12.70317
  30
0
  11
17.84419
  21
12.68857
  31
0
  0
LINE
  8
0
  10
17.84419
  20
12.68857
  30
0
  11
18.01192
  21
12.66664
  31
0
  0
LINE
  8
0
  10
18.01192
  20
12.66664
  30
0
  11
18.18145
  21
12.63762
  31
0
  0
LINE
  8
0
  10
18.18145
  20
12.63762
  30
0
  11
18.35256
  21
12.60166
  31
0
  0
LINE
  8
0
  10
18.35256
  20
12.60166
  30
0
  11
18.52502
  21
12.55889
  31
0
  0
LINE
  8
0
  10
18.52502
  20
12.55889
  30
0
  11
18.69863
  21
12.50941
  31
0
  0
LINE
  8
0
  10
18.69863
  20
12.50941
  30
0
  11
19.0216
  21
11.1891
  31
0
  0
LINE
  8
0
  10
19.0216
  20
11.1891
  30
0
  11
18.89043
  21
11.06506
  31
0
  0
LINE
  8
0
  10
18.89043
  20
11.06506
  30
0
  11
18.75718
  21
10.94751
  31
0
  0
LINE
  8
0
  10
18.75718
  20
10.94751
  30
0
  11
18.622
  21
10.83663
  31
0
  0
LINE
  8
0
  10
18.622
  20
10.83663
  30
0
  11
18.48501
  21
10.73263
  31
0
  0
LINE
  8
0
  10
18.48501
  20
10.73263
  30
0
  11
18.34634
  21
10.63575
  31
0
  0
LINE
  8
0
  10
18.34634
  20
10.63575
  30
0
  11
18.20612
  21
10.54632
  31
0
  0
LINE
  8
0
  10
18.20612
  20
10.54632
  30
0
  11
18.06446
  21
10.46475
  31
0
  0
LINE
  8
0
  10
18.06446
  20
10.46475
  30
0
  11
17.92146
  21
10.39159
  31
0
  0
LINE
  8
0
  10
17.92146
  20
10.39159
  30
0
  11
17.77721
  21
10.32768
  31
0
  0
LINE
  8
0
  10
17.77721
  20
10.32768
  30
0
  11
17.63174
  21
10.2744
  31
0
  0
LINE
  8
0
  10
17.63174
  20
10.2744
  30
0
  11
17.48493
  21
10.23484
  31
0
  0
LINE
  8
0
  10
17.48493
  20
10.23484
  30
0
  11
17.33619
  21
10.2181
  31
0
  0
LINE
  8
0
  10
17.33619
  20
10.2181
  30
0
  11
17.18804
  21
10.19396
  31
0
  0
LINE
  8
0
  10
17.18804
  20
10.19396
  30
0
  11
17.04137
  21
10.15066
  31
0
  0
LINE
  8
0
  10
17.04137
  20
10.15066
  30
0
  11
16.89675
  21
10.07616
  31
0
  0
LINE
  8
0
  10
16.89675
  20
10.07616
  30
0
  11
16.86107
  21
10.04881
  31
0
  0
LINE
  8
0
  10
16.86107
  20
10.04881
  30
0
  11
16.82571
  21
10.01483
  31
0
  0
LINE
  8
0
  10
16.82571
  20
10.01483
  30
0
  11
16.79088
  21
9.96866
  31
0
  0
LINE
  8
0
  10
16.79088
  20
9.96866
  30
0
  11
16.75877
  21
9.85294
  31
0
  0
LINE
  8
0
  10
16.75877
  20
9.85294
  30
0
  11
16.7565
  21
9.25073
  31
0
  0
LINE
  8
0
  10
16.7565
  20
9.25073
  30
0
  11
16.7038
  21
8.65084
  31
0
  0
LINE
  8
0
  10
16.7038
  20
8.65084
  30
0
  11
16.72522
  21
8.53267
  31
0
  0
LINE
  8
0
  10
16.72522
  20
8.53267
  30
0
  11
16.75569
  21
8.48351
  31
0
  0
LINE
  8
0
  10
16.75569
  20
8.48351
  30
0
  11
16.7878
  21
8.44645
  31
0
  0
LINE
  8
0
  10
16.7878
  20
8.44645
  30
0
  11
16.82083
  21
8.41595
  31
0
  0
LINE
  8
0
  10
16.82083
  20
8.41595
  30
0
  11
16.95805
  21
8.32856
  31
0
  0
LINE
  8
0
  10
16.95805
  20
8.32856
  30
0
  11
17.10016
  21
8.27206
  31
0
  0
LINE
  8
0
  10
17.10016
  20
8.27206
  30
0
  11
17.24548
  21
8.2345
  31
0
  0
LINE
  8
0
  10
17.24548
  20
8.2345
  30
0
  11
17.39208
  21
8.20425
  31
0
  0
LINE
  8
0
  10
17.39208
  20
8.20425
  30
0
  11
17.53466
  21
8.15146
  31
0
  0
LINE
  8
0
  10
17.53466
  20
8.15146
  30
0
  11
17.67466
  21
8.08513
  31
0
  0
LINE
  8
0
  10
17.67466
  20
8.08513
  30
0
  11
17.81248
  21
8.00832
  31
0
  0
LINE
  8
0
  10
17.81248
  20
8.00832
  30
0
  11
17.9482
  21
7.92241
  31
0
  0
LINE
  8
0
  10
17.9482
  20
7.92241
  30
0
  11
18.08182
  21
7.82825
  31
0
  0
LINE
  8
0
  10
18.08182
  20
7.82825
  30
0
  11
18.2133
  21
7.7264
  31
0
  0
LINE
  8
0
  10
18.2133
  20
7.7264
  30
0
  11
18.34255
  21
7.61727
  31
0
  0
LINE
  8
0
  10
18.34255
  20
7.61727
  30
0
  11
18.46948
  21
7.5012
  31
0
  0
LINE
  8
0
  10
18.46948
  20
7.5012
  30
0
  11
18.59398
  21
7.37844
  31
0
  0
LINE
  8
0
  10
18.59398
  20
7.37844
  30
0
  11
18.71594
  21
7.24922
  31
0
  0
LINE
  8
0
  10
18.71594
  20
7.24922
  30
0
  11
18.83524
  21
7.11373
  31
0
  0
LINE
  8
0
  10
18.83524
  20
7.11373
  30
0
  11
18.39312
  21
5.82841
  31
0
  0
LINE
  8
0
  10
18.39312
  20
5.82841
  30
0
  11
18.21572
  21
5.79498
  31
0
  0
LINE
  8
0
  10
18.21572
  20
5.79498
  30
0
  11
18.04008
  21
5.76813
  31
0
  0
LINE
  8
0
  10
18.04008
  20
5.76813
  30
0
  11
17.8664
  21
5.74794
  31
0
  0
LINE
  8
0
  10
17.8664
  20
5.74794
  30
0
  11
17.69493
  21
5.7345
  31
0
  0
LINE
  8
0
  10
17.69493
  20
5.7345
  30
0
  11
17.5259
  21
5.72798
  31
0
  0
LINE
  8
0
  10
17.5259
  20
5.72798
  30
0
  11
17.35959
  21
5.72856
  31
0
  0
LINE
  8
0
  10
17.35959
  20
5.72856
  30
0
  11
17.19631
  21
5.73652
  31
0
  0
LINE
  8
0
  10
17.19631
  20
5.73652
  30
0
  11
17.03646
  21
5.75228
  31
0
  0
LINE
  8
0
  10
17.03646
  20
5.75228
  30
0
  11
16.88056
  21
5.77651
  31
0
  0
LINE
  8
0
  10
16.88056
  20
5.77651
  30
0
  11
16.72938
  21
5.81034
  31
0
  0
LINE
  8
0
  10
16.72938
  20
5.81034
  30
0
  11
16.58449
  21
5.85642
  31
0
  0
LINE
  8
0
  10
16.58449
  20
5.85642
  30
0
  11
16.4503
  21
5.92275
  31
0
  0
LINE
  8
0
  10
16.4503
  20
5.92275
  30
0
  11
16.31263
  21
5.98254
  31
0
  0
LINE
  8
0
  10
16.31263
  20
5.98254
  30
0
  11
16.16583
  21
6.02542
  31
0
  0
LINE
  8
0
  10
16.16583
  20
6.02542
  30
0
  11
16.00389
  21
6.04093
  31
0
  0
LINE
  8
0
  10
16.00389
  20
6.04093
  30
0
  11
15.95909
  21
6.03721
  31
0
  0
LINE
  8
0
  10
15.95909
  20
6.03721
  30
0
  11
15.91097
  21
6.02774
  31
0
  0
LINE
  8
0
  10
15.91097
  20
6.02774
  30
0
  11
15.85671
  21
6.00773
  31
0
  0
LINE
  8
0
  10
15.85671
  20
6.00773
  30
0
  11
15.76713
  21
5.92773
  31
0
  0
LINE
  8
0
  10
15.76713
  20
5.92773
  30
0
  11
15.43964
  21
5.42236
  31
0
  0
LINE
  8
0
  10
15.43964
  20
5.42236
  30
0
  11
15.07098
  21
4.94618
  31
0
  0
LINE
  8
0
  10
15.07098
  20
4.94618
  30
0
  11
15.02511
  21
4.83519
  31
0
  0
LINE
  8
0
  10
15.02511
  20
4.83519
  30
0
  11
15.02417
  21
4.77737
  31
0
  0
LINE
  8
0
  10
15.02417
  20
4.77737
  30
0
  11
15.03114
  21
4.72883
  31
0
  0
LINE
  8
0
  10
15.03114
  20
4.72883
  30
0
  11
15.04244
  21
4.68531
  31
0
  0
LINE
  8
0
  10
15.04244
  20
4.68531
  30
0
  11
15.11063
  21
4.53761
  31
0
  0
LINE
  8
0
  10
15.11063
  20
4.53761
  30
0
  11
15.19963
  21
4.41325
  31
0
  0
LINE
  8
0
  10
15.19963
  20
4.41325
  30
0
  11
15.30159
  21
4.30309
  31
0
  0
LINE
  8
0
  10
15.30159
  20
4.30309
  30
0
  11
15.40855
  21
4.19838
  31
0
  0
LINE
  8
0
  10
15.40855
  20
4.19838
  30
0
  11
15.49996
  21
4.07688
  31
0
  0
LINE
  8
0
  10
15.49996
  20
4.07688
  30
0
  11
15.58188
  21
3.94539
  31
0
  0
LINE
  8
0
  10
15.58188
  20
3.94539
  30
0
  11
15.65629
  21
3.80627
  31
0
  0
LINE
  8
0
  10
15.65629
  20
3.80627
  30
0
  11
15.72402
  21
3.66062
  31
0
  0
LINE
  8
0
  10
15.72402
  20
3.66062
  30
0
  11
15.78553
  21
3.50917
  31
0
  0
LINE
  8
0
  10
15.78553
  20
3.50917
  30
0
  11
15.84106
  21
3.3524
  31
0
  0
LINE
  8
0
  10
15.84106
  20
3.3524
  30
0
  11
15.8908
  21
3.19072
  31
0
  0
LINE
  8
0
  10
15.8908
  20
3.19072
  30
0
  11
15.93482
  21
3.02445
  31
0
  0
LINE
  8
0
  10
15.93482
  20
3.02445
  30
0
  11
15.97319
  21
2.85387
  31
0
  0
LINE
  8
0
  10
15.97319
  20
2.85387
  30
0
  11
16.00593
  21
2.67923
  31
0
  0
LINE
  8
0
  10
16.00593
  20
2.67923
  30
0
  11
16.03304
  21
2.50075
  31
0
  0
LINE
  8
0
  10
16.03304
  20
2.50075
  30
0
  11
14.96621
  21
1.65849
  31
0
  0
LINE
  8
0
  10
14.96621
  20
1.65849
  30
0
  11
14.7989
  21
1.72628
  31
0
  0
LINE
  8
0
  10
14.7989
  20
1.72628
  30
0
  11
14.63662
  21
1.79865
  31
0
  0
LINE
  8
0
  10
14.63662
  20
1.79865
  30
0
  11
14.4796
  21
1.87556
  31
0
  0
LINE
  8
0
  10
14.4796
  20
1.87556
  30
0
  11
14.32808
  21
1.95697
  31
0
  0
LINE
  8
0
  10
14.32808
  20
1.95697
  30
0
  11
14.18236
  21
2.04286
  31
0
  0
LINE
  8
0
  10
14.18236
  20
2.04286
  30
0
  11
14.04276
  21
2.13326
  31
0
  0
LINE
  8
0
  10
14.04276
  20
2.13326
  30
0
  11
13.90971
  21
2.22823
  31
0
  0
LINE
  8
0
  10
13.90971
  20
2.22823
  30
0
  11
13.78376
  21
2.32791
  31
0
  0
LINE
  8
0
  10
13.78376
  20
2.32791
  30
0
  11
13.6657
  21
2.43258
  31
0
  0
LINE
  8
0
  10
13.6657
  20
2.43258
  30
0
  11
13.55681
  21
2.54278
  31
0
  0
LINE
  8
0
  10
13.55681
  20
2.54278
  30
0
  11
13.45984
  21
2.65988
  31
0
  0
LINE
  8
0
  10
13.45984
  20
2.65988
  30
0
  11
13.38281
  21
2.78823
  31
0
  0
LINE
  8
0
  10
13.38281
  20
2.78823
  30
0
  11
13.29931
  21
2.91296
  31
0
  0
LINE
  8
0
  10
13.29931
  20
2.91296
  30
0
  11
13.199
  21
3.02839
  31
0
  0
LINE
  8
0
  10
13.199
  20
3.02839
  30
0
  11
13.07116
  21
3.12899
  31
0
  0
LINE
  8
0
  10
13.07116
  20
3.12899
  30
0
  11
13.03145
  21
3.15008
  31
0
  0
LINE
  8
0
  10
13.03145
  20
3.15008
  30
0
  11
12.98586
  21
3.16813
  31
0
  0
LINE
  8
0
  10
12.98586
  20
3.16813
  30
0
  11
12.92939
  21
3.18063
  31
0
  0
LINE
  8
0
  10
12.92939
  20
3.18063
  30
0
  11
12.81078
  21
3.16177
  31
0
  0
LINE
  8
0
  10
12.81078
  20
3.16177
  30
0
  11
12.26206
  21
2.91367
  31
0
  0
LINE
  8
0
  10
12.26206
  20
2.91367
  30
0
  11
11.69448
  21
2.7124
  31
0
  0
LINE
  8
0
  10
11.69448
  20
2.7124
  30
0
  11
11.59589
  21
2.64383
  31
0
  0
LINE
  8
0
  10
11.59589
  20
2.64383
  30
0
  11
11.56383
  21
2.59569
  31
0
  0
LINE
  8
0
  10
11.56383
  20
2.59569
  30
0
  11
11.54345
  21
2.55109
  31
0
  0
LINE
  8
0
  10
11.54345
  20
2.55109
  30
0
  11
11.52943
  21
2.50837
  31
0
  0
LINE
  8
0
  10
11.52943
  20
2.50837
  30
0
  11
11.50694
  21
2.34725
  31
0
  0
LINE
  8
0
  10
11.50694
  20
2.34725
  30
0
  11
11.51458
  21
2.19451
  31
0
  0
LINE
  8
0
  10
11.51458
  20
2.19451
  30
0
  11
11.54079
  21
2.04672
  31
0
  0
LINE
  8
0
  10
11.54079
  20
2.04672
  30
0
  11
11.57417
  21
1.9008
  31
0
  0
LINE
  8
0
  10
11.57417
  20
1.9008
  30
0
  11
11.58538
  21
1.74918
  31
0
  0
LINE
  8
0
  10
11.58538
  20
1.74918
  30
0
  11
11.5832
  21
1.59427
  31
0
  0
LINE
  8
0
  10
11.5832
  20
1.59427
  30
0
  11
11.57058
  21
1.437
  31
0
  0
LINE
  8
0
  10
11.57058
  20
1.437
  30
0
  11
11.54882
  21
1.27786
  31
0
  0
LINE
  8
0
  10
11.54882
  20
1.27786
  30
0
  11
11.51868
  21
1.11719
  31
0
  0
LINE
  8
0
  10
11.51868
  20
1.11719
  30
0
  11
11.48065
  21
0.95529
  31
0
  0
LINE
  8
0
  10
11.48065
  20
0.95529
  30
0
  11
11.43508
  21
0.79238
  31
0
  0
LINE
  8
0
  10
11.43508
  20
0.79238
  30
0
  11
11.38222
  21
0.62871
  31
0
  0
LINE
  8
0
  10
11.38222
  20
0.62871
  30
0
  11
11.32228
  21
0.46446
  31
0
  0
LINE
  8
0
  10
11.32228
  20
0.46446
  30
0
  11
11.2554
  21
0.29984
  31
0
  0
LINE
  8
0
  10
11.2554
  20
0.29984
  30
0
  11
11.18171
  21
0.13504
  31
0
  0
LINE
  8
0
  10
11.18171
  20
0.13504
  30
0
  11
9.82888
  21
0.00326
  31
0
  0
LINE
  8
0
  10
9.82888
  20
0.00326
  30
0
  11
9.72478
  21
0.15075
  31
0
  0
LINE
  8
0
  10
9.72478
  20
0.15075
  30
0
  11
9.62739
  21
0.29936
  31
0
  0
LINE
  8
0
  10
9.62739
  20
0.29936
  30
0
  11
9.53687
  21
0.44895
  31
0
  0
LINE
  8
0
  10
9.53687
  20
0.44895
  30
0
  11
9.45342
  21
0.59935
  31
0
  0
LINE
  8
0
  10
9.45342
  20
0.59935
  30
0
  11
9.37727
  21
0.7504
  31
0
  0
LINE
  8
0
  10
9.37727
  20
0.7504
  30
0
  11
9.3087
  21
0.90192
  31
0
  0
LINE
  8
0
  10
9.3087
  20
0.90192
  30
0
  11
9.24812
  21
1.05375
  31
0
  0
LINE
  8
0
  10
9.24812
  20
1.05375
  30
0
  11
9.19606
  21
1.2057
  31
0
  0
LINE
  8
0
  10
9.19606
  20
1.2057
  30
0
  11
9.15332
  21
1.35758
  31
0
  0
LINE
  8
0
  10
9.15332
  20
1.35758
  30
0
  11
9.12129
  21
1.50915
  31
0
  0
LINE
  8
0
  10
9.12129
  20
1.50915
  30
0
  11
9.10303
  21
1.66009
  31
0
  0
LINE
  8
0
  10
9.10303
  20
1.66009
  30
0
  11
9.10762
  21
1.8097
  31
0
  0
LINE
  8
0
  10
9.10762
  20
1.8097
  30
0
  11
9.10481
  21
1.95978
  31
0
  0
LINE
  8
0
  10
9.10481
  20
1.95978
  30
0
  11
9.08283
  21
2.11112
  31
0
  0
LINE
  8
0
  10
9.08283
  20
2.11112
  30
0
  11
9.02967
  21
2.26487
  31
0
  0
LINE
  8
0
  10
9.02967
  20
2.26487
  30
0
  11
9.00767
  21
2.30408
  31
0
  0
LINE
  8
0
  10
9.00767
  20
2.30408
  30
0
  11
8.97907
  21
2.34391
  31
0
  0
LINE
  8
0
  10
8.97907
  20
2.34391
  30
0
  11
8.93833
  21
2.38496
  31
0
  0
LINE
  8
0
  10
8.93833
  20
2.38496
  30
0
  11
8.82835
  21
2.43321
  31
0
  0
LINE
  8
0
  10
8.82835
  20
2.43321
  30
0
  11
8.2326
  21
2.52116
  31
0
  0
LINE
  8
0
  10
8.2326
  20
2.52116
  30
0
  11
7.64631
  21
2.65869
  31
0
  0
LINE
  8
0
  10
7.64631
  20
2.65869
  30
0
  11
7.5263
  21
2.65432
  31
0
  0
LINE
  8
0
  10
7.5263
  20
2.65432
  30
0
  11
7.4733
  21
2.63115
  31
0
  0
LINE
  8
0
  10
7.4733
  20
2.63115
  30
0
  11
7.43205
  21
2.60464
  31
0
  0
LINE
  8
0
  10
7.43205
  20
2.60464
  30
0
  11
7.39716
  21
2.57629
  31
0
  0
LINE
  8
0
  10
7.39716
  20
2.57629
  30
0
  11
7.29113
  21
2.4529
  31
0
  0
LINE
  8
0
  10
7.29113
  20
2.4529
  30
0
  11
7.21498
  21
2.32028
  31
0
  0
LINE
  8
0
  10
7.21498
  20
2.32028
  30
0
  11
7.15713
  21
2.18178
  31
0
  0
LINE
  8
0
  10
7.15713
  20
2.18178
  30
0
  11
7.10632
  21
2.04098
  31
0
  0
LINE
  8
0
  10
7.10632
  20
2.04098
  30
0
  11
7.03377
  21
1.90737
  31
0
  0
LINE
  8
0
  10
7.03377
  20
1.90737
  30
0
  11
6.94819
  21
1.77823
  31
0
  0
LINE
  8
0
  10
6.94819
  20
1.77823
  30
0
  11
6.85255
  21
1.65274
  31
0
  0
LINE
  8
0
  10
6.85255
  20
1.65274
  30
0
  11
6.74821
  21
1.53063
  31
0
  0
LINE
  8
0
  10
6.74821
  20
1.53063
  30
0
  11
6.63599
  21
1.41177
  31
0
  0
LINE
  8
0
  10
6.63599
  20
1.41177
  30
0
  11
6.51646
  21
1.29612
  31
0
  0
LINE
  8
0
  10
6.51646
  20
1.29612
  30
0
  11
6.39005
  21
1.18372
  31
0
  0
LINE
  8
0
  10
6.39005
  20
1.18372
  30
0
  11
6.25709
  21
1.0746
  31
0
  0
LINE
  8
0
  10
6.25709
  20
1.0746
  30
0
  11
6.11787
  21
0.96884
  31
0
  0
LINE
  8
0
  10
6.11787
  20
0.96884
  30
0
  11
5.97261
  21
0.86651
  31
0
  0
LINE
  8
0
  10
5.97261
  20
0.86651
  30
0
  11
5.82152
  21
0.76771
  31
0
  0
LINE
  8
0
  10
5.82152
  20
0.76771
  30
0
  11
4.6122
  21
1.38824
  31
0
  0
LINE
  8
0
  10
4.6122
  20
1.38824
  30
0
  11
4.60436
  21
1.5686
  31
0
  0
LINE
  8
0
  10
4.60436
  20
1.5686
  30
0
  11
4.60277
  21
1.74628
  31
0
  0
LINE
  8
0
  10
4.60277
  20
1.74628
  30
0
  11
4.6075
  21
1.92105
  31
0
  0
LINE
  8
0
  10
4.6075
  20
1.92105
  30
0
  11
4.61861
  21
2.09269
  31
0
  0
LINE
  8
0
  10
4.61861
  20
2.09269
  30
0
  11
4.63621
  21
2.26093
  31
0
  0
LINE
  8
0
  10
4.63621
  20
2.26093
  30
0
  11
4.66045
  21
2.42547
  31
0
  0
LINE
  8
0
  10
4.66045
  20
2.42547
  30
0
  11
4.69157
  21
2.58595
  31
0
  0
LINE
  8
0
  10
4.69157
  20
2.58595
  30
0
  11
4.72992
  21
2.74193
  31
0
  0
LINE
  8
0
  10
4.72992
  20
2.74193
  30
0
  11
4.77608
  21
2.8928
  31
0
  0
LINE
  8
0
  10
4.77608
  20
2.8928
  30
0
  11
4.83108
  21
3.03763
  31
0
  0
LINE
  8
0
  10
4.83108
  20
3.03763
  30
0
  11
4.89732
  21
3.17448
  31
0
  0
LINE
  8
0
  10
4.89732
  20
3.17448
  30
0
  11
4.98207
  21
3.29786
  31
0
  0
LINE
  8
0
  10
4.98207
  20
3.29786
  30
0
  11
5.06085
  21
3.42563
  31
0
  0
LINE
  8
0
  10
5.06085
  20
3.42563
  30
0
  11
5.12418
  21
3.56483
  31
0
  0
LINE
  8
0
  10
5.12418
  20
3.56483
  30
0
  11
5.16258
  21
3.72291
  31
0
  0
LINE
  8
0
  10
5.16258
  20
3.72291
  30
0
  11
5.16527
  21
3.76779
  31
0
  0
LINE
  8
0
  10
5.16527
  20
3.76779
  30
0
  11
5.16274
  21
3.81676
  31
0
  0
LINE
  8
0
  10
5.16274
  20
3.81676
  30
0
  11
5.15066
  21
3.87332
  31
0
  0
LINE
  8
0
  10
5.15066
  20
3.87332
  30
0
  11
5.08423
  21
3.97337
  31
0
  0
LINE
  8
0
  10
5.08423
  20
3.97337
  30
0
  11
4.6306
  21
4.36945
  31
0
  0
LINE
  8
0
  10
4.6306
  20
4.36945
  30
0
  11
4.21174
  21
4.80212
  31
0
  0
LINE
  8
0
  10
4.21174
  20
4.80212
  30
0
  11
4.10841
  21
4.86332
  31
0
  0
LINE
  8
0
  10
4.10841
  20
4.86332
  30
0
  11
4.0513
  21
4.87249
  31
0
  0
LINE
  8
0
  10
4.0513
  20
4.87249
  30
0
  11
4.00227
  21
4.87249
  31
0
  0
LINE
  8
0
  10
4.00227
  20
4.87249
  30
0
  11
3.95759
  21
4.8675
  31
0
  0
LINE
  8
0
  10
3.95759
  20
4.8675
  30
0
  11
3.80168
  21
4.82102
  31
0
  0
LINE
  8
0
  10
3.80168
  20
4.82102
  30
0
  11
3.66592
  21
4.75063
  31
0
  0
LINE
  8
0
  10
3.66592
  20
4.75063
  30
0
  11
3.54237
  21
4.66539
  31
0
  0
LINE
  8
0
  10
3.54237
  20
4.66539
  30
0
  11
3.42351
  21
4.57441
  31
0
  0
LINE
  8
0
  10
3.42351
  20
4.57441
  30
0
  11
3.29024
  21
4.50123
  31
0
  0
LINE
  8
0
  10
3.29024
  20
4.50123
  30
0
  11
3.14843
  21
4.43886
  31
0
  0
LINE
  8
0
  10
3.14843
  20
4.43886
  30
0
  11
3.00013
  21
4.385
  31
0
  0
LINE
  8
0
  10
3.00013
  20
4.385
  30
0
  11
2.84633
  21
4.33869
  31
0
  0
LINE
  8
0
  10
2.84633
  20
4.33869
  30
0
  11
2.68766
  21
4.29936
  31
0
  0
LINE
  8
0
  10
2.68766
  20
4.29936
  30
0
  11
2.52458
  21
4.2667
  31
0
  0
LINE
  8
0
  10
2.52458
  20
4.2667
  30
0
  11
2.35747
  21
4.24048
  31
0
  0
LINE
  8
0
  10
2.35747
  20
4.24048
  30
0
  11
2.18663
  21
4.22057
  31
0
  0
LINE
  8
0
  10
2.18663
  20
4.22057
  30
0
  11
2.01233
  21
4.20686
  31
0
  0
LINE
  8
0
  10
2.01233
  20
4.20686
  30
0
  11
1.8348
  21
4.19931
  31
0
  0
LINE
  8
0
  10
1.8348
  20
4.19931
  30
0
  11
1.65428
  21
4.19788
  31
0
  0
LINE
  8
0
  10
1.65428
  20
4.19788
  30
0
  11
0.97242
  21
5.37371
  31
0
  0
LINE
  8
0
  10
0.97242
  20
5.37371
  30
0
  11
1.06333
  21
5.52968
  31
0
  0
LINE
  8
0
  10
1.06333
  20
5.52968
  30
0
  11
1.15806
  21
5.68001
  31
0
  0
LINE
  8
0
  10
1.15806
  20
5.68001
  30
0
  11
1.25653
  21
5.82448
  31
0
  0
LINE
  8
0
  10
1.25653
  20
5.82448
  30
0
  11
1.35867
  21
5.96287
  31
0
  0
LINE
  8
0
  10
1.35867
  20
5.96287
  30
0
  11
1.46443
  21
6.09489
  31
0
  0
LINE
  8
0
  10
1.46443
  20
6.09489
  30
0
  11
1.57378
  21
6.2202
  31
0
  0
LINE
  8
0
  10
1.57378
  20
6.2202
  30
0
  11
1.68672
  21
6.33838
  31
0
  0
LINE
  8
0
  10
1.68672
  20
6.33838
  30
0
  11
1.80331
  21
6.44886
  31
0
  0
LINE
  8
0
  10
1.80331
  20
6.44886
  30
0
  11
1.92371
  21
6.55083
  31
0
  0
LINE
  8
0
  10
1.92371
  20
6.55083
  30
0
  11
2.04829
  21
6.64293
  31
0
  0
LINE
  8
0
  10
2.04829
  20
6.64293
  30
0
  11
2.178
  21
6.72225
  31
0
  0
LINE
  8
0
  10
2.178
  20
6.72225
  30
0
  11
2.316
  21
6.78022
  31
0
  0
LINE
  8
0
  10
2.316
  20
6.78022
  30
0
  11
2.45134
  21
6.84512
  31
0
  0
LINE
  8
0
  10
2.45134
  20
6.84512
  30
0
  11
2.57988
  21
6.92798
  31
0
  0
LINE
  8
0
  10
2.57988
  20
6.92798
  30
0
  11
2.69765
  21
7.04021
  31
0
  0
LINE
  8
0
  10
2.69765
  20
7.04021
  30
0
  11
2.72417
  21
7.07651
  31
0
  0
LINE
  8
0
  10
2.72417
  20
7.07651
  30
0
  11
2.74853
  21
7.11907
  31
0
  0
LINE
  8
0
  10
2.74853
  20
7.11907
  30
0
  11
2.76894
  21
7.17318
  31
0
  0
LINE
  8
0
  10
2.76894
  20
7.17318
  30
0
  11
2.76714
  21
7.29327
  31
0
  0
LINE
  8
0
  10
2.76714
  20
7.29327
  30
0
  11
2.59967
  21
7.87171
  31
0
  0
LINE
  8
0
  10
2.59967
  20
7.87171
  30
0
  11
2.48122
  21
8.46216
  31
0
  0
LINE
  8
0
  10
12.03395
  20
9.57895
  30
0
  11
12.03395
  21
9.57895
  31
0
  0
LINE
  8
0
  10
12.03395
  20
9.57895
  30
0
  11
11.95029
  21
10.21435
  31
0
  0
LINE
  8
0
  10
11.95029
  20
10.21435
  30
0
  11
11.70504
  21
10.80645
  31
0
  0
LINE
  8
0
  10
11.70504
  20
10.80645
  30
0
  11
11.31489
  21
11.31489
  31
0
  0
LINE
  8
0
  10
11.31489
  20
11.31489
  30
0
  11
10.80645
  21
11.70504
  31
0
  0
LINE
  8
0
  10
10.80645
  20
11.70504
  30
0
  11
10.21435
  21
11.95029
  31
0
  0
LINE
  8
0
  10
10.21435
  20
11.95029
  30
0
  11
9.57895
  21
12.03395
  31
0
  0
LINE
  8
0
  10
9.57895
  20
12.03395
  30
0
  11
8.94355
  21
11.95029
  31
0
  0
LINE
  8
0
  10
8.94355
  20
11.95029
  30
0
  11
8.35145
  21
11.70504
  31
0
  0
LINE
  8
0
  10
8.35145
  20
11.70504
  30
0
  11
7.843
  21
11.31489
  31
0
  0
LINE
  8
0
  10
7.843
  20
11.31489
  30
0
  11
7.45285
  21
10.80645
  31
0
  0
LINE
  8
0
  10
7.45285
  20
10.80645
  30
0
  11
7.2076
  21
10.21435
  31
0
  0
LINE
  8
0
  10
7.2076
  20
10.21435
  30
0
  11
7.12395
  21
9.57895
  31
0
  0
LINE
  8
0
  10
7.12395
  20
9.57895
  30
0
  11
7.2076
  21
8.94355
  31
0
  0
LINE
  8
0
  10
7.2076
  20
8.94355
  30
0
  11
7.45285
  21
8.35145
  31
0
  0
LINE
  8
0
  10
7.45285
  20
8.35145
  30
0
  11
7.843
  21
7.843
  31
0
  0
LINE
  8
0
  10
7.843
  20
7.843
  30
0
  11
8.35145
  21
7.45285
  31
0
  0
LINE
  8
0
  10
8.35145
  20
7.45285
  30
0
  11
8.94355
  21
7.2076
  31
0
  0
LINE
  8
0
  10
8.94355
  20
7.2076
  30
0
  11
9.57895
  21
7.12395
  31
0
  0
LINE
  8
0
  10
9.57895
  20
7.12395
  30
0
  11
10.21435
  21
7.2076
  31
0
  0
LINE
  8
0
  10
10.21435
  20
7.2076
  30
0
  11
10.80645
  21
7.45285
  31
0
  0
LINE
  8
0
  10
10.80645
  20
7.45285
  30
0
  11
11.31489
  21
7.843
  31
0
  0
LINE
  8
0
  10
11.31489
  20
7.843
  30
0
  11
11.70504
  21
8.35145
  31
0
  0
LINE
  8
0
  10
11.70504
  20
8.35145
  30
0
  11
11.95029
  21
8.94355
  31
0
  0
LINE
  8
0
  10
11.95029
  20
8.94355
  30
0
  11
12.03395
  21
9.57895
  31
0
  0
ENDSEC
  0
EOF
