  0
SECTION
  2
ENTITIES
  0
LINE
 10
-69.550000
 11
-69.550000
 20
10.000000
 21
70.000000
  0
LINE
 10
-69.550000
 11
-40.000000
 20
70.000000
 21
70.000000
  0
LINE
 10
-40.000000
 11
-40.000000
 20
70.000000
 21
42.722000
  0
LINE
 10
-40.000000
 11
-53.525000
 20
42.722000
 21
42.722000
  0
LINE
 10
-53.525000
 11
-53.525000
 20
42.722000
 21
42.524000
  0
LINE
 10
-53.525000
 11
-54.775000
 20
42.524000
 21
42.722000
  0
LINE
 10
-54.775000
 11
-56.699000
 20
42.722000
 21
42.417000
  0
LINE
 10
-56.699000
 11
-58.434000
 20
42.417000
 21
41.533000
  0
LINE
 10
-58.434000
 11
-59.811000
 20
41.533000
 21
40.156000
  0
LINE
 10
-59.811000
 11
-60.695000
 20
40.156000
 21
38.421000
  0
LINE
 10
-60.695000
 11
-61.000000
 20
38.421000
 21
36.497000
  0
LINE
 10
-61.000000
 11
-60.695000
 20
36.497000
 21
34.573000
  0
LINE
 10
-60.695000
 11
-59.811000
 20
34.573000
 21
32.838000
  0
LINE
 10
-59.811000
 11
-58.434000
 20
32.838000
 21
31.461000
  0
LINE
 10
-58.434000
 11
-56.699000
 20
31.461000
 21
30.577000
  0
LINE
 10
-56.699000
 11
-54.775000
 20
30.577000
 21
30.272000
  0
LINE
 10
-54.775000
 11
-53.525000
 20
30.272000
 21
30.470000
  0
LINE
 10
-53.525000
 11
-53.525000
 20
30.470000
 21
30.272000
  0
LINE
 10
-53.525000
 11
-40.000000
 20
30.272000
 21
30.272000
  0
LINE
 10
-40.000000
 11
-40.000000
 20
30.272000
 21
10.000000
  0
LINE
 10
-40.000000
 11
-69.550000
 20
10.000000
 21
10.000000
  0
LINE
 10
-57.025000
 11
-56.366000
 20
15.000000
 21
16.591000
  0
LINE
 10
-56.366000
 11
-54.775000
 20
16.591000
 21
17.250000
  0
LINE
 10
-54.775000
 11
-53.184000
 20
17.250000
 21
16.591000
  0
LINE
 10
-53.184000
 11
-52.525000
 20
16.591000
 21
15.000000
  0
LINE
 10
-52.525000
 11
-53.184000
 20
15.000000
 21
13.409000
  0
LINE
 10
-53.184000
 11
-54.775000
 20
13.409000
 21
12.750000
  0
LINE
 10
-54.775000
 11
-56.366000
 20
12.750000
 21
13.409000
  0
LINE
 10
-56.366000
 11
-57.025000
 20
13.409000
 21
15.000000
  0
LINE
 10
-56.389000
 11
-55.730000
 20
65.000000
 21
66.591000
  0
LINE
 10
-55.730000
 11
-54.139000
 20
66.591000
 21
67.250000
  0
LINE
 10
-54.139000
 11
-52.548000
 20
67.250000
 21
66.591000
  0
LINE
 10
-52.548000
 11
-51.889000
 20
66.591000
 21
65.000000
  0
LINE
 10
-51.889000
 11
-52.548000
 20
65.000000
 21
63.409000
  0
LINE
 10
-52.548000
 11
-54.139000
 20
63.409000
 21
62.750000
  0
LINE
 10
-54.139000
 11
-55.730000
 20
62.750000
 21
63.409000
  0
LINE
 10
-55.730000
 11
-56.389000
 20
63.409000
 21
65.000000
  0
ENDSEC
  0
EOF
