  0
SECTION
  2
ENTITIES
  0
LINE
 10
-69.550000
 11
-69.550000
 20
10.000000
 21
70.000000
  0
LINE
 10
-69.550000
 11
-40.000000
 20
70.000000
 21
70.000000
  0
LINE
 10
-40.000000
 11
-40.000000
 20
70.000000
 21
10.000000
  0
LINE
 10
-40.000000
 11
-69.550000
 20
10.000000
 21
10.000000
  0
LINE
 10
-62.717000
 11
-62.717000
 20
35.533000
 21
37.461000
  0
LINE
 10
-62.717000
 11
-62.255000
 20
37.461000
 21
39.334000
  0
LINE
 10
-62.255000
 11
-61.359000
 20
39.334000
 21
41.042000
  0
LINE
 10
-61.359000
 11
-60.080000
 20
41.042000
 21
42.485000
  0
LINE
 10
-60.080000
 11
-58.493000
 20
42.485000
 21
43.581000
  0
LINE
 10
-58.493000
 11
-56.690000
 20
43.581000
 21
44.265000
  0
LINE
 10
-56.690000
 11
-54.775000
 20
44.265000
 21
44.497000
  0
LINE
 10
-54.775000
 11
-52.860000
 20
44.497000
 21
44.265000
  0
LINE
 10
-52.860000
 11
-51.057000
 20
44.265000
 21
43.581000
  0
LINE
 10
-51.057000
 11
-49.470000
 20
43.581000
 21
42.485000
  0
LINE
 10
-49.470000
 11
-48.191000
 20
42.485000
 21
41.042000
  0
LINE
 10
-48.191000
 11
-47.295000
 20
41.042000
 21
39.334000
  0
LINE
 10
-47.295000
 11
-46.833000
 20
39.334000
 21
37.461000
  0
LINE
 10
-46.833000
 11
-46.833000
 20
37.461000
 21
35.533000
  0
LINE
 10
-46.833000
 11
-47.295000
 20
35.533000
 21
33.660000
  0
LINE
 10
-47.295000
 11
-48.191000
 20
33.660000
 21
31.952000
  0
LINE
 10
-48.191000
 11
-49.470000
 20
31.952000
 21
30.509000
  0
LINE
 10
-49.470000
 11
-51.057000
 20
30.509000
 21
29.413000
  0
LINE
 10
-51.057000
 11
-52.860000
 20
29.413000
 21
28.729000
  0
LINE
 10
-52.860000
 11
-54.775000
 20
28.729000
 21
28.497000
  0
LINE
 10
-54.775000
 11
-56.690000
 20
28.497000
 21
28.729000
  0
LINE
 10
-56.690000
 11
-58.493000
 20
28.729000
 21
29.413000
  0
LINE
 10
-58.493000
 11
-60.080000
 20
29.413000
 21
30.509000
  0
LINE
 10
-60.080000
 11
-61.359000
 20
30.509000
 21
31.952000
  0
LINE
 10
-61.359000
 11
-62.255000
 20
31.952000
 21
33.660000
  0
LINE
 10
-62.255000
 11
-62.717000
 20
33.660000
 21
35.533000
  0
LINE
 10
-57.025000
 11
-56.366000
 20
15.000000
 21
16.591000
  0
LINE
 10
-56.366000
 11
-54.775000
 20
16.591000
 21
17.250000
  0
LINE
 10
-54.775000
 11
-53.184000
 20
17.250000
 21
16.591000
  0
LINE
 10
-53.184000
 11
-52.525000
 20
16.591000
 21
15.000000
  0
LINE
 10
-52.525000
 11
-53.184000
 20
15.000000
 21
13.409000
  0
LINE
 10
-53.184000
 11
-54.775000
 20
13.409000
 21
12.750000
  0
LINE
 10
-54.775000
 11
-56.366000
 20
12.750000
 21
13.409000
  0
LINE
 10
-56.366000
 11
-57.025000
 20
13.409000
 21
15.000000
  0
LINE
 10
-56.389000
 11
-55.730000
 20
65.000000
 21
66.591000
  0
LINE
 10
-55.730000
 11
-54.139000
 20
66.591000
 21
67.250000
  0
LINE
 10
-54.139000
 11
-52.548000
 20
67.250000
 21
66.591000
  0
LINE
 10
-52.548000
 11
-51.889000
 20
66.591000
 21
65.000000
  0
LINE
 10
-51.889000
 11
-52.548000
 20
65.000000
 21
63.409000
  0
LINE
 10
-52.548000
 11
-54.139000
 20
63.409000
 21
62.750000
  0
LINE
 10
-54.139000
 11
-55.730000
 20
62.750000
 21
63.409000
  0
LINE
 10
-55.730000
 11
-56.389000
 20
63.409000
 21
65.000000
  0
ENDSEC
  0
EOF
