  0
SECTION
  2
ENTITIES
  0
LINE
 10
-66.200000
 11
-66.200000
 20
10.000000
 21
70.000000
  0
LINE
 10
-66.200000
 11
-40.000000
 20
70.000000
 21
70.000000
  0
LINE
 10
-40.000000
 11
-40.000000
 20
70.000000
 21
10.000000
  0
LINE
 10
-40.000000
 11
-66.200000
 20
10.000000
 21
10.000000
  0
LINE
 10
-58.615000
 11
-58.615000
 20
35.525000
 21
37.469000
  0
LINE
 10
-58.615000
 11
-57.950000
 20
37.469000
 21
39.297000
  0
LINE
 10
-57.950000
 11
-56.700000
 20
39.297000
 21
40.787000
  0
LINE
 10
-56.700000
 11
-55.015000
 20
40.787000
 21
41.759000
  0
LINE
 10
-55.015000
 11
-53.100000
 20
41.759000
 21
42.097000
  0
LINE
 10
-53.100000
 11
-51.185000
 20
42.097000
 21
41.759000
  0
LINE
 10
-51.185000
 11
-49.500000
 20
41.759000
 21
40.787000
  0
LINE
 10
-49.500000
 11
-48.250000
 20
40.787000
 21
39.297000
  0
LINE
 10
-48.250000
 11
-47.585000
 20
39.297000
 21
37.469000
  0
LINE
 10
-47.585000
 11
-47.585000
 20
37.469000
 21
35.525000
  0
LINE
 10
-47.585000
 11
-48.250000
 20
35.525000
 21
33.697000
  0
LINE
 10
-48.250000
 11
-49.500000
 20
33.697000
 21
32.207000
  0
LINE
 10
-49.500000
 11
-51.185000
 20
32.207000
 21
31.235000
  0
LINE
 10
-51.185000
 11
-53.100000
 20
31.235000
 21
30.897000
  0
LINE
 10
-53.100000
 11
-55.015000
 20
30.897000
 21
31.235000
  0
LINE
 10
-55.015000
 11
-56.700000
 20
31.235000
 21
32.207000
  0
LINE
 10
-56.700000
 11
-57.950000
 20
32.207000
 21
33.697000
  0
LINE
 10
-57.950000
 11
-58.615000
 20
33.697000
 21
35.525000
  0
LINE
 10
-55.350000
 11
-54.691000
 20
15.000000
 21
16.591000
  0
LINE
 10
-54.691000
 11
-53.100000
 20
16.591000
 21
17.250000
  0
LINE
 10
-53.100000
 11
-51.509000
 20
17.250000
 21
16.591000
  0
LINE
 10
-51.509000
 11
-50.850000
 20
16.591000
 21
15.000000
  0
LINE
 10
-50.850000
 11
-51.509000
 20
15.000000
 21
13.409000
  0
LINE
 10
-51.509000
 11
-53.100000
 20
13.409000
 21
12.750000
  0
LINE
 10
-53.100000
 11
-54.691000
 20
12.750000
 21
13.409000
  0
LINE
 10
-54.691000
 11
-55.350000
 20
13.409000
 21
15.000000
  0
LINE
 10
-54.786000
 11
-54.127000
 20
65.000000
 21
66.591000
  0
LINE
 10
-54.127000
 11
-52.536000
 20
66.591000
 21
67.250000
  0
LINE
 10
-52.536000
 11
-50.945000
 20
67.250000
 21
66.591000
  0
LINE
 10
-50.945000
 11
-50.286000
 20
66.591000
 21
65.000000
  0
LINE
 10
-50.286000
 11
-50.945000
 20
65.000000
 21
63.409000
  0
LINE
 10
-50.945000
 11
-52.536000
 20
63.409000
 21
62.750000
  0
LINE
 10
-52.536000
 11
-54.127000
 20
62.750000
 21
63.409000
  0
LINE
 10
-54.127000
 11
-54.786000
 20
63.409000
 21
65.000000
  0
ENDSEC
  0
EOF
