  0
SECTION
  2
ENTITIES
  0
LINE
 10
-69.550000
 11
-69.550000
 20
10.000000
 21
70.000000
  0
LINE
 10
-69.550000
 11
-40.000000
 20
70.000000
 21
70.000000
  0
LINE
 10
-40.000000
 11
-40.000000
 20
70.000000
 21
10.000000
  0
LINE
 10
-40.000000
 11
-69.550000
 20
10.000000
 21
10.000000
  0
LINE
 10
-57.992000
 11
-57.731000
 20
36.034000
 21
37.847000
  0
LINE
 10
-57.731000
 11
-56.532000
 20
37.847000
 21
39.231000
  0
LINE
 10
-56.532000
 11
-54.775000
 20
39.231000
 21
39.747000
  0
LINE
 10
-54.775000
 11
-53.018000
 20
39.747000
 21
39.231000
  0
LINE
 10
-53.018000
 11
-51.819000
 20
39.231000
 21
37.847000
  0
LINE
 10
-51.819000
 11
-51.558000
 20
37.847000
 21
36.034000
  0
LINE
 10
-51.558000
 11
-52.319000
 20
36.034000
 21
34.369000
  0
LINE
 10
-52.319000
 11
-53.859000
 20
34.369000
 21
33.379000
  0
LINE
 10
-53.859000
 11
-55.691000
 20
33.379000
 21
33.379000
  0
LINE
 10
-55.691000
 11
-57.231000
 20
33.379000
 21
34.369000
  0
LINE
 10
-57.231000
 11
-57.992000
 20
34.369000
 21
36.034000
  0
LINE
 10
-57.025000
 11
-56.366000
 20
15.000000
 21
16.591000
  0
LINE
 10
-56.366000
 11
-54.775000
 20
16.591000
 21
17.250000
  0
LINE
 10
-54.775000
 11
-53.184000
 20
17.250000
 21
16.591000
  0
LINE
 10
-53.184000
 11
-52.525000
 20
16.591000
 21
15.000000
  0
LINE
 10
-52.525000
 11
-53.184000
 20
15.000000
 21
13.409000
  0
LINE
 10
-53.184000
 11
-54.775000
 20
13.409000
 21
12.750000
  0
LINE
 10
-54.775000
 11
-56.366000
 20
12.750000
 21
13.409000
  0
LINE
 10
-56.366000
 11
-57.025000
 20
13.409000
 21
15.000000
  0
LINE
 10
-56.389000
 11
-55.730000
 20
65.000000
 21
66.591000
  0
LINE
 10
-55.730000
 11
-54.139000
 20
66.591000
 21
67.250000
  0
LINE
 10
-54.139000
 11
-52.548000
 20
67.250000
 21
66.591000
  0
LINE
 10
-52.548000
 11
-51.889000
 20
66.591000
 21
65.000000
  0
LINE
 10
-51.889000
 11
-52.548000
 20
65.000000
 21
63.409000
  0
LINE
 10
-52.548000
 11
-54.139000
 20
63.409000
 21
62.750000
  0
LINE
 10
-54.139000
 11
-55.730000
 20
62.750000
 21
63.409000
  0
LINE
 10
-55.730000
 11
-56.389000
 20
63.409000
 21
65.000000
  0
ENDSEC
  0
EOF
