  0
SECTION
  2
ENTITIES
  0
LINE
 10
-3.063000
 11
-3.063000
 20
-2.313000
 21
2.313000
  0
LINE
 10
-3.063000
 11
3.063000
 20
2.313000
 21
2.313000
  0
LINE
 10
3.063000
 11
3.063000
 20
2.313000
 21
-2.313000
  0
LINE
 10
3.063000
 11
-3.063000
 20
-2.313000
 21
-2.313000
  0
LINE
 10
-1.031000
 11
-1.031000
 20
-1.507000
 21
-1.493000
  0
LINE
 10
-1.031000
 11
-0.964000
 20
-1.493000
 21
-1.493000
  0
LINE
 10
-0.964000
 11
-0.964000
 20
-1.493000
 21
-1.427000
  0
LINE
 10
-0.964000
 11
-0.951000
 20
-1.427000
 21
-1.427000
  0
LINE
 10
-0.951000
 11
-0.951000
 20
-1.427000
 21
-1.493000
  0
LINE
 10
-0.951000
 11
-0.884000
 20
-1.493000
 21
-1.493000
  0
LINE
 10
-0.884000
 11
-0.884000
 20
-1.493000
 21
-1.507000
  0
LINE
 10
-0.884000
 11
-0.951000
 20
-1.507000
 21
-1.507000
  0
LINE
 10
-0.951000
 11
-0.951000
 20
-1.507000
 21
-1.573000
  0
LINE
 10
-0.951000
 11
-0.964000
 20
-1.573000
 21
-1.573000
  0
LINE
 10
-0.964000
 11
-0.964000
 20
-1.573000
 21
-1.507000
  0
LINE
 10
-0.964000
 11
-1.031000
 20
-1.507000
 21
-1.507000
  0
LINE
 10
-1.031000
 11
-1.031000
 20
1.493000
 21
1.507000
  0
LINE
 10
-1.031000
 11
-0.964000
 20
1.507000
 21
1.507000
  0
LINE
 10
-0.964000
 11
-0.964000
 20
1.507000
 21
1.573000
  0
LINE
 10
-0.964000
 11
-0.951000
 20
1.573000
 21
1.573000
  0
LINE
 10
-0.951000
 11
-0.951000
 20
1.573000
 21
1.507000
  0
LINE
 10
-0.951000
 11
-0.884000
 20
1.507000
 21
1.507000
  0
LINE
 10
-0.884000
 11
-0.884000
 20
1.507000
 21
1.493000
  0
LINE
 10
-0.884000
 11
-0.951000
 20
1.493000
 21
1.493000
  0
LINE
 10
-0.951000
 11
-0.951000
 20
1.493000
 21
1.427000
  0
LINE
 10
-0.951000
 11
-0.964000
 20
1.427000
 21
1.427000
  0
LINE
 10
-0.964000
 11
-0.964000
 20
1.427000
 21
1.493000
  0
LINE
 10
-0.964000
 11
-1.031000
 20
1.493000
 21
1.493000
  0
LINE
 10
-1.020000
 11
-1.020000
 20
-0.506000
 21
-0.494000
  0
LINE
 10
-1.020000
 11
-0.963000
 20
-0.494000
 21
-0.494000
  0
LINE
 10
-0.963000
 11
-0.963000
 20
-0.494000
 21
-0.437000
  0
LINE
 10
-0.963000
 11
-0.952000
 20
-0.437000
 21
-0.437000
  0
LINE
 10
-0.952000
 11
-0.952000
 20
-0.437000
 21
-0.494000
  0
LINE
 10
-0.952000
 11
-0.895000
 20
-0.494000
 21
-0.494000
  0
LINE
 10
-0.895000
 11
-0.895000
 20
-0.494000
 21
-0.506000
  0
LINE
 10
-0.895000
 11
-0.952000
 20
-0.506000
 21
-0.506000
  0
LINE
 10
-0.952000
 11
-0.952000
 20
-0.506000
 21
-0.563000
  0
LINE
 10
-0.952000
 11
-0.963000
 20
-0.563000
 21
-0.563000
  0
LINE
 10
-0.963000
 11
-0.963000
 20
-0.563000
 21
-0.506000
  0
LINE
 10
-0.963000
 11
-1.020000
 20
-0.506000
 21
-0.506000
  0
LINE
 10
-1.020000
 11
-1.020000
 20
0.494000
 21
0.506000
  0
LINE
 10
-1.020000
 11
-0.963000
 20
0.506000
 21
0.506000
  0
LINE
 10
-0.963000
 11
-0.963000
 20
0.506000
 21
0.563000
  0
LINE
 10
-0.963000
 11
-0.952000
 20
0.563000
 21
0.563000
  0
LINE
 10
-0.952000
 11
-0.952000
 20
0.563000
 21
0.506000
  0
LINE
 10
-0.952000
 11
-0.895000
 20
0.506000
 21
0.506000
  0
LINE
 10
-0.895000
 11
-0.895000
 20
0.506000
 21
0.494000
  0
LINE
 10
-0.895000
 11
-0.952000
 20
0.494000
 21
0.494000
  0
LINE
 10
-0.952000
 11
-0.952000
 20
0.494000
 21
0.437000
  0
LINE
 10
-0.952000
 11
-0.963000
 20
0.437000
 21
0.437000
  0
LINE
 10
-0.963000
 11
-0.963000
 20
0.437000
 21
0.494000
  0
LINE
 10
-0.963000
 11
-1.020000
 20
0.494000
 21
0.494000
  0
LINE
 10
2.595000
 11
2.595000
 20
-0.007000
 21
0.007000
  0
LINE
 10
2.595000
 11
2.661000
 20
0.007000
 21
0.007000
  0
LINE
 10
2.661000
 11
2.661000
 20
0.007000
 21
0.073000
  0
LINE
 10
2.661000
 11
2.675000
 20
0.073000
 21
0.073000
  0
LINE
 10
2.675000
 11
2.675000
 20
0.073000
 21
0.007000
  0
LINE
 10
2.675000
 11
2.741000
 20
0.007000
 21
0.007000
  0
LINE
 10
2.741000
 11
2.741000
 20
0.007000
 21
-0.007000
  0
LINE
 10
2.741000
 11
2.675000
 20
-0.007000
 21
-0.007000
  0
LINE
 10
2.675000
 11
2.675000
 20
-0.007000
 21
-0.073000
  0
LINE
 10
2.675000
 11
2.661000
 20
-0.073000
 21
-0.073000
  0
LINE
 10
2.661000
 11
2.661000
 20
-0.073000
 21
-0.007000
  0
LINE
 10
2.661000
 11
2.595000
 20
-0.007000
 21
-0.007000
  0
ENDSEC
  0
EOF
