solid
  facet normal -1.000000 -0.000000 -0.000000
    outer loop
      vertex 0.000000 0.000000 -45.000000
      vertex 0.000000 0.000000 -30.000000
      vertex 0.000000 35.400000 -45.000000
    endloop
  endfacet
  facet normal -1.000000 0.000000 0.000000
    outer loop
      vertex 0.000000 35.400000 -45.000000
      vertex 0.000000 0.000000 -30.000000
      vertex 0.000000 35.400000 -30.000000
    endloop
  endfacet
  facet normal 0.000000 -1.000000 0.000000
    outer loop
      vertex 0.000000 0.000000 -30.000000
      vertex 0.000000 0.000000 -45.000000
      vertex 60.000000 0.000000 -45.000000
    endloop
  endfacet
  facet normal 0.000000 -1.000000 0.000000
    outer loop
      vertex 60.000000 0.000000 -30.000000
      vertex 0.000000 0.000000 -30.000000
      vertex 60.000000 0.000000 -45.000000
    endloop
  endfacet
  facet normal 0.000000 -0.000000 -1.000000
    outer loop
      vertex 28.412909 23.911223 -45.000000
      vertex 0.000000 35.400000 -45.000000
      vertex 60.000000 35.400000 -45.000000
    endloop
  endfacet
  facet normal 0.000000 -0.000000 -1.000000
    outer loop
      vertex 0.000000 0.000000 -45.000000
      vertex 0.000000 35.400000 -45.000000
      vertex 2.242538 18.186215 -45.000000
    endloop
  endfacet
  facet normal 0.000000 0.000000 -1.000000
    outer loop
      vertex 0.000000 0.000000 -45.000000
      vertex 2.242538 18.186215 -45.000000
      vertex 2.575129 16.300000 -45.000000
    endloop
  endfacet
  facet normal 0.000000 0.000000 -1.000000
    outer loop
      vertex 23.676756 11.843702 -45.000000
      vertex 60.000000 0.000000 -45.000000
      vertex 7.424871 16.300000 -45.000000
    endloop
  endfacet
  facet normal 0.000000 0.000000 -1.000000
    outer loop
      vertex 0.000000 0.000000 -45.000000
      vertex 2.575129 16.300000 -45.000000
      vertex 4.042344 15.068861 -45.000000
    endloop
  endfacet
  facet normal -0.000000 0.000000 -1.000000
    outer loop
      vertex 0.000000 0.000000 -45.000000
      vertex 4.042344 15.068861 -45.000000
      vertex 60.000000 0.000000 -45.000000
    endloop
  endfacet
  facet normal 0.000000 0.000000 -1.000000
    outer loop
      vertex 4.042344 15.068861 -45.000000
      vertex 5.957656 15.068861 -45.000000
      vertex 60.000000 0.000000 -45.000000
    endloop
  endfacet
  facet normal 0.000000 0.000000 -1.000000
    outer loop
      vertex 7.757462 18.186215 -45.000000
      vertex 22.075877 12.935163 -45.000000
      vertex 23.676756 11.843702 -45.000000
    endloop
  endfacet
  facet normal -0.000000 -0.000000 -1.000000
    outer loop
      vertex 6.799805 19.844924 -45.000000
      vertex 0.000000 35.400000 -45.000000
      vertex 7.757462 18.186215 -45.000000
    endloop
  endfacet
  facet normal -0.000000 -0.000000 -1.000000
    outer loop
      vertex 5.000000 20.500000 -45.000000
      vertex 0.000000 35.400000 -45.000000
      vertex 6.799805 19.844924 -45.000000
    endloop
  endfacet
  facet normal 0.000000 -0.000000 -1.000000
    outer loop
      vertex 3.200195 19.844924 -45.000000
      vertex 0.000000 35.400000 -45.000000
      vertex 5.000000 20.500000 -45.000000
    endloop
  endfacet
  facet normal 0.000000 -0.000000 -1.000000
    outer loop
      vertex 2.242538 18.186215 -45.000000
      vertex 0.000000 35.400000 -45.000000
      vertex 3.200195 19.844924 -45.000000
    endloop
  endfacet
  facet normal -0.000000 -0.000000 -1.000000
    outer loop
      vertex 7.757462 18.186215 -45.000000
      vertex 0.000000 35.400000 -45.000000
      vertex 20.015175 18.185746 -45.000000
    endloop
  endfacet
  facet normal 0.000000 -0.000000 -1.000000
    outer loop
      vertex 20.446321 20.074717 -45.000000
      vertex 0.000000 35.400000 -45.000000
      vertex 21.415095 21.752684 -45.000000
    endloop
  endfacet
  facet normal 0.000000 0.000000 -1.000000
    outer loop
      vertex 7.757462 18.186215 -45.000000
      vertex 20.015175 18.185746 -45.000000
      vertex 20.159969 16.253614 -45.000000
    endloop
  endfacet
  facet normal 0.000000 0.000000 -1.000000
    outer loop
      vertex 7.757462 18.186215 -45.000000
      vertex 20.159969 16.253614 -45.000000
      vertex 20.867835 14.450000 -45.000000
    endloop
  endfacet
  facet normal 0.000000 0.000000 -1.000000
    outer loop
      vertex 22.075877 12.935163 -45.000000
      vertex 7.757462 18.186215 -45.000000
      vertex 20.867835 14.450000 -45.000000
    endloop
  endfacet
  facet normal 0.000000 0.000000 -1.000000
    outer loop
      vertex 23.676756 11.843702 -45.000000
      vertex 25.528225 11.272600 -45.000000
      vertex 60.000000 0.000000 -45.000000
    endloop
  endfacet
  facet normal 0.000000 0.000000 -1.000000
    outer loop
      vertex 27.465775 11.272600 -45.000000
      vertex 60.000000 0.000000 -45.000000
      vertex 25.528225 11.272600 -45.000000
    endloop
  endfacet
  facet normal 0.000000 0.000000 -1.000000
    outer loop
      vertex 29.317244 11.843702 -45.000000
      vertex 60.000000 0.000000 -45.000000
      vertex 27.465775 11.272600 -45.000000
    endloop
  endfacet
  facet normal 0.000000 0.000000 -1.000000
    outer loop
      vertex 30.918123 12.935163 -45.000000
      vertex 60.000000 0.000000 -45.000000
      vertex 29.317244 11.843702 -45.000000
    endloop
  endfacet
  facet normal 0.000000 0.000000 -1.000000
    outer loop
      vertex 32.126165 14.450000 -45.000000
      vertex 60.000000 0.000000 -45.000000
      vertex 30.918123 12.935163 -45.000000
    endloop
  endfacet
  facet normal 0.000000 0.000000 -1.000000
    outer loop
      vertex 54.042344 14.306660 -45.000000
      vertex 60.000000 0.000000 -45.000000
      vertex 52.575129 15.537799 -45.000000
    endloop
  endfacet
  facet normal 0.000000 0.000000 -1.000000
    outer loop
      vertex 32.834031 16.253614 -45.000000
      vertex 60.000000 0.000000 -45.000000
      vertex 32.126165 14.450000 -45.000000
    endloop
  endfacet
  facet normal -0.000000 -0.000000 -1.000000
    outer loop
      vertex 26.497000 24.200000 -45.000000
      vertex 0.000000 35.400000 -45.000000
      vertex 28.412909 23.911223 -45.000000
    endloop
  endfacet
  facet normal 0.000000 -0.000000 -1.000000
    outer loop
      vertex 52.242538 17.424014 -45.000000
      vertex 32.834031 16.253614 -45.000000
      vertex 60.000000 35.400000 -45.000000
    endloop
  endfacet
  facet normal 0.000000 -0.000000 -1.000000
    outer loop
      vertex 21.415095 21.752684 -45.000000
      vertex 0.000000 35.400000 -45.000000
      vertex 22.835420 23.070552 -45.000000
    endloop
  endfacet
  facet normal 0.000000 0.000000 -1.000000
    outer loop
      vertex 32.834031 16.253614 -45.000000
      vertex 32.978825 18.185746 -45.000000
      vertex 60.000000 35.400000 -45.000000
    endloop
  endfacet
  facet normal 0.000000 -0.000000 -1.000000
    outer loop
      vertex 32.978825 18.185746 -45.000000
      vertex 32.547679 20.074717 -45.000000
      vertex 60.000000 35.400000 -45.000000
    endloop
  endfacet
  facet normal 0.000000 -0.000000 -1.000000
    outer loop
      vertex 22.835420 23.070552 -45.000000
      vertex 0.000000 35.400000 -45.000000
      vertex 24.581091 23.911223 -45.000000
    endloop
  endfacet
  facet normal 0.000000 -0.000000 -1.000000
    outer loop
      vertex 32.547679 20.074717 -45.000000
      vertex 31.578905 21.752684 -45.000000
      vertex 60.000000 35.400000 -45.000000
    endloop
  endfacet
  facet normal 0.000000 -0.000000 -1.000000
    outer loop
      vertex 24.581091 23.911223 -45.000000
      vertex 0.000000 35.400000 -45.000000
      vertex 26.497000 24.200000 -45.000000
    endloop
  endfacet
  facet normal 0.000000 -0.000000 -1.000000
    outer loop
      vertex 31.578905 21.752684 -45.000000
      vertex 30.158580 23.070552 -45.000000
      vertex 60.000000 35.400000 -45.000000
    endloop
  endfacet
  facet normal 0.000000 -0.000000 -1.000000
    outer loop
      vertex 30.158580 23.070552 -45.000000
      vertex 28.412909 23.911223 -45.000000
      vertex 60.000000 35.400000 -45.000000
    endloop
  endfacet
  facet normal 0.000000 -0.000000 -1.000000
    outer loop
      vertex 20.015175 18.185746 -45.000000
      vertex 0.000000 35.400000 -45.000000
      vertex 20.446321 20.074717 -45.000000
    endloop
  endfacet
  facet normal 0.000000 0.000000 -1.000000
    outer loop
      vertex 52.575129 15.537799 -45.000000
      vertex 32.834031 16.253614 -45.000000
      vertex 52.242538 17.424014 -45.000000
    endloop
  endfacet
  facet normal 0.000000 -0.000000 -1.000000
    outer loop
      vertex 53.200195 19.082723 -45.000000
      vertex 52.242538 17.424014 -45.000000
      vertex 60.000000 35.400000 -45.000000
    endloop
  endfacet
  facet normal 0.000000 0.000000 -1.000000
    outer loop
      vertex 60.000000 0.000000 -45.000000
      vertex 32.834031 16.253614 -45.000000
      vertex 52.575129 15.537799 -45.000000
    endloop
  endfacet
  facet normal -0.000000 0.000000 -1.000000
    outer loop
      vertex 56.799805 19.082723 -45.000000
      vertex 60.000000 35.400000 -45.000000
      vertex 57.757462 17.424014 -45.000000
    endloop
  endfacet
  facet normal 0.000000 0.000000 -1.000000
    outer loop
      vertex 60.000000 0.000000 -45.000000
      vertex 54.042344 14.306660 -45.000000
      vertex 55.957656 14.306660 -45.000000
    endloop
  endfacet
  facet normal 0.000000 0.000000 -1.000000
    outer loop
      vertex 60.000000 0.000000 -45.000000
      vertex 55.957656 14.306660 -45.000000
      vertex 57.424871 15.537799 -45.000000
    endloop
  endfacet
  facet normal 0.000000 0.000000 -1.000000
    outer loop
      vertex 60.000000 0.000000 -45.000000
      vertex 57.424871 15.537799 -45.000000
      vertex 57.757462 17.424014 -45.000000
    endloop
  endfacet
  facet normal 0.000000 0.000000 -1.000000
    outer loop
      vertex 60.000000 0.000000 -45.000000
      vertex 57.757462 17.424014 -45.000000
      vertex 60.000000 35.400000 -45.000000
    endloop
  endfacet
  facet normal -0.000000 0.000000 -1.000000
    outer loop
      vertex 55.000000 19.737799 -45.000000
      vertex 60.000000 35.400000 -45.000000
      vertex 56.799805 19.082723 -45.000000
    endloop
  endfacet
  facet normal 0.000000 -0.000000 -1.000000
    outer loop
      vertex 55.000000 19.737799 -45.000000
      vertex 53.200195 19.082723 -45.000000
      vertex 60.000000 35.400000 -45.000000
    endloop
  endfacet
  facet normal 0.000000 0.000000 -1.000000
    outer loop
      vertex 7.424871 16.300000 -45.000000
      vertex 60.000000 0.000000 -45.000000
      vertex 5.957656 15.068861 -45.000000
    endloop
  endfacet
  facet normal 0.000000 0.000000 -1.000000
    outer loop
      vertex 7.757462 18.186215 -45.000000
      vertex 23.676756 11.843702 -45.000000
      vertex 7.424871 16.300000 -45.000000
    endloop
  endfacet
  facet normal 0.000000 1.000000 0.000000
    outer loop
      vertex 0.000000 35.400000 -45.000000
      vertex 0.000000 35.400000 -30.000000
      vertex 60.000000 35.400000 -45.000000
    endloop
  endfacet
  facet normal 0.000000 1.000000 0.000000
    outer loop
      vertex 60.000000 35.400000 -45.000000
      vertex 0.000000 35.400000 -30.000000
      vertex 60.000000 35.400000 -30.000000
    endloop
  endfacet
  facet normal 0.000000 -0.000000 1.000000
    outer loop
      vertex 20.147000 6.701477 -30.000000
      vertex 0.000000 0.000000 -30.000000
      vertex 60.000000 0.000000 -30.000000
    endloop
  endfacet
  facet normal 0.000000 -0.000000 1.000000
    outer loop
      vertex 2.242538 18.186215 -30.000000
      vertex 0.000000 0.000000 -30.000000
      vertex 2.575129 16.300000 -30.000000
    endloop
  endfacet
  facet normal 0.000000 -0.000000 1.000000
    outer loop
      vertex 0.000000 35.400000 -30.000000
      vertex 0.000000 0.000000 -30.000000
      vertex 2.242538 18.186215 -30.000000
    endloop
  endfacet
  facet normal 0.000000 0.000000 1.000000
    outer loop
      vertex 20.147000 6.701477 -30.000000
      vertex 7.424871 16.300000 -30.000000
      vertex 5.957656 15.068861 -30.000000
    endloop
  endfacet
  facet normal 0.000000 0.000000 1.000000
    outer loop
      vertex 0.000000 35.400000 -30.000000
      vertex 3.200195 19.844924 -30.000000
      vertex 5.000000 20.500000 -30.000000
    endloop
  endfacet
  facet normal 0.000000 0.000000 1.000000
    outer loop
      vertex 53.200195 19.082723 -30.000000
      vertex 55.000000 19.737799 -30.000000
      vertex 60.000000 35.400000 -30.000000
    endloop
  endfacet
  facet normal 0.000000 0.000000 1.000000
    outer loop
      vertex 0.000000 35.400000 -30.000000
      vertex 5.000000 20.500000 -30.000000
      vertex 6.799805 19.844924 -30.000000
    endloop
  endfacet
  facet normal 0.000000 -0.000000 1.000000
    outer loop
      vertex 39.197000 17.700000 -30.000000
      vertex 32.847000 6.701477 -30.000000
      vertex 60.000000 0.000000 -30.000000
    endloop
  endfacet
  facet normal 0.000000 -0.000000 1.000000
    outer loop
      vertex 4.042344 15.068861 -30.000000
      vertex 0.000000 0.000000 -30.000000
      vertex 5.957656 15.068861 -30.000000
    endloop
  endfacet
  facet normal 0.000000 -0.000000 1.000000
    outer loop
      vertex 2.575129 16.300000 -30.000000
      vertex 0.000000 0.000000 -30.000000
      vertex 4.042344 15.068861 -30.000000
    endloop
  endfacet
  facet normal -0.000000 -0.000000 1.000000
    outer loop
      vertex 32.847000 6.701477 -30.000000
      vertex 20.147000 6.701477 -30.000000
      vertex 60.000000 0.000000 -30.000000
    endloop
  endfacet
  facet normal 0.000000 -0.000000 1.000000
    outer loop
      vertex 5.957656 15.068861 -30.000000
      vertex 0.000000 0.000000 -30.000000
      vertex 20.147000 6.701477 -30.000000
    endloop
  endfacet
  facet normal 0.000000 0.000000 1.000000
    outer loop
      vertex 0.000000 35.400000 -30.000000
      vertex 6.799805 19.844924 -30.000000
      vertex 13.797000 17.700000 -30.000000
    endloop
  endfacet
  facet normal 0.000000 -0.000000 1.000000
    outer loop
      vertex 57.424871 15.537799 -30.000000
      vertex 55.957656 14.306660 -30.000000
      vertex 60.000000 0.000000 -30.000000
    endloop
  endfacet
  facet normal 0.000000 0.000000 1.000000
    outer loop
      vertex 60.000000 35.400000 -30.000000
      vertex 0.000000 35.400000 -30.000000
      vertex 20.147000 28.698523 -30.000000
    endloop
  endfacet
  facet normal -0.000000 -0.000000 1.000000
    outer loop
      vertex 52.575129 15.537799 -30.000000
      vertex 32.847000 28.698523 -30.000000
      vertex 60.000000 0.000000 -30.000000
    endloop
  endfacet
  facet normal 0.000000 0.000000 1.000000
    outer loop
      vertex 60.000000 35.400000 -30.000000
      vertex 20.147000 28.698523 -30.000000
      vertex 32.847000 28.698523 -30.000000
    endloop
  endfacet
  facet normal 0.000000 0.000000 1.000000
    outer loop
      vertex 32.847000 28.698523 -30.000000
      vertex 39.197000 17.700000 -30.000000
      vertex 60.000000 0.000000 -30.000000
    endloop
  endfacet
  facet normal -0.000000 -0.000000 1.000000
    outer loop
      vertex 54.042344 14.306660 -30.000000
      vertex 52.575129 15.537799 -30.000000
      vertex 60.000000 0.000000 -30.000000
    endloop
  endfacet
  facet normal -0.000000 -0.000000 1.000000
    outer loop
      vertex 52.242538 17.424014 -30.000000
      vertex 32.847000 28.698523 -30.000000
      vertex 52.575129 15.537799 -30.000000
    endloop
  endfacet
  facet normal 0.000000 0.000000 1.000000
    outer loop
      vertex 60.000000 35.400000 -30.000000
      vertex 32.847000 28.698523 -30.000000
      vertex 52.242538 17.424014 -30.000000
    endloop
  endfacet
  facet normal 0.000000 0.000000 1.000000
    outer loop
      vertex 60.000000 35.400000 -30.000000
      vertex 52.242538 17.424014 -30.000000
      vertex 53.200195 19.082723 -30.000000
    endloop
  endfacet
  facet normal 0.000000 0.000000 1.000000
    outer loop
      vertex 60.000000 35.400000 -30.000000
      vertex 55.000000 19.737799 -30.000000
      vertex 56.799805 19.082723 -30.000000
    endloop
  endfacet
  facet normal 0.000000 0.000000 1.000000
    outer loop
      vertex 60.000000 35.400000 -30.000000
      vertex 57.757462 17.424014 -30.000000
      vertex 60.000000 0.000000 -30.000000
    endloop
  endfacet
  facet normal 0.000000 0.000000 1.000000
    outer loop
      vertex 60.000000 35.400000 -30.000000
      vertex 56.799805 19.082723 -30.000000
      vertex 57.757462 17.424014 -30.000000
    endloop
  endfacet
  facet normal 0.000000 -0.000000 1.000000
    outer loop
      vertex 57.757462 17.424014 -30.000000
      vertex 57.424871 15.537799 -30.000000
      vertex 60.000000 0.000000 -30.000000
    endloop
  endfacet
  facet normal 0.000000 -0.000000 1.000000
    outer loop
      vertex 55.957656 14.306660 -30.000000
      vertex 54.042344 14.306660 -30.000000
      vertex 60.000000 0.000000 -30.000000
    endloop
  endfacet
  facet normal 0.000000 0.000000 1.000000
    outer loop
      vertex 2.242538 18.186215 -30.000000
      vertex 3.200195 19.844924 -30.000000
      vertex 0.000000 35.400000 -30.000000
    endloop
  endfacet
  facet normal 0.000000 0.000000 1.000000
    outer loop
      vertex 13.797000 17.700000 -30.000000
      vertex 20.147000 28.698523 -30.000000
      vertex 0.000000 35.400000 -30.000000
    endloop
  endfacet
  facet normal 0.000000 0.000000 1.000000
    outer loop
      vertex 20.147000 6.701477 -30.000000
      vertex 7.757462 18.186215 -30.000000
      vertex 7.424871 16.300000 -30.000000
    endloop
  endfacet
  facet normal 0.000000 0.000000 1.000000
    outer loop
      vertex 20.147000 6.701477 -30.000000
      vertex 6.799805 19.844924 -30.000000
      vertex 7.757462 18.186215 -30.000000
    endloop
  endfacet
  facet normal 0.000000 0.000000 1.000000
    outer loop
      vertex 20.147000 6.701477 -30.000000
      vertex 13.797000 17.700000 -30.000000
      vertex 6.799805 19.844924 -30.000000
    endloop
  endfacet
  facet normal 1.000000 0.000000 -0.000000
    outer loop
      vertex 60.000000 0.000000 -30.000000
      vertex 60.000000 0.000000 -45.000000
      vertex 60.000000 35.400000 -45.000000
    endloop
  endfacet
  facet normal 1.000000 0.000000 0.000000
    outer loop
      vertex 60.000000 35.400000 -30.000000
      vertex 60.000000 0.000000 -30.000000
      vertex 60.000000 35.400000 -45.000000
    endloop
  endfacet
  facet normal 0.866025 -0.500000 0.000000
    outer loop
      vertex 3.200195 19.844924 -45.000000
      vertex 3.200195 19.844924 -30.000000
      vertex 2.242538 18.186215 -30.000000
    endloop
  endfacet
  facet normal 0.866025 -0.500000 0.000000
    outer loop
      vertex 2.242538 18.186215 -45.000000
      vertex 3.200195 19.844924 -45.000000
      vertex 2.242538 18.186215 -30.000000
    endloop
  endfacet
  facet normal 0.984808 0.173648 0.000000
    outer loop
      vertex 2.242538 18.186215 -30.000000
      vertex 2.575129 16.300000 -30.000000
      vertex 2.575129 16.300000 -45.000000
    endloop
  endfacet
  facet normal 0.984808 0.173648 0.000000
    outer loop
      vertex 2.242538 18.186215 -45.000000
      vertex 2.242538 18.186215 -30.000000
      vertex 2.575129 16.300000 -45.000000
    endloop
  endfacet
  facet normal 0.342020 -0.939693 0.000000
    outer loop
      vertex 5.000000 20.500000 -45.000000
      vertex 5.000000 20.500000 -30.000000
      vertex 3.200195 19.844924 -30.000000
    endloop
  endfacet
  facet normal 0.342020 -0.939693 0.000000
    outer loop
      vertex 3.200195 19.844924 -45.000000
      vertex 5.000000 20.500000 -45.000000
      vertex 3.200195 19.844924 -30.000000
    endloop
  endfacet
  facet normal -0.342020 -0.939693 -0.000000
    outer loop
      vertex 6.799805 19.844924 -45.000000
      vertex 6.799805 19.844924 -30.000000
      vertex 5.000000 20.500000 -30.000000
    endloop
  endfacet
  facet normal -0.342020 -0.939693 -0.000000
    outer loop
      vertex 5.000000 20.500000 -45.000000
      vertex 6.799805 19.844924 -45.000000
      vertex 5.000000 20.500000 -30.000000
    endloop
  endfacet
  facet normal -0.866025 -0.500000 0.000000
    outer loop
      vertex 7.757462 18.186215 -30.000000
      vertex 6.799805 19.844924 -30.000000
      vertex 7.757462 18.186215 -45.000000
    endloop
  endfacet
  facet normal -0.866025 -0.500000 0.000000
    outer loop
      vertex 7.757462 18.186215 -45.000000
      vertex 6.799805 19.844924 -30.000000
      vertex 6.799805 19.844924 -45.000000
    endloop
  endfacet
  facet normal -0.984808 0.173648 0.000000
    outer loop
      vertex 7.757462 18.186215 -30.000000
      vertex 7.757462 18.186215 -45.000000
      vertex 7.424871 16.300000 -30.000000
    endloop
  endfacet
  facet normal -0.984808 0.173648 0.000000
    outer loop
      vertex 7.424871 16.300000 -30.000000
      vertex 7.757462 18.186215 -45.000000
      vertex 7.424871 16.300000 -45.000000
    endloop
  endfacet
  facet normal -0.642787 0.766045 0.000000
    outer loop
      vertex 7.424871 16.300000 -30.000000
      vertex 7.424871 16.300000 -45.000000
      vertex 5.957656 15.068861 -30.000000
    endloop
  endfacet
  facet normal -0.642787 0.766045 0.000000
    outer loop
      vertex 5.957656 15.068861 -30.000000
      vertex 7.424871 16.300000 -45.000000
      vertex 5.957656 15.068861 -45.000000
    endloop
  endfacet
  facet normal 0.000000 1.000000 0.000000
    outer loop
      vertex 5.957656 15.068861 -30.000000
      vertex 5.957656 15.068861 -45.000000
      vertex 4.042344 15.068861 -30.000000
    endloop
  endfacet
  facet normal 0.000000 1.000000 -0.000000
    outer loop
      vertex 4.042344 15.068861 -30.000000
      vertex 5.957656 15.068861 -45.000000
      vertex 4.042344 15.068861 -45.000000
    endloop
  endfacet
  facet normal 0.642787 0.766045 -0.000000
    outer loop
      vertex 4.042344 15.068861 -30.000000
      vertex 4.042344 15.068861 -45.000000
      vertex 2.575129 16.300000 -30.000000
    endloop
  endfacet
  facet normal 0.642787 0.766045 -0.000000
    outer loop
      vertex 2.575129 16.300000 -30.000000
      vertex 4.042344 15.068861 -45.000000
      vertex 2.575129 16.300000 -45.000000
    endloop
  endfacet
  facet normal 0.997204 0.074730 0.000000
    outer loop
      vertex 20.015175 18.185746 -37.000000
      vertex 20.159969 16.253614 -37.000000
      vertex 20.159969 16.253614 -45.000000
    endloop
  endfacet
  facet normal 0.997204 0.074730 0.000000
    outer loop
      vertex 20.015175 18.185746 -45.000000
      vertex 20.015175 18.185746 -37.000000
      vertex 20.159969 16.253614 -45.000000
    endloop
  endfacet
  facet normal 0.974928 -0.222521 0.000000
    outer loop
      vertex 20.446321 20.074717 -45.000000
      vertex 20.446321 20.074717 -37.000000
      vertex 20.015175 18.185746 -37.000000
    endloop
  endfacet
  facet normal 0.974928 -0.222521 0.000000
    outer loop
      vertex 20.015175 18.185746 -45.000000
      vertex 20.446321 20.074717 -45.000000
      vertex 20.015175 18.185746 -37.000000
    endloop
  endfacet
  facet normal 0.866026 -0.500000 0.000000
    outer loop
      vertex 21.415095 21.752684 -45.000000
      vertex 21.415095 21.752684 -37.000000
      vertex 20.446321 20.074717 -37.000000
    endloop
  endfacet
  facet normal 0.866026 -0.500000 0.000000
    outer loop
      vertex 20.446321 20.074717 -45.000000
      vertex 21.415095 21.752684 -45.000000
      vertex 20.446321 20.074717 -37.000000
    endloop
  endfacet
  facet normal 0.680172 -0.733052 0.000000
    outer loop
      vertex 22.835420 23.070552 -45.000000
      vertex 22.835420 23.070552 -37.000000
      vertex 21.415095 21.752684 -37.000000
    endloop
  endfacet
  facet normal 0.680172 -0.733052 0.000000
    outer loop
      vertex 21.415095 21.752684 -45.000000
      vertex 22.835420 23.070552 -45.000000
      vertex 21.415095 21.752684 -37.000000
    endloop
  endfacet
  facet normal 0.433884 -0.900969 0.000000
    outer loop
      vertex 24.581091 23.911223 -45.000000
      vertex 24.581091 23.911223 -37.000000
      vertex 22.835420 23.070552 -37.000000
    endloop
  endfacet
  facet normal 0.433884 -0.900969 0.000000
    outer loop
      vertex 22.835420 23.070552 -45.000000
      vertex 24.581091 23.911223 -45.000000
      vertex 22.835420 23.070552 -37.000000
    endloop
  endfacet
  facet normal 0.149042 -0.988831 0.000000
    outer loop
      vertex 26.497000 24.200000 -45.000000
      vertex 26.497000 24.200000 -37.000000
      vertex 24.581091 23.911223 -37.000000
    endloop
  endfacet
  facet normal 0.149042 -0.988831 0.000000
    outer loop
      vertex 24.581091 23.911223 -45.000000
      vertex 26.497000 24.200000 -45.000000
      vertex 24.581091 23.911223 -37.000000
    endloop
  endfacet
  facet normal -0.149042 -0.988831 -0.000000
    outer loop
      vertex 28.412909 23.911223 -45.000000
      vertex 28.412909 23.911223 -37.000000
      vertex 26.497000 24.200000 -37.000000
    endloop
  endfacet
  facet normal -0.149042 -0.988831 -0.000000
    outer loop
      vertex 26.497000 24.200000 -45.000000
      vertex 28.412909 23.911223 -45.000000
      vertex 26.497000 24.200000 -37.000000
    endloop
  endfacet
  facet normal -0.433884 -0.900969 -0.000000
    outer loop
      vertex 30.158580 23.070552 -45.000000
      vertex 30.158580 23.070552 -37.000000
      vertex 28.412909 23.911223 -37.000000
    endloop
  endfacet
  facet normal -0.433884 -0.900969 -0.000000
    outer loop
      vertex 28.412909 23.911223 -45.000000
      vertex 30.158580 23.070552 -45.000000
      vertex 28.412909 23.911223 -37.000000
    endloop
  endfacet
  facet normal -0.680172 -0.733052 -0.000000
    outer loop
      vertex 31.578905 21.752684 -45.000000
      vertex 31.578905 21.752684 -37.000000
      vertex 30.158580 23.070552 -37.000000
    endloop
  endfacet
  facet normal -0.680172 -0.733052 -0.000000
    outer loop
      vertex 30.158580 23.070552 -45.000000
      vertex 31.578905 21.752684 -45.000000
      vertex 30.158580 23.070552 -37.000000
    endloop
  endfacet
  facet normal -0.866026 -0.500000 0.000000
    outer loop
      vertex 32.547679 20.074717 -37.000000
      vertex 31.578905 21.752684 -37.000000
      vertex 32.547679 20.074717 -45.000000
    endloop
  endfacet
  facet normal -0.866026 -0.500000 0.000000
    outer loop
      vertex 32.547679 20.074717 -45.000000
      vertex 31.578905 21.752684 -37.000000
      vertex 31.578905 21.752684 -45.000000
    endloop
  endfacet
  facet normal -0.974928 -0.222521 0.000000
    outer loop
      vertex 32.978825 18.185746 -37.000000
      vertex 32.547679 20.074717 -37.000000
      vertex 32.978825 18.185746 -45.000000
    endloop
  endfacet
  facet normal -0.974928 -0.222521 0.000000
    outer loop
      vertex 32.978825 18.185746 -45.000000
      vertex 32.547679 20.074717 -37.000000
      vertex 32.547679 20.074717 -45.000000
    endloop
  endfacet
  facet normal -0.997204 0.074730 0.000000
    outer loop
      vertex 32.978825 18.185746 -37.000000
      vertex 32.978825 18.185746 -45.000000
      vertex 32.834031 16.253614 -37.000000
    endloop
  endfacet
  facet normal -0.997204 0.074730 0.000000
    outer loop
      vertex 32.834031 16.253614 -37.000000
      vertex 32.978825 18.185746 -45.000000
      vertex 32.834031 16.253614 -45.000000
    endloop
  endfacet
  facet normal -0.930874 0.365341 0.000000
    outer loop
      vertex 32.834031 16.253614 -37.000000
      vertex 32.834031 16.253614 -45.000000
      vertex 32.126165 14.450000 -37.000000
    endloop
  endfacet
  facet normal -0.930874 0.365341 0.000000
    outer loop
      vertex 32.126165 14.450000 -37.000000
      vertex 32.834031 16.253614 -45.000000
      vertex 32.126165 14.450000 -45.000000
    endloop
  endfacet
  facet normal -0.781832 0.623490 0.000000
    outer loop
      vertex 32.126165 14.450000 -37.000000
      vertex 32.126165 14.450000 -45.000000
      vertex 30.918123 12.935163 -37.000000
    endloop
  endfacet
  facet normal -0.781832 0.623490 0.000000
    outer loop
      vertex 30.918123 12.935163 -37.000000
      vertex 32.126165 14.450000 -45.000000
      vertex 30.918123 12.935163 -45.000000
    endloop
  endfacet
  facet normal -0.563320 0.826239 0.000000
    outer loop
      vertex 30.918123 12.935163 -37.000000
      vertex 30.918123 12.935163 -45.000000
      vertex 29.317244 11.843702 -37.000000
    endloop
  endfacet
  facet normal -0.563320 0.826239 0.000000
    outer loop
      vertex 29.317244 11.843702 -37.000000
      vertex 30.918123 12.935163 -45.000000
      vertex 29.317244 11.843702 -45.000000
    endloop
  endfacet
  facet normal -0.294755 0.955573 0.000000
    outer loop
      vertex 29.317244 11.843702 -37.000000
      vertex 29.317244 11.843702 -45.000000
      vertex 27.465775 11.272600 -37.000000
    endloop
  endfacet
  facet normal -0.294755 0.955573 0.000000
    outer loop
      vertex 27.465775 11.272600 -37.000000
      vertex 29.317244 11.843702 -45.000000
      vertex 27.465775 11.272600 -45.000000
    endloop
  endfacet
  facet normal 0.000000 1.000000 0.000000
    outer loop
      vertex 27.465775 11.272600 -37.000000
      vertex 27.465775 11.272600 -45.000000
      vertex 25.528225 11.272600 -37.000000
    endloop
  endfacet
  facet normal 0.000000 1.000000 -0.000000
    outer loop
      vertex 25.528225 11.272600 -37.000000
      vertex 27.465775 11.272600 -45.000000
      vertex 25.528225 11.272600 -45.000000
    endloop
  endfacet
  facet normal 0.294755 0.955573 -0.000000
    outer loop
      vertex 25.528225 11.272600 -37.000000
      vertex 25.528225 11.272600 -45.000000
      vertex 23.676756 11.843702 -37.000000
    endloop
  endfacet
  facet normal 0.294755 0.955573 -0.000000
    outer loop
      vertex 23.676756 11.843702 -37.000000
      vertex 25.528225 11.272600 -45.000000
      vertex 23.676756 11.843702 -45.000000
    endloop
  endfacet
  facet normal 0.563320 0.826239 -0.000000
    outer loop
      vertex 23.676756 11.843702 -37.000000
      vertex 23.676756 11.843702 -45.000000
      vertex 22.075877 12.935163 -37.000000
    endloop
  endfacet
  facet normal 0.563320 0.826239 -0.000000
    outer loop
      vertex 22.075877 12.935163 -37.000000
      vertex 23.676756 11.843702 -45.000000
      vertex 22.075877 12.935163 -45.000000
    endloop
  endfacet
  facet normal 0.781832 0.623490 0.000000
    outer loop
      vertex 20.867835 14.450000 -37.000000
      vertex 22.075877 12.935163 -37.000000
      vertex 22.075877 12.935163 -45.000000
    endloop
  endfacet
  facet normal 0.781832 0.623490 0.000000
    outer loop
      vertex 20.867835 14.450000 -45.000000
      vertex 20.867835 14.450000 -37.000000
      vertex 22.075877 12.935163 -45.000000
    endloop
  endfacet
  facet normal 0.930874 0.365341 0.000000
    outer loop
      vertex 20.159969 16.253614 -37.000000
      vertex 20.867835 14.450000 -37.000000
      vertex 20.867835 14.450000 -45.000000
    endloop
  endfacet
  facet normal 0.930874 0.365341 0.000000
    outer loop
      vertex 20.159969 16.253614 -45.000000
      vertex 20.159969 16.253614 -37.000000
      vertex 20.867835 14.450000 -45.000000
    endloop
  endfacet
  facet normal 0.984808 0.173648 0.000000
    outer loop
      vertex 52.242538 17.424014 -30.000000
      vertex 52.575129 15.537799 -30.000000
      vertex 52.575129 15.537799 -45.000000
    endloop
  endfacet
  facet normal 0.984808 0.173648 0.000000
    outer loop
      vertex 52.242538 17.424014 -45.000000
      vertex 52.242538 17.424014 -30.000000
      vertex 52.575129 15.537799 -45.000000
    endloop
  endfacet
  facet normal 0.866025 -0.500000 0.000000
    outer loop
      vertex 53.200195 19.082723 -45.000000
      vertex 53.200195 19.082723 -30.000000
      vertex 52.242538 17.424014 -30.000000
    endloop
  endfacet
  facet normal 0.866025 -0.500000 0.000000
    outer loop
      vertex 52.242538 17.424014 -45.000000
      vertex 53.200195 19.082723 -45.000000
      vertex 52.242538 17.424014 -30.000000
    endloop
  endfacet
  facet normal 0.342020 -0.939693 0.000000
    outer loop
      vertex 55.000000 19.737799 -45.000000
      vertex 55.000000 19.737799 -30.000000
      vertex 53.200195 19.082723 -30.000000
    endloop
  endfacet
  facet normal 0.342020 -0.939693 0.000000
    outer loop
      vertex 53.200195 19.082723 -45.000000
      vertex 55.000000 19.737799 -45.000000
      vertex 53.200195 19.082723 -30.000000
    endloop
  endfacet
  facet normal -0.342020 -0.939693 -0.000000
    outer loop
      vertex 56.799805 19.082723 -45.000000
      vertex 56.799805 19.082723 -30.000000
      vertex 55.000000 19.737799 -30.000000
    endloop
  endfacet
  facet normal -0.342020 -0.939693 -0.000000
    outer loop
      vertex 55.000000 19.737799 -45.000000
      vertex 56.799805 19.082723 -45.000000
      vertex 55.000000 19.737799 -30.000000
    endloop
  endfacet
  facet normal -0.866025 -0.500000 0.000000
    outer loop
      vertex 57.757462 17.424014 -30.000000
      vertex 56.799805 19.082723 -30.000000
      vertex 57.757462 17.424014 -45.000000
    endloop
  endfacet
  facet normal -0.866025 -0.500000 0.000000
    outer loop
      vertex 57.757462 17.424014 -45.000000
      vertex 56.799805 19.082723 -30.000000
      vertex 56.799805 19.082723 -45.000000
    endloop
  endfacet
  facet normal -0.984808 0.173648 0.000000
    outer loop
      vertex 57.757462 17.424014 -30.000000
      vertex 57.757462 17.424014 -45.000000
      vertex 57.424871 15.537799 -30.000000
    endloop
  endfacet
  facet normal -0.984808 0.173648 0.000000
    outer loop
      vertex 57.424871 15.537799 -30.000000
      vertex 57.757462 17.424014 -45.000000
      vertex 57.424871 15.537799 -45.000000
    endloop
  endfacet
  facet normal -0.642787 0.766045 0.000000
    outer loop
      vertex 57.424871 15.537799 -30.000000
      vertex 57.424871 15.537799 -45.000000
      vertex 55.957656 14.306660 -30.000000
    endloop
  endfacet
  facet normal -0.642787 0.766045 0.000000
    outer loop
      vertex 55.957656 14.306660 -30.000000
      vertex 57.424871 15.537799 -45.000000
      vertex 55.957656 14.306660 -45.000000
    endloop
  endfacet
  facet normal 0.000000 1.000000 0.000000
    outer loop
      vertex 55.957656 14.306660 -30.000000
      vertex 55.957656 14.306660 -45.000000
      vertex 54.042344 14.306660 -30.000000
    endloop
  endfacet
  facet normal 0.000000 1.000000 -0.000000
    outer loop
      vertex 54.042344 14.306660 -30.000000
      vertex 55.957656 14.306660 -45.000000
      vertex 54.042344 14.306660 -45.000000
    endloop
  endfacet
  facet normal 0.642787 0.766045 -0.000000
    outer loop
      vertex 54.042344 14.306660 -30.000000
      vertex 54.042344 14.306660 -45.000000
      vertex 52.575129 15.537799 -30.000000
    endloop
  endfacet
  facet normal 0.642787 0.766045 -0.000000
    outer loop
      vertex 52.575129 15.537799 -30.000000
      vertex 54.042344 14.306660 -45.000000
      vertex 52.575129 15.537799 -45.000000
    endloop
  endfacet
  facet normal 0.866025 0.500000 -0.000000
    outer loop
      vertex 20.147000 6.701477 -30.000000
      vertex 20.147000 6.701477 -37.000000
      vertex 13.797000 17.700000 -37.000000
    endloop
  endfacet
  facet normal 0.866025 0.500000 0.000000
    outer loop
      vertex 13.797000 17.700000 -30.000000
      vertex 20.147000 6.701477 -30.000000
      vertex 13.797000 17.700000 -37.000000
    endloop
  endfacet
  facet normal 0.000000 1.000000 0.000000
    outer loop
      vertex 32.847000 6.701477 -37.000000
      vertex 20.147000 6.701477 -37.000000
      vertex 32.847000 6.701477 -30.000000
    endloop
  endfacet
  facet normal 0.000000 1.000000 0.000000
    outer loop
      vertex 32.847000 6.701477 -30.000000
      vertex 20.147000 6.701477 -37.000000
      vertex 20.147000 6.701477 -30.000000
    endloop
  endfacet
  facet normal -0.866025 0.500000 0.000000
    outer loop
      vertex 39.197000 17.700000 -37.000000
      vertex 32.847000 6.701477 -37.000000
      vertex 39.197000 17.700000 -30.000000
    endloop
  endfacet
  facet normal -0.866025 0.500000 0.000000
    outer loop
      vertex 39.197000 17.700000 -30.000000
      vertex 32.847000 6.701477 -37.000000
      vertex 32.847000 6.701477 -30.000000
    endloop
  endfacet
  facet normal -0.866025 -0.500000 -0.000000
    outer loop
      vertex 39.197000 17.700000 -37.000000
      vertex 39.197000 17.700000 -30.000000
      vertex 32.847000 28.698523 -37.000000
    endloop
  endfacet
  facet normal -0.866025 -0.500000 -0.000000
    outer loop
      vertex 32.847000 28.698523 -37.000000
      vertex 39.197000 17.700000 -30.000000
      vertex 32.847000 28.698523 -30.000000
    endloop
  endfacet
  facet normal -0.000000 -1.000000 0.000000
    outer loop
      vertex 20.147000 28.698523 -37.000000
      vertex 32.847000 28.698523 -37.000000
      vertex 32.847000 28.698523 -30.000000
    endloop
  endfacet
  facet normal -0.000000 -1.000000 0.000000
    outer loop
      vertex 20.147000 28.698523 -30.000000
      vertex 20.147000 28.698523 -37.000000
      vertex 32.847000 28.698523 -30.000000
    endloop
  endfacet
  facet normal 0.866025 -0.500000 0.000000
    outer loop
      vertex 13.797000 17.700000 -37.000000
      vertex 20.147000 28.698523 -37.000000
      vertex 20.147000 28.698523 -30.000000
    endloop
  endfacet
  facet normal 0.866025 -0.500000 0.000000
    outer loop
      vertex 13.797000 17.700000 -30.000000
      vertex 13.797000 17.700000 -37.000000
      vertex 20.147000 28.698523 -30.000000
    endloop
  endfacet
  facet normal 0.000000 0.000000 1.000000
    outer loop
      vertex 29.317244 11.843702 -37.000000
      vertex 32.847000 6.701477 -37.000000
      vertex 39.197000 17.700000 -37.000000
    endloop
  endfacet
  facet normal 0.000000 -0.000000 1.000000
    outer loop
      vertex 30.918123 12.935163 -37.000000
      vertex 29.317244 11.843702 -37.000000
      vertex 39.197000 17.700000 -37.000000
    endloop
  endfacet
  facet normal 0.000000 0.000000 1.000000
    outer loop
      vertex 29.317244 11.843702 -37.000000
      vertex 27.465775 11.272600 -37.000000
      vertex 20.147000 6.701477 -37.000000
    endloop
  endfacet
  facet normal 0.000000 0.000000 1.000000
    outer loop
      vertex 13.797000 17.700000 -37.000000
      vertex 20.015175 18.185746 -37.000000
      vertex 20.147000 28.698523 -37.000000
    endloop
  endfacet
  facet normal 0.000000 0.000000 1.000000
    outer loop
      vertex 13.797000 17.700000 -37.000000
      vertex 20.147000 6.701477 -37.000000
      vertex 20.015175 18.185746 -37.000000
    endloop
  endfacet
  facet normal 0.000000 0.000000 1.000000
    outer loop
      vertex 28.412909 23.911223 -37.000000
      vertex 30.158580 23.070552 -37.000000
      vertex 32.847000 28.698523 -37.000000
    endloop
  endfacet
  facet normal 0.000000 0.000000 1.000000
    outer loop
      vertex 27.465775 11.272600 -37.000000
      vertex 25.528225 11.272600 -37.000000
      vertex 20.147000 6.701477 -37.000000
    endloop
  endfacet
  facet normal 0.000000 0.000000 1.000000
    outer loop
      vertex 20.147000 28.698523 -37.000000
      vertex 20.446321 20.074717 -37.000000
      vertex 21.415095 21.752684 -37.000000
    endloop
  endfacet
  facet normal 0.000000 0.000000 1.000000
    outer loop
      vertex 20.147000 28.698523 -37.000000
      vertex 22.835420 23.070552 -37.000000
      vertex 32.847000 28.698523 -37.000000
    endloop
  endfacet
  facet normal 0.000000 0.000000 1.000000
    outer loop
      vertex 20.147000 28.698523 -37.000000
      vertex 21.415095 21.752684 -37.000000
      vertex 22.835420 23.070552 -37.000000
    endloop
  endfacet
  facet normal 0.000000 0.000000 1.000000
    outer loop
      vertex 22.835420 23.070552 -37.000000
      vertex 24.581091 23.911223 -37.000000
      vertex 32.847000 28.698523 -37.000000
    endloop
  endfacet
  facet normal 0.000000 0.000000 1.000000
    outer loop
      vertex 26.497000 24.200000 -37.000000
      vertex 28.412909 23.911223 -37.000000
      vertex 32.847000 28.698523 -37.000000
    endloop
  endfacet
  facet normal -0.000000 0.000000 1.000000
    outer loop
      vertex 20.867835 14.450000 -37.000000
      vertex 20.159969 16.253614 -37.000000
      vertex 20.147000 6.701477 -37.000000
    endloop
  endfacet
  facet normal 0.000000 -0.000000 1.000000
    outer loop
      vertex 32.847000 28.698523 -37.000000
      vertex 30.158580 23.070552 -37.000000
      vertex 39.197000 17.700000 -37.000000
    endloop
  endfacet
  facet normal 0.000000 0.000000 1.000000
    outer loop
      vertex 30.158580 23.070552 -37.000000
      vertex 31.578905 21.752684 -37.000000
      vertex 39.197000 17.700000 -37.000000
    endloop
  endfacet
  facet normal 0.000000 0.000000 1.000000
    outer loop
      vertex 31.578905 21.752684 -37.000000
      vertex 32.547679 20.074717 -37.000000
      vertex 39.197000 17.700000 -37.000000
    endloop
  endfacet
  facet normal 0.000000 0.000000 1.000000
    outer loop
      vertex 32.547679 20.074717 -37.000000
      vertex 32.978825 18.185746 -37.000000
      vertex 39.197000 17.700000 -37.000000
    endloop
  endfacet
  facet normal 0.000000 -0.000000 1.000000
    outer loop
      vertex 32.978825 18.185746 -37.000000
      vertex 32.834031 16.253614 -37.000000
      vertex 39.197000 17.700000 -37.000000
    endloop
  endfacet
  facet normal 0.000000 -0.000000 1.000000
    outer loop
      vertex 32.834031 16.253614 -37.000000
      vertex 32.126165 14.450000 -37.000000
      vertex 39.197000 17.700000 -37.000000
    endloop
  endfacet
  facet normal 0.000000 -0.000000 1.000000
    outer loop
      vertex 32.126165 14.450000 -37.000000
      vertex 30.918123 12.935163 -37.000000
      vertex 39.197000 17.700000 -37.000000
    endloop
  endfacet
  facet normal 0.000000 0.000000 1.000000
    outer loop
      vertex 20.147000 6.701477 -37.000000
      vertex 32.847000 6.701477 -37.000000
      vertex 29.317244 11.843702 -37.000000
    endloop
  endfacet
  facet normal -0.000000 0.000000 1.000000
    outer loop
      vertex 23.676756 11.843702 -37.000000
      vertex 22.075877 12.935163 -37.000000
      vertex 20.147000 6.701477 -37.000000
    endloop
  endfacet
  facet normal 0.000000 -0.000000 1.000000
    outer loop
      vertex 20.867835 14.450000 -37.000000
      vertex 20.147000 6.701477 -37.000000
      vertex 22.075877 12.935163 -37.000000
    endloop
  endfacet
  facet normal 0.000000 0.000000 1.000000
    outer loop
      vertex 20.015175 18.185746 -37.000000
      vertex 20.446321 20.074717 -37.000000
      vertex 20.147000 28.698523 -37.000000
    endloop
  endfacet
  facet normal -0.000000 0.000000 1.000000
    outer loop
      vertex 20.159969 16.253614 -37.000000
      vertex 20.015175 18.185746 -37.000000
      vertex 20.147000 6.701477 -37.000000
    endloop
  endfacet
  facet normal 0.000000 0.000000 1.000000
    outer loop
      vertex 24.581091 23.911223 -37.000000
      vertex 26.497000 24.200000 -37.000000
      vertex 32.847000 28.698523 -37.000000
    endloop
  endfacet
  facet normal -0.000000 0.000000 1.000000
    outer loop
      vertex 25.528225 11.272600 -37.000000
      vertex 23.676756 11.843702 -37.000000
      vertex 20.147000 6.701477 -37.000000
    endloop
  endfacet
endsolid
