solid
  facet normal -1.000000 0.000000 -0.000000
    outer loop
      vertex 12.497000 -6.440959 50.457519
      vertex 12.497000 -35.400000 55.000000
      vertex 12.497000 -5.500000 51.398478
    endloop
  endfacet
  facet normal -1.000000 0.000000 0.000000
    outer loop
      vertex 12.497000 -6.457656 45.368861
      vertex 12.497000 0.000000 45.000000
      vertex 12.497000 -35.400000 45.000000
    endloop
  endfacet
  facet normal -1.000000 0.000000 0.000000
    outer loop
      vertex 12.497000 0.000000 55.000000
      vertex 12.497000 0.000000 45.000000
      vertex 12.497000 -3.075129 46.600000
    endloop
  endfacet
  facet normal -1.000000 0.000000 0.000000
    outer loop
      vertex 12.497000 -28.942344 45.368861
      vertex 12.497000 -35.400000 45.000000
      vertex 12.497000 -30.857656 45.368861
    endloop
  endfacet
  facet normal -1.000000 0.000000 0.000000
    outer loop
      vertex 12.497000 0.000000 55.000000
      vertex 12.497000 -3.075129 46.600000
      vertex 12.497000 -2.742538 48.486215
    endloop
  endfacet
  facet normal -1.000000 0.000000 0.000000
    outer loop
      vertex 12.497000 0.000000 55.000000
      vertex 12.497000 -2.742538 48.486215
      vertex 12.497000 -3.700195 50.144924
    endloop
  endfacet
  facet normal -1.000000 0.000000 0.000000
    outer loop
      vertex 12.497000 0.000000 55.000000
      vertex 12.497000 -3.700195 50.144924
      vertex 12.497000 -4.559041 50.457519
    endloop
  endfacet
  facet normal -1.000000 0.000000 0.000000
    outer loop
      vertex 12.497000 0.000000 55.000000
      vertex 12.497000 -4.559041 50.457519
      vertex 12.497000 -5.500000 51.398478
    endloop
  endfacet
  facet normal -1.000000 0.000000 0.000000
    outer loop
      vertex 12.497000 0.000000 55.000000
      vertex 12.497000 -5.500000 51.398478
      vertex 12.497000 -35.400000 55.000000
    endloop
  endfacet
  facet normal -1.000000 0.000000 -0.000000
    outer loop
      vertex 12.497000 -8.257462 48.486215
      vertex 12.497000 -35.400000 55.000000
      vertex 12.497000 -7.299805 50.144924
    endloop
  endfacet
  facet normal -1.000000 0.000000 0.000000
    outer loop
      vertex 12.497000 -6.440959 50.457519
      vertex 12.497000 -7.299805 50.144924
      vertex 12.497000 -35.400000 55.000000
    endloop
  endfacet
  facet normal -1.000000 0.000000 0.000000
    outer loop
      vertex 12.497000 -7.924871 46.600000
      vertex 12.497000 -35.400000 55.000000
      vertex 12.497000 -8.257462 48.486215
    endloop
  endfacet
  facet normal -1.000000 0.000000 0.000000
    outer loop
      vertex 12.497000 -4.542344 45.368861
      vertex 12.497000 0.000000 45.000000
      vertex 12.497000 -6.457656 45.368861
    endloop
  endfacet
  facet normal -1.000000 0.000000 0.000000
    outer loop
      vertex 12.497000 -28.942344 45.368861
      vertex 12.497000 -6.457656 45.368861
      vertex 12.497000 -35.400000 45.000000
    endloop
  endfacet
  facet normal -1.000000 0.000000 0.000000
    outer loop
      vertex 12.497000 -27.142538 48.486215
      vertex 12.497000 -7.924871 46.600000
      vertex 12.497000 -27.475129 46.600000
    endloop
  endfacet
  facet normal -1.000000 0.000000 0.000000
    outer loop
      vertex 12.497000 -28.100195 50.144924
      vertex 12.497000 -7.924871 46.600000
      vertex 12.497000 -27.142538 48.486215
    endloop
  endfacet
  facet normal -1.000000 0.000000 0.000000
    outer loop
      vertex 12.497000 -29.900000 51.398478
      vertex 12.497000 -7.924871 46.600000
      vertex 12.497000 -28.100195 50.144924
    endloop
  endfacet
  facet normal -1.000000 0.000000 0.000000
    outer loop
      vertex 12.497000 -35.400000 55.000000
      vertex 12.497000 -7.924871 46.600000
      vertex 12.497000 -29.900000 51.398478
    endloop
  endfacet
  facet normal -1.000000 0.000000 -0.000000
    outer loop
      vertex 12.497000 -30.840959 50.457519
      vertex 12.497000 -35.400000 55.000000
      vertex 12.497000 -29.900000 51.398478
    endloop
  endfacet
  facet normal -1.000000 0.000000 -0.000000
    outer loop
      vertex 12.497000 -31.699805 50.144924
      vertex 12.497000 -35.400000 55.000000
      vertex 12.497000 -30.840959 50.457519
    endloop
  endfacet
  facet normal -1.000000 0.000000 0.000000
    outer loop
      vertex 12.497000 -30.857656 45.368861
      vertex 12.497000 -35.400000 45.000000
      vertex 12.497000 -32.324871 46.600000
    endloop
  endfacet
  facet normal -1.000000 0.000000 0.000000
    outer loop
      vertex 12.497000 -35.400000 55.000000
      vertex 12.497000 -31.699805 50.144924
      vertex 12.497000 -35.400000 45.000000
    endloop
  endfacet
  facet normal -1.000000 0.000000 0.000000
    outer loop
      vertex 12.497000 -31.699805 50.144924
      vertex 12.497000 -32.657462 48.486215
      vertex 12.497000 -35.400000 45.000000
    endloop
  endfacet
  facet normal -1.000000 0.000000 0.000000
    outer loop
      vertex 12.497000 -32.657462 48.486215
      vertex 12.497000 -32.324871 46.600000
      vertex 12.497000 -35.400000 45.000000
    endloop
  endfacet
  facet normal -1.000000 0.000000 0.000000
    outer loop
      vertex 12.497000 -29.900000 51.398478
      vertex 12.497000 -28.100195 50.144924
      vertex 12.497000 -28.959041 50.457519
    endloop
  endfacet
  facet normal -1.000000 0.000000 0.000000
    outer loop
      vertex 12.497000 -7.924871 46.600000
      vertex 12.497000 -6.457656 45.368861
      vertex 12.497000 -28.942344 45.368861
    endloop
  endfacet
  facet normal -1.000000 0.000000 0.000000
    outer loop
      vertex 12.497000 -3.075129 46.600000
      vertex 12.497000 0.000000 45.000000
      vertex 12.497000 -4.542344 45.368861
    endloop
  endfacet
  facet normal -1.000000 0.000000 0.000000
    outer loop
      vertex 12.497000 -27.475129 46.600000
      vertex 12.497000 -7.924871 46.600000
      vertex 12.497000 -28.942344 45.368861
    endloop
  endfacet
  facet normal 0.000000 1.000000 -0.000000
    outer loop
      vertex 12.497000 0.000000 55.000000
      vertex 24.497000 0.000000 55.000000
      vertex 12.497000 0.000000 45.000000
    endloop
  endfacet
  facet normal 0.000000 1.000000 -0.000000
    outer loop
      vertex 12.497000 0.000000 45.000000
      vertex 24.497000 0.000000 55.000000
      vertex 24.497000 0.000000 45.000000
    endloop
  endfacet
  facet normal -0.000000 0.000000 1.000000
    outer loop
      vertex 17.350931 -18.694695 55.000000
      vertex 12.497000 0.000000 55.000000
      vertex 12.497000 -35.400000 55.000000
    endloop
  endfacet
  facet normal 0.000000 0.000000 1.000000
    outer loop
      vertex 18.613914 -12.956905 55.000000
      vertex 19.817841 -11.373165 55.000000
      vertex 24.497000 0.000000 55.000000
    endloop
  endfacet
  facet normal -0.000000 0.000000 1.000000
    outer loop
      vertex 24.497000 -35.400000 55.000000
      vertex 24.497000 -26.636757 55.000000
      vertex 12.497000 -35.400000 55.000000
    endloop
  endfacet
  facet normal -0.000000 0.000000 1.000000
    outer loop
      vertex 24.497000 -26.636757 55.000000
      vertex 23.091729 -26.246586 55.000000
      vertex 12.497000 -35.400000 55.000000
    endloop
  endfacet
  facet normal -0.000000 0.000000 1.000000
    outer loop
      vertex 23.091729 -26.246586 55.000000
      vertex 21.334079 -25.314739 55.000000
      vertex 12.497000 -35.400000 55.000000
    endloop
  endfacet
  facet normal -0.000000 0.000000 1.000000
    outer loop
      vertex 21.334079 -25.314739 55.000000
      vertex 19.817841 -24.026835 55.000000
      vertex 12.497000 -35.400000 55.000000
    endloop
  endfacet
  facet normal -0.000000 0.000000 1.000000
    outer loop
      vertex 19.817841 -24.026835 55.000000
      vertex 18.613914 -22.443095 55.000000
      vertex 12.497000 -35.400000 55.000000
    endloop
  endfacet
  facet normal -0.000000 0.000000 1.000000
    outer loop
      vertex 18.613914 -22.443095 55.000000
      vertex 17.778591 -20.637574 55.000000
      vertex 12.497000 -35.400000 55.000000
    endloop
  endfacet
  facet normal -0.000000 0.000000 1.000000
    outer loop
      vertex 17.350931 -16.705305 55.000000
      vertex 12.497000 0.000000 55.000000
      vertex 17.350931 -18.694695 55.000000
    endloop
  endfacet
  facet normal -0.000000 0.000000 1.000000
    outer loop
      vertex 17.778591 -14.762426 55.000000
      vertex 12.497000 0.000000 55.000000
      vertex 17.350931 -16.705305 55.000000
    endloop
  endfacet
  facet normal 0.000000 0.000000 1.000000
    outer loop
      vertex 24.497000 0.000000 55.000000
      vertex 12.497000 0.000000 55.000000
      vertex 17.778591 -14.762426 55.000000
    endloop
  endfacet
  facet normal 0.000000 0.000000 1.000000
    outer loop
      vertex 24.497000 0.000000 55.000000
      vertex 17.778591 -14.762426 55.000000
      vertex 18.613914 -12.956905 55.000000
    endloop
  endfacet
  facet normal 0.000000 0.000000 1.000000
    outer loop
      vertex 21.334079 -10.085261 55.000000
      vertex 23.091729 -9.153414 55.000000
      vertex 24.497000 0.000000 55.000000
    endloop
  endfacet
  facet normal 0.000000 0.000000 1.000000
    outer loop
      vertex 23.091729 -9.153414 55.000000
      vertex 24.497000 -8.763243 55.000000
      vertex 24.497000 0.000000 55.000000
    endloop
  endfacet
  facet normal -0.000000 0.000000 1.000000
    outer loop
      vertex 17.778591 -20.637574 55.000000
      vertex 17.350931 -18.694695 55.000000
      vertex 12.497000 -35.400000 55.000000
    endloop
  endfacet
  facet normal 0.000000 0.000000 1.000000
    outer loop
      vertex 19.817841 -11.373165 55.000000
      vertex 21.334079 -10.085261 55.000000
      vertex 24.497000 0.000000 55.000000
    endloop
  endfacet
  facet normal 0.000000 -1.000000 0.000000
    outer loop
      vertex 24.497000 -35.400000 55.000000
      vertex 12.497000 -35.400000 55.000000
      vertex 12.497000 -35.400000 45.000000
    endloop
  endfacet
  facet normal 0.000000 -1.000000 0.000000
    outer loop
      vertex 24.497000 -35.400000 45.000000
      vertex 24.497000 -35.400000 55.000000
      vertex 12.497000 -35.400000 45.000000
    endloop
  endfacet
  facet normal 0.000000 0.000000 -1.000000
    outer loop
      vertex 17.350931 -18.694695 45.000000
      vertex 12.497000 -35.400000 45.000000
      vertex 17.350931 -16.705305 45.000000
    endloop
  endfacet
  facet normal 0.000000 0.000000 -1.000000
    outer loop
      vertex 23.091729 -9.153414 45.000000
      vertex 24.497000 0.000000 45.000000
      vertex 24.497000 -8.763243 45.000000
    endloop
  endfacet
  facet normal 0.000000 0.000000 -1.000000
    outer loop
      vertex 21.334079 -10.085261 45.000000
      vertex 24.497000 0.000000 45.000000
      vertex 23.091729 -9.153414 45.000000
    endloop
  endfacet
  facet normal 0.000000 0.000000 -1.000000
    outer loop
      vertex 12.497000 0.000000 45.000000
      vertex 24.497000 0.000000 45.000000
      vertex 19.817841 -11.373165 45.000000
    endloop
  endfacet
  facet normal 0.000000 0.000000 -1.000000
    outer loop
      vertex 12.497000 0.000000 45.000000
      vertex 19.817841 -11.373165 45.000000
      vertex 18.613914 -12.956905 45.000000
    endloop
  endfacet
  facet normal 0.000000 0.000000 -1.000000
    outer loop
      vertex 12.497000 0.000000 45.000000
      vertex 18.613914 -12.956905 45.000000
      vertex 17.778591 -14.762426 45.000000
    endloop
  endfacet
  facet normal 0.000000 0.000000 -1.000000
    outer loop
      vertex 12.497000 0.000000 45.000000
      vertex 17.778591 -14.762426 45.000000
      vertex 12.497000 -35.400000 45.000000
    endloop
  endfacet
  facet normal 0.000000 0.000000 -1.000000
    outer loop
      vertex 17.778591 -14.762426 45.000000
      vertex 17.350931 -16.705305 45.000000
      vertex 12.497000 -35.400000 45.000000
    endloop
  endfacet
  facet normal 0.000000 0.000000 -1.000000
    outer loop
      vertex 17.778591 -20.637574 45.000000
      vertex 12.497000 -35.400000 45.000000
      vertex 17.350931 -18.694695 45.000000
    endloop
  endfacet
  facet normal 0.000000 0.000000 -1.000000
    outer loop
      vertex 18.613914 -22.443095 45.000000
      vertex 12.497000 -35.400000 45.000000
      vertex 17.778591 -20.637574 45.000000
    endloop
  endfacet
  facet normal 0.000000 0.000000 -1.000000
    outer loop
      vertex 12.497000 -35.400000 45.000000
      vertex 18.613914 -22.443095 45.000000
      vertex 19.817841 -24.026835 45.000000
    endloop
  endfacet
  facet normal 0.000000 0.000000 -1.000000
    outer loop
      vertex 19.817841 -24.026835 45.000000
      vertex 21.334079 -25.314739 45.000000
      vertex 12.497000 -35.400000 45.000000
    endloop
  endfacet
  facet normal 0.000000 0.000000 -1.000000
    outer loop
      vertex 21.334079 -25.314739 45.000000
      vertex 23.091729 -26.246586 45.000000
      vertex 12.497000 -35.400000 45.000000
    endloop
  endfacet
  facet normal 0.000000 0.000000 -1.000000
    outer loop
      vertex 23.091729 -26.246586 45.000000
      vertex 24.497000 -26.636757 45.000000
      vertex 12.497000 -35.400000 45.000000
    endloop
  endfacet
  facet normal -0.000000 0.000000 -1.000000
    outer loop
      vertex 12.497000 -35.400000 45.000000
      vertex 24.497000 -26.636757 45.000000
      vertex 24.497000 -35.400000 45.000000
    endloop
  endfacet
  facet normal 0.000000 0.000000 -1.000000
    outer loop
      vertex 19.817841 -11.373165 45.000000
      vertex 24.497000 0.000000 45.000000
      vertex 21.334079 -10.085261 45.000000
    endloop
  endfacet
  facet normal 0.000000 -0.642787 0.766045
    outer loop
      vertex 12.497000 -4.542344 45.368861
      vertex 24.497000 -4.542344 45.368861
      vertex 24.497000 -3.075129 46.600000
    endloop
  endfacet
  facet normal 0.000000 -0.642787 0.766045
    outer loop
      vertex 12.497000 -3.075129 46.600000
      vertex 12.497000 -4.542344 45.368861
      vertex 24.497000 -3.075129 46.600000
    endloop
  endfacet
  facet normal 0.000000 -0.984808 0.173648
    outer loop
      vertex 12.497000 -3.075129 46.600000
      vertex 24.497000 -3.075129 46.600000
      vertex 24.497000 -2.742538 48.486215
    endloop
  endfacet
  facet normal 0.000000 -0.984808 0.173648
    outer loop
      vertex 12.497000 -2.742538 48.486215
      vertex 12.497000 -3.075129 46.600000
      vertex 24.497000 -2.742538 48.486215
    endloop
  endfacet
  facet normal 0.000000 0.000000 1.000000
    outer loop
      vertex 12.497000 -6.457656 45.368861
      vertex 24.497000 -6.457656 45.368861
      vertex 24.497000 -4.542344 45.368861
    endloop
  endfacet
  facet normal 0.000000 -0.000000 1.000000
    outer loop
      vertex 12.497000 -4.542344 45.368861
      vertex 12.497000 -6.457656 45.368861
      vertex 24.497000 -4.542344 45.368861
    endloop
  endfacet
  facet normal 0.000000 0.642787 0.766045
    outer loop
      vertex 12.497000 -7.924871 46.600000
      vertex 24.497000 -7.924871 46.600000
      vertex 24.497000 -6.457656 45.368861
    endloop
  endfacet
  facet normal 0.000000 0.642787 0.766045
    outer loop
      vertex 12.497000 -6.457656 45.368861
      vertex 12.497000 -7.924871 46.600000
      vertex 24.497000 -6.457656 45.368861
    endloop
  endfacet
  facet normal 0.000000 0.984808 0.173648
    outer loop
      vertex 24.497000 -8.257462 48.486215
      vertex 24.497000 -7.924871 46.600000
      vertex 12.497000 -8.257462 48.486215
    endloop
  endfacet
  facet normal 0.000000 0.984808 0.173648
    outer loop
      vertex 12.497000 -8.257462 48.486215
      vertex 24.497000 -7.924871 46.600000
      vertex 12.497000 -7.924871 46.600000
    endloop
  endfacet
  facet normal -0.000000 0.866025 -0.500000
    outer loop
      vertex 24.497000 -8.257462 48.486215
      vertex 12.497000 -8.257462 48.486215
      vertex 24.497000 -7.299805 50.144924
    endloop
  endfacet
  facet normal 0.000000 0.866025 -0.500000
    outer loop
      vertex 24.497000 -7.299805 50.144924
      vertex 12.497000 -8.257462 48.486215
      vertex 12.497000 -7.299805 50.144924
    endloop
  endfacet
  facet normal 0.000000 0.342020 -0.939693
    outer loop
      vertex 24.497000 -7.299805 50.144924
      vertex 12.497000 -7.299805 50.144924
      vertex 24.497000 -6.440959 50.457519
    endloop
  endfacet
  facet normal 0.000000 0.342020 -0.939693
    outer loop
      vertex 24.497000 -6.440959 50.457519
      vertex 12.497000 -7.299805 50.144924
      vertex 12.497000 -6.440959 50.457519
    endloop
  endfacet
  facet normal 0.000000 0.707107 -0.707107
    outer loop
      vertex 24.497000 -6.440959 50.457519
      vertex 12.497000 -6.440959 50.457519
      vertex 24.497000 -5.500000 51.398478
    endloop
  endfacet
  facet normal 0.000000 0.707107 -0.707107
    outer loop
      vertex 24.497000 -5.500000 51.398478
      vertex 12.497000 -6.440959 50.457519
      vertex 12.497000 -5.500000 51.398478
    endloop
  endfacet
  facet normal 0.000000 -0.707107 -0.707107
    outer loop
      vertex 24.497000 -4.559041 50.457519
      vertex 24.497000 -5.500000 51.398478
      vertex 12.497000 -5.500000 51.398478
    endloop
  endfacet
  facet normal -0.000000 -0.707107 -0.707107
    outer loop
      vertex 12.497000 -4.559041 50.457519
      vertex 24.497000 -4.559041 50.457519
      vertex 12.497000 -5.500000 51.398478
    endloop
  endfacet
  facet normal 0.000000 -0.342020 -0.939693
    outer loop
      vertex 24.497000 -4.559041 50.457519
      vertex 12.497000 -4.559041 50.457519
      vertex 24.497000 -3.700195 50.144924
    endloop
  endfacet
  facet normal 0.000000 -0.342020 -0.939693
    outer loop
      vertex 24.497000 -3.700195 50.144924
      vertex 12.497000 -4.559041 50.457519
      vertex 12.497000 -3.700195 50.144924
    endloop
  endfacet
  facet normal 0.000000 -0.866025 -0.500000
    outer loop
      vertex 24.497000 -2.742538 48.486215
      vertex 24.497000 -3.700195 50.144924
      vertex 12.497000 -3.700195 50.144924
    endloop
  endfacet
  facet normal -0.000000 -0.866025 -0.500000
    outer loop
      vertex 12.497000 -2.742538 48.486215
      vertex 24.497000 -2.742538 48.486215
      vertex 12.497000 -3.700195 50.144924
    endloop
  endfacet
  facet normal 0.000000 -0.642787 0.766045
    outer loop
      vertex 12.497000 -28.942344 45.368861
      vertex 24.497000 -28.942344 45.368861
      vertex 24.497000 -27.475129 46.600000
    endloop
  endfacet
  facet normal 0.000000 -0.642787 0.766045
    outer loop
      vertex 12.497000 -27.475129 46.600000
      vertex 12.497000 -28.942344 45.368861
      vertex 24.497000 -27.475129 46.600000
    endloop
  endfacet
  facet normal 0.000000 -0.984808 0.173648
    outer loop
      vertex 12.497000 -27.475129 46.600000
      vertex 24.497000 -27.475129 46.600000
      vertex 24.497000 -27.142538 48.486215
    endloop
  endfacet
  facet normal 0.000000 -0.984808 0.173648
    outer loop
      vertex 12.497000 -27.142538 48.486215
      vertex 12.497000 -27.475129 46.600000
      vertex 24.497000 -27.142538 48.486215
    endloop
  endfacet
  facet normal 0.000000 0.000000 1.000000
    outer loop
      vertex 12.497000 -30.857656 45.368861
      vertex 24.497000 -30.857656 45.368861
      vertex 24.497000 -28.942344 45.368861
    endloop
  endfacet
  facet normal 0.000000 -0.000000 1.000000
    outer loop
      vertex 12.497000 -28.942344 45.368861
      vertex 12.497000 -30.857656 45.368861
      vertex 24.497000 -28.942344 45.368861
    endloop
  endfacet
  facet normal 0.000000 0.642787 0.766045
    outer loop
      vertex 12.497000 -32.324871 46.600000
      vertex 24.497000 -32.324871 46.600000
      vertex 24.497000 -30.857656 45.368861
    endloop
  endfacet
  facet normal 0.000000 0.642787 0.766045
    outer loop
      vertex 12.497000 -30.857656 45.368861
      vertex 12.497000 -32.324871 46.600000
      vertex 24.497000 -30.857656 45.368861
    endloop
  endfacet
  facet normal -0.000000 0.984808 0.173648
    outer loop
      vertex 24.497000 -32.657462 48.486215
      vertex 24.497000 -32.324871 46.600000
      vertex 12.497000 -32.657462 48.486215
    endloop
  endfacet
  facet normal 0.000000 0.984808 0.173648
    outer loop
      vertex 12.497000 -32.657462 48.486215
      vertex 24.497000 -32.324871 46.600000
      vertex 12.497000 -32.324871 46.600000
    endloop
  endfacet
  facet normal 0.000000 0.866025 -0.500000
    outer loop
      vertex 24.497000 -32.657462 48.486215
      vertex 12.497000 -32.657462 48.486215
      vertex 24.497000 -31.699805 50.144924
    endloop
  endfacet
  facet normal 0.000000 0.866025 -0.500000
    outer loop
      vertex 24.497000 -31.699805 50.144924
      vertex 12.497000 -32.657462 48.486215
      vertex 12.497000 -31.699805 50.144924
    endloop
  endfacet
  facet normal 0.000000 0.342020 -0.939693
    outer loop
      vertex 24.497000 -31.699805 50.144924
      vertex 12.497000 -31.699805 50.144924
      vertex 24.497000 -30.840959 50.457519
    endloop
  endfacet
  facet normal -0.000000 0.342020 -0.939693
    outer loop
      vertex 24.497000 -30.840959 50.457519
      vertex 12.497000 -31.699805 50.144924
      vertex 12.497000 -30.840959 50.457519
    endloop
  endfacet
  facet normal -0.000000 0.707107 -0.707107
    outer loop
      vertex 24.497000 -30.840959 50.457519
      vertex 12.497000 -30.840959 50.457519
      vertex 24.497000 -29.900000 51.398478
    endloop
  endfacet
  facet normal 0.000000 0.707107 -0.707107
    outer loop
      vertex 24.497000 -29.900000 51.398478
      vertex 12.497000 -30.840959 50.457519
      vertex 12.497000 -29.900000 51.398478
    endloop
  endfacet
  facet normal 0.000000 -0.707107 -0.707107
    outer loop
      vertex 24.497000 -28.959041 50.457519
      vertex 24.497000 -29.900000 51.398478
      vertex 12.497000 -29.900000 51.398478
    endloop
  endfacet
  facet normal -0.000000 -0.707107 -0.707107
    outer loop
      vertex 12.497000 -28.959041 50.457519
      vertex 24.497000 -28.959041 50.457519
      vertex 12.497000 -29.900000 51.398478
    endloop
  endfacet
  facet normal -0.000000 -0.342020 -0.939693
    outer loop
      vertex 24.497000 -28.959041 50.457519
      vertex 12.497000 -28.959041 50.457519
      vertex 24.497000 -28.100195 50.144924
    endloop
  endfacet
  facet normal 0.000000 -0.342020 -0.939693
    outer loop
      vertex 24.497000 -28.100195 50.144924
      vertex 12.497000 -28.959041 50.457519
      vertex 12.497000 -28.100195 50.144924
    endloop
  endfacet
  facet normal 0.000000 -0.866025 -0.500000
    outer loop
      vertex 24.497000 -27.142538 48.486215
      vertex 24.497000 -28.100195 50.144924
      vertex 12.497000 -28.100195 50.144924
    endloop
  endfacet
  facet normal -0.000000 -0.866025 -0.500000
    outer loop
      vertex 12.497000 -27.142538 48.486215
      vertex 24.497000 -27.142538 48.486215
      vertex 12.497000 -28.100195 50.144924
    endloop
  endfacet
  facet normal 1.000000 0.000000 0.000000
    outer loop
      vertex 24.497000 -4.559041 50.457519
      vertex 24.497000 0.000000 55.000000
      vertex 24.497000 -8.763243 55.000000
    endloop
  endfacet
  facet normal 1.000000 0.000000 0.000000
    outer loop
      vertex 24.497000 0.000000 45.000000
      vertex 24.497000 0.000000 55.000000
      vertex 24.497000 -2.742538 48.486215
    endloop
  endfacet
  facet normal 1.000000 0.000000 0.000000
    outer loop
      vertex 24.497000 -5.500000 51.398478
      vertex 24.497000 -4.559041 50.457519
      vertex 24.497000 -8.763243 55.000000
    endloop
  endfacet
  facet normal 1.000000 0.000000 0.000000
    outer loop
      vertex 24.497000 -4.542344 45.368861
      vertex 24.497000 0.000000 45.000000
      vertex 24.497000 -3.075129 46.600000
    endloop
  endfacet
  facet normal 1.000000 0.000000 0.000000
    outer loop
      vertex 24.497000 -8.763243 45.000000
      vertex 24.497000 0.000000 45.000000
      vertex 24.497000 -4.542344 45.368861
    endloop
  endfacet
  facet normal 1.000000 0.000000 0.000000
    outer loop
      vertex 24.497000 -8.257462 48.486215
      vertex 24.497000 -7.299805 50.144924
      vertex 24.497000 -8.763243 55.000000
    endloop
  endfacet
  facet normal 1.000000 0.000000 0.000000
    outer loop
      vertex 24.497000 -8.763243 45.000000
      vertex 24.497000 -4.542344 45.368861
      vertex 24.497000 -6.457656 45.368861
    endloop
  endfacet
  facet normal 1.000000 0.000000 0.000000
    outer loop
      vertex 24.497000 -6.440959 50.457519
      vertex 24.497000 -5.500000 51.398478
      vertex 24.497000 -8.763243 55.000000
    endloop
  endfacet
  facet normal 1.000000 0.000000 0.000000
    outer loop
      vertex 24.497000 -8.763243 45.000000
      vertex 24.497000 -8.257462 48.486215
      vertex 24.497000 -8.763243 55.000000
    endloop
  endfacet
  facet normal 1.000000 0.000000 0.000000
    outer loop
      vertex 24.497000 -8.763243 45.000000
      vertex 24.497000 -7.924871 46.600000
      vertex 24.497000 -8.257462 48.486215
    endloop
  endfacet
  facet normal 1.000000 0.000000 0.000000
    outer loop
      vertex 24.497000 -7.299805 50.144924
      vertex 24.497000 -6.440959 50.457519
      vertex 24.497000 -8.763243 55.000000
    endloop
  endfacet
  facet normal 1.000000 -0.000000 0.000000
    outer loop
      vertex 24.497000 -6.457656 45.368861
      vertex 24.497000 -7.924871 46.600000
      vertex 24.497000 -8.763243 45.000000
    endloop
  endfacet
  facet normal 1.000000 0.000000 0.000000
    outer loop
      vertex 24.497000 -3.700195 50.144924
      vertex 24.497000 0.000000 55.000000
      vertex 24.497000 -4.559041 50.457519
    endloop
  endfacet
  facet normal 1.000000 0.000000 0.000000
    outer loop
      vertex 24.497000 -2.742538 48.486215
      vertex 24.497000 0.000000 55.000000
      vertex 24.497000 -3.700195 50.144924
    endloop
  endfacet
  facet normal 1.000000 0.000000 -0.000000
    outer loop
      vertex 24.497000 -2.742538 48.486215
      vertex 24.497000 -3.075129 46.600000
      vertex 24.497000 0.000000 45.000000
    endloop
  endfacet
  facet normal 0.267528 -0.963550 0.000000
    outer loop
      vertex 23.091729 -9.153414 45.000000
      vertex 24.497000 -8.763243 45.000000
      vertex 24.497000 -8.763243 55.000000
    endloop
  endfacet
  facet normal 0.267528 -0.963550 0.000000
    outer loop
      vertex 23.091729 -9.153414 55.000000
      vertex 23.091729 -9.153414 45.000000
      vertex 24.497000 -8.763243 55.000000
    endloop
  endfacet
  facet normal 0.468408 -0.883512 0.000000
    outer loop
      vertex 21.334079 -10.085261 45.000000
      vertex 23.091729 -9.153414 45.000000
      vertex 23.091729 -9.153414 55.000000
    endloop
  endfacet
  facet normal 0.468408 -0.883512 0.000000
    outer loop
      vertex 21.334079 -10.085261 55.000000
      vertex 21.334079 -10.085261 45.000000
      vertex 23.091729 -9.153414 55.000000
    endloop
  endfacet
  facet normal 0.647386 -0.762162 0.000000
    outer loop
      vertex 19.817841 -11.373165 45.000000
      vertex 21.334079 -10.085261 45.000000
      vertex 21.334079 -10.085261 55.000000
    endloop
  endfacet
  facet normal 0.647386 -0.762162 0.000000
    outer loop
      vertex 19.817841 -11.373165 55.000000
      vertex 19.817841 -11.373165 45.000000
      vertex 21.334079 -10.085261 55.000000
    endloop
  endfacet
  facet normal 0.796093 -0.605174 0.000000
    outer loop
      vertex 18.613914 -12.956905 45.000000
      vertex 19.817841 -11.373165 45.000000
      vertex 19.817841 -11.373165 55.000000
    endloop
  endfacet
  facet normal 0.796093 -0.605174 0.000000
    outer loop
      vertex 18.613914 -12.956905 55.000000
      vertex 18.613914 -12.956905 45.000000
      vertex 19.817841 -11.373165 55.000000
    endloop
  endfacet
  facet normal 0.907575 -0.419889 0.000000
    outer loop
      vertex 17.778591 -14.762426 45.000000
      vertex 18.613914 -12.956905 45.000000
      vertex 18.613914 -12.956905 55.000000
    endloop
  endfacet
  facet normal 0.907575 -0.419889 0.000000
    outer loop
      vertex 17.778591 -14.762426 55.000000
      vertex 17.778591 -14.762426 45.000000
      vertex 18.613914 -12.956905 55.000000
    endloop
  endfacet
  facet normal 0.976621 -0.214970 0.000000
    outer loop
      vertex 17.350931 -16.705305 45.000000
      vertex 17.778591 -14.762426 45.000000
      vertex 17.778591 -14.762426 55.000000
    endloop
  endfacet
  facet normal 0.976621 -0.214970 0.000000
    outer loop
      vertex 17.350931 -16.705305 55.000000
      vertex 17.350931 -16.705305 45.000000
      vertex 17.778591 -14.762426 55.000000
    endloop
  endfacet
  facet normal 1.000000 0.000000 -0.000000
    outer loop
      vertex 17.350931 -18.694695 55.000000
      vertex 17.350931 -18.694695 45.000000
      vertex 17.350931 -16.705305 45.000000
    endloop
  endfacet
  facet normal 1.000000 0.000000 0.000000
    outer loop
      vertex 17.350931 -16.705305 55.000000
      vertex 17.350931 -18.694695 55.000000
      vertex 17.350931 -16.705305 45.000000
    endloop
  endfacet
  facet normal 0.976621 0.214970 -0.000000
    outer loop
      vertex 17.778591 -20.637574 55.000000
      vertex 17.778591 -20.637574 45.000000
      vertex 17.350931 -18.694695 45.000000
    endloop
  endfacet
  facet normal 0.976621 0.214970 -0.000000
    outer loop
      vertex 17.350931 -18.694695 55.000000
      vertex 17.778591 -20.637574 55.000000
      vertex 17.350931 -18.694695 45.000000
    endloop
  endfacet
  facet normal 0.907575 0.419889 -0.000000
    outer loop
      vertex 18.613914 -22.443095 55.000000
      vertex 18.613914 -22.443095 45.000000
      vertex 17.778591 -20.637574 45.000000
    endloop
  endfacet
  facet normal 0.907575 0.419889 -0.000000
    outer loop
      vertex 17.778591 -20.637574 55.000000
      vertex 18.613914 -22.443095 55.000000
      vertex 17.778591 -20.637574 45.000000
    endloop
  endfacet
  facet normal 0.796093 0.605174 -0.000000
    outer loop
      vertex 19.817841 -24.026835 55.000000
      vertex 19.817841 -24.026835 45.000000
      vertex 18.613914 -22.443095 45.000000
    endloop
  endfacet
  facet normal 0.796093 0.605174 -0.000000
    outer loop
      vertex 18.613914 -22.443095 55.000000
      vertex 19.817841 -24.026835 55.000000
      vertex 18.613914 -22.443095 45.000000
    endloop
  endfacet
  facet normal 0.647386 0.762162 -0.000000
    outer loop
      vertex 21.334079 -25.314739 45.000000
      vertex 19.817841 -24.026835 45.000000
      vertex 21.334079 -25.314739 55.000000
    endloop
  endfacet
  facet normal 0.647386 0.762162 0.000000
    outer loop
      vertex 21.334079 -25.314739 55.000000
      vertex 19.817841 -24.026835 45.000000
      vertex 19.817841 -24.026835 55.000000
    endloop
  endfacet
  facet normal 0.468408 0.883512 -0.000000
    outer loop
      vertex 23.091729 -26.246586 45.000000
      vertex 21.334079 -25.314739 45.000000
      vertex 23.091729 -26.246586 55.000000
    endloop
  endfacet
  facet normal 0.468408 0.883512 -0.000000
    outer loop
      vertex 23.091729 -26.246586 55.000000
      vertex 21.334079 -25.314739 45.000000
      vertex 21.334079 -25.314739 55.000000
    endloop
  endfacet
  facet normal 0.267528 0.963550 0.000000
    outer loop
      vertex 24.497000 -26.636757 45.000000
      vertex 23.091729 -26.246586 45.000000
      vertex 24.497000 -26.636757 55.000000
    endloop
  endfacet
  facet normal 0.267528 0.963550 -0.000000
    outer loop
      vertex 24.497000 -26.636757 55.000000
      vertex 23.091729 -26.246586 45.000000
      vertex 23.091729 -26.246586 55.000000
    endloop
  endfacet
  facet normal 1.000000 0.000000 0.000000
    outer loop
      vertex 24.497000 -29.900000 51.398478
      vertex 24.497000 -26.636757 55.000000
      vertex 24.497000 -35.400000 55.000000
    endloop
  endfacet
  facet normal 1.000000 0.000000 0.000000
    outer loop
      vertex 24.497000 -26.636757 45.000000
      vertex 24.497000 -26.636757 55.000000
      vertex 24.497000 -27.142538 48.486215
    endloop
  endfacet
  facet normal 1.000000 0.000000 0.000000
    outer loop
      vertex 24.497000 -32.657462 48.486215
      vertex 24.497000 -31.699805 50.144924
      vertex 24.497000 -35.400000 55.000000
    endloop
  endfacet
  facet normal 1.000000 0.000000 0.000000
    outer loop
      vertex 24.497000 -26.636757 45.000000
      vertex 24.497000 -27.142538 48.486215
      vertex 24.497000 -27.475129 46.600000
    endloop
  endfacet
  facet normal 1.000000 0.000000 0.000000
    outer loop
      vertex 24.497000 -31.699805 50.144924
      vertex 24.497000 -30.840959 50.457519
      vertex 24.497000 -35.400000 55.000000
    endloop
  endfacet
  facet normal 1.000000 0.000000 0.000000
    outer loop
      vertex 24.497000 -35.400000 45.000000
      vertex 24.497000 -26.636757 45.000000
      vertex 24.497000 -28.942344 45.368861
    endloop
  endfacet
  facet normal 1.000000 0.000000 0.000000
    outer loop
      vertex 24.497000 -35.400000 45.000000
      vertex 24.497000 -28.942344 45.368861
      vertex 24.497000 -30.857656 45.368861
    endloop
  endfacet
  facet normal 1.000000 0.000000 0.000000
    outer loop
      vertex 24.497000 -35.400000 45.000000
      vertex 24.497000 -32.324871 46.600000
      vertex 24.497000 -35.400000 55.000000
    endloop
  endfacet
  facet normal 1.000000 0.000000 0.000000
    outer loop
      vertex 24.497000 -35.400000 45.000000
      vertex 24.497000 -30.857656 45.368861
      vertex 24.497000 -32.324871 46.600000
    endloop
  endfacet
  facet normal 1.000000 0.000000 0.000000
    outer loop
      vertex 24.497000 -32.324871 46.600000
      vertex 24.497000 -32.657462 48.486215
      vertex 24.497000 -35.400000 55.000000
    endloop
  endfacet
  facet normal 1.000000 0.000000 0.000000
    outer loop
      vertex 24.497000 -28.959041 50.457519
      vertex 24.497000 -26.636757 55.000000
      vertex 24.497000 -29.900000 51.398478
    endloop
  endfacet
  facet normal 1.000000 0.000000 0.000000
    outer loop
      vertex 24.497000 -28.100195 50.144924
      vertex 24.497000 -26.636757 55.000000
      vertex 24.497000 -28.959041 50.457519
    endloop
  endfacet
  facet normal 1.000000 0.000000 0.000000
    outer loop
      vertex 24.497000 -27.142538 48.486215
      vertex 24.497000 -26.636757 55.000000
      vertex 24.497000 -28.100195 50.144924
    endloop
  endfacet
  facet normal 1.000000 0.000000 0.000000
    outer loop
      vertex 24.497000 -30.840959 50.457519
      vertex 24.497000 -29.900000 51.398478
      vertex 24.497000 -35.400000 55.000000
    endloop
  endfacet
  facet normal 1.000000 0.000000 -0.000000
    outer loop
      vertex 24.497000 -27.475129 46.600000
      vertex 24.497000 -28.942344 45.368861
      vertex 24.497000 -26.636757 45.000000
    endloop
  endfacet
endsolid
