<?xml version="1.0" encoding="UTF-8" standalone="no"?>
<svg xmlns:dc="http://purl.org/dc/elements/1.1/" xmlns:cc="http://creativecommons.org/ns#" xmlns:rdf="http://www.w3.org/1999/02/22-rdf-syntax-ns#" xmlns:svg="http://www.w3.org/2000/svg" xmlns="http://www.w3.org/2000/svg" xmlns:sodipodi="http://sodipodi.sourceforge.net/DTD/sodipodi-0.dtd" xmlns:inkscape="http://www.inkscape.org/namespaces/inkscape" id="svg2837" version="1.1" inkscape:version="0.47 r22583" width="100%" height="100%" sodipodi:docname="D_shaft.svg">
  <sodipodi:namedview pagecolor="#ffffff" bordercolor="#666666" borderopacity="1" objecttolerance="10" gridtolerance="10" guidetolerance="10" inkscape:pageopacity="0" inkscape:pageshadow="2" inkscape:window-width="1280" inkscape:window-height="725" id="namedview2969" showgrid="false" inkscape:zoom="0.97741793" inkscape:cx="-41.682644" inkscape:cy="-5.12647" inkscape:window-x="0" inkscape:window-y="24" inkscape:window-maximized="1" inkscape:current-layer="svg2837" />
  <metadata id="metadata2971">
    <rdf:RDF>
      <cc:Work rdf:about="">
        <dc:format>image/svg+xml</dc:format>
        <dc:type rdf:resource="http://purl.org/dc/dcmitype/StillImage" />
        <dc:title></dc:title>
      </cc:Work>
    </rdf:RDF>
  </metadata>
  <desc id="desc2839">/home/rob/parts/mendel_bowden_extruder/src/gearedExtruder/bin/D_shaft.dxf - scale = 1.000000</desc>
  <defs id="defs2841">
    <inkscape:perspective sodipodi:type="inkscape:persp3d" inkscape:vp_x="0 : 0.5 : 1" inkscape:vp_y="0 : 1000 : 0" inkscape:vp_z="1 : 0.5 : 1" inkscape:persp3d-origin="0.5 : 0.33333333 : 1" id="perspective2973" />
    <marker refY="0.0" refX="0.0" style="overflow:visible" id="DistanceX" orient="auto">
      <path style="stroke:#000000; stroke-width:0.5" d="M 3,-3 L -3,3 M 0,-5 L  0,5" id="path2844" />
    </marker>
    <symbol id="*Model_Space" />
    <symbol id="*Paper_Space" />
    <symbol id="*Paper_Space0" />
  </defs>
  <g inkscape:label="0" inkscape:groupmode="layer" id="g2849">
    <path style="stroke:#000000;fill:#000000" d="M -8.875984,1052.362205 -8.840551,1051.564961" id="path2851" />
    <path style="stroke:#000000;fill:#000000" d="M -8.840551,1051.564961 -8.734252,1050.778346" id="path2853" />
    <path style="stroke:#000000;fill:#000000" d="M -8.734252,1050.778346 -8.557087,1050.002362" id="path2855" />
    <path style="stroke:#000000;fill:#000000" d="M -8.557087,1050.002362 -8.309055,1049.244094" id="path2857" />
    <path style="stroke:#000000;fill:#000000" d="M -8.309055,1049.244094 -7.997244,1048.510630" id="path2859" />
    <path style="stroke:#000000;fill:#000000" d="M -7.997244,1048.510630 -7.618110,1047.809055" id="path2861" />
    <path style="stroke:#000000;fill:#000000" d="M -7.618110,1047.809055 -7.182283,1047.146457" id="path2863" />
    <path style="stroke:#000000;fill:#000000" d="M -7.182283,1047.146457 -6.682677,1046.522835" id="path2865" />
    <path style="stroke:#000000;fill:#000000" d="M -6.682677,1046.522835 -6.133465,1045.945276" id="path2867" />
    <path style="stroke:#000000;fill:#000000" d="M -6.133465,1045.945276 -5.534646,1045.424409" id="path2869" />
    <path style="stroke:#000000;fill:#000000" d="M -5.534646,1045.424409 -4.889764,1044.953150" id="path2871" />
    <path style="stroke:#000000;fill:#000000" d="M -4.889764,1044.953150 -4.205906,1044.545669" id="path2873" />
    <path style="stroke:#000000;fill:#000000" d="M -4.205906,1044.545669 -3.490157,1044.201969" id="path2875" />
    <path style="stroke:#000000;fill:#000000" d="M -3.490157,1044.201969 -2.742520,1043.922047" id="path2877" />
    <path style="stroke:#000000;fill:#000000" d="M -2.742520,1043.922047 -1.973622,1043.709449" id="path2879" />
    <path style="stroke:#000000;fill:#000000" d="M -1.973622,1043.709449 -1.190551,1043.567717" id="path2881" />
    <path style="stroke:#000000;fill:#000000" d="M -1.190551,1043.567717 -0.396850,1043.496850" id="path2883" />
    <path style="stroke:#000000;fill:#000000" d="M -0.396850,1043.496850 0.396850,1043.496850" id="path2885" />
    <path style="stroke:#000000;fill:#000000" d="M 0.396850,1043.496850 1.190551,1043.567717" id="path2887" />
    <path style="stroke:#000000;fill:#000000" d="M 1.190551,1043.567717 1.973622,1043.709449" id="path2889" />
    <path style="stroke:#000000;fill:#000000" d="M 1.973622,1043.709449 2.742520,1043.922047" id="path2891" />
    <path style="stroke:#000000;fill:#000000" d="M 2.742520,1043.922047 3.490157,1044.201969" id="path2893" />
    <path style="stroke:#000000;fill:#000000" d="M 3.490157,1044.201969 4.205906,1044.545669" id="path2895" />
    <path style="stroke:#000000;fill:#000000" d="M 4.205906,1044.545669 4.889764,1044.953150" id="path2897" />
    <path style="stroke:#000000;fill:#000000" d="M 4.889764,1044.953150 5.534646,1045.424409" id="path2899" />
    <path style="stroke:#000000;fill:#000000" d="M 5.534646,1045.424409 6.133465,1045.945276" id="path2901" />
    <path style="stroke:#000000;fill:#000000" d="M 6.133465,1045.945276 6.682677,1046.522835" id="path2903" />
    <path style="stroke:#000000;fill:#000000" d="M 6.682677,1046.522835 7.182283,1047.146457" id="path2905" />
    <path style="stroke:#000000;fill:#000000" d="M 7.182283,1047.146457 7.316929,1047.351969" id="path2907" />
    <path style="stroke:#000000;fill:#000000" d="M 7.316929,1047.351969 7.316929,1057.372441" id="path2909" />
    <path style="stroke:#000000;fill:#000000" d="M 7.316929,1057.372441 7.182283,1057.577953" id="path2911" />
    <path style="stroke:#000000;fill:#000000" d="M 7.182283,1057.577953 6.682677,1058.201575" id="path2913" />
    <path style="stroke:#000000;fill:#000000" d="M 6.682677,1058.201575 6.133465,1058.779134" id="path2915" />
    <path style="stroke:#000000;fill:#000000" d="M 6.133465,1058.779134 5.534646,1059.300000" id="path2917" />
    <path style="stroke:#000000;fill:#000000" d="M 5.534646,1059.300000 4.889764,1059.771260" id="path2919" />
    <path style="stroke:#000000;fill:#000000" d="M 4.889764,1059.771260 4.205906,1060.178740" id="path2921" />
    <path style="stroke:#000000;fill:#000000" d="M 4.205906,1060.178740 3.490157,1060.522441" id="path2923" />
    <path style="stroke:#000000;fill:#000000" d="M 3.490157,1060.522441 2.742520,1060.802362" id="path2925" />
    <path style="stroke:#000000;fill:#000000" d="M 2.742520,1060.802362 1.973622,1061.014961" id="path2927" />
    <path style="stroke:#000000;fill:#000000" d="M 1.973622,1061.014961 1.190551,1061.156693" id="path2929" />
    <path style="stroke:#000000;fill:#000000" d="M 1.190551,1061.156693 0.396850,1061.227559" id="path2931" />
    <path style="stroke:#000000;fill:#000000" d="M 0.396850,1061.227559 -0.396850,1061.227559" id="path2933" />
    <path style="stroke:#000000;fill:#000000" d="M -0.396850,1061.227559 -1.190551,1061.156693" id="path2935" />
    <path style="stroke:#000000;fill:#000000" d="M -1.190551,1061.156693 -1.973622,1061.014961" id="path2937" />
    <path style="stroke:#000000;fill:#000000" d="M -1.973622,1061.014961 -2.742520,1060.802362" id="path2939" />
    <path style="stroke:#000000;fill:#000000" d="M -2.742520,1060.802362 -3.490157,1060.522441" id="path2941" />
    <path style="stroke:#000000;fill:#000000" d="M -3.490157,1060.522441 -4.205906,1060.178740" id="path2943" />
    <path style="stroke:#000000;fill:#000000" d="M -4.205906,1060.178740 -4.889764,1059.771260" id="path2945" />
    <path style="stroke:#000000;fill:#000000" d="M -4.889764,1059.771260 -5.534646,1059.300000" id="path2947" />
    <path style="stroke:#000000;fill:#000000" d="M -5.534646,1059.300000 -6.133465,1058.779134" id="path2949" />
    <path style="stroke:#000000;fill:#000000" d="M -6.133465,1058.779134 -6.682677,1058.201575" id="path2951" />
    <path style="stroke:#000000;fill:#000000" d="M -6.682677,1058.201575 -7.182283,1057.577953" id="path2953" />
    <path style="stroke:#000000;fill:#000000" d="M -7.182283,1057.577953 -7.618110,1056.915354" id="path2955" />
    <path style="stroke:#000000;fill:#000000" d="M -7.618110,1056.915354 -7.997244,1056.213780" id="path2957" />
    <path style="stroke:#000000;fill:#000000" d="M -7.997244,1056.213780 -8.309055,1055.480315" id="path2959" />
    <path style="stroke:#000000;fill:#000000" d="M -8.309055,1055.480315 -8.557087,1054.722047" id="path2961" />
    <path style="stroke:#000000;fill:#000000" d="M -8.557087,1054.722047 -8.734252,1053.946063" id="path2963" />
    <path style="stroke:#000000;fill:#000000" d="M -8.734252,1053.946063 -8.840551,1053.159449" id="path2965" />
    <path style="stroke:#000000;fill:#000000" d="M -8.840551,1053.159449 -8.875984,1052.362205" id="path2967" />
  </g>
  <g inkscape:label="Gear11" transform="translate(-0.283,1052.3622)" id="g3772">
    <path style="fill:none;stroke:#000000" d="m 14.146,-2.25 l 2.101,-0.334 l 1.082,0.092 l 3.339,1.529 l 0,1.926 L 17.329,2.492 L 16.247,2.584 L 14.146,2.25 l -1.029,3.506 l 1.948,0.854 l 0.86,0.663 l 1.983,3.09 l -1.042,1.621 l -3.635,-0.519 l -0.96,-0.508 L 10.684,9.54 l -2.761,2.393 l 1.176,1.773 l 0.366,1.022 L 9.462,18.4 L 7.709,19.2 L 4.932,16.798 L 4.399,15.852 L 3.83,13.802 l -3.617,0.52 l 0.032,2.127 L 0,17.507 l -1.988,3.087 L -3.895,20.32 l -1.037,-3.522 l 0.062,-1.084 l 0.63,-2.032 l -3.324,-1.518 l -1.123,1.807 l -0.778,0.757 l -3.341,1.523 l -1.457,-1.262 l 1.032,-3.524 l 0.639,-0.878 l 1.628,-1.369 l -1.975,-3.074 l -1.922,0.912 l -1.064,0.217 l -3.634,-0.526 l -0.543,-1.849 l 2.773,-2.406 l 1.012,-0.394 l 2.11,-0.271 l 0,-3.654 l -2.11,-0.271 l -1.012,-0.394 l -2.773,-2.406 l 0.543,-1.849 l 3.634,-0.526 l 1.064,0.217 l 1.922,0.912 l 1.975,-3.074 l -1.628,-1.369 l -0.639,-0.878 l -1.032,-3.524 l 1.457,-1.262 l 3.341,1.523 l 0.778,0.757 l 1.123,1.807 l 3.324,-1.518 l -0.63,-2.032 l -0.062,-1.084 l 1.037,-3.522 l 1.907,-0.274 L 0,-17.507 l 0.245,1.058 l -0.032,2.127 l 3.617,0.52 l 0.569,-2.05 l 0.533,-0.946 L 7.709,-19.2 l 1.753,0.8 l 0.003,3.672 l -0.366,1.022 l -1.176,1.773 l 2.761,2.393 l 1.587,-1.417 l 0.96,-0.508 l 3.635,-0.519 l 1.042,1.621 l -1.983,3.09 l -0.86,0.663 l -1.948,0.854 z" id="path3774" />
  </g>
</svg>
